<?xml version="1.0" encoding="UTF-8" standalone="no"?>
<!DOCTYPE svg PUBLIC "-//W3C//DTD SVG 1.1//EN"
 "http://www.w3.org/Graphics/SVG/1.1/DTD/svg11.dtd">
<!-- Generated by graphviz version 2.43.0 (0)
 -->
<!-- Title: G Pages: 1 -->
<svg width="1122pt" height="915pt"
 viewBox="0.00 0.00 1121.77 915.00" xmlns="http://www.w3.org/2000/svg" xmlns:xlink="http://www.w3.org/1999/xlink">
<g id="graph0" class="graph" transform="scale(1 1) rotate(0) translate(4 911)">
<title>G</title>
<polygon fill="white" stroke="transparent" points="-4,4 -4,-911 1117.77,-911 1117.77,4 -4,4"/>
<!-- n1 -->
<g id="node1" class="node">
<title>n1</title>
<ellipse fill="#6c9ac3" stroke="#6c9ac3" cx="46.15" cy="-308" rx="46.29" ry="46.29"/>
<text text-anchor="middle" x="46.15" y="-304.3" font-family="Times,serif" font-size="14.00">UV_UM</text>
</g>
<!-- n5 -->
<g id="node5" class="node">
<title>n5</title>
<polygon fill="#e28f41" stroke="#e28f41" points="232.79,-735 154.79,-735 154.79,-657 232.79,-657 232.79,-735"/>
<text text-anchor="middle" x="193.79" y="-692.3" font-family="Times,serif" font-size="14.00">mask_uv</text>
</g>
<!-- n1&#45;&gt;n5 -->
<g id="edge41" class="edge">
<title>n1&#45;&gt;n5</title>
<path fill="none" stroke="black" d="M47.51,-354.29C49.91,-418.49 61.33,-536.3 110.29,-622 119.31,-637.78 132.9,-651.99 146.47,-663.64"/>
<polygon fill="black" stroke="black" points="144.48,-666.54 154.42,-670.2 148.93,-661.13 144.48,-666.54"/>
<text text-anchor="middle" x="115.29" y="-637.8" font-family="Times,serif" font-size="14.00">1</text>
</g>
<!-- n9 -->
<g id="node9" class="node">
<title>n9</title>
<polygon fill="#e28f41" stroke="#e28f41" points="338.29,-256.5 267.29,-256.5 267.29,-185.5 338.29,-185.5 338.29,-256.5"/>
<text text-anchor="middle" x="302.79" y="-217.3" font-family="Times,serif" font-size="14.00">vax_um</text>
</g>
<!-- n1&#45;&gt;n9 -->
<g id="edge5" class="edge">
<title>n1&#45;&gt;n9</title>
<path fill="none" stroke="black" d="M69.11,-267.87C84.85,-243.6 108.49,-214.76 138.29,-201 175.98,-183.6 223.5,-192.36 257.58,-203.21"/>
<polygon fill="black" stroke="black" points="256.67,-206.6 267.26,-206.47 258.9,-199.96 256.67,-206.6"/>
<text text-anchor="middle" x="115.29" y="-222.8" font-family="Times,serif" font-size="14.00">1</text>
</g>
<!-- n12 -->
<g id="node12" class="node">
<title>n12</title>
<polygon fill="#e28f41" stroke="#e28f41" points="1113.77,-238 1003.77,-238 1003.77,-128 1113.77,-128 1113.77,-238"/>
<text text-anchor="middle" x="1058.77" y="-179.3" font-family="Times,serif" font-size="14.00">infect_um_uv</text>
</g>
<!-- n1&#45;&gt;n12 -->
<g id="edge1" class="edge">
<title>n1&#45;&gt;n12</title>
<path fill="none" stroke="black" d="M63.5,-264.91C85.07,-216.32 128.06,-144 192.79,-144 192.79,-144 192.79,-144 920.43,-144 945.04,-144 971.23,-149.87 994.07,-157.05"/>
<polygon fill="black" stroke="black" points="993.04,-160.4 1003.63,-160.2 995.23,-153.75 993.04,-160.4"/>
<text text-anchor="middle" x="603.99" y="-147.8" font-family="Times,serif" font-size="14.00">1</text>
</g>
<!-- n13 -->
<g id="node13" class="node">
<title>n13</title>
<polygon fill="#e28f41" stroke="#e28f41" points="1113.77,-110 1003.77,-110 1003.77,0 1113.77,0 1113.77,-110"/>
<text text-anchor="middle" x="1058.77" y="-51.3" font-family="Times,serif" font-size="14.00">infect_um_vu</text>
</g>
<!-- n1&#45;&gt;n13 -->
<g id="edge18" class="edge">
<title>n1&#45;&gt;n13</title>
<path fill="none" stroke="black" d="M52.62,-262.18C64.17,-189.28 98.27,-55 192.79,-55 192.79,-55 192.79,-55 920.43,-55 944.31,-55 970.54,-55 993.61,-55"/>
<polygon fill="black" stroke="black" points="993.63,-58.5 1003.63,-55 993.63,-51.5 993.63,-58.5"/>
<text text-anchor="middle" x="603.99" y="-58.8" font-family="Times,serif" font-size="14.00">1</text>
</g>
<!-- n14 -->
<g id="node14" class="node">
<title>n14</title>
<polygon fill="#e28f41" stroke="#e28f41" points="249.29,-485.5 138.29,-485.5 138.29,-374.5 249.29,-374.5 249.29,-485.5"/>
<text text-anchor="middle" x="193.79" y="-426.3" font-family="Times,serif" font-size="14.00">infect_um_uu</text>
</g>
<!-- n1&#45;&gt;n14 -->
<g id="edge19" class="edge">
<title>n1&#45;&gt;n14</title>
<path fill="none" stroke="black" d="M67.17,-349.63C77.77,-367.89 92.34,-388.26 110.29,-402 115.78,-406.2 121.94,-409.79 128.35,-412.86"/>
<polygon fill="black" stroke="black" points="127.31,-416.23 137.88,-416.99 130.09,-409.8 127.31,-416.23"/>
<text text-anchor="middle" x="115.29" y="-411.8" font-family="Times,serif" font-size="14.00">2</text>
</g>
<!-- n16 -->
<g id="node16" class="node">
<title>n16</title>
<polygon fill="#e28f41" stroke="#e28f41" points="835.08,-377.5 734.08,-377.5 734.08,-276.5 835.08,-276.5 835.08,-377.5"/>
<text text-anchor="middle" x="784.58" y="-323.3" font-family="Times,serif" font-size="14.00">infect_m_uv</text>
</g>
<!-- n1&#45;&gt;n16 -->
<g id="edge22" class="edge">
<title>n1&#45;&gt;n16</title>
<path fill="none" stroke="black" d="M89.09,-325C117.8,-335.12 156.99,-346 192.79,-346 192.79,-346 192.79,-346 658.53,-346 680.05,-346 703.41,-343.22 724.05,-339.78"/>
<polygon fill="black" stroke="black" points="724.7,-343.22 733.95,-338.05 723.49,-336.33 724.7,-343.22"/>
<text text-anchor="middle" x="455.99" y="-349.8" font-family="Times,serif" font-size="14.00">1</text>
</g>
<!-- n18 -->
<g id="node18" class="node">
<title>n18</title>
<polygon fill="#e28f41" stroke="#e28f41" points="580.99,-544 478.99,-544 478.99,-442 580.99,-442 580.99,-544"/>
<text text-anchor="middle" x="529.99" y="-489.3" font-family="Times,serif" font-size="14.00">infect_m_uu</text>
</g>
<!-- n1&#45;&gt;n18 -->
<g id="edge27" class="edge">
<title>n1&#45;&gt;n18</title>
<path fill="none" stroke="black" d="M55.11,-353.41C65.65,-398.16 88.98,-464.18 138.29,-495 191.64,-528.34 372.79,-512.32 468.54,-500.96"/>
<polygon fill="black" stroke="black" points="469.14,-504.41 478.65,-499.74 468.31,-497.46 469.14,-504.41"/>
<text text-anchor="middle" x="302.79" y="-517.8" font-family="Times,serif" font-size="14.00">1</text>
</g>
<!-- n19 -->
<g id="node19" class="node">
<title>n19</title>
<polygon fill="#e28f41" stroke="#e28f41" points="228.79,-280 158.79,-280 158.79,-210 228.79,-210 228.79,-280"/>
<text text-anchor="middle" x="193.79" y="-241.3" font-family="Times,serif" font-size="14.00">disease</text>
</g>
<!-- n1&#45;&gt;n19 -->
<g id="edge13" class="edge">
<title>n1&#45;&gt;n19</title>
<path fill="none" stroke="black" d="M88.48,-288.73C95.73,-285.44 103.21,-282.08 110.29,-279 122.85,-273.53 136.59,-267.78 149.18,-262.6"/>
<polygon fill="black" stroke="black" points="150.62,-265.79 158.55,-258.76 147.97,-259.31 150.62,-265.79"/>
<text text-anchor="middle" x="115.29" y="-282.8" font-family="Times,serif" font-size="14.00">1</text>
</g>
<!-- n2 -->
<g id="node2" class="node">
<title>n2</title>
<ellipse fill="#6c9ac3" stroke="#6c9ac3" cx="394.64" cy="-717" rx="38.19" ry="38.19"/>
<text text-anchor="middle" x="394.64" y="-713.3" font-family="Times,serif" font-size="14.00">UV_M</text>
</g>
<!-- n6 -->
<g id="node6" class="node">
<title>n6</title>
<polygon fill="#e28f41" stroke="#e28f41" points="577.99,-658 481.99,-658 481.99,-562 577.99,-562 577.99,-658"/>
<text text-anchor="middle" x="529.99" y="-606.3" font-family="Times,serif" font-size="14.00">unmask_uv</text>
</g>
<!-- n2&#45;&gt;n6 -->
<g id="edge20" class="edge">
<title>n2&#45;&gt;n6</title>
<path fill="none" stroke="black" d="M425.23,-693.25C439.54,-681.77 457.19,-667.61 473.85,-654.24"/>
<polygon fill="black" stroke="black" points="476.32,-656.75 481.93,-647.76 471.94,-651.29 476.32,-656.75"/>
<text text-anchor="middle" x="455.99" y="-672.8" font-family="Times,serif" font-size="14.00">1</text>
</g>
<!-- n10 -->
<g id="node10" class="node">
<title>n10</title>
<polygon fill="#e28f41" stroke="#e28f41" points="560.99,-738 498.99,-738 498.99,-676 560.99,-676 560.99,-738"/>
<text text-anchor="middle" x="529.99" y="-703.3" font-family="Times,serif" font-size="14.00">vax_m</text>
</g>
<!-- n2&#45;&gt;n10 -->
<g id="edge9" class="edge">
<title>n2&#45;&gt;n10</title>
<path fill="none" stroke="black" d="M433.14,-714.19C450.52,-712.88 471.21,-711.33 488.9,-710.01"/>
<polygon fill="black" stroke="black" points="489.22,-713.49 498.93,-709.25 488.69,-706.51 489.22,-713.49"/>
<text text-anchor="middle" x="455.99" y="-715.8" font-family="Times,serif" font-size="14.00">1</text>
</g>
<!-- n17 -->
<g id="node17" class="node">
<title>n17</title>
<polygon fill="#e28f41" stroke="#e28f41" points="1109.27,-858.5 1008.27,-858.5 1008.27,-757.5 1109.27,-757.5 1109.27,-858.5"/>
<text text-anchor="middle" x="1058.77" y="-804.3" font-family="Times,serif" font-size="14.00">infect_m_vu</text>
</g>
<!-- n2&#45;&gt;n17 -->
<g id="edge7" class="edge">
<title>n2&#45;&gt;n17</title>
<path fill="none" stroke="black" d="M400.02,-755.06C405.92,-789.14 419.59,-838.22 450.99,-868 477.3,-892.96 492.71,-892 528.99,-892 528.99,-892 528.99,-892 920.43,-892 949.18,-892 977,-878.44 1000,-862.21"/>
<polygon fill="black" stroke="black" points="1002.27,-864.88 1008.24,-856.13 998.12,-859.25 1002.27,-864.88"/>
<text text-anchor="middle" x="711.08" y="-895.8" font-family="Times,serif" font-size="14.00">1</text>
</g>
<!-- n2&#45;&gt;n18 -->
<g id="edge8" class="edge">
<title>n2&#45;&gt;n18</title>
<path fill="none" stroke="black" d="M414.81,-684.15C428.4,-660.31 446.68,-627.11 460.99,-597 470.05,-577.92 468.09,-571.11 478.99,-553 479.04,-552.91 479.09,-552.82 479.15,-552.73"/>
<polygon fill="black" stroke="black" points="482.11,-554.6 484.59,-544.3 476.23,-550.8 482.11,-554.6"/>
<text text-anchor="middle" x="455.99" y="-620.8" font-family="Times,serif" font-size="14.00">1</text>
</g>
<!-- n20 -->
<g id="node20" class="node">
<title>n20</title>
<polygon fill="#e28f41" stroke="#e28f41" points="564.99,-826 494.99,-826 494.99,-756 564.99,-756 564.99,-826"/>
<text text-anchor="middle" x="529.99" y="-787.3" font-family="Times,serif" font-size="14.00">disease</text>
</g>
<!-- n2&#45;&gt;n20 -->
<g id="edge47" class="edge">
<title>n2&#45;&gt;n20</title>
<path fill="none" stroke="black" d="M420.44,-745.88C429.3,-754.71 439.86,-763.73 450.99,-770 461.38,-775.86 473.48,-780.14 485,-783.25"/>
<polygon fill="black" stroke="black" points="484.38,-786.7 494.92,-785.69 486.05,-779.91 484.38,-786.7"/>
<text text-anchor="middle" x="455.99" y="-777.8" font-family="Times,serif" font-size="14.00">1</text>
</g>
<!-- n3 -->
<g id="node3" class="node">
<title>n3</title>
<ellipse fill="#6c9ac3" stroke="#6c9ac3" cx="919.43" cy="-367" rx="38.19" ry="38.19"/>
<text text-anchor="middle" x="919.43" y="-363.3" font-family="Times,serif" font-size="14.00">V_UM</text>
</g>
<!-- n7 -->
<g id="node7" class="node">
<title>n7</title>
<polygon fill="#e28f41" stroke="#e28f41" points="1093.27,-684.5 1024.27,-684.5 1024.27,-615.5 1093.27,-615.5 1093.27,-684.5"/>
<text text-anchor="middle" x="1058.77" y="-646.3" font-family="Times,serif" font-size="14.00">mask_v</text>
</g>
<!-- n3&#45;&gt;n7 -->
<g id="edge36" class="edge">
<title>n3&#45;&gt;n7</title>
<path fill="none" stroke="black" d="M930.76,-403.71C944.07,-447.98 969.62,-523.81 1003.77,-583 1008.49,-591.17 1014.16,-599.39 1020.04,-607.13"/>
<polygon fill="black" stroke="black" points="1017.53,-609.61 1026.46,-615.33 1023.04,-605.3 1017.53,-609.61"/>
<text text-anchor="middle" x="980.77" y="-546.8" font-family="Times,serif" font-size="14.00">1</text>
</g>
<!-- n11 -->
<g id="node11" class="node">
<title>n11</title>
<polygon fill="#e28f41" stroke="#e28f41" points="1113.77,-454 1003.77,-454 1003.77,-344 1113.77,-344 1113.77,-454"/>
<text text-anchor="middle" x="1058.77" y="-395.3" font-family="Times,serif" font-size="14.00">infect_um_vv</text>
</g>
<!-- n3&#45;&gt;n11 -->
<g id="edge45" class="edge">
<title>n3&#45;&gt;n11</title>
<path fill="none" stroke="black" d="M957.72,-361.82C966.97,-361.48 976.81,-361.94 985.77,-364 988.57,-364.64 991.38,-365.41 994.18,-366.28"/>
<polygon fill="black" stroke="black" points="993.09,-369.6 1003.68,-369.57 995.38,-362.99 993.09,-369.6"/>
<text text-anchor="middle" x="980.77" y="-367.8" font-family="Times,serif" font-size="14.00">2</text>
</g>
<!-- n3&#45;&gt;n12 -->
<g id="edge3" class="edge">
<title>n3&#45;&gt;n12</title>
<path fill="none" stroke="black" d="M941.23,-335.35C957.63,-310.81 981.4,-276.19 1003.77,-247 1003.98,-246.73 1004.19,-246.46 1004.4,-246.19"/>
<polygon fill="black" stroke="black" points="1007.21,-248.27 1010.62,-238.24 1001.7,-243.96 1007.21,-248.27"/>
<text text-anchor="middle" x="980.77" y="-285.8" font-family="Times,serif" font-size="14.00">1</text>
</g>
<!-- n3&#45;&gt;n13 -->
<g id="edge23" class="edge">
<title>n3&#45;&gt;n13</title>
<path fill="none" stroke="black" d="M923.61,-328.64C928.86,-281.63 942.32,-200.76 975.77,-140 981.49,-129.62 988.81,-119.59 996.71,-110.28"/>
<polygon fill="black" stroke="black" points="999.46,-112.45 1003.46,-102.64 994.22,-107.82 999.46,-112.45"/>
<text text-anchor="middle" x="980.77" y="-143.8" font-family="Times,serif" font-size="14.00">1</text>
</g>
<!-- n15 -->
<g id="node15" class="node">
<title>n15</title>
<polygon fill="#e28f41" stroke="#e28f41" points="1109.27,-573.5 1008.27,-573.5 1008.27,-472.5 1109.27,-472.5 1109.27,-573.5"/>
<text text-anchor="middle" x="1058.77" y="-519.3" font-family="Times,serif" font-size="14.00">infect_m_vv</text>
</g>
<!-- n3&#45;&gt;n15 -->
<g id="edge4" class="edge">
<title>n3&#45;&gt;n15</title>
<path fill="none" stroke="black" d="M937.17,-401.35C946.98,-419.57 960.45,-441.7 975.77,-459 983.01,-467.18 991.41,-475.06 1000.01,-482.34"/>
<polygon fill="black" stroke="black" points="997.99,-485.21 1007.94,-488.84 1002.43,-479.79 997.99,-485.21"/>
<text text-anchor="middle" x="980.77" y="-472.8" font-family="Times,serif" font-size="14.00">1</text>
</g>
<!-- n3&#45;&gt;n17 -->
<g id="edge30" class="edge">
<title>n3&#45;&gt;n17</title>
<path fill="none" stroke="black" d="M931.06,-403.58C944.58,-450.65 968.27,-535.07 985.77,-608 994.89,-645.97 991.33,-656.99 1003.77,-694 1009.84,-712.04 1018.01,-730.97 1026.16,-748.11"/>
<polygon fill="black" stroke="black" points="1023.16,-749.95 1030.67,-757.42 1029.46,-746.9 1023.16,-749.95"/>
<text text-anchor="middle" x="980.77" y="-611.8" font-family="Times,serif" font-size="14.00">1</text>
</g>
<!-- n21 -->
<g id="node21" class="node">
<title>n21</title>
<polygon fill="#e28f41" stroke="#e28f41" points="1093.77,-326 1023.77,-326 1023.77,-256 1093.77,-256 1093.77,-326"/>
<text text-anchor="middle" x="1058.77" y="-287.3" font-family="Times,serif" font-size="14.00">disease</text>
</g>
<!-- n3&#45;&gt;n21 -->
<g id="edge39" class="edge">
<title>n3&#45;&gt;n21</title>
<path fill="none" stroke="black" d="M944.46,-337.5C953.41,-328.15 964.23,-318.56 975.77,-312 987.27,-305.47 1000.81,-300.94 1013.54,-297.8"/>
<polygon fill="black" stroke="black" points="1014.52,-301.17 1023.52,-295.58 1013,-294.34 1014.52,-301.17"/>
<text text-anchor="middle" x="980.77" y="-315.8" font-family="Times,serif" font-size="14.00">1</text>
</g>
<!-- n4 -->
<g id="node4" class="node">
<title>n4</title>
<ellipse fill="#6c9ac3" stroke="#6c9ac3" cx="657.53" cy="-555" rx="30.59" ry="30.59"/>
<text text-anchor="middle" x="657.53" y="-551.3" font-family="Times,serif" font-size="14.00">V_M</text>
</g>
<!-- n8 -->
<g id="node8" class="node">
<title>n8</title>
<polygon fill="#e28f41" stroke="#e28f41" points="828.08,-482.5 741.08,-482.5 741.08,-395.5 828.08,-395.5 828.08,-482.5"/>
<text text-anchor="middle" x="784.58" y="-435.3" font-family="Times,serif" font-size="14.00">unmask_v</text>
</g>
<!-- n4&#45;&gt;n8 -->
<g id="edge42" class="edge">
<title>n4&#45;&gt;n8</title>
<path fill="none" stroke="black" d="M672.08,-527.69C680.4,-512.88 692.14,-494.99 706.08,-482 713.76,-474.85 722.85,-468.45 732.05,-462.92"/>
<polygon fill="black" stroke="black" points="733.92,-465.89 740.86,-457.89 730.44,-459.81 733.92,-465.89"/>
<text text-anchor="middle" x="711.08" y="-485.8" font-family="Times,serif" font-size="14.00">1</text>
</g>
<!-- n4&#45;&gt;n15 -->
<g id="edge24" class="edge">
<title>n4&#45;&gt;n15</title>
<path fill="none" stroke="black" d="M686.78,-545.99C693.09,-544.17 699.78,-542.39 706.08,-541 774.88,-525.8 792.62,-518.28 863.08,-519 908.39,-519.47 959.62,-520.54 998.15,-521.46"/>
<polygon fill="black" stroke="black" points="998.08,-524.96 1008.16,-521.7 998.25,-517.96 998.08,-524.96"/>
<text text-anchor="middle" x="858.08" y="-522.8" font-family="Times,serif" font-size="14.00">1</text>
</g>
<!-- n4&#45;&gt;n16 -->
<g id="edge34" class="edge">
<title>n4&#45;&gt;n16</title>
<path fill="none" stroke="black" d="M662.65,-524.74C668.28,-491.36 680.73,-437.06 706.08,-397 711.8,-387.97 718.99,-379.38 726.68,-371.52"/>
<polygon fill="black" stroke="black" points="729.14,-374 733.85,-364.51 724.25,-369 729.14,-374"/>
<text text-anchor="middle" x="711.08" y="-400.8" font-family="Times,serif" font-size="14.00">1</text>
</g>
<!-- n22 -->
<g id="node22" class="node">
<title>n22</title>
<polygon fill="#e28f41" stroke="#e28f41" points="819.58,-653 749.58,-653 749.58,-583 819.58,-583 819.58,-653"/>
<text text-anchor="middle" x="784.58" y="-614.3" font-family="Times,serif" font-size="14.00">disease</text>
</g>
<!-- n4&#45;&gt;n22 -->
<g id="edge38" class="edge">
<title>n4&#45;&gt;n22</title>
<path fill="none" stroke="black" d="M685.05,-568.36C701.12,-576.46 722,-586.98 740.4,-596.25"/>
<polygon fill="black" stroke="black" points="738.98,-599.45 749.48,-600.82 742.13,-593.2 738.98,-599.45"/>
<text text-anchor="middle" x="711.08" y="-585.8" font-family="Times,serif" font-size="14.00">1</text>
</g>
<!-- n5&#45;&gt;n2 -->
<g id="edge32" class="edge">
<title>n5&#45;&gt;n2</title>
<path fill="none" stroke="black" d="M233.13,-700.05C265.35,-703.45 311.54,-708.33 346.1,-711.98"/>
<polygon fill="black" stroke="black" points="346.11,-715.5 356.43,-713.07 346.85,-708.54 346.11,-715.5"/>
<text text-anchor="middle" x="302.79" y="-713.8" font-family="Times,serif" font-size="14.00">1</text>
</g>
<!-- n6&#45;&gt;n1 -->
<g id="edge33" class="edge">
<title>n6&#45;&gt;n1</title>
<path fill="none" stroke="black" d="M481.73,-610.48C381.68,-610.33 154.05,-603.44 110.29,-545 70.57,-491.96 55.81,-415.82 50.34,-364.27"/>
<polygon fill="black" stroke="black" points="53.82,-363.91 49.36,-354.3 46.85,-364.6 53.82,-363.91"/>
<text text-anchor="middle" x="302.79" y="-608.8" font-family="Times,serif" font-size="14.00">1</text>
</g>
<!-- n7&#45;&gt;n4 -->
<g id="edge43" class="edge">
<title>n7&#45;&gt;n4</title>
<path fill="none" stroke="black" d="M1023.91,-661.26C962.48,-679.61 830.15,-709.4 734.08,-662 705.69,-647.99 685.84,-617.58 673.63,-592.74"/>
<polygon fill="black" stroke="black" points="676.73,-591.12 669.32,-583.54 670.39,-594.08 676.73,-591.12"/>
<text text-anchor="middle" x="858.08" y="-690.8" font-family="Times,serif" font-size="14.00">1</text>
</g>
<!-- n8&#45;&gt;n3 -->
<g id="edge16" class="edge">
<title>n8&#45;&gt;n3</title>
<path fill="none" stroke="black" d="M828.34,-415.82C843.67,-407.52 860.93,-398.16 876.21,-389.88"/>
<polygon fill="black" stroke="black" points="878.31,-392.72 885.43,-384.88 874.97,-386.57 878.31,-392.72"/>
<text text-anchor="middle" x="858.08" y="-403.8" font-family="Times,serif" font-size="14.00">1</text>
</g>
<!-- n9&#45;&gt;n3 -->
<g id="edge2" class="edge">
<title>n9&#45;&gt;n3</title>
<path fill="none" stroke="black" d="M338.54,-226.05C369.13,-230.06 414.92,-235 454.99,-235 454.99,-235 454.99,-235 785.58,-235 836.75,-235 875.21,-284.89 897.25,-323.33"/>
<polygon fill="black" stroke="black" points="894.33,-325.27 902.24,-332.32 900.45,-321.88 894.33,-325.27"/>
<text text-anchor="middle" x="603.99" y="-238.8" font-family="Times,serif" font-size="14.00">1</text>
</g>
<!-- n10&#45;&gt;n4 -->
<g id="edge46" class="edge">
<title>n10&#45;&gt;n4</title>
<path fill="none" stroke="black" d="M561.1,-685.34C567.99,-679.74 575.03,-673.46 580.99,-667 602.6,-643.55 622.56,-613.42 636.53,-590.32"/>
<polygon fill="black" stroke="black" points="639.66,-591.91 641.77,-581.52 633.65,-588.33 639.66,-591.91"/>
<text text-anchor="middle" x="603.99" y="-647.8" font-family="Times,serif" font-size="14.00">1</text>
</g>
<!-- n11&#45;&gt;n3 -->
<g id="edge37" class="edge">
<title>n11&#45;&gt;n3</title>
<path fill="none" stroke="black" d="M1003.37,-389.09C994.13,-387.2 984.66,-385.15 975.77,-383 972.61,-382.24 969.36,-381.41 966.1,-380.55"/>
<polygon fill="black" stroke="black" points="966.9,-377.14 956.33,-377.88 965.05,-383.89 966.9,-377.14"/>
<text text-anchor="middle" x="980.77" y="-388.8" font-family="Times,serif" font-size="14.00">2</text>
</g>
<!-- n12&#45;&gt;n1 -->
<g id="edge44" class="edge">
<title>n12&#45;&gt;n1</title>
<path fill="none" stroke="black" d="M1003.42,-149.45C964.66,-128.7 910.5,-106 859.08,-106 192.79,-106 192.79,-106 192.79,-106 119.89,-106 79.84,-193.63 60.99,-253.46"/>
<polygon fill="black" stroke="black" points="57.6,-252.58 58.04,-263.17 64.29,-254.62 57.6,-252.58"/>
<text text-anchor="middle" x="603.99" y="-109.8" font-family="Times,serif" font-size="14.00">1</text>
</g>
<!-- n12&#45;&gt;n3 -->
<g id="edge35" class="edge">
<title>n12&#45;&gt;n3</title>
<path fill="none" stroke="black" d="M1003.55,-224.44C993.59,-233.52 983.82,-243.56 975.77,-254 959.98,-274.5 946.95,-300.23 937.51,-321.95"/>
<polygon fill="black" stroke="black" points="934.23,-320.73 933.56,-331.31 940.68,-323.46 934.23,-320.73"/>
<text text-anchor="middle" x="980.77" y="-257.8" font-family="Times,serif" font-size="14.00">1</text>
</g>
<!-- n13&#45;&gt;n1 -->
<g id="edge40" class="edge">
<title>n13&#45;&gt;n1</title>
<path fill="none" stroke="black" d="M1003.58,-32.79C978.69,-24.47 948.51,-17 920.43,-17 192.79,-17 192.79,-17 192.79,-17 88.83,-17 59.07,-167.36 50.56,-251.92"/>
<polygon fill="black" stroke="black" points="47.07,-251.61 49.62,-261.89 54.04,-252.26 47.07,-251.61"/>
<text text-anchor="middle" x="603.99" y="-20.8" font-family="Times,serif" font-size="14.00">1</text>
</g>
<!-- n13&#45;&gt;n3 -->
<g id="edge31" class="edge">
<title>n13&#45;&gt;n3</title>
<path fill="none" stroke="black" d="M1009.08,-110.3C1007.19,-113.18 1005.41,-116.09 1003.77,-119 984.1,-153.97 951.89,-258.78 933.81,-320.38"/>
<polygon fill="black" stroke="black" points="930.37,-319.67 930.93,-330.25 937.09,-321.63 930.37,-319.67"/>
<text text-anchor="middle" x="980.77" y="-186.8" font-family="Times,serif" font-size="14.00">1</text>
</g>
<!-- n14&#45;&gt;n1 -->
<g id="edge29" class="edge">
<title>n14&#45;&gt;n1</title>
<path fill="none" stroke="black" d="M138.28,-384.34C122.24,-370.9 104.93,-356.41 89.76,-343.69"/>
<polygon fill="black" stroke="black" points="91.95,-340.96 82.03,-337.22 87.45,-346.33 91.95,-340.96"/>
<text text-anchor="middle" x="115.29" y="-372.8" font-family="Times,serif" font-size="14.00">2</text>
</g>
<!-- n15&#45;&gt;n3 -->
<g id="edge25" class="edge">
<title>n15&#45;&gt;n3</title>
<path fill="none" stroke="black" d="M1011.86,-472.48C1009.1,-469.29 1006.39,-466.11 1003.77,-463 995.43,-453.06 994.11,-449.95 985.77,-440 975.29,-427.48 963.49,-414.09 952.82,-402.24"/>
<polygon fill="black" stroke="black" points="955.3,-399.77 946,-394.7 950.11,-404.46 955.3,-399.77"/>
<text text-anchor="middle" x="980.77" y="-443.8" font-family="Times,serif" font-size="14.00">1</text>
</g>
<!-- n15&#45;&gt;n4 -->
<g id="edge26" class="edge">
<title>n15&#45;&gt;n4</title>
<path fill="none" stroke="black" d="M1008.21,-552.25C1000.89,-555.44 993.29,-558.18 985.77,-560 884.49,-584.5 760.39,-571.33 698.13,-561.89"/>
<polygon fill="black" stroke="black" points="698.39,-558.39 687.97,-560.3 697.3,-565.3 698.39,-558.39"/>
<text text-anchor="middle" x="858.08" y="-576.8" font-family="Times,serif" font-size="14.00">1</text>
</g>
<!-- n16&#45;&gt;n1 -->
<g id="edge10" class="edge">
<title>n16&#45;&gt;n1</title>
<path fill="none" stroke="black" d="M733.95,-315.95C711.1,-311.77 683.57,-308 658.53,-308 192.79,-308 192.79,-308 192.79,-308 162.97,-308 129.72,-308 102.52,-308"/>
<polygon fill="black" stroke="black" points="102.41,-304.5 92.41,-308 102.41,-311.5 102.41,-304.5"/>
<text text-anchor="middle" x="455.99" y="-311.8" font-family="Times,serif" font-size="14.00">1</text>
</g>
<!-- n16&#45;&gt;n4 -->
<g id="edge48" class="edge">
<title>n16&#45;&gt;n4</title>
<path fill="none" stroke="black" d="M740.24,-377.71C738.07,-380.79 736,-383.9 734.08,-387 707.84,-429.2 685.62,-482.07 672.21,-517.11"/>
<polygon fill="black" stroke="black" points="668.92,-515.9 668.66,-526.49 675.47,-518.37 668.92,-515.9"/>
<text text-anchor="middle" x="711.08" y="-438.8" font-family="Times,serif" font-size="14.00">1</text>
</g>
<!-- n17&#45;&gt;n2 -->
<g id="edge28" class="edge">
<title>n17&#45;&gt;n2</title>
<path fill="none" stroke="black" d="M1008.22,-833.15C982.67,-843.89 950.6,-854 920.43,-854 528.99,-854 528.99,-854 528.99,-854 476.18,-854 437.5,-801.08 415.79,-761.02"/>
<polygon fill="black" stroke="black" points="418.77,-759.16 411.03,-751.93 412.57,-762.41 418.77,-759.16"/>
<text text-anchor="middle" x="711.08" y="-857.8" font-family="Times,serif" font-size="14.00">1</text>
</g>
<!-- n17&#45;&gt;n3 -->
<g id="edge17" class="edge">
<title>n17&#45;&gt;n3</title>
<path fill="none" stroke="black" d="M1033.21,-757.44C1023.79,-737.74 1013.09,-714.9 1003.77,-694 990.64,-664.52 985.4,-657.81 975.77,-627 953.13,-554.52 936.73,-467.81 927.9,-415.1"/>
<polygon fill="black" stroke="black" points="931.32,-414.32 926.24,-405.03 924.41,-415.46 931.32,-414.32"/>
<text text-anchor="middle" x="980.77" y="-657.8" font-family="Times,serif" font-size="14.00">1</text>
</g>
<!-- n18&#45;&gt;n1 -->
<g id="edge6" class="edge">
<title>n18&#45;&gt;n1</title>
<path fill="none" stroke="black" d="M478.74,-522.02C472.9,-524.43 466.91,-526.51 460.99,-528 385.4,-546.96 172.24,-575.29 110.29,-528 84.22,-508.1 65.51,-422.37 55.52,-364"/>
<polygon fill="black" stroke="black" points="58.91,-363.09 53.81,-353.8 52.01,-364.24 58.91,-363.09"/>
<text text-anchor="middle" x="302.79" y="-556.8" font-family="Times,serif" font-size="14.00">1</text>
</g>
<!-- n18&#45;&gt;n2 -->
<g id="edge11" class="edge">
<title>n18&#45;&gt;n2</title>
<path fill="none" stroke="black" d="M478.72,-541.77C468.71,-553.05 458.87,-565.45 450.99,-578 432.88,-606.83 418.81,-642.57 409.39,-670.59"/>
<polygon fill="black" stroke="black" points="406.04,-669.56 406.25,-680.15 412.69,-671.74 406.04,-669.56"/>
<text text-anchor="middle" x="455.99" y="-581.8" font-family="Times,serif" font-size="14.00">1</text>
</g>
<!-- n19&#45;&gt;n1 -->
<g id="edge14" class="edge">
<title>n19&#45;&gt;n1</title>
<path fill="none" stroke="black" d="M158.76,-245.88C143.43,-247.29 125.41,-250.39 110.29,-257 102.59,-260.37 95.05,-264.93 88.01,-269.96"/>
<polygon fill="black" stroke="black" points="85.86,-267.2 80,-276.02 90.08,-272.78 85.86,-267.2"/>
<text text-anchor="middle" x="115.29" y="-260.8" font-family="Times,serif" font-size="14.00">1</text>
</g>
<!-- n20&#45;&gt;n2 -->
<g id="edge15" class="edge">
<title>n20&#45;&gt;n2</title>
<path fill="none" stroke="black" d="M494.54,-771.89C477.08,-762.2 455.74,-750.35 437.36,-740.15"/>
<polygon fill="black" stroke="black" points="439.04,-737.08 428.6,-735.29 435.65,-743.2 439.04,-737.08"/>
<text text-anchor="middle" x="455.99" y="-754.8" font-family="Times,serif" font-size="14.00">1</text>
</g>
<!-- n21&#45;&gt;n3 -->
<g id="edge12" class="edge">
<title>n21&#45;&gt;n3</title>
<path fill="none" stroke="black" d="M1023.71,-309.85C1005.07,-320.16 981.82,-333.03 962.11,-343.94"/>
<polygon fill="black" stroke="black" points="960.38,-340.89 953.32,-348.8 963.77,-347.02 960.38,-340.89"/>
<text text-anchor="middle" x="980.77" y="-338.8" font-family="Times,serif" font-size="14.00">1</text>
</g>
<!-- n22&#45;&gt;n4 -->
<g id="edge21" class="edge">
<title>n22&#45;&gt;n4</title>
<path fill="none" stroke="black" d="M749.28,-616.39C735.23,-614.59 719.23,-611.01 706.08,-604 697.78,-599.58 690.06,-593.19 683.36,-586.49"/>
<polygon fill="black" stroke="black" points="685.89,-584.07 676.5,-579.16 680.78,-588.85 685.89,-584.07"/>
<text text-anchor="middle" x="711.08" y="-611.8" font-family="Times,serif" font-size="14.00">1</text>
</g>
</g>
</svg>
