<?xml version="1.0" encoding="UTF-8" standalone="no"?>
<!DOCTYPE svg PUBLIC "-//W3C//DTD SVG 1.1//EN"
 "http://www.w3.org/Graphics/SVG/1.1/DTD/svg11.dtd">
<!-- Generated by graphviz version 2.43.0 (0)
 -->
<!-- Title: G Pages: 1 -->
<svg width="400pt" height="452pt"
 viewBox="0.00 0.00 400.19 452.00" xmlns="http://www.w3.org/2000/svg" xmlns:xlink="http://www.w3.org/1999/xlink">
<g id="graph0" class="graph" transform="scale(1 1) rotate(0) translate(4 448)">
<title>G</title>
<polygon fill="white" stroke="transparent" points="-4,4 -4,-448 396.19,-448 396.19,4 -4,4"/>
<!-- n1 -->
<g id="node1" class="node">
<title>n1</title>
<ellipse fill="#6c9ac3" stroke="#6c9ac3" cx="20.15" cy="-111.5" rx="20.3" ry="20.3"/>
<text text-anchor="middle" x="20.15" y="-107.8" font-family="Times,serif" font-size="14.00">M</text>
</g>
<!-- n3 -->
<g id="node3" class="node">
<title>n3</title>
<polygon fill="#e28f41" stroke="#e28f41" points="158.3,-296.5 86.3,-296.5 86.3,-224.5 158.3,-224.5 158.3,-296.5"/>
<text text-anchor="middle" x="122.3" y="-256.8" font-family="Times,serif" font-size="14.00">unmask</text>
</g>
<!-- n1&#45;&gt;n3 -->
<g id="edge3" class="edge">
<title>n1&#45;&gt;n3</title>
<path fill="none" stroke="black" d="M25.59,-130.92C30.93,-151.36 41.36,-183.8 58.3,-207.5 63.91,-215.36 70.95,-222.76 78.27,-229.4"/>
<polygon fill="black" stroke="black" points="76.41,-232.41 86.27,-236.29 80.98,-227.11 76.41,-232.41"/>
<text text-anchor="middle" x="63.3" y="-224.3" font-family="Times,serif" font-size="14.00">1</text>
</g>
<!-- n5 -->
<g id="node5" class="node">
<title>n5</title>
<polygon fill="#e28f41" stroke="#e28f41" points="392.19,-184.5 306.19,-184.5 306.19,-98.5 392.19,-98.5 392.19,-184.5"/>
<text text-anchor="middle" x="349.19" y="-137.8" font-family="Times,serif" font-size="14.00">infect_um</text>
</g>
<!-- n1&#45;&gt;n5 -->
<g id="edge8" class="edge">
<title>n1&#45;&gt;n5</title>
<path fill="none" stroke="black" d="M40.63,-113.29C90.14,-117.83 222.12,-129.94 296.09,-136.72"/>
<polygon fill="black" stroke="black" points="295.85,-140.21 306.13,-137.64 296.49,-133.24 295.85,-140.21"/>
<text text-anchor="middle" x="181.3" y="-130.3" font-family="Times,serif" font-size="14.00">1</text>
</g>
<!-- n7 -->
<g id="node7" class="node">
<title>n7</title>
<polygon fill="#e28f41" stroke="#e28f41" points="151.8,-59 92.8,-59 92.8,0 151.8,0 151.8,-59"/>
<text text-anchor="middle" x="122.3" y="-25.8" font-family="Times,serif" font-size="14.00">strata</text>
</g>
<!-- n1&#45;&gt;n7 -->
<g id="edge13" class="edge">
<title>n1&#45;&gt;n7</title>
<path fill="none" stroke="black" d="M31.7,-94.5C38.43,-84.6 47.85,-72.36 58.3,-63.5 65.89,-57.06 74.91,-51.31 83.71,-46.47"/>
<polygon fill="black" stroke="black" points="85.5,-49.48 92.74,-41.75 82.25,-43.28 85.5,-49.48"/>
<text text-anchor="middle" x="63.3" y="-67.3" font-family="Times,serif" font-size="14.00">1</text>
</g>
<!-- n2 -->
<g id="node2" class="node">
<title>n2</title>
<ellipse fill="#6c9ac3" stroke="#6c9ac3" cx="232.24" cy="-283.5" rx="27.9" ry="27.9"/>
<text text-anchor="middle" x="232.24" y="-279.8" font-family="Times,serif" font-size="14.00">UM</text>
</g>
<!-- n4 -->
<g id="node4" class="node">
<title>n4</title>
<polygon fill="#e28f41" stroke="#e28f41" points="376.19,-262.5 322.19,-262.5 322.19,-208.5 376.19,-208.5 376.19,-262.5"/>
<text text-anchor="middle" x="349.19" y="-231.8" font-family="Times,serif" font-size="14.00">mask</text>
</g>
<!-- n2&#45;&gt;n4 -->
<g id="edge11" class="edge">
<title>n2&#45;&gt;n4</title>
<path fill="none" stroke="black" d="M258.19,-273.08C274.12,-266.43 295.03,-257.7 312.68,-250.33"/>
<polygon fill="black" stroke="black" points="314.22,-253.48 322.1,-246.39 311.52,-247.02 314.22,-253.48"/>
<text text-anchor="middle" x="283.19" y="-268.3" font-family="Times,serif" font-size="14.00">1</text>
</g>
<!-- n2&#45;&gt;n5 -->
<g id="edge1" class="edge">
<title>n2&#45;&gt;n5</title>
<path fill="none" stroke="black" d="M250.45,-262.24C265.31,-243.89 287.37,-216.63 306.78,-192.65"/>
<polygon fill="black" stroke="black" points="309.68,-194.64 313.25,-184.66 304.24,-190.24 309.68,-194.64"/>
<text text-anchor="middle" x="283.19" y="-229.3" font-family="Times,serif" font-size="14.00">1</text>
</g>
<!-- n6 -->
<g id="node6" class="node">
<title>n6</title>
<polygon fill="#e28f41" stroke="#e28f41" points="390.19,-365.5 308.19,-365.5 308.19,-283.5 390.19,-283.5 390.19,-365.5"/>
<text text-anchor="middle" x="349.19" y="-320.8" font-family="Times,serif" font-size="14.00">infect_uu</text>
</g>
<!-- n2&#45;&gt;n6 -->
<g id="edge5" class="edge">
<title>n2&#45;&gt;n6</title>
<path fill="none" stroke="black" d="M259.43,-290.48C268.6,-293.09 278.92,-296.23 288.19,-299.5 291.64,-300.72 295.18,-302.03 298.73,-303.38"/>
<polygon fill="black" stroke="black" points="297.5,-306.66 308.09,-307.07 300.06,-300.15 297.5,-306.66"/>
<text text-anchor="middle" x="283.19" y="-303.3" font-family="Times,serif" font-size="14.00">2</text>
</g>
<!-- n8 -->
<g id="node8" class="node">
<title>n8</title>
<polygon fill="#e28f41" stroke="#e28f41" points="378.69,-444 319.69,-444 319.69,-385 378.69,-385 378.69,-444"/>
<text text-anchor="middle" x="349.19" y="-410.8" font-family="Times,serif" font-size="14.00">strata</text>
</g>
<!-- n2&#45;&gt;n8 -->
<g id="edge9" class="edge">
<title>n2&#45;&gt;n8</title>
<path fill="none" stroke="black" d="M237.42,-311.15C242.66,-336.34 254.07,-372.82 278.19,-394.5 286.83,-402.26 298.28,-407.03 309.42,-409.95"/>
<polygon fill="black" stroke="black" points="308.95,-413.43 319.47,-412.15 310.44,-406.59 308.95,-413.43"/>
<text text-anchor="middle" x="283.19" y="-404.3" font-family="Times,serif" font-size="14.00">1</text>
</g>
<!-- n3&#45;&gt;n2 -->
<g id="edge6" class="edge">
<title>n3&#45;&gt;n2</title>
<path fill="none" stroke="black" d="M158.34,-267.97C169.96,-270.44 182.92,-273.2 194.65,-275.7"/>
<polygon fill="black" stroke="black" points="194.07,-279.16 204.58,-277.82 195.53,-272.31 194.07,-279.16"/>
<text text-anchor="middle" x="181.3" y="-277.3" font-family="Times,serif" font-size="14.00">1</text>
</g>
<!-- n4&#45;&gt;n1 -->
<g id="edge7" class="edge">
<title>n4&#45;&gt;n1</title>
<path fill="none" stroke="black" d="M321.91,-225.86C311.42,-222.01 299.24,-217.54 288.19,-213.5 186.04,-176.11 158.46,-171.94 58.3,-129.5 54.79,-128.01 51.14,-126.37 47.56,-124.7"/>
<polygon fill="black" stroke="black" points="48.9,-121.46 38.37,-120.29 45.87,-127.77 48.9,-121.46"/>
<text text-anchor="middle" x="181.3" y="-182.3" font-family="Times,serif" font-size="14.00">1</text>
</g>
<!-- n5&#45;&gt;n1 -->
<g id="edge10" class="edge">
<title>n5&#45;&gt;n1</title>
<path fill="none" stroke="black" d="M305.96,-130.12C273.51,-122 227.43,-111.77 186.3,-107.5 139.14,-102.6 84.02,-105.7 50.89,-108.51"/>
<polygon fill="black" stroke="black" points="50.18,-105.05 40.53,-109.43 50.81,-112.03 50.18,-105.05"/>
<text text-anchor="middle" x="181.3" y="-111.3" font-family="Times,serif" font-size="14.00">1</text>
</g>
<!-- n5&#45;&gt;n2 -->
<g id="edge12" class="edge">
<title>n5&#45;&gt;n2</title>
<path fill="none" stroke="black" d="M306.07,-171.23C296.21,-179.37 286.24,-188.68 278.19,-198.5 265.89,-213.5 255.5,-232.39 247.81,-248.56"/>
<polygon fill="black" stroke="black" points="244.6,-247.16 243.61,-257.71 250.96,-250.08 244.6,-247.16"/>
<text text-anchor="middle" x="283.19" y="-202.3" font-family="Times,serif" font-size="14.00">1</text>
</g>
<!-- n6&#45;&gt;n2 -->
<g id="edge2" class="edge">
<title>n6&#45;&gt;n2</title>
<path fill="none" stroke="black" d="M308.04,-325.01C298.03,-324.08 287.5,-322.15 278.19,-318.5 272.15,-316.13 266.25,-312.68 260.82,-308.85"/>
<polygon fill="black" stroke="black" points="262.78,-305.94 252.72,-302.63 258.52,-311.5 262.78,-305.94"/>
<text text-anchor="middle" x="283.19" y="-325.3" font-family="Times,serif" font-size="14.00">2</text>
</g>
<!-- n7&#45;&gt;n1 -->
<g id="edge4" class="edge">
<title>n7&#45;&gt;n1</title>
<path fill="none" stroke="black" d="M92.71,-20.57C81.18,-18.69 68.28,-18.94 58.3,-25.5 39.52,-37.84 30.19,-61.91 25.58,-81.46"/>
<polygon fill="black" stroke="black" points="22.11,-80.96 23.52,-91.46 28.96,-82.37 22.11,-80.96"/>
<text text-anchor="middle" x="63.3" y="-29.3" font-family="Times,serif" font-size="14.00">1</text>
</g>
<!-- n8&#45;&gt;n2 -->
<g id="edge14" class="edge">
<title>n8&#45;&gt;n2</title>
<path fill="none" stroke="black" d="M319.27,-387.84C314.8,-383.47 310.31,-378.92 306.19,-374.5 288.29,-355.26 269.8,-332.15 255.91,-314.03"/>
<polygon fill="black" stroke="black" points="258.32,-311.42 249.48,-305.57 252.75,-315.65 258.32,-311.42"/>
<text text-anchor="middle" x="283.19" y="-356.3" font-family="Times,serif" font-size="14.00">1</text>
</g>
</g>
</svg>
