<?xml version="1.0" encoding="UTF-8" standalone="no"?>
<!DOCTYPE svg PUBLIC "-//W3C//DTD SVG 1.1//EN"
 "http://www.w3.org/Graphics/SVG/1.1/DTD/svg11.dtd">
<!-- Generated by graphviz version 2.43.0 (0)
 -->
<!-- Title: G Pages: 1 -->
<svg width="563pt" height="269pt"
 viewBox="0.00 0.00 563.40 269.00" xmlns="http://www.w3.org/2000/svg" xmlns:xlink="http://www.w3.org/1999/xlink">
<g id="graph0" class="graph" transform="scale(1 1) rotate(0) translate(4 265)">
<title>G</title>
<polygon fill="white" stroke="transparent" points="-4,4 -4,-265 559.4,-265 559.4,4 -4,4"/>
<!-- n1 -->
<g id="node1" class="node">
<title>n1</title>
<ellipse fill="#6c9ac3" stroke="#6c9ac3" cx="18" cy="-67.5" rx="18" ry="18"/>
<text text-anchor="middle" x="18" y="-63.8" font-family="Times,serif" font-size="14.00">S</text>
</g>
<!-- n5 -->
<g id="node5" class="node">
<title>n5</title>
<polygon fill="#e28f41" stroke="#e28f41" points="161,-156 82,-156 82,-77 161,-77 161,-156"/>
<text text-anchor="middle" x="121.5" y="-112.8" font-family="Times,serif" font-size="14.00">infection</text>
</g>
<!-- n1&#45;&gt;n5 -->
<g id="edge7" class="edge">
<title>n1&#45;&gt;n5</title>
<path fill="none" stroke="black" d="M34.42,-74.94C44.7,-79.91 58.82,-86.72 72.65,-93.4"/>
<polygon fill="black" stroke="black" points="71.13,-96.55 81.66,-97.75 74.17,-90.25 71.13,-96.55"/>
<text text-anchor="middle" x="59" y="-92.3" font-family="Times,serif" font-size="14.00">1</text>
</g>
<!-- n8 -->
<g id="node8" class="node">
<title>n8</title>
<polygon fill="#e28f41" stroke="#e28f41" points="151,-59 92,-59 92,0 151,0 151,-59"/>
<text text-anchor="middle" x="121.5" y="-25.8" font-family="Times,serif" font-size="14.00">strata</text>
</g>
<!-- n1&#45;&gt;n8 -->
<g id="edge12" class="edge">
<title>n1&#45;&gt;n8</title>
<path fill="none" stroke="black" d="M35.31,-61.39C47.93,-56.67 65.94,-49.93 82.14,-43.86"/>
<polygon fill="black" stroke="black" points="83.8,-46.98 91.94,-40.19 81.35,-40.42 83.8,-46.98"/>
<text text-anchor="middle" x="59" y="-58.3" font-family="Times,serif" font-size="14.00">1</text>
</g>
<!-- n2 -->
<g id="node2" class="node">
<title>n2</title>
<ellipse fill="#6c9ac3" stroke="#6c9ac3" cx="225" cy="-116.5" rx="18" ry="18"/>
<text text-anchor="middle" x="225" y="-112.8" font-family="Times,serif" font-size="14.00">I</text>
</g>
<!-- n2&#45;&gt;n5 -->
<g id="edge1" class="edge">
<title>n2&#45;&gt;n5</title>
<path fill="none" stroke="black" d="M209.28,-106.96C203.25,-103.58 196.04,-100.2 189,-98.5 183.19,-97.09 177.12,-96.92 171.1,-97.56"/>
<polygon fill="black" stroke="black" points="170.34,-94.14 161.09,-99.31 171.54,-101.03 170.34,-94.14"/>
<text text-anchor="middle" x="184" y="-102.3" font-family="Times,serif" font-size="14.00">1</text>
</g>
<!-- n6 -->
<g id="node6" class="node">
<title>n6</title>
<polygon fill="#e28f41" stroke="#e28f41" points="368,-261 289,-261 289,-182 368,-182 368,-261"/>
<text text-anchor="middle" x="328.5" y="-217.8" font-family="Times,serif" font-size="14.00">recovery</text>
</g>
<!-- n2&#45;&gt;n6 -->
<g id="edge5" class="edge">
<title>n2&#45;&gt;n6</title>
<path fill="none" stroke="black" d="M238.04,-128.96C248.97,-140.26 265.8,-157.67 281.92,-174.35"/>
<polygon fill="black" stroke="black" points="279.79,-177.18 289.25,-181.93 284.82,-172.31 279.79,-177.18"/>
<text text-anchor="middle" x="266" y="-166.3" font-family="Times,serif" font-size="14.00">1</text>
</g>
<!-- n7 -->
<g id="node7" class="node">
<title>n7</title>
<polygon fill="#e28f41" stroke="#e28f41" points="357,-164 300,-164 300,-107 357,-107 357,-164"/>
<text text-anchor="middle" x="328.5" y="-131.8" font-family="Times,serif" font-size="14.00">death</text>
</g>
<!-- n2&#45;&gt;n7 -->
<g id="edge6" class="edge">
<title>n2&#45;&gt;n7</title>
<path fill="none" stroke="black" d="M242.76,-119.64C255.51,-122.02 273.55,-125.4 289.72,-128.43"/>
<polygon fill="black" stroke="black" points="289.52,-131.95 299.99,-130.35 290.81,-125.07 289.52,-131.95"/>
<text text-anchor="middle" x="266" y="-128.3" font-family="Times,serif" font-size="14.00">1</text>
</g>
<!-- n9 -->
<g id="node9" class="node">
<title>n9</title>
<polygon fill="#e28f41" stroke="#e28f41" points="358,-89 299,-89 299,-30 358,-30 358,-89"/>
<text text-anchor="middle" x="328.5" y="-55.8" font-family="Times,serif" font-size="14.00">strata</text>
</g>
<!-- n2&#45;&gt;n9 -->
<g id="edge13" class="edge">
<title>n2&#45;&gt;n9</title>
<path fill="none" stroke="black" d="M240.98,-108.09C253.82,-100.88 272.88,-90.17 289.84,-80.65"/>
<polygon fill="black" stroke="black" points="291.99,-83.45 299,-75.51 288.57,-77.35 291.99,-83.45"/>
<text text-anchor="middle" x="266" y="-99.3" font-family="Times,serif" font-size="14.00">1</text>
</g>
<!-- n3 -->
<g id="node3" class="node">
<title>n3</title>
<ellipse fill="#6c9ac3" stroke="#6c9ac3" cx="432.2" cy="-221.5" rx="18" ry="18"/>
<text text-anchor="middle" x="432.2" y="-217.8" font-family="Times,serif" font-size="14.00">R</text>
</g>
<!-- n10 -->
<g id="node10" class="node">
<title>n10</title>
<polygon fill="#e28f41" stroke="#e28f41" points="555.4,-251 496.4,-251 496.4,-192 555.4,-192 555.4,-251"/>
<text text-anchor="middle" x="525.9" y="-217.8" font-family="Times,serif" font-size="14.00">strata</text>
</g>
<!-- n3&#45;&gt;n10 -->
<g id="edge4" class="edge">
<title>n3&#45;&gt;n10</title>
<path fill="none" stroke="black" d="M450.45,-221.5C460.5,-221.5 473.6,-221.5 486.01,-221.5"/>
<polygon fill="black" stroke="black" points="486.19,-225 496.19,-221.5 486.19,-218 486.19,-225"/>
<text text-anchor="middle" x="473.4" y="-225.3" font-family="Times,serif" font-size="14.00">1</text>
</g>
<!-- n4 -->
<g id="node4" class="node">
<title>n4</title>
<ellipse fill="#6c9ac3" stroke="#6c9ac3" cx="432.2" cy="-135.5" rx="18.4" ry="18.4"/>
<text text-anchor="middle" x="432.2" y="-131.8" font-family="Times,serif" font-size="14.00">D</text>
</g>
<!-- n5&#45;&gt;n2 -->
<g id="edge11" class="edge">
<title>n5&#45;&gt;n2</title>
<path fill="none" stroke="black" d="M161.16,-116.5C173.01,-116.5 185.79,-116.5 196.72,-116.5"/>
<polygon fill="black" stroke="black" points="196.92,-120 206.92,-116.5 196.92,-113 196.92,-120"/>
<text text-anchor="middle" x="184" y="-120.3" font-family="Times,serif" font-size="14.00">2</text>
</g>
<!-- n6&#45;&gt;n3 -->
<g id="edge2" class="edge">
<title>n6&#45;&gt;n3</title>
<path fill="none" stroke="black" d="M368.24,-221.5C380.11,-221.5 392.92,-221.5 403.86,-221.5"/>
<polygon fill="black" stroke="black" points="404.08,-225 414.08,-221.5 404.08,-218 404.08,-225"/>
<text text-anchor="middle" x="391" y="-225.3" font-family="Times,serif" font-size="14.00">1</text>
</g>
<!-- n7&#45;&gt;n4 -->
<g id="edge8" class="edge">
<title>n7&#45;&gt;n4</title>
<path fill="none" stroke="black" d="M357.02,-135.5C371.46,-135.5 389.1,-135.5 403.56,-135.5"/>
<polygon fill="black" stroke="black" points="403.88,-139 413.88,-135.5 403.88,-132 403.88,-139"/>
<text text-anchor="middle" x="391" y="-139.3" font-family="Times,serif" font-size="14.00">1</text>
</g>
<!-- n8&#45;&gt;n1 -->
<g id="edge10" class="edge">
<title>n8&#45;&gt;n1</title>
<path fill="none" stroke="black" d="M91.96,-25.14C79.79,-24.47 65.73,-25.34 54,-30.5 46.77,-33.68 40.32,-39.15 34.99,-44.92"/>
<polygon fill="black" stroke="black" points="32.14,-42.87 28.44,-52.79 37.53,-47.34 32.14,-42.87"/>
<text text-anchor="middle" x="59" y="-34.3" font-family="Times,serif" font-size="14.00">1</text>
</g>
<!-- n9&#45;&gt;n2 -->
<g id="edge3" class="edge">
<title>n9&#45;&gt;n2</title>
<path fill="none" stroke="black" d="M298.74,-54.06C286.4,-53.16 272.26,-54.15 261,-60.5 249.45,-67.01 241.2,-79.07 235.62,-90.33"/>
<polygon fill="black" stroke="black" points="232.42,-88.9 231.54,-99.46 238.81,-91.75 232.42,-88.9"/>
<text text-anchor="middle" x="266" y="-64.3" font-family="Times,serif" font-size="14.00">1</text>
</g>
<!-- n10&#45;&gt;n3 -->
<g id="edge9" class="edge">
<title>n10&#45;&gt;n3</title>
<path fill="none" stroke="black" d="M496.12,-205.12C487.31,-201.93 477.53,-200.19 468.4,-202.5 464.42,-203.5 460.41,-205.06 456.58,-206.85"/>
<polygon fill="black" stroke="black" points="454.78,-203.84 447.6,-211.63 458.07,-210.02 454.78,-203.84"/>
<text text-anchor="middle" x="473.4" y="-206.3" font-family="Times,serif" font-size="14.00">1</text>
</g>
</g>
</svg>
