<?xml version="1.0" encoding="UTF-8" standalone="no"?>
<!DOCTYPE svg PUBLIC "-//W3C//DTD SVG 1.1//EN"
 "http://www.w3.org/Graphics/SVG/1.1/DTD/svg11.dtd">
<!-- Generated by graphviz version 2.43.0 (0)
 -->
<!-- Title: G Pages: 1 -->
<svg width="1177pt" height="536pt"
 viewBox="0.00 0.00 1177.09 535.50" xmlns="http://www.w3.org/2000/svg" xmlns:xlink="http://www.w3.org/1999/xlink">
<g id="graph0" class="graph" transform="scale(1 1) rotate(0) translate(4 531.5)">
<title>G</title>
<polygon fill="white" stroke="transparent" points="-4,4 -4,-531.5 1173.09,-531.5 1173.09,4 -4,4"/>
<!-- n1 -->
<g id="node1" class="node">
<title>n1</title>
<ellipse fill="#6c9ac3" stroke="#6c9ac3" cx="18" cy="-92.5" rx="18" ry="18"/>
<text text-anchor="middle" x="18" y="-88.8" font-family="Times,serif" font-size="14.00">S</text>
</g>
<!-- n8 -->
<g id="node8" class="node">
<title>n8</title>
<polygon fill="#e28f41" stroke="#e28f41" points="129.5,-231.5 93.5,-231.5 93.5,-195.5 129.5,-195.5 129.5,-231.5"/>
<text text-anchor="middle" x="111.5" y="-209.8" font-family="Times,serif" font-size="14.00">t1</text>
</g>
<!-- n1&#45;&gt;n8 -->
<g id="edge38" class="edge">
<title>n1&#45;&gt;n8</title>
<path fill="none" stroke="black" d="M24.14,-109.7C29.67,-126.22 39.63,-151.28 54,-169.5 62.54,-180.33 74.29,-190.04 84.86,-197.56"/>
<polygon fill="black" stroke="black" points="83.13,-200.61 93.37,-203.34 87.07,-194.82 83.13,-200.61"/>
<text text-anchor="middle" x="59" y="-184.3" font-family="Times,serif" font-size="14.00">1</text>
</g>
<!-- n9 -->
<g id="node9" class="node">
<title>n9</title>
<polygon fill="#e28f41" stroke="#e28f41" points="970.2,-198.5 934.2,-198.5 934.2,-162.5 970.2,-162.5 970.2,-198.5"/>
<text text-anchor="middle" x="952.2" y="-176.8" font-family="Times,serif" font-size="14.00">t2</text>
</g>
<!-- n1&#45;&gt;n9 -->
<g id="edge15" class="edge">
<title>n1&#45;&gt;n9</title>
<path fill="none" stroke="black" d="M36.2,-92.5C54.59,-92.5 84.61,-92.5 110.5,-92.5 110.5,-92.5 110.5,-92.5 818.7,-92.5 863.99,-92.5 905.64,-128.63 929.72,-154.59"/>
<polygon fill="black" stroke="black" points="927.33,-157.16 936.61,-162.27 932.54,-152.49 927.33,-157.16"/>
<text text-anchor="middle" x="473.7" y="-96.3" font-family="Times,serif" font-size="14.00">1</text>
</g>
<!-- n10 -->
<g id="node10" class="node">
<title>n10</title>
<polygon fill="#e28f41" stroke="#e28f41" points="545.7,-292.5 509.7,-292.5 509.7,-256.5 545.7,-256.5 545.7,-292.5"/>
<text text-anchor="middle" x="527.7" y="-270.8" font-family="Times,serif" font-size="14.00">t3</text>
</g>
<!-- n1&#45;&gt;n10 -->
<g id="edge40" class="edge">
<title>n1&#45;&gt;n10</title>
<path fill="none" stroke="black" d="M29.75,-106.48C45.34,-125.04 76.17,-155.5 110.5,-155.5 110.5,-155.5 110.5,-155.5 365,-155.5 428.7,-155.5 444.33,-179.91 491.7,-222.5 499.62,-229.63 506.61,-238.92 512.21,-247.67"/>
<polygon fill="black" stroke="black" points="509.37,-249.73 517.53,-256.48 515.36,-246.11 509.37,-249.73"/>
<text text-anchor="middle" x="246" y="-159.3" font-family="Times,serif" font-size="14.00">1</text>
</g>
<!-- n20 -->
<g id="node20" class="node">
<title>n20</title>
<polygon fill="#e28f41" stroke="#e28f41" points="141,-59 82,-59 82,0 141,0 141,-59"/>
<text text-anchor="middle" x="111.5" y="-25.8" font-family="Times,serif" font-size="14.00">strata</text>
</g>
<!-- n1&#45;&gt;n20 -->
<g id="edge13" class="edge">
<title>n1&#45;&gt;n20</title>
<path fill="none" stroke="black" d="M22.75,-74.98C27.21,-58.96 36.38,-36.18 54,-25.5 59.28,-22.3 65.37,-20.91 71.55,-20.64"/>
<polygon fill="black" stroke="black" points="71.77,-24.15 81.92,-21.1 72.09,-17.16 71.77,-24.15"/>
<text text-anchor="middle" x="59" y="-29.3" font-family="Times,serif" font-size="14.00">1</text>
</g>
<!-- n2 -->
<g id="node2" class="node">
<title>n2</title>
<ellipse fill="#6c9ac3" stroke="#6c9ac3" cx="205" cy="-366.5" rx="18" ry="18"/>
<text text-anchor="middle" x="205" y="-362.8" font-family="Times,serif" font-size="14.00">I</text>
</g>
<!-- n2&#45;&gt;n8 -->
<g id="edge20" class="edge">
<title>n2&#45;&gt;n8</title>
<path fill="none" stroke="black" d="M190.42,-355.4C180.69,-346.91 167.81,-334.48 159,-321.5 142.01,-296.45 129.1,-264.18 121.24,-241.46"/>
<polygon fill="black" stroke="black" points="124.49,-240.13 117.99,-231.76 117.85,-242.35 124.49,-240.13"/>
<text text-anchor="middle" x="164" y="-337.3" font-family="Times,serif" font-size="14.00">1</text>
</g>
<!-- n13 -->
<g id="node13" class="node">
<title>n13</title>
<polygon fill="#e28f41" stroke="#e28f41" points="316.5,-319.5 280.5,-319.5 280.5,-283.5 316.5,-283.5 316.5,-319.5"/>
<text text-anchor="middle" x="298.5" y="-297.8" font-family="Times,serif" font-size="14.00">t6</text>
</g>
<!-- n2&#45;&gt;n13 -->
<g id="edge32" class="edge">
<title>n2&#45;&gt;n13</title>
<path fill="none" stroke="black" d="M214.05,-350.55C220.12,-340.03 229.39,-326.73 241,-318.5 249.68,-312.35 260.63,-308.39 270.56,-305.85"/>
<polygon fill="black" stroke="black" points="271.4,-309.26 280.42,-303.7 269.9,-302.42 271.4,-309.26"/>
<text text-anchor="middle" x="246" y="-322.3" font-family="Times,serif" font-size="14.00">1</text>
</g>
<!-- n14 -->
<g id="node14" class="node">
<title>n14</title>
<polygon fill="#e28f41" stroke="#e28f41" points="382,-442.5 346,-442.5 346,-406.5 382,-406.5 382,-442.5"/>
<text text-anchor="middle" x="364" y="-420.8" font-family="Times,serif" font-size="14.00">t7</text>
</g>
<!-- n2&#45;&gt;n14 -->
<g id="edge33" class="edge">
<title>n2&#45;&gt;n14</title>
<path fill="none" stroke="black" d="M222.54,-370.72C246.33,-377.03 291.39,-389.88 328,-405.5 330.9,-406.74 333.87,-408.13 336.8,-409.59"/>
<polygon fill="black" stroke="black" points="335.39,-412.81 345.87,-414.37 338.65,-406.62 335.39,-412.81"/>
<text text-anchor="middle" x="246" y="-381.3" font-family="Times,serif" font-size="14.00">1</text>
</g>
<!-- n15 -->
<g id="node15" class="node">
<title>n15</title>
<polygon fill="#e28f41" stroke="#e28f41" points="491.7,-527.5 455.7,-527.5 455.7,-491.5 491.7,-491.5 491.7,-527.5"/>
<text text-anchor="middle" x="473.7" y="-505.8" font-family="Times,serif" font-size="14.00">t8</text>
</g>
<!-- n2&#45;&gt;n15 -->
<g id="edge27" class="edge">
<title>n2&#45;&gt;n15</title>
<path fill="none" stroke="black" d="M209.17,-384.32C213.53,-404.85 222.96,-438.78 241,-462.5 250.26,-474.67 254.78,-476.88 269,-482.5 328.88,-506.14 405.55,-509.87 445.59,-510.01"/>
<polygon fill="black" stroke="black" points="445.65,-513.51 455.64,-509.97 445.63,-506.51 445.65,-513.51"/>
<text text-anchor="middle" x="298.5" y="-502.3" font-family="Times,serif" font-size="14.00">1</text>
</g>
<!-- n21 -->
<g id="node21" class="node">
<title>n21</title>
<polygon fill="#e28f41" stroke="#e28f41" points="328,-473 269,-473 269,-414 328,-414 328,-473"/>
<text text-anchor="middle" x="298.5" y="-439.8" font-family="Times,serif" font-size="14.00">strata</text>
</g>
<!-- n2&#45;&gt;n21 -->
<g id="edge26" class="edge">
<title>n2&#45;&gt;n21</title>
<path fill="none" stroke="black" d="M217.89,-379.27C224.47,-386.11 232.94,-394.54 241,-401.5 247.18,-406.84 253.98,-412.25 260.66,-417.33"/>
<polygon fill="black" stroke="black" points="258.89,-420.38 268.99,-423.56 263.08,-414.77 258.89,-420.38"/>
<text text-anchor="middle" x="246" y="-412.3" font-family="Times,serif" font-size="14.00">1</text>
</g>
<!-- n3 -->
<g id="node3" class="node">
<title>n3</title>
<ellipse fill="#6c9ac3" stroke="#6c9ac3" cx="640.7" cy="-241.5" rx="18" ry="18"/>
<text text-anchor="middle" x="640.7" y="-237.8" font-family="Times,serif" font-size="14.00">E</text>
</g>
<!-- n11 -->
<g id="node11" class="node">
<title>n11</title>
<polygon fill="#e28f41" stroke="#e28f41" points="783.2,-365.5 747.2,-365.5 747.2,-329.5 783.2,-329.5 783.2,-365.5"/>
<text text-anchor="middle" x="765.2" y="-343.8" font-family="Times,serif" font-size="14.00">t4</text>
</g>
<!-- n3&#45;&gt;n11 -->
<g id="edge31" class="edge">
<title>n3&#45;&gt;n11</title>
<path fill="none" stroke="black" d="M650.42,-257.12C656.8,-267.64 666.15,-281.38 676.7,-291.5 679.32,-294.02 713.33,-315.57 738.17,-331.19"/>
<polygon fill="black" stroke="black" points="736.5,-334.27 746.82,-336.62 740.22,-328.34 736.5,-334.27"/>
<text text-anchor="middle" x="697.2" y="-321.3" font-family="Times,serif" font-size="14.00">1</text>
</g>
<!-- n12 -->
<g id="node12" class="node">
<title>n12</title>
<polygon fill="#e28f41" stroke="#e28f41" points="783.2,-310.5 747.2,-310.5 747.2,-274.5 783.2,-274.5 783.2,-310.5"/>
<text text-anchor="middle" x="765.2" y="-288.8" font-family="Times,serif" font-size="14.00">t5</text>
</g>
<!-- n3&#45;&gt;n12 -->
<g id="edge12" class="edge">
<title>n3&#45;&gt;n12</title>
<path fill="none" stroke="black" d="M657.46,-248.06C677.68,-256.48 713.05,-271.21 737.5,-281.39"/>
<polygon fill="black" stroke="black" points="736.34,-284.69 746.92,-285.31 739.03,-278.23 736.34,-284.69"/>
<text text-anchor="middle" x="697.2" y="-276.3" font-family="Times,serif" font-size="14.00">1</text>
</g>
<!-- n22 -->
<g id="node22" class="node">
<title>n22</title>
<polygon fill="#e28f41" stroke="#e28f41" points="794.7,-256 735.7,-256 735.7,-197 794.7,-197 794.7,-256"/>
<text text-anchor="middle" x="765.2" y="-222.8" font-family="Times,serif" font-size="14.00">strata</text>
</g>
<!-- n3&#45;&gt;n22 -->
<g id="edge39" class="edge">
<title>n3&#45;&gt;n22</title>
<path fill="none" stroke="black" d="M658.73,-239.41C675.95,-237.31 703.14,-233.98 725.61,-231.23"/>
<polygon fill="black" stroke="black" points="726.04,-234.7 735.54,-230.01 725.19,-227.75 726.04,-234.7"/>
<text text-anchor="middle" x="697.2" y="-240.3" font-family="Times,serif" font-size="14.00">1</text>
</g>
<!-- n4 -->
<g id="node4" class="node">
<title>n4</title>
<ellipse fill="#6c9ac3" stroke="#6c9ac3" cx="858.7" cy="-292.5" rx="18" ry="18"/>
<text text-anchor="middle" x="858.7" y="-288.8" font-family="Times,serif" font-size="14.00">A</text>
</g>
<!-- n4&#45;&gt;n9 -->
<g id="edge37" class="edge">
<title>n4&#45;&gt;n9</title>
<path fill="none" stroke="black" d="M870.72,-278.94C877.61,-270.47 886.66,-259.34 894.7,-249.5 906.26,-235.33 919.18,-219.55 929.75,-206.66"/>
<polygon fill="black" stroke="black" points="932.68,-208.6 936.31,-198.65 927.27,-204.16 932.68,-208.6"/>
<text text-anchor="middle" x="899.7" y="-253.3" font-family="Times,serif" font-size="14.00">1</text>
</g>
<!-- n16 -->
<g id="node16" class="node">
<title>n16</title>
<polygon fill="#e28f41" stroke="#e28f41" points="970.2,-261.5 934.2,-261.5 934.2,-225.5 970.2,-225.5 970.2,-261.5"/>
<text text-anchor="middle" x="952.2" y="-239.8" font-family="Times,serif" font-size="14.00">t9</text>
</g>
<!-- n4&#45;&gt;n16 -->
<g id="edge36" class="edge">
<title>n4&#45;&gt;n16</title>
<path fill="none" stroke="black" d="M874.81,-284.41C888.38,-277.14 908.63,-266.3 924.86,-257.6"/>
<polygon fill="black" stroke="black" points="926.72,-260.58 933.88,-252.77 923.41,-254.41 926.72,-260.58"/>
<text text-anchor="middle" x="899.7" y="-275.3" font-family="Times,serif" font-size="14.00">1</text>
</g>
<!-- n17 -->
<g id="node17" class="node">
<title>n17</title>
<polygon fill="#e28f41" stroke="#e28f41" points="972.7,-398 931.7,-398 931.7,-357 972.7,-357 972.7,-398"/>
<text text-anchor="middle" x="952.2" y="-373.8" font-family="Times,serif" font-size="14.00">t10</text>
</g>
<!-- n4&#45;&gt;n17 -->
<g id="edge18" class="edge">
<title>n4&#45;&gt;n17</title>
<path fill="none" stroke="black" d="M869.34,-307.56C875.84,-317.05 884.97,-329.21 894.7,-338.5 903.21,-346.63 913.57,-354.29 923.07,-360.64"/>
<polygon fill="black" stroke="black" points="921.19,-363.59 931.49,-366.07 924.98,-357.7 921.19,-363.59"/>
<text text-anchor="middle" x="899.7" y="-350.3" font-family="Times,serif" font-size="14.00">1</text>
</g>
<!-- n23 -->
<g id="node23" class="node">
<title>n23</title>
<polygon fill="#e28f41" stroke="#e28f41" points="981.7,-339 922.7,-339 922.7,-280 981.7,-280 981.7,-339"/>
<text text-anchor="middle" x="952.2" y="-305.8" font-family="Times,serif" font-size="14.00">strata</text>
</g>
<!-- n4&#45;&gt;n23 -->
<g id="edge14" class="edge">
<title>n4&#45;&gt;n23</title>
<path fill="none" stroke="black" d="M872.17,-304.85C878.39,-310.15 886.36,-315.74 894.7,-318.5 900.38,-320.38 906.51,-320.88 912.57,-320.54"/>
<polygon fill="black" stroke="black" points="913.12,-323.99 922.6,-319.27 912.25,-317.05 913.12,-323.99"/>
<text text-anchor="middle" x="899.7" y="-323.3" font-family="Times,serif" font-size="14.00">1</text>
</g>
<!-- n5 -->
<g id="node5" class="node">
<title>n5</title>
<ellipse fill="#6c9ac3" stroke="#6c9ac3" cx="418.85" cy="-300.5" rx="18.7" ry="18.7"/>
<text text-anchor="middle" x="418.85" y="-296.8" font-family="Times,serif" font-size="14.00">H</text>
</g>
<!-- n5&#45;&gt;n10 -->
<g id="edge30" class="edge">
<title>n5&#45;&gt;n10</title>
<path fill="none" stroke="black" d="M430.73,-285.85C437.1,-278.54 445.82,-270.44 455.7,-266.5 469.56,-260.97 486.08,-262.41 499.69,-265.48"/>
<polygon fill="black" stroke="black" points="498.88,-268.89 509.44,-268.06 500.67,-262.12 498.88,-268.89"/>
<text text-anchor="middle" x="473.7" y="-270.3" font-family="Times,serif" font-size="14.00">1</text>
</g>
<!-- n18 -->
<g id="node18" class="node">
<title>n18</title>
<polygon fill="#e28f41" stroke="#e28f41" points="717.7,-433 676.7,-433 676.7,-392 717.7,-392 717.7,-433"/>
<text text-anchor="middle" x="697.2" y="-408.8" font-family="Times,serif" font-size="14.00">t11</text>
</g>
<!-- n5&#45;&gt;n18 -->
<g id="edge28" class="edge">
<title>n5&#45;&gt;n18</title>
<path fill="none" stroke="black" d="M424.87,-318.54C430.06,-333.73 439.69,-354.81 455.7,-366.5 519.51,-413.14 617.5,-416.29 666.36,-414.53"/>
<polygon fill="black" stroke="black" points="666.73,-418.02 676.56,-414.06 666.41,-411.02 666.73,-418.02"/>
<text text-anchor="middle" x="527.7" y="-407.3" font-family="Times,serif" font-size="14.00">1</text>
</g>
<!-- n19 -->
<g id="node19" class="node">
<title>n19</title>
<polygon fill="#e28f41" stroke="#e28f41" points="604.7,-238 563.7,-238 563.7,-197 604.7,-197 604.7,-238"/>
<text text-anchor="middle" x="584.2" y="-213.8" font-family="Times,serif" font-size="14.00">t12</text>
</g>
<!-- n5&#45;&gt;n19 -->
<g id="edge21" class="edge">
<title>n5&#45;&gt;n19</title>
<path fill="none" stroke="black" d="M426.36,-283.08C432.11,-270.15 441.76,-253.14 455.7,-243.5 484.73,-223.41 525.82,-218.16 553.43,-217.12"/>
<polygon fill="black" stroke="black" points="553.74,-220.61 563.66,-216.9 553.59,-213.61 553.74,-220.61"/>
<text text-anchor="middle" x="473.7" y="-247.3" font-family="Times,serif" font-size="14.00">1</text>
</g>
<!-- n6 -->
<g id="node6" class="node">
<title>n6</title>
<ellipse fill="#6c9ac3" stroke="#6c9ac3" cx="1045.9" cy="-243.5" rx="18" ry="18"/>
<text text-anchor="middle" x="1045.9" y="-239.8" font-family="Times,serif" font-size="14.00">R</text>
</g>
<!-- n24 -->
<g id="node24" class="node">
<title>n24</title>
<polygon fill="#e28f41" stroke="#e28f41" points="1169.09,-273 1110.09,-273 1110.09,-214 1169.09,-214 1169.09,-273"/>
<text text-anchor="middle" x="1139.59" y="-239.8" font-family="Times,serif" font-size="14.00">strata</text>
</g>
<!-- n6&#45;&gt;n24 -->
<g id="edge6" class="edge">
<title>n6&#45;&gt;n24</title>
<path fill="none" stroke="black" d="M1064.14,-243.5C1074.19,-243.5 1087.3,-243.5 1099.71,-243.5"/>
<polygon fill="black" stroke="black" points="1099.89,-247 1109.89,-243.5 1099.89,-240 1099.89,-247"/>
<text text-anchor="middle" x="1087.09" y="-247.3" font-family="Times,serif" font-size="14.00">1</text>
</g>
<!-- n7 -->
<g id="node7" class="node">
<title>n7</title>
<ellipse fill="#6c9ac3" stroke="#6c9ac3" cx="1045.9" cy="-426.5" rx="18.4" ry="18.4"/>
<text text-anchor="middle" x="1045.9" y="-422.8" font-family="Times,serif" font-size="14.00">D</text>
</g>
<!-- n8&#45;&gt;n2 -->
<g id="edge1" class="edge">
<title>n8&#45;&gt;n2</title>
<path fill="none" stroke="black" d="M123.64,-231.62C135.1,-250.32 153.44,-280.37 169,-306.5 175.97,-318.2 183.6,-331.25 189.95,-342.19"/>
<polygon fill="black" stroke="black" points="187.11,-344.27 195.16,-351.17 193.17,-340.76 187.11,-344.27"/>
<text text-anchor="middle" x="164" y="-310.3" font-family="Times,serif" font-size="14.00">1</text>
</g>
<!-- n8&#45;&gt;n3 -->
<g id="edge3" class="edge">
<title>n8&#45;&gt;n3</title>
<path fill="none" stroke="black" d="M129.8,-207.39C148.01,-201.51 177.66,-193.5 204,-193.5 204,-193.5 204,-193.5 365,-193.5 471.57,-193.5 511.07,-136.61 604.7,-187.5 615.86,-193.57 624.01,-204.89 629.62,-215.62"/>
<polygon fill="black" stroke="black" points="626.49,-217.18 633.91,-224.73 632.82,-214.19 626.49,-217.18"/>
<text text-anchor="middle" x="364" y="-197.3" font-family="Times,serif" font-size="14.00">1</text>
</g>
<!-- n9&#45;&gt;n3 -->
<g id="edge10" class="edge">
<title>n9&#45;&gt;n3</title>
<path fill="none" stroke="black" d="M933.9,-176.54C888.14,-167.05 761.6,-147.37 676.7,-197.5 668.48,-202.35 661.44,-209.91 655.87,-217.41"/>
<polygon fill="black" stroke="black" points="652.75,-215.77 650.02,-226.01 658.54,-219.7 652.75,-215.77"/>
<text text-anchor="middle" x="817.7" y="-169.3" font-family="Times,serif" font-size="14.00">1</text>
</g>
<!-- n9&#45;&gt;n4 -->
<g id="edge11" class="edge">
<title>n9&#45;&gt;n4</title>
<path fill="none" stroke="black" d="M934.11,-183.35C921.72,-186.24 905.34,-191.85 894.7,-202.5 877.92,-219.28 868.99,-245.03 864.37,-264.69"/>
<polygon fill="black" stroke="black" points="860.91,-264.1 862.27,-274.61 867.76,-265.55 860.91,-264.1"/>
<text text-anchor="middle" x="899.7" y="-206.3" font-family="Times,serif" font-size="14.00">1</text>
</g>
<!-- n10&#45;&gt;n3 -->
<g id="edge29" class="edge">
<title>n10&#45;&gt;n3</title>
<path fill="none" stroke="black" d="M546.04,-269.34C564.09,-263.98 592.57,-255.51 613.39,-249.32"/>
<polygon fill="black" stroke="black" points="614.61,-252.61 623.2,-246.4 612.62,-245.9 614.61,-252.61"/>
<text text-anchor="middle" x="584.2" y="-267.3" font-family="Times,serif" font-size="14.00">1</text>
</g>
<!-- n10&#45;&gt;n5 -->
<g id="edge4" class="edge">
<title>n10&#45;&gt;n5</title>
<path fill="none" stroke="black" d="M509.35,-280.32C503.75,-282.1 497.49,-283.99 491.7,-285.5 477.3,-289.26 461.08,-292.71 447.71,-295.35"/>
<polygon fill="black" stroke="black" points="446.83,-291.95 437.68,-297.29 448.16,-298.83 446.83,-291.95"/>
<text text-anchor="middle" x="473.7" y="-297.3" font-family="Times,serif" font-size="14.00">1</text>
</g>
<!-- n11&#45;&gt;n2 -->
<g id="edge7" class="edge">
<title>n11&#45;&gt;n2</title>
<path fill="none" stroke="black" d="M747.15,-347.5C723.49,-347.5 679.34,-347.5 641.7,-347.5 297.5,-347.5 297.5,-347.5 297.5,-347.5 275.12,-347.5 250.3,-353.02 232.16,-358.1"/>
<polygon fill="black" stroke="black" points="230.92,-354.82 222.32,-361 232.9,-361.53 230.92,-354.82"/>
<text text-anchor="middle" x="473.7" y="-351.3" font-family="Times,serif" font-size="14.00">1</text>
</g>
<!-- n12&#45;&gt;n4 -->
<g id="edge5" class="edge">
<title>n12&#45;&gt;n4</title>
<path fill="none" stroke="black" d="M783.41,-292.5C796.57,-292.5 814.98,-292.5 830.18,-292.5"/>
<polygon fill="black" stroke="black" points="830.56,-296 840.56,-292.5 830.56,-289 830.56,-296"/>
<text text-anchor="middle" x="817.7" y="-296.3" font-family="Times,serif" font-size="14.00">1</text>
</g>
<!-- n13&#45;&gt;n5 -->
<g id="edge2" class="edge">
<title>n13&#45;&gt;n5</title>
<path fill="none" stroke="black" d="M316.71,-301.35C335.86,-301.19 367.09,-300.93 389.78,-300.74"/>
<polygon fill="black" stroke="black" points="389.87,-304.24 399.84,-300.65 389.81,-297.24 389.87,-304.24"/>
<text text-anchor="middle" x="364" y="-304.3" font-family="Times,serif" font-size="14.00">1</text>
</g>
<!-- n14&#45;&gt;n6 -->
<g id="edge34" class="edge">
<title>n14&#45;&gt;n6</title>
<path fill="none" stroke="black" d="M382.18,-435.22C402.85,-447.07 438.99,-464.5 472.7,-464.5 472.7,-464.5 472.7,-464.5 953.2,-464.5 1035.71,-464.5 1045.38,-331.44 1045.57,-271.82"/>
<polygon fill="black" stroke="black" points="1049.07,-271.56 1045.52,-261.59 1042.07,-271.61 1049.07,-271.56"/>
<text text-anchor="middle" x="697.2" y="-468.3" font-family="Times,serif" font-size="14.00">1</text>
</g>
<!-- n15&#45;&gt;n7 -->
<g id="edge16" class="edge">
<title>n15&#45;&gt;n7</title>
<path fill="none" stroke="black" d="M491.98,-509.76C513.39,-510.05 550.98,-510.5 583.2,-510.5 583.2,-510.5 583.2,-510.5 953.2,-510.5 988.61,-510.5 1016.29,-476.01 1031.61,-451.23"/>
<polygon fill="black" stroke="black" points="1034.81,-452.69 1036.86,-442.3 1028.78,-449.14 1034.81,-452.69"/>
<text text-anchor="middle" x="765.2" y="-514.3" font-family="Times,serif" font-size="14.00">1</text>
</g>
<!-- n16&#45;&gt;n6 -->
<g id="edge17" class="edge">
<title>n16&#45;&gt;n6</title>
<path fill="none" stroke="black" d="M970.44,-243.5C983.64,-243.5 1002.09,-243.5 1017.32,-243.5"/>
<polygon fill="black" stroke="black" points="1017.72,-247 1027.72,-243.5 1017.72,-240 1017.72,-247"/>
<text text-anchor="middle" x="1004.7" y="-247.3" font-family="Times,serif" font-size="14.00">1</text>
</g>
<!-- n17&#45;&gt;n7 -->
<g id="edge35" class="edge">
<title>n17&#45;&gt;n7</title>
<path fill="none" stroke="black" d="M972.75,-382.58C983.98,-385.94 998.1,-390.94 1009.7,-397.5 1014.78,-400.37 1019.85,-404 1024.51,-407.7"/>
<polygon fill="black" stroke="black" points="1022.43,-410.53 1032.33,-414.31 1026.95,-405.19 1022.43,-410.53"/>
<text text-anchor="middle" x="1004.7" y="-401.3" font-family="Times,serif" font-size="14.00">1</text>
</g>
<!-- n18&#45;&gt;n7 -->
<g id="edge19" class="edge">
<title>n18&#45;&gt;n7</title>
<path fill="none" stroke="black" d="M717.83,-413.29C776.31,-415.65 949.49,-422.65 1017.26,-425.38"/>
<polygon fill="black" stroke="black" points="1017.43,-428.89 1027.56,-425.8 1017.71,-421.9 1017.43,-428.89"/>
<text text-anchor="middle" x="858.7" y="-423.3" font-family="Times,serif" font-size="14.00">1</text>
</g>
<!-- n19&#45;&gt;n6 -->
<g id="edge24" class="edge">
<title>n19&#45;&gt;n6</title>
<path fill="none" stroke="black" d="M604.82,-206.18C665.22,-172.97 852.06,-82.46 981.7,-153.5 1006.96,-167.34 1024.4,-196.14 1034.46,-217.44"/>
<polygon fill="black" stroke="black" points="1031.29,-218.93 1038.56,-226.63 1037.68,-216.07 1031.29,-218.93"/>
<text text-anchor="middle" x="817.7" y="-135.3" font-family="Times,serif" font-size="14.00">1</text>
</g>
<!-- n20&#45;&gt;n1 -->
<g id="edge25" class="edge">
<title>n20&#45;&gt;n1</title>
<path fill="none" stroke="black" d="M81.8,-45.64C72.73,-51.04 62.78,-57.28 54,-63.5 49.25,-66.87 44.34,-70.7 39.74,-74.45"/>
<polygon fill="black" stroke="black" points="37.34,-71.9 31.92,-81 41.84,-77.26 37.34,-71.9"/>
<text text-anchor="middle" x="59" y="-67.3" font-family="Times,serif" font-size="14.00">1</text>
</g>
<!-- n21&#45;&gt;n2 -->
<g id="edge23" class="edge">
<title>n21&#45;&gt;n2</title>
<path fill="none" stroke="black" d="M268.9,-447.01C259.32,-446.81 249.05,-444.97 241,-439.5 225.75,-429.13 216.93,-410.2 211.97,-394.22"/>
<polygon fill="black" stroke="black" points="215.25,-392.98 209.23,-384.26 208.51,-394.83 215.25,-392.98"/>
<text text-anchor="middle" x="246" y="-447.3" font-family="Times,serif" font-size="14.00">1</text>
</g>
<!-- n22&#45;&gt;n3 -->
<g id="edge8" class="edge">
<title>n22&#45;&gt;n3</title>
<path fill="none" stroke="black" d="M735.46,-210.08C718.01,-202.34 695.54,-196.39 676.7,-204.5 669.44,-207.63 662.98,-213.08 657.65,-218.85"/>
<polygon fill="black" stroke="black" points="654.8,-216.81 651.11,-226.74 660.19,-221.27 654.8,-216.81"/>
<text text-anchor="middle" x="697.2" y="-208.3" font-family="Times,serif" font-size="14.00">1</text>
</g>
<!-- n23&#45;&gt;n4 -->
<g id="edge9" class="edge">
<title>n23&#45;&gt;n4</title>
<path fill="none" stroke="black" d="M922.66,-304.2C911.17,-302.06 897.98,-299.61 886.65,-297.51"/>
<polygon fill="black" stroke="black" points="886.95,-294 876.48,-295.62 885.67,-300.89 886.95,-294"/>
<text text-anchor="middle" x="899.7" y="-303.3" font-family="Times,serif" font-size="14.00">1</text>
</g>
<!-- n24&#45;&gt;n6 -->
<g id="edge22" class="edge">
<title>n24&#45;&gt;n6</title>
<path fill="none" stroke="black" d="M1109.81,-227.12C1101,-223.93 1091.22,-222.19 1082.09,-224.5 1078.12,-225.5 1074.1,-227.06 1070.28,-228.85"/>
<polygon fill="black" stroke="black" points="1068.48,-225.84 1061.29,-233.63 1071.77,-232.02 1068.48,-225.84"/>
<text text-anchor="middle" x="1087.09" y="-228.3" font-family="Times,serif" font-size="14.00">1</text>
</g>
</g>
</svg>
