<?xml version="1.0" encoding="UTF-8" standalone="no"?>
<!DOCTYPE svg PUBLIC "-//W3C//DTD SVG 1.1//EN"
 "http://www.w3.org/Graphics/SVG/1.1/DTD/svg11.dtd">
<!-- Generated by graphviz version 2.43.0 (0)
 -->
<!-- Title: G Pages: 1 -->
<svg width="761pt" height="159pt"
 viewBox="0.00 0.00 761.40 159.00" xmlns="http://www.w3.org/2000/svg" xmlns:xlink="http://www.w3.org/1999/xlink">
<g id="graph0" class="graph" transform="scale(1 1) rotate(0) translate(4 155)">
<title>G</title>
<polygon fill="white" stroke="transparent" points="-4,4 -4,-155 757.4,-155 757.4,4 -4,4"/>
<!-- n1 -->
<g id="node1" class="node">
<title>n1</title>
<ellipse fill="#6c9ac3" stroke="#6c9ac3" cx="18" cy="-110" rx="18" ry="18"/>
<text text-anchor="middle" x="18" y="-106.3" font-family="Times,serif" font-size="14.00">S</text>
</g>
<!-- n6 -->
<g id="node6" class="node">
<title>n6</title>
<polygon fill="#e28f41" stroke="#e28f41" points="124,-131 82,-131 82,-89 124,-89 124,-131"/>
<text text-anchor="middle" x="103" y="-106.3" font-family="Times,serif" font-size="14.00">exp</text>
</g>
<!-- n1&#45;&gt;n6 -->
<g id="edge13" class="edge">
<title>n1&#45;&gt;n6</title>
<path fill="none" stroke="black" d="M36.2,-110C46.48,-110 59.84,-110 71.83,-110"/>
<polygon fill="black" stroke="black" points="71.9,-113.5 81.9,-110 71.9,-106.5 71.9,-113.5"/>
<text text-anchor="middle" x="59" y="-113.8" font-family="Times,serif" font-size="14.00">1</text>
</g>
<!-- n2 -->
<g id="node2" class="node">
<title>n2</title>
<ellipse fill="#6c9ac3" stroke="#6c9ac3" cx="378" cy="-110" rx="18" ry="18"/>
<text text-anchor="middle" x="378" y="-106.3" font-family="Times,serif" font-size="14.00">I</text>
</g>
<!-- n2&#45;&gt;n6 -->
<g id="edge6" class="edge">
<title>n2&#45;&gt;n6</title>
<path fill="none" stroke="black" d="M359.76,-110C314.47,-110 191.69,-110 134.32,-110"/>
<polygon fill="black" stroke="black" points="134.07,-106.5 124.07,-110 134.07,-113.5 134.07,-106.5"/>
<text text-anchor="middle" x="229" y="-113.8" font-family="Times,serif" font-size="14.00">1</text>
</g>
<!-- n8 -->
<g id="node8" class="node">
<title>n8</title>
<polygon fill="#e28f41" stroke="#e28f41" points="535,-129.5 496,-129.5 496,-90.5 535,-90.5 535,-129.5"/>
<text text-anchor="middle" x="515.5" y="-106.3" font-family="Times,serif" font-size="14.00">rec</text>
</g>
<!-- n2&#45;&gt;n8 -->
<g id="edge10" class="edge">
<title>n2&#45;&gt;n8</title>
<path fill="none" stroke="black" d="M396.16,-110C418.67,-110 458.48,-110 485.66,-110"/>
<polygon fill="black" stroke="black" points="485.74,-113.5 495.74,-110 485.74,-106.5 485.74,-113.5"/>
<text text-anchor="middle" x="419" y="-113.8" font-family="Times,serif" font-size="14.00">1</text>
</g>
<!-- n10 -->
<g id="node10" class="node">
<title>n10</title>
<polygon fill="#e28f41" stroke="#e28f41" points="478,-82 442,-82 442,-46 478,-46 478,-82"/>
<text text-anchor="middle" x="460" y="-60.3" font-family="Times,serif" font-size="14.00">qi</text>
</g>
<!-- n2&#45;&gt;n10 -->
<g id="edge11" class="edge">
<title>n2&#45;&gt;n10</title>
<path fill="none" stroke="black" d="M389.07,-95.61C395.35,-87.73 404.1,-78.48 414,-73 419.45,-69.99 425.76,-67.97 431.91,-66.63"/>
<polygon fill="black" stroke="black" points="432.63,-70.06 441.91,-64.95 431.47,-63.16 432.63,-70.06"/>
<text text-anchor="middle" x="419" y="-76.8" font-family="Times,serif" font-size="14.00">1</text>
</g>
<!-- n3 -->
<g id="node3" class="node">
<title>n3</title>
<ellipse fill="#6c9ac3" stroke="#6c9ac3" cx="188" cy="-64" rx="18" ry="18"/>
<text text-anchor="middle" x="188" y="-60.3" font-family="Times,serif" font-size="14.00">E</text>
</g>
<!-- n7 -->
<g id="node7" class="node">
<title>n7</title>
<polygon fill="#e28f41" stroke="#e28f41" points="288,-82 252,-82 252,-46 288,-46 288,-82"/>
<text text-anchor="middle" x="270" y="-60.3" font-family="Times,serif" font-size="14.00">ill</text>
</g>
<!-- n3&#45;&gt;n7 -->
<g id="edge1" class="edge">
<title>n3&#45;&gt;n7</title>
<path fill="none" stroke="black" d="M206.36,-64C216.7,-64 230.06,-64 241.78,-64"/>
<polygon fill="black" stroke="black" points="241.95,-67.5 251.95,-64 241.95,-60.5 241.95,-67.5"/>
<text text-anchor="middle" x="229" y="-67.8" font-family="Times,serif" font-size="14.00">1</text>
</g>
<!-- n9 -->
<g id="node9" class="node">
<title>n9</title>
<polygon fill="#e28f41" stroke="#e28f41" points="342,-36 306,-36 306,0 342,0 342,-36"/>
<text text-anchor="middle" x="324" y="-14.3" font-family="Times,serif" font-size="14.00">qe</text>
</g>
<!-- n3&#45;&gt;n9 -->
<g id="edge14" class="edge">
<title>n3&#45;&gt;n9</title>
<path fill="none" stroke="black" d="M203.98,-54.93C210.05,-51.51 217.22,-47.77 224,-45 247.59,-35.36 275.74,-28.06 295.97,-23.5"/>
<polygon fill="black" stroke="black" points="296.74,-26.91 305.77,-21.37 295.25,-20.08 296.74,-26.91"/>
<text text-anchor="middle" x="229" y="-48.8" font-family="Times,serif" font-size="14.00">1</text>
</g>
<!-- n4 -->
<g id="node4" class="node">
<title>n4</title>
<ellipse fill="#6c9ac3" stroke="#6c9ac3" cx="735.4" cy="-87" rx="18" ry="18"/>
<text text-anchor="middle" x="735.4" y="-83.3" font-family="Times,serif" font-size="14.00">R</text>
</g>
<!-- n5 -->
<g id="node5" class="node">
<title>n5</title>
<ellipse fill="#6c9ac3" stroke="#6c9ac3" cx="571.2" cy="-64" rx="18.4" ry="18.4"/>
<text text-anchor="middle" x="571.2" y="-60.3" font-family="Times,serif" font-size="14.00">Q</text>
</g>
<!-- n11 -->
<g id="node11" class="node">
<title>n11</title>
<polygon fill="#e28f41" stroke="#e28f41" points="671.4,-82 635.4,-82 635.4,-46 671.4,-46 671.4,-82"/>
<text text-anchor="middle" x="653.4" y="-60.3" font-family="Times,serif" font-size="14.00">qr</text>
</g>
<!-- n5&#45;&gt;n11 -->
<g id="edge8" class="edge">
<title>n5&#45;&gt;n11</title>
<path fill="none" stroke="black" d="M589.6,-64C599.97,-64 613.36,-64 625.11,-64"/>
<polygon fill="black" stroke="black" points="625.3,-67.5 635.3,-64 625.3,-60.5 625.3,-67.5"/>
<text text-anchor="middle" x="612.4" y="-67.8" font-family="Times,serif" font-size="14.00">1</text>
</g>
<!-- n6&#45;&gt;n2 -->
<g id="edge3" class="edge">
<title>n6&#45;&gt;n2</title>
<path fill="none" stroke="black" d="M124.16,-118.82C129.82,-120.91 136.06,-122.87 142,-124 229.31,-140.67 254.87,-141.62 342,-124 345.27,-123.34 348.63,-122.38 351.91,-121.28"/>
<polygon fill="black" stroke="black" points="353.26,-124.51 361.34,-117.67 350.75,-117.98 353.26,-124.51"/>
<text text-anchor="middle" x="229" y="-139.8" font-family="Times,serif" font-size="14.00">1</text>
</g>
<!-- n6&#45;&gt;n3 -->
<g id="edge5" class="edge">
<title>n6&#45;&gt;n3</title>
<path fill="none" stroke="black" d="M124.16,-92.9C129.72,-88.67 135.9,-84.38 142,-81 147.94,-77.7 154.65,-74.78 161.05,-72.34"/>
<polygon fill="black" stroke="black" points="162.43,-75.56 170.67,-68.89 160.07,-68.97 162.43,-75.56"/>
<text text-anchor="middle" x="147" y="-84.8" font-family="Times,serif" font-size="14.00">1</text>
</g>
<!-- n7&#45;&gt;n2 -->
<g id="edge9" class="edge">
<title>n7&#45;&gt;n2</title>
<path fill="none" stroke="black" d="M288.1,-65.87C302.97,-68.01 324.77,-72.39 342,-81 347.21,-83.6 352.32,-87.11 356.96,-90.79"/>
<polygon fill="black" stroke="black" points="354.84,-93.59 364.71,-97.43 359.4,-88.27 354.84,-93.59"/>
<text text-anchor="middle" x="324" y="-84.8" font-family="Times,serif" font-size="14.00">1</text>
</g>
<!-- n8&#45;&gt;n4 -->
<g id="edge4" class="edge">
<title>n8&#45;&gt;n4</title>
<path fill="none" stroke="black" d="M535.06,-109.65C568.25,-108.79 639.86,-105.86 699.4,-96 702.15,-95.55 704.99,-94.98 707.82,-94.35"/>
<polygon fill="black" stroke="black" points="708.91,-97.69 717.79,-91.91 707.24,-90.89 708.91,-97.69"/>
<text text-anchor="middle" x="612.4" y="-110.8" font-family="Times,serif" font-size="14.00">1</text>
</g>
<!-- n9&#45;&gt;n5 -->
<g id="edge12" class="edge">
<title>n9&#45;&gt;n5</title>
<path fill="none" stroke="black" d="M342.13,-19.22C370.57,-21.45 429.25,-26.9 478,-37 500.63,-41.69 525.78,-49.21 544.08,-55.13"/>
<polygon fill="black" stroke="black" points="543.15,-58.51 553.75,-58.31 545.34,-51.86 543.15,-58.51"/>
<text text-anchor="middle" x="419" y="-31.8" font-family="Times,serif" font-size="14.00">1</text>
</g>
<!-- n10&#45;&gt;n5 -->
<g id="edge2" class="edge">
<title>n10&#45;&gt;n5</title>
<path fill="none" stroke="black" d="M478.06,-64C495.35,-64 522.37,-64 542.69,-64"/>
<polygon fill="black" stroke="black" points="542.9,-67.5 552.9,-64 542.9,-60.5 542.9,-67.5"/>
<text text-anchor="middle" x="515.5" y="-67.8" font-family="Times,serif" font-size="14.00">1</text>
</g>
<!-- n11&#45;&gt;n4 -->
<g id="edge7" class="edge">
<title>n11&#45;&gt;n4</title>
<path fill="none" stroke="black" d="M671.76,-68.99C682.35,-72.04 696.1,-75.99 708.02,-79.42"/>
<polygon fill="black" stroke="black" points="707.31,-82.86 717.89,-82.25 709.25,-76.13 707.31,-82.86"/>
<text text-anchor="middle" x="694.4" y="-80.8" font-family="Times,serif" font-size="14.00">1</text>
</g>
</g>
</svg>
