<?xml version="1.0" encoding="UTF-8" standalone="no"?>
<!DOCTYPE svg PUBLIC "-//W3C//DTD SVG 1.1//EN"
 "http://www.w3.org/Graphics/SVG/1.1/DTD/svg11.dtd">
<!-- Generated by graphviz version 2.43.0 (0)
 -->
<!-- Title: G Pages: 1 -->
<svg width="394pt" height="625pt"
 viewBox="0.00 0.00 394.40 625.00" xmlns="http://www.w3.org/2000/svg" xmlns:xlink="http://www.w3.org/1999/xlink">
<g id="graph0" class="graph" transform="scale(1 1) rotate(0) translate(4 621)">
<title>G</title>
<polygon fill="white" stroke="transparent" points="-4,4 -4,-621 390.4,-621 390.4,4 -4,4"/>
<!-- n1 -->
<g id="node1" class="node">
<title>n1</title>
<ellipse fill="#6c9ac3" stroke="#6c9ac3" cx="24.7" cy="-198" rx="24.9" ry="24.9"/>
<text text-anchor="middle" x="24.7" y="-194.3" font-family="Times,serif" font-size="14.00">UV</text>
</g>
<!-- n3 -->
<g id="node3" class="node">
<title>n3</title>
<polygon fill="#e28f41" stroke="#e28f41" points="156.9,-358.5 115.9,-358.5 115.9,-317.5 156.9,-317.5 156.9,-358.5"/>
<text text-anchor="middle" x="136.4" y="-334.3" font-family="Times,serif" font-size="14.00">vax</text>
</g>
<!-- n1&#45;&gt;n3 -->
<g id="edge3" class="edge">
<title>n1&#45;&gt;n3</title>
<path fill="none" stroke="black" d="M40.72,-217.17C59.33,-240.93 91.22,-281.62 112.79,-309.15"/>
<polygon fill="black" stroke="black" points="110.2,-311.52 119.13,-317.24 115.71,-307.21 110.2,-311.52"/>
<text text-anchor="middle" x="72.4" y="-266.8" font-family="Times,serif" font-size="14.00">1</text>
</g>
<!-- n5 -->
<g id="node5" class="node">
<title>n5</title>
<polygon fill="#e28f41" stroke="#e28f41" points="386.4,-281.5 305.4,-281.5 305.4,-200.5 386.4,-200.5 386.4,-281.5"/>
<text text-anchor="middle" x="345.9" y="-237.3" font-family="Times,serif" font-size="14.00">infect_uv</text>
</g>
<!-- n1&#45;&gt;n5 -->
<g id="edge8" class="edge">
<title>n1&#45;&gt;n5</title>
<path fill="none" stroke="black" d="M47.95,-206.48C54.17,-208.57 60.98,-210.61 67.4,-212 145.82,-229.05 238.97,-236.18 294.94,-239.08"/>
<polygon fill="black" stroke="black" points="294.78,-242.58 304.94,-239.58 295.13,-235.59 294.78,-242.58"/>
<text text-anchor="middle" x="200.4" y="-235.8" font-family="Times,serif" font-size="14.00">1</text>
</g>
<!-- n6 -->
<g id="node6" class="node">
<title>n6</title>
<polygon fill="#e28f41" stroke="#e28f41" points="386.4,-593.5 305.4,-593.5 305.4,-512.5 386.4,-512.5 386.4,-593.5"/>
<text text-anchor="middle" x="345.9" y="-549.3" font-family="Times,serif" font-size="14.00">infect_vu</text>
</g>
<!-- n1&#45;&gt;n6 -->
<g id="edge11" class="edge">
<title>n1&#45;&gt;n6</title>
<path fill="none" stroke="black" d="M26.6,-222.72C29.74,-302.36 41.5,-548.46 67.4,-572 129.13,-628.11 233.92,-599.84 295.54,-575.52"/>
<polygon fill="black" stroke="black" points="297.09,-578.66 305.04,-571.66 294.46,-572.18 297.09,-578.66"/>
<text text-anchor="middle" x="200.4" y="-605.8" font-family="Times,serif" font-size="14.00">1</text>
</g>
<!-- n7 -->
<g id="node7" class="node">
<title>n7</title>
<polygon fill="#e28f41" stroke="#e28f41" points="177.4,-170 95.4,-170 95.4,-88 177.4,-88 177.4,-170"/>
<text text-anchor="middle" x="136.4" y="-125.3" font-family="Times,serif" font-size="14.00">infect_uu</text>
</g>
<!-- n1&#45;&gt;n7 -->
<g id="edge15" class="edge">
<title>n1&#45;&gt;n7</title>
<path fill="none" stroke="black" d="M45.43,-183.82C52.3,-179 60.12,-173.66 67.4,-169 73.5,-165.09 79.99,-161.09 86.44,-157.19"/>
<polygon fill="black" stroke="black" points="88.39,-160.11 95.18,-151.98 84.8,-154.1 88.39,-160.11"/>
<text text-anchor="middle" x="72.4" y="-172.8" font-family="Times,serif" font-size="14.00">2</text>
</g>
<!-- n8 -->
<g id="node8" class="node">
<title>n8</title>
<polygon fill="#e28f41" stroke="#e28f41" points="171.4,-70 101.4,-70 101.4,0 171.4,0 171.4,-70"/>
<text text-anchor="middle" x="136.4" y="-31.3" font-family="Times,serif" font-size="14.00">disease</text>
</g>
<!-- n1&#45;&gt;n8 -->
<g id="edge17" class="edge">
<title>n1&#45;&gt;n8</title>
<path fill="none" stroke="black" d="M34.11,-174.75C41.46,-155.93 53.18,-129.15 67.4,-108 75.17,-96.43 84.78,-84.93 94.3,-74.58"/>
<polygon fill="black" stroke="black" points="96.87,-76.95 101.18,-67.27 91.78,-72.15 96.87,-76.95"/>
<text text-anchor="middle" x="72.4" y="-111.8" font-family="Times,serif" font-size="14.00">1</text>
</g>
<!-- n2 -->
<g id="node2" class="node">
<title>n2</title>
<ellipse fill="#6c9ac3" stroke="#6c9ac3" cx="241.4" cy="-376" rx="18" ry="18"/>
<text text-anchor="middle" x="241.4" y="-372.3" font-family="Times,serif" font-size="14.00">V</text>
</g>
<!-- n4 -->
<g id="node4" class="node">
<title>n4</title>
<polygon fill="#e28f41" stroke="#e28f41" points="385.9,-485 305.9,-485 305.9,-405 385.9,-405 385.9,-485"/>
<text text-anchor="middle" x="345.9" y="-441.3" font-family="Times,serif" font-size="14.00">infect_vv</text>
</g>
<!-- n2&#45;&gt;n4 -->
<g id="edge12" class="edge">
<title>n2&#45;&gt;n4</title>
<path fill="none" stroke="black" d="M250.58,-391.53C256.71,-401.79 265.99,-414.81 277.4,-423 283.05,-427.06 289.48,-430.4 296.09,-433.13"/>
<polygon fill="black" stroke="black" points="295.22,-436.55 305.82,-436.73 297.65,-429.98 295.22,-436.55"/>
<text text-anchor="middle" x="282.4" y="-432.8" font-family="Times,serif" font-size="14.00">2</text>
</g>
<!-- n2&#45;&gt;n5 -->
<g id="edge1" class="edge">
<title>n2&#45;&gt;n5</title>
<path fill="none" stroke="black" d="M250.55,-360.46C257.2,-348.26 267.14,-331.04 277.4,-317 284.16,-307.74 291.84,-298.29 299.53,-289.33"/>
<polygon fill="black" stroke="black" points="302.33,-291.45 306.27,-281.61 297.06,-286.84 302.33,-291.45"/>
<text text-anchor="middle" x="282.4" y="-320.8" font-family="Times,serif" font-size="14.00">1</text>
</g>
<!-- n2&#45;&gt;n6 -->
<g id="edge6" class="edge">
<title>n2&#45;&gt;n6</title>
<path fill="none" stroke="black" d="M245.56,-393.88C250.08,-416.21 259.85,-454.99 277.4,-484 283.23,-493.65 290.66,-502.99 298.45,-511.53"/>
<polygon fill="black" stroke="black" points="295.93,-513.95 305.35,-518.8 301.01,-509.14 295.93,-513.95"/>
<text text-anchor="middle" x="282.4" y="-499.8" font-family="Times,serif" font-size="14.00">1</text>
</g>
<!-- n9 -->
<g id="node9" class="node">
<title>n9</title>
<polygon fill="#e28f41" stroke="#e28f41" points="380.9,-377 310.9,-377 310.9,-307 380.9,-307 380.9,-377"/>
<text text-anchor="middle" x="345.9" y="-338.3" font-family="Times,serif" font-size="14.00">disease</text>
</g>
<!-- n2&#45;&gt;n9 -->
<g id="edge18" class="edge">
<title>n2&#45;&gt;n9</title>
<path fill="none" stroke="black" d="M258.86,-370.54C270.28,-366.75 286.07,-361.51 301,-356.56"/>
<polygon fill="black" stroke="black" points="302.24,-359.84 310.63,-353.37 300.04,-353.19 302.24,-359.84"/>
<text text-anchor="middle" x="282.4" y="-367.8" font-family="Times,serif" font-size="14.00">1</text>
</g>
<!-- n3&#45;&gt;n2 -->
<g id="edge7" class="edge">
<title>n3&#45;&gt;n2</title>
<path fill="none" stroke="black" d="M157.26,-345.33C173.58,-351.35 196.82,-359.92 214.58,-366.48"/>
<polygon fill="black" stroke="black" points="213.72,-369.89 224.32,-370.07 216.15,-363.32 213.72,-369.89"/>
<text text-anchor="middle" x="200.4" y="-365.8" font-family="Times,serif" font-size="14.00">1</text>
</g>
<!-- n4&#45;&gt;n2 -->
<g id="edge9" class="edge">
<title>n4&#45;&gt;n2</title>
<path fill="none" stroke="black" d="M305.59,-418.54C291.89,-409.32 276.98,-399.28 265.08,-391.27"/>
<polygon fill="black" stroke="black" points="266.9,-388.28 256.65,-385.59 262.99,-394.08 266.9,-388.28"/>
<text text-anchor="middle" x="282.4" y="-407.8" font-family="Times,serif" font-size="14.00">2</text>
</g>
<!-- n5&#45;&gt;n1 -->
<g id="edge10" class="edge">
<title>n5&#45;&gt;n1</title>
<path fill="none" stroke="black" d="M305.15,-231.33C277.36,-224.92 239.31,-216.83 205.4,-212 154.92,-204.82 95.91,-201.11 59.67,-199.36"/>
<polygon fill="black" stroke="black" points="59.79,-195.86 49.64,-198.9 59.47,-202.85 59.79,-195.86"/>
<text text-anchor="middle" x="200.4" y="-215.8" font-family="Times,serif" font-size="14.00">1</text>
</g>
<!-- n5&#45;&gt;n2 -->
<g id="edge14" class="edge">
<title>n5&#45;&gt;n2</title>
<path fill="none" stroke="black" d="M305.2,-262.3C295.12,-269.15 285,-277.47 277.4,-287 262.98,-305.07 253.89,-329.8 248.6,-348.61"/>
<polygon fill="black" stroke="black" points="245.19,-347.81 246.04,-358.37 251.96,-349.59 245.19,-347.81"/>
<text text-anchor="middle" x="282.4" y="-290.8" font-family="Times,serif" font-size="14.00">1</text>
</g>
<!-- n6&#45;&gt;n1 -->
<g id="edge16" class="edge">
<title>n6&#45;&gt;n1</title>
<path fill="none" stroke="black" d="M305.03,-533.14C250.41,-504.01 152.57,-444.76 95.4,-368 64.18,-326.09 44.37,-268.2 34.16,-231.95"/>
<polygon fill="black" stroke="black" points="37.42,-230.6 31.41,-221.88 30.67,-232.45 37.42,-230.6"/>
<text text-anchor="middle" x="200.4" y="-473.8" font-family="Times,serif" font-size="14.00">1</text>
</g>
<!-- n6&#45;&gt;n2 -->
<g id="edge2" class="edge">
<title>n6&#45;&gt;n2</title>
<path fill="none" stroke="black" d="M317.25,-512.21C313.23,-506.13 309.18,-499.92 305.4,-494 292.51,-473.83 288.86,-469.01 277.4,-448 269.14,-432.88 260.68,-415.53 254.14,-401.65"/>
<polygon fill="black" stroke="black" points="257.15,-399.82 249.75,-392.23 250.81,-402.78 257.15,-399.82"/>
<text text-anchor="middle" x="282.4" y="-468.8" font-family="Times,serif" font-size="14.00">1</text>
</g>
<!-- n7&#45;&gt;n1 -->
<g id="edge4" class="edge">
<title>n7&#45;&gt;n1</title>
<path fill="none" stroke="black" d="M95.14,-123.84C85.54,-124.28 75.69,-126.23 67.4,-131 54.11,-138.64 44.47,-152.39 37.83,-165.46"/>
<polygon fill="black" stroke="black" points="34.55,-164.21 33.52,-174.76 40.9,-167.16 34.55,-164.21"/>
<text text-anchor="middle" x="72.4" y="-134.8" font-family="Times,serif" font-size="14.00">2</text>
</g>
<!-- n8&#45;&gt;n1 -->
<g id="edge13" class="edge">
<title>n8&#45;&gt;n1</title>
<path fill="none" stroke="black" d="M101.26,-35.51C89.23,-37.35 76.45,-41.45 67.4,-50 36.57,-79.1 27.94,-129.05 25.84,-162.79"/>
<polygon fill="black" stroke="black" points="22.32,-162.97 25.36,-173.12 29.32,-163.29 22.32,-162.97"/>
<text text-anchor="middle" x="72.4" y="-53.8" font-family="Times,serif" font-size="14.00">1</text>
</g>
<!-- n9&#45;&gt;n2 -->
<g id="edge5" class="edge">
<title>n9&#45;&gt;n2</title>
<path fill="none" stroke="black" d="M310.87,-334.73C299.82,-333.86 287.74,-334.55 277.4,-339 270.14,-342.13 263.68,-347.58 258.35,-353.35"/>
<polygon fill="black" stroke="black" points="255.5,-351.31 251.81,-361.24 260.89,-355.77 255.5,-351.31"/>
<text text-anchor="middle" x="282.4" y="-342.8" font-family="Times,serif" font-size="14.00">1</text>
</g>
</g>
</svg>
