<?xml version="1.0" encoding="UTF-8" standalone="no"?>
<!DOCTYPE svg PUBLIC "-//W3C//DTD SVG 1.1//EN"
 "http://www.w3.org/Graphics/SVG/1.1/DTD/svg11.dtd">
<!-- Generated by graphviz version 2.43.0 (0)
 -->
<!-- Title: G Pages: 1 -->
<svg width="1313pt" height="626pt"
 viewBox="0.00 0.00 1313.09 625.50" xmlns="http://www.w3.org/2000/svg" xmlns:xlink="http://www.w3.org/1999/xlink">
<g id="graph0" class="graph" transform="scale(1 1) rotate(0) translate(4 621.5)">
<title>G</title>
<polygon fill="white" stroke="transparent" points="-4,4 -4,-621.5 1309.09,-621.5 1309.09,4 -4,4"/>
<!-- n1 -->
<g id="node1" class="node">
<title>n1</title>
<ellipse fill="#6c9ac3" stroke="#6c9ac3" cx="18" cy="-111.5" rx="18" ry="18"/>
<text text-anchor="middle" x="18" y="-107.8" font-family="Times,serif" font-size="14.00">S</text>
</g>
<!-- n9 -->
<g id="node9" class="node">
<title>n9</title>
<polygon fill="#e28f41" stroke="#e28f41" points="129.5,-308.5 93.5,-308.5 93.5,-272.5 129.5,-272.5 129.5,-308.5"/>
<text text-anchor="middle" x="111.5" y="-286.8" font-family="Times,serif" font-size="14.00">t1</text>
</g>
<!-- n1&#45;&gt;n9 -->
<g id="edge8" class="edge">
<title>n1&#45;&gt;n9</title>
<path fill="none" stroke="black" d="M24.34,-128.38C30.49,-146.98 41.38,-177.59 54,-202.5 64.9,-224.01 79.7,-246.9 91.42,-263.93"/>
<polygon fill="black" stroke="black" points="88.64,-266.07 97.23,-272.27 94.39,-262.07 88.64,-266.07"/>
<text text-anchor="middle" x="59" y="-223.3" font-family="Times,serif" font-size="14.00">1</text>
</g>
<!-- n10 -->
<g id="node10" class="node">
<title>n10</title>
<polygon fill="#e28f41" stroke="#e28f41" points="991.9,-211.5 955.9,-211.5 955.9,-175.5 991.9,-175.5 991.9,-211.5"/>
<text text-anchor="middle" x="973.9" y="-189.8" font-family="Times,serif" font-size="14.00">t2</text>
</g>
<!-- n1&#45;&gt;n10 -->
<g id="edge22" class="edge">
<title>n1&#45;&gt;n10</title>
<path fill="none" stroke="black" d="M35.32,-106C53.46,-100.39 83.73,-92.5 110.5,-92.5 110.5,-92.5 110.5,-92.5 881.4,-92.5 921.15,-92.5 948.13,-136 961.99,-165.91"/>
<polygon fill="black" stroke="black" points="958.95,-167.7 966.18,-175.44 965.36,-164.88 958.95,-167.7"/>
<text text-anchor="middle" x="459.4" y="-96.3" font-family="Times,serif" font-size="14.00">1</text>
</g>
<!-- n11 -->
<g id="node11" class="node">
<title>n11</title>
<polygon fill="#e28f41" stroke="#e28f41" points="529.9,-292.5 493.9,-292.5 493.9,-256.5 529.9,-256.5 529.9,-292.5"/>
<text text-anchor="middle" x="511.9" y="-270.8" font-family="Times,serif" font-size="14.00">t3</text>
</g>
<!-- n1&#45;&gt;n11 -->
<g id="edge43" class="edge">
<title>n1&#45;&gt;n11</title>
<path fill="none" stroke="black" d="M30.06,-125.11C36.4,-132.11 44.9,-140.25 54,-145.5 130.26,-189.47 397.32,-249.87 483.71,-268.67"/>
<polygon fill="black" stroke="black" points="483.04,-272.11 493.55,-270.8 484.52,-265.27 483.04,-272.11"/>
<text text-anchor="middle" x="246.4" y="-216.3" font-family="Times,serif" font-size="14.00">1</text>
</g>
<!-- n12 -->
<g id="node12" class="node">
<title>n12</title>
<polygon fill="#e28f41" stroke="#e28f41" points="778.9,-299.5 742.9,-299.5 742.9,-263.5 778.9,-263.5 778.9,-299.5"/>
<text text-anchor="middle" x="760.9" y="-277.8" font-family="Times,serif" font-size="14.00">t4</text>
</g>
<!-- n1&#45;&gt;n12 -->
<g id="edge1" class="edge">
<title>n1&#45;&gt;n12</title>
<path fill="none" stroke="black" d="M35.3,-117.28C53.41,-123.19 83.67,-131.5 110.5,-131.5 110.5,-131.5 110.5,-131.5 512.9,-131.5 610.94,-131.5 640.83,-157.57 713.4,-223.5 725.19,-234.21 721.51,-242 731.4,-254.5 732.77,-256.24 734.26,-257.97 735.8,-259.67"/>
<polygon fill="black" stroke="black" points="733.31,-262.13 742.8,-266.83 738.31,-257.23 733.31,-262.13"/>
<text text-anchor="middle" x="364.4" y="-135.3" font-family="Times,serif" font-size="14.00">1</text>
</g>
<!-- n25 -->
<g id="node25" class="node">
<title>n25</title>
<polygon fill="#e28f41" stroke="#e28f41" points="141,-59 82,-59 82,0 141,0 141,-59"/>
<text text-anchor="middle" x="111.5" y="-25.8" font-family="Times,serif" font-size="14.00">strata</text>
</g>
<!-- n1&#45;&gt;n25 -->
<g id="edge33" class="edge">
<title>n1&#45;&gt;n25</title>
<path fill="none" stroke="black" d="M28.04,-95.99C34.42,-85.93 43.65,-72.97 54,-63.5 59.82,-58.17 66.6,-53.25 73.4,-48.9"/>
<polygon fill="black" stroke="black" points="75.22,-51.89 81.96,-43.71 71.59,-45.9 75.22,-51.89"/>
<text text-anchor="middle" x="59" y="-67.3" font-family="Times,serif" font-size="14.00">1</text>
</g>
<!-- n2 -->
<g id="node2" class="node">
<title>n2</title>
<ellipse fill="#6c9ac3" stroke="#6c9ac3" cx="205.2" cy="-483.5" rx="18.4" ry="18.4"/>
<text text-anchor="middle" x="205.2" y="-479.8" font-family="Times,serif" font-size="14.00">D</text>
</g>
<!-- n2&#45;&gt;n9 -->
<g id="edge36" class="edge">
<title>n2&#45;&gt;n9</title>
<path fill="none" stroke="black" d="M200.2,-465.75C194.81,-443.5 184.12,-404.5 169,-373.5 159.2,-353.41 145.04,-332.61 133.35,-316.87"/>
<polygon fill="black" stroke="black" points="135.97,-314.54 127.15,-308.67 130.39,-318.76 135.97,-314.54"/>
<text text-anchor="middle" x="164" y="-377.3" font-family="Times,serif" font-size="14.00">1</text>
</g>
<!-- n16 -->
<g id="node16" class="node">
<title>n16</title>
<polygon fill="#e28f41" stroke="#e28f41" points="316.9,-418.5 280.9,-418.5 280.9,-382.5 316.9,-382.5 316.9,-418.5"/>
<text text-anchor="middle" x="298.9" y="-396.8" font-family="Times,serif" font-size="14.00">t8</text>
</g>
<!-- n2&#45;&gt;n16 -->
<g id="edge51" class="edge">
<title>n2&#45;&gt;n16</title>
<path fill="none" stroke="black" d="M219.34,-471.61C233.34,-458.94 255.83,-438.58 273.16,-422.89"/>
<polygon fill="black" stroke="black" points="275.65,-425.35 280.72,-416.05 270.96,-420.17 275.65,-425.35"/>
<text text-anchor="middle" x="246.4" y="-452.3" font-family="Times,serif" font-size="14.00">1</text>
</g>
<!-- n17 -->
<g id="node17" class="node">
<title>n17</title>
<polygon fill="#e28f41" stroke="#e28f41" points="382.4,-617.5 346.4,-617.5 346.4,-581.5 382.4,-581.5 382.4,-617.5"/>
<text text-anchor="middle" x="364.4" y="-595.8" font-family="Times,serif" font-size="14.00">t9</text>
</g>
<!-- n2&#45;&gt;n17 -->
<g id="edge10" class="edge">
<title>n2&#45;&gt;n17</title>
<path fill="none" stroke="black" d="M211.58,-500.71C219.84,-523.75 238.05,-563.68 269.4,-580.5 290.07,-591.59 316.46,-596.23 336.02,-598.16"/>
<polygon fill="black" stroke="black" points="335.85,-601.65 346.1,-598.97 336.41,-594.68 335.85,-601.65"/>
<text text-anchor="middle" x="246.4" y="-569.3" font-family="Times,serif" font-size="14.00">1</text>
</g>
<!-- n26 -->
<g id="node26" class="node">
<title>n26</title>
<polygon fill="#e28f41" stroke="#e28f41" points="328.4,-571 269.4,-571 269.4,-512 328.4,-512 328.4,-571"/>
<text text-anchor="middle" x="298.9" y="-537.8" font-family="Times,serif" font-size="14.00">strata</text>
</g>
<!-- n2&#45;&gt;n26 -->
<g id="edge9" class="edge">
<title>n2&#45;&gt;n26</title>
<path fill="none" stroke="black" d="M220.93,-492.82C231.66,-499.61 246.7,-509.12 260.64,-517.94"/>
<polygon fill="black" stroke="black" points="258.81,-520.92 269.13,-523.31 262.55,-515 258.81,-520.92"/>
<text text-anchor="middle" x="246.4" y="-514.3" font-family="Times,serif" font-size="14.00">1</text>
</g>
<!-- n3 -->
<g id="node3" class="node">
<title>n3</title>
<ellipse fill="#6c9ac3" stroke="#6c9ac3" cx="636.4" cy="-301.5" rx="18" ry="18"/>
<text text-anchor="middle" x="636.4" y="-297.8" font-family="Times,serif" font-size="14.00">I</text>
</g>
<!-- n3&#45;&gt;n12 -->
<g id="edge5" class="edge">
<title>n3&#45;&gt;n12</title>
<path fill="none" stroke="black" d="M647.19,-286.76C653.37,-278.84 662.12,-269.84 672.4,-265.5 691.78,-257.31 715.32,-262.37 733.1,-268.9"/>
<polygon fill="black" stroke="black" points="732.24,-272.33 742.82,-272.82 734.86,-265.83 732.24,-272.33"/>
<text text-anchor="middle" x="692.9" y="-269.3" font-family="Times,serif" font-size="14.00">1</text>
</g>
<!-- n13 -->
<g id="node13" class="node">
<title>n13</title>
<polygon fill="#e28f41" stroke="#e28f41" points="778.9,-487.5 742.9,-487.5 742.9,-451.5 778.9,-451.5 778.9,-487.5"/>
<text text-anchor="middle" x="760.9" y="-465.8" font-family="Times,serif" font-size="14.00">t5</text>
</g>
<!-- n3&#45;&gt;n13 -->
<g id="edge16" class="edge">
<title>n3&#45;&gt;n13</title>
<path fill="none" stroke="black" d="M637.43,-319.91C638.45,-347.6 644.28,-400.17 672.4,-432.5 680.7,-442.05 710.51,-453.45 733.04,-461.05"/>
<polygon fill="black" stroke="black" points="732.19,-464.45 742.78,-464.25 734.37,-457.8 732.19,-464.45"/>
<text text-anchor="middle" x="692.9" y="-456.3" font-family="Times,serif" font-size="14.00">1</text>
</g>
<!-- n14 -->
<g id="node14" class="node">
<title>n14</title>
<polygon fill="#e28f41" stroke="#e28f41" points="778.9,-245.5 742.9,-245.5 742.9,-209.5 778.9,-209.5 778.9,-245.5"/>
<text text-anchor="middle" x="760.9" y="-223.8" font-family="Times,serif" font-size="14.00">t6</text>
</g>
<!-- n3&#45;&gt;n14 -->
<g id="edge17" class="edge">
<title>n3&#45;&gt;n14</title>
<path fill="none" stroke="black" d="M642.75,-284.42C648.02,-270.57 657.47,-251.72 672.4,-241.5 690.01,-229.43 714.24,-226.34 732.73,-226.03"/>
<polygon fill="black" stroke="black" points="732.84,-229.53 742.87,-226.12 732.9,-222.53 732.84,-229.53"/>
<text text-anchor="middle" x="692.9" y="-245.3" font-family="Times,serif" font-size="14.00">1</text>
</g>
<!-- n15 -->
<g id="node15" class="node">
<title>n15</title>
<polygon fill="#e28f41" stroke="#e28f41" points="844.4,-468.5 808.4,-468.5 808.4,-432.5 844.4,-432.5 844.4,-468.5"/>
<text text-anchor="middle" x="826.4" y="-446.8" font-family="Times,serif" font-size="14.00">t7</text>
</g>
<!-- n3&#45;&gt;n15 -->
<g id="edge6" class="edge">
<title>n3&#45;&gt;n15</title>
<path fill="none" stroke="black" d="M641.03,-319.11C645.56,-337.11 654.94,-364.86 672.4,-382.5 690.93,-401.23 759.95,-427.53 798.65,-441.29"/>
<polygon fill="black" stroke="black" points="797.65,-444.65 808.24,-444.67 799.97,-438.05 797.65,-444.65"/>
<text text-anchor="middle" x="692.9" y="-409.3" font-family="Times,serif" font-size="14.00">1</text>
</g>
<!-- n27 -->
<g id="node27" class="node">
<title>n27</title>
<polygon fill="#e28f41" stroke="#e28f41" points="790.4,-383 731.4,-383 731.4,-324 790.4,-324 790.4,-383"/>
<text text-anchor="middle" x="760.9" y="-349.8" font-family="Times,serif" font-size="14.00">strata</text>
</g>
<!-- n3&#45;&gt;n27 -->
<g id="edge25" class="edge">
<title>n3&#45;&gt;n27</title>
<path fill="none" stroke="black" d="M642.99,-318.3C648.31,-331.32 657.71,-348.44 672.4,-356.5 687.04,-364.54 705.24,-365.12 721.25,-363.17"/>
<polygon fill="black" stroke="black" points="722.05,-366.59 731.39,-361.57 720.96,-359.67 722.05,-366.59"/>
<text text-anchor="middle" x="692.9" y="-367.3" font-family="Times,serif" font-size="14.00">1</text>
</g>
<!-- n4 -->
<g id="node4" class="node">
<title>n4</title>
<ellipse fill="#6c9ac3" stroke="#6c9ac3" cx="880.4" cy="-303.5" rx="18" ry="18"/>
<text text-anchor="middle" x="880.4" y="-299.8" font-family="Times,serif" font-size="14.00">A</text>
</g>
<!-- n4&#45;&gt;n10 -->
<g id="edge42" class="edge">
<title>n4&#45;&gt;n10</title>
<path fill="none" stroke="black" d="M883.23,-285.6C886.34,-264.44 894.64,-229.57 916.4,-209.5 924.43,-202.09 935.65,-198.08 945.98,-195.92"/>
<polygon fill="black" stroke="black" points="946.54,-199.37 955.85,-194.32 945.42,-192.46 946.54,-199.37"/>
<text text-anchor="middle" x="921.4" y="-213.3" font-family="Times,serif" font-size="14.00">1</text>
</g>
<!-- n18 -->
<g id="node18" class="node">
<title>n18</title>
<polygon fill="#e28f41" stroke="#e28f41" points="994.4,-469 953.4,-469 953.4,-428 994.4,-428 994.4,-469"/>
<text text-anchor="middle" x="973.9" y="-444.8" font-family="Times,serif" font-size="14.00">t10</text>
</g>
<!-- n4&#45;&gt;n18 -->
<g id="edge41" class="edge">
<title>n4&#45;&gt;n18</title>
<path fill="none" stroke="black" d="M886.51,-320.62C892.25,-338.4 902.61,-366.63 916.4,-388.5 926.3,-404.2 931.67,-405.99 944.4,-419.5 944.92,-420.06 945.46,-420.62 945.99,-421.19"/>
<polygon fill="black" stroke="black" points="943.71,-423.86 953.16,-428.64 948.75,-419.01 943.71,-423.86"/>
<text text-anchor="middle" x="921.4" y="-405.3" font-family="Times,serif" font-size="14.00">1</text>
</g>
<!-- n19 -->
<g id="node19" class="node">
<title>n19</title>
<polygon fill="#e28f41" stroke="#e28f41" points="1062.4,-398 1021.4,-398 1021.4,-357 1062.4,-357 1062.4,-398"/>
<text text-anchor="middle" x="1041.9" y="-373.8" font-family="Times,serif" font-size="14.00">t11</text>
</g>
<!-- n4&#45;&gt;n19 -->
<g id="edge27" class="edge">
<title>n4&#45;&gt;n19</title>
<path fill="none" stroke="black" d="M898.55,-306.5C923.09,-311.32 969.06,-322.37 1003.4,-342.5 1007.11,-344.68 1010.76,-347.28 1014.24,-350.08"/>
<polygon fill="black" stroke="black" points="1012.15,-352.89 1021.99,-356.82 1016.74,-347.61 1012.15,-352.89"/>
<text text-anchor="middle" x="921.4" y="-316.3" font-family="Times,serif" font-size="14.00">1</text>
</g>
<!-- n20 -->
<g id="node20" class="node">
<title>n20</title>
<polygon fill="#e28f41" stroke="#e28f41" points="994.4,-294 953.4,-294 953.4,-253 994.4,-253 994.4,-294"/>
<text text-anchor="middle" x="973.9" y="-269.8" font-family="Times,serif" font-size="14.00">t12</text>
</g>
<!-- n4&#45;&gt;n20 -->
<g id="edge35" class="edge">
<title>n4&#45;&gt;n20</title>
<path fill="none" stroke="black" d="M896.34,-294.71C902.4,-291.43 909.57,-287.93 916.4,-285.5 924.95,-282.45 934.52,-280.06 943.32,-278.24"/>
<polygon fill="black" stroke="black" points="944.02,-281.67 953.19,-276.36 942.71,-274.79 944.02,-281.67"/>
<text text-anchor="middle" x="921.4" y="-289.3" font-family="Times,serif" font-size="14.00">1</text>
</g>
<!-- n28 -->
<g id="node28" class="node">
<title>n28</title>
<polygon fill="#e28f41" stroke="#e28f41" points="1003.4,-410 944.4,-410 944.4,-351 1003.4,-351 1003.4,-410"/>
<text text-anchor="middle" x="973.9" y="-376.8" font-family="Times,serif" font-size="14.00">strata</text>
</g>
<!-- n4&#45;&gt;n28 -->
<g id="edge18" class="edge">
<title>n4&#45;&gt;n28</title>
<path fill="none" stroke="black" d="M893.28,-316.27C899.87,-323.11 908.33,-331.54 916.4,-338.5 922.58,-343.84 929.38,-349.25 936.05,-354.33"/>
<polygon fill="black" stroke="black" points="934.29,-357.38 944.39,-360.56 938.48,-351.77 934.29,-357.38"/>
<text text-anchor="middle" x="921.4" y="-349.3" font-family="Times,serif" font-size="14.00">1</text>
</g>
<!-- n5 -->
<g id="node5" class="node">
<title>n5</title>
<ellipse fill="#6c9ac3" stroke="#6c9ac3" cx="418.4" cy="-347.5" rx="18" ry="18"/>
<text text-anchor="middle" x="418.4" y="-343.8" font-family="Times,serif" font-size="14.00">R</text>
</g>
<!-- n5&#45;&gt;n11 -->
<g id="edge4" class="edge">
<title>n5&#45;&gt;n11</title>
<path fill="none" stroke="black" d="M428.28,-332.33C434.59,-322.56 443.81,-310.11 454.4,-301.5 463.25,-294.29 474.35,-288.46 484.36,-284.08"/>
<polygon fill="black" stroke="black" points="485.95,-287.21 493.88,-280.19 483.3,-280.73 485.95,-287.21"/>
<text text-anchor="middle" x="459.4" y="-305.3" font-family="Times,serif" font-size="14.00">1</text>
</g>
<!-- n21 -->
<g id="node21" class="node">
<title>n21</title>
<polygon fill="#e28f41" stroke="#e28f41" points="713.4,-152 672.4,-152 672.4,-111 713.4,-111 713.4,-152"/>
<text text-anchor="middle" x="692.9" y="-127.8" font-family="Times,serif" font-size="14.00">t13</text>
</g>
<!-- n5&#45;&gt;n21 -->
<g id="edge49" class="edge">
<title>n5&#45;&gt;n21</title>
<path fill="none" stroke="black" d="M424.1,-330.22C431.91,-304.9 449.99,-257.94 482.4,-232.5 539.59,-187.6 619.97,-155.9 662.63,-141.04"/>
<polygon fill="black" stroke="black" points="663.8,-144.34 672.13,-137.79 661.53,-137.71 663.8,-144.34"/>
<text text-anchor="middle" x="511.9" y="-236.3" font-family="Times,serif" font-size="14.00">1</text>
</g>
<!-- n22 -->
<g id="node22" class="node">
<title>n22</title>
<polygon fill="#e28f41" stroke="#e28f41" points="600.4,-580 559.4,-580 559.4,-539 600.4,-539 600.4,-580"/>
<text text-anchor="middle" x="579.9" y="-555.8" font-family="Times,serif" font-size="14.00">t14</text>
</g>
<!-- n5&#45;&gt;n22 -->
<g id="edge29" class="edge">
<title>n5&#45;&gt;n22</title>
<path fill="none" stroke="black" d="M428.54,-362.41C435.4,-373.4 445.16,-388.6 454.4,-401.5 487.7,-448.03 529.38,-499.73 555.06,-530.91"/>
<polygon fill="black" stroke="black" points="552.48,-533.28 561.55,-538.76 557.88,-528.82 552.48,-533.28"/>
<text text-anchor="middle" x="459.4" y="-417.3" font-family="Times,serif" font-size="14.00">1</text>
</g>
<!-- n29 -->
<g id="node29" class="node">
<title>n29</title>
<polygon fill="#e28f41" stroke="#e28f41" points="541.4,-418 482.4,-418 482.4,-359 541.4,-359 541.4,-418"/>
<text text-anchor="middle" x="511.9" y="-384.8" font-family="Times,serif" font-size="14.00">strata</text>
</g>
<!-- n5&#45;&gt;n29 -->
<g id="edge11" class="edge">
<title>n5&#45;&gt;n29</title>
<path fill="none" stroke="black" d="M435.83,-353.19C444.43,-356.3 455.09,-360.36 464.4,-364.5 467.21,-365.75 470.1,-367.09 472.98,-368.48"/>
<polygon fill="black" stroke="black" points="471.61,-371.71 482.13,-373 474.71,-365.43 471.61,-371.71"/>
<text text-anchor="middle" x="459.4" y="-368.3" font-family="Times,serif" font-size="14.00">1</text>
</g>
<!-- n6 -->
<g id="node6" class="node">
<title>n6</title>
<ellipse fill="#6c9ac3" stroke="#6c9ac3" cx="1286.25" cy="-497.5" rx="18.7" ry="18.7"/>
<text text-anchor="middle" x="1286.25" y="-493.8" font-family="Times,serif" font-size="14.00">H</text>
</g>
<!-- n7 -->
<g id="node7" class="node">
<title>n7</title>
<ellipse fill="#6c9ac3" stroke="#6c9ac3" cx="1098.4" cy="-273.5" rx="18" ry="18"/>
<text text-anchor="middle" x="1098.4" y="-269.8" font-family="Times,serif" font-size="14.00">T</text>
</g>
<!-- n23 -->
<g id="node23" class="node">
<title>n23</title>
<polygon fill="#e28f41" stroke="#e28f41" points="1212.4,-243 1171.4,-243 1171.4,-202 1212.4,-202 1212.4,-243"/>
<text text-anchor="middle" x="1191.9" y="-218.8" font-family="Times,serif" font-size="14.00">t15</text>
</g>
<!-- n7&#45;&gt;n23 -->
<g id="edge24" class="edge">
<title>n7&#45;&gt;n23</title>
<path fill="none" stroke="black" d="M1114.51,-265.08C1127.49,-257.84 1146.57,-247.21 1162.41,-238.38"/>
<polygon fill="black" stroke="black" points="1164.26,-241.35 1171.29,-233.43 1160.85,-235.24 1164.26,-241.35"/>
<text text-anchor="middle" x="1139.4" y="-256.3" font-family="Times,serif" font-size="14.00">1</text>
</g>
<!-- n24 -->
<g id="node24" class="node">
<title>n24</title>
<polygon fill="#e28f41" stroke="#e28f41" points="1212.4,-302 1171.4,-302 1171.4,-261 1212.4,-261 1212.4,-302"/>
<text text-anchor="middle" x="1191.9" y="-277.8" font-family="Times,serif" font-size="14.00">t16</text>
</g>
<!-- n7&#45;&gt;n24 -->
<g id="edge7" class="edge">
<title>n7&#45;&gt;n24</title>
<path fill="none" stroke="black" d="M1116.52,-273.37C1124.93,-273.44 1135.21,-273.71 1144.4,-274.5 1149.75,-274.96 1155.42,-275.65 1160.9,-276.41"/>
<polygon fill="black" stroke="black" points="1160.64,-279.91 1171.05,-277.94 1161.68,-272.99 1160.64,-279.91"/>
<text text-anchor="middle" x="1139.4" y="-278.3" font-family="Times,serif" font-size="14.00">1</text>
</g>
<!-- n30 -->
<g id="node30" class="node">
<title>n30</title>
<polygon fill="#e28f41" stroke="#e28f41" points="1221.4,-379 1162.4,-379 1162.4,-320 1221.4,-320 1221.4,-379"/>
<text text-anchor="middle" x="1191.9" y="-345.8" font-family="Times,serif" font-size="14.00">strata</text>
</g>
<!-- n7&#45;&gt;n30 -->
<g id="edge14" class="edge">
<title>n7&#45;&gt;n30</title>
<path fill="none" stroke="black" d="M1112.9,-284.71C1123.8,-293.77 1139.68,-306.96 1154.27,-319.08"/>
<polygon fill="black" stroke="black" points="1152.28,-321.97 1162.2,-325.67 1156.75,-316.59 1152.28,-321.97"/>
<text text-anchor="middle" x="1139.4" y="-312.3" font-family="Times,serif" font-size="14.00">1</text>
</g>
<!-- n8 -->
<g id="node8" class="node">
<title>n8</title>
<ellipse fill="#6c9ac3" stroke="#6c9ac3" cx="1286.25" cy="-222.5" rx="18" ry="18"/>
<text text-anchor="middle" x="1286.25" y="-218.8" font-family="Times,serif" font-size="14.00">E</text>
</g>
<!-- n9&#45;&gt;n2 -->
<g id="edge13" class="edge">
<title>n9&#45;&gt;n2</title>
<path fill="none" stroke="black" d="M121.13,-308.66C137.57,-343.26 173.42,-418.71 192.19,-458.22"/>
<polygon fill="black" stroke="black" points="189.12,-459.92 196.57,-467.45 195.44,-456.91 189.12,-459.92"/>
<text text-anchor="middle" x="164" y="-407.3" font-family="Times,serif" font-size="14.00">1</text>
</g>
<!-- n9&#45;&gt;n3 -->
<g id="edge3" class="edge">
<title>n9&#45;&gt;n3</title>
<path fill="none" stroke="black" d="M122.24,-272.38C141.24,-239.75 186.6,-174.5 245.4,-174.5 245.4,-174.5 245.4,-174.5 419.4,-174.5 474.08,-174.5 493.39,-164.32 541.4,-190.5 577.93,-210.42 606.37,-250.68 622.01,-276.84"/>
<polygon fill="black" stroke="black" points="619.14,-278.88 627.18,-285.78 625.2,-275.37 619.14,-278.88"/>
<text text-anchor="middle" x="364.4" y="-178.3" font-family="Times,serif" font-size="14.00">1</text>
</g>
<!-- n10&#45;&gt;n3 -->
<g id="edge45" class="edge">
<title>n10&#45;&gt;n3</title>
<path fill="none" stroke="black" d="M955.69,-192.01C915.78,-188.98 814.02,-183.72 731.4,-200.5 703.82,-206.1 692.79,-204.1 672.4,-223.5 658.06,-237.14 649.16,-257.73 643.93,-274.33"/>
<polygon fill="black" stroke="black" points="640.53,-273.47 641.13,-284.05 647.26,-275.41 640.53,-273.47"/>
<text text-anchor="middle" x="826.4" y="-194.3" font-family="Times,serif" font-size="14.00">1</text>
</g>
<!-- n10&#45;&gt;n4 -->
<g id="edge48" class="edge">
<title>n10&#45;&gt;n4</title>
<path fill="none" stroke="black" d="M957.62,-211.87C941.5,-231.25 916.11,-261.77 899.12,-282.2"/>
<polygon fill="black" stroke="black" points="896.32,-280.09 892.62,-290.01 901.7,-284.56 896.32,-280.09"/>
<text text-anchor="middle" x="921.4" y="-261.3" font-family="Times,serif" font-size="14.00">1</text>
</g>
<!-- n11&#45;&gt;n3 -->
<g id="edge40" class="edge">
<title>n11&#45;&gt;n3</title>
<path fill="none" stroke="black" d="M529.93,-278.25C550.32,-282.75 584.7,-290.33 608.64,-295.6"/>
<polygon fill="black" stroke="black" points="607.99,-299.04 618.51,-297.78 609.5,-292.21 607.99,-299.04"/>
<text text-anchor="middle" x="579.9" y="-297.3" font-family="Times,serif" font-size="14.00">1</text>
</g>
<!-- n11&#45;&gt;n5 -->
<g id="edge19" class="edge">
<title>n11&#45;&gt;n5</title>
<path fill="none" stroke="black" d="M493.74,-270.38C481.79,-268.5 465.97,-268.11 454.4,-275.5 439.02,-285.31 430.21,-303.99 425.28,-319.86"/>
<polygon fill="black" stroke="black" points="421.83,-319.2 422.56,-329.77 428.58,-321.05 421.83,-319.2"/>
<text text-anchor="middle" x="459.4" y="-279.3" font-family="Times,serif" font-size="14.00">1</text>
</g>
<!-- n12&#45;&gt;n3 -->
<g id="edge37" class="edge">
<title>n12&#45;&gt;n3</title>
<path fill="none" stroke="black" d="M742.61,-284.32C722.32,-287.64 688.41,-293.17 664.58,-297.06"/>
<polygon fill="black" stroke="black" points="663.74,-293.65 654.43,-298.72 664.86,-300.56 663.74,-293.65"/>
<text text-anchor="middle" x="692.9" y="-299.3" font-family="Times,serif" font-size="14.00">2</text>
</g>
<!-- n13&#45;&gt;n2 -->
<g id="edge44" class="edge">
<title>n13&#45;&gt;n2</title>
<path fill="none" stroke="black" d="M742.53,-472.98C718.87,-477.41 675.11,-484.5 637.4,-484.5 417.4,-484.5 417.4,-484.5 417.4,-484.5 351.4,-484.5 273.8,-484.01 233.54,-483.71"/>
<polygon fill="black" stroke="black" points="233.47,-480.21 223.45,-483.64 233.42,-487.21 233.47,-480.21"/>
<text text-anchor="middle" x="459.4" y="-488.3" font-family="Times,serif" font-size="14.00">1</text>
</g>
<!-- n14&#45;&gt;n4 -->
<g id="edge15" class="edge">
<title>n14&#45;&gt;n4</title>
<path fill="none" stroke="black" d="M778.98,-238.55C799.35,-251.72 833.47,-273.79 856.2,-288.5"/>
<polygon fill="black" stroke="black" points="854.59,-291.62 864.88,-294.11 858.39,-285.74 854.59,-291.62"/>
<text text-anchor="middle" x="826.4" y="-282.3" font-family="Times,serif" font-size="14.00">1</text>
</g>
<!-- n15&#45;&gt;n6 -->
<g id="edge39" class="edge">
<title>n15&#45;&gt;n6</title>
<path fill="none" stroke="black" d="M844.55,-456.94C880.44,-469.81 966.32,-497.5 1040.9,-497.5 1040.9,-497.5 1040.9,-497.5 1192.9,-497.5 1214.47,-497.5 1238.89,-497.5 1257.19,-497.5"/>
<polygon fill="black" stroke="black" points="1257.2,-501 1267.2,-497.5 1257.2,-494 1257.2,-501"/>
<text text-anchor="middle" x="1041.9" y="-501.3" font-family="Times,serif" font-size="14.00">1</text>
</g>
<!-- n16&#45;&gt;n5 -->
<g id="edge26" class="edge">
<title>n16&#45;&gt;n5</title>
<path fill="none" stroke="black" d="M316.98,-392.79C336.83,-383.84 369.75,-368.99 392.46,-358.75"/>
<polygon fill="black" stroke="black" points="394.12,-361.84 401.79,-354.54 391.24,-355.46 394.12,-361.84"/>
<text text-anchor="middle" x="364.4" y="-382.3" font-family="Times,serif" font-size="14.00">1</text>
</g>
<!-- n17&#45;&gt;n6 -->
<g id="edge31" class="edge">
<title>n17&#45;&gt;n6</title>
<path fill="none" stroke="black" d="M382.54,-599.5C401.2,-599.5 431.92,-599.5 458.4,-599.5 458.4,-599.5 458.4,-599.5 1192.9,-599.5 1233.42,-599.5 1260.79,-554.71 1274.64,-524.49"/>
<polygon fill="black" stroke="black" points="1277.88,-525.83 1278.67,-515.27 1271.46,-523.03 1277.88,-525.83"/>
<text text-anchor="middle" x="826.4" y="-603.3" font-family="Times,serif" font-size="14.00">1</text>
</g>
<!-- n18&#45;&gt;n5 -->
<g id="edge23" class="edge">
<title>n18&#45;&gt;n5</title>
<path fill="none" stroke="black" d="M959.78,-469.11C944.06,-491.01 915.52,-522.5 881.4,-522.5 691.9,-522.5 691.9,-522.5 691.9,-522.5 590.32,-522.5 633.37,-393.61 541.4,-350.5 511.18,-336.34 471.97,-338.47 446.26,-342.2"/>
<polygon fill="black" stroke="black" points="445.44,-338.79 436.14,-343.86 446.57,-345.7 445.44,-338.79"/>
<text text-anchor="middle" x="692.9" y="-526.3" font-family="Times,serif" font-size="14.00">1</text>
</g>
<!-- n19&#45;&gt;n6 -->
<g id="edge20" class="edge">
<title>n19&#45;&gt;n6</title>
<path fill="none" stroke="black" d="M1062.73,-387.32C1106.51,-409 1211.39,-460.93 1259.87,-484.94"/>
<polygon fill="black" stroke="black" points="1258.54,-488.18 1269.05,-489.48 1261.64,-481.91 1258.54,-488.18"/>
<text text-anchor="middle" x="1139.4" y="-431.3" font-family="Times,serif" font-size="14.00">1</text>
</g>
<!-- n20&#45;&gt;n7 -->
<g id="edge21" class="edge">
<title>n20&#45;&gt;n7</title>
<path fill="none" stroke="black" d="M994.58,-273.5C1015.01,-273.5 1047.14,-273.5 1070.04,-273.5"/>
<polygon fill="black" stroke="black" points="1070.14,-277 1080.14,-273.5 1070.14,-270 1070.14,-277"/>
<text text-anchor="middle" x="1041.9" y="-277.3" font-family="Times,serif" font-size="14.00">1</text>
</g>
<!-- n21&#45;&gt;n7 -->
<g id="edge28" class="edge">
<title>n21&#45;&gt;n7</title>
<path fill="none" stroke="black" d="M713.48,-133.19C739.16,-135.27 785.62,-138.5 825.4,-138.5 825.4,-138.5 825.4,-138.5 974.9,-138.5 1033.1,-138.5 1070.9,-208.18 1087.57,-247.42"/>
<polygon fill="black" stroke="black" points="1084.33,-248.74 1091.36,-256.68 1090.81,-246.09 1084.33,-248.74"/>
<text text-anchor="middle" x="880.4" y="-142.3" font-family="Times,serif" font-size="14.00">1</text>
</g>
<!-- n22&#45;&gt;n6 -->
<g id="edge32" class="edge">
<title>n22&#45;&gt;n6</title>
<path fill="none" stroke="black" d="M600.55,-559.78C622.73,-560.08 659.91,-560.5 691.9,-560.5 691.9,-560.5 691.9,-560.5 1192.9,-560.5 1222.52,-560.5 1249.64,-538.11 1266.72,-520.02"/>
<polygon fill="black" stroke="black" points="1269.75,-521.89 1273.83,-512.11 1264.55,-517.21 1269.75,-521.89"/>
<text text-anchor="middle" x="921.4" y="-564.3" font-family="Times,serif" font-size="14.00">1</text>
</g>
<!-- n23&#45;&gt;n8 -->
<g id="edge50" class="edge">
<title>n23&#45;&gt;n8</title>
<path fill="none" stroke="black" d="M1212.48,-222.5C1225.77,-222.5 1243.53,-222.5 1258.17,-222.5"/>
<polygon fill="black" stroke="black" points="1258.17,-226 1268.17,-222.5 1258.17,-219 1258.17,-226"/>
<text text-anchor="middle" x="1244.4" y="-226.3" font-family="Times,serif" font-size="14.00">1</text>
</g>
<!-- n24&#45;&gt;n6 -->
<g id="edge30" class="edge">
<title>n24&#45;&gt;n6</title>
<path fill="none" stroke="black" d="M1212.63,-299.85C1215.85,-303.49 1218.94,-307.45 1221.4,-311.5 1252.47,-362.73 1270.95,-431.13 1279.49,-469.09"/>
<polygon fill="black" stroke="black" points="1276.09,-469.92 1281.64,-478.95 1282.93,-468.43 1276.09,-469.92"/>
<text text-anchor="middle" x="1244.4" y="-368.3" font-family="Times,serif" font-size="14.00">1</text>
</g>
<!-- n25&#45;&gt;n1 -->
<g id="edge2" class="edge">
<title>n25&#45;&gt;n1</title>
<path fill="none" stroke="black" d="M81.93,-20.7C72.36,-19.43 62.08,-20.07 54,-25.5 34.95,-38.31 26.27,-63.48 22.31,-83.3"/>
<polygon fill="black" stroke="black" points="18.82,-82.91 20.6,-93.36 25.72,-84.09 18.82,-82.91"/>
<text text-anchor="middle" x="59" y="-29.3" font-family="Times,serif" font-size="14.00">1</text>
</g>
<!-- n26&#45;&gt;n2 -->
<g id="edge12" class="edge">
<title>n26&#45;&gt;n2</title>
<path fill="none" stroke="black" d="M269.39,-539.43C259.93,-537.74 249.7,-534.75 241.4,-529.5 232.91,-524.14 225.68,-515.96 220.03,-507.97"/>
<polygon fill="black" stroke="black" points="222.92,-506 214.53,-499.53 217.06,-509.82 222.92,-506"/>
<text text-anchor="middle" x="246.4" y="-537.3" font-family="Times,serif" font-size="14.00">1</text>
</g>
<!-- n27&#45;&gt;n3 -->
<g id="edge46" class="edge">
<title>n27&#45;&gt;n3</title>
<path fill="none" stroke="black" d="M731.09,-341.27C710.27,-332.43 682.42,-320.61 662.5,-312.16"/>
<polygon fill="black" stroke="black" points="663.73,-308.88 653.16,-308.19 661,-315.32 663.73,-308.88"/>
<text text-anchor="middle" x="692.9" y="-337.3" font-family="Times,serif" font-size="14.00">1</text>
</g>
<!-- n28&#45;&gt;n4 -->
<g id="edge38" class="edge">
<title>n28&#45;&gt;n4</title>
<path fill="none" stroke="black" d="M944.19,-376.84C934.6,-374.51 924.35,-370.71 916.4,-364.5 905.01,-355.61 896.67,-341.9 890.99,-329.73"/>
<polygon fill="black" stroke="black" points="894.16,-328.23 887,-320.42 887.72,-330.99 894.16,-328.23"/>
<text text-anchor="middle" x="921.4" y="-373.3" font-family="Times,serif" font-size="14.00">1</text>
</g>
<!-- n29&#45;&gt;n5 -->
<g id="edge34" class="edge">
<title>n29&#45;&gt;n5</title>
<path fill="none" stroke="black" d="M482.34,-387.2C473.08,-385.94 462.99,-383.64 454.4,-379.5 448.6,-376.71 443.08,-372.63 438.21,-368.33"/>
<polygon fill="black" stroke="black" points="440.31,-365.48 430.69,-361.04 435.43,-370.51 440.31,-365.48"/>
<text text-anchor="middle" x="459.4" y="-386.3" font-family="Times,serif" font-size="14.00">1</text>
</g>
<!-- n30&#45;&gt;n7 -->
<g id="edge47" class="edge">
<title>n30&#45;&gt;n7</title>
<path fill="none" stroke="black" d="M1162.33,-342.25C1152.76,-338.86 1142.48,-334.08 1134.4,-327.5 1124.85,-319.72 1117.03,-308.63 1111.23,-298.52"/>
<polygon fill="black" stroke="black" points="1114.28,-296.79 1106.47,-289.63 1108.1,-300.1 1114.28,-296.79"/>
<text text-anchor="middle" x="1139.4" y="-337.3" font-family="Times,serif" font-size="14.00">1</text>
</g>
</g>
</svg>
