<?xml version="1.0" encoding="UTF-8" standalone="no"?>
<!DOCTYPE svg PUBLIC "-//W3C//DTD SVG 1.1//EN"
 "http://www.w3.org/Graphics/SVG/1.1/DTD/svg11.dtd">
<!-- Generated by graphviz version 2.43.0 (0)
 -->
<!-- Title: G Pages: 1 -->
<svg width="1018pt" height="1268pt"
 viewBox="0.00 0.00 1017.97 1268.00" xmlns="http://www.w3.org/2000/svg" xmlns:xlink="http://www.w3.org/1999/xlink">
<g id="graph0" class="graph" transform="scale(1 1) rotate(0) translate(4 1264)">
<title>G</title>
<polygon fill="white" stroke="transparent" points="-4,4 -4,-1264 1013.97,-1264 1013.97,4 -4,4"/>
<!-- n1 -->
<g id="node1" class="node">
<title>n1</title>
<ellipse fill="#6c9ac3" stroke="#6c9ac3" cx="44.2" cy="-682.5" rx="44.39" ry="44.39"/>
<text text-anchor="middle" x="44.2" y="-678.8" font-family="Times,serif" font-size="14.00">(:S, :M)</text>
</g>
<!-- n13 -->
<g id="node13" class="node">
<title>n13</title>
<polygon fill="#e28f41" stroke="#e28f41" points="311.39,-905 134.39,-905 134.39,-728 311.39,-728 311.39,-905"/>
<text text-anchor="middle" x="222.89" y="-812.8" font-family="Times,serif" font-size="14.00">(:infection, :infect_um)</text>
</g>
<!-- n1&#45;&gt;n13 -->
<g id="edge9" class="edge">
<title>n1&#45;&gt;n13</title>
<path fill="none" stroke="black" d="M80.11,-708.97C93.59,-719.2 109.73,-731.44 126.22,-743.94"/>
<polygon fill="black" stroke="black" points="124.25,-746.84 134.33,-750.09 128.48,-741.26 124.25,-746.84"/>
<text text-anchor="middle" x="111.39" y="-738.3" font-family="Times,serif" font-size="14.00">1</text>
</g>
<!-- n15 -->
<g id="node15" class="node">
<title>n15</title>
<polygon fill="#e28f41" stroke="#e28f41" points="288.39,-710 157.39,-710 157.39,-579 288.39,-579 288.39,-710"/>
<text text-anchor="middle" x="222.89" y="-640.8" font-family="Times,serif" font-size="14.00">(:strata, :strata)</text>
</g>
<!-- n1&#45;&gt;n15 -->
<g id="edge6" class="edge">
<title>n1&#45;&gt;n15</title>
<path fill="none" stroke="black" d="M87.52,-673.4C105.42,-669.55 126.81,-664.95 147.21,-660.56"/>
<polygon fill="black" stroke="black" points="148.09,-663.95 157.13,-658.43 146.62,-657.11 148.09,-663.95"/>
<text text-anchor="middle" x="111.39" y="-673.3" font-family="Times,serif" font-size="14.00">1</text>
</g>
<!-- n2 -->
<g id="node2" class="node">
<title>n2</title>
<ellipse fill="#6c9ac3" stroke="#6c9ac3" cx="409.39" cy="-262.5" rx="42.49" ry="42.49"/>
<text text-anchor="middle" x="409.39" y="-258.8" font-family="Times,serif" font-size="14.00">(:I, :M)</text>
</g>
<!-- n9 -->
<g id="node9" class="node">
<title>n9</title>
<polygon fill="#e28f41" stroke="#e28f41" points="674.38,-469 513.38,-469 513.38,-308 674.38,-308 674.38,-469"/>
<text text-anchor="middle" x="593.88" y="-384.8" font-family="Times,serif" font-size="14.00">(:recovery, :unmask)</text>
</g>
<!-- n2&#45;&gt;n9 -->
<g id="edge1" class="edge">
<title>n2&#45;&gt;n9</title>
<path fill="none" stroke="black" d="M444.71,-286.2C461.85,-298.03 483.45,-312.94 504.81,-327.69"/>
<polygon fill="black" stroke="black" points="503.08,-330.75 513.29,-333.55 507.05,-324.99 503.08,-330.75"/>
<text text-anchor="middle" x="484.38" y="-318.3" font-family="Times,serif" font-size="14.00">1</text>
</g>
<!-- n10 -->
<g id="node10" class="node">
<title>n10</title>
<polygon fill="#e28f41" stroke="#e28f41" points="664.38,-141 523.38,-141 523.38,0 664.38,0 664.38,-141"/>
<text text-anchor="middle" x="593.88" y="-66.8" font-family="Times,serif" font-size="14.00">(:death, :unmask)</text>
</g>
<!-- n2&#45;&gt;n10 -->
<g id="edge16" class="edge">
<title>n2&#45;&gt;n10</title>
<path fill="none" stroke="black" d="M436.61,-229.97C455.61,-206.91 482.26,-175.56 507.38,-149.5 510.07,-146.72 512.82,-143.91 515.63,-141.1"/>
<polygon fill="black" stroke="black" points="518.52,-143.17 523.17,-133.65 513.6,-138.19 518.52,-143.17"/>
<text text-anchor="middle" x="484.38" y="-184.3" font-family="Times,serif" font-size="14.00">1</text>
</g>
<!-- n16 -->
<g id="node16" class="node">
<title>n16</title>
<polygon fill="#e28f41" stroke="#e28f41" points="659.38,-290 528.38,-290 528.38,-159 659.38,-159 659.38,-290"/>
<text text-anchor="middle" x="593.88" y="-220.8" font-family="Times,serif" font-size="14.00">(:strata, :strata)</text>
</g>
<!-- n2&#45;&gt;n16 -->
<g id="edge26" class="edge">
<title>n2&#45;&gt;n16</title>
<path fill="none" stroke="black" d="M446.16,-241.32C456.54,-236.17 468.12,-231.34 479.38,-228.5 491.68,-225.41 504.96,-223.61 517.95,-222.66"/>
<polygon fill="black" stroke="black" points="518.51,-226.14 528.29,-222.08 518.11,-219.15 518.51,-226.14"/>
<text text-anchor="middle" x="484.38" y="-232.3" font-family="Times,serif" font-size="14.00">1</text>
</g>
<!-- n3 -->
<g id="node3" class="node">
<title>n3</title>
<ellipse fill="#6c9ac3" stroke="#6c9ac3" cx="779.68" cy="-1188.5" rx="45.49" ry="45.49"/>
<text text-anchor="middle" x="779.68" y="-1184.8" font-family="Times,serif" font-size="14.00">(:R, :M)</text>
</g>
<!-- n17 -->
<g id="node17" class="node">
<title>n17</title>
<polygon fill="#e28f41" stroke="#e28f41" points="1009.97,-1254 878.97,-1254 878.97,-1123 1009.97,-1123 1009.97,-1254"/>
<text text-anchor="middle" x="944.47" y="-1184.8" font-family="Times,serif" font-size="14.00">(:strata, :strata)</text>
</g>
<!-- n3&#45;&gt;n17 -->
<g id="edge7" class="edge">
<title>n3&#45;&gt;n17</title>
<path fill="none" stroke="black" d="M825.59,-1188.5C838.98,-1188.5 854.02,-1188.5 868.76,-1188.5"/>
<polygon fill="black" stroke="black" points="868.9,-1192 878.9,-1188.5 868.9,-1185 868.9,-1192"/>
<text text-anchor="middle" x="855.97" y="-1192.3" font-family="Times,serif" font-size="14.00">1</text>
</g>
<!-- n4 -->
<g id="node4" class="node">
<title>n4</title>
<ellipse fill="#6c9ac3" stroke="#6c9ac3" cx="779.68" cy="-1037.5" rx="45.49" ry="45.49"/>
<text text-anchor="middle" x="779.68" y="-1033.8" font-family="Times,serif" font-size="14.00">(:D, :M)</text>
</g>
<!-- n5 -->
<g id="node5" class="node">
<title>n5</title>
<ellipse fill="#6c9ac3" stroke="#6c9ac3" cx="409.39" cy="-590.5" rx="51.99" ry="51.99"/>
<text text-anchor="middle" x="409.39" y="-586.8" font-family="Times,serif" font-size="14.00">(:S, :UM)</text>
</g>
<!-- n14 -->
<g id="node14" class="node">
<title>n14</title>
<polygon fill="#e28f41" stroke="#e28f41" points="680.38,-809 507.38,-809 507.38,-636 680.38,-636 680.38,-809"/>
<text text-anchor="middle" x="593.88" y="-718.8" font-family="Times,serif" font-size="14.00">(:infection, :infect_uu)</text>
</g>
<!-- n5&#45;&gt;n14 -->
<g id="edge27" class="edge">
<title>n5&#45;&gt;n14</title>
<path fill="none" stroke="black" d="M452.26,-620.78C466.24,-630.89 482.43,-642.61 498.74,-654.41"/>
<polygon fill="black" stroke="black" points="497.12,-657.55 507.28,-660.58 501.22,-651.88 497.12,-657.55"/>
<text text-anchor="middle" x="484.38" y="-649.3" font-family="Times,serif" font-size="14.00">1</text>
</g>
<!-- n18 -->
<g id="node18" class="node">
<title>n18</title>
<polygon fill="#e28f41" stroke="#e28f41" points="659.38,-618 528.38,-618 528.38,-487 659.38,-487 659.38,-618"/>
<text text-anchor="middle" x="593.88" y="-548.8" font-family="Times,serif" font-size="14.00">(:strata, :strata)</text>
</g>
<!-- n5&#45;&gt;n18 -->
<g id="edge22" class="edge">
<title>n5&#45;&gt;n18</title>
<path fill="none" stroke="black" d="M460.74,-580.02C478.53,-576.31 498.93,-572.06 518.3,-568.03"/>
<polygon fill="black" stroke="black" points="519.23,-571.41 528.31,-565.95 517.81,-564.56 519.23,-571.41"/>
<text text-anchor="middle" x="484.38" y="-580.3" font-family="Times,serif" font-size="14.00">1</text>
</g>
<!-- n6 -->
<g id="node6" class="node">
<title>n6</title>
<ellipse fill="#6c9ac3" stroke="#6c9ac3" cx="409.39" cy="-854.5" rx="50.09" ry="50.09"/>
<text text-anchor="middle" x="409.39" y="-850.8" font-family="Times,serif" font-size="14.00">(:I, :UM)</text>
</g>
<!-- n11 -->
<g id="node11" class="node">
<title>n11</title>
<polygon fill="#e28f41" stroke="#e28f41" points="665.38,-1260 522.38,-1260 522.38,-1117 665.38,-1117 665.38,-1260"/>
<text text-anchor="middle" x="593.88" y="-1184.8" font-family="Times,serif" font-size="14.00">(:recovery, :mask)</text>
</g>
<!-- n6&#45;&gt;n11 -->
<g id="edge17" class="edge">
<title>n6&#45;&gt;n11</title>
<path fill="none" stroke="black" d="M421.85,-902.98C436.04,-956.5 463.81,-1043.66 507.38,-1108.5 509.94,-1112.3 512.71,-1116.06 515.63,-1119.74"/>
<polygon fill="black" stroke="black" points="513.17,-1122.25 522.26,-1127.69 518.54,-1117.77 513.17,-1122.25"/>
<text text-anchor="middle" x="484.38" y="-1080.3" font-family="Times,serif" font-size="14.00">1</text>
</g>
<!-- n12 -->
<g id="node12" class="node">
<title>n12</title>
<polygon fill="#e28f41" stroke="#e28f41" points="655.38,-1099 532.38,-1099 532.38,-976 655.38,-976 655.38,-1099"/>
<text text-anchor="middle" x="593.88" y="-1033.8" font-family="Times,serif" font-size="14.00">(:death, :mask)</text>
</g>
<!-- n6&#45;&gt;n12 -->
<g id="edge8" class="edge">
<title>n6&#45;&gt;n12</title>
<path fill="none" stroke="black" d="M440.92,-893.39C459.27,-915.9 483.62,-944.28 507.38,-967.5 512.67,-972.66 518.29,-977.85 524.04,-982.95"/>
<polygon fill="black" stroke="black" points="522.1,-985.9 531.94,-989.83 526.7,-980.62 522.1,-985.9"/>
<text text-anchor="middle" x="484.38" y="-950.3" font-family="Times,serif" font-size="14.00">1</text>
</g>
<!-- n6&#45;&gt;n13 -->
<g id="edge12" class="edge">
<title>n6&#45;&gt;n13</title>
<path fill="none" stroke="black" d="M365.66,-830C357.2,-826.15 348.2,-822.71 339.39,-820.5 333.66,-819.06 327.71,-817.9 321.68,-816.97"/>
<polygon fill="black" stroke="black" points="321.85,-813.46 311.47,-815.62 320.93,-820.4 321.85,-813.46"/>
<text text-anchor="middle" x="334.39" y="-824.3" font-family="Times,serif" font-size="14.00">1</text>
</g>
<!-- n6&#45;&gt;n14 -->
<g id="edge13" class="edge">
<title>n6&#45;&gt;n14</title>
<path fill="none" stroke="black" d="M450.44,-825.53C464.86,-815.1 481.82,-802.84 498.89,-790.48"/>
<polygon fill="black" stroke="black" points="501.23,-793.11 507.28,-784.42 497.13,-787.44 501.23,-793.11"/>
<text text-anchor="middle" x="484.38" y="-808.3" font-family="Times,serif" font-size="14.00">1</text>
</g>
<!-- n19 -->
<g id="node19" class="node">
<title>n19</title>
<polygon fill="#e28f41" stroke="#e28f41" points="659.38,-958 528.38,-958 528.38,-827 659.38,-827 659.38,-958"/>
<text text-anchor="middle" x="593.88" y="-888.8" font-family="Times,serif" font-size="14.00">(:strata, :strata)</text>
</g>
<!-- n6&#45;&gt;n19 -->
<g id="edge23" class="edge">
<title>n6&#45;&gt;n19</title>
<path fill="none" stroke="black" d="M459.38,-852.11C466.1,-851.86 472.91,-851.64 479.38,-851.5 483.83,-851.4 485.02,-850.67 489.38,-851.5 499.07,-853.35 509,-856.09 518.7,-859.29"/>
<polygon fill="black" stroke="black" points="517.7,-862.65 528.3,-862.63 520,-856.04 517.7,-862.65"/>
<text text-anchor="middle" x="484.38" y="-855.3" font-family="Times,serif" font-size="14.00">1</text>
</g>
<!-- n7 -->
<g id="node7" class="node">
<title>n7</title>
<ellipse fill="#6c9ac3" stroke="#6c9ac3" cx="779.68" cy="-388.5" rx="53.09" ry="53.09"/>
<text text-anchor="middle" x="779.68" y="-384.8" font-family="Times,serif" font-size="14.00">(:R, :UM)</text>
</g>
<!-- n20 -->
<g id="node20" class="node">
<title>n20</title>
<polygon fill="#e28f41" stroke="#e28f41" points="1009.97,-454 878.97,-454 878.97,-323 1009.97,-323 1009.97,-454"/>
<text text-anchor="middle" x="944.47" y="-384.8" font-family="Times,serif" font-size="14.00">(:strata, :strata)</text>
</g>
<!-- n7&#45;&gt;n20 -->
<g id="edge20" class="edge">
<title>n7&#45;&gt;n20</title>
<path fill="none" stroke="black" d="M833.08,-388.5C844.48,-388.5 856.76,-388.5 868.83,-388.5"/>
<polygon fill="black" stroke="black" points="868.9,-392 878.9,-388.5 868.9,-385 868.9,-392"/>
<text text-anchor="middle" x="855.97" y="-392.3" font-family="Times,serif" font-size="14.00">1</text>
</g>
<!-- n8 -->
<g id="node8" class="node">
<title>n8</title>
<ellipse fill="#6c9ac3" stroke="#6c9ac3" cx="779.68" cy="-70.5" rx="53.09" ry="53.09"/>
<text text-anchor="middle" x="779.68" y="-66.8" font-family="Times,serif" font-size="14.00">(:D, :UM)</text>
</g>
<!-- n9&#45;&gt;n7 -->
<g id="edge2" class="edge">
<title>n9&#45;&gt;n7</title>
<path fill="none" stroke="black" d="M674.43,-388.5C688.42,-388.5 702.8,-388.5 716.25,-388.5"/>
<polygon fill="black" stroke="black" points="716.32,-392 726.32,-388.5 716.32,-385 716.32,-392"/>
<text text-anchor="middle" x="703.38" y="-392.3" font-family="Times,serif" font-size="14.00">1</text>
</g>
<!-- n10&#45;&gt;n8 -->
<g id="edge15" class="edge">
<title>n10&#45;&gt;n8</title>
<path fill="none" stroke="black" d="M664.63,-70.5C681.53,-70.5 699.5,-70.5 716.05,-70.5"/>
<polygon fill="black" stroke="black" points="716.15,-74 726.15,-70.5 716.15,-67 716.15,-74"/>
<text text-anchor="middle" x="703.38" y="-74.3" font-family="Times,serif" font-size="14.00">1</text>
</g>
<!-- n11&#45;&gt;n3 -->
<g id="edge11" class="edge">
<title>n11&#45;&gt;n3</title>
<path fill="none" stroke="black" d="M665.42,-1188.5C684.8,-1188.5 705.53,-1188.5 723.88,-1188.5"/>
<polygon fill="black" stroke="black" points="724.1,-1192 734.1,-1188.5 724.1,-1185 724.1,-1192"/>
<text text-anchor="middle" x="703.38" y="-1192.3" font-family="Times,serif" font-size="14.00">1</text>
</g>
<!-- n12&#45;&gt;n4 -->
<g id="edge3" class="edge">
<title>n12&#45;&gt;n4</title>
<path fill="none" stroke="black" d="M655.57,-1037.5C677.59,-1037.5 702.32,-1037.5 723.8,-1037.5"/>
<polygon fill="black" stroke="black" points="724.06,-1041 734.06,-1037.5 724.06,-1034 724.06,-1041"/>
<text text-anchor="middle" x="703.38" y="-1041.3" font-family="Times,serif" font-size="14.00">1</text>
</g>
<!-- n13&#45;&gt;n2 -->
<g id="edge18" class="edge">
<title>n13&#45;&gt;n2</title>
<path fill="none" stroke="black" d="M306.24,-727.88C308.07,-724.78 309.79,-721.65 311.39,-718.5 329.65,-682.49 378.37,-425.62 398.97,-314.03"/>
<polygon fill="black" stroke="black" points="402.45,-314.49 400.82,-304.02 395.56,-313.22 402.45,-314.49"/>
<text text-anchor="middle" x="334.39" y="-657.3" font-family="Times,serif" font-size="14.00">1</text>
</g>
<!-- n13&#45;&gt;n6 -->
<g id="edge10" class="edge">
<title>n13&#45;&gt;n6</title>
<path fill="none" stroke="black" d="M311.55,-834.55C324.62,-837.25 337.82,-839.97 350.09,-842.49"/>
<polygon fill="black" stroke="black" points="349.65,-845.98 360.15,-844.56 351.06,-839.12 349.65,-845.98"/>
<text text-anchor="middle" x="334.39" y="-844.3" font-family="Times,serif" font-size="14.00">1</text>
</g>
<!-- n14&#45;&gt;n6 -->
<g id="edge24" class="edge">
<title>n14&#45;&gt;n6</title>
<path fill="none" stroke="black" d="M507.3,-762.99C497.59,-768.74 488.07,-774.94 479.38,-781.5 468.73,-789.54 458.29,-799.29 448.88,-809.01"/>
<polygon fill="black" stroke="black" points="446.21,-806.74 441.89,-816.42 451.3,-811.54 446.21,-806.74"/>
<text text-anchor="middle" x="484.38" y="-785.3" font-family="Times,serif" font-size="14.00">2</text>
</g>
<!-- n15&#45;&gt;n1 -->
<g id="edge14" class="edge">
<title>n15&#45;&gt;n1</title>
<path fill="none" stroke="black" d="M157.25,-642.19C140.45,-642.97 122.55,-645.05 106.39,-649.5 101.36,-650.89 96.28,-652.75 91.31,-654.88"/>
<polygon fill="black" stroke="black" points="89.51,-651.86 81.94,-659.27 92.48,-658.2 89.51,-651.86"/>
<text text-anchor="middle" x="111.39" y="-653.3" font-family="Times,serif" font-size="14.00">1</text>
</g>
<!-- n16&#45;&gt;n2 -->
<g id="edge25" class="edge">
<title>n16&#45;&gt;n2</title>
<path fill="none" stroke="black" d="M528.12,-237.98C506.01,-242.59 481.61,-247.67 460.8,-252"/>
<polygon fill="black" stroke="black" points="459.97,-248.6 450.89,-254.07 461.39,-255.45 459.97,-248.6"/>
<text text-anchor="middle" x="484.38" y="-252.3" font-family="Times,serif" font-size="14.00">1</text>
</g>
<!-- n17&#45;&gt;n3 -->
<g id="edge4" class="edge">
<title>n17&#45;&gt;n3</title>
<path fill="none" stroke="black" d="M878.96,-1170.61C869.6,-1169.57 860.06,-1169.35 850.97,-1170.5 845.21,-1171.23 839.24,-1172.28 833.33,-1173.51"/>
<polygon fill="black" stroke="black" points="832.46,-1170.11 823.47,-1175.73 834,-1176.94 832.46,-1170.11"/>
<text text-anchor="middle" x="855.97" y="-1174.3" font-family="Times,serif" font-size="14.00">1</text>
</g>
<!-- n18&#45;&gt;n5 -->
<g id="edge5" class="edge">
<title>n18&#45;&gt;n5</title>
<path fill="none" stroke="black" d="M528.26,-547.71C512.1,-547.97 494.94,-549.52 479.38,-553.5 474.03,-554.87 468.64,-556.74 463.36,-558.91"/>
<polygon fill="black" stroke="black" points="461.7,-555.82 454,-563.1 464.56,-562.2 461.7,-555.82"/>
<text text-anchor="middle" x="484.38" y="-557.3" font-family="Times,serif" font-size="14.00">1</text>
</g>
<!-- n19&#45;&gt;n6 -->
<g id="edge19" class="edge">
<title>n19&#45;&gt;n6</title>
<path fill="none" stroke="black" d="M528.28,-880.4C512.27,-877.29 495.19,-873.86 479.38,-870.5 475.74,-869.73 472,-868.91 468.22,-868.07"/>
<polygon fill="black" stroke="black" points="468.74,-864.6 458.22,-865.83 467.21,-871.43 468.74,-864.6"/>
<text text-anchor="middle" x="484.38" y="-876.3" font-family="Times,serif" font-size="14.00">1</text>
</g>
<!-- n20&#45;&gt;n7 -->
<g id="edge21" class="edge">
<title>n20&#45;&gt;n7</title>
<path fill="none" stroke="black" d="M878.73,-369.59C869.45,-368.52 859.99,-368.3 850.97,-369.5 847.72,-369.93 844.39,-370.47 841.06,-371.1"/>
<polygon fill="black" stroke="black" points="840.11,-367.72 831.04,-373.18 841.54,-374.57 840.11,-367.72"/>
<text text-anchor="middle" x="855.97" y="-373.3" font-family="Times,serif" font-size="14.00">1</text>
</g>
</g>
</svg>
