<?xml version="1.0" encoding="UTF-8" standalone="no"?>
<!DOCTYPE svg PUBLIC "-//W3C//DTD SVG 1.1//EN"
 "http://www.w3.org/Graphics/SVG/1.1/DTD/svg11.dtd">
<!-- Generated by graphviz version 2.44.0 (0)
 -->
<!-- Title: G Pages: 1 -->
<svg width="2185pt" height="390pt"
 viewBox="0.00 0.00 2185.00 390.00" xmlns="http://www.w3.org/2000/svg" xmlns:xlink="http://www.w3.org/1999/xlink">
<g id="graph0" class="graph" transform="scale(1 1) rotate(0) translate(4 386)">
<title>G</title>
<polygon fill="white" stroke="transparent" points="-4,4 -4,-386 2181,-386 2181,4 -4,4"/>
<!-- n1p1 -->
<!-- n1p2 -->
<!-- n1p1&#45;&gt;n1p2 -->
<!-- n3 -->
<!-- crossexposure -->
<g id="n3" class="node">
<title>n3</title>
<polygon fill="none" stroke="black" points="64.5,-303 64.5,-351 177.5,-351 177.5,-303 64.5,-303"/>
<text text-anchor="start" x="69.5" y="-323.3" font-family="Serif" font-size="14.00">crossexposure</text>
</g>
<!-- n1p1&#45;&gt;n3 -->
<!-- Pop -->
<g id="e1" class="edge">
<title>n1p1:e&#45;&gt;n3:w</title>
<path fill="none" stroke="black" d="M1,-370C30.38,-370 32.62,-342.53 58.82,-339.31"/>
<polygon fill="black" stroke="black" points="59.11,-341.04 64,-339 58.91,-337.55 59.11,-341.04"/>
<text text-anchor="middle" x="32.5" y="-368.8" font-family="Serif" font-size="14.00">Pop</text>
</g>
<!-- n1p3 -->
<!-- n1p2&#45;&gt;n1p3 -->
<!-- n1p2&#45;&gt;n3 -->
<!-- Pop -->
<g id="e2" class="edge">
<title>n1p2:e&#45;&gt;n3:w</title>
<path fill="none" stroke="black" d="M1,-310C27.33,-310 34.98,-314.39 58.97,-314.94"/>
<polygon fill="black" stroke="black" points="58.98,-316.69 64,-315 59.02,-313.19 58.98,-316.69"/>
<text text-anchor="middle" x="32.5" y="-317.8" font-family="Serif" font-size="14.00">Pop</text>
</g>
<!-- n1p4 -->
<!-- n1p3&#45;&gt;n1p4 -->
<!-- n4 -->
<!-- crossexposure -->
<g id="n4" class="node">
<title>n4</title>
<polygon fill="none" stroke="black" points="240.5,-228 240.5,-276 353.5,-276 353.5,-228 240.5,-228"/>
<text text-anchor="start" x="245.5" y="-248.3" font-family="Serif" font-size="14.00">crossexposure</text>
</g>
<!-- n1p3&#45;&gt;n4 -->
<!-- Pop -->
<g id="e3" class="edge">
<title>n1p3:e&#45;&gt;n4:w</title>
<path fill="none" stroke="black" d="M1,-250C105.55,-250 132.79,-240.33 234.77,-240.01"/>
<polygon fill="black" stroke="black" points="235,-241.76 240,-240 235,-238.26 235,-241.76"/>
<text text-anchor="middle" x="120.5" y="-252.8" font-family="Serif" font-size="14.00">Pop</text>
</g>
<!-- n1p5 -->
<!-- n1p4&#45;&gt;n1p5 -->
<!-- n5 -->
<!-- crossexposure -->
<g id="n5" class="node">
<title>n5</title>
<polygon fill="none" stroke="black" points="416.5,-191 416.5,-239 529.5,-239 529.5,-191 416.5,-191"/>
<text text-anchor="start" x="421.5" y="-211.3" font-family="Serif" font-size="14.00">crossexposure</text>
</g>
<!-- n1p4&#45;&gt;n5 -->
<!-- Pop -->
<g id="e4" class="edge">
<title>n1p4:e&#45;&gt;n5:w</title>
<path fill="none" stroke="black" d="M1,-190C183.82,-190 230.6,-202.76 410.9,-203"/>
<polygon fill="black" stroke="black" points="411,-204.75 416,-203 411,-201.25 411,-204.75"/>
<text text-anchor="middle" x="208.5" y="-201.8" font-family="Serif" font-size="14.00">Pop</text>
</g>
<!-- n6 -->
<!-- crossexposure -->
<g id="n6" class="node">
<title>n6</title>
<polygon fill="none" stroke="black" points="592.5,-118 592.5,-166 705.5,-166 705.5,-118 592.5,-118"/>
<text text-anchor="start" x="597.5" y="-138.3" font-family="Serif" font-size="14.00">crossexposure</text>
</g>
<!-- n1p5&#45;&gt;n6 -->
<!-- Pop -->
<g id="e5" class="edge">
<title>n1p5:e&#45;&gt;n6:w</title>
<path fill="none" stroke="black" d="M1,-130C53.67,-130 66.83,-130 119.5,-130 119.5,-130 119.5,-130 473.5,-130 524.42,-130 538.42,-130 586.88,-130"/>
<polygon fill="black" stroke="black" points="587,-131.75 592,-130 587,-128.25 587,-131.75"/>
<text text-anchor="middle" x="296.5" y="-133.8" font-family="Serif" font-size="14.00">Pop</text>
</g>
<!-- n2p1 -->
<!-- n2p2 -->
<!-- n2p1&#45;&gt;n2p2 -->
<!-- n2p3 -->
<!-- n2p2&#45;&gt;n2p3 -->
<!-- n2p4 -->
<!-- n2p3&#45;&gt;n2p4 -->
<!-- n2p5 -->
<!-- n2p4&#45;&gt;n2p5 -->
<!-- n3&#45;&gt;n4 -->
<!-- Pop -->
<g id="e6" class="edge">
<title>n3:e&#45;&gt;n4:w</title>
<path fill="none" stroke="black" d="M177,-339C218.66,-339 198.41,-270.31 234.75,-264.4"/>
<polygon fill="black" stroke="black" points="235.15,-266.13 240,-264 234.88,-262.64 235.15,-266.13"/>
<text text-anchor="middle" x="208.5" y="-334.8" font-family="Serif" font-size="14.00">Pop</text>
</g>
<!-- n7 -->
<!-- crossexposure -->
<g id="n7" class="node">
<title>n7</title>
<polygon fill="none" stroke="black" points="416.5,-270 416.5,-318 529.5,-318 529.5,-270 416.5,-270"/>
<text text-anchor="start" x="421.5" y="-290.3" font-family="Serif" font-size="14.00">crossexposure</text>
</g>
<!-- n3&#45;&gt;n7 -->
<!-- Pop -->
<g id="e7" class="edge">
<title>n3:e&#45;&gt;n7:w</title>
<path fill="none" stroke="black" d="M177,-315C281.53,-315 308.8,-306.3 410.77,-306.01"/>
<polygon fill="black" stroke="black" points="411,-307.76 416,-306 411,-304.26 411,-307.76"/>
<text text-anchor="middle" x="296.5" y="-316.8" font-family="Serif" font-size="14.00">Pop</text>
</g>
<!-- n4&#45;&gt;n5 -->
<!-- Pop -->
<g id="e8" class="edge">
<title>n4:e&#45;&gt;n5:w</title>
<path fill="none" stroke="black" d="M353,-264C373.59,-264 381.04,-264.67 398,-253 407.77,-246.28 403.86,-232.39 410.84,-228.21"/>
<polygon fill="black" stroke="black" points="411.53,-229.85 416,-227 410.73,-226.44 411.53,-229.85"/>
<text text-anchor="middle" x="384.5" y="-267.8" font-family="Serif" font-size="14.00">Pop</text>
</g>
<!-- n4&#45;&gt;n7 -->
<!-- Pop -->
<g id="e9" class="edge">
<title>n4:e&#45;&gt;n7:w</title>
<path fill="none" stroke="black" d="M353,-240C361.43,-240 362.68,-235.35 371,-234 382.85,-232.08 388.14,-227.16 398,-234 414.97,-245.76 397.25,-275.63 410.74,-281.12"/>
<polygon fill="black" stroke="black" points="410.78,-282.9 416,-282 411.36,-279.45 410.78,-282.9"/>
<text text-anchor="middle" x="384.5" y="-237.8" font-family="Serif" font-size="14.00">Pop</text>
</g>
<!-- n5&#45;&gt;n6 -->
<!-- Pop -->
<g id="e10" class="edge">
<title>n5:e&#45;&gt;n6:w</title>
<path fill="none" stroke="black" d="M529,-227C550.08,-227 559.25,-227.06 574,-212 591.41,-194.22 569.08,-159.93 586.63,-154.68"/>
<polygon fill="black" stroke="black" points="587.26,-156.37 592,-154 586.82,-152.89 587.26,-156.37"/>
<text text-anchor="middle" x="560.5" y="-230.8" font-family="Serif" font-size="14.00">Pop</text>
</g>
<!-- n8 -->
<!-- crossexposure -->
<g id="n8" class="node">
<title>n8</title>
<polygon fill="none" stroke="black" points="592.5,-193 592.5,-241 705.5,-241 705.5,-193 592.5,-193"/>
<text text-anchor="start" x="597.5" y="-213.3" font-family="Serif" font-size="14.00">crossexposure</text>
</g>
<!-- n5&#45;&gt;n8 -->
<!-- Pop -->
<g id="e11" class="edge">
<title>n5:e&#45;&gt;n8:w</title>
<path fill="none" stroke="black" d="M529,-203C537.43,-203 538.68,-198.35 547,-197 558.85,-195.08 562.26,-194.51 574,-197 580.56,-198.39 582.49,-202.34 586.97,-204.12"/>
<polygon fill="black" stroke="black" points="586.77,-205.86 592,-205 587.38,-202.41 586.77,-205.86"/>
<text text-anchor="middle" x="560.5" y="-200.8" font-family="Serif" font-size="14.00">Pop</text>
</g>
<!-- n9 -->
<!-- crossexposure -->
<g id="n9" class="node">
<title>n9</title>
<polygon fill="none" stroke="black" points="768.5,-187 768.5,-235 881.5,-235 881.5,-187 768.5,-187"/>
<text text-anchor="start" x="773.5" y="-207.3" font-family="Serif" font-size="14.00">crossexposure</text>
</g>
<!-- n6&#45;&gt;n9 -->
<!-- Pop -->
<g id="e12" class="edge">
<title>n6:e&#45;&gt;n9:w</title>
<path fill="none" stroke="black" d="M705,-130C714.25,-130 748.76,-184.73 763.53,-196.7"/>
<polygon fill="black" stroke="black" points="762.75,-198.27 768,-199 764.35,-195.16 762.75,-198.27"/>
<text text-anchor="middle" x="736.5" y="-184.8" font-family="Serif" font-size="14.00">Pop</text>
</g>
<!-- n10 -->
<!-- crossexposure -->
<g id="n10" class="node">
<title>n10</title>
<polygon fill="none" stroke="black" points="944.5,-115 944.5,-163 1057.5,-163 1057.5,-115 944.5,-115"/>
<text text-anchor="start" x="949.5" y="-135.3" font-family="Serif" font-size="14.00">crossexposure</text>
</g>
<!-- n6&#45;&gt;n10 -->
<!-- Pop -->
<g id="e13" class="edge">
<title>n6:e&#45;&gt;n10:w</title>
<path fill="none" stroke="black" d="M705,-154C810.12,-154 836.24,-127.89 938.74,-127.02"/>
<polygon fill="black" stroke="black" points="939.01,-128.77 944,-127 938.99,-125.27 939.01,-128.77"/>
<text text-anchor="middle" x="824.5" y="-154.8" font-family="Serif" font-size="14.00">Pop</text>
</g>
<!-- n7&#45;&gt;n8 -->
<!-- Pop -->
<g id="e14" class="edge">
<title>n7:e&#45;&gt;n8:w</title>
<path fill="none" stroke="black" d="M529,-306C538.85,-306 572.36,-244.92 587.38,-231.56"/>
<polygon fill="black" stroke="black" points="588.48,-232.96 592,-229 586.78,-229.89 588.48,-232.96"/>
<text text-anchor="middle" x="560.5" y="-289.8" font-family="Serif" font-size="14.00">Pop</text>
</g>
<!-- n11 -->
<!-- crossexposure -->
<g id="n11" class="node">
<title>n11</title>
<polygon fill="none" stroke="black" points="768.5,-253 768.5,-301 881.5,-301 881.5,-253 768.5,-253"/>
<text text-anchor="start" x="773.5" y="-273.3" font-family="Serif" font-size="14.00">crossexposure</text>
</g>
<!-- n7&#45;&gt;n11 -->
<!-- Pop -->
<g id="e15" class="edge">
<title>n7:e&#45;&gt;n11:w</title>
<path fill="none" stroke="black" d="M529,-282C633.5,-282 660.83,-288.77 762.77,-288.99"/>
<polygon fill="black" stroke="black" points="763,-290.74 768,-289 763,-287.24 763,-290.74"/>
<text text-anchor="middle" x="648.5" y="-292.8" font-family="Serif" font-size="14.00">Pop</text>
</g>
<!-- n8&#45;&gt;n9 -->
<!-- Pop -->
<g id="e16" class="edge">
<title>n8:e&#45;&gt;n9:w</title>
<path fill="none" stroke="black" d="M705,-229C731.37,-229 738.95,-223.73 762.97,-223.07"/>
<polygon fill="black" stroke="black" points="763.02,-224.82 768,-223 762.98,-221.32 763.02,-224.82"/>
<text text-anchor="middle" x="736.5" y="-231.8" font-family="Serif" font-size="14.00">Pop</text>
</g>
<!-- n8&#45;&gt;n11 -->
<!-- Pop -->
<g id="e17" class="edge">
<title>n8:e&#45;&gt;n11:w</title>
<path fill="none" stroke="black" d="M705,-205C725,-205 734.06,-193.92 750,-206 770.14,-221.26 745.15,-258.53 762.6,-264.26"/>
<polygon fill="black" stroke="black" points="762.81,-266.05 768,-265 763.29,-262.58 762.81,-266.05"/>
<text text-anchor="middle" x="736.5" y="-209.8" font-family="Serif" font-size="14.00">Pop</text>
</g>
<!-- n9&#45;&gt;n10 -->
<!-- Pop -->
<g id="e18" class="edge">
<title>n9:e&#45;&gt;n10:w</title>
<path fill="none" stroke="black" d="M881,-223C902.38,-223 911.23,-221.45 926,-206 942.39,-188.86 922,-156.58 938.86,-151.64"/>
<polygon fill="black" stroke="black" points="939.26,-153.36 944,-151 938.82,-149.88 939.26,-153.36"/>
<text text-anchor="middle" x="912.5" y="-225.8" font-family="Serif" font-size="14.00">Pop</text>
</g>
<!-- n12 -->
<!-- crossexposure -->
<g id="n12" class="node">
<title>n12</title>
<polygon fill="none" stroke="black" points="944.5,-181 944.5,-229 1057.5,-229 1057.5,-181 944.5,-181"/>
<text text-anchor="start" x="949.5" y="-201.3" font-family="Serif" font-size="14.00">crossexposure</text>
</g>
<!-- n9&#45;&gt;n12 -->
<!-- Pop -->
<g id="e19" class="edge">
<title>n9:e&#45;&gt;n12:w</title>
<path fill="none" stroke="black" d="M881,-199C889.75,-199 890.44,-192.82 899,-191 910.74,-188.51 914.02,-190.34 926,-191 932.03,-191.33 934.61,-192.29 938.92,-192.75"/>
<polygon fill="black" stroke="black" points="938.92,-194.5 944,-193 939.09,-191.01 938.92,-194.5"/>
<text text-anchor="middle" x="912.5" y="-194.8" font-family="Serif" font-size="14.00">Pop</text>
</g>
<!-- n13 -->
<!-- crossexposure -->
<g id="n13" class="node">
<title>n13</title>
<polygon fill="none" stroke="black" points="1120.5,-184 1120.5,-232 1233.5,-232 1233.5,-184 1120.5,-184"/>
<text text-anchor="start" x="1125.5" y="-204.3" font-family="Serif" font-size="14.00">crossexposure</text>
</g>
<!-- n10&#45;&gt;n13 -->
<!-- Pop -->
<g id="e20" class="edge">
<title>n10:e&#45;&gt;n13:w</title>
<path fill="none" stroke="black" d="M1057,-127C1079.88,-127 1086.81,-134.89 1102,-152 1114.71,-166.32 1101.81,-190.82 1115.01,-195.29"/>
<polygon fill="black" stroke="black" points="1114.8,-197.03 1120,-196 1115.3,-193.56 1114.8,-197.03"/>
<text text-anchor="middle" x="1088.5" y="-155.8" font-family="Serif" font-size="14.00">Pop</text>
</g>
<!-- n14 -->
<!-- crossexposure -->
<g id="n14" class="node">
<title>n14</title>
<polygon fill="none" stroke="black" points="1296.5,-112 1296.5,-160 1409.5,-160 1409.5,-112 1296.5,-112"/>
<text text-anchor="start" x="1301.5" y="-132.3" font-family="Serif" font-size="14.00">crossexposure</text>
</g>
<!-- n10&#45;&gt;n14 -->
<!-- Pop -->
<g id="e21" class="edge">
<title>n10:e&#45;&gt;n14:w</title>
<path fill="none" stroke="black" d="M1057,-151C1162.12,-151 1188.24,-124.89 1290.74,-124.02"/>
<polygon fill="black" stroke="black" points="1291.01,-125.77 1296,-124 1290.99,-122.27 1291.01,-125.77"/>
<text text-anchor="middle" x="1176.5" y="-151.8" font-family="Serif" font-size="14.00">Pop</text>
</g>
<!-- n11&#45;&gt;n12 -->
<!-- Pop -->
<g id="e22" class="edge">
<title>n11:e&#45;&gt;n12:w</title>
<path fill="none" stroke="black" d="M881,-289C910.24,-289 907.2,-263.4 926,-241 933.23,-232.38 931.58,-221.22 938.9,-217.94"/>
<polygon fill="black" stroke="black" points="939.4,-219.63 944,-217 938.77,-216.19 939.4,-219.63"/>
<text text-anchor="middle" x="912.5" y="-287.8" font-family="Serif" font-size="14.00">Pop</text>
</g>
<!-- n15 -->
<!-- crossexposure -->
<g id="n15" class="node">
<title>n15</title>
<polygon fill="none" stroke="black" points="1120.5,-250 1120.5,-298 1233.5,-298 1233.5,-250 1120.5,-250"/>
<text text-anchor="start" x="1125.5" y="-270.3" font-family="Serif" font-size="14.00">crossexposure</text>
</g>
<!-- n11&#45;&gt;n15 -->
<!-- Pop -->
<g id="e23" class="edge">
<title>n11:e&#45;&gt;n15:w</title>
<path fill="none" stroke="black" d="M881,-265C985.86,-265 1012.49,-285.31 1114.76,-285.98"/>
<polygon fill="black" stroke="black" points="1114.99,-287.73 1120,-286 1115.01,-284.23 1114.99,-287.73"/>
<text text-anchor="middle" x="1000.5" y="-287.8" font-family="Serif" font-size="14.00">Pop</text>
</g>
<!-- n12&#45;&gt;n13 -->
<!-- Pop -->
<g id="e24" class="edge">
<title>n12:e&#45;&gt;n13:w</title>
<path fill="none" stroke="black" d="M1057,-217C1083.28,-217 1091.02,-219.64 1114.98,-219.97"/>
<polygon fill="black" stroke="black" points="1114.99,-221.72 1120,-220 1115.01,-218.22 1114.99,-221.72"/>
<text text-anchor="middle" x="1088.5" y="-223.8" font-family="Serif" font-size="14.00">Pop</text>
</g>
<!-- n12&#45;&gt;n15 -->
<!-- Pop -->
<g id="e25" class="edge">
<title>n12:e&#45;&gt;n15:w</title>
<path fill="none" stroke="black" d="M1057,-193C1077.18,-193 1086.73,-185.81 1102,-199 1122.49,-216.7 1095.27,-255.94 1114.74,-261.37"/>
<polygon fill="black" stroke="black" points="1114.83,-263.14 1120,-262 1115.24,-259.67 1114.83,-263.14"/>
<text text-anchor="middle" x="1088.5" y="-202.8" font-family="Serif" font-size="14.00">Pop</text>
</g>
<!-- n13&#45;&gt;n14 -->
<!-- Pop -->
<g id="e26" class="edge">
<title>n13:e&#45;&gt;n14:w</title>
<path fill="none" stroke="black" d="M1233,-220C1254.38,-220 1263.23,-218.45 1278,-203 1294.39,-185.86 1274,-153.58 1290.86,-148.64"/>
<polygon fill="black" stroke="black" points="1291.26,-150.36 1296,-148 1290.82,-146.88 1291.26,-150.36"/>
<text text-anchor="middle" x="1264.5" y="-222.8" font-family="Serif" font-size="14.00">Pop</text>
</g>
<!-- n16 -->
<!-- crossexposure -->
<g id="n16" class="node">
<title>n16</title>
<polygon fill="none" stroke="black" points="1296.5,-178 1296.5,-226 1409.5,-226 1409.5,-178 1296.5,-178"/>
<text text-anchor="start" x="1301.5" y="-198.3" font-family="Serif" font-size="14.00">crossexposure</text>
</g>
<!-- n13&#45;&gt;n16 -->
<!-- Pop -->
<g id="e27" class="edge">
<title>n13:e&#45;&gt;n16:w</title>
<path fill="none" stroke="black" d="M1233,-196C1241.75,-196 1242.44,-189.82 1251,-188 1262.74,-185.51 1266.02,-187.34 1278,-188 1284.03,-188.33 1286.61,-189.29 1290.92,-189.75"/>
<polygon fill="black" stroke="black" points="1290.92,-191.5 1296,-190 1291.09,-188.01 1290.92,-191.5"/>
<text text-anchor="middle" x="1264.5" y="-191.8" font-family="Serif" font-size="14.00">Pop</text>
</g>
<!-- n17 -->
<!-- crossexposure -->
<g id="n17" class="node">
<title>n17</title>
<polygon fill="none" stroke="black" points="1472.5,-181 1472.5,-229 1585.5,-229 1585.5,-181 1472.5,-181"/>
<text text-anchor="start" x="1477.5" y="-201.3" font-family="Serif" font-size="14.00">crossexposure</text>
</g>
<!-- n14&#45;&gt;n17 -->
<!-- Pop -->
<g id="e28" class="edge">
<title>n14:e&#45;&gt;n17:w</title>
<path fill="none" stroke="black" d="M1409,-124C1431.67,-124 1438.87,-131.12 1454,-148 1467.03,-162.54 1453.53,-187.68 1466.92,-192.27"/>
<polygon fill="black" stroke="black" points="1466.8,-194.02 1472,-193 1467.3,-190.56 1466.8,-194.02"/>
<text text-anchor="middle" x="1440.5" y="-151.8" font-family="Serif" font-size="14.00">Pop</text>
</g>
<!-- n18 -->
<!-- crossexposure -->
<g id="n18" class="node">
<title>n18</title>
<polygon fill="none" stroke="black" points="1648.5,-84 1648.5,-132 1761.5,-132 1761.5,-84 1648.5,-84"/>
<text text-anchor="start" x="1653.5" y="-104.3" font-family="Serif" font-size="14.00">crossexposure</text>
</g>
<!-- n14&#45;&gt;n18 -->
<!-- Pop -->
<g id="e29" class="edge">
<title>n14:e&#45;&gt;n18:w</title>
<path fill="none" stroke="black" d="M1409,-148C1516.01,-148 1538.6,-97.61 1642.97,-96.04"/>
<polygon fill="black" stroke="black" points="1643.01,-97.79 1648,-96 1642.99,-94.29 1643.01,-97.79"/>
<text text-anchor="middle" x="1528.5" y="-144.8" font-family="Serif" font-size="14.00">Pop</text>
</g>
<!-- n15&#45;&gt;n16 -->
<!-- Pop -->
<g id="e30" class="edge">
<title>n15:e&#45;&gt;n16:w</title>
<path fill="none" stroke="black" d="M1233,-286C1262.24,-286 1259.2,-260.4 1278,-238 1285.23,-229.38 1283.58,-218.22 1290.9,-214.94"/>
<polygon fill="black" stroke="black" points="1291.4,-216.63 1296,-214 1290.77,-213.19 1291.4,-216.63"/>
<text text-anchor="middle" x="1264.5" y="-284.8" font-family="Serif" font-size="14.00">Pop</text>
</g>
<!-- n19 -->
<!-- crossexposure -->
<g id="n19" class="node">
<title>n19</title>
<polygon fill="none" stroke="black" points="1472.5,-247 1472.5,-295 1585.5,-295 1585.5,-247 1472.5,-247"/>
<text text-anchor="start" x="1477.5" y="-267.3" font-family="Serif" font-size="14.00">crossexposure</text>
</g>
<!-- n15&#45;&gt;n19 -->
<!-- Pop -->
<g id="e31" class="edge">
<title>n15:e&#45;&gt;n19:w</title>
<path fill="none" stroke="black" d="M1233,-262C1337.86,-262 1364.49,-282.31 1466.76,-282.98"/>
<polygon fill="black" stroke="black" points="1466.99,-284.73 1472,-283 1467.01,-281.23 1466.99,-284.73"/>
<text text-anchor="middle" x="1352.5" y="-284.8" font-family="Serif" font-size="14.00">Pop</text>
</g>
<!-- n16&#45;&gt;n17 -->
<!-- Pop -->
<g id="e32" class="edge">
<title>n16:e&#45;&gt;n17:w</title>
<path fill="none" stroke="black" d="M1409,-214C1435.28,-214 1443.02,-216.64 1466.98,-216.97"/>
<polygon fill="black" stroke="black" points="1466.99,-218.72 1472,-217 1467.01,-215.22 1466.99,-218.72"/>
<text text-anchor="middle" x="1440.5" y="-220.8" font-family="Serif" font-size="14.00">Pop</text>
</g>
<!-- n16&#45;&gt;n19 -->
<!-- Pop -->
<g id="e33" class="edge">
<title>n16:e&#45;&gt;n19:w</title>
<path fill="none" stroke="black" d="M1409,-190C1429.18,-190 1438.73,-182.81 1454,-196 1474.49,-213.7 1447.27,-252.94 1466.74,-258.37"/>
<polygon fill="black" stroke="black" points="1466.83,-260.14 1472,-259 1467.24,-256.67 1466.83,-260.14"/>
<text text-anchor="middle" x="1440.5" y="-199.8" font-family="Serif" font-size="14.00">Pop</text>
</g>
<!-- n17&#45;&gt;n18 -->
<!-- Pop -->
<g id="e34" class="edge">
<title>n17:e&#45;&gt;n18:w</title>
<path fill="none" stroke="black" d="M1585,-217C1606.08,-217 1615.9,-217.67 1630,-202 1653.69,-175.67 1615.01,-125.44 1642.93,-120.41"/>
<polygon fill="black" stroke="black" points="1643.16,-122.15 1648,-120 1642.88,-118.66 1643.16,-122.15"/>
<text text-anchor="middle" x="1616.5" y="-220.8" font-family="Serif" font-size="14.00">Pop</text>
</g>
<!-- n20 -->
<!-- crossexposure -->
<g id="n20" class="node">
<title>n20</title>
<polygon fill="none" stroke="black" points="1648.5,-183 1648.5,-231 1761.5,-231 1761.5,-183 1648.5,-183"/>
<text text-anchor="start" x="1653.5" y="-203.3" font-family="Serif" font-size="14.00">crossexposure</text>
</g>
<!-- n17&#45;&gt;n20 -->
<!-- Pop -->
<g id="e35" class="edge">
<title>n17:e&#45;&gt;n20:w</title>
<path fill="none" stroke="black" d="M1585,-193C1593.43,-193 1594.68,-188.35 1603,-187 1614.85,-185.08 1618.26,-184.51 1630,-187 1636.56,-188.39 1638.49,-192.34 1642.97,-194.12"/>
<polygon fill="black" stroke="black" points="1642.77,-195.86 1648,-195 1643.38,-192.41 1642.77,-195.86"/>
<text text-anchor="middle" x="1616.5" y="-190.8" font-family="Serif" font-size="14.00">Pop</text>
</g>
<!-- n21 -->
<!-- crossexposure -->
<g id="n21" class="node">
<title>n21</title>
<polygon fill="none" stroke="black" points="1824.5,-121 1824.5,-169 1937.5,-169 1937.5,-121 1824.5,-121"/>
<text text-anchor="start" x="1829.5" y="-141.3" font-family="Serif" font-size="14.00">crossexposure</text>
</g>
<!-- n18&#45;&gt;n21 -->
<!-- Pop -->
<g id="e36" class="edge">
<title>n18:e&#45;&gt;n21:w</title>
<path fill="none" stroke="black" d="M1761,-96C1791.7,-96 1791.64,-129.06 1818.97,-132.68"/>
<polygon fill="black" stroke="black" points="1818.9,-134.43 1824,-133 1819.12,-130.94 1818.9,-134.43"/>
<text text-anchor="middle" x="1792.5" y="-131.8" font-family="Serif" font-size="14.00">Pop</text>
</g>
<!-- n22 -->
<!-- crossexposure -->
<g id="n22" class="node">
<title>n22</title>
<polygon fill="none" stroke="black" points="2000.5,-42 2000.5,-90 2113.5,-90 2113.5,-42 2000.5,-42"/>
<text text-anchor="start" x="2005.5" y="-62.3" font-family="Serif" font-size="14.00">crossexposure</text>
</g>
<!-- n18&#45;&gt;n22 -->
<!-- Pop -->
<g id="e37" class="edge">
<title>n18:e&#45;&gt;n22:w</title>
<path fill="none" stroke="black" d="M1761,-120C1790.81,-120 1795.48,-105.66 1824,-97 1899.39,-74.1 1918.66,-54.84 1994.89,-54.03"/>
<polygon fill="black" stroke="black" points="1995.01,-55.78 2000,-54 1994.99,-52.28 1995.01,-55.78"/>
<text text-anchor="middle" x="1880.5" y="-100.8" font-family="Serif" font-size="14.00">Pop</text>
</g>
<!-- n19&#45;&gt;n2p1 -->
<!-- Pop -->
<g id="e38" class="edge">
<title>n19:e&#45;&gt;n2p1:w</title>
<path fill="none" stroke="black" d="M1585,-259C1637.67,-259 1650.83,-259 1703.5,-259 1703.5,-259 1703.5,-259 2057.5,-259 2108.42,-259 2122.41,-258.07 2170.88,-258"/>
<polygon fill="black" stroke="black" points="2171,-259.75 2176,-258 2171,-256.25 2171,-259.75"/>
<text text-anchor="middle" x="1880.5" y="-262.8" font-family="Serif" font-size="14.00">Pop</text>
</g>
<!-- n19&#45;&gt;n20 -->
<!-- Pop -->
<g id="e39" class="edge">
<title>n19:e&#45;&gt;n20:w</title>
<path fill="none" stroke="black" d="M1585,-283C1611.76,-283 1611.88,-262.69 1630,-243 1637.62,-234.72 1635.7,-223.33 1642.93,-219.97"/>
<polygon fill="black" stroke="black" points="1643.42,-221.66 1648,-219 1642.76,-218.22 1643.42,-221.66"/>
<text text-anchor="middle" x="1616.5" y="-282.8" font-family="Serif" font-size="14.00">Pop</text>
</g>
<!-- n20&#45;&gt;n2p2 -->
<!-- Pop -->
<g id="e40" class="edge">
<title>n20:e&#45;&gt;n2p2:w</title>
<path fill="none" stroke="black" d="M1761,-195C1943.74,-195 1990.69,-196.96 2170.9,-197"/>
<polygon fill="black" stroke="black" points="2171,-198.75 2176,-197 2171,-195.25 2171,-198.75"/>
<text text-anchor="middle" x="1968.5" y="-200.8" font-family="Serif" font-size="14.00">Pop</text>
</g>
<!-- n20&#45;&gt;n21 -->
<!-- Pop -->
<g id="e41" class="edge">
<title>n20:e&#45;&gt;n21:w</title>
<path fill="none" stroke="black" d="M1761,-219C1798.44,-219 1786.05,-162.68 1818.83,-157.4"/>
<polygon fill="black" stroke="black" points="1819.15,-159.13 1824,-157 1818.88,-155.64 1819.15,-159.13"/>
<text text-anchor="middle" x="1792.5" y="-215.8" font-family="Serif" font-size="14.00">Pop</text>
</g>
<!-- n21&#45;&gt;n2p3 -->
<!-- Pop -->
<g id="e42" class="edge">
<title>n21:e&#45;&gt;n2p3:w</title>
<path fill="none" stroke="black" d="M1937,-133C2041.46,-133 2068.87,-132.03 2170.77,-132"/>
<polygon fill="black" stroke="black" points="2171,-133.75 2176,-132 2171,-130.25 2171,-133.75"/>
<text text-anchor="middle" x="2056.5" y="-136.8" font-family="Serif" font-size="14.00">Pop</text>
</g>
<!-- n21&#45;&gt;n22 -->
<!-- Pop -->
<g id="e43" class="edge">
<title>n21:e&#45;&gt;n22:w</title>
<path fill="none" stroke="black" d="M1937,-157C1968.58,-157 1962.52,-126.86 1982,-102 1988.94,-93.14 1987.49,-82.15 1994.88,-78.93"/>
<polygon fill="black" stroke="black" points="1995.39,-80.61 2000,-78 1994.77,-77.17 1995.39,-80.61"/>
<text text-anchor="middle" x="1968.5" y="-155.8" font-family="Serif" font-size="14.00">Pop</text>
</g>
<!-- n22&#45;&gt;n2p4 -->
<!-- Pop -->
<g id="e45" class="edge">
<title>n22:e&#45;&gt;n2p4:w</title>
<path fill="none" stroke="black" d="M2113,-54C2121.43,-54 2122.68,-49.35 2131,-48 2142.85,-46.08 2147.27,-42.63 2158,-48 2168.06,-53.03 2164.47,-66.66 2171.11,-70.79"/>
<polygon fill="black" stroke="black" points="2170.73,-72.5 2176,-72 2171.56,-69.1 2170.73,-72.5"/>
<text text-anchor="middle" x="2144.5" y="-51.8" font-family="Serif" font-size="14.00">Pop</text>
</g>
<!-- n22&#45;&gt;n2p5 -->
<!-- Pop -->
<g id="e44" class="edge">
<title>n22:e&#45;&gt;n2p5:w</title>
<path fill="none" stroke="black" d="M2113,-78C2134.08,-78 2142.96,-77.78 2158,-63 2173.67,-47.6 2155.65,-17.74 2170.79,-12.72"/>
<polygon fill="black" stroke="black" points="2171.29,-14.42 2176,-12 2170.81,-10.96 2171.29,-14.42"/>
<text text-anchor="middle" x="2144.5" y="-81.8" font-family="Serif" font-size="14.00">Pop</text>
</g>
</g>
</svg>
