<?xml version="1.0" encoding="UTF-8" standalone="no"?>
<!DOCTYPE svg PUBLIC "-//W3C//DTD SVG 1.1//EN"
 "http://www.w3.org/Graphics/SVG/1.1/DTD/svg11.dtd">
<!-- Generated by graphviz version 2.44.0 (0)
 -->
<!-- Title: G Pages: 1 -->
<svg width="2411pt" height="380pt"
 viewBox="0.00 0.00 2411.00 380.00" xmlns="http://www.w3.org/2000/svg" xmlns:xlink="http://www.w3.org/1999/xlink">
<g id="graph0" class="graph" transform="scale(1 1) rotate(0) translate(4 376)">
<title>G</title>
<polygon fill="white" stroke="transparent" points="-4,4 -4,-376 2407,-376 2407,4 -4,4"/>
<!-- n1p1 -->
<!-- n1p2 -->
<!-- n1p1&#45;&gt;n1p2 -->
<!-- n3 -->
<!-- crossexposure -->
<g id="n3" class="node">
<title>n3</title>
<polygon fill="none" stroke="black" points="64.5,-297 64.5,-345 177.5,-345 177.5,-297 64.5,-297"/>
<text text-anchor="start" x="69.5" y="-317.3" font-family="Serif" font-size="14.00">crossexposure</text>
</g>
<!-- n1p1&#45;&gt;n3 -->
<!-- Pop -->
<g id="e1" class="edge">
<title>n1p1:e&#45;&gt;n3:w</title>
<path fill="none" stroke="black" d="M1,-360C29.68,-360 33.2,-336.07 58.93,-333.27"/>
<polygon fill="black" stroke="black" points="59.1,-335.01 64,-333 58.91,-331.52 59.1,-335.01"/>
<text text-anchor="middle" x="32.5" y="-358.8" font-family="Serif" font-size="14.00">Pop</text>
</g>
<!-- n1p3 -->
<!-- n1p2&#45;&gt;n1p3 -->
<!-- n1p2&#45;&gt;n3 -->
<!-- Pop -->
<g id="e2" class="edge">
<title>n1p2:e&#45;&gt;n3:w</title>
<path fill="none" stroke="black" d="M1,-300C27.52,-300 34.83,-307.91 58.94,-308.9"/>
<polygon fill="black" stroke="black" points="58.97,-310.65 64,-309 59.04,-307.15 58.97,-310.65"/>
<text text-anchor="middle" x="32.5" y="-310.8" font-family="Serif" font-size="14.00">Pop</text>
</g>
<!-- n1p4 -->
<!-- n1p3&#45;&gt;n1p4 -->
<!-- n4 -->
<!-- crossexposure -->
<g id="n4" class="node">
<title>n4</title>
<polygon fill="none" stroke="black" points="240.5,-221 240.5,-269 353.5,-269 353.5,-221 240.5,-221"/>
<text text-anchor="start" x="245.5" y="-241.3" font-family="Serif" font-size="14.00">crossexposure</text>
</g>
<!-- n1p3&#45;&gt;n4 -->
<!-- Pop -->
<g id="e3" class="edge">
<title>n1p3:e&#45;&gt;n4:w</title>
<path fill="none" stroke="black" d="M1,-240C105.5,-240 132.83,-233.23 234.77,-233.01"/>
<polygon fill="black" stroke="black" points="235,-234.76 240,-233 235,-231.26 235,-234.76"/>
<text text-anchor="middle" x="120.5" y="-243.8" font-family="Serif" font-size="14.00">Pop</text>
</g>
<!-- n1p5 -->
<!-- n1p4&#45;&gt;n1p5 -->
<!-- n5 -->
<!-- crossexposure -->
<g id="n5" class="node">
<title>n5</title>
<polygon fill="none" stroke="black" points="416.5,-178 416.5,-226 529.5,-226 529.5,-178 416.5,-178"/>
<text text-anchor="start" x="421.5" y="-198.3" font-family="Serif" font-size="14.00">crossexposure</text>
</g>
<!-- n1p4&#45;&gt;n5 -->
<!-- Pop -->
<g id="e4" class="edge">
<title>n1p4:e&#45;&gt;n5:w</title>
<path fill="none" stroke="black" d="M1,-180C183.79,-180 230.64,-189.82 410.9,-190"/>
<polygon fill="black" stroke="black" points="411,-191.75 416,-190 411,-188.25 411,-191.75"/>
<text text-anchor="middle" x="208.5" y="-189.8" font-family="Serif" font-size="14.00">Pop</text>
</g>
<!-- n6 -->
<!-- crossexposure -->
<g id="n6" class="node">
<title>n6</title>
<polygon fill="none" stroke="black" points="592.5,-108 592.5,-156 705.5,-156 705.5,-108 592.5,-108"/>
<text text-anchor="start" x="597.5" y="-128.3" font-family="Serif" font-size="14.00">crossexposure</text>
</g>
<!-- n1p5&#45;&gt;n6 -->
<!-- Pop -->
<g id="e5" class="edge">
<title>n1p5:e&#45;&gt;n6:w</title>
<path fill="none" stroke="black" d="M1,-120C53.67,-120 66.83,-120 119.5,-120 119.5,-120 119.5,-120 473.5,-120 524.42,-120 538.42,-120 586.88,-120"/>
<polygon fill="black" stroke="black" points="587,-121.75 592,-120 587,-118.25 587,-121.75"/>
<text text-anchor="middle" x="296.5" y="-123.8" font-family="Serif" font-size="14.00">Pop</text>
</g>
<!-- n2p1 -->
<!-- n2p2 -->
<!-- n2p1&#45;&gt;n2p2 -->
<!-- n2p3 -->
<!-- n2p2&#45;&gt;n2p3 -->
<!-- n2p4 -->
<!-- n2p3&#45;&gt;n2p4 -->
<!-- n2p5 -->
<!-- n2p4&#45;&gt;n2p5 -->
<!-- n3&#45;&gt;n4 -->
<!-- Pop -->
<g id="e6" class="edge">
<title>n3:e&#45;&gt;n4:w</title>
<path fill="none" stroke="black" d="M177,-333C218.99,-333 198.13,-263.39 234.71,-257.41"/>
<polygon fill="black" stroke="black" points="235.15,-259.13 240,-257 234.88,-255.64 235.15,-259.13"/>
<text text-anchor="middle" x="208.5" y="-328.8" font-family="Serif" font-size="14.00">Pop</text>
</g>
<!-- n7 -->
<!-- crossexposure -->
<g id="n7" class="node">
<title>n7</title>
<polygon fill="none" stroke="black" points="416.5,-263 416.5,-311 529.5,-311 529.5,-263 416.5,-263"/>
<text text-anchor="start" x="421.5" y="-283.3" font-family="Serif" font-size="14.00">crossexposure</text>
</g>
<!-- n3&#45;&gt;n7 -->
<!-- Pop -->
<g id="e7" class="edge">
<title>n3:e&#45;&gt;n7:w</title>
<path fill="none" stroke="black" d="M177,-309C281.55,-309 308.79,-299.33 410.77,-299.01"/>
<polygon fill="black" stroke="black" points="411,-300.76 416,-299 411,-297.26 411,-300.76"/>
<text text-anchor="middle" x="296.5" y="-310.8" font-family="Serif" font-size="14.00">Pop</text>
</g>
<!-- n4&#45;&gt;n5 -->
<!-- Pop -->
<g id="e8" class="edge">
<title>n4:e&#45;&gt;n5:w</title>
<path fill="none" stroke="black" d="M353,-257C373.95,-257 381.43,-255.82 398,-243 408.31,-235.02 402.99,-219.34 410.92,-215.09"/>
<polygon fill="black" stroke="black" points="411.48,-216.76 416,-214 410.74,-213.33 411.48,-216.76"/>
<text text-anchor="middle" x="384.5" y="-260.8" font-family="Serif" font-size="14.00">Pop</text>
</g>
<!-- n4&#45;&gt;n7 -->
<!-- Pop -->
<g id="e9" class="edge">
<title>n4:e&#45;&gt;n7:w</title>
<path fill="none" stroke="black" d="M353,-233C361.3,-233 362.77,-229.12 371,-228 382.89,-226.38 388.11,-221.2 398,-228 414.7,-239.49 397.54,-268.75 410.83,-274.14"/>
<polygon fill="black" stroke="black" points="410.78,-275.91 416,-275 411.35,-272.45 410.78,-275.91"/>
<text text-anchor="middle" x="384.5" y="-231.8" font-family="Serif" font-size="14.00">Pop</text>
</g>
<!-- n5&#45;&gt;n6 -->
<!-- Pop -->
<g id="e10" class="edge">
<title>n5:e&#45;&gt;n6:w</title>
<path fill="none" stroke="black" d="M529,-214C549.95,-214 559.12,-214.74 574,-200 591.12,-183.04 569.75,-149.76 586.79,-144.66"/>
<polygon fill="black" stroke="black" points="587.26,-146.37 592,-144 586.82,-142.89 587.26,-146.37"/>
<text text-anchor="middle" x="560.5" y="-217.8" font-family="Serif" font-size="14.00">Pop</text>
</g>
<!-- n8 -->
<!-- crossexposure -->
<g id="n8" class="node">
<title>n8</title>
<polygon fill="none" stroke="black" points="592.5,-178 592.5,-226 705.5,-226 705.5,-178 592.5,-178"/>
<text text-anchor="start" x="597.5" y="-198.3" font-family="Serif" font-size="14.00">crossexposure</text>
</g>
<!-- n5&#45;&gt;n8 -->
<!-- Pop -->
<g id="e11" class="edge">
<title>n5:e&#45;&gt;n8:w</title>
<path fill="none" stroke="black" d="M529,-190C537.3,-190 538.77,-186.12 547,-185 558.89,-183.38 562.11,-183.38 574,-185 580.17,-185.84 582.54,-188.23 586.84,-189.38"/>
<polygon fill="black" stroke="black" points="586.83,-191.14 592,-190 587.25,-187.66 586.83,-191.14"/>
<text text-anchor="middle" x="560.5" y="-188.8" font-family="Serif" font-size="14.00">Pop</text>
</g>
<!-- n9 -->
<!-- crossexposure -->
<g id="n9" class="node">
<title>n9</title>
<polygon fill="none" stroke="black" points="768.5,-177 768.5,-225 881.5,-225 881.5,-177 768.5,-177"/>
<text text-anchor="start" x="773.5" y="-197.3" font-family="Serif" font-size="14.00">crossexposure</text>
</g>
<!-- n6&#45;&gt;n9 -->
<!-- Pop -->
<g id="e12" class="edge">
<title>n6:e&#45;&gt;n9:w</title>
<path fill="none" stroke="black" d="M705,-120C734.57,-120 730.11,-147.12 750,-169 756.66,-176.33 756.43,-185.23 762.95,-188.08"/>
<polygon fill="black" stroke="black" points="762.77,-189.83 768,-189 763.39,-186.38 762.77,-189.83"/>
<text text-anchor="middle" x="736.5" y="-172.8" font-family="Serif" font-size="14.00">Pop</text>
</g>
<!-- n10 -->
<!-- crossexposure -->
<g id="n10" class="node">
<title>n10</title>
<polygon fill="none" stroke="black" points="944.5,-105 944.5,-153 1057.5,-153 1057.5,-105 944.5,-105"/>
<text text-anchor="start" x="949.5" y="-125.3" font-family="Serif" font-size="14.00">crossexposure</text>
</g>
<!-- n6&#45;&gt;n10 -->
<!-- Pop -->
<g id="e13" class="edge">
<title>n6:e&#45;&gt;n10:w</title>
<path fill="none" stroke="black" d="M705,-144C810.12,-144 836.24,-117.89 938.74,-117.02"/>
<polygon fill="black" stroke="black" points="939.01,-118.77 944,-117 938.99,-115.27 939.01,-118.77"/>
<text text-anchor="middle" x="824.5" y="-144.8" font-family="Serif" font-size="14.00">Pop</text>
</g>
<!-- n7&#45;&gt;n8 -->
<!-- Pop -->
<g id="e14" class="edge">
<title>n7:e&#45;&gt;n8:w</title>
<path fill="none" stroke="black" d="M529,-299C539.56,-299 572.51,-230.39 587.62,-216.45"/>
<polygon fill="black" stroke="black" points="588.49,-217.97 592,-214 586.78,-214.91 588.49,-217.97"/>
<text text-anchor="middle" x="560.5" y="-280.8" font-family="Serif" font-size="14.00">Pop</text>
</g>
<!-- n11 -->
<!-- crossexposure -->
<g id="n11" class="node">
<title>n11</title>
<polygon fill="none" stroke="black" points="768.5,-243 768.5,-291 881.5,-291 881.5,-243 768.5,-243"/>
<text text-anchor="start" x="773.5" y="-263.3" font-family="Serif" font-size="14.00">crossexposure</text>
</g>
<!-- n7&#45;&gt;n11 -->
<!-- Pop -->
<g id="e15" class="edge">
<title>n7:e&#45;&gt;n11:w</title>
<path fill="none" stroke="black" d="M529,-275C633.47,-275 660.86,-278.87 762.77,-279"/>
<polygon fill="black" stroke="black" points="763,-280.75 768,-279 763,-277.25 763,-280.75"/>
<text text-anchor="middle" x="648.5" y="-282.8" font-family="Serif" font-size="14.00">Pop</text>
</g>
<!-- n8&#45;&gt;n9 -->
<!-- Pop -->
<g id="e16" class="edge">
<title>n8:e&#45;&gt;n9:w</title>
<path fill="none" stroke="black" d="M705,-214C731.25,-214 739.04,-213.12 762.99,-213.01"/>
<polygon fill="black" stroke="black" points="763,-214.76 768,-213 763,-211.26 763,-214.76"/>
<text text-anchor="middle" x="736.5" y="-217.8" font-family="Serif" font-size="14.00">Pop</text>
</g>
<!-- n8&#45;&gt;n11 -->
<!-- Pop -->
<g id="e17" class="edge">
<title>n8:e&#45;&gt;n11:w</title>
<path fill="none" stroke="black" d="M705,-190C725.12,-190 734.54,-182.11 750,-195 769.88,-211.58 744.29,-249.19 762.96,-254.4"/>
<polygon fill="black" stroke="black" points="762.83,-256.14 768,-255 763.24,-252.67 762.83,-256.14"/>
<text text-anchor="middle" x="736.5" y="-198.8" font-family="Serif" font-size="14.00">Pop</text>
</g>
<!-- n9&#45;&gt;n10 -->
<!-- Pop -->
<g id="e18" class="edge">
<title>n9:e&#45;&gt;n10:w</title>
<path fill="none" stroke="black" d="M881,-213C902.38,-213 911.23,-211.45 926,-196 942.39,-178.86 922,-146.58 938.86,-141.64"/>
<polygon fill="black" stroke="black" points="939.26,-143.36 944,-141 938.82,-139.88 939.26,-143.36"/>
<text text-anchor="middle" x="912.5" y="-215.8" font-family="Serif" font-size="14.00">Pop</text>
</g>
<!-- n12 -->
<!-- crossexposure -->
<g id="n12" class="node">
<title>n12</title>
<polygon fill="none" stroke="black" points="944.5,-171 944.5,-219 1057.5,-219 1057.5,-171 944.5,-171"/>
<text text-anchor="start" x="949.5" y="-191.3" font-family="Serif" font-size="14.00">crossexposure</text>
</g>
<!-- n9&#45;&gt;n12 -->
<!-- Pop -->
<g id="e19" class="edge">
<title>n9:e&#45;&gt;n12:w</title>
<path fill="none" stroke="black" d="M881,-189C889.75,-189 890.44,-182.82 899,-181 910.74,-178.51 914.02,-180.34 926,-181 932.03,-181.33 934.61,-182.29 938.92,-182.75"/>
<polygon fill="black" stroke="black" points="938.92,-184.5 944,-183 939.09,-181.01 938.92,-184.5"/>
<text text-anchor="middle" x="912.5" y="-184.8" font-family="Serif" font-size="14.00">Pop</text>
</g>
<!-- n13 -->
<!-- crossexposure -->
<g id="n13" class="node">
<title>n13</title>
<polygon fill="none" stroke="black" points="1120.5,-174 1120.5,-222 1233.5,-222 1233.5,-174 1120.5,-174"/>
<text text-anchor="start" x="1125.5" y="-194.3" font-family="Serif" font-size="14.00">crossexposure</text>
</g>
<!-- n10&#45;&gt;n13 -->
<!-- Pop -->
<g id="e20" class="edge">
<title>n10:e&#45;&gt;n13:w</title>
<path fill="none" stroke="black" d="M1057,-117C1079.88,-117 1086.81,-124.89 1102,-142 1114.71,-156.32 1101.81,-180.82 1115.01,-185.29"/>
<polygon fill="black" stroke="black" points="1114.8,-187.03 1120,-186 1115.3,-183.56 1114.8,-187.03"/>
<text text-anchor="middle" x="1088.5" y="-145.8" font-family="Serif" font-size="14.00">Pop</text>
</g>
<!-- n14 -->
<!-- crossexposure -->
<g id="n14" class="node">
<title>n14</title>
<polygon fill="none" stroke="black" points="1296.5,-102 1296.5,-150 1409.5,-150 1409.5,-102 1296.5,-102"/>
<text text-anchor="start" x="1301.5" y="-122.3" font-family="Serif" font-size="14.00">crossexposure</text>
</g>
<!-- n10&#45;&gt;n14 -->
<!-- Pop -->
<g id="e21" class="edge">
<title>n10:e&#45;&gt;n14:w</title>
<path fill="none" stroke="black" d="M1057,-141C1162.12,-141 1188.24,-114.89 1290.74,-114.02"/>
<polygon fill="black" stroke="black" points="1291.01,-115.77 1296,-114 1290.99,-112.27 1291.01,-115.77"/>
<text text-anchor="middle" x="1176.5" y="-141.8" font-family="Serif" font-size="14.00">Pop</text>
</g>
<!-- n11&#45;&gt;n12 -->
<!-- Pop -->
<g id="e22" class="edge">
<title>n11:e&#45;&gt;n12:w</title>
<path fill="none" stroke="black" d="M881,-279C910.24,-279 907.2,-253.4 926,-231 933.23,-222.38 931.58,-211.22 938.9,-207.94"/>
<polygon fill="black" stroke="black" points="939.4,-209.63 944,-207 938.77,-206.19 939.4,-209.63"/>
<text text-anchor="middle" x="912.5" y="-277.8" font-family="Serif" font-size="14.00">Pop</text>
</g>
<!-- n15 -->
<!-- crossexposure -->
<g id="n15" class="node">
<title>n15</title>
<polygon fill="none" stroke="black" points="1120.5,-240 1120.5,-288 1233.5,-288 1233.5,-240 1120.5,-240"/>
<text text-anchor="start" x="1125.5" y="-260.3" font-family="Serif" font-size="14.00">crossexposure</text>
</g>
<!-- n11&#45;&gt;n15 -->
<!-- Pop -->
<g id="e23" class="edge">
<title>n11:e&#45;&gt;n15:w</title>
<path fill="none" stroke="black" d="M881,-255C985.86,-255 1012.49,-275.31 1114.76,-275.98"/>
<polygon fill="black" stroke="black" points="1114.99,-277.73 1120,-276 1115.01,-274.23 1114.99,-277.73"/>
<text text-anchor="middle" x="1000.5" y="-277.8" font-family="Serif" font-size="14.00">Pop</text>
</g>
<!-- n12&#45;&gt;n13 -->
<!-- Pop -->
<g id="e24" class="edge">
<title>n12:e&#45;&gt;n13:w</title>
<path fill="none" stroke="black" d="M1057,-207C1083.28,-207 1091.02,-209.64 1114.98,-209.97"/>
<polygon fill="black" stroke="black" points="1114.99,-211.72 1120,-210 1115.01,-208.22 1114.99,-211.72"/>
<text text-anchor="middle" x="1088.5" y="-213.8" font-family="Serif" font-size="14.00">Pop</text>
</g>
<!-- n12&#45;&gt;n15 -->
<!-- Pop -->
<g id="e25" class="edge">
<title>n12:e&#45;&gt;n15:w</title>
<path fill="none" stroke="black" d="M1057,-183C1077.18,-183 1086.73,-175.81 1102,-189 1122.49,-206.7 1095.27,-245.94 1114.74,-251.37"/>
<polygon fill="black" stroke="black" points="1114.83,-253.14 1120,-252 1115.24,-249.67 1114.83,-253.14"/>
<text text-anchor="middle" x="1088.5" y="-192.8" font-family="Serif" font-size="14.00">Pop</text>
</g>
<!-- n13&#45;&gt;n14 -->
<!-- Pop -->
<g id="e26" class="edge">
<title>n13:e&#45;&gt;n14:w</title>
<path fill="none" stroke="black" d="M1233,-210C1254.38,-210 1263.23,-208.45 1278,-193 1294.39,-175.86 1274,-143.58 1290.86,-138.64"/>
<polygon fill="black" stroke="black" points="1291.26,-140.36 1296,-138 1290.82,-136.88 1291.26,-140.36"/>
<text text-anchor="middle" x="1264.5" y="-212.8" font-family="Serif" font-size="14.00">Pop</text>
</g>
<!-- n16 -->
<!-- crossexposure -->
<g id="n16" class="node">
<title>n16</title>
<polygon fill="none" stroke="black" points="1296.5,-168 1296.5,-216 1409.5,-216 1409.5,-168 1296.5,-168"/>
<text text-anchor="start" x="1301.5" y="-188.3" font-family="Serif" font-size="14.00">crossexposure</text>
</g>
<!-- n13&#45;&gt;n16 -->
<!-- Pop -->
<g id="e27" class="edge">
<title>n13:e&#45;&gt;n16:w</title>
<path fill="none" stroke="black" d="M1233,-186C1241.75,-186 1242.44,-179.82 1251,-178 1262.74,-175.51 1266.02,-177.34 1278,-178 1284.03,-178.33 1286.61,-179.29 1290.92,-179.75"/>
<polygon fill="black" stroke="black" points="1290.92,-181.5 1296,-180 1291.09,-178.01 1290.92,-181.5"/>
<text text-anchor="middle" x="1264.5" y="-181.8" font-family="Serif" font-size="14.00">Pop</text>
</g>
<!-- n17 -->
<!-- crossexposure -->
<g id="n17" class="node">
<title>n17</title>
<polygon fill="none" stroke="black" points="1472.5,-171 1472.5,-219 1585.5,-219 1585.5,-171 1472.5,-171"/>
<text text-anchor="start" x="1477.5" y="-191.3" font-family="Serif" font-size="14.00">crossexposure</text>
</g>
<!-- n14&#45;&gt;n17 -->
<!-- Pop -->
<g id="e28" class="edge">
<title>n14:e&#45;&gt;n17:w</title>
<path fill="none" stroke="black" d="M1409,-114C1431.88,-114 1438.81,-121.89 1454,-139 1466.71,-153.32 1453.81,-177.82 1467.01,-182.29"/>
<polygon fill="black" stroke="black" points="1466.8,-184.03 1472,-183 1467.3,-180.56 1466.8,-184.03"/>
<text text-anchor="middle" x="1440.5" y="-142.8" font-family="Serif" font-size="14.00">Pop</text>
</g>
<!-- n18 -->
<!-- crossexposure -->
<g id="n18" class="node">
<title>n18</title>
<polygon fill="none" stroke="black" points="1648.5,-73 1648.5,-121 1761.5,-121 1761.5,-73 1648.5,-73"/>
<text text-anchor="start" x="1653.5" y="-93.3" font-family="Serif" font-size="14.00">crossexposure</text>
</g>
<!-- n14&#45;&gt;n18 -->
<!-- Pop -->
<g id="e29" class="edge">
<title>n14:e&#45;&gt;n18:w</title>
<path fill="none" stroke="black" d="M1409,-138C1516.1,-138 1538.51,-86.64 1642.96,-85.04"/>
<polygon fill="black" stroke="black" points="1643.01,-86.79 1648,-85 1642.99,-83.29 1643.01,-86.79"/>
<text text-anchor="middle" x="1528.5" y="-134.8" font-family="Serif" font-size="14.00">Pop</text>
</g>
<!-- n15&#45;&gt;n16 -->
<!-- Pop -->
<g id="e30" class="edge">
<title>n15:e&#45;&gt;n16:w</title>
<path fill="none" stroke="black" d="M1233,-276C1262.24,-276 1259.2,-250.4 1278,-228 1285.23,-219.38 1283.58,-208.22 1290.9,-204.94"/>
<polygon fill="black" stroke="black" points="1291.4,-206.63 1296,-204 1290.77,-203.19 1291.4,-206.63"/>
<text text-anchor="middle" x="1264.5" y="-274.8" font-family="Serif" font-size="14.00">Pop</text>
</g>
<!-- n19 -->
<!-- crossexposure -->
<g id="n19" class="node">
<title>n19</title>
<polygon fill="none" stroke="black" points="1472.5,-237 1472.5,-285 1585.5,-285 1585.5,-237 1472.5,-237"/>
<text text-anchor="start" x="1477.5" y="-257.3" font-family="Serif" font-size="14.00">crossexposure</text>
</g>
<!-- n15&#45;&gt;n19 -->
<!-- Pop -->
<g id="e31" class="edge">
<title>n15:e&#45;&gt;n19:w</title>
<path fill="none" stroke="black" d="M1233,-252C1337.86,-252 1364.49,-272.31 1466.76,-272.98"/>
<polygon fill="black" stroke="black" points="1466.99,-274.73 1472,-273 1467.01,-271.23 1466.99,-274.73"/>
<text text-anchor="middle" x="1352.5" y="-274.8" font-family="Serif" font-size="14.00">Pop</text>
</g>
<!-- n16&#45;&gt;n17 -->
<!-- Pop -->
<g id="e32" class="edge">
<title>n16:e&#45;&gt;n17:w</title>
<path fill="none" stroke="black" d="M1409,-204C1435.28,-204 1443.02,-206.64 1466.98,-206.97"/>
<polygon fill="black" stroke="black" points="1466.99,-208.72 1472,-207 1467.01,-205.22 1466.99,-208.72"/>
<text text-anchor="middle" x="1440.5" y="-210.8" font-family="Serif" font-size="14.00">Pop</text>
</g>
<!-- n16&#45;&gt;n19 -->
<!-- Pop -->
<g id="e33" class="edge">
<title>n16:e&#45;&gt;n19:w</title>
<path fill="none" stroke="black" d="M1409,-180C1429.18,-180 1438.73,-172.81 1454,-186 1474.49,-203.7 1447.27,-242.94 1466.74,-248.37"/>
<polygon fill="black" stroke="black" points="1466.83,-250.14 1472,-249 1467.24,-246.67 1466.83,-250.14"/>
<text text-anchor="middle" x="1440.5" y="-189.8" font-family="Serif" font-size="14.00">Pop</text>
</g>
<!-- n17&#45;&gt;n18 -->
<!-- Pop -->
<g id="e34" class="edge">
<title>n17:e&#45;&gt;n18:w</title>
<path fill="none" stroke="black" d="M1585,-207C1606.71,-207 1616.05,-204.64 1630,-188 1651.87,-161.91 1616.3,-114.55 1642.76,-109.45"/>
<polygon fill="black" stroke="black" points="1643.17,-111.17 1648,-109 1642.87,-107.68 1643.17,-111.17"/>
<text text-anchor="middle" x="1616.5" y="-209.8" font-family="Serif" font-size="14.00">Pop</text>
</g>
<!-- n20 -->
<!-- crossexposure -->
<g id="n20" class="node">
<title>n20</title>
<polygon fill="none" stroke="black" points="1648.5,-173 1648.5,-221 1761.5,-221 1761.5,-173 1648.5,-173"/>
<text text-anchor="start" x="1653.5" y="-193.3" font-family="Serif" font-size="14.00">crossexposure</text>
</g>
<!-- n17&#45;&gt;n20 -->
<!-- Pop -->
<g id="e35" class="edge">
<title>n17:e&#45;&gt;n20:w</title>
<path fill="none" stroke="black" d="M1585,-183C1594.15,-183 1594.14,-175.3 1603,-173 1614.62,-169.99 1618.51,-169.52 1630,-173 1637.19,-175.18 1638.26,-181.28 1642.97,-183.84"/>
<polygon fill="black" stroke="black" points="1642.73,-185.58 1648,-185 1643.52,-182.17 1642.73,-185.58"/>
<text text-anchor="middle" x="1616.5" y="-176.8" font-family="Serif" font-size="14.00">Pop</text>
</g>
<!-- n21 -->
<!-- crossexposure -->
<g id="n21" class="node">
<title>n21</title>
<polygon fill="none" stroke="black" points="1858.5,-110 1858.5,-158 1971.5,-158 1971.5,-110 1858.5,-110"/>
<text text-anchor="start" x="1863.5" y="-130.3" font-family="Serif" font-size="14.00">crossexposure</text>
</g>
<!-- n18&#45;&gt;n21 -->
<!-- Pop -->
<g id="e36" class="edge">
<title>n18:e&#45;&gt;n21:w</title>
<path fill="none" stroke="black" d="M1761,-85C1805.34,-85 1811.43,-119.17 1852.78,-121.84"/>
<polygon fill="black" stroke="black" points="1852.95,-123.59 1858,-122 1853.06,-120.09 1852.95,-123.59"/>
<text text-anchor="middle" x="1809.5" y="-123.8" font-family="Serif" font-size="14.00">Pop</text>
</g>
<!-- n22 -->
<!-- crossexposure -->
<g id="n22" class="node">
<title>n22</title>
<polygon fill="none" stroke="black" points="2068.5,-46 2068.5,-94 2181.5,-94 2181.5,-46 2068.5,-46"/>
<text text-anchor="start" x="2073.5" y="-66.3" font-family="Serif" font-size="14.00">crossexposure</text>
</g>
<!-- n18&#45;&gt;n22 -->
<!-- Pop -->
<g id="e37" class="edge">
<title>n18:e&#45;&gt;n22:w</title>
<path fill="none" stroke="black" d="M1761,-109C1805.31,-109 1814.43,-94.05 1858,-86 1948.87,-69.21 1972.95,-58.41 2062.83,-58.01"/>
<polygon fill="black" stroke="black" points="2063,-59.76 2068,-58 2063,-56.26 2063,-59.76"/>
<text text-anchor="middle" x="1914.5" y="-89.8" font-family="Serif" font-size="14.00">Pop</text>
</g>
<!-- n19&#45;&gt;n20 -->
<!-- Pop -->
<g id="e38" class="edge">
<title>n19:e&#45;&gt;n20:w</title>
<path fill="none" stroke="black" d="M1585,-273C1605.31,-273 1614.7,-278.36 1630,-265 1648.15,-249.15 1625.92,-214.93 1642.81,-209.68"/>
<polygon fill="black" stroke="black" points="1643.27,-211.39 1648,-209 1642.81,-207.92 1643.27,-211.39"/>
<text text-anchor="middle" x="1616.5" y="-278.8" font-family="Serif" font-size="14.00">Pop</text>
</g>
<!-- n23 -->
<!-- coexist -->
<g id="n23" class="node">
<title>n23</title>
<polygon fill="none" stroke="black" points="1779.5,-243 1779.5,-268 1840.5,-268 1840.5,-243 1779.5,-243"/>
<text text-anchor="start" x="1784.5" y="-251.8" font-family="Serif" font-size="14.00">coexist</text>
</g>
<!-- n19&#45;&gt;n23 -->
<!-- Pop -->
<g id="e39" class="edge">
<title>n19:e&#45;&gt;n23:w</title>
<path fill="none" stroke="black" d="M1585,-249C1593.11,-249 1594.92,-246.67 1603,-246 1614.96,-245.01 1618.01,-245.64 1630,-246 1694.5,-247.95 1711.73,-254.62 1773.67,-254.98"/>
<polygon fill="black" stroke="black" points="1773.99,-256.74 1779,-255 1774.01,-253.24 1773.99,-256.74"/>
<text text-anchor="middle" x="1616.5" y="-249.8" font-family="Serif" font-size="14.00">Pop</text>
</g>
<!-- n20&#45;&gt;n21 -->
<!-- Pop -->
<g id="e40" class="edge">
<title>n20:e&#45;&gt;n21:w</title>
<path fill="none" stroke="black" d="M1761,-209C1796.29,-209 1812.51,-223.13 1840,-201 1858.47,-186.13 1836.33,-151.94 1852.9,-146.68"/>
<polygon fill="black" stroke="black" points="1853.28,-148.4 1858,-146 1852.81,-144.93 1853.28,-148.4"/>
<text text-anchor="middle" x="1809.5" y="-217.8" font-family="Serif" font-size="14.00">Pop</text>
</g>
<!-- n24 -->
<!-- coexist -->
<g id="n24" class="node">
<title>n24</title>
<polygon fill="none" stroke="black" points="1989.5,-180 1989.5,-205 2050.5,-205 2050.5,-180 1989.5,-180"/>
<text text-anchor="start" x="1994.5" y="-188.8" font-family="Serif" font-size="14.00">coexist</text>
</g>
<!-- n20&#45;&gt;n24 -->
<!-- Pop -->
<g id="e41" class="edge">
<title>n20:e&#45;&gt;n24:w</title>
<path fill="none" stroke="black" d="M1761,-185C1769.11,-185 1770.92,-182.67 1779,-182 1806.02,-179.76 1812.9,-181.09 1840,-182 1904.52,-184.16 1921.7,-191.58 1983.67,-191.98"/>
<polygon fill="black" stroke="black" points="1983.99,-193.73 1989,-192 1984.01,-190.23 1983.99,-193.73"/>
<text text-anchor="middle" x="1809.5" y="-185.8" font-family="Serif" font-size="14.00">Pop</text>
</g>
<!-- n21&#45;&gt;n22 -->
<!-- Pop -->
<g id="e42" class="edge">
<title>n21:e&#45;&gt;n22:w</title>
<path fill="none" stroke="black" d="M1971,-146C2006.29,-146 2022.57,-160.2 2050,-138 2068.73,-122.84 2046.01,-88.04 2062.82,-82.69"/>
<polygon fill="black" stroke="black" points="2063.28,-84.4 2068,-82 2062.81,-80.93 2063.28,-84.4"/>
<text text-anchor="middle" x="2019.5" y="-154.8" font-family="Serif" font-size="14.00">Pop</text>
</g>
<!-- n25 -->
<!-- coexist -->
<g id="n25" class="node">
<title>n25</title>
<polygon fill="none" stroke="black" points="2199.5,-115 2199.5,-140 2260.5,-140 2260.5,-115 2199.5,-115"/>
<text text-anchor="start" x="2204.5" y="-123.8" font-family="Serif" font-size="14.00">coexist</text>
</g>
<!-- n21&#45;&gt;n25 -->
<!-- Pop -->
<g id="e43" class="edge">
<title>n21:e&#45;&gt;n25:w</title>
<path fill="none" stroke="black" d="M1971,-122C1979.11,-122 1980.92,-119.67 1989,-119 2016.02,-116.76 2022.9,-118.27 2050,-119 2114.48,-120.73 2131.75,-126.66 2193.67,-126.99"/>
<polygon fill="black" stroke="black" points="2194,-128.74 2199,-127 2194,-125.24 2194,-128.74"/>
<text text-anchor="middle" x="2019.5" y="-122.8" font-family="Serif" font-size="14.00">Pop</text>
</g>
<!-- n26 -->
<!-- coexist -->
<g id="n26" class="node">
<title>n26</title>
<polygon fill="none" stroke="black" points="2278.5,-27 2278.5,-52 2339.5,-52 2339.5,-27 2278.5,-27"/>
<text text-anchor="start" x="2283.5" y="-35.8" font-family="Serif" font-size="14.00">coexist</text>
</g>
<!-- n22&#45;&gt;n26 -->
<!-- Pop -->
<g id="e44" class="edge">
<title>n22:e&#45;&gt;n26:w</title>
<path fill="none" stroke="black" d="M2181,-58C2223.04,-58 2233.22,-40.6 2272.52,-39.1"/>
<polygon fill="black" stroke="black" points="2273.03,-40.84 2278,-39 2272.97,-37.34 2273.03,-40.84"/>
<text text-anchor="middle" x="2229.5" y="-60.8" font-family="Serif" font-size="14.00">Pop</text>
</g>
<!-- n27 -->
<!-- coexist -->
<g id="n27" class="node">
<title>n27</title>
<polygon fill="none" stroke="black" points="2278.5,-70 2278.5,-95 2339.5,-95 2339.5,-70 2278.5,-70"/>
<text text-anchor="start" x="2283.5" y="-78.8" font-family="Serif" font-size="14.00">coexist</text>
</g>
<!-- n22&#45;&gt;n27 -->
<!-- Pop -->
<g id="e45" class="edge">
<title>n22:e&#45;&gt;n27:w</title>
<path fill="none" stroke="black" d="M2181,-82C2222.26,-82 2233.9,-82 2272.62,-82"/>
<polygon fill="black" stroke="black" points="2273,-83.75 2278,-82 2273,-80.25 2273,-83.75"/>
<text text-anchor="middle" x="2229.5" y="-85.8" font-family="Serif" font-size="14.00">Pop</text>
</g>
<!-- n23&#45;&gt;n2p1 -->
<!-- Pop -->
<g id="e46" class="edge">
<title>n23:e&#45;&gt;n2p1:w</title>
<path fill="none" stroke="black" d="M1840,-255C1919.33,-255 1939.17,-254 2018.5,-254 2018.5,-254 2018.5,-254 2309.5,-254 2348.84,-254 2359.95,-254 2396.87,-254"/>
<polygon fill="black" stroke="black" points="2397,-255.75 2402,-254 2397,-252.25 2397,-255.75"/>
<text text-anchor="middle" x="2124.5" y="-257.8" font-family="Serif" font-size="14.00">Pop</text>
</g>
<!-- n24&#45;&gt;n2p2 -->
<!-- Pop -->
<g id="e47" class="edge">
<title>n24:e&#45;&gt;n2p2:w</title>
<path fill="none" stroke="black" d="M2050,-192C2204.76,-192 2244.7,-192 2397,-192"/>
<polygon fill="black" stroke="black" points="2397,-193.75 2402,-192 2397,-190.25 2397,-193.75"/>
<text text-anchor="middle" x="2229.5" y="-195.8" font-family="Serif" font-size="14.00">Pop</text>
</g>
<!-- n25&#45;&gt;n2p3 -->
<!-- Pop -->
<g id="e48" class="edge">
<title>n25:e&#45;&gt;n2p3:w</title>
<path fill="none" stroke="black" d="M2260,-127C2321.42,-127 2337.96,-131.73 2396.92,-131.99"/>
<polygon fill="black" stroke="black" points="2397,-133.74 2402,-132 2397,-130.24 2397,-133.74"/>
<text text-anchor="middle" x="2308.5" y="-133.8" font-family="Serif" font-size="14.00">Pop</text>
</g>
<!-- n26&#45;&gt;n2p4 -->
<!-- Pop -->
<g id="e49" class="edge">
<title>n26:e&#45;&gt;n2p4:w</title>
<path fill="none" stroke="black" d="M2339,-39C2359.08,-39 2366.9,-32.47 2384,-43 2395.1,-49.84 2389.21,-66.34 2396.96,-70.85"/>
<polygon fill="black" stroke="black" points="2396.74,-72.59 2402,-72 2397.52,-69.18 2396.74,-72.59"/>
<text text-anchor="middle" x="2370.5" y="-46.8" font-family="Serif" font-size="14.00">Pop</text>
</g>
<!-- n27&#45;&gt;n2p5 -->
<!-- Pop -->
<g id="e50" class="edge">
<title>n27:e&#45;&gt;n2p5:w</title>
<path fill="none" stroke="black" d="M2339,-82C2361.67,-82 2368.94,-74.94 2384,-58 2397.22,-43.13 2383.23,-17.43 2396.83,-12.75"/>
<polygon fill="black" stroke="black" points="2397.3,-14.45 2402,-12 2396.8,-10.98 2397.3,-14.45"/>
<text text-anchor="middle" x="2370.5" y="-83.8" font-family="Serif" font-size="14.00">Pop</text>
</g>
</g>
</svg>
