<?xml version="1.0" encoding="UTF-8" standalone="no"?>
<!DOCTYPE svg PUBLIC "-//W3C//DTD SVG 1.1//EN"
 "http://www.w3.org/Graphics/SVG/1.1/DTD/svg11.dtd">
<!-- Generated by graphviz version 2.44.0 (0)
 -->
<!-- Title: G Pages: 1 -->
<svg width="777pt" height="334pt"
 viewBox="0.00 0.00 777.00 334.00" xmlns="http://www.w3.org/2000/svg" xmlns:xlink="http://www.w3.org/1999/xlink">
<g id="graph0" class="graph" transform="scale(1 1) rotate(0) translate(4 330)">
<title>G</title>
<polygon fill="white" stroke="transparent" points="-4,4 -4,-330 773,-330 773,4 -4,4"/>
<!-- n1p1 -->
<!-- n1p2 -->
<!-- n1p1&#45;&gt;n1p2 -->
<!-- n3 -->
<!-- crossexposure -->
<g id="n3" class="node">
<title>n3</title>
<polygon fill="none" stroke="black" points="64.5,-253 64.5,-301 177.5,-301 177.5,-253 64.5,-253"/>
<text text-anchor="start" x="69.5" y="-273.3" font-family="Serif" font-size="14.00">crossexposure</text>
</g>
<!-- n1p1&#45;&gt;n3 -->
<!-- Pop -->
<g id="e1" class="edge">
<title>n1p1:e&#45;&gt;n3:w</title>
<path fill="none" stroke="black" d="M1,-314C29.36,-314 33.46,-291.84 58.98,-289.25"/>
<polygon fill="black" stroke="black" points="59.09,-290.99 64,-289 58.92,-287.5 59.09,-290.99"/>
<text text-anchor="middle" x="32.5" y="-312.8" font-family="Serif" font-size="14.00">Pop</text>
</g>
<!-- n1p3 -->
<!-- n1p2&#45;&gt;n1p3 -->
<!-- n1p2&#45;&gt;n3 -->
<!-- Pop -->
<g id="e2" class="edge">
<title>n1p2:e&#45;&gt;n3:w</title>
<path fill="none" stroke="black" d="M1,-254C21.12,-254 26.35,-254.68 46,-259 52.18,-260.36 54.47,-263.05 58.79,-264.32"/>
<polygon fill="black" stroke="black" points="58.81,-266.09 64,-265 59.27,-262.61 58.81,-266.09"/>
<text text-anchor="middle" x="32.5" y="-262.8" font-family="Serif" font-size="14.00">Pop</text>
</g>
<!-- n1p4 -->
<!-- n1p3&#45;&gt;n1p4 -->
<!-- n4 -->
<!-- crossexposure -->
<g id="n4" class="node">
<title>n4</title>
<polygon fill="none" stroke="black" points="240.5,-184 240.5,-232 353.5,-232 353.5,-184 240.5,-184"/>
<text text-anchor="start" x="245.5" y="-204.3" font-family="Serif" font-size="14.00">crossexposure</text>
</g>
<!-- n1p3&#45;&gt;n4 -->
<!-- Pop -->
<g id="e3" class="edge">
<title>n1p3:e&#45;&gt;n4:w</title>
<path fill="none" stroke="black" d="M1,-194C105.46,-194 132.87,-195.93 234.77,-196"/>
<polygon fill="black" stroke="black" points="235,-197.75 240,-196 235,-194.25 235,-197.75"/>
<text text-anchor="middle" x="120.5" y="-198.8" font-family="Serif" font-size="14.00">Pop</text>
</g>
<!-- n1p5 -->
<!-- n1p4&#45;&gt;n1p5 -->
<!-- n5 -->
<!-- crossexposure -->
<g id="n5" class="node">
<title>n5</title>
<polygon fill="none" stroke="black" points="416.5,-121 416.5,-169 529.5,-169 529.5,-121 416.5,-121"/>
<text text-anchor="start" x="421.5" y="-141.3" font-family="Serif" font-size="14.00">crossexposure</text>
</g>
<!-- n1p4&#45;&gt;n5 -->
<!-- Pop -->
<g id="e4" class="edge">
<title>n1p4:e&#45;&gt;n5:w</title>
<path fill="none" stroke="black" d="M1,-133C183.73,-133 230.69,-133 410.9,-133"/>
<polygon fill="black" stroke="black" points="411,-134.75 416,-133 411,-131.25 411,-134.75"/>
<text text-anchor="middle" x="208.5" y="-136.8" font-family="Serif" font-size="14.00">Pop</text>
</g>
<!-- n6 -->
<!-- crossexposure -->
<g id="n6" class="node">
<title>n6</title>
<polygon fill="none" stroke="black" points="592.5,-42 592.5,-90 705.5,-90 705.5,-42 592.5,-42"/>
<text text-anchor="start" x="597.5" y="-62.3" font-family="Serif" font-size="14.00">crossexposure</text>
</g>
<!-- n1p5&#45;&gt;n6 -->
<!-- Pop -->
<g id="e5" class="edge">
<title>n1p5:e&#45;&gt;n6:w</title>
<path fill="none" stroke="black" d="M1,-64C53.71,-64 66.79,-59 119.5,-59 119.5,-59 119.5,-59 473.5,-59 524.46,-59 538.37,-54.33 586.88,-54.02"/>
<polygon fill="black" stroke="black" points="587.01,-55.77 592,-54 586.99,-52.27 587.01,-55.77"/>
<text text-anchor="middle" x="296.5" y="-62.8" font-family="Serif" font-size="14.00">Pop</text>
</g>
<!-- n2p1 -->
<!-- n2p2 -->
<!-- n2p1&#45;&gt;n2p2 -->
<!-- n2p3 -->
<!-- n2p2&#45;&gt;n2p3 -->
<!-- n2p4 -->
<!-- n2p3&#45;&gt;n2p4 -->
<!-- n2p5 -->
<!-- n2p4&#45;&gt;n2p5 -->
<!-- n3&#45;&gt;n2p1 -->
<!-- Pop -->
<g id="e6" class="edge">
<title>n3:e&#45;&gt;n2p1:w</title>
<path fill="none" stroke="black" d="M177,-265C229.71,-265 242.79,-260 295.5,-260 295.5,-260 295.5,-260 649.5,-260 700.42,-260 714.41,-259.07 762.88,-259"/>
<polygon fill="black" stroke="black" points="763,-260.75 768,-259 763,-257.25 763,-260.75"/>
<text text-anchor="middle" x="472.5" y="-263.8" font-family="Serif" font-size="14.00">Pop</text>
</g>
<!-- n3&#45;&gt;n4 -->
<!-- Pop -->
<g id="e7" class="edge">
<title>n3:e&#45;&gt;n4:w</title>
<path fill="none" stroke="black" d="M177,-289C216.74,-289 200.08,-225.8 234.98,-220.37"/>
<polygon fill="black" stroke="black" points="235.14,-222.11 240,-220 234.88,-218.62 235.14,-222.11"/>
<text text-anchor="middle" x="208.5" y="-284.8" font-family="Serif" font-size="14.00">Pop</text>
</g>
<!-- n4&#45;&gt;n2p2 -->
<!-- Pop -->
<g id="e8" class="edge">
<title>n4:e&#45;&gt;n2p2:w</title>
<path fill="none" stroke="black" d="M353,-196C535.73,-196 582.69,-196.98 762.9,-197"/>
<polygon fill="black" stroke="black" points="763,-198.75 768,-197 763,-195.25 763,-198.75"/>
<text text-anchor="middle" x="560.5" y="-199.8" font-family="Serif" font-size="14.00">Pop</text>
</g>
<!-- n4&#45;&gt;n5 -->
<!-- Pop -->
<g id="e9" class="edge">
<title>n4:e&#45;&gt;n5:w</title>
<path fill="none" stroke="black" d="M353,-220C390.74,-220 377.8,-162.77 410.79,-157.4"/>
<polygon fill="black" stroke="black" points="411.15,-159.13 416,-157 410.88,-155.64 411.15,-159.13"/>
<text text-anchor="middle" x="384.5" y="-215.8" font-family="Serif" font-size="14.00">Pop</text>
</g>
<!-- n5&#45;&gt;n2p3 -->
<!-- Pop -->
<g id="e10" class="edge">
<title>n5:e&#45;&gt;n2p3:w</title>
<path fill="none" stroke="black" d="M529,-133C633.46,-133 660.87,-132.03 762.77,-132"/>
<polygon fill="black" stroke="black" points="763,-133.75 768,-132 763,-130.25 763,-133.75"/>
<text text-anchor="middle" x="648.5" y="-135.8" font-family="Serif" font-size="14.00">Pop</text>
</g>
<!-- n5&#45;&gt;n6 -->
<!-- Pop -->
<g id="e11" class="edge">
<title>n5:e&#45;&gt;n6:w</title>
<path fill="none" stroke="black" d="M529,-157C571.98,-157 549.26,-84.64 586.6,-78.43"/>
<polygon fill="black" stroke="black" points="587.15,-80.14 592,-78 586.88,-76.65 587.15,-80.14"/>
<text text-anchor="middle" x="560.5" y="-153.8" font-family="Serif" font-size="14.00">Pop</text>
</g>
<!-- n6&#45;&gt;n2p4 -->
<!-- Pop -->
<g id="e13" class="edge">
<title>n6:e&#45;&gt;n2p4:w</title>
<path fill="none" stroke="black" d="M705,-54C713.43,-54 714.68,-49.35 723,-48 734.85,-46.08 739.27,-42.63 750,-48 760.06,-53.03 756.47,-66.66 763.11,-70.79"/>
<polygon fill="black" stroke="black" points="762.73,-72.5 768,-72 763.56,-69.1 762.73,-72.5"/>
<text text-anchor="middle" x="736.5" y="-51.8" font-family="Serif" font-size="14.00">Pop</text>
</g>
<!-- n6&#45;&gt;n2p5 -->
<!-- Pop -->
<g id="e12" class="edge">
<title>n6:e&#45;&gt;n2p5:w</title>
<path fill="none" stroke="black" d="M705,-78C726.08,-78 734.96,-77.78 750,-63 765.67,-47.6 747.65,-17.74 762.79,-12.72"/>
<polygon fill="black" stroke="black" points="763.29,-14.42 768,-12 762.81,-10.96 763.29,-14.42"/>
<text text-anchor="middle" x="736.5" y="-81.8" font-family="Serif" font-size="14.00">Pop</text>
</g>
</g>
</svg>
