<?xml version="1.0" encoding="UTF-8" standalone="no"?>
<!DOCTYPE svg PUBLIC "-//W3C//DTD SVG 1.1//EN"
 "http://www.w3.org/Graphics/SVG/1.1/DTD/svg11.dtd">
<!-- Generated by graphviz version 2.44.0 (0)
 -->
<!-- Title: G Pages: 1 -->
<svg width="524pt" height="35pt"
 viewBox="0.00 0.00 524.00 35.00" xmlns="http://www.w3.org/2000/svg" xmlns:xlink="http://www.w3.org/1999/xlink">
<g id="graph0" class="graph" transform="scale(1 1) rotate(0) translate(4 31)">
<title>G</title>
<polygon fill="white" stroke="transparent" points="-4,4 -4,-31 520,-31 520,4 -4,4"/>
<!-- n1p1 -->
<!-- n3 -->
<!-- AllCrossExposure -->
<g id="n3" class="node">
<title>n3</title>
<polygon fill="none" stroke="black" points="99.5,0 99.5,-25 236.5,-25 236.5,0 99.5,0"/>
<text text-anchor="start" x="104.5" y="-8.8" font-family="Serif" font-size="14.00">AllCrossExposure</text>
</g>
<!-- n1p1&#45;&gt;n3 -->
<!-- TotalPop -->
<g id="e1" class="edge">
<title>n1p1:e&#45;&gt;n3:w</title>
<path fill="none" stroke="black" d="M1,-12C42.68,-12 54.45,-12 93.56,-12"/>
<polygon fill="black" stroke="black" points="94,-13.75 99,-12 94,-10.25 94,-13.75"/>
<text text-anchor="middle" x="50" y="-15.8" font-family="Serif" font-size="14.00">TotalPop</text>
</g>
<!-- n2p1 -->
<!-- n4 -->
<!-- AllCoexist -->
<g id="n4" class="node">
<title>n4</title>
<polygon fill="none" stroke="black" points="334.5,0 334.5,-25 417.5,-25 417.5,0 334.5,0"/>
<text text-anchor="start" x="339.5" y="-8.8" font-family="Serif" font-size="14.00">AllCoexist</text>
</g>
<!-- n3&#45;&gt;n4 -->
<!-- TotalPop -->
<g id="e2" class="edge">
<title>n3:e&#45;&gt;n4:w</title>
<path fill="none" stroke="black" d="M236,-12C277.68,-12 289.45,-12 328.56,-12"/>
<polygon fill="black" stroke="black" points="329,-13.75 334,-12 329,-10.25 329,-13.75"/>
<text text-anchor="middle" x="285" y="-15.8" font-family="Serif" font-size="14.00">TotalPop</text>
</g>
<!-- n4&#45;&gt;n2p1 -->
<!-- TotalPop -->
<g id="e3" class="edge">
<title>n4:e&#45;&gt;n2p1:w</title>
<path fill="none" stroke="black" d="M417,-12C458.68,-12 470.45,-12 509.56,-12"/>
<polygon fill="black" stroke="black" points="510,-13.75 515,-12 510,-10.25 510,-13.75"/>
<text text-anchor="middle" x="466" y="-15.8" font-family="Serif" font-size="14.00">TotalPop</text>
</g>
</g>
</svg>
