<?xml version="1.0" encoding="UTF-8" standalone="no"?>
<!DOCTYPE svg PUBLIC "-//W3C//DTD SVG 1.1//EN"
 "http://www.w3.org/Graphics/SVG/1.1/DTD/svg11.dtd">
<!-- Generated by graphviz version 2.44.0 (0)
 -->
<!-- Title: G Pages: 1 -->
<svg width="829pt" height="1013pt"
 viewBox="0.00 0.00 829.00 1013.00" xmlns="http://www.w3.org/2000/svg" xmlns:xlink="http://www.w3.org/1999/xlink">
<g id="graph0" class="graph" transform="scale(1 1) rotate(0) translate(4 1009)">
<title>G</title>
<polygon fill="white" stroke="transparent" points="-4,4 -4,-1009 825,-1009 825,4 -4,4"/>
<!-- n1p1 -->
<!-- n1p2 -->
<!-- n1p1&#45;&gt;n1p2 -->
<!-- n2p1 -->
<!-- n1p1&#45;&gt;n2p1 -->
<!-- S -->
<g id="e1" class="edge">
<title>n1p1:e&#45;&gt;n2p1:w</title>
<path fill="none" stroke="black" d="M1,-892C27.14,-892 2.33,-927.86 19,-948 24.81,-955.03 94.03,-990 99,-990 99,-990 99,-990 716,-990 755.68,-990 765.93,-982.55 802,-966 808.83,-962.87 810.1,-957.31 814.92,-955.02"/>
<polygon fill="black" stroke="black" points="815.44,-956.7 820,-954 814.75,-953.27 815.44,-956.7"/>
<text text-anchor="middle" x="407" y="-993.8" font-family="Serif" font-size="14.00">S</text>
</g>
<!-- n3 -->
<!-- exposure_e -->
<g id="n3" class="node">
<title>n3</title>
<polygon fill="none" stroke="black" points="55,-810 55,-858 146,-858 146,-810 55,-810"/>
<text text-anchor="start" x="60" y="-830.3" font-family="Serif" font-size="14.00">exposure_e</text>
</g>
<!-- n1p1&#45;&gt;n3 -->
<!-- S -->
<g id="e9" class="edge">
<title>n1p1:e&#45;&gt;n3:w</title>
<path fill="none" stroke="black" d="M1,-892C30.36,-892 23.77,-851.23 48.92,-846.46"/>
<polygon fill="black" stroke="black" points="49.18,-848.19 54,-846 48.86,-844.7 49.18,-848.19"/>
<text text-anchor="middle" x="26.5" y="-886.8" font-family="Serif" font-size="14.00">S</text>
</g>
<!-- n4 -->
<!-- exposure -->
<g id="n4" class="node">
<title>n4</title>
<polygon fill="none" stroke="black" points="62,-876 62,-924 138,-924 138,-876 62,-876"/>
<text text-anchor="start" x="67" y="-896.3" font-family="Serif" font-size="14.00">exposure</text>
</g>
<!-- n1p1&#45;&gt;n4 -->
<!-- S -->
<g id="e11" class="edge">
<title>n1p1:e&#45;&gt;n4:w</title>
<path fill="none" stroke="black" d="M1,-892C18.49,-892 4.07,-917.89 19,-927 34.33,-936.36 40.09,-916.44 55.79,-912.62"/>
<polygon fill="black" stroke="black" points="56.24,-914.33 61,-912 55.83,-910.85 56.24,-914.33"/>
<text text-anchor="middle" x="26.5" y="-932.8" font-family="Serif" font-size="14.00">S</text>
</g>
<!-- n5 -->
<!-- exposure_i2 -->
<g id="n5" class="node">
<title>n5</title>
<polygon fill="none" stroke="black" points="52,-658 52,-706 148,-706 148,-658 52,-658"/>
<text text-anchor="start" x="57" y="-678.3" font-family="Serif" font-size="14.00">exposure_i2</text>
</g>
<!-- n1p1&#45;&gt;n5 -->
<!-- S -->
<g id="e13" class="edge">
<title>n1p1:e&#45;&gt;n5:w</title>
<path fill="none" stroke="black" d="M1,-892C20.31,-892 14.29,-825.72 19,-807 20.41,-801.4 39.95,-717.62 49.01,-698.06"/>
<polygon fill="black" stroke="black" points="50.45,-699.06 52,-694 47.63,-696.99 50.45,-699.06"/>
<text text-anchor="middle" x="26.5" y="-810.8" font-family="Serif" font-size="14.00">S</text>
</g>
<!-- n6 -->
<!-- exposure_a -->
<g id="n6" class="node">
<title>n6</title>
<polygon fill="none" stroke="black" points="55,-489 55,-537 146,-537 146,-489 55,-489"/>
<text text-anchor="start" x="60" y="-509.3" font-family="Serif" font-size="14.00">exposure_a</text>
</g>
<!-- n1p1&#45;&gt;n6 -->
<!-- S -->
<g id="e15" class="edge">
<title>n1p1:e&#45;&gt;n6:w</title>
<path fill="none" stroke="black" d="M1,-892C19.22,-892 16.14,-747 19,-729 24.13,-696.72 28.22,-689.17 34,-657 38.92,-629.63 26.12,-537.56 48.94,-526.16"/>
<polygon fill="black" stroke="black" points="49.52,-527.83 54,-525 48.74,-524.41 49.52,-527.83"/>
<text text-anchor="middle" x="26.5" y="-732.8" font-family="Serif" font-size="14.00">S</text>
</g>
<!-- n1p3 -->
<!-- n1p2&#45;&gt;n1p3 -->
<!-- n2p2 -->
<!-- n1p2&#45;&gt;n2p2 -->
<!-- E -->
<g id="e2" class="edge">
<title>n1p2:e&#45;&gt;n2p2:w</title>
<path fill="none" stroke="black" d="M1,-795C25.46,-795 10.62,-824.02 19,-847 22.51,-856.62 44.04,-926.56 52,-933 94.14,-967.11 118.28,-952 172.5,-952 172.5,-952 172.5,-952 716,-952 762.86,-952 772.35,-927.29 802,-891 811.25,-879.68 805.3,-862.9 814.86,-858.89"/>
<polygon fill="black" stroke="black" points="815.37,-860.58 820,-858 814.78,-857.13 815.37,-860.58"/>
<text text-anchor="middle" x="407" y="-955.8" font-family="Serif" font-size="14.00">E</text>
</g>
<!-- n1p2&#45;&gt;n3 -->
<!-- E -->
<g id="e10" class="edge">
<title>n1p2:e&#45;&gt;n3:w</title>
<path fill="none" stroke="black" d="M1,-795C16.93,-795 5.19,-818.05 19,-826 30.98,-832.9 36.88,-824.5 48.87,-822.44"/>
<polygon fill="black" stroke="black" points="49.17,-824.17 54,-822 48.87,-820.68 49.17,-824.17"/>
<text text-anchor="middle" x="26.5" y="-831.8" font-family="Serif" font-size="14.00">E</text>
</g>
<!-- n8 -->
<!-- asymptomatic_infection -->
<g id="n8" class="node">
<title>n8</title>
<polygon fill="none" stroke="black" points="199,-571 199,-596 379,-596 379,-571 199,-571"/>
<text text-anchor="start" x="204" y="-579.8" font-family="Serif" font-size="14.00">asymptomatic_infection</text>
</g>
<!-- n1p2&#45;&gt;n8 -->
<!-- E -->
<g id="e18" class="edge">
<title>n1p2:e&#45;&gt;n8:w</title>
<path fill="none" stroke="black" d="M1,-795C45.62,-795 -12.92,-626.19 19,-595 75.12,-540.17 116.99,-581.15 193.88,-582.94"/>
<polygon fill="black" stroke="black" points="193.98,-584.69 199,-583 194.02,-581.19 193.98,-584.69"/>
<text text-anchor="middle" x="100" y="-581.8" font-family="Serif" font-size="14.00">E</text>
</g>
<!-- n11 -->
<!-- illness -->
<g id="n11" class="node">
<title>n11</title>
<polygon fill="none" stroke="black" points="261,-742 261,-767 317,-767 317,-742 261,-742"/>
<text text-anchor="start" x="266" y="-750.8" font-family="Serif" font-size="14.00">illness</text>
</g>
<!-- n1p2&#45;&gt;n11 -->
<!-- E -->
<g id="e21" class="edge">
<title>n1p2:e&#45;&gt;n11:w</title>
<path fill="none" stroke="black" d="M1,-795C9.2,-795 10.94,-792.5 19,-791 33.58,-788.28 37.31,-788.08 52,-786 109.26,-777.89 123.9,-778.18 181,-769 214.49,-763.62 223.38,-754.94 254.76,-754.07"/>
<polygon fill="black" stroke="black" points="255.02,-755.82 260,-754 254.98,-752.32 255.02,-755.82"/>
<text text-anchor="middle" x="100" y="-789.8" font-family="Serif" font-size="14.00">E</text>
</g>
<!-- n1p4 -->
<!-- n1p3&#45;&gt;n1p4 -->
<!-- n2p3 -->
<!-- n1p3&#45;&gt;n2p3 -->
<!-- I -->
<g id="e3" class="edge">
<title>n1p3:e&#45;&gt;n2p3:w</title>
<path fill="none" stroke="black" d="M1,-455C290.43,-455 360.48,-495.84 648,-529 649.07,-529.12 786.08,-545.17 814.78,-548.43"/>
<polygon fill="black" stroke="black" points="814.84,-550.19 820,-549 815.22,-546.72 814.84,-550.19"/>
<text text-anchor="middle" x="407" y="-499.8" font-family="Serif" font-size="14.00">I</text>
</g>
<!-- n1p3&#45;&gt;n4 -->
<!-- I -->
<g id="e12" class="edge">
<title>n1p3:e&#45;&gt;n4:w</title>
<path fill="none" stroke="black" d="M1,-455C21.66,-455 31.35,-617.51 34,-638 47.08,-739.25 27.57,-767.88 52,-867 53.9,-874.7 52.13,-883.19 56.1,-886.53"/>
<polygon fill="black" stroke="black" points="55.71,-888.24 61,-888 56.71,-884.89 55.71,-888.24"/>
<text text-anchor="middle" x="26.5" y="-641.8" font-family="Serif" font-size="14.00">I</text>
</g>
<!-- n7 -->
<!-- progression -->
<g id="n7" class="node">
<title>n7</title>
<polygon fill="none" stroke="black" points="242,-379 242,-404 337,-404 337,-379 242,-379"/>
<text text-anchor="start" x="247" y="-387.8" font-family="Serif" font-size="14.00">progression</text>
</g>
<!-- n1p3&#45;&gt;n7 -->
<!-- I -->
<g id="e17" class="edge">
<title>n1p3:e&#45;&gt;n7:w</title>
<path fill="none" stroke="black" d="M1,-455C11.13,-455 10.33,-446.24 19,-441 32.79,-432.66 36.63,-430.84 52,-426 131.74,-400.91 154.6,-391.41 235.58,-391.01"/>
<polygon fill="black" stroke="black" points="236,-392.76 241,-391 236,-389.26 236,-392.76"/>
<text text-anchor="middle" x="100" y="-429.8" font-family="Serif" font-size="14.00">I</text>
</g>
<!-- n1p5 -->
<!-- n1p4&#45;&gt;n1p5 -->
<!-- n2p4 -->
<!-- n1p4&#45;&gt;n2p4 -->
<!-- I2 -->
<g id="e4" class="edge">
<title>n1p4:e&#45;&gt;n2p4:w</title>
<path fill="none" stroke="black" d="M1,-327C9.05,-327 10.97,-328.49 19,-329 283.4,-345.65 350.18,-330.67 615,-338 681.25,-339.83 705.06,-313.69 764,-344 798.36,-361.67 781.27,-411.06 814.69,-415.66"/>
<polygon fill="black" stroke="black" points="814.9,-417.42 820,-416 815.12,-413.93 814.9,-417.42"/>
<text text-anchor="middle" x="407" y="-340.8" font-family="Serif" font-size="14.00">I2</text>
</g>
<!-- n1p4&#45;&gt;n5 -->
<!-- I2 -->
<g id="e14" class="edge">
<title>n1p4:e&#45;&gt;n5:w</title>
<path fill="none" stroke="black" d="M1,-327C19.06,-327 31.15,-628.46 48.46,-666.15"/>
<polygon fill="black" stroke="black" points="47.33,-667.5 52,-670 49.91,-665.13 47.33,-667.5"/>
<text text-anchor="middle" x="26.5" y="-572.8" font-family="Serif" font-size="14.00">I2</text>
</g>
<!-- n9 -->
<!-- recovery2 -->
<g id="n9" class="node">
<title>n9</title>
<polygon fill="none" stroke="black" points="484,-347 484,-372 566,-372 566,-347 484,-347"/>
<text text-anchor="start" x="489" y="-355.8" font-family="Serif" font-size="14.00">recovery2</text>
</g>
<!-- n1p4&#45;&gt;n9 -->
<!-- I2 -->
<g id="e19" class="edge">
<title>n1p4:e&#45;&gt;n9:w</title>
<path fill="none" stroke="black" d="M1,-327C214.02,-327 267.47,-358.5 478,-358.99"/>
<polygon fill="black" stroke="black" points="478,-360.74 483,-359 478,-357.24 478,-360.74"/>
<text text-anchor="middle" x="173.5" y="-339.8" font-family="Serif" font-size="14.00">I2</text>
</g>
<!-- n13 -->
<!-- death2 -->
<g id="n13" class="node">
<title>n13</title>
<polygon fill="none" stroke="black" points="495,-236 495,-261 555,-261 555,-236 495,-236"/>
<text text-anchor="start" x="500" y="-244.8" font-family="Serif" font-size="14.00">death2</text>
</g>
<!-- n1p4&#45;&gt;n13 -->
<!-- I2 -->
<g id="e23" class="edge">
<title>n1p4:e&#45;&gt;n13:w</title>
<path fill="none" stroke="black" d="M1,-327C30.98,-327 -4.59,-280.5 19,-262 100.8,-197.85 379.5,-246.43 488.92,-247.96"/>
<polygon fill="black" stroke="black" points="488.99,-249.71 494,-248 489.01,-246.21 488.99,-249.71"/>
<text text-anchor="middle" x="173.5" y="-233.8" font-family="Serif" font-size="14.00">I2</text>
</g>
<!-- n1p6 -->
<!-- n1p5&#45;&gt;n1p6 -->
<!-- n2p5 -->
<!-- n1p5&#45;&gt;n2p5 -->
<!-- A -->
<g id="e5" class="edge">
<title>n1p5:e&#45;&gt;n2p5:w</title>
<path fill="none" stroke="black" d="M1,-210C85.79,-210 694.29,-149.73 764,-198 777.29,-207.2 798.3,-324.07 815.32,-344.09"/>
<polygon fill="black" stroke="black" points="814.83,-345.85 820,-347 816.67,-342.88 814.83,-345.85"/>
<text text-anchor="middle" x="407" y="-189.8" font-family="Serif" font-size="14.00">A</text>
</g>
<!-- n1p5&#45;&gt;n6 -->
<!-- A -->
<g id="e16" class="edge">
<title>n1p5:e&#45;&gt;n6:w</title>
<path fill="none" stroke="black" d="M1,-210C30.59,-210 28.51,-309.92 34,-339 37.08,-355.29 36.09,-477.15 49.74,-497.98"/>
<polygon fill="black" stroke="black" points="48.91,-499.53 54,-501 50.94,-496.68 48.91,-499.53"/>
<text text-anchor="middle" x="26.5" y="-342.8" font-family="Serif" font-size="14.00">A</text>
</g>
<!-- n10 -->
<!-- asymptomatic_recovery -->
<g id="n10" class="node">
<title>n10</title>
<polygon fill="none" stroke="black" points="435,-440 435,-465 615,-465 615,-440 435,-440"/>
<text text-anchor="start" x="440" y="-448.8" font-family="Serif" font-size="14.00">asymptomatic_recovery</text>
</g>
<!-- n1p5&#45;&gt;n10 -->
<!-- A -->
<g id="e20" class="edge">
<title>n1p5:e&#45;&gt;n10:w</title>
<path fill="none" stroke="black" d="M1,-210C17.3,-210 21.02,-216.14 34,-226 122.26,-293.05 102.04,-359.3 199,-413 290.46,-463.65 327.45,-452.4 429.76,-452.01"/>
<polygon fill="black" stroke="black" points="430,-453.76 435,-452 430,-450.26 430,-453.76"/>
<text text-anchor="middle" x="173.5" y="-405.8" font-family="Serif" font-size="14.00">A</text>
</g>
<!-- n1p7 -->
<!-- n1p6&#45;&gt;n1p7 -->
<!-- n2p6 -->
<!-- n1p6&#45;&gt;n2p6 -->
<!-- R -->
<g id="e6" class="edge">
<title>n1p6:e&#45;&gt;n2p6:w</title>
<path fill="none" stroke="black" d="M1,-133C85.85,-133 693.3,-118.09 764,-165 784.42,-178.55 792.64,-257.45 815,-267.86"/>
<polygon fill="black" stroke="black" points="814.74,-269.6 820,-269 815.51,-266.19 814.74,-269.6"/>
<text text-anchor="middle" x="407" y="-135.8" font-family="Serif" font-size="14.00">R</text>
</g>
<!-- n12 -->
<!-- recover_late -->
<g id="n12" class="node">
<title>n12</title>
<polygon fill="none" stroke="black" points="666,-207 666,-232 764,-232 764,-207 666,-207"/>
<text text-anchor="start" x="671" y="-215.8" font-family="Serif" font-size="14.00">recover_late</text>
</g>
<!-- n1p6&#45;&gt;n12 -->
<!-- R -->
<g id="e22" class="edge">
<title>n1p6:e&#45;&gt;n12:w</title>
<path fill="none" stroke="black" d="M1,-133C10.87,-133 9.61,-123.04 19,-120 73.55,-102.36 91.18,-112.38 148,-120 261.7,-135.25 284.36,-166.26 397,-188 513.44,-210.47 544.74,-218.76 660.77,-218.99"/>
<polygon fill="black" stroke="black" points="661,-220.74 666,-219 661,-217.24 661,-220.74"/>
<text text-anchor="middle" x="289" y="-188.8" font-family="Serif" font-size="14.00">R</text>
</g>
<!-- n1p8 -->
<!-- n1p7&#45;&gt;n1p8 -->
<!-- n2p7 -->
<!-- n1p7&#45;&gt;n2p7 -->
<!-- R2 -->
<g id="e7" class="edge">
<title>n1p7:e&#45;&gt;n2p7:w</title>
<path fill="none" stroke="black" d="M1,-72C45.64,-72 54.36,-50 99,-50 99,-50 99,-50 641.5,-50 696.9,-50 712.52,-52.53 764,-73 789.78,-83.25 790.44,-105.92 814.8,-108.72"/>
<polygon fill="black" stroke="black" points="814.91,-110.47 820,-109 815.1,-106.98 814.91,-110.47"/>
<text text-anchor="middle" x="407" y="-53.8" font-family="Serif" font-size="14.00">R2</text>
</g>
<!-- n2p8 -->
<!-- n1p8&#45;&gt;n2p8 -->
<!-- D -->
<g id="e8" class="edge">
<title>n1p8:e&#45;&gt;n2p8:w</title>
<path fill="none" stroke="black" d="M1,-12C44.56,-12 55.44,-12 99,-12 99,-12 99,-12 716,-12 763.34,-12 770.47,-46.44 814.98,-48.87"/>
<polygon fill="black" stroke="black" points="814.96,-50.62 820,-49 815.05,-47.12 814.96,-50.62"/>
<text text-anchor="middle" x="407" y="-15.8" font-family="Serif" font-size="14.00">D</text>
</g>
<!-- n2p1&#45;&gt;n2p2 -->
<!-- n2p2&#45;&gt;n2p3 -->
<!-- n2p3&#45;&gt;n2p4 -->
<!-- n2p4&#45;&gt;n2p5 -->
<!-- n2p5&#45;&gt;n2p6 -->
<!-- n2p6&#45;&gt;n2p7 -->
<!-- n2p7&#45;&gt;n2p8 -->
<!-- n3&#45;&gt;n2p2 -->
<!-- E -->
<g id="e24" class="edge">
<title>n3:e&#45;&gt;n2p2:w</title>
<path fill="none" stroke="black" d="M147,-834C165.09,-834 150.51,-860.66 166,-870 171.71,-873.44 174.33,-870.06 181,-870 463.23,-867.35 535.04,-858.12 814.62,-858"/>
<polygon fill="black" stroke="black" points="815,-859.75 820,-858 815,-856.25 815,-859.75"/>
<text text-anchor="middle" x="525" y="-867.8" font-family="Serif" font-size="14.00">E</text>
</g>
<!-- n3&#45;&gt;n8 -->
<!-- E -->
<g id="e25" class="edge">
<title>n3:e&#45;&gt;n8:w</title>
<path fill="none" stroke="black" d="M147,-834C164.79,-834 161.91,-692.32 166,-675 166.54,-672.73 188.52,-606.42 196.41,-587.81"/>
<polygon fill="black" stroke="black" points="198.17,-588.23 199,-583 195.09,-586.57 198.17,-588.23"/>
<text text-anchor="middle" x="173.5" y="-678.8" font-family="Serif" font-size="14.00">E</text>
</g>
<!-- n3&#45;&gt;n11 -->
<!-- E -->
<g id="e26" class="edge">
<title>n3:e&#45;&gt;n11:w</title>
<path fill="none" stroke="black" d="M147,-834C158.33,-834 157.05,-823.95 166,-817 204.33,-787.24 209.38,-756.26 254.86,-754.12"/>
<polygon fill="black" stroke="black" points="255.04,-755.86 260,-754 254.96,-752.37 255.04,-755.86"/>
<text text-anchor="middle" x="173.5" y="-820.8" font-family="Serif" font-size="14.00">E</text>
</g>
<!-- n4&#45;&gt;n2p2 -->
<!-- E -->
<g id="e27" class="edge">
<title>n4:e&#45;&gt;n2p2:w</title>
<path fill="none" stroke="black" d="M139,-900C205.34,-900 221.66,-909 288,-909 288,-909 288,-909 716,-909 757.61,-909 766.18,-893.17 802,-872 808.95,-867.89 809.82,-861.44 815.01,-858.99"/>
<polygon fill="black" stroke="black" points="815.44,-860.69 820,-858 814.75,-857.26 815.44,-860.69"/>
<text text-anchor="middle" x="525" y="-912.8" font-family="Serif" font-size="14.00">E</text>
</g>
<!-- n4&#45;&gt;n8 -->
<!-- E -->
<g id="e28" class="edge">
<title>n4:e&#45;&gt;n8:w</title>
<path fill="none" stroke="black" d="M139,-900C154.2,-900 144.37,-881.76 148,-867 156.91,-830.77 157.8,-821.4 166,-785 172.51,-756.08 175.73,-749.18 181,-720 183.46,-706.37 183.64,-605.79 194.93,-586.27"/>
<polygon fill="black" stroke="black" points="196.2,-587.5 199,-583 194.01,-584.77 196.2,-587.5"/>
<text text-anchor="middle" x="173.5" y="-788.8" font-family="Serif" font-size="14.00">E</text>
</g>
<!-- n4&#45;&gt;n11 -->
<!-- E -->
<g id="e29" class="edge">
<title>n4:e&#45;&gt;n11:w</title>
<path fill="none" stroke="black" d="M139,-900C158.67,-900 228.71,-772.75 255.07,-755.85"/>
<polygon fill="black" stroke="black" points="255.93,-757.39 260,-754 254.7,-754.12 255.93,-757.39"/>
<text text-anchor="middle" x="173.5" y="-875.8" font-family="Serif" font-size="14.00">E</text>
</g>
<!-- n5&#45;&gt;n2p2 -->
<!-- E -->
<g id="e30" class="edge">
<title>n5:e&#45;&gt;n2p2:w</title>
<path fill="none" stroke="black" d="M148,-682C210.22,-682 225.78,-682 288,-682 288,-682 288,-682 716,-682 759.65,-682 773.49,-844.52 814.82,-857.22"/>
<polygon fill="black" stroke="black" points="814.79,-858.98 820,-858 815.32,-855.52 814.79,-858.98"/>
<text text-anchor="middle" x="525" y="-685.8" font-family="Serif" font-size="14.00">E</text>
</g>
<!-- n5&#45;&gt;n8 -->
<!-- E -->
<g id="e31" class="edge">
<title>n5:e&#45;&gt;n8:w</title>
<path fill="none" stroke="black" d="M148,-682C178.83,-682 150.37,-641.58 166,-615 170.41,-607.5 183.83,-589.57 194.03,-584.41"/>
<polygon fill="black" stroke="black" points="194.67,-586.05 199,-583 193.71,-582.68 194.67,-586.05"/>
<text text-anchor="middle" x="173.5" y="-618.8" font-family="Serif" font-size="14.00">E</text>
</g>
<!-- n5&#45;&gt;n11 -->
<!-- E -->
<g id="e32" class="edge">
<title>n5:e&#45;&gt;n11:w</title>
<path fill="none" stroke="black" d="M148,-682C149.64,-682 234.98,-738.61 255.58,-751.44"/>
<polygon fill="black" stroke="black" points="254.8,-753 260,-754 256.55,-749.98 254.8,-753"/>
<text text-anchor="middle" x="173.5" y="-704.8" font-family="Serif" font-size="14.00">E</text>
</g>
<!-- n6&#45;&gt;n2p2 -->
<!-- E -->
<g id="e33" class="edge">
<title>n6:e&#45;&gt;n2p2:w</title>
<path fill="none" stroke="black" d="M147,-513C156,-513 157.14,-507.58 166,-506 172.56,-504.83 174.34,-505.65 181,-506 286.33,-511.56 314.57,-505.85 417,-531 578.02,-570.54 652.11,-545.63 764,-668 767.36,-671.68 806.1,-824.73 817.43,-853.4"/>
<polygon fill="black" stroke="black" points="816.04,-854.49 820,-858 819.09,-852.78 816.04,-854.49"/>
<text text-anchor="middle" x="525" y="-573.8" font-family="Serif" font-size="14.00">E</text>
</g>
<!-- n6&#45;&gt;n8 -->
<!-- E -->
<g id="e34" class="edge">
<title>n6:e&#45;&gt;n8:w</title>
<path fill="none" stroke="black" d="M147,-513C162.12,-513 169.17,-504.58 181,-514 204.24,-532.51 171.87,-576.96 193.85,-582.44"/>
<polygon fill="black" stroke="black" points="193.84,-584.2 199,-583 194.22,-580.72 193.84,-584.2"/>
<text text-anchor="middle" x="173.5" y="-517.8" font-family="Serif" font-size="14.00">E</text>
</g>
<!-- n6&#45;&gt;n11 -->
<!-- E -->
<g id="e35" class="edge">
<title>n6:e&#45;&gt;n11:w</title>
<path fill="none" stroke="black" d="M147,-513C175.07,-513 225.02,-730.14 255.31,-752.2"/>
<polygon fill="black" stroke="black" points="254.7,-753.84 260,-754 255.96,-750.57 254.7,-753.84"/>
<text text-anchor="middle" x="173.5" y="-569.8" font-family="Serif" font-size="14.00">E</text>
</g>
<!-- n7&#45;&gt;n2p4 -->
<!-- I2 -->
<g id="e36" class="edge">
<title>n7:e&#45;&gt;n2p4:w</title>
<path fill="none" stroke="black" d="M338,-391C364.41,-391 370.68,-395.88 397,-398 582.82,-412.96 630.94,-415.95 814.8,-416"/>
<polygon fill="black" stroke="black" points="815,-417.75 820,-416 815,-414.25 815,-417.75"/>
<text text-anchor="middle" x="640.5" y="-418.8" font-family="Serif" font-size="14.00">I2</text>
</g>
<!-- n7&#45;&gt;n9 -->
<!-- I2 -->
<g id="e37" class="edge">
<title>n7:e&#45;&gt;n9:w</title>
<path fill="none" stroke="black" d="M338,-391C402.19,-391 416.25,-360.73 477.7,-359.07"/>
<polygon fill="black" stroke="black" points="478.02,-360.82 483,-359 477.98,-357.32 478.02,-360.82"/>
<text text-anchor="middle" x="407" y="-383.8" font-family="Serif" font-size="14.00">I2</text>
</g>
<!-- n7&#45;&gt;n13 -->
<!-- I2 -->
<g id="e38" class="edge">
<title>n7:e&#45;&gt;n13:w</title>
<path fill="none" stroke="black" d="M338,-391C393.09,-391 355.08,-317.74 397,-282 430.41,-253.52 447,-248.38 488.78,-248.02"/>
<polygon fill="black" stroke="black" points="489.01,-249.77 494,-248 488.99,-246.27 489.01,-249.77"/>
<text text-anchor="middle" x="407" y="-285.8" font-family="Serif" font-size="14.00">I2</text>
</g>
<!-- n8&#45;&gt;n2p5 -->
<!-- A -->
<g id="e39" class="edge">
<title>n8:e&#45;&gt;n2p5:w</title>
<path fill="none" stroke="black" d="M379,-583C484.43,-583 520.15,-605.03 615,-559 672.46,-531.12 750.39,-356.21 814.98,-347.35"/>
<polygon fill="black" stroke="black" points="815.13,-349.09 820,-347 814.89,-345.6 815.13,-349.09"/>
<text text-anchor="middle" x="640.5" y="-550.8" font-family="Serif" font-size="14.00">A</text>
</g>
<!-- n8&#45;&gt;n10 -->
<!-- A -->
<g id="e40" class="edge">
<title>n8:e&#45;&gt;n10:w</title>
<path fill="none" stroke="black" d="M379,-583C389.14,-583 413.11,-509.37 417,-500 425,-480.77 414.38,-456.59 429.89,-452.58"/>
<polygon fill="black" stroke="black" points="430.23,-454.3 435,-452 429.84,-450.82 430.23,-454.3"/>
<text text-anchor="middle" x="407" y="-555.8" font-family="Serif" font-size="14.00">A</text>
</g>
<!-- n9&#45;&gt;n2p6 -->
<!-- R -->
<g id="e41" class="edge">
<title>n9:e&#45;&gt;n2p6:w</title>
<path fill="none" stroke="black" d="M567,-359C611.74,-359 593.02,-303.07 633,-283 705.89,-246.41 735.38,-268.02 814.7,-268.97"/>
<polygon fill="black" stroke="black" points="814.99,-270.72 820,-269 815.01,-267.22 814.99,-270.72"/>
<text text-anchor="middle" x="715" y="-272.8" font-family="Serif" font-size="14.00">R</text>
</g>
<!-- n9&#45;&gt;n12 -->
<!-- R -->
<g id="e42" class="edge">
<title>n9:e&#45;&gt;n12:w</title>
<path fill="none" stroke="black" d="M567,-359C641.42,-359 592.22,-225.49 660.85,-219.23"/>
<polygon fill="black" stroke="black" points="661.08,-220.97 666,-219 660.93,-217.47 661.08,-220.97"/>
<text text-anchor="middle" x="640.5" y="-237.8" font-family="Serif" font-size="14.00">R</text>
</g>
<!-- n10&#45;&gt;n2p6 -->
<!-- R -->
<g id="e43" class="edge">
<title>n10:e&#45;&gt;n2p6:w</title>
<path fill="none" stroke="black" d="M615,-452C642.42,-452 616.52,-414.91 633,-393 686.88,-321.38 729.01,-335 802,-283 808.58,-278.31 809.67,-272.21 814.97,-269.92"/>
<polygon fill="black" stroke="black" points="815.4,-271.62 820,-269 814.77,-268.18 815.4,-271.62"/>
<text text-anchor="middle" x="715" y="-360.8" font-family="Serif" font-size="14.00">R</text>
</g>
<!-- n10&#45;&gt;n12 -->
<!-- R -->
<g id="e44" class="edge">
<title>n10:e&#45;&gt;n12:w</title>
<path fill="none" stroke="black" d="M615,-452C638.67,-452 628.04,-370.15 633,-347 635.79,-333.98 648.56,-239.43 661.87,-221.82"/>
<polygon fill="black" stroke="black" points="662.86,-223.26 666,-219 660.88,-220.37 662.86,-223.26"/>
<text text-anchor="middle" x="640.5" y="-350.8" font-family="Serif" font-size="14.00">R</text>
</g>
<!-- n11&#45;&gt;n2p3 -->
<!-- I -->
<g id="e45" class="edge">
<title>n11:e&#45;&gt;n2p3:w</title>
<path fill="none" stroke="black" d="M318,-754C452.09,-754 491.88,-754.12 615,-701 717.52,-656.77 706.94,-552.33 814.77,-549.08"/>
<polygon fill="black" stroke="black" points="815.03,-550.82 820,-549 814.97,-547.32 815.03,-550.82"/>
<text text-anchor="middle" x="640.5" y="-693.8" font-family="Serif" font-size="14.00">I</text>
</g>
<!-- n12&#45;&gt;n2p7 -->
<!-- R2 -->
<g id="e46" class="edge">
<title>n12:e&#45;&gt;n2p7:w</title>
<path fill="none" stroke="black" d="M764,-219C817.04,-219 768.59,-116.18 814.89,-109.36"/>
<polygon fill="black" stroke="black" points="815.13,-111.09 820,-109 814.89,-107.6 815.13,-111.09"/>
<text text-anchor="middle" x="792" y="-215.8" font-family="Serif" font-size="14.00">R2</text>
</g>
<!-- n13&#45;&gt;n2p8 -->
<!-- D -->
<g id="e47" class="edge">
<title>n13:e&#45;&gt;n2p8:w</title>
<path fill="none" stroke="black" d="M556,-248C627.75,-248 741.07,-58.22 814.76,-49.32"/>
<polygon fill="black" stroke="black" points="815.12,-51.05 820,-49 814.9,-47.56 815.12,-51.05"/>
<text text-anchor="middle" x="715" y="-172.8" font-family="Serif" font-size="14.00">D</text>
</g>
</g>
</svg>
