<?xml version="1.0" encoding="UTF-8" standalone="no"?>
<!DOCTYPE svg PUBLIC "-//W3C//DTD SVG 1.1//EN"
 "http://www.w3.org/Graphics/SVG/1.1/DTD/svg11.dtd">
<!-- Generated by graphviz version 2.44.0 (0)
 -->
<!-- Title: G Pages: 1 -->
<svg width="204pt" height="1128pt"
 viewBox="0.00 0.00 204.00 1128.00" xmlns="http://www.w3.org/2000/svg" xmlns:xlink="http://www.w3.org/1999/xlink">
<g id="graph0" class="graph" transform="scale(1 1) rotate(0) translate(4 1124)">
<title>G</title>
<polygon fill="white" stroke="transparent" points="-4,4 -4,-1124 200,-1124 200,4 -4,4"/>
<!-- n1p1 -->
<!-- n1p2 -->
<!-- n1p1&#45;&gt;n1p2 -->
<!-- n2p1 -->
<!-- n1p1&#45;&gt;n2p1 -->
<!-- S -->
<g id="e1" class="edge">
<title>n1p1:e&#45;&gt;n2p1:w</title>
<path fill="none" stroke="black" d="M1,-1004C24.62,-1004 7.56,-1033.34 19,-1054 30.5,-1074.77 30.65,-1085.62 52,-1096 90.37,-1114.65 105.72,-1101.74 148,-1096 167.63,-1093.34 172.53,-1084.68 189.78,-1083.21"/>
<polygon fill="black" stroke="black" points="190.08,-1084.95 195,-1083 189.93,-1081.46 190.08,-1084.95"/>
<text text-anchor="middle" x="100" y="-1108.8" font-family="Serif" font-size="14.00">S</text>
</g>
<!-- n3 -->
<!-- exposure -->
<g id="n3" class="node">
<title>n3</title>
<polygon fill="none" stroke="black" points="62,-940 62,-988 138,-988 138,-940 62,-940"/>
<text text-anchor="start" x="67" y="-960.3" font-family="Serif" font-size="14.00">exposure</text>
</g>
<!-- n1p1&#45;&gt;n3 -->
<!-- S -->
<g id="e17" class="edge">
<title>n1p1:e&#45;&gt;n3:w</title>
<path fill="none" stroke="black" d="M1,-1004C28.59,-1004 31.32,-979.39 55.8,-976.31"/>
<polygon fill="black" stroke="black" points="56.11,-978.05 61,-976 55.9,-974.56 56.11,-978.05"/>
<text text-anchor="middle" x="26.5" y="-1002.8" font-family="Serif" font-size="14.00">S</text>
</g>
<!-- n4 -->
<!-- exposure_i2 -->
<g id="n4" class="node">
<title>n4</title>
<polygon fill="none" stroke="black" points="52,-874 52,-922 148,-922 148,-874 52,-874"/>
<text text-anchor="start" x="57" y="-894.3" font-family="Serif" font-size="14.00">exposure_i2</text>
</g>
<!-- n1p1&#45;&gt;n4 -->
<!-- S -->
<g id="e19" class="edge">
<title>n1p1:e&#45;&gt;n4:w</title>
<path fill="none" stroke="black" d="M1,-1004C35.28,-1004 -1.53,-956.46 19,-929 28.03,-916.93 33.73,-911.29 46.82,-910.2"/>
<polygon fill="black" stroke="black" points="47.07,-911.94 52,-910 46.94,-908.44 47.07,-911.94"/>
<text text-anchor="middle" x="26.5" y="-932.8" font-family="Serif" font-size="14.00">S</text>
</g>
<!-- n5 -->
<!-- exposure_e -->
<g id="n5" class="node">
<title>n5</title>
<polygon fill="none" stroke="black" points="55,-1006 55,-1054 146,-1054 146,-1006 55,-1006"/>
<text text-anchor="start" x="60" y="-1026.3" font-family="Serif" font-size="14.00">exposure_e</text>
</g>
<!-- n1p1&#45;&gt;n5 -->
<!-- S -->
<g id="e21" class="edge">
<title>n1p1:e&#45;&gt;n5:w</title>
<path fill="none" stroke="black" d="M1,-1004C12.63,-1004 9.77,-1015.92 19,-1023 31.5,-1032.6 35.46,-1040.17 48.68,-1041.71"/>
<polygon fill="black" stroke="black" points="48.91,-1043.48 54,-1042 49.1,-1039.98 48.91,-1043.48"/>
<text text-anchor="middle" x="26.5" y="-1038.8" font-family="Serif" font-size="14.00">S</text>
</g>
<!-- n6 -->
<!-- exposure_a -->
<g id="n6" class="node">
<title>n6</title>
<polygon fill="none" stroke="black" points="55,-808 55,-856 146,-856 146,-808 55,-808"/>
<text text-anchor="start" x="60" y="-828.3" font-family="Serif" font-size="14.00">exposure_a</text>
</g>
<!-- n1p1&#45;&gt;n6 -->
<!-- S -->
<g id="e23" class="edge">
<title>n1p1:e&#45;&gt;n6:w</title>
<path fill="none" stroke="black" d="M1,-1004C34.79,-1004 -3.25,-878.43 19,-853 28.42,-842.23 36.08,-843.51 48.99,-843.91"/>
<polygon fill="black" stroke="black" points="48.97,-845.66 54,-844 49.03,-842.16 48.97,-845.66"/>
<text text-anchor="middle" x="26.5" y="-856.8" font-family="Serif" font-size="14.00">S</text>
</g>
<!-- n1p3 -->
<!-- n1p2&#45;&gt;n1p3 -->
<!-- n2p2 -->
<!-- n1p2&#45;&gt;n2p2 -->
<!-- E -->
<g id="e2" class="edge">
<title>n1p2:e&#45;&gt;n2p2:w</title>
<path fill="none" stroke="black" d="M1,-944C34.85,-944 4.72,-987.31 19,-1018 29.47,-1040.48 29.88,-1051.79 52,-1063 90.06,-1082.29 109.76,-1081.92 148,-1063 167.04,-1053.58 167.39,-1043.95 177,-1025 188.89,-1001.56 169.8,-968.98 189.77,-964.51"/>
<polygon fill="black" stroke="black" points="190.2,-966.23 195,-964 189.85,-962.75 190.2,-966.23"/>
<text text-anchor="middle" x="100" y="-1080.8" font-family="Serif" font-size="14.00">E</text>
</g>
<!-- n1p4 -->
<!-- n1p3&#45;&gt;n1p4 -->
<!-- n2p3 -->
<!-- n1p3&#45;&gt;n2p3 -->
<!-- I -->
<g id="e3" class="edge">
<title>n1p3:e&#45;&gt;n2p3:w</title>
<path fill="none" stroke="black" d="M1,-792C23.94,-792 29.13,-785.78 52,-784 94.54,-780.68 105.48,-780.41 148,-784 167.3,-785.63 172.88,-790.96 189.88,-791.87"/>
<polygon fill="black" stroke="black" points="189.96,-793.62 195,-792 190.05,-790.12 189.96,-793.62"/>
<text text-anchor="middle" x="100" y="-787.8" font-family="Serif" font-size="14.00">I</text>
</g>
<!-- n1p5 -->
<!-- n1p4&#45;&gt;n1p5 -->
<!-- n2p4 -->
<!-- n1p4&#45;&gt;n2p4 -->
<!-- I2 -->
<g id="e4" class="edge">
<title>n1p4:e&#45;&gt;n2p4:w</title>
<path fill="none" stroke="black" d="M1,-732C85.37,-732 107.82,-732 189.53,-732"/>
<polygon fill="black" stroke="black" points="190,-733.75 195,-732 190,-730.25 190,-733.75"/>
<text text-anchor="middle" x="100" y="-735.8" font-family="Serif" font-size="14.00">I2</text>
</g>
<!-- n1p6 -->
<!-- n1p5&#45;&gt;n1p6 -->
<!-- n2p5 -->
<!-- n1p5&#45;&gt;n2p5 -->
<!-- A -->
<g id="e5" class="edge">
<title>n1p5:e&#45;&gt;n2p5:w</title>
<path fill="none" stroke="black" d="M1,-672C85.37,-672 107.82,-672 189.53,-672"/>
<polygon fill="black" stroke="black" points="190,-673.75 195,-672 190,-670.25 190,-673.75"/>
<text text-anchor="middle" x="100" y="-675.8" font-family="Serif" font-size="14.00">A</text>
</g>
<!-- n1p7 -->
<!-- n1p6&#45;&gt;n1p7 -->
<!-- n2p6 -->
<!-- n1p6&#45;&gt;n2p6 -->
<!-- R -->
<g id="e6" class="edge">
<title>n1p6:e&#45;&gt;n2p6:w</title>
<path fill="none" stroke="black" d="M1,-612C85.37,-612 107.82,-612 189.53,-612"/>
<polygon fill="black" stroke="black" points="190,-613.75 195,-612 190,-610.25 190,-613.75"/>
<text text-anchor="middle" x="100" y="-615.8" font-family="Serif" font-size="14.00">R</text>
</g>
<!-- n1p8 -->
<!-- n1p7&#45;&gt;n1p8 -->
<!-- n2p7 -->
<!-- n1p7&#45;&gt;n2p7 -->
<!-- R2 -->
<g id="e7" class="edge">
<title>n1p7:e&#45;&gt;n2p7:w</title>
<path fill="none" stroke="black" d="M1,-552C85.37,-552 107.82,-552 189.53,-552"/>
<polygon fill="black" stroke="black" points="190,-553.75 195,-552 190,-550.25 190,-553.75"/>
<text text-anchor="middle" x="100" y="-555.8" font-family="Serif" font-size="14.00">R2</text>
</g>
<!-- n1p9 -->
<!-- n1p8&#45;&gt;n1p9 -->
<!-- n2p8 -->
<!-- n1p8&#45;&gt;n2p8 -->
<!-- D -->
<g id="e8" class="edge">
<title>n1p8:e&#45;&gt;n2p8:w</title>
<path fill="none" stroke="black" d="M1,-492C85.37,-492 107.82,-492 189.53,-492"/>
<polygon fill="black" stroke="black" points="190,-493.75 195,-492 190,-490.25 190,-493.75"/>
<text text-anchor="middle" x="100" y="-495.8" font-family="Serif" font-size="14.00">D</text>
</g>
<!-- n1p10 -->
<!-- n1p9&#45;&gt;n1p10 -->
<!-- n2p9 -->
<!-- n1p9&#45;&gt;n2p9 -->
<!-- S -->
<g id="e9" class="edge">
<title>n1p9:e&#45;&gt;n2p9:w</title>
<path fill="none" stroke="black" d="M1,-432C85.37,-432 107.82,-432 189.53,-432"/>
<polygon fill="black" stroke="black" points="190,-433.75 195,-432 190,-430.25 190,-433.75"/>
<text text-anchor="middle" x="100" y="-435.8" font-family="Serif" font-size="14.00">S</text>
</g>
<!-- n1p11 -->
<!-- n1p10&#45;&gt;n1p11 -->
<!-- n2p10 -->
<!-- n1p10&#45;&gt;n2p10 -->
<!-- E -->
<g id="e10" class="edge">
<title>n1p10:e&#45;&gt;n2p10:w</title>
<path fill="none" stroke="black" d="M1,-372C85.37,-372 107.82,-372 189.53,-372"/>
<polygon fill="black" stroke="black" points="190,-373.75 195,-372 190,-370.25 190,-373.75"/>
<text text-anchor="middle" x="100" y="-375.8" font-family="Serif" font-size="14.00">E</text>
</g>
<!-- n1p10&#45;&gt;n5 -->
<!-- E -->
<g id="e22" class="edge">
<title>n1p10:e&#45;&gt;n5:w</title>
<path fill="none" stroke="black" d="M1,-372C32.79,-372 9.76,-913.58 19,-944 22.66,-956.04 28.31,-956.78 34,-968 43.9,-987.51 32.41,-1013.13 48.65,-1017.39"/>
<polygon fill="black" stroke="black" points="48.83,-1019.17 54,-1018 49.23,-1015.69 48.83,-1019.17"/>
<text text-anchor="middle" x="26.5" y="-971.8" font-family="Serif" font-size="14.00">E</text>
</g>
<!-- n1p12 -->
<!-- n1p11&#45;&gt;n1p12 -->
<!-- n2p11 -->
<!-- n1p11&#45;&gt;n2p11 -->
<!-- I -->
<g id="e11" class="edge">
<title>n1p11:e&#45;&gt;n2p11:w</title>
<path fill="none" stroke="black" d="M1,-312C85.37,-312 107.82,-312 189.53,-312"/>
<polygon fill="black" stroke="black" points="190,-313.75 195,-312 190,-310.25 190,-313.75"/>
<text text-anchor="middle" x="100" y="-315.8" font-family="Serif" font-size="14.00">I</text>
</g>
<!-- n1p11&#45;&gt;n3 -->
<!-- I -->
<g id="e18" class="edge">
<title>n1p11:e&#45;&gt;n3:w</title>
<path fill="none" stroke="black" d="M1,-312C31.91,-312 10.76,-838.21 19,-868 22.66,-881.23 27.73,-882.79 34,-895 45.96,-918.28 34.69,-947.77 55.95,-951.59"/>
<polygon fill="black" stroke="black" points="55.87,-953.34 61,-952 56.16,-949.85 55.87,-953.34"/>
<text text-anchor="middle" x="26.5" y="-898.8" font-family="Serif" font-size="14.00">I</text>
</g>
<!-- n1p13 -->
<!-- n1p12&#45;&gt;n1p13 -->
<!-- n2p12 -->
<!-- n1p12&#45;&gt;n2p12 -->
<!-- I2 -->
<g id="e12" class="edge">
<title>n1p12:e&#45;&gt;n2p12:w</title>
<path fill="none" stroke="black" d="M1,-252C85.37,-252 107.82,-252 189.53,-252"/>
<polygon fill="black" stroke="black" points="190,-253.75 195,-252 190,-250.25 190,-253.75"/>
<text text-anchor="middle" x="100" y="-255.8" font-family="Serif" font-size="14.00">I2</text>
</g>
<!-- n1p12&#45;&gt;n4 -->
<!-- I2 -->
<g id="e20" class="edge">
<title>n1p12:e&#45;&gt;n4:w</title>
<path fill="none" stroke="black" d="M1,-252C26.13,-252 16.25,-679.02 19,-704 20.02,-713.26 37.85,-855.21 48.84,-881.75"/>
<polygon fill="black" stroke="black" points="47.61,-883.03 52,-886 50.42,-880.94 47.61,-883.03"/>
<text text-anchor="middle" x="26.5" y="-813.8" font-family="Serif" font-size="14.00">I2</text>
</g>
<!-- n1p14 -->
<!-- n1p13&#45;&gt;n1p14 -->
<!-- n2p13 -->
<!-- n1p13&#45;&gt;n2p13 -->
<!-- A -->
<g id="e14" class="edge">
<title>n1p13:e&#45;&gt;n2p13:w</title>
<path fill="none" stroke="black" d="M1,-192C85.37,-192 107.82,-192 189.53,-192"/>
<polygon fill="black" stroke="black" points="190,-193.75 195,-192 190,-190.25 190,-193.75"/>
<text text-anchor="middle" x="100" y="-195.8" font-family="Serif" font-size="14.00">A</text>
</g>
<!-- n1p13&#45;&gt;n6 -->
<!-- A -->
<g id="e24" class="edge">
<title>n1p13:e&#45;&gt;n6:w</title>
<path fill="none" stroke="black" d="M1,-192C34.58,-192 20.3,-769.54 49.95,-816.92"/>
<polygon fill="black" stroke="black" points="48.96,-818.37 54,-820 51.08,-815.58 48.96,-818.37"/>
<text text-anchor="middle" x="26.5" y="-688.8" font-family="Serif" font-size="14.00">A</text>
</g>
<!-- n1p15 -->
<!-- n1p14&#45;&gt;n1p15 -->
<!-- n2p14 -->
<!-- n1p14&#45;&gt;n2p14 -->
<!-- R -->
<g id="e13" class="edge">
<title>n1p14:e&#45;&gt;n2p14:w</title>
<path fill="none" stroke="black" d="M1,-132C85.37,-132 107.82,-132 189.53,-132"/>
<polygon fill="black" stroke="black" points="190,-133.75 195,-132 190,-130.25 190,-133.75"/>
<text text-anchor="middle" x="100" y="-135.8" font-family="Serif" font-size="14.00">R</text>
</g>
<!-- n1p16 -->
<!-- n1p15&#45;&gt;n1p16 -->
<!-- n2p15 -->
<!-- n1p15&#45;&gt;n2p15 -->
<!-- R2 -->
<g id="e15" class="edge">
<title>n1p15:e&#45;&gt;n2p15:w</title>
<path fill="none" stroke="black" d="M1,-72C85.37,-72 107.82,-72 189.53,-72"/>
<polygon fill="black" stroke="black" points="190,-73.75 195,-72 190,-70.25 190,-73.75"/>
<text text-anchor="middle" x="100" y="-75.8" font-family="Serif" font-size="14.00">R2</text>
</g>
<!-- n2p16 -->
<!-- n1p16&#45;&gt;n2p16 -->
<!-- D -->
<g id="e16" class="edge">
<title>n1p16:e&#45;&gt;n2p16:w</title>
<path fill="none" stroke="black" d="M1,-12C85.37,-12 107.82,-12 189.53,-12"/>
<polygon fill="black" stroke="black" points="190,-13.75 195,-12 190,-10.25 190,-13.75"/>
<text text-anchor="middle" x="100" y="-15.8" font-family="Serif" font-size="14.00">D</text>
</g>
<!-- n2p1&#45;&gt;n2p2 -->
<!-- n2p2&#45;&gt;n2p3 -->
<!-- n2p3&#45;&gt;n2p4 -->
<!-- n2p4&#45;&gt;n2p5 -->
<!-- n2p5&#45;&gt;n2p6 -->
<!-- n2p6&#45;&gt;n2p7 -->
<!-- n2p7&#45;&gt;n2p8 -->
<!-- n2p8&#45;&gt;n2p9 -->
<!-- n2p9&#45;&gt;n2p10 -->
<!-- n2p10&#45;&gt;n2p11 -->
<!-- n2p11&#45;&gt;n2p12 -->
<!-- n2p12&#45;&gt;n2p13 -->
<!-- n2p13&#45;&gt;n2p14 -->
<!-- n2p14&#45;&gt;n2p15 -->
<!-- n2p15&#45;&gt;n2p16 -->
<!-- n3&#45;&gt;n2p2 -->
<!-- E -->
<g id="e25" class="edge">
<title>n3:e&#45;&gt;n2p2:w</title>
<path fill="none" stroke="black" d="M139,-964C162.04,-964 169.08,-964 189.75,-964"/>
<polygon fill="black" stroke="black" points="190,-965.75 195,-964 190,-962.25 190,-965.75"/>
<text text-anchor="middle" x="171.5" y="-967.8" font-family="Serif" font-size="14.00">E</text>
</g>
<!-- n4&#45;&gt;n2p2 -->
<!-- E -->
<g id="e26" class="edge">
<title>n4:e&#45;&gt;n2p2:w</title>
<path fill="none" stroke="black" d="M148,-898C164.32,-898 174.87,-952.21 190.11,-962.37"/>
<polygon fill="black" stroke="black" points="189.7,-964.08 195,-964 190.81,-960.76 189.7,-964.08"/>
<text text-anchor="middle" x="171.5" y="-945.8" font-family="Serif" font-size="14.00">E</text>
</g>
<!-- n5&#45;&gt;n2p2 -->
<!-- E -->
<g id="e27" class="edge">
<title>n5:e&#45;&gt;n2p2:w</title>
<path fill="none" stroke="black" d="M147,-1030C163.44,-1030 174.61,-975.79 190.06,-965.63"/>
<polygon fill="black" stroke="black" points="190.8,-967.23 195,-964 189.7,-963.91 190.8,-967.23"/>
<text text-anchor="middle" x="171.5" y="-1009.8" font-family="Serif" font-size="14.00">E</text>
</g>
<!-- n6&#45;&gt;n2p2 -->
<!-- E -->
<g id="e28" class="edge">
<title>n6:e&#45;&gt;n2p2:w</title>
<path fill="none" stroke="black" d="M147,-832C180.03,-832 165.83,-868.91 177,-900 186.33,-925.96 168.17,-959.23 189.77,-963.53"/>
<polygon fill="black" stroke="black" points="189.86,-965.3 195,-964 190.17,-961.81 189.86,-965.3"/>
<text text-anchor="middle" x="171.5" y="-903.8" font-family="Serif" font-size="14.00">E</text>
</g>
</g>
</svg>
