<?xml version="1.0" encoding="UTF-8" standalone="no"?>
<!DOCTYPE svg PUBLIC "-//W3C//DTD SVG 1.1//EN"
 "http://www.w3.org/Graphics/SVG/1.1/DTD/svg11.dtd">
<!-- Generated by graphviz version 2.43.0 (0)
 -->
<!-- Title: G Pages: 1 -->
<svg width="588pt" height="688pt"
 viewBox="0.00 0.00 587.98 687.50" xmlns="http://www.w3.org/2000/svg" xmlns:xlink="http://www.w3.org/1999/xlink">
<g id="graph0" class="graph" transform="scale(1 1) rotate(0) translate(4 683.5)">
<title>G</title>
<polygon fill="white" stroke="transparent" points="-4,4 -4,-683.5 583.98,-683.5 583.98,4 -4,4"/>
<!-- n1 -->
<g id="node1" class="node">
<title>n1</title>
<ellipse fill="#6c9ac3" stroke="#6c9ac3" cx="45.5" cy="-362.5" rx="45.49" ry="45.49"/>
<text text-anchor="middle" x="45.5" y="-358.8" font-family="Times,serif" font-size="14.00">Living1</text>
</g>
<!-- n3 -->
<g id="node3" class="node">
<title>n3</title>
<polygon fill="#e28f41" stroke="#e28f41" points="266.99,-679.5 136.99,-679.5 136.99,-549.5 266.99,-549.5 266.99,-679.5"/>
<text text-anchor="middle" x="201.99" y="-610.8" font-family="Times,serif" font-size="14.00">Living1_Living1</text>
</g>
<!-- n1&#45;&gt;n3 -->
<g id="edge4" class="edge">
<title>n1&#45;&gt;n3</title>
<path fill="none" stroke="black" d="M50.68,-408.08C56.85,-452.37 72,-519.35 108.99,-564.5 114.46,-571.17 121.06,-577.08 128.18,-582.3"/>
<polygon fill="black" stroke="black" points="126.51,-585.39 136.75,-588.09 130.43,-579.59 126.51,-585.39"/>
<text text-anchor="middle" x="113.99" y="-578.3" font-family="Times,serif" font-size="14.00">2</text>
</g>
<!-- n4 -->
<g id="node4" class="node">
<title>n4</title>
<polygon fill="#e28f41" stroke="#e28f41" points="266.99,-493.5 136.99,-493.5 136.99,-363.5 266.99,-363.5 266.99,-493.5"/>
<text text-anchor="middle" x="201.99" y="-424.8" font-family="Times,serif" font-size="14.00">Living1_Living2</text>
</g>
<!-- n1&#45;&gt;n4 -->
<g id="edge6" class="edge">
<title>n1&#45;&gt;n4</title>
<path fill="none" stroke="black" d="M86.23,-382.93C93.73,-386.58 101.56,-390.25 108.99,-393.5 114.85,-396.06 120.96,-398.62 127.12,-401.12"/>
<polygon fill="black" stroke="black" points="126.24,-404.54 136.82,-405 128.84,-398.04 126.24,-404.54"/>
<text text-anchor="middle" x="113.99" y="-401.3" font-family="Times,serif" font-size="14.00">1</text>
</g>
<!-- n5 -->
<g id="node5" class="node">
<title>n5</title>
<polygon fill="#e28f41" stroke="#e28f41" points="579.98,-443.5 449.98,-443.5 449.98,-313.5 579.98,-313.5 579.98,-443.5"/>
<text text-anchor="middle" x="514.98" y="-374.8" font-family="Times,serif" font-size="14.00">Living2_Living1</text>
</g>
<!-- n1&#45;&gt;n5 -->
<g id="edge10" class="edge">
<title>n1&#45;&gt;n5</title>
<path fill="none" stroke="black" d="M61.14,-405.29C75,-438.43 99.37,-482.02 136.99,-502.5 236.25,-556.53 363.08,-490.42 441.4,-435.94"/>
<polygon fill="black" stroke="black" points="443.61,-438.66 449.76,-430.04 439.57,-432.94 443.61,-438.66"/>
<text text-anchor="middle" x="289.99" y="-516.3" font-family="Times,serif" font-size="14.00">1</text>
</g>
<!-- n7 -->
<g id="node7" class="node">
<title>n7</title>
<polygon fill="#e28f41" stroke="#e28f41" points="236.99,-307.5 166.99,-307.5 166.99,-237.5 236.99,-237.5 236.99,-307.5"/>
<text text-anchor="middle" x="201.99" y="-268.8" font-family="Times,serif" font-size="14.00">disease</text>
</g>
<!-- n1&#45;&gt;n7 -->
<g id="edge18" class="edge">
<title>n1&#45;&gt;n7</title>
<path fill="none" stroke="black" d="M77.73,-330.35C87.19,-321.8 98.01,-313.12 108.99,-306.5 123.85,-297.55 141.45,-290.34 157.25,-284.9"/>
<polygon fill="black" stroke="black" points="158.42,-288.2 166.82,-281.74 156.23,-281.55 158.42,-288.2"/>
<text text-anchor="middle" x="113.99" y="-310.3" font-family="Times,serif" font-size="14.00">1</text>
</g>
<!-- n8 -->
<g id="node8" class="node">
<title>n8</title>
<polygon fill="#e28f41" stroke="#e28f41" points="231.49,-219 172.49,-219 172.49,-160 231.49,-160 231.49,-219"/>
<text text-anchor="middle" x="201.99" y="-185.8" font-family="Times,serif" font-size="14.00">strata</text>
</g>
<!-- n1&#45;&gt;n8 -->
<g id="edge19" class="edge">
<title>n1&#45;&gt;n8</title>
<path fill="none" stroke="black" d="M62.56,-320.07C73.12,-296.17 88.74,-266.92 108.99,-245.5 124.2,-229.42 145.01,-216.23 162.99,-206.71"/>
<polygon fill="black" stroke="black" points="164.78,-209.73 172.1,-202.06 161.6,-203.49 164.78,-209.73"/>
<text text-anchor="middle" x="113.99" y="-249.3" font-family="Times,serif" font-size="14.00">1</text>
</g>
<!-- n2 -->
<g id="node2" class="node">
<title>n2</title>
<ellipse fill="#6c9ac3" stroke="#6c9ac3" cx="358.49" cy="-210.5" rx="45.49" ry="45.49"/>
<text text-anchor="middle" x="358.49" y="-206.8" font-family="Times,serif" font-size="14.00">Living2</text>
</g>
<!-- n2&#45;&gt;n4 -->
<g id="edge15" class="edge">
<title>n2&#45;&gt;n4</title>
<path fill="none" stroke="black" d="M344.76,-254.04C334.53,-284.22 318.04,-324.27 294.99,-354.5 289.03,-362.32 282.06,-369.82 274.69,-376.82"/>
<polygon fill="black" stroke="black" points="272.22,-374.34 267.19,-383.67 276.94,-379.51 272.22,-374.34"/>
<text text-anchor="middle" x="289.99" y="-367.3" font-family="Times,serif" font-size="14.00">1</text>
</g>
<!-- n2&#45;&gt;n5 -->
<g id="edge2" class="edge">
<title>n2&#45;&gt;n5</title>
<path fill="none" stroke="black" d="M388.31,-245.04C398.76,-257.33 410.75,-271.16 421.98,-283.5 428.65,-290.82 435.68,-298.37 442.77,-305.86"/>
<polygon fill="black" stroke="black" points="440.43,-308.49 449.86,-313.33 445.51,-303.67 440.43,-308.49"/>
<text text-anchor="middle" x="426.98" y="-297.3" font-family="Times,serif" font-size="14.00">1</text>
</g>
<!-- n6 -->
<g id="node6" class="node">
<title>n6</title>
<polygon fill="#e28f41" stroke="#e28f41" points="579.98,-295.5 449.98,-295.5 449.98,-165.5 579.98,-165.5 579.98,-295.5"/>
<text text-anchor="middle" x="514.98" y="-226.8" font-family="Times,serif" font-size="14.00">Living2_Living2</text>
</g>
<!-- n2&#45;&gt;n6 -->
<g id="edge8" class="edge">
<title>n2&#45;&gt;n6</title>
<path fill="none" stroke="black" d="M403.76,-216.23C414.98,-217.68 427.33,-219.28 439.59,-220.87"/>
<polygon fill="black" stroke="black" points="439.48,-224.38 449.84,-222.2 440.38,-217.44 439.48,-224.38"/>
<text text-anchor="middle" x="426.98" y="-223.3" font-family="Times,serif" font-size="14.00">2</text>
</g>
<!-- n9 -->
<g id="node9" class="node">
<title>n9</title>
<polygon fill="#e28f41" stroke="#e28f41" points="549.98,-147.5 479.98,-147.5 479.98,-77.5 549.98,-77.5 549.98,-147.5"/>
<text text-anchor="middle" x="514.98" y="-108.8" font-family="Times,serif" font-size="14.00">disease</text>
</g>
<!-- n2&#45;&gt;n9 -->
<g id="edge20" class="edge">
<title>n2&#45;&gt;n9</title>
<path fill="none" stroke="black" d="M397.28,-186.53C419.62,-172.36 447.97,-154.37 471.14,-139.68"/>
<polygon fill="black" stroke="black" points="473.17,-142.53 479.74,-134.22 469.42,-136.62 473.17,-142.53"/>
<text text-anchor="middle" x="426.98" y="-174.3" font-family="Times,serif" font-size="14.00">1</text>
</g>
<!-- n10 -->
<g id="node10" class="node">
<title>n10</title>
<polygon fill="#e28f41" stroke="#e28f41" points="544.48,-59 485.48,-59 485.48,0 544.48,0 544.48,-59"/>
<text text-anchor="middle" x="514.98" y="-25.8" font-family="Times,serif" font-size="14.00">strata</text>
</g>
<!-- n2&#45;&gt;n10 -->
<g id="edge11" class="edge">
<title>n2&#45;&gt;n10</title>
<path fill="none" stroke="black" d="M376.96,-168.6C387.95,-144.94 403.52,-115.58 421.98,-92.5 432.22,-79.7 436.72,-78.13 449.98,-68.5 458.35,-62.42 467.7,-56.36 476.6,-50.89"/>
<polygon fill="black" stroke="black" points="478.56,-53.8 485.31,-45.63 474.94,-47.8 478.56,-53.8"/>
<text text-anchor="middle" x="426.98" y="-96.3" font-family="Times,serif" font-size="14.00">1</text>
</g>
<!-- n3&#45;&gt;n1 -->
<g id="edge1" class="edge">
<title>n3&#45;&gt;n1</title>
<path fill="none" stroke="black" d="M136.75,-567C126.52,-557.4 116.76,-546.76 108.99,-535.5 84.21,-499.58 68.08,-452.71 58.42,-416.82"/>
<polygon fill="black" stroke="black" points="61.77,-415.8 55.87,-407.01 55,-417.57 61.77,-415.8"/>
<text text-anchor="middle" x="113.99" y="-549.3" font-family="Times,serif" font-size="14.00">2</text>
</g>
<!-- n4&#45;&gt;n1 -->
<g id="edge9" class="edge">
<title>n4&#45;&gt;n1</title>
<path fill="none" stroke="black" d="M136.53,-382.61C130.75,-379.56 124.86,-376.8 118.99,-374.5 113.22,-372.24 107.03,-370.41 100.79,-368.92"/>
<polygon fill="black" stroke="black" points="101.5,-365.49 90.99,-366.85 100.05,-372.34 101.5,-365.49"/>
<text text-anchor="middle" x="113.99" y="-378.3" font-family="Times,serif" font-size="14.00">1</text>
</g>
<!-- n4&#45;&gt;n2 -->
<g id="edge12" class="edge">
<title>n4&#45;&gt;n2</title>
<path fill="none" stroke="black" d="M267.25,-417.67C277.48,-413.63 287.23,-408.09 294.99,-400.5 331.23,-365.06 346.46,-308.27 352.86,-265.99"/>
<polygon fill="black" stroke="black" points="356.36,-266.24 354.27,-255.85 349.43,-265.27 356.36,-266.24"/>
<text text-anchor="middle" x="289.99" y="-410.3" font-family="Times,serif" font-size="14.00">1</text>
</g>
<!-- n5&#45;&gt;n1 -->
<g id="edge13" class="edge">
<title>n5&#45;&gt;n1</title>
<path fill="none" stroke="black" d="M449.79,-362.48C406.4,-352.5 347.63,-340.62 294.99,-335.5 227.71,-328.96 150.31,-340.37 100.01,-350.32"/>
<polygon fill="black" stroke="black" points="99.11,-346.92 90.01,-352.34 100.5,-353.79 99.11,-346.92"/>
<text text-anchor="middle" x="289.99" y="-339.3" font-family="Times,serif" font-size="14.00">1</text>
</g>
<!-- n5&#45;&gt;n2 -->
<g id="edge17" class="edge">
<title>n5&#45;&gt;n2</title>
<path fill="none" stroke="black" d="M455.75,-313.09C453.74,-310.23 451.81,-307.36 449.98,-304.5 439.5,-288.07 444.19,-279.7 431.98,-264.5 424.69,-255.42 415.52,-247.06 406.19,-239.77"/>
<polygon fill="black" stroke="black" points="408.1,-236.82 397.99,-233.65 403.91,-242.43 408.1,-236.82"/>
<text text-anchor="middle" x="426.98" y="-268.3" font-family="Times,serif" font-size="14.00">1</text>
</g>
<!-- n6&#45;&gt;n2 -->
<g id="edge3" class="edge">
<title>n6&#45;&gt;n2</title>
<path fill="none" stroke="black" d="M449.53,-197.56C443.71,-195.52 437.81,-193.78 431.98,-192.5 425.18,-191 418.03,-190.92 410.99,-191.74"/>
<polygon fill="black" stroke="black" points="410.06,-188.35 400.8,-193.51 411.26,-195.24 410.06,-188.35"/>
<text text-anchor="middle" x="426.98" y="-196.3" font-family="Times,serif" font-size="14.00">2</text>
</g>
<!-- n7&#45;&gt;n1 -->
<g id="edge5" class="edge">
<title>n7&#45;&gt;n1</title>
<path fill="none" stroke="black" d="M166.77,-262.94C148.6,-259.78 126.46,-259.13 108.99,-268.5 91.34,-277.96 77.82,-294.85 67.95,-311.72"/>
<polygon fill="black" stroke="black" points="64.87,-310.06 63.12,-320.51 71.01,-313.43 64.87,-310.06"/>
<text text-anchor="middle" x="113.99" y="-272.3" font-family="Times,serif" font-size="14.00">1</text>
</g>
<!-- n8&#45;&gt;n1 -->
<g id="edge16" class="edge">
<title>n8&#45;&gt;n1</title>
<path fill="none" stroke="black" d="M172.19,-182.66C152.57,-179.73 127,-179.49 108.99,-192.5 72.84,-218.61 57.56,-267.97 51.13,-306.8"/>
<polygon fill="black" stroke="black" points="47.63,-306.53 49.61,-316.94 54.55,-307.57 47.63,-306.53"/>
<text text-anchor="middle" x="113.99" y="-196.3" font-family="Times,serif" font-size="14.00">1</text>
</g>
<!-- n9&#45;&gt;n2 -->
<g id="edge7" class="edge">
<title>n9&#45;&gt;n2</title>
<path fill="none" stroke="black" d="M479.62,-106.34C461.4,-104.81 439.27,-105.81 421.98,-115.5 404.38,-125.36 390.88,-142.49 381,-159.51"/>
<polygon fill="black" stroke="black" points="377.89,-157.9 376.16,-168.36 384.03,-161.26 377.89,-157.9"/>
<text text-anchor="middle" x="426.98" y="-119.3" font-family="Times,serif" font-size="14.00">1</text>
</g>
<!-- n10&#45;&gt;n2 -->
<g id="edge14" class="edge">
<title>n10&#45;&gt;n2</title>
<path fill="none" stroke="black" d="M485.06,-33.99C465.14,-38.43 439.24,-47.05 421.98,-63.5 396.08,-88.19 380.41,-125.34 371.24,-156.11"/>
<polygon fill="black" stroke="black" points="367.84,-155.28 368.49,-165.85 374.58,-157.18 367.84,-155.28"/>
<text text-anchor="middle" x="426.98" y="-67.3" font-family="Times,serif" font-size="14.00">1</text>
</g>
</g>
</svg>
