<?xml version="1.0" encoding="UTF-8" standalone="no"?>
<!DOCTYPE svg PUBLIC "-//W3C//DTD SVG 1.1//EN"
 "http://www.w3.org/Graphics/SVG/1.1/DTD/svg11.dtd">
<!-- Generated by graphviz version 2.43.0 (0)
 -->
<!-- Title: G Pages: 1 -->
<svg width="2183pt" height="1111pt"
 viewBox="0.00 0.00 2183.33 1111.00" xmlns="http://www.w3.org/2000/svg" xmlns:xlink="http://www.w3.org/1999/xlink">
<g id="graph0" class="graph" transform="scale(1 1) rotate(0) translate(4 1107)">
<title>G</title>
<polygon fill="white" stroke="transparent" points="-4,4 -4,-1107 2179.33,-1107 2179.33,4 -4,4"/>
<!-- n1 -->
<g id="node1" class="node">
<title>n1</title>
<ellipse fill="#6c9ac3" stroke="#6c9ac3" cx="102.04" cy="-465" rx="102.08" ry="102.08"/>
<text text-anchor="middle" x="102.04" y="-461.3" font-family="Times,serif" font-size="14.00">(:Region2, :Living1)</text>
</g>
<!-- n5 -->
<g id="node5" class="node">
<title>n5</title>
<polygon fill="#e28f41" stroke="#e28f41" points="449.08,-933.5 250.08,-933.5 250.08,-734.5 449.08,-734.5 449.08,-933.5"/>
<text text-anchor="middle" x="349.58" y="-830.3" font-family="Times,serif" font-size="14.00">(:infect, :Living1_Living1)</text>
</g>
<!-- n1&#45;&gt;n5 -->
<g id="edge19" class="edge">
<title>n1&#45;&gt;n5</title>
<path fill="none" stroke="black" d="M132.27,-562.69C151.86,-617.59 181.55,-685.27 222.08,-737 228.23,-744.84 235.14,-752.4 242.5,-759.59"/>
<polygon fill="black" stroke="black" points="240.31,-762.34 249.98,-766.66 245.12,-757.25 240.31,-762.34"/>
<text text-anchor="middle" x="227.08" y="-749.8" font-family="Times,serif" font-size="14.00">2</text>
</g>
<!-- n7 -->
<g id="node7" class="node">
<title>n7</title>
<polygon fill="#e28f41" stroke="#e28f41" points="449.08,-716.5 250.08,-716.5 250.08,-517.5 449.08,-517.5 449.08,-716.5"/>
<text text-anchor="middle" x="349.58" y="-613.3" font-family="Times,serif" font-size="14.00">(:infect, :Living1_Living2)</text>
</g>
<!-- n1&#45;&gt;n7 -->
<g id="edge35" class="edge">
<title>n1&#45;&gt;n7</title>
<path fill="none" stroke="black" d="M180.09,-531.01C193.67,-541.31 207.98,-551.38 222.08,-560 228.16,-563.71 234.52,-567.33 241.02,-570.82"/>
<polygon fill="black" stroke="black" points="239.46,-573.96 249.95,-575.5 242.71,-567.76 239.46,-573.96"/>
<text text-anchor="middle" x="227.08" y="-568.8" font-family="Times,serif" font-size="14.00">1</text>
</g>
<!-- n9 -->
<g id="node9" class="node">
<title>n9</title>
<polygon fill="#e28f41" stroke="#e28f41" points="1152.66,-379.5 953.66,-379.5 953.66,-180.5 1152.66,-180.5 1152.66,-379.5"/>
<text text-anchor="middle" x="1053.16" y="-276.3" font-family="Times,serif" font-size="14.00">(:infect, :Living2_Living1)</text>
</g>
<!-- n1&#45;&gt;n9 -->
<g id="edge17" class="edge">
<title>n1&#45;&gt;n9</title>
<path fill="none" stroke="black" d="M157.32,-379.05C181.63,-348.33 213.18,-317.1 250.08,-300 370.13,-244.37 753.71,-260.29 943.59,-272.2"/>
<polygon fill="black" stroke="black" points="943.39,-275.7 953.59,-272.84 943.83,-268.71 943.39,-275.7"/>
<text text-anchor="middle" x="573.08" y="-267.8" font-family="Times,serif" font-size="14.00">1</text>
</g>
<!-- n13 -->
<g id="node13" class="node">
<title>n13</title>
<polygon fill="#e28f41" stroke="#e28f41" points="425.58,-461 273.58,-461 273.58,-309 425.58,-309 425.58,-461"/>
<text text-anchor="middle" x="349.58" y="-381.3" font-family="Times,serif" font-size="14.00">(:disease, :disease)</text>
</g>
<!-- n1&#45;&gt;n13 -->
<g id="edge9" class="edge">
<title>n1&#45;&gt;n13</title>
<path fill="none" stroke="black" d="M199.38,-433.61C220.61,-426.7 242.94,-419.42 263.67,-412.66"/>
<polygon fill="black" stroke="black" points="264.97,-415.92 273.39,-409.5 262.8,-409.27 264.97,-415.92"/>
<text text-anchor="middle" x="227.08" y="-428.8" font-family="Times,serif" font-size="14.00">1</text>
</g>
<!-- n15 -->
<g id="node15" class="node">
<title>n15</title>
<polygon fill="#e28f41" stroke="#e28f41" points="679.08,-258 467.08,-258 467.08,-46 679.08,-46 679.08,-258"/>
<text text-anchor="middle" x="573.08" y="-148.3" font-family="Times,serif" font-size="14.00">(:Region2_Region1, :strata)</text>
</g>
<!-- n1&#45;&gt;n15 -->
<g id="edge6" class="edge">
<title>n1&#45;&gt;n15</title>
<path fill="none" stroke="black" d="M137.21,-369.04C156.35,-327.7 184.14,-282.04 222.08,-252 289.04,-198.98 382.84,-174.07 456.48,-162.37"/>
<polygon fill="black" stroke="black" points="457.38,-165.77 466.74,-160.81 456.32,-158.85 457.38,-165.77"/>
<text text-anchor="middle" x="227.08" y="-255.8" font-family="Times,serif" font-size="14.00">1</text>
</g>
<!-- n2 -->
<g id="node2" class="node">
<title>n2</title>
<ellipse fill="#6c9ac3" stroke="#6c9ac3" cx="1815.29" cy="-460" rx="102.08" ry="102.08"/>
<text text-anchor="middle" x="1815.29" y="-456.3" font-family="Times,serif" font-size="14.00">(:Region1, :Living1)</text>
</g>
<!-- n6 -->
<g id="node6" class="node">
<title>n6</title>
<polygon fill="#e28f41" stroke="#e28f41" points="2168.83,-521.5 1969.83,-521.5 1969.83,-322.5 2168.83,-322.5 2168.83,-521.5"/>
<text text-anchor="middle" x="2069.33" y="-418.3" font-family="Times,serif" font-size="14.00">(:infect, :Living1_Living1)</text>
</g>
<!-- n2&#45;&gt;n6 -->
<g id="edge12" class="edge">
<title>n2&#45;&gt;n6</title>
<path fill="none" stroke="black" d="M1916.26,-444.93C1930.56,-442.77 1945.32,-440.55 1959.77,-438.37"/>
<polygon fill="black" stroke="black" points="1960.34,-441.82 1969.71,-436.87 1959.3,-434.9 1960.34,-441.82"/>
<text text-anchor="middle" x="1940.33" y="-444.8" font-family="Times,serif" font-size="14.00">2</text>
</g>
<!-- n8 -->
<g id="node8" class="node">
<title>n8</title>
<polygon fill="#e28f41" stroke="#e28f41" points="1660.75,-521.5 1461.75,-521.5 1461.75,-322.5 1660.75,-322.5 1660.75,-521.5"/>
<text text-anchor="middle" x="1561.25" y="-418.3" font-family="Times,serif" font-size="14.00">(:infect, :Living1_Living2)</text>
</g>
<!-- n2&#45;&gt;n8 -->
<g id="edge23" class="edge">
<title>n2&#45;&gt;n8</title>
<path fill="none" stroke="black" d="M1714.17,-444.91C1699.89,-442.75 1685.14,-440.53 1670.71,-438.35"/>
<polygon fill="black" stroke="black" points="1671.18,-434.89 1660.77,-436.86 1670.14,-441.81 1671.18,-434.89"/>
<text text-anchor="middle" x="1690.25" y="-444.8" font-family="Times,serif" font-size="14.00">1</text>
</g>
<!-- n10 -->
<g id="node10" class="node">
<title>n10</title>
<polygon fill="#e28f41" stroke="#e28f41" points="2168.83,-738.5 1969.83,-738.5 1969.83,-539.5 2168.83,-539.5 2168.83,-738.5"/>
<text text-anchor="middle" x="2069.33" y="-635.3" font-family="Times,serif" font-size="14.00">(:infect, :Living2_Living1)</text>
</g>
<!-- n2&#45;&gt;n10 -->
<g id="edge24" class="edge">
<title>n2&#45;&gt;n10</title>
<path fill="none" stroke="black" d="M1888.85,-530.94C1903.68,-543.96 1919.59,-556.91 1935.33,-568 1943.43,-573.71 1952.05,-579.28 1960.85,-584.63"/>
<polygon fill="black" stroke="black" points="1959.32,-587.8 1969.7,-589.91 1962.91,-581.78 1959.32,-587.8"/>
<text text-anchor="middle" x="1940.33" y="-575.8" font-family="Times,serif" font-size="14.00">1</text>
</g>
<!-- n14 -->
<g id="node14" class="node">
<title>n14</title>
<polygon fill="#e28f41" stroke="#e28f41" points="2145.33,-909 1993.33,-909 1993.33,-757 2145.33,-757 2145.33,-909"/>
<text text-anchor="middle" x="2069.33" y="-829.3" font-family="Times,serif" font-size="14.00">(:disease, :disease)</text>
</g>
<!-- n2&#45;&gt;n14 -->
<g id="edge33" class="edge">
<title>n2&#45;&gt;n14</title>
<path fill="none" stroke="black" d="M1843.37,-558.18C1862.52,-615.17 1892.48,-685.95 1935.33,-739 1949.19,-756.17 1966.97,-771.6 1984.98,-784.77"/>
<polygon fill="black" stroke="black" points="1983.08,-787.71 1993.25,-790.66 1987.13,-782.01 1983.08,-787.71"/>
<text text-anchor="middle" x="1940.33" y="-751.8" font-family="Times,serif" font-size="14.00">1</text>
</g>
<!-- n16 -->
<g id="node16" class="node">
<title>n16</title>
<polygon fill="#e28f41" stroke="#e28f41" points="2175.33,-212 1963.33,-212 1963.33,0 2175.33,0 2175.33,-212"/>
<text text-anchor="middle" x="2069.33" y="-102.3" font-family="Times,serif" font-size="14.00">(:Region1_Region2, :strata)</text>
</g>
<!-- n2&#45;&gt;n16 -->
<g id="edge39" class="edge">
<title>n2&#45;&gt;n16</title>
<path fill="none" stroke="black" d="M1875.38,-377C1908.6,-330.35 1950.55,-271.42 1986.85,-220.44"/>
<polygon fill="black" stroke="black" points="1989.91,-222.18 1992.86,-212 1984.2,-218.12 1989.91,-222.18"/>
<text text-anchor="middle" x="1940.33" y="-286.8" font-family="Times,serif" font-size="14.00">1</text>
</g>
<!-- n3 -->
<g id="node3" class="node">
<title>n3</title>
<ellipse fill="#6c9ac3" stroke="#6c9ac3" cx="799.12" cy="-659" rx="102.08" ry="102.08"/>
<text text-anchor="middle" x="799.12" y="-655.3" font-family="Times,serif" font-size="14.00">(:Region2, :Living2)</text>
</g>
<!-- n3&#45;&gt;n7 -->
<g id="edge2" class="edge">
<title>n3&#45;&gt;n7</title>
<path fill="none" stroke="black" d="M702.2,-626.63C694.44,-624.8 686.67,-623.21 679.08,-622 606.5,-610.42 523.76,-609.23 459.48,-610.9"/>
<polygon fill="black" stroke="black" points="459.22,-607.41 449.32,-611.19 459.42,-614.41 459.22,-607.41"/>
<text text-anchor="middle" x="573.08" y="-625.8" font-family="Times,serif" font-size="14.00">1</text>
</g>
<!-- n3&#45;&gt;n9 -->
<g id="edge27" class="edge">
<title>n3&#45;&gt;n9</title>
<path fill="none" stroke="black" d="M882.51,-599.95C900.69,-582.97 917.87,-563.01 929.16,-541 960.21,-480.47 918.05,-450.48 947.16,-389 947.64,-387.99 948.13,-386.98 948.64,-385.98"/>
<polygon fill="black" stroke="black" points="951.78,-387.52 953.49,-377.07 945.64,-384.18 951.78,-387.52"/>
<text text-anchor="middle" x="924.16" y="-560.8" font-family="Times,serif" font-size="14.00">1</text>
</g>
<!-- n11 -->
<g id="node11" class="node">
<title>n11</title>
<polygon fill="#e28f41" stroke="#e28f41" points="1152.66,-997.5 953.66,-997.5 953.66,-798.5 1152.66,-798.5 1152.66,-997.5"/>
<text text-anchor="middle" x="1053.16" y="-894.3" font-family="Times,serif" font-size="14.00">(:infect, :Living2_Living2)</text>
</g>
<!-- n3&#45;&gt;n11 -->
<g id="edge31" class="edge">
<title>n3&#45;&gt;n11</title>
<path fill="none" stroke="black" d="M863.52,-738.25C880.78,-758.19 900.02,-779.02 919.16,-797 927.58,-804.91 936.6,-812.8 945.83,-820.5"/>
<polygon fill="black" stroke="black" points="943.68,-823.26 953.63,-826.91 948.13,-817.85 943.68,-823.26"/>
<text text-anchor="middle" x="924.16" y="-809.8" font-family="Times,serif" font-size="14.00">2</text>
</g>
<!-- n17 -->
<g id="node17" class="node">
<title>n17</title>
<polygon fill="#e28f41" stroke="#e28f41" points="1129.16,-780 977.16,-780 977.16,-628 1129.16,-628 1129.16,-780"/>
<text text-anchor="middle" x="1053.16" y="-700.3" font-family="Times,serif" font-size="14.00">(:disease, :disease)</text>
</g>
<!-- n3&#45;&gt;n17 -->
<g id="edge7" class="edge">
<title>n3&#45;&gt;n17</title>
<path fill="none" stroke="black" d="M901.5,-658.42C910.89,-659.25 920.23,-660.41 929.16,-662 941.73,-664.24 954.75,-667.54 967.41,-671.32"/>
<polygon fill="black" stroke="black" points="966.42,-674.68 977.01,-674.3 968.5,-667.99 966.42,-674.68"/>
<text text-anchor="middle" x="924.16" y="-665.8" font-family="Times,serif" font-size="14.00">1</text>
</g>
<!-- n19 -->
<g id="node19" class="node">
<title>n19</title>
<polygon fill="#e28f41" stroke="#e28f41" points="1159.16,-610 947.16,-610 947.16,-398 1159.16,-398 1159.16,-610"/>
<text text-anchor="middle" x="1053.16" y="-500.3" font-family="Times,serif" font-size="14.00">(:Region2_Region1, :strata)</text>
</g>
<!-- n3&#45;&gt;n19 -->
<g id="edge1" class="edge">
<title>n3&#45;&gt;n19</title>
<path fill="none" stroke="black" d="M891.81,-616.04C904.55,-609.35 917.32,-602.24 929.16,-595 932.2,-593.14 935.26,-591.23 938.33,-589.27"/>
<polygon fill="black" stroke="black" points="940.5,-592.03 946.98,-583.65 936.69,-586.16 940.5,-592.03"/>
<text text-anchor="middle" x="924.16" y="-601.8" font-family="Times,serif" font-size="14.00">1</text>
</g>
<!-- n4 -->
<g id="node4" class="node">
<title>n4</title>
<ellipse fill="#6c9ac3" stroke="#6c9ac3" cx="1307.2" cy="-571" rx="102.08" ry="102.08"/>
<text text-anchor="middle" x="1307.2" y="-567.3" font-family="Times,serif" font-size="14.00">(:Region1, :Living2)</text>
</g>
<!-- n4&#45;&gt;n8 -->
<g id="edge21" class="edge">
<title>n4&#45;&gt;n8</title>
<path fill="none" stroke="black" d="M1396.12,-520.14C1409.9,-512.1 1423.97,-503.85 1437.25,-496 1442.33,-492.99 1447.53,-489.91 1452.77,-486.79"/>
<polygon fill="black" stroke="black" points="1454.84,-489.63 1461.64,-481.5 1451.25,-483.62 1454.84,-489.63"/>
<text text-anchor="middle" x="1432.25" y="-503.8" font-family="Times,serif" font-size="14.00">1</text>
</g>
<!-- n4&#45;&gt;n10 -->
<g id="edge22" class="edge">
<title>n4&#45;&gt;n10</title>
<path fill="none" stroke="black" d="M1358.31,-659.83C1382.72,-694.03 1415.46,-729.33 1455.25,-748 1620.18,-825.41 1833.66,-753.65 1960.29,-695.59"/>
<polygon fill="black" stroke="black" points="1962.03,-698.64 1969.63,-691.26 1959.08,-692.29 1962.03,-698.64"/>
<text text-anchor="middle" x="1690.25" y="-780.8" font-family="Times,serif" font-size="14.00">1</text>
</g>
<!-- n12 -->
<g id="node12" class="node">
<title>n12</title>
<polygon fill="#e28f41" stroke="#e28f41" points="1660.75,-738.5 1461.75,-738.5 1461.75,-539.5 1660.75,-539.5 1660.75,-738.5"/>
<text text-anchor="middle" x="1561.25" y="-635.3" font-family="Times,serif" font-size="14.00">(:infect, :Living2_Living2)</text>
</g>
<!-- n4&#45;&gt;n12 -->
<g id="edge28" class="edge">
<title>n4&#45;&gt;n12</title>
<path fill="none" stroke="black" d="M1409.13,-579.85C1418.7,-581.55 1428.2,-583.58 1437.25,-586 1442.11,-587.3 1447.02,-588.76 1451.95,-590.34"/>
<polygon fill="black" stroke="black" points="1450.84,-593.66 1461.43,-593.52 1453.07,-587.02 1450.84,-593.66"/>
<text text-anchor="middle" x="1432.25" y="-589.8" font-family="Times,serif" font-size="14.00">2</text>
</g>
<!-- n18 -->
<g id="node18" class="node">
<title>n18</title>
<polygon fill="#e28f41" stroke="#e28f41" points="1637.25,-304 1485.25,-304 1485.25,-152 1637.25,-152 1637.25,-304"/>
<text text-anchor="middle" x="1561.25" y="-224.3" font-family="Times,serif" font-size="14.00">(:disease, :disease)</text>
</g>
<!-- n4&#45;&gt;n18 -->
<g id="edge20" class="edge">
<title>n4&#45;&gt;n18</title>
<path fill="none" stroke="black" d="M1350.3,-478.5C1376.34,-426.79 1412.86,-362.9 1455.25,-313 1461.91,-305.16 1469.37,-297.51 1477.16,-290.21"/>
<polygon fill="black" stroke="black" points="1480,-292.36 1485.05,-283.04 1475.3,-287.18 1480,-292.36"/>
<text text-anchor="middle" x="1432.25" y="-348.8" font-family="Times,serif" font-size="14.00">1</text>
</g>
<!-- n20 -->
<g id="node20" class="node">
<title>n20</title>
<polygon fill="#e28f41" stroke="#e28f41" points="1667.25,-1103 1455.25,-1103 1455.25,-891 1667.25,-891 1667.25,-1103"/>
<text text-anchor="middle" x="1561.25" y="-993.3" font-family="Times,serif" font-size="14.00">(:Region1_Region2, :strata)</text>
</g>
<!-- n4&#45;&gt;n20 -->
<g id="edge36" class="edge">
<title>n4&#45;&gt;n20</title>
<path fill="none" stroke="black" d="M1333.78,-669.71C1353.06,-732.63 1383.71,-813.89 1427.25,-877 1433.53,-886.11 1440.63,-895 1448.21,-903.57"/>
<polygon fill="black" stroke="black" points="1445.66,-905.97 1454.98,-911 1450.84,-901.25 1445.66,-905.97"/>
<text text-anchor="middle" x="1432.25" y="-891.8" font-family="Times,serif" font-size="14.00">1</text>
</g>
<!-- n5&#45;&gt;n1 -->
<g id="edge25" class="edge">
<title>n5&#45;&gt;n1</title>
<path fill="none" stroke="black" d="M256.28,-734.34C254.16,-731.56 252.09,-728.78 250.08,-726 213.56,-675.51 179.02,-615.12 152.6,-565.15"/>
<polygon fill="black" stroke="black" points="155.68,-563.49 147.93,-556.26 149.49,-566.74 155.68,-563.49"/>
<text text-anchor="middle" x="227.08" y="-702.8" font-family="Times,serif" font-size="14.00">2</text>
</g>
<!-- n6&#45;&gt;n2 -->
<g id="edge4" class="edge">
<title>n6&#45;&gt;n2</title>
<path fill="none" stroke="black" d="M1969.65,-419.51C1958.04,-420.17 1946.39,-421.28 1935.33,-423 1930.94,-423.68 1926.49,-424.49 1922.01,-425.41"/>
<polygon fill="black" stroke="black" points="1921.21,-422 1912.2,-427.57 1922.72,-428.84 1921.21,-422"/>
<text text-anchor="middle" x="1940.33" y="-426.8" font-family="Times,serif" font-size="14.00">2</text>
</g>
<!-- n7&#45;&gt;n1 -->
<g id="edge8" class="edge">
<title>n7&#45;&gt;n1</title>
<path fill="none" stroke="black" d="M249.97,-555.96C232.86,-545.36 215.1,-534.37 198.09,-523.84"/>
<polygon fill="black" stroke="black" points="199.61,-520.66 189.26,-518.38 195.92,-526.62 199.61,-520.66"/>
<text text-anchor="middle" x="227.08" y="-544.8" font-family="Times,serif" font-size="14.00">1</text>
</g>
<!-- n7&#45;&gt;n3 -->
<g id="edge18" class="edge">
<title>n7&#45;&gt;n3</title>
<path fill="none" stroke="black" d="M449.31,-634.68C455.32,-635.53 461.27,-636.31 467.08,-637 539.97,-645.65 622.32,-651.14 686.65,-654.48"/>
<polygon fill="black" stroke="black" points="686.65,-657.98 696.82,-654.99 687.01,-650.99 686.65,-657.98"/>
<text text-anchor="middle" x="573.08" y="-656.8" font-family="Times,serif" font-size="14.00">1</text>
</g>
<!-- n8&#45;&gt;n2 -->
<g id="edge40" class="edge">
<title>n8&#45;&gt;n2</title>
<path fill="none" stroke="black" d="M1660.92,-418.6C1672.53,-419.21 1684.18,-420.28 1695.25,-422 1699.71,-422.69 1704.23,-423.53 1708.77,-424.47"/>
<polygon fill="black" stroke="black" points="1708.22,-427.93 1718.74,-426.71 1709.75,-421.1 1708.22,-427.93"/>
<text text-anchor="middle" x="1690.25" y="-425.8" font-family="Times,serif" font-size="14.00">1</text>
</g>
<!-- n8&#45;&gt;n4 -->
<g id="edge10" class="edge">
<title>n8&#45;&gt;n4</title>
<path fill="none" stroke="black" d="M1461.62,-462.67C1449.83,-468.43 1438.13,-474.59 1427.25,-481 1416.68,-487.23 1405.95,-494.23 1395.48,-501.51"/>
<polygon fill="black" stroke="black" points="1393.29,-498.76 1387.14,-507.39 1397.33,-504.48 1393.29,-498.76"/>
<text text-anchor="middle" x="1432.25" y="-484.8" font-family="Times,serif" font-size="14.00">1</text>
</g>
<!-- n9&#45;&gt;n1 -->
<g id="edge38" class="edge">
<title>n9&#45;&gt;n1</title>
<path fill="none" stroke="black" d="M953.56,-321.35C835.93,-368.25 632.17,-441.84 449.08,-470 371.13,-481.99 282.14,-480.37 213.93,-475.94"/>
<polygon fill="black" stroke="black" points="213.81,-472.43 203.59,-475.24 213.33,-479.41 213.81,-472.43"/>
<text text-anchor="middle" x="573.08" y="-469.8" font-family="Times,serif" font-size="14.00">1</text>
</g>
<!-- n9&#45;&gt;n3 -->
<g id="edge14" class="edge">
<title>n9&#45;&gt;n3</title>
<path fill="none" stroke="black" d="M953.49,-377.51C951.21,-381.28 949.09,-385.12 947.16,-389 924.32,-434.92 950.26,-456.24 929.16,-503 916.83,-530.34 898.37,-556.8 879.25,-579.91"/>
<polygon fill="black" stroke="black" points="876.52,-577.72 872.75,-587.62 881.87,-582.23 876.52,-577.72"/>
<text text-anchor="middle" x="924.16" y="-525.8" font-family="Times,serif" font-size="14.00">1</text>
</g>
<!-- n10&#45;&gt;n2 -->
<g id="edge29" class="edge">
<title>n10&#45;&gt;n2</title>
<path fill="none" stroke="black" d="M1969.82,-566.55C1961.55,-560.58 1953.31,-554.67 1945.33,-549 1933.52,-540.61 1921.05,-531.86 1908.69,-523.27"/>
<polygon fill="black" stroke="black" points="1910.38,-520.18 1900.17,-517.35 1906.39,-525.93 1910.38,-520.18"/>
<text text-anchor="middle" x="1940.33" y="-552.8" font-family="Times,serif" font-size="14.00">1</text>
</g>
<!-- n10&#45;&gt;n4 -->
<g id="edge32" class="edge">
<title>n10&#45;&gt;n4</title>
<path fill="none" stroke="black" d="M1972.16,-738.76C1969.18,-741.87 1966.23,-744.96 1963.33,-748 1955.29,-756.41 1955.73,-761.79 1945.33,-767 1750.49,-864.49 1652.31,-870.9 1455.25,-778 1410.48,-756.9 1376.7,-714.5 1352.88,-673.53"/>
<polygon fill="black" stroke="black" points="1355.92,-671.8 1347.95,-664.82 1349.83,-675.25 1355.92,-671.8"/>
<text text-anchor="middle" x="1690.25" y="-847.8" font-family="Times,serif" font-size="14.00">1</text>
</g>
<!-- n11&#45;&gt;n3 -->
<g id="edge11" class="edge">
<title>n11&#45;&gt;n3</title>
<path fill="none" stroke="black" d="M953.65,-804.59C929.63,-781.81 904.21,-757.7 881.11,-735.8"/>
<polygon fill="black" stroke="black" points="883.37,-733.11 873.7,-728.77 878.55,-738.19 883.37,-733.11"/>
<text text-anchor="middle" x="924.16" y="-781.8" font-family="Times,serif" font-size="14.00">2</text>
</g>
<!-- n12&#45;&gt;n4 -->
<g id="edge3" class="edge">
<title>n12&#45;&gt;n4</title>
<path fill="none" stroke="black" d="M1461.66,-612.4C1446.66,-608.36 1431.11,-604.16 1415.93,-600.06"/>
<polygon fill="black" stroke="black" points="1416.58,-596.61 1406.01,-597.39 1414.75,-603.37 1416.58,-596.61"/>
<text text-anchor="middle" x="1432.25" y="-608.8" font-family="Times,serif" font-size="14.00">2</text>
</g>
<!-- n13&#45;&gt;n1 -->
<g id="edge16" class="edge">
<title>n13&#45;&gt;n1</title>
<path fill="none" stroke="black" d="M273.46,-393.72C256.34,-396.73 238.39,-400.73 222.08,-406 215.52,-408.12 208.87,-410.55 202.23,-413.19"/>
<polygon fill="black" stroke="black" points="200.45,-410.14 192.54,-417.19 203.12,-416.61 200.45,-410.14"/>
<text text-anchor="middle" x="227.08" y="-409.8" font-family="Times,serif" font-size="14.00">1</text>
</g>
<!-- n14&#45;&gt;n2 -->
<g id="edge13" class="edge">
<title>n14&#45;&gt;n2</title>
<path fill="none" stroke="black" d="M1993.24,-778.8C1982.49,-769.23 1972.11,-758.84 1963.33,-748 1918.71,-692.95 1882.34,-622.17 1856.94,-564.56"/>
<polygon fill="black" stroke="black" points="1860,-562.83 1852.8,-555.06 1853.58,-565.63 1860,-562.83"/>
<text text-anchor="middle" x="1940.33" y="-723.8" font-family="Times,serif" font-size="14.00">1</text>
</g>
<!-- n15&#45;&gt;n2 -->
<g id="edge26" class="edge">
<title>n15&#45;&gt;n2</title>
<path fill="none" stroke="black" d="M679.31,-139.15C748.5,-131.79 841.08,-124 923.16,-124 923.16,-124 923.16,-124 1562.25,-124 1609.67,-124 1629.72,-114.01 1667.25,-143 1732.82,-193.65 1770.27,-280.49 1790.95,-350.48"/>
<polygon fill="black" stroke="black" points="1787.63,-351.59 1793.76,-360.23 1794.36,-349.66 1787.63,-351.59"/>
<text text-anchor="middle" x="1182.16" y="-127.8" font-family="Times,serif" font-size="14.00">1</text>
</g>
<!-- n16&#45;&gt;n1 -->
<g id="edge30" class="edge">
<title>n16&#45;&gt;n1</title>
<path fill="none" stroke="black" d="M1963.06,-60C1918.64,-44.47 1865.82,-31 1816.29,-31 348.58,-31 348.58,-31 348.58,-31 200.3,-31 140.52,-225.3 117.2,-353.88"/>
<polygon fill="black" stroke="black" points="113.74,-353.34 115.45,-363.79 120.63,-354.55 113.74,-353.34"/>
<text text-anchor="middle" x="1182.16" y="-34.8" font-family="Times,serif" font-size="14.00">1</text>
</g>
<!-- n17&#45;&gt;n3 -->
<g id="edge5" class="edge">
<title>n17&#45;&gt;n3</title>
<path fill="none" stroke="black" d="M976.99,-690.58C955.86,-686.81 932.45,-682.63 909.75,-678.57"/>
<polygon fill="black" stroke="black" points="910.2,-675.1 899.74,-676.79 908.97,-681.99 910.2,-675.1"/>
<text text-anchor="middle" x="924.16" y="-684.8" font-family="Times,serif" font-size="14.00">1</text>
</g>
<!-- n18&#45;&gt;n4 -->
<g id="edge34" class="edge">
<title>n18&#45;&gt;n4</title>
<path fill="none" stroke="black" d="M1484.95,-270.06C1464.43,-284.03 1443.42,-300.96 1427.25,-320 1391.38,-362.21 1363.74,-417.06 1344.16,-464.72"/>
<polygon fill="black" stroke="black" points="1340.85,-463.57 1340.35,-474.15 1347.34,-466.19 1340.85,-463.57"/>
<text text-anchor="middle" x="1432.25" y="-323.8" font-family="Times,serif" font-size="14.00">1</text>
</g>
<!-- n19&#45;&gt;n4 -->
<g id="edge15" class="edge">
<title>n19&#45;&gt;n4</title>
<path fill="none" stroke="black" d="M1159.23,-531.93C1172.14,-535.36 1185.36,-538.88 1198.32,-542.32"/>
<polygon fill="black" stroke="black" points="1197.6,-545.75 1208.17,-544.94 1199.4,-538.99 1197.6,-545.75"/>
<text text-anchor="middle" x="1182.16" y="-540.8" font-family="Times,serif" font-size="14.00">1</text>
</g>
<!-- n20&#45;&gt;n3 -->
<g id="edge37" class="edge">
<title>n20&#45;&gt;n3</title>
<path fill="none" stroke="black" d="M1455.11,-1032.13C1324.39,-1068.83 1099.87,-1108.26 947.16,-1007 868.4,-954.77 831.72,-851.1 814.7,-770.43"/>
<polygon fill="black" stroke="black" points="818.04,-769.31 812.62,-760.21 811.18,-770.71 818.04,-769.31"/>
<text text-anchor="middle" x="1182.16" y="-1074.8" font-family="Times,serif" font-size="14.00">1</text>
</g>
</g>
</svg>
