<?xml version="1.0" encoding="UTF-8" standalone="no"?>
<!DOCTYPE svg PUBLIC "-//W3C//DTD SVG 1.1//EN"
 "http://www.w3.org/Graphics/SVG/1.1/DTD/svg11.dtd">
<!-- Generated by graphviz version 2.43.0 (0)
 -->
<!-- Title: G Pages: 1 -->
<svg width="1164pt" height="1516pt"
 viewBox="0.00 0.00 1164.06 1516.04" xmlns="http://www.w3.org/2000/svg" xmlns:xlink="http://www.w3.org/1999/xlink">
<g id="graph0" class="graph" transform="scale(1 1) rotate(0) translate(4 1512.04)">
<title>G</title>
<polygon fill="white" stroke="transparent" points="-4,4 -4,-1512.04 1160.06,-1512.04 1160.06,4 -4,4"/>
<!-- n1 -->
<g id="node1" class="node">
<title>n1</title>
<ellipse fill="#6c9ac3" stroke="#6c9ac3" cx="87.09" cy="-187.5" rx="86.38" ry="86.38"/>
<text text-anchor="middle" x="87.09" y="-183.8" font-family="Times,serif" font-size="14.00">(:S, :Uninfected)</text>
</g>
<!-- n13 -->
<g id="node13" class="node">
<title>n13</title>
<polygon fill="#e28f41" stroke="#e28f41" points="406.18,-641.5 220.18,-641.5 220.18,-455.5 406.18,-455.5 406.18,-641.5"/>
<text text-anchor="middle" x="313.18" y="-544.8" font-family="Times,serif" font-size="14.00">(:infection, :inf_Strain2)</text>
</g>
<!-- n1&#45;&gt;n13 -->
<g id="edge10" class="edge">
<title>n1&#45;&gt;n13</title>
<path fill="none" stroke="black" d="M133.44,-260.55C166.66,-314.06 212.17,-387.38 248.96,-446.64"/>
<polygon fill="black" stroke="black" points="246.07,-448.63 254.32,-455.28 252.02,-444.94 246.07,-448.63"/>
<text text-anchor="middle" x="197.18" y="-372.3" font-family="Times,serif" font-size="14.00">1</text>
</g>
<!-- n14 -->
<g id="node14" class="node">
<title>n14</title>
<polygon fill="#e28f41" stroke="#e28f41" points="406.18,-349.5 220.18,-349.5 220.18,-163.5 406.18,-163.5 406.18,-349.5"/>
<text text-anchor="middle" x="313.18" y="-252.8" font-family="Times,serif" font-size="14.00">(:infection, :inf_Strain1)</text>
</g>
<!-- n1&#45;&gt;n14 -->
<g id="edge12" class="edge">
<title>n1&#45;&gt;n14</title>
<path fill="none" stroke="black" d="M169.95,-212.7C183.03,-216.73 196.7,-220.94 210.17,-225.09"/>
<polygon fill="black" stroke="black" points="209.36,-228.5 219.94,-228.1 211.42,-221.81 209.36,-228.5"/>
<text text-anchor="middle" x="197.18" y="-226.3" font-family="Times,serif" font-size="14.00">1</text>
</g>
<!-- n15 -->
<g id="node15" class="node">
<title>n15</title>
<polygon fill="#e28f41" stroke="#e28f41" points="378.68,-145 247.68,-145 247.68,-14 378.68,-14 378.68,-145"/>
<text text-anchor="middle" x="313.18" y="-75.8" font-family="Times,serif" font-size="14.00">(:strata, :strata)</text>
</g>
<!-- n1&#45;&gt;n15 -->
<g id="edge7" class="edge">
<title>n1&#45;&gt;n15</title>
<path fill="none" stroke="black" d="M165.21,-150.33C188.91,-138.91 214.92,-126.38 238.38,-115.07"/>
<polygon fill="black" stroke="black" points="240.1,-118.13 247.58,-110.63 237.06,-111.82 240.1,-118.13"/>
<text text-anchor="middle" x="197.18" y="-141.3" font-family="Times,serif" font-size="14.00">1</text>
</g>
<!-- n2 -->
<g id="node2" class="node">
<title>n2</title>
<ellipse fill="#6c9ac3" stroke="#6c9ac3" cx="87.09" cy="-725.5" rx="83.69" ry="83.69"/>
<text text-anchor="middle" x="87.09" y="-721.8" font-family="Times,serif" font-size="14.00">(:I, :Uninfected)</text>
</g>
<!-- n16 -->
<g id="node16" class="node">
<title>n16</title>
<polygon fill="#e28f41" stroke="#e28f41" points="378.68,-791 247.68,-791 247.68,-660 378.68,-660 378.68,-791"/>
<text text-anchor="middle" x="313.18" y="-721.8" font-family="Times,serif" font-size="14.00">(:strata, :strata)</text>
</g>
<!-- n2&#45;&gt;n16 -->
<g id="edge31" class="edge">
<title>n2&#45;&gt;n16</title>
<path fill="none" stroke="black" d="M171.22,-725.5C192.84,-725.5 216.01,-725.5 237.18,-725.5"/>
<polygon fill="black" stroke="black" points="237.4,-729 247.4,-725.5 237.4,-722 237.4,-729"/>
<text text-anchor="middle" x="197.18" y="-729.3" font-family="Times,serif" font-size="14.00">1</text>
</g>
<!-- n3 -->
<g id="node3" class="node">
<title>n3</title>
<ellipse fill="#6c9ac3" stroke="#6c9ac3" cx="87.09" cy="-914.5" rx="87.18" ry="87.18"/>
<text text-anchor="middle" x="87.09" y="-910.8" font-family="Times,serif" font-size="14.00">(:R, :Uninfected)</text>
</g>
<!-- n17 -->
<g id="node17" class="node">
<title>n17</title>
<polygon fill="#e28f41" stroke="#e28f41" points="378.68,-980 247.68,-980 247.68,-849 378.68,-849 378.68,-980"/>
<text text-anchor="middle" x="313.18" y="-910.8" font-family="Times,serif" font-size="14.00">(:strata, :strata)</text>
</g>
<!-- n3&#45;&gt;n17 -->
<g id="edge8" class="edge">
<title>n3&#45;&gt;n17</title>
<path fill="none" stroke="black" d="M174.41,-914.5C195.19,-914.5 217.22,-914.5 237.42,-914.5"/>
<polygon fill="black" stroke="black" points="237.49,-918 247.49,-914.5 237.49,-911 237.49,-918"/>
<text text-anchor="middle" x="197.18" y="-918.3" font-family="Times,serif" font-size="14.00">1</text>
</g>
<!-- n4 -->
<g id="node4" class="node">
<title>n4</title>
<ellipse fill="#6c9ac3" stroke="#6c9ac3" cx="87.09" cy="-1106.5" rx="87.18" ry="87.18"/>
<text text-anchor="middle" x="87.09" y="-1102.8" font-family="Times,serif" font-size="14.00">(:D, :Uninfected)</text>
</g>
<!-- n5 -->
<g id="node5" class="node">
<title>n5</title>
<ellipse fill="#6c9ac3" stroke="#6c9ac3" cx="87.09" cy="-1281.5" rx="69.59" ry="69.59"/>
<text text-anchor="middle" x="87.09" y="-1277.8" font-family="Times,serif" font-size="14.00">(:S, :Strain2)</text>
</g>
<!-- n20 -->
<g id="node20" class="node">
<title>n20</title>
<polygon fill="#e28f41" stroke="#e28f41" points="378.68,-1341 247.68,-1341 247.68,-1210 378.68,-1210 378.68,-1341"/>
<text text-anchor="middle" x="313.18" y="-1271.8" font-family="Times,serif" font-size="14.00">(:strata, :strata)</text>
</g>
<!-- n5&#45;&gt;n20 -->
<g id="edge6" class="edge">
<title>n5&#45;&gt;n20</title>
<path fill="none" stroke="black" d="M156.87,-1279.7C171.81,-1279.31 187.53,-1278.89 202.18,-1278.5 213.56,-1278.2 225.59,-1277.87 237.37,-1277.55"/>
<polygon fill="black" stroke="black" points="237.72,-1281.04 247.62,-1277.27 237.53,-1274.04 237.72,-1281.04"/>
<text text-anchor="middle" x="197.18" y="-1283.3" font-family="Times,serif" font-size="14.00">1</text>
</g>
<!-- n6 -->
<g id="node6" class="node">
<title>n6</title>
<ellipse fill="#6c9ac3" stroke="#6c9ac3" cx="519.78" cy="-586.5" rx="67.69" ry="67.69"/>
<text text-anchor="middle" x="519.78" y="-582.8" font-family="Times,serif" font-size="14.00">(:I, :Strain2)</text>
</g>
<!-- n6&#45;&gt;n13 -->
<g id="edge14" class="edge">
<title>n6&#45;&gt;n13</title>
<path fill="none" stroke="black" d="M458.17,-558.34C450.24,-555.58 442.11,-553.18 434.18,-551.5 428.44,-550.28 422.5,-549.3 416.49,-548.51"/>
<polygon fill="black" stroke="black" points="416.64,-545 406.31,-547.36 415.86,-551.96 416.64,-545"/>
<text text-anchor="middle" x="429.18" y="-555.3" font-family="Times,serif" font-size="14.00">1</text>
</g>
<!-- n18 -->
<g id="node18" class="node">
<title>n18</title>
<polygon fill="#e28f41" stroke="#e28f41" points="791.37,-947.5 633.37,-947.5 633.37,-789.5 791.37,-789.5 791.37,-947.5"/>
<text text-anchor="middle" x="712.37" y="-864.8" font-family="Times,serif" font-size="14.00">(:recovery, :disease)</text>
</g>
<!-- n6&#45;&gt;n18 -->
<g id="edge1" class="edge">
<title>n6&#45;&gt;n18</title>
<path fill="none" stroke="black" d="M551.72,-646.17C572.92,-685.27 602.67,-736.84 633.37,-779.5 633.74,-780.01 634.11,-780.52 634.48,-781.03"/>
<polygon fill="black" stroke="black" points="631.87,-783.38 640.65,-789.3 637.47,-779.19 631.87,-783.38"/>
<text text-anchor="middle" x="610.37" y="-753.3" font-family="Times,serif" font-size="14.00">1</text>
</g>
<!-- n19 -->
<g id="node19" class="node">
<title>n19</title>
<polygon fill="#e28f41" stroke="#e28f41" points="781.87,-771 642.87,-771 642.87,-632 781.87,-632 781.87,-771"/>
<text text-anchor="middle" x="712.37" y="-697.8" font-family="Times,serif" font-size="14.00">(:death, :disease)</text>
</g>
<!-- n6&#45;&gt;n19 -->
<g id="edge27" class="edge">
<title>n6&#45;&gt;n19</title>
<path fill="none" stroke="black" d="M577.96,-621C595.57,-631.63 615.25,-643.5 633.98,-654.8"/>
<polygon fill="black" stroke="black" points="632.42,-657.95 642.8,-660.12 636.04,-651.96 632.42,-657.95"/>
<text text-anchor="middle" x="610.37" y="-645.3" font-family="Times,serif" font-size="14.00">1</text>
</g>
<!-- n21 -->
<g id="node21" class="node">
<title>n21</title>
<polygon fill="#e28f41" stroke="#e28f41" points="777.87,-614 646.87,-614 646.87,-483 777.87,-483 777.87,-614"/>
<text text-anchor="middle" x="712.37" y="-544.8" font-family="Times,serif" font-size="14.00">(:strata, :strata)</text>
</g>
<!-- n6&#45;&gt;n21 -->
<g id="edge9" class="edge">
<title>n6&#45;&gt;n21</title>
<path fill="none" stroke="black" d="M586.37,-573.42C602.51,-570.2 619.91,-566.73 636.46,-563.44"/>
<polygon fill="black" stroke="black" points="637.51,-566.8 646.63,-561.41 636.14,-559.93 637.51,-566.8"/>
<text text-anchor="middle" x="610.37" y="-573.3" font-family="Times,serif" font-size="14.00">1</text>
</g>
<!-- n7 -->
<g id="node7" class="node">
<title>n7</title>
<ellipse fill="#6c9ac3" stroke="#6c9ac3" cx="908.22" cy="-868.5" rx="70.69" ry="70.69"/>
<text text-anchor="middle" x="908.22" y="-864.8" font-family="Times,serif" font-size="14.00">(:R, :Strain2)</text>
</g>
<!-- n22 -->
<g id="node22" class="node">
<title>n22</title>
<polygon fill="#e28f41" stroke="#e28f41" points="1156.06,-934 1025.06,-934 1025.06,-803 1156.06,-803 1156.06,-934"/>
<text text-anchor="middle" x="1090.56" y="-864.8" font-family="Times,serif" font-size="14.00">(:strata, :strata)</text>
</g>
<!-- n7&#45;&gt;n22 -->
<g id="edge3" class="edge">
<title>n7&#45;&gt;n22</title>
<path fill="none" stroke="black" d="M979.2,-868.5C990.84,-868.5 1002.95,-868.5 1014.71,-868.5"/>
<polygon fill="black" stroke="black" points="1014.93,-872 1024.93,-868.5 1014.93,-865 1014.93,-872"/>
<text text-anchor="middle" x="1002.06" y="-872.3" font-family="Times,serif" font-size="14.00">1</text>
</g>
<!-- n8 -->
<g id="node8" class="node">
<title>n8</title>
<ellipse fill="#6c9ac3" stroke="#6c9ac3" cx="908.22" cy="-701.5" rx="70.69" ry="70.69"/>
<text text-anchor="middle" x="908.22" y="-697.8" font-family="Times,serif" font-size="14.00">(:D, :Strain2)</text>
</g>
<!-- n9 -->
<g id="node9" class="node">
<title>n9</title>
<ellipse fill="#6c9ac3" stroke="#6c9ac3" cx="87.09" cy="-1438.5" rx="69.59" ry="69.59"/>
<text text-anchor="middle" x="87.09" y="-1434.8" font-family="Times,serif" font-size="14.00">(:S, :Strain1)</text>
</g>
<!-- n25 -->
<g id="node25" class="node">
<title>n25</title>
<polygon fill="#e28f41" stroke="#e28f41" points="378.68,-1507 247.68,-1507 247.68,-1376 378.68,-1376 378.68,-1507"/>
<text text-anchor="middle" x="313.18" y="-1437.8" font-family="Times,serif" font-size="14.00">(:strata, :strata)</text>
</g>
<!-- n9&#45;&gt;n25 -->
<g id="edge30" class="edge">
<title>n9&#45;&gt;n25</title>
<path fill="none" stroke="black" d="M156.85,-1439.42C182.29,-1439.76 211.25,-1440.15 237.22,-1440.5"/>
<polygon fill="black" stroke="black" points="237.34,-1444 247.39,-1440.63 237.43,-1437 237.34,-1444"/>
<text text-anchor="middle" x="197.18" y="-1444.3" font-family="Times,serif" font-size="14.00">1</text>
</g>
<!-- n10 -->
<g id="node10" class="node">
<title>n10</title>
<ellipse fill="#6c9ac3" stroke="#6c9ac3" cx="519.78" cy="-218.5" rx="67.69" ry="67.69"/>
<text text-anchor="middle" x="519.78" y="-214.8" font-family="Times,serif" font-size="14.00">(:I, :Strain1)</text>
</g>
<!-- n10&#45;&gt;n14 -->
<g id="edge26" class="edge">
<title>n10&#45;&gt;n14</title>
<path fill="none" stroke="black" d="M452.36,-212.88C442.86,-213.09 433.24,-213.87 424.18,-215.5 421.5,-215.98 418.8,-216.53 416.09,-217.13"/>
<polygon fill="black" stroke="black" points="415.14,-213.76 406.24,-219.51 416.79,-220.56 415.14,-213.76"/>
<text text-anchor="middle" x="429.18" y="-219.3" font-family="Times,serif" font-size="14.00">1</text>
</g>
<!-- n23 -->
<g id="node23" class="node">
<title>n23</title>
<polygon fill="#e28f41" stroke="#e28f41" points="791.37,-464.5 633.37,-464.5 633.37,-306.5 791.37,-306.5 791.37,-464.5"/>
<text text-anchor="middle" x="712.37" y="-381.8" font-family="Times,serif" font-size="14.00">(:recovery, :disease)</text>
</g>
<!-- n10&#45;&gt;n23 -->
<g id="edge19" class="edge">
<title>n10&#45;&gt;n23</title>
<path fill="none" stroke="black" d="M571.1,-262.6C587.7,-277.14 606.66,-293.75 625.16,-309.96"/>
<polygon fill="black" stroke="black" points="623.23,-312.92 633.05,-316.88 627.84,-307.65 623.23,-312.92"/>
<text text-anchor="middle" x="610.37" y="-301.3" font-family="Times,serif" font-size="14.00">1</text>
</g>
<!-- n24 -->
<g id="node24" class="node">
<title>n24</title>
<polygon fill="#e28f41" stroke="#e28f41" points="781.87,-288 642.87,-288 642.87,-149 781.87,-149 781.87,-288"/>
<text text-anchor="middle" x="712.37" y="-214.8" font-family="Times,serif" font-size="14.00">(:death, :disease)</text>
</g>
<!-- n10&#45;&gt;n24 -->
<g id="edge24" class="edge">
<title>n10&#45;&gt;n24</title>
<path fill="none" stroke="black" d="M587.44,-218.5C602,-218.5 617.55,-218.5 632.54,-218.5"/>
<polygon fill="black" stroke="black" points="632.81,-222 642.81,-218.5 632.81,-215 632.81,-222"/>
<text text-anchor="middle" x="610.37" y="-222.3" font-family="Times,serif" font-size="14.00">1</text>
</g>
<!-- n26 -->
<g id="node26" class="node">
<title>n26</title>
<polygon fill="#e28f41" stroke="#e28f41" points="777.87,-131 646.87,-131 646.87,0 777.87,0 777.87,-131"/>
<text text-anchor="middle" x="712.37" y="-61.8" font-family="Times,serif" font-size="14.00">(:strata, :strata)</text>
</g>
<!-- n10&#45;&gt;n26 -->
<g id="edge21" class="edge">
<title>n10&#45;&gt;n26</title>
<path fill="none" stroke="black" d="M573.11,-176.49C593.33,-160.26 616.81,-141.41 638.62,-123.9"/>
<polygon fill="black" stroke="black" points="640.97,-126.51 646.57,-117.52 636.58,-121.05 640.97,-126.51"/>
<text text-anchor="middle" x="610.37" y="-151.3" font-family="Times,serif" font-size="14.00">1</text>
</g>
<!-- n11 -->
<g id="node11" class="node">
<title>n11</title>
<ellipse fill="#6c9ac3" stroke="#6c9ac3" cx="908.22" cy="-385.5" rx="70.69" ry="70.69"/>
<text text-anchor="middle" x="908.22" y="-381.8" font-family="Times,serif" font-size="14.00">(:R, :Strain1)</text>
</g>
<!-- n27 -->
<g id="node27" class="node">
<title>n27</title>
<polygon fill="#e28f41" stroke="#e28f41" points="1156.06,-451 1025.06,-451 1025.06,-320 1156.06,-320 1156.06,-451"/>
<text text-anchor="middle" x="1090.56" y="-381.8" font-family="Times,serif" font-size="14.00">(:strata, :strata)</text>
</g>
<!-- n11&#45;&gt;n27 -->
<g id="edge4" class="edge">
<title>n11&#45;&gt;n27</title>
<path fill="none" stroke="black" d="M979.2,-385.5C990.84,-385.5 1002.95,-385.5 1014.71,-385.5"/>
<polygon fill="black" stroke="black" points="1014.93,-389 1024.93,-385.5 1014.93,-382 1014.93,-389"/>
<text text-anchor="middle" x="1002.06" y="-389.3" font-family="Times,serif" font-size="14.00">1</text>
</g>
<!-- n12 -->
<g id="node12" class="node">
<title>n12</title>
<ellipse fill="#6c9ac3" stroke="#6c9ac3" cx="908.22" cy="-218.5" rx="70.69" ry="70.69"/>
<text text-anchor="middle" x="908.22" y="-214.8" font-family="Times,serif" font-size="14.00">(:D, :Strain1)</text>
</g>
<!-- n13&#45;&gt;n6 -->
<g id="edge11" class="edge">
<title>n13&#45;&gt;n6</title>
<path fill="none" stroke="black" d="M406.31,-565.61C418.65,-567.9 431.2,-570.23 443.22,-572.47"/>
<polygon fill="black" stroke="black" points="442.7,-575.93 453.17,-574.31 443.98,-569.05 442.7,-575.93"/>
<text text-anchor="middle" x="429.18" y="-574.3" font-family="Times,serif" font-size="14.00">2</text>
</g>
<!-- n14&#45;&gt;n10 -->
<g id="edge13" class="edge">
<title>n14&#45;&gt;n10</title>
<path fill="none" stroke="black" d="M406.24,-239.68C415.68,-237.94 425.13,-236.19 434.18,-234.5 437.17,-233.94 440.22,-233.37 443.3,-232.8"/>
<polygon fill="black" stroke="black" points="444.02,-236.22 453.21,-230.94 442.73,-229.34 444.02,-236.22"/>
<text text-anchor="middle" x="429.18" y="-240.3" font-family="Times,serif" font-size="14.00">2</text>
</g>
<!-- n15&#45;&gt;n1 -->
<g id="edge18" class="edge">
<title>n15&#45;&gt;n1</title>
<path fill="none" stroke="black" d="M247.53,-94.17C229.18,-99.44 209.5,-106.19 192.18,-114.5 182.99,-118.92 173.72,-124.12 164.7,-129.68"/>
<polygon fill="black" stroke="black" points="162.71,-126.79 156.14,-135.1 166.46,-132.7 162.71,-126.79"/>
<text text-anchor="middle" x="197.18" y="-118.3" font-family="Times,serif" font-size="14.00">1</text>
</g>
<!-- n16&#45;&gt;n2 -->
<g id="edge28" class="edge">
<title>n16&#45;&gt;n2</title>
<path fill="none" stroke="black" d="M247.59,-710.18C229.7,-707.47 210.24,-705.95 192.18,-707.5 188.19,-707.84 184.11,-708.26 180,-708.73"/>
<polygon fill="black" stroke="black" points="179.23,-705.3 169.74,-710.02 180.1,-712.25 179.23,-705.3"/>
<text text-anchor="middle" x="197.18" y="-711.3" font-family="Times,serif" font-size="14.00">1</text>
</g>
<!-- n17&#45;&gt;n3 -->
<g id="edge5" class="edge">
<title>n17&#45;&gt;n3</title>
<path fill="none" stroke="black" d="M247.59,-899.18C229.7,-896.47 210.24,-894.95 192.18,-896.5 189.13,-896.76 186.03,-897.07 182.91,-897.41"/>
<polygon fill="black" stroke="black" points="182.38,-893.95 172.86,-898.61 183.21,-900.9 182.38,-893.95"/>
<text text-anchor="middle" x="197.18" y="-900.3" font-family="Times,serif" font-size="14.00">1</text>
</g>
<!-- n18&#45;&gt;n7 -->
<g id="edge20" class="edge">
<title>n18&#45;&gt;n7</title>
<path fill="none" stroke="black" d="M791.38,-868.5C803.1,-868.5 815.2,-868.5 826.96,-868.5"/>
<polygon fill="black" stroke="black" points="827.19,-872 837.19,-868.5 827.19,-865 827.19,-872"/>
<text text-anchor="middle" x="814.37" y="-872.3" font-family="Times,serif" font-size="14.00">1</text>
</g>
<!-- n19&#45;&gt;n8 -->
<g id="edge32" class="edge">
<title>n19&#45;&gt;n8</title>
<path fill="none" stroke="black" d="M781.99,-701.5C796.5,-701.5 811.94,-701.5 826.84,-701.5"/>
<polygon fill="black" stroke="black" points="827.06,-705 837.06,-701.5 827.06,-698 827.06,-705"/>
<text text-anchor="middle" x="814.37" y="-705.3" font-family="Times,serif" font-size="14.00">1</text>
</g>
<!-- n20&#45;&gt;n5 -->
<g id="edge17" class="edge">
<title>n20&#45;&gt;n5</title>
<path fill="none" stroke="black" d="M247.5,-1261.22C229.6,-1258.81 210.16,-1257.62 192.18,-1259.5 183.28,-1260.43 174.02,-1261.8 164.85,-1263.4"/>
<polygon fill="black" stroke="black" points="164.16,-1259.97 154.96,-1265.23 165.43,-1266.85 164.16,-1259.97"/>
<text text-anchor="middle" x="197.18" y="-1263.3" font-family="Times,serif" font-size="14.00">1</text>
</g>
<!-- n21&#45;&gt;n6 -->
<g id="edge15" class="edge">
<title>n21&#45;&gt;n6</title>
<path fill="none" stroke="black" d="M646.74,-545.79C632.97,-546.3 618.6,-547.67 605.37,-550.5 600.65,-551.51 595.85,-552.79 591.08,-554.25"/>
<polygon fill="black" stroke="black" points="589.71,-551.01 581.32,-557.49 591.92,-557.66 589.71,-551.01"/>
<text text-anchor="middle" x="610.37" y="-554.3" font-family="Times,serif" font-size="14.00">1</text>
</g>
<!-- n22&#45;&gt;n7 -->
<g id="edge29" class="edge">
<title>n22&#45;&gt;n7</title>
<path fill="none" stroke="black" d="M1024.95,-852.16C1018.93,-851.08 1012.9,-850.16 1007.06,-849.5 1000.42,-848.75 993.55,-848.65 986.68,-849.03"/>
<polygon fill="black" stroke="black" points="986.29,-845.56 976.64,-849.92 986.91,-852.53 986.29,-845.56"/>
<text text-anchor="middle" x="1002.06" y="-853.3" font-family="Times,serif" font-size="14.00">1</text>
</g>
<!-- n23&#45;&gt;n11 -->
<g id="edge22" class="edge">
<title>n23&#45;&gt;n11</title>
<path fill="none" stroke="black" d="M791.38,-385.5C803.1,-385.5 815.2,-385.5 826.96,-385.5"/>
<polygon fill="black" stroke="black" points="827.19,-389 837.19,-385.5 827.19,-382 827.19,-389"/>
<text text-anchor="middle" x="814.37" y="-389.3" font-family="Times,serif" font-size="14.00">1</text>
</g>
<!-- n24&#45;&gt;n12 -->
<g id="edge2" class="edge">
<title>n24&#45;&gt;n12</title>
<path fill="none" stroke="black" d="M781.99,-218.5C796.5,-218.5 811.94,-218.5 826.84,-218.5"/>
<polygon fill="black" stroke="black" points="827.06,-222 837.06,-218.5 827.06,-215 827.06,-222"/>
<text text-anchor="middle" x="814.37" y="-222.3" font-family="Times,serif" font-size="14.00">1</text>
</g>
<!-- n25&#45;&gt;n9 -->
<g id="edge25" class="edge">
<title>n25&#45;&gt;n9</title>
<path fill="none" stroke="black" d="M247.38,-1423.9C229.57,-1420.78 210.2,-1418.95 192.18,-1420.5 183.49,-1421.25 174.43,-1422.34 165.44,-1423.62"/>
<polygon fill="black" stroke="black" points="164.71,-1420.19 155.35,-1425.14 165.76,-1427.11 164.71,-1420.19"/>
<text text-anchor="middle" x="197.18" y="-1424.3" font-family="Times,serif" font-size="14.00">1</text>
</g>
<!-- n26&#45;&gt;n10 -->
<g id="edge23" class="edge">
<title>n26&#45;&gt;n10</title>
<path fill="none" stroke="black" d="M646.67,-100.04C632.56,-108.63 618.06,-118.32 605.37,-128.5 593.57,-137.97 581.85,-149.05 571.07,-160.14"/>
<polygon fill="black" stroke="black" points="568.5,-157.77 564.12,-167.42 573.56,-162.6 568.5,-157.77"/>
<text text-anchor="middle" x="610.37" y="-132.3" font-family="Times,serif" font-size="14.00">1</text>
</g>
<!-- n27&#45;&gt;n11 -->
<g id="edge16" class="edge">
<title>n27&#45;&gt;n11</title>
<path fill="none" stroke="black" d="M1024.95,-369.16C1018.93,-368.08 1012.9,-367.16 1007.06,-366.5 1000.42,-365.75 993.55,-365.65 986.68,-366.03"/>
<polygon fill="black" stroke="black" points="986.29,-362.56 976.64,-366.92 986.91,-369.53 986.29,-362.56"/>
<text text-anchor="middle" x="1002.06" y="-370.3" font-family="Times,serif" font-size="14.00">1</text>
</g>
</g>
</svg>
