<?xml version="1.0" encoding="UTF-8" standalone="no"?>
<!DOCTYPE svg PUBLIC "-//W3C//DTD SVG 1.1//EN"
 "http://www.w3.org/Graphics/SVG/1.1/DTD/svg11.dtd">
<!-- Generated by graphviz version 2.43.0 (0)
 -->
<!-- Title: G Pages: 1 -->
<svg width="1173pt" height="976pt"
 viewBox="0.00 0.00 1172.76 975.50" xmlns="http://www.w3.org/2000/svg" xmlns:xlink="http://www.w3.org/1999/xlink">
<g id="graph0" class="graph" transform="scale(1 1) rotate(0) translate(4 971.5)">
<title>G</title>
<polygon fill="white" stroke="transparent" points="-4,4 -4,-971.5 1168.76,-971.5 1168.76,4 -4,4"/>
<!-- n1 -->
<g id="node1" class="node">
<title>n1</title>
<ellipse fill="#6c9ac3" stroke="#6c9ac3" cx="86.44" cy="-219.5" rx="86.38" ry="86.38"/>
<text text-anchor="middle" x="86.44" y="-215.8" font-family="Times,serif" font-size="14.00">(:S, :Uninfected)</text>
</g>
<!-- n8 -->
<g id="node8" class="node">
<title>n8</title>
<polygon fill="#e28f41" stroke="#e28f41" points="404.88,-656.5 218.88,-656.5 218.88,-470.5 404.88,-470.5 404.88,-656.5"/>
<text text-anchor="middle" x="311.88" y="-559.8" font-family="Times,serif" font-size="14.00">(:infection, :inf_Strain2)</text>
</g>
<!-- n1&#45;&gt;n8 -->
<g id="edge23" class="edge">
<title>n1&#45;&gt;n8</title>
<path fill="none" stroke="black" d="M134.28,-291.61C166.29,-340.89 209.17,-406.91 244.66,-461.55"/>
<polygon fill="black" stroke="black" points="241.91,-463.74 250.29,-470.22 247.78,-459.92 241.91,-463.74"/>
<text text-anchor="middle" x="195.88" y="-395.3" font-family="Times,serif" font-size="14.00">1</text>
</g>
<!-- n9 -->
<g id="node9" class="node">
<title>n9</title>
<polygon fill="#e28f41" stroke="#e28f41" points="404.88,-359.5 218.88,-359.5 218.88,-173.5 404.88,-173.5 404.88,-359.5"/>
<text text-anchor="middle" x="311.88" y="-262.8" font-family="Times,serif" font-size="14.00">(:infection, :inf_Strain1)</text>
</g>
<!-- n1&#45;&gt;n9 -->
<g id="edge11" class="edge">
<title>n1&#45;&gt;n9</title>
<path fill="none" stroke="black" d="M171.28,-237.13C183.49,-239.7 196.18,-242.37 208.71,-245.01"/>
<polygon fill="black" stroke="black" points="208.2,-248.48 218.71,-247.11 209.65,-241.63 208.2,-248.48"/>
<text text-anchor="middle" x="195.88" y="-246.3" font-family="Times,serif" font-size="14.00">1</text>
</g>
<!-- n10 -->
<g id="node10" class="node">
<title>n10</title>
<polygon fill="#e28f41" stroke="#e28f41" points="388.38,-155 235.38,-155 235.38,-2 388.38,-2 388.38,-155"/>
<text text-anchor="middle" x="311.88" y="-74.8" font-family="Times,serif" font-size="14.00">(:strataU, :strataU)</text>
</g>
<!-- n1&#45;&gt;n10 -->
<g id="edge24" class="edge">
<title>n1&#45;&gt;n10</title>
<path fill="none" stroke="black" d="M167.74,-189.97C179.15,-184.7 190.52,-178.85 200.88,-172.5 209.65,-167.13 218.42,-161.07 226.98,-154.69"/>
<polygon fill="black" stroke="black" points="229.28,-157.33 235.1,-148.47 225.03,-151.77 229.28,-157.33"/>
<text text-anchor="middle" x="195.88" y="-182.3" font-family="Times,serif" font-size="14.00">1</text>
</g>
<!-- n2 -->
<g id="node2" class="node">
<title>n2</title>
<ellipse fill="#6c9ac3" stroke="#6c9ac3" cx="518.48" cy="-601.5" rx="67.69" ry="67.69"/>
<text text-anchor="middle" x="518.48" y="-597.8" font-family="Times,serif" font-size="14.00">(:I, :Strain2)</text>
</g>
<!-- n2&#45;&gt;n8 -->
<g id="edge15" class="edge">
<title>n2&#45;&gt;n8</title>
<path fill="none" stroke="black" d="M456.94,-572.47C448.99,-569.64 440.85,-567.19 432.88,-565.5 427.14,-564.28 421.21,-563.3 415.19,-562.53"/>
<polygon fill="black" stroke="black" points="415.34,-559.03 405.02,-561.42 414.58,-565.98 415.34,-559.03"/>
<text text-anchor="middle" x="427.88" y="-569.3" font-family="Times,serif" font-size="14.00">1</text>
</g>
<!-- n11 -->
<g id="node11" class="node">
<title>n11</title>
<polygon fill="#e28f41" stroke="#e28f41" points="790.07,-967.5 632.07,-967.5 632.07,-809.5 790.07,-809.5 790.07,-967.5"/>
<text text-anchor="middle" x="711.07" y="-884.8" font-family="Times,serif" font-size="14.00">(:recovery, :disease)</text>
</g>
<!-- n2&#45;&gt;n11 -->
<g id="edge4" class="edge">
<title>n2&#45;&gt;n11</title>
<path fill="none" stroke="black" d="M549.36,-661.83C570.45,-702.36 600.47,-756.24 632.07,-800.5 632.27,-800.78 632.47,-801.06 632.68,-801.34"/>
<polygon fill="black" stroke="black" points="629.95,-803.54 638.71,-809.5 635.58,-799.38 629.95,-803.54"/>
<text text-anchor="middle" x="609.07" y="-773.3" font-family="Times,serif" font-size="14.00">1</text>
</g>
<!-- n12 -->
<g id="node12" class="node">
<title>n12</title>
<polygon fill="#e28f41" stroke="#e28f41" points="780.57,-791 641.57,-791 641.57,-652 780.57,-652 780.57,-791"/>
<text text-anchor="middle" x="711.07" y="-717.8" font-family="Times,serif" font-size="14.00">(:death, :disease)</text>
</g>
<!-- n2&#45;&gt;n12 -->
<g id="edge19" class="edge">
<title>n2&#45;&gt;n12</title>
<path fill="none" stroke="black" d="M576.15,-637.18C593.94,-648.38 613.9,-660.95 632.86,-672.89"/>
<polygon fill="black" stroke="black" points="631.17,-675.96 641.5,-678.32 634.9,-670.03 631.17,-675.96"/>
<text text-anchor="middle" x="609.07" y="-661.3" font-family="Times,serif" font-size="14.00">1</text>
</g>
<!-- n13 -->
<g id="node13" class="node">
<title>n13</title>
<polygon fill="#e28f41" stroke="#e28f41" points="781.57,-634 640.57,-634 640.57,-493 781.57,-493 781.57,-634"/>
<text text-anchor="middle" x="711.07" y="-559.8" font-family="Times,serif" font-size="14.00">(:strataI, :strataI)</text>
</g>
<!-- n2&#45;&gt;n13 -->
<g id="edge21" class="edge">
<title>n2&#45;&gt;n13</title>
<path fill="none" stroke="black" d="M585.07,-588.42C599.73,-585.5 615.44,-582.37 630.59,-579.35"/>
<polygon fill="black" stroke="black" points="631.34,-582.77 640.46,-577.38 629.97,-575.9 631.34,-582.77"/>
<text text-anchor="middle" x="609.07" y="-587.3" font-family="Times,serif" font-size="14.00">1</text>
</g>
<!-- n3 -->
<g id="node3" class="node">
<title>n3</title>
<ellipse fill="#6c9ac3" stroke="#6c9ac3" cx="906.92" cy="-888.5" rx="70.69" ry="70.69"/>
<text text-anchor="middle" x="906.92" y="-884.8" font-family="Times,serif" font-size="14.00">(:R, :Strain2)</text>
</g>
<!-- n14 -->
<g id="node14" class="node">
<title>n14</title>
<polygon fill="#e28f41" stroke="#e28f41" points="1164.76,-959 1023.76,-959 1023.76,-818 1164.76,-818 1164.76,-959"/>
<text text-anchor="middle" x="1094.26" y="-884.8" font-family="Times,serif" font-size="14.00">(:strataI, :strataI)</text>
</g>
<!-- n3&#45;&gt;n14 -->
<g id="edge13" class="edge">
<title>n3&#45;&gt;n14</title>
<path fill="none" stroke="black" d="M977.99,-888.5C989.56,-888.5 1001.64,-888.5 1013.43,-888.5"/>
<polygon fill="black" stroke="black" points="1013.71,-892 1023.71,-888.5 1013.71,-885 1013.71,-892"/>
<text text-anchor="middle" x="1000.76" y="-892.3" font-family="Times,serif" font-size="14.00">1</text>
</g>
<!-- n4 -->
<g id="node4" class="node">
<title>n4</title>
<ellipse fill="#6c9ac3" stroke="#6c9ac3" cx="906.92" cy="-721.5" rx="70.69" ry="70.69"/>
<text text-anchor="middle" x="906.92" y="-717.8" font-family="Times,serif" font-size="14.00">(:D, :Strain2)</text>
</g>
<!-- n5 -->
<g id="node5" class="node">
<title>n5</title>
<ellipse fill="#6c9ac3" stroke="#6c9ac3" cx="518.48" cy="-228.5" rx="67.69" ry="67.69"/>
<text text-anchor="middle" x="518.48" y="-224.8" font-family="Times,serif" font-size="14.00">(:I, :Strain1)</text>
</g>
<!-- n5&#45;&gt;n9 -->
<g id="edge6" class="edge">
<title>n5&#45;&gt;n9</title>
<path fill="none" stroke="black" d="M450.83,-226.58C441.41,-227.07 431.87,-227.98 422.88,-229.5 420.23,-229.95 417.55,-230.45 414.86,-231"/>
<polygon fill="black" stroke="black" points="414.07,-227.59 405.08,-233.19 415.6,-234.42 414.07,-227.59"/>
<text text-anchor="middle" x="427.88" y="-233.3" font-family="Times,serif" font-size="14.00">1</text>
</g>
<!-- n15 -->
<g id="node15" class="node">
<title>n15</title>
<polygon fill="#e28f41" stroke="#e28f41" points="790.07,-474.5 632.07,-474.5 632.07,-316.5 790.07,-316.5 790.07,-474.5"/>
<text text-anchor="middle" x="711.07" y="-391.8" font-family="Times,serif" font-size="14.00">(:recovery, :disease)</text>
</g>
<!-- n5&#45;&gt;n15 -->
<g id="edge22" class="edge">
<title>n5&#45;&gt;n15</title>
<path fill="none" stroke="black" d="M569.8,-272.6C586.4,-287.14 605.36,-303.75 623.86,-319.96"/>
<polygon fill="black" stroke="black" points="621.93,-322.92 631.75,-326.88 626.54,-317.65 621.93,-322.92"/>
<text text-anchor="middle" x="609.07" y="-310.3" font-family="Times,serif" font-size="14.00">1</text>
</g>
<!-- n16 -->
<g id="node16" class="node">
<title>n16</title>
<polygon fill="#e28f41" stroke="#e28f41" points="780.57,-298 641.57,-298 641.57,-159 780.57,-159 780.57,-298"/>
<text text-anchor="middle" x="711.07" y="-224.8" font-family="Times,serif" font-size="14.00">(:death, :disease)</text>
</g>
<!-- n5&#45;&gt;n16 -->
<g id="edge5" class="edge">
<title>n5&#45;&gt;n16</title>
<path fill="none" stroke="black" d="M586.14,-228.5C600.7,-228.5 616.25,-228.5 631.24,-228.5"/>
<polygon fill="black" stroke="black" points="631.51,-232 641.51,-228.5 631.51,-225 631.51,-232"/>
<text text-anchor="middle" x="609.07" y="-232.3" font-family="Times,serif" font-size="14.00">1</text>
</g>
<!-- n17 -->
<g id="node17" class="node">
<title>n17</title>
<polygon fill="#e28f41" stroke="#e28f41" points="781.57,-141 640.57,-141 640.57,0 781.57,0 781.57,-141"/>
<text text-anchor="middle" x="711.07" y="-66.8" font-family="Times,serif" font-size="14.00">(:strataI, :strataI)</text>
</g>
<!-- n5&#45;&gt;n17 -->
<g id="edge20" class="edge">
<title>n5&#45;&gt;n17</title>
<path fill="none" stroke="black" d="M571.06,-185.74C590.02,-170.02 611.93,-151.86 632.68,-134.66"/>
<polygon fill="black" stroke="black" points="635.09,-137.2 640.56,-128.13 630.63,-131.81 635.09,-137.2"/>
<text text-anchor="middle" x="609.07" y="-158.3" font-family="Times,serif" font-size="14.00">1</text>
</g>
<!-- n6 -->
<g id="node6" class="node">
<title>n6</title>
<ellipse fill="#6c9ac3" stroke="#6c9ac3" cx="906.92" cy="-395.5" rx="70.69" ry="70.69"/>
<text text-anchor="middle" x="906.92" y="-391.8" font-family="Times,serif" font-size="14.00">(:R, :Strain1)</text>
</g>
<!-- n18 -->
<g id="node18" class="node">
<title>n18</title>
<polygon fill="#e28f41" stroke="#e28f41" points="1164.76,-466 1023.76,-466 1023.76,-325 1164.76,-325 1164.76,-466"/>
<text text-anchor="middle" x="1094.26" y="-391.8" font-family="Times,serif" font-size="14.00">(:strataI, :strataI)</text>
</g>
<!-- n6&#45;&gt;n18 -->
<g id="edge1" class="edge">
<title>n6&#45;&gt;n18</title>
<path fill="none" stroke="black" d="M977.99,-395.5C989.56,-395.5 1001.64,-395.5 1013.43,-395.5"/>
<polygon fill="black" stroke="black" points="1013.71,-399 1023.71,-395.5 1013.71,-392 1013.71,-399"/>
<text text-anchor="middle" x="1000.76" y="-399.3" font-family="Times,serif" font-size="14.00">1</text>
</g>
<!-- n7 -->
<g id="node7" class="node">
<title>n7</title>
<ellipse fill="#6c9ac3" stroke="#6c9ac3" cx="906.92" cy="-228.5" rx="70.69" ry="70.69"/>
<text text-anchor="middle" x="906.92" y="-224.8" font-family="Times,serif" font-size="14.00">(:D, :Strain1)</text>
</g>
<!-- n8&#45;&gt;n2 -->
<g id="edge2" class="edge">
<title>n8&#45;&gt;n2</title>
<path fill="none" stroke="black" d="M405.01,-580.61C417.35,-582.9 429.9,-585.23 441.92,-587.47"/>
<polygon fill="black" stroke="black" points="441.4,-590.93 451.87,-589.31 442.68,-584.05 441.4,-590.93"/>
<text text-anchor="middle" x="427.88" y="-588.3" font-family="Times,serif" font-size="14.00">2</text>
</g>
<!-- n9&#45;&gt;n5 -->
<g id="edge17" class="edge">
<title>n9&#45;&gt;n5</title>
<path fill="none" stroke="black" d="M404.94,-249.68C414.38,-247.94 423.83,-246.19 432.88,-244.5 435.87,-243.94 438.92,-243.37 442,-242.8"/>
<polygon fill="black" stroke="black" points="442.72,-246.22 451.91,-240.94 441.43,-239.34 442.72,-246.22"/>
<text text-anchor="middle" x="427.88" y="-249.3" font-family="Times,serif" font-size="14.00">2</text>
</g>
<!-- n10&#45;&gt;n1 -->
<g id="edge12" class="edge">
<title>n10&#45;&gt;n1</title>
<path fill="none" stroke="black" d="M235.25,-126.23C213.79,-139.77 190.33,-154.57 168.56,-168.31"/>
<polygon fill="black" stroke="black" points="166.58,-165.42 159.99,-173.72 170.31,-171.34 166.58,-165.42"/>
<text text-anchor="middle" x="195.88" y="-157.3" font-family="Times,serif" font-size="14.00">1</text>
</g>
<!-- n11&#45;&gt;n3 -->
<g id="edge8" class="edge">
<title>n11&#45;&gt;n3</title>
<path fill="none" stroke="black" d="M790.08,-888.5C801.8,-888.5 813.9,-888.5 825.66,-888.5"/>
<polygon fill="black" stroke="black" points="825.89,-892 835.89,-888.5 825.89,-885 825.89,-892"/>
<text text-anchor="middle" x="813.07" y="-892.3" font-family="Times,serif" font-size="14.00">1</text>
</g>
<!-- n12&#45;&gt;n4 -->
<g id="edge3" class="edge">
<title>n12&#45;&gt;n4</title>
<path fill="none" stroke="black" d="M780.69,-721.5C795.2,-721.5 810.64,-721.5 825.54,-721.5"/>
<polygon fill="black" stroke="black" points="825.76,-725 835.76,-721.5 825.76,-718 825.76,-725"/>
<text text-anchor="middle" x="813.07" y="-725.3" font-family="Times,serif" font-size="14.00">1</text>
</g>
<!-- n13&#45;&gt;n2 -->
<g id="edge16" class="edge">
<title>n13&#45;&gt;n2</title>
<path fill="none" stroke="black" d="M640.35,-560.17C628.17,-560.72 615.68,-562.02 604.07,-564.5 599.11,-565.56 594.07,-566.93 589.06,-568.51"/>
<polygon fill="black" stroke="black" points="587.82,-565.24 579.49,-571.78 590.09,-571.86 587.82,-565.24"/>
<text text-anchor="middle" x="609.07" y="-568.3" font-family="Times,serif" font-size="14.00">1</text>
</g>
<!-- n14&#45;&gt;n3 -->
<g id="edge10" class="edge">
<title>n14&#45;&gt;n3</title>
<path fill="none" stroke="black" d="M1023.73,-872.87C1017.67,-871.91 1011.62,-871.1 1005.76,-870.5 999.33,-869.85 992.69,-869.77 986.04,-870.11"/>
<polygon fill="black" stroke="black" points="985.29,-866.66 975.61,-870.97 985.87,-873.64 985.29,-866.66"/>
<text text-anchor="middle" x="1000.76" y="-874.3" font-family="Times,serif" font-size="14.00">1</text>
</g>
<!-- n15&#45;&gt;n6 -->
<g id="edge7" class="edge">
<title>n15&#45;&gt;n6</title>
<path fill="none" stroke="black" d="M790.08,-395.5C801.8,-395.5 813.9,-395.5 825.66,-395.5"/>
<polygon fill="black" stroke="black" points="825.89,-399 835.89,-395.5 825.89,-392 825.89,-399"/>
<text text-anchor="middle" x="813.07" y="-399.3" font-family="Times,serif" font-size="14.00">1</text>
</g>
<!-- n16&#45;&gt;n7 -->
<g id="edge18" class="edge">
<title>n16&#45;&gt;n7</title>
<path fill="none" stroke="black" d="M780.69,-228.5C795.2,-228.5 810.64,-228.5 825.54,-228.5"/>
<polygon fill="black" stroke="black" points="825.76,-232 835.76,-228.5 825.76,-225 825.76,-232"/>
<text text-anchor="middle" x="813.07" y="-232.3" font-family="Times,serif" font-size="14.00">1</text>
</g>
<!-- n17&#45;&gt;n5 -->
<g id="edge14" class="edge">
<title>n17&#45;&gt;n5</title>
<path fill="none" stroke="black" d="M640.36,-106.96C627.8,-114.72 615.18,-123.35 604.07,-132.5 591.43,-142.91 579.06,-155.28 567.85,-167.62"/>
<polygon fill="black" stroke="black" points="565.06,-165.49 561.02,-175.29 570.29,-170.14 565.06,-165.49"/>
<text text-anchor="middle" x="609.07" y="-136.3" font-family="Times,serif" font-size="14.00">1</text>
</g>
<!-- n18&#45;&gt;n6 -->
<g id="edge9" class="edge">
<title>n18&#45;&gt;n6</title>
<path fill="none" stroke="black" d="M1023.75,-379C1017.69,-377.99 1011.63,-377.13 1005.76,-376.5 999.11,-375.79 992.24,-375.72 985.37,-376.12"/>
<polygon fill="black" stroke="black" points="984.97,-372.65 975.33,-377.03 985.6,-379.62 984.97,-372.65"/>
<text text-anchor="middle" x="1000.76" y="-380.3" font-family="Times,serif" font-size="14.00">1</text>
</g>
</g>
</svg>
