<?xml version="1.0" encoding="UTF-8" standalone="no"?>
<!DOCTYPE svg PUBLIC "-//W3C//DTD SVG 1.1//EN"
 "http://www.w3.org/Graphics/SVG/1.1/DTD/svg11.dtd">
<!-- Generated by graphviz version 2.43.0 (0)
 -->
<!-- Title: G Pages: 1 -->
<svg width="5744pt" height="5408pt"
 viewBox="0.00 0.00 5743.83 5407.58" xmlns="http://www.w3.org/2000/svg" xmlns:xlink="http://www.w3.org/1999/xlink">
<g id="graph0" class="graph" transform="scale(1 1) rotate(0) translate(4 5403.58)">
<title>G</title>
<polygon fill="white" stroke="transparent" points="-4,4 -4,-5403.58 5739.83,-5403.58 5739.83,4 -4,4"/>
<!-- n1 -->
<g id="node1" class="node">
<title>n1</title>
<ellipse fill="#6c9ac3" stroke="#6c9ac3" cx="148.19" cy="-2919.29" rx="148.37" ry="148.37"/>
<text text-anchor="middle" x="148.19" y="-2915.59" font-family="Times,serif" font-size="14.00">((:S, :Uninfected), :Unvaxxed)</text>
</g>
<!-- n22 -->
<g id="node22" class="node">
<title>n22</title>
<polygon fill="#e28f41" stroke="#e28f41" points="620.37,-2930.29 342.37,-2930.29 342.37,-2652.29 620.37,-2652.29 620.37,-2930.29"/>
<text text-anchor="middle" x="481.37" y="-2787.59" font-family="Times,serif" font-size="14.00">((:strataU, :strataU), :vax_VaxType1)</text>
</g>
<!-- n1&#45;&gt;n22 -->
<g id="edge45" class="edge">
<title>n1&#45;&gt;n22</title>
<path fill="none" stroke="black" d="M286.76,-2866.12C301.92,-2860.26 317.4,-2854.27 332.68,-2848.37"/>
<polygon fill="black" stroke="black" points="334.09,-2851.58 342.16,-2844.71 331.57,-2845.05 334.09,-2851.58"/>
<text text-anchor="middle" x="319.37" y="-2859.09" font-family="Times,serif" font-size="14.00">1</text>
</g>
<!-- n27 -->
<g id="node27" class="node">
<title>n27</title>
<polygon fill="#e28f41" stroke="#e28f41" points="916.37,-3098.29 638.37,-3098.29 638.37,-2820.29 916.37,-2820.29 916.37,-3098.29"/>
<text text-anchor="middle" x="777.37" y="-2955.59" font-family="Times,serif" font-size="14.00">((:strataU, :strataU), :vax_VaxType2)</text>
</g>
<!-- n1&#45;&gt;n27 -->
<g id="edge54" class="edge">
<title>n1&#45;&gt;n27</title>
<path fill="none" stroke="black" d="M295.73,-2935.35C311.46,-2936.81 327.24,-2938.16 342.37,-2939.29 437.24,-2946.38 543.97,-2951.34 627.85,-2954.54"/>
<polygon fill="black" stroke="black" points="627.84,-2958.05 637.97,-2954.93 628.11,-2951.05 627.84,-2958.05"/>
<text text-anchor="middle" x="319.37" y="-2942.09" font-family="Times,serif" font-size="14.00">1</text>
</g>
<!-- n36 -->
<g id="node36" class="node">
<title>n36</title>
<polygon fill="#e28f41" stroke="#e28f41" points="2422.92,-4431.79 2039.92,-4431.79 2039.92,-4048.79 2422.92,-4048.79 2422.92,-4431.79"/>
<text text-anchor="middle" x="2231.42" y="-4236.59" font-family="Times,serif" font-size="14.00">((:infection, :inf_Strain2), :inf_Unvaxxed_VaxType1)</text>
</g>
<!-- n1&#45;&gt;n36 -->
<g id="edge97" class="edge">
<title>n1&#45;&gt;n36</title>
<path fill="none" stroke="black" d="M163.26,-3066.71C203.83,-3471.17 327.94,-4568.29 480.37,-4568.29 480.37,-4568.29 480.37,-4568.29 1848.03,-4568.29 1943.82,-4568.29 2027.62,-4508.27 2092.18,-4439.58"/>
<polygon fill="black" stroke="black" points="2094.93,-4441.75 2099.16,-4432.04 2089.79,-4437 2094.93,-4441.75"/>
<text text-anchor="middle" x="1251.15" y="-4572.09" font-family="Times,serif" font-size="14.00">1</text>
</g>
<!-- n37 -->
<g id="node37" class="node">
<title>n37</title>
<polygon fill="#e28f41" stroke="#e28f41" points="2422.92,-1803.79 2039.92,-1803.79 2039.92,-1420.79 2422.92,-1420.79 2422.92,-1803.79"/>
<text text-anchor="middle" x="2231.42" y="-1608.59" font-family="Times,serif" font-size="14.00">((:infection, :inf_Strain1), :inf_Unvaxxed_VaxType1)</text>
</g>
<!-- n1&#45;&gt;n37 -->
<g id="edge49" class="edge">
<title>n1&#45;&gt;n37</title>
<path fill="none" stroke="black" d="M152.71,-2770.94C163.73,-2366.62 203.68,-1267.71 314.37,-1151.29 365.74,-1097.27 405.83,-1127.29 480.37,-1127.29 480.37,-1127.29 480.37,-1127.29 1252.15,-1127.29 1608.71,-1127.29 1742.74,-1131.49 2021.92,-1353.29 2044.26,-1371.03 2065.74,-1391.57 2085.86,-1413.18"/>
<polygon fill="black" stroke="black" points="2083.29,-1415.55 2092.63,-1420.54 2088.44,-1410.81 2083.29,-1415.55"/>
<text text-anchor="middle" x="1251.15" y="-1131.09" font-family="Times,serif" font-size="14.00">1</text>
</g>
<!-- n42 -->
<g id="node42" class="node">
<title>n42</title>
<polygon fill="#e28f41" stroke="#e28f41" points="3612.5,-4393.79 3229.5,-4393.79 3229.5,-4010.79 3612.5,-4010.79 3612.5,-4393.79"/>
<text text-anchor="middle" x="3421" y="-4198.59" font-family="Times,serif" font-size="14.00">((:infection, :inf_Strain2), :inf_Unvaxxed_VaxType2)</text>
</g>
<!-- n1&#45;&gt;n42 -->
<g id="edge47" class="edge">
<title>n1&#45;&gt;n42</title>
<path fill="none" stroke="black" d="M202.01,-3057.47C254.28,-3167.89 346.03,-3304.29 480.37,-3304.29 480.37,-3304.29 480.37,-3304.29 1848.03,-3304.29 1940.18,-3304.29 2611.26,-3266.63 2676.92,-3331.29 2706.64,-3360.56 2669.07,-3673.55 2694.92,-3706.29 2770.22,-3801.63 2877.7,-3690.68 2957.5,-3782.29 2994.08,-3824.28 2945.74,-3859.22 2975.5,-3906.29 3033.45,-3997.96 3131.26,-4067.66 3220.39,-4116.33"/>
<polygon fill="black" stroke="black" points="3218.8,-4119.45 3229.26,-4121.12 3222.13,-4113.29 3218.8,-4119.45"/>
<text text-anchor="middle" x="1677.15" y="-3308.09" font-family="Times,serif" font-size="14.00">1</text>
</g>
<!-- n43 -->
<g id="node43" class="node">
<title>n43</title>
<polygon fill="#e28f41" stroke="#e28f41" points="3612.5,-1654.79 3229.5,-1654.79 3229.5,-1271.79 3612.5,-1271.79 3612.5,-1654.79"/>
<text text-anchor="middle" x="3421" y="-1459.59" font-family="Times,serif" font-size="14.00">((:infection, :inf_Strain1), :inf_Unvaxxed_VaxType2)</text>
</g>
<!-- n1&#45;&gt;n43 -->
<g id="edge101" class="edge">
<title>n1&#45;&gt;n43</title>
<path fill="none" stroke="black" d="M161.5,-2771.63C198.69,-2349.09 317.44,-1165.29 480.37,-1165.29 480.37,-1165.29 480.37,-1165.29 1252.15,-1165.29 1885.47,-1165.29 2047.52,-1070.95 2676.92,-1141.29 2797.97,-1154.82 3104.31,-1204.45 3211.5,-1262.29 3214.49,-1263.9 3217.46,-1265.57 3220.42,-1267.28"/>
<polygon fill="black" stroke="black" points="3218.88,-1270.44 3229.26,-1272.58 3222.48,-1264.44 3218.88,-1270.44"/>
<text text-anchor="middle" x="1677.15" y="-1154.09" font-family="Times,serif" font-size="14.00">1</text>
</g>
<!-- n48 -->
<g id="node48" class="node">
<title>n48</title>
<polygon fill="#e28f41" stroke="#e28f41" points="4804.07,-4360.79 4419.07,-4360.79 4419.07,-3975.79 4804.07,-3975.79 4804.07,-4360.79"/>
<text text-anchor="middle" x="4611.57" y="-4164.59" font-family="Times,serif" font-size="14.00">((:infection, :inf_Strain2), :inf_Unvaxxed_Unvaxxed)</text>
</g>
<!-- n1&#45;&gt;n48 -->
<g id="edge9" class="edge">
<title>n1&#45;&gt;n48</title>
<path fill="none" stroke="black" d="M160.07,-3067.09C194.3,-3505.49 307.89,-4768.29 480.37,-4768.29 480.37,-4768.29 480.37,-4768.29 2827.21,-4768.29 2998.12,-4768.29 3043.2,-4784.03 3211.5,-4754.29 3650.21,-4676.77 3731.97,-4549.67 4165.07,-4445.29 4268.36,-4420.4 4315.79,-4470.63 4401.07,-4407.29 4415.76,-4396.38 4408.66,-4385.32 4419.07,-4370.29 4419.27,-4370 4419.48,-4369.71 4419.68,-4369.42"/>
<polygon fill="black" stroke="black" points="4422.68,-4371.24 4425.61,-4361.06 4416.97,-4367.19 4422.68,-4371.24"/>
<text text-anchor="middle" x="2016.92" y="-4772.09" font-family="Times,serif" font-size="14.00">1</text>
</g>
<!-- n49 -->
<g id="node49" class="node">
<title>n49</title>
<polygon fill="#e28f41" stroke="#e28f41" points="4804.07,-1071.79 4419.07,-1071.79 4419.07,-686.79 4804.07,-686.79 4804.07,-1071.79"/>
<text text-anchor="middle" x="4611.57" y="-875.59" font-family="Times,serif" font-size="14.00">((:infection, :inf_Strain1), :inf_Unvaxxed_Unvaxxed)</text>
</g>
<!-- n1&#45;&gt;n49 -->
<g id="edge18" class="edge">
<title>n1&#45;&gt;n49</title>
<path fill="none" stroke="black" d="M150.52,-2770.77C157.75,-2182.05 203.09,-44.29 480.37,-44.29 480.37,-44.29 480.37,-44.29 4016.79,-44.29 4187.73,-44.29 4280.95,61.34 4401.07,-60.29 4425.17,-84.69 4405.91,-645.62 4419.07,-677.29 4419.12,-677.39 4419.16,-677.48 4419.2,-677.58"/>
<polygon fill="black" stroke="black" points="4415.94,-678.87 4423.18,-686.6 4422.34,-676.04 4415.94,-678.87"/>
<text text-anchor="middle" x="2016.92" y="-48.09" font-family="Times,serif" font-size="14.00">1</text>
</g>
<!-- n2 -->
<g id="node2" class="node">
<title>n2</title>
<ellipse fill="#6c9ac3" stroke="#6c9ac3" cx="4015.79" cy="-4205.29" rx="129.18" ry="129.18"/>
<text text-anchor="middle" x="4015.79" y="-4201.59" font-family="Times,serif" font-size="14.00">((:I, :Strain2), :Unvaxxed)</text>
</g>
<!-- n23 -->
<g id="node23" class="node">
<title>n23</title>
<polygon fill="#e28f41" stroke="#e28f41" points="4744.57,-4879.29 4478.57,-4879.29 4478.57,-4613.29 4744.57,-4613.29 4744.57,-4879.29"/>
<text text-anchor="middle" x="4611.57" y="-4742.59" font-family="Times,serif" font-size="14.00">((:strataI, :strataI), :vax_VaxType1)</text>
</g>
<!-- n2&#45;&gt;n23 -->
<g id="edge63" class="edge">
<title>n2&#45;&gt;n23</title>
<path fill="none" stroke="black" d="M4106.92,-4297.82C4125.19,-4313.64 4144.99,-4328.94 4165.07,-4341.29 4260.56,-4400.02 4332.64,-4341.5 4401.07,-4430.29 4448.53,-4491.87 4380.59,-4536.74 4419.07,-4604.29 4432.07,-4627.09 4450.37,-4647.3 4470.55,-4664.82"/>
<polygon fill="black" stroke="black" points="4468.47,-4667.64 4478.37,-4671.4 4472.98,-4662.28 4468.47,-4667.64"/>
<text text-anchor="middle" x="4283.07" y="-4434.09" font-family="Times,serif" font-size="14.00">1</text>
</g>
<!-- n28 -->
<g id="node28" class="node">
<title>n28</title>
<polygon fill="#e28f41" stroke="#e28f41" points="4744.57,-3301.29 4478.57,-3301.29 4478.57,-3035.29 4744.57,-3035.29 4744.57,-3301.29"/>
<text text-anchor="middle" x="4611.57" y="-3164.59" font-family="Times,serif" font-size="14.00">((:strataI, :strataI), :vax_VaxType2)</text>
</g>
<!-- n2&#45;&gt;n28 -->
<g id="edge73" class="edge">
<title>n2&#45;&gt;n28</title>
<path fill="none" stroke="black" d="M4080.49,-4093.1C4102.49,-4052.93 4126.71,-4007.01 4147.07,-3964.29 4282.55,-3680.13 4225.21,-3558.31 4419.07,-3310.29 4433.86,-3291.37 4451.78,-3273.74 4470.65,-3257.78"/>
<polygon fill="black" stroke="black" points="4473.03,-3260.35 4478.5,-3251.27 4468.56,-3254.96 4473.03,-3260.35"/>
<text text-anchor="middle" x="4283.07" y="-3919.09" font-family="Times,serif" font-size="14.00">1</text>
</g>
<!-- n44 -->
<g id="node44" class="node">
<title>n44</title>
<polygon fill="#e28f41" stroke="#e28f41" points="4803.07,-5280.79 4420.07,-5280.79 4420.07,-4897.79 4803.07,-4897.79 4803.07,-5280.79"/>
<text text-anchor="middle" x="4611.57" y="-5085.59" font-family="Times,serif" font-size="14.00">((:infection, :inf_Strain2), :inf_VaxType1_Unvaxxed)</text>
</g>
<!-- n2&#45;&gt;n44 -->
<g id="edge92" class="edge">
<title>n2&#45;&gt;n44</title>
<path fill="none" stroke="black" d="M4046.81,-4330.88C4068.75,-4394.52 4105.4,-4466.9 4165.07,-4508.29 4208.37,-4538.32 4364.7,-4493.17 4401.07,-4531.29 4428.49,-4560.02 4403.4,-4851.8 4419.07,-4888.29 4419.12,-4888.39 4419.16,-4888.48 4419.2,-4888.58"/>
<polygon fill="black" stroke="black" points="4415.95,-4889.88 4423.28,-4897.53 4422.32,-4886.98 4415.95,-4889.88"/>
<text text-anchor="middle" x="4283.07" y="-4535.09" font-family="Times,serif" font-size="14.00">1</text>
</g>
<!-- n46 -->
<g id="node46" class="node">
<title>n46</title>
<polygon fill="#e28f41" stroke="#e28f41" points="4803.07,-3702.79 4420.07,-3702.79 4420.07,-3319.79 4803.07,-3319.79 4803.07,-3702.79"/>
<text text-anchor="middle" x="4611.57" y="-3507.59" font-family="Times,serif" font-size="14.00">((:infection, :inf_Strain2), :inf_VaxType2_Unvaxxed)</text>
</g>
<!-- n2&#45;&gt;n46 -->
<g id="edge57" class="edge">
<title>n2&#45;&gt;n46</title>
<path fill="none" stroke="black" d="M4111.91,-4118.24C4128.66,-4106.75 4146.65,-4096.48 4165.07,-4089.29 4214.09,-4070.16 4364.44,-4108.05 4401.07,-4070.29 4428.81,-4041.71 4403.36,-3748.88 4419.07,-3712.29 4419.12,-3712.19 4419.16,-3712.09 4419.2,-3712"/>
<polygon fill="black" stroke="black" points="4422.32,-3713.6 4423.28,-3703.05 4415.95,-3710.7 4422.32,-3713.6"/>
<text text-anchor="middle" x="4283.07" y="-4093.09" font-family="Times,serif" font-size="14.00">1</text>
</g>
<!-- n2&#45;&gt;n48 -->
<g id="edge83" class="edge">
<title>n2&#45;&gt;n48</title>
<path fill="none" stroke="black" d="M4140.09,-4169.42C4148.5,-4167.78 4156.88,-4166.37 4165.07,-4165.29 4244.33,-4154.79 4332.2,-4153.25 4408.82,-4155.16"/>
<polygon fill="black" stroke="black" points="4408.98,-4158.67 4419.07,-4155.44 4409.17,-4151.67 4408.98,-4158.67"/>
<text text-anchor="middle" x="4283.07" y="-4169.09" font-family="Times,serif" font-size="14.00">1</text>
</g>
<!-- n50 -->
<g id="node50" class="node">
<title>n50</title>
<polygon fill="#e28f41" stroke="#e28f41" points="4729.57,-3957.29 4493.57,-3957.29 4493.57,-3721.29 4729.57,-3721.29 4729.57,-3957.29"/>
<text text-anchor="middle" x="4611.57" y="-3835.59" font-family="Times,serif" font-size="14.00">((:recovery, :disease), :disease)</text>
</g>
<!-- n2&#45;&gt;n50 -->
<g id="edge21" class="edge">
<title>n2&#45;&gt;n50</title>
<path fill="none" stroke="black" d="M4131.6,-4147.6C4142.74,-4143.31 4154.01,-4139.43 4165.07,-4136.29 4215.88,-4121.86 4363.58,-4145.48 4401.07,-4108.29 4446.24,-4063.49 4385.52,-4020.33 4419.07,-3966.29 4435.41,-3939.99 4459.43,-3917.96 4484.99,-3900.04"/>
<polygon fill="black" stroke="black" points="4487.03,-3902.88 4493.33,-3894.36 4483.09,-3897.09 4487.03,-3902.88"/>
<text text-anchor="middle" x="4283.07" y="-4140.09" font-family="Times,serif" font-size="14.00">1</text>
</g>
<!-- n51 -->
<g id="node51" class="node">
<title>n51</title>
<polygon fill="#e28f41" stroke="#e28f41" points="4719.57,-4595.29 4503.57,-4595.29 4503.57,-4379.29 4719.57,-4379.29 4719.57,-4595.29"/>
<text text-anchor="middle" x="4611.57" y="-4483.59" font-family="Times,serif" font-size="14.00">((:death, :disease), :disease)</text>
</g>
<!-- n2&#45;&gt;n51 -->
<g id="edge102" class="edge">
<title>n2&#45;&gt;n51</title>
<path fill="none" stroke="black" d="M4144.62,-4217.86C4226.74,-4232.03 4330.81,-4262.17 4401.07,-4326.29 4416.38,-4340.25 4405.61,-4353.54 4419.07,-4369.29 4439.92,-4393.66 4467.09,-4414.54 4494.39,-4431.65"/>
<polygon fill="black" stroke="black" points="4492.89,-4434.84 4503.25,-4437.08 4496.55,-4428.87 4492.89,-4434.84"/>
<text text-anchor="middle" x="4283.07" y="-4330.09" font-family="Times,serif" font-size="14.00">1</text>
</g>
<!-- n3 -->
<g id="node3" class="node">
<title>n3</title>
<ellipse fill="#6c9ac3" stroke="#6c9ac3" cx="4982.66" cy="-3839.29" rx="132.68" ry="132.68"/>
<text text-anchor="middle" x="4982.66" y="-3835.59" font-family="Times,serif" font-size="14.00">((:R, :Strain2), :Unvaxxed)</text>
</g>
<!-- n24 -->
<g id="node24" class="node">
<title>n24</title>
<polygon fill="#e28f41" stroke="#e28f41" points="5427.25,-4772.29 5161.25,-4772.29 5161.25,-4506.29 5427.25,-4506.29 5427.25,-4772.29"/>
<text text-anchor="middle" x="5294.25" y="-4635.59" font-family="Times,serif" font-size="14.00">((:strataI, :strataI), :vax_VaxType1)</text>
</g>
<!-- n3&#45;&gt;n24 -->
<g id="edge60" class="edge">
<title>n3&#45;&gt;n24</title>
<path fill="none" stroke="black" d="M5031.53,-3962.97C5087.3,-4107.1 5179.3,-4344.83 5238.04,-4496.63"/>
<polygon fill="black" stroke="black" points="5234.82,-4497.98 5241.69,-4506.05 5241.34,-4495.46 5234.82,-4497.98"/>
<text text-anchor="middle" x="5138.25" y="-4243.09" font-family="Times,serif" font-size="14.00">1</text>
</g>
<!-- n29 -->
<g id="node29" class="node">
<title>n29</title>
<polygon fill="#e28f41" stroke="#e28f41" points="5427.25,-3672.29 5161.25,-3672.29 5161.25,-3406.29 5427.25,-3406.29 5427.25,-3672.29"/>
<text text-anchor="middle" x="5294.25" y="-3535.59" font-family="Times,serif" font-size="14.00">((:strataI, :strataI), :vax_VaxType2)</text>
</g>
<!-- n3&#45;&gt;n29 -->
<g id="edge4" class="edge">
<title>n3&#45;&gt;n29</title>
<path fill="none" stroke="black" d="M5078.65,-3747.24C5102.35,-3724.27 5128.26,-3699.17 5153.63,-3674.59"/>
<polygon fill="black" stroke="black" points="5156.37,-3676.8 5161.12,-3667.33 5151.5,-3671.78 5156.37,-3676.8"/>
<text text-anchor="middle" x="5138.25" y="-3693.09" font-family="Times,serif" font-size="14.00">1</text>
</g>
<!-- n4 -->
<g id="node4" class="node">
<title>n4</title>
<ellipse fill="#6c9ac3" stroke="#6c9ac3" cx="4982.66" cy="-4487.29" rx="132.68" ry="132.68"/>
<text text-anchor="middle" x="4982.66" y="-4483.59" font-family="Times,serif" font-size="14.00">((:D, :Strain2), :Unvaxxed)</text>
</g>
<!-- n5 -->
<g id="node5" class="node">
<title>n5</title>
<ellipse fill="#6c9ac3" stroke="#6c9ac3" cx="4015.79" cy="-1427.29" rx="129.18" ry="129.18"/>
<text text-anchor="middle" x="4015.79" y="-1423.59" font-family="Times,serif" font-size="14.00">((:I, :Strain1), :Unvaxxed)</text>
</g>
<!-- n25 -->
<g id="node25" class="node">
<title>n25</title>
<polygon fill="#e28f41" stroke="#e28f41" points="4744.57,-2799.29 4478.57,-2799.29 4478.57,-2533.29 4744.57,-2533.29 4744.57,-2799.29"/>
<text text-anchor="middle" x="4611.57" y="-2662.59" font-family="Times,serif" font-size="14.00">((:strataI, :strataI), :vax_VaxType1)</text>
</g>
<!-- n5&#45;&gt;n25 -->
<g id="edge100" class="edge">
<title>n5&#45;&gt;n25</title>
<path fill="none" stroke="black" d="M4057.01,-1549.94C4121.24,-1738.84 4256.45,-2109.68 4419.07,-2401.29 4442.37,-2443.06 4471.07,-2486.04 4499.11,-2524.91"/>
<polygon fill="black" stroke="black" points="4496.37,-2527.1 4505.07,-2533.14 4502.04,-2522.99 4496.37,-2527.1"/>
<text text-anchor="middle" x="4283.07" y="-2356.09" font-family="Times,serif" font-size="14.00">1</text>
</g>
<!-- n30 -->
<g id="node30" class="node">
<title>n30</title>
<polygon fill="#e28f41" stroke="#e28f41" points="4744.57,-2392.29 4478.57,-2392.29 4478.57,-2126.29 4744.57,-2126.29 4744.57,-2392.29"/>
<text text-anchor="middle" x="4611.57" y="-2255.59" font-family="Times,serif" font-size="14.00">((:strataI, :strataI), :vax_VaxType2)</text>
</g>
<!-- n5&#45;&gt;n30 -->
<g id="edge108" class="edge">
<title>n5&#45;&gt;n30</title>
<path fill="none" stroke="black" d="M4046.7,-1553.28C4068.61,-1617.13 4105.27,-1689.75 4165.07,-1731.29 4208.35,-1761.35 4364.71,-1716.15 4401.07,-1754.29 4428.94,-1783.51 4400.03,-2081.68 4419.07,-2117.29 4431.62,-2140.75 4449.95,-2161.38 4470.35,-2179.13"/>
<polygon fill="black" stroke="black" points="4468.36,-2182.03 4478.27,-2185.79 4472.87,-2176.67 4468.36,-2182.03"/>
<text text-anchor="middle" x="4283.07" y="-1758.09" font-family="Times,serif" font-size="14.00">1</text>
</g>
<!-- n45 -->
<g id="node45" class="node">
<title>n45</title>
<polygon fill="#e28f41" stroke="#e28f41" points="4803.07,-1472.79 4420.07,-1472.79 4420.07,-1089.79 4803.07,-1089.79 4803.07,-1472.79"/>
<text text-anchor="middle" x="4611.57" y="-1277.59" font-family="Times,serif" font-size="14.00">((:infection, :inf_Strain1), :inf_VaxType1_Unvaxxed)</text>
</g>
<!-- n5&#45;&gt;n45 -->
<g id="edge94" class="edge">
<title>n5&#45;&gt;n45</title>
<path fill="none" stroke="black" d="M4145.3,-1433.41C4221.23,-1433.49 4318.38,-1427.36 4401.07,-1402.29 4404.09,-1401.37 4407.11,-1400.41 4410.14,-1399.4"/>
<polygon fill="black" stroke="black" points="4411.51,-1402.62 4419.78,-1396.01 4409.19,-1396.02 4411.51,-1402.62"/>
<text text-anchor="middle" x="4283.07" y="-1437.09" font-family="Times,serif" font-size="14.00">1</text>
</g>
<!-- n47 -->
<g id="node47" class="node">
<title>n47</title>
<polygon fill="#e28f41" stroke="#e28f41" points="4803.07,-1873.79 4420.07,-1873.79 4420.07,-1490.79 4803.07,-1490.79 4803.07,-1873.79"/>
<text text-anchor="middle" x="4611.57" y="-1678.59" font-family="Times,serif" font-size="14.00">((:infection, :inf_Strain1), :inf_VaxType2_Unvaxxed)</text>
</g>
<!-- n5&#45;&gt;n47 -->
<g id="edge66" class="edge">
<title>n5&#45;&gt;n47</title>
<path fill="none" stroke="black" d="M4137.25,-1472.08C4213.51,-1501.14 4313.82,-1540.66 4401.07,-1579.29 4404.28,-1580.71 4407.5,-1582.14 4410.74,-1583.6"/>
<polygon fill="black" stroke="black" points="4409.36,-1586.82 4419.91,-1587.75 4412.25,-1580.44 4409.36,-1586.82"/>
<text text-anchor="middle" x="4283.07" y="-1583.09" font-family="Times,serif" font-size="14.00">1</text>
</g>
<!-- n5&#45;&gt;n49 -->
<g id="edge40" class="edge">
<title>n5&#45;&gt;n49</title>
<path fill="none" stroke="black" d="M4122.4,-1353.76C4136.29,-1346.51 4150.71,-1340.08 4165.07,-1335.29 4215.02,-1318.62 4364.07,-1351.74 4401.07,-1314.29 4435.8,-1279.15 4401.85,-1143.36 4419.47,-1081.66"/>
<polygon fill="black" stroke="black" points="4422.82,-1082.67 4422.91,-1072.08 4416.24,-1080.31 4422.82,-1082.67"/>
<text text-anchor="middle" x="4283.07" y="-1339.09" font-family="Times,serif" font-size="14.00">1</text>
</g>
<!-- n52 -->
<g id="node52" class="node">
<title>n52</title>
<polygon fill="#e28f41" stroke="#e28f41" points="4729.57,-668.29 4493.57,-668.29 4493.57,-432.29 4729.57,-432.29 4729.57,-668.29"/>
<text text-anchor="middle" x="4611.57" y="-546.59" font-family="Times,serif" font-size="14.00">((:recovery, :disease), :disease)</text>
</g>
<!-- n5&#45;&gt;n52 -->
<g id="edge27" class="edge">
<title>n5&#45;&gt;n52</title>
<path fill="none" stroke="black" d="M4059.84,-1305.6C4120.64,-1146.81 4244.08,-866.9 4419.07,-677.29 4438.19,-656.57 4461.35,-637.61 4484.86,-621.02"/>
<polygon fill="black" stroke="black" points="4486.96,-623.83 4493.18,-615.26 4482.97,-618.08 4486.96,-623.83"/>
<text text-anchor="middle" x="4283.07" y="-1066.09" font-family="Times,serif" font-size="14.00">1</text>
</g>
<!-- n53 -->
<g id="node53" class="node">
<title>n53</title>
<polygon fill="#e28f41" stroke="#e28f41" points="4719.57,-2108.29 4503.57,-2108.29 4503.57,-1892.29 4719.57,-1892.29 4719.57,-2108.29"/>
<text text-anchor="middle" x="4611.57" y="-1996.59" font-family="Times,serif" font-size="14.00">((:death, :disease), :disease)</text>
</g>
<!-- n5&#45;&gt;n53 -->
<g id="edge71" class="edge">
<title>n5&#45;&gt;n53</title>
<path fill="none" stroke="black" d="M4066.56,-1546.39C4090.35,-1589.9 4122.97,-1635.66 4165.07,-1665.29 4252.83,-1727.04 4329.27,-1636.54 4401.07,-1716.29 4425.9,-1743.86 4399.26,-1850.92 4419.07,-1882.29 4437.34,-1911.21 4465.53,-1934.16 4494.71,-1951.83"/>
<polygon fill="black" stroke="black" points="4492.98,-1954.87 4503.38,-1956.91 4496.52,-1948.83 4492.98,-1954.87"/>
<text text-anchor="middle" x="4283.07" y="-1720.09" font-family="Times,serif" font-size="14.00">1</text>
</g>
<!-- n6 -->
<g id="node6" class="node">
<title>n6</title>
<ellipse fill="#6c9ac3" stroke="#6c9ac3" cx="4982.66" cy="-565.29" rx="132.68" ry="132.68"/>
<text text-anchor="middle" x="4982.66" y="-561.59" font-family="Times,serif" font-size="14.00">((:R, :Strain1), :Unvaxxed)</text>
</g>
<!-- n26 -->
<g id="node26" class="node">
<title>n26</title>
<polygon fill="#e28f41" stroke="#e28f41" points="5427.25,-376.29 5161.25,-376.29 5161.25,-110.29 5427.25,-110.29 5427.25,-376.29"/>
<text text-anchor="middle" x="5294.25" y="-239.59" font-family="Times,serif" font-size="14.00">((:strataI, :strataI), :vax_VaxType1)</text>
</g>
<!-- n6&#45;&gt;n26 -->
<g id="edge88" class="edge">
<title>n6&#45;&gt;n26</title>
<path fill="none" stroke="black" d="M5075.29,-469.98C5101.26,-442.97 5130.1,-412.98 5158.06,-383.9"/>
<polygon fill="black" stroke="black" points="5160.75,-386.16 5165.15,-376.52 5155.7,-381.31 5160.75,-386.16"/>
<text text-anchor="middle" x="5138.25" y="-408.09" font-family="Times,serif" font-size="14.00">1</text>
</g>
<!-- n31 -->
<g id="node31" class="node">
<title>n31</title>
<polygon fill="#e28f41" stroke="#e28f41" points="5427.25,-698.29 5161.25,-698.29 5161.25,-432.29 5427.25,-432.29 5427.25,-698.29"/>
<text text-anchor="middle" x="5294.25" y="-561.59" font-family="Times,serif" font-size="14.00">((:strataI, :strataI), :vax_VaxType2)</text>
</g>
<!-- n6&#45;&gt;n31 -->
<g id="edge39" class="edge">
<title>n6&#45;&gt;n31</title>
<path fill="none" stroke="black" d="M5115.41,-565.29C5127.12,-565.29 5139.01,-565.29 5150.8,-565.29"/>
<polygon fill="black" stroke="black" points="5151.13,-568.79 5161.13,-565.29 5151.13,-561.79 5151.13,-568.79"/>
<text text-anchor="middle" x="5138.25" y="-569.09" font-family="Times,serif" font-size="14.00">1</text>
</g>
<!-- n7 -->
<g id="node7" class="node">
<title>n7</title>
<ellipse fill="#6c9ac3" stroke="#6c9ac3" cx="4982.66" cy="-2000.29" rx="132.68" ry="132.68"/>
<text text-anchor="middle" x="4982.66" y="-1996.59" font-family="Times,serif" font-size="14.00">((:D, :Strain1), :Unvaxxed)</text>
</g>
<!-- n8 -->
<g id="node8" class="node">
<title>n8</title>
<ellipse fill="#6c9ac3" stroke="#6c9ac3" cx="1081.26" cy="-2788.29" rx="146.77" ry="146.77"/>
<text text-anchor="middle" x="1081.26" y="-2784.59" font-family="Times,serif" font-size="14.00">((:S, :Uninfected), :VaxType1)</text>
</g>
<!-- n32 -->
<g id="node32" class="node">
<title>n32</title>
<polygon fill="#e28f41" stroke="#e28f41" points="1654.15,-4245.29 1274.15,-4245.29 1274.15,-3865.29 1654.15,-3865.29 1654.15,-4245.29"/>
<text text-anchor="middle" x="1464.15" y="-4051.59" font-family="Times,serif" font-size="14.00">((:infection, :inf_Strain2), :inf_VaxType1_VaxType1)</text>
</g>
<!-- n8&#45;&gt;n32 -->
<g id="edge77" class="edge">
<title>n8&#45;&gt;n32</title>
<path fill="none" stroke="black" d="M1124.48,-2928.72C1192.2,-3153.98 1325.35,-3596.93 1403,-3855.21"/>
<polygon fill="black" stroke="black" points="1399.74,-3856.52 1405.97,-3865.08 1406.44,-3854.5 1399.74,-3856.52"/>
<text text-anchor="middle" x="1251.15" y="-3350.09" font-family="Times,serif" font-size="14.00">1</text>
</g>
<!-- n33 -->
<g id="node33" class="node">
<title>n33</title>
<polygon fill="#e28f41" stroke="#e28f41" points="1654.15,-2240.29 1274.15,-2240.29 1274.15,-1860.29 1654.15,-1860.29 1654.15,-2240.29"/>
<text text-anchor="middle" x="1464.15" y="-2046.59" font-family="Times,serif" font-size="14.00">((:infection, :inf_Strain1), :inf_VaxType1_VaxType1)</text>
</g>
<!-- n8&#45;&gt;n33 -->
<g id="edge22" class="edge">
<title>n8&#45;&gt;n33</title>
<path fill="none" stroke="black" d="M1149.48,-2658.05C1207.88,-2544.89 1293.38,-2379.23 1360.37,-2249.43"/>
<polygon fill="black" stroke="black" points="1363.48,-2251.03 1364.96,-2240.54 1357.26,-2247.82 1363.48,-2251.03"/>
<text text-anchor="middle" x="1251.15" y="-2468.09" font-family="Times,serif" font-size="14.00">1</text>
</g>
<!-- n38 -->
<g id="node38" class="node">
<title>n38</title>
<polygon fill="#e28f41" stroke="#e28f41" points="3611,-3234.29 3231,-3234.29 3231,-2854.29 3611,-2854.29 3611,-3234.29"/>
<text text-anchor="middle" x="3421" y="-3040.59" font-family="Times,serif" font-size="14.00">((:infection, :inf_Strain2), :inf_VaxType1_VaxType2)</text>
</g>
<!-- n8&#45;&gt;n38 -->
<g id="edge85" class="edge">
<title>n8&#45;&gt;n38</title>
<path fill="none" stroke="black" d="M1228.31,-2788.29C1299.2,-2788.29 1385.61,-2788.29 1463.15,-2788.29 1463.15,-2788.29 1463.15,-2788.29 2017.92,-2788.29 2452.68,-2788.29 2951.12,-2908.88 3221.03,-2984.53"/>
<polygon fill="black" stroke="black" points="3220.36,-2987.98 3230.93,-2987.31 3222.25,-2981.24 3220.36,-2987.98"/>
<text text-anchor="middle" x="2016.92" y="-2792.09" font-family="Times,serif" font-size="14.00">1</text>
</g>
<!-- n39 -->
<g id="node39" class="node">
<title>n39</title>
<polygon fill="#e28f41" stroke="#e28f41" points="3611,-2760.29 3231,-2760.29 3231,-2380.29 3611,-2380.29 3611,-2760.29"/>
<text text-anchor="middle" x="3421" y="-2566.59" font-family="Times,serif" font-size="14.00">((:infection, :inf_Strain1), :inf_VaxType1_VaxType2)</text>
</g>
<!-- n8&#45;&gt;n39 -->
<g id="edge86" class="edge">
<title>n8&#45;&gt;n39</title>
<path fill="none" stroke="black" d="M1222.51,-2747.17C1293.9,-2729.7 1382.44,-2713.29 1463.15,-2713.29 1463.15,-2713.29 1463.15,-2713.29 2827.21,-2713.29 2961.07,-2713.29 3107.31,-2678.4 3221.04,-2643.1"/>
<polygon fill="black" stroke="black" points="3222.4,-2646.34 3230.9,-2640.01 3220.31,-2639.66 3222.4,-2646.34"/>
<text text-anchor="middle" x="2016.92" y="-2717.09" font-family="Times,serif" font-size="14.00">1</text>
</g>
<!-- n8&#45;&gt;n44 -->
<g id="edge12" class="edge">
<title>n8&#45;&gt;n44</title>
<path fill="none" stroke="black" d="M1088.36,-2935.17C1106.14,-3339.25 1162.07,-4446.86 1246.15,-4587.29 1305.48,-4686.39 1347.65,-4730.29 1463.15,-4730.29 1463.15,-4730.29 1463.15,-4730.29 2559.92,-4730.29 2921.08,-4730.29 3968.1,-4949.08 4410.02,-5045.05"/>
<polygon fill="black" stroke="black" points="4409.51,-5048.52 4420.03,-5047.23 4411,-5041.68 4409.51,-5048.52"/>
<text text-anchor="middle" x="2558.92" y="-4734.09" font-family="Times,serif" font-size="14.00">1</text>
</g>
<!-- n8&#45;&gt;n45 -->
<g id="edge67" class="edge">
<title>n8&#45;&gt;n45</title>
<path fill="none" stroke="black" d="M1099.79,-2642.24C1129.31,-2413.2 1193.7,-1982.13 1274.15,-1851.29 1501.62,-1481.33 1656.19,-1447.66 2039.92,-1244.29 2968.58,-752.11 3409.8,-763.98 4401.07,-1113.29 4404.26,-1114.41 4407.44,-1115.61 4410.6,-1116.87"/>
<polygon fill="black" stroke="black" points="4409.46,-1120.19 4420.04,-1120.84 4412.18,-1113.73 4409.46,-1120.19"/>
<text text-anchor="middle" x="2558.92" y="-1052.09" font-family="Times,serif" font-size="14.00">1</text>
</g>
<!-- n9 -->
<g id="node9" class="node">
<title>n9</title>
<ellipse fill="#6c9ac3" stroke="#6c9ac3" cx="1847.03" cy="-4093.29" rx="128.08" ry="128.08"/>
<text text-anchor="middle" x="1847.03" y="-4089.59" font-family="Times,serif" font-size="14.00">((:I, :Strain2), :VaxType1)</text>
</g>
<!-- n9&#45;&gt;n32 -->
<g id="edge48" class="edge">
<title>n9&#45;&gt;n32</title>
<path fill="none" stroke="black" d="M1722.07,-4064.14C1708.66,-4061.78 1695.16,-4059.75 1682.15,-4058.29 1676.33,-4057.63 1670.42,-4057.05 1664.45,-4056.52"/>
<polygon fill="black" stroke="black" points="1664.6,-4053.02 1654.35,-4055.7 1664.04,-4060 1664.6,-4053.02"/>
<text text-anchor="middle" x="1677.15" y="-4062.09" font-family="Times,serif" font-size="14.00">1</text>
</g>
<!-- n34 -->
<g id="node34" class="node">
<title>n34</title>
<polygon fill="#e28f41" stroke="#e28f41" points="2421.42,-3786.29 2041.42,-3786.29 2041.42,-3406.29 2421.42,-3406.29 2421.42,-3786.29"/>
<text text-anchor="middle" x="2231.42" y="-3592.59" font-family="Times,serif" font-size="14.00">((:infection, :inf_Strain2), :inf_VaxType2_VaxType1)</text>
</g>
<!-- n9&#45;&gt;n34 -->
<g id="edge36" class="edge">
<title>n9&#45;&gt;n34</title>
<path fill="none" stroke="black" d="M1914.93,-3984.59C1950.21,-3929.48 1995.34,-3862.33 2039.92,-3805.29 2042.76,-3801.65 2045.65,-3798.01 2048.58,-3794.35"/>
<polygon fill="black" stroke="black" points="2051.5,-3796.31 2055.05,-3786.33 2046.05,-3791.91 2051.5,-3796.31"/>
<text text-anchor="middle" x="2016.92" y="-3839.09" font-family="Times,serif" font-size="14.00">1</text>
</g>
<!-- n9&#45;&gt;n36 -->
<g id="edge75" class="edge">
<title>n9&#45;&gt;n36</title>
<path fill="none" stroke="black" d="M1971.97,-4122.93C1988.92,-4127.89 2005.96,-4133.38 2021.92,-4139.29 2024.71,-4140.32 2027.5,-4141.38 2030.31,-4142.45"/>
<polygon fill="black" stroke="black" points="2029.3,-4145.82 2039.89,-4146.2 2031.85,-4139.3 2029.3,-4145.82"/>
<text text-anchor="middle" x="2016.92" y="-4143.09" font-family="Times,serif" font-size="14.00">1</text>
</g>
<!-- n54 -->
<g id="node54" class="node">
<title>n54</title>
<polygon fill="#e28f41" stroke="#e28f41" points="3211.5,-4753.29 2975.5,-4753.29 2975.5,-4517.29 3211.5,-4517.29 3211.5,-4753.29"/>
<text text-anchor="middle" x="3093.5" y="-4631.59" font-family="Times,serif" font-size="14.00">((:recovery, :disease), :disease)</text>
</g>
<!-- n9&#45;&gt;n54 -->
<g id="edge8" class="edge">
<title>n9&#45;&gt;n54</title>
<path fill="none" stroke="black" d="M1862.94,-4220.55C1881.24,-4316.13 1921.87,-4442.02 2011.92,-4511.29 2294.02,-4728.29 2746.46,-4692.97 2965.51,-4659.25"/>
<polygon fill="black" stroke="black" points="2966.1,-4662.7 2975.44,-4657.7 2965.02,-4655.78 2966.1,-4662.7"/>
<text text-anchor="middle" x="2231.42" y="-4671.09" font-family="Times,serif" font-size="14.00">1</text>
</g>
<!-- n55 -->
<g id="node55" class="node">
<title>n55</title>
<polygon fill="#e28f41" stroke="#e28f41" points="2339.42,-4030.29 2123.42,-4030.29 2123.42,-3814.29 2339.42,-3814.29 2339.42,-4030.29"/>
<text text-anchor="middle" x="2231.42" y="-3918.59" font-family="Times,serif" font-size="14.00">((:death, :disease), :disease)</text>
</g>
<!-- n9&#45;&gt;n55 -->
<g id="edge69" class="edge">
<title>n9&#45;&gt;n55</title>
<path fill="none" stroke="black" d="M1964.32,-4041.29C2011.7,-4020.1 2066.37,-3995.65 2113.78,-3974.45"/>
<polygon fill="black" stroke="black" points="2115.46,-3977.53 2123.16,-3970.25 2112.61,-3971.14 2115.46,-3977.53"/>
<text text-anchor="middle" x="2016.92" y="-4022.09" font-family="Times,serif" font-size="14.00">1</text>
</g>
<!-- n10 -->
<g id="node10" class="node">
<title>n10</title>
<ellipse fill="#6c9ac3" stroke="#6c9ac3" cx="5604.54" cy="-5268.29" rx="131.08" ry="131.08"/>
<text text-anchor="middle" x="5604.54" y="-5264.59" font-family="Times,serif" font-size="14.00">((:R, :Strain2), :VaxType1)</text>
</g>
<!-- n11 -->
<g id="node11" class="node">
<title>n11</title>
<ellipse fill="#6c9ac3" stroke="#6c9ac3" cx="2826.21" cy="-3922.29" rx="131.08" ry="131.08"/>
<text text-anchor="middle" x="2826.21" y="-3918.59" font-family="Times,serif" font-size="14.00">((:D, :Strain2), :VaxType1)</text>
</g>
<!-- n12 -->
<g id="node12" class="node">
<title>n12</title>
<ellipse fill="#6c9ac3" stroke="#6c9ac3" cx="1847.03" cy="-2012.29" rx="128.08" ry="128.08"/>
<text text-anchor="middle" x="1847.03" y="-2008.59" font-family="Times,serif" font-size="14.00">((:I, :Strain1), :VaxType1)</text>
</g>
<!-- n12&#45;&gt;n33 -->
<g id="edge78" class="edge">
<title>n12&#45;&gt;n33</title>
<path fill="none" stroke="black" d="M1719.51,-2024.91C1701.71,-2026.69 1683.07,-2028.55 1664.32,-2030.42"/>
<polygon fill="black" stroke="black" points="1663.8,-2026.95 1654.2,-2031.43 1664.49,-2033.92 1663.8,-2026.95"/>
<text text-anchor="middle" x="1677.15" y="-2033.09" font-family="Times,serif" font-size="14.00">1</text>
</g>
<!-- n35 -->
<g id="node35" class="node">
<title>n35</title>
<polygon fill="#e28f41" stroke="#e28f41" points="2421.42,-2202.29 2041.42,-2202.29 2041.42,-1822.29 2421.42,-1822.29 2421.42,-2202.29"/>
<text text-anchor="middle" x="2231.42" y="-2008.59" font-family="Times,serif" font-size="14.00">((:infection, :inf_Strain1), :inf_VaxType2_VaxType1)</text>
</g>
<!-- n12&#45;&gt;n35 -->
<g id="edge34" class="edge">
<title>n12&#45;&gt;n35</title>
<path fill="none" stroke="black" d="M1975.1,-2012.29C1993.24,-2012.29 2012.24,-2012.29 2031.36,-2012.29"/>
<polygon fill="black" stroke="black" points="2031.36,-2015.79 2041.36,-2012.29 2031.36,-2008.79 2031.36,-2015.79"/>
<text text-anchor="middle" x="2016.92" y="-2016.09" font-family="Times,serif" font-size="14.00">1</text>
</g>
<!-- n12&#45;&gt;n37 -->
<g id="edge105" class="edge">
<title>n12&#45;&gt;n37</title>
<path fill="none" stroke="black" d="M1948.87,-1934.59C1974.97,-1911.11 2001.46,-1883.91 2021.92,-1855.29 2033.73,-1838.77 2028.76,-1830.26 2039.92,-1813.29 2040.11,-1813 2040.31,-1812.7 2040.5,-1812.41"/>
<polygon fill="black" stroke="black" points="2043.51,-1814.21 2046.21,-1803.96 2037.71,-1810.29 2043.51,-1814.21"/>
<text text-anchor="middle" x="2016.92" y="-1870.09" font-family="Times,serif" font-size="14.00">1</text>
</g>
<!-- n56 -->
<g id="node56" class="node">
<title>n56</title>
<polygon fill="#e28f41" stroke="#e28f41" points="2676.92,-1378.29 2440.92,-1378.29 2440.92,-1142.29 2676.92,-1142.29 2676.92,-1378.29"/>
<text text-anchor="middle" x="2558.92" y="-1256.59" font-family="Times,serif" font-size="14.00">((:recovery, :disease), :disease)</text>
</g>
<!-- n12&#45;&gt;n56 -->
<g id="edge35" class="edge">
<title>n12&#45;&gt;n56</title>
<path fill="none" stroke="black" d="M1863.92,-1885.01C1887.51,-1717.13 1937.23,-1434.66 2011.92,-1364.29 2123.7,-1258.97 2307.52,-1244.41 2430.61,-1248.46"/>
<polygon fill="black" stroke="black" points="2430.72,-1251.97 2440.84,-1248.85 2430.98,-1244.97 2430.72,-1251.97"/>
<text text-anchor="middle" x="2016.92" y="-1368.09" font-family="Times,serif" font-size="14.00">1</text>
</g>
<!-- n57 -->
<g id="node57" class="node">
<title>n57</title>
<polygon fill="#e28f41" stroke="#e28f41" points="2339.42,-2636.29 2123.42,-2636.29 2123.42,-2420.29 2339.42,-2420.29 2339.42,-2636.29"/>
<text text-anchor="middle" x="2231.42" y="-2524.59" font-family="Times,serif" font-size="14.00">((:death, :disease), :disease)</text>
</g>
<!-- n12&#45;&gt;n57 -->
<g id="edge33" class="edge">
<title>n12&#45;&gt;n57</title>
<path fill="none" stroke="black" d="M1903.74,-2127.48C1932.8,-2183.03 1970.83,-2249.36 2011.92,-2304.29 2042.73,-2345.48 2080.64,-2386.85 2116.19,-2422.62"/>
<polygon fill="black" stroke="black" points="2113.72,-2425.1 2123.26,-2429.7 2118.67,-2420.15 2113.72,-2425.1"/>
<text text-anchor="middle" x="2016.92" y="-2315.09" font-family="Times,serif" font-size="14.00">1</text>
</g>
<!-- n13 -->
<g id="node13" class="node">
<title>n13</title>
<ellipse fill="#6c9ac3" stroke="#6c9ac3" cx="5604.54" cy="-131.29" rx="131.08" ry="131.08"/>
<text text-anchor="middle" x="5604.54" y="-127.59" font-family="Times,serif" font-size="14.00">((:R, :Strain1), :VaxType1)</text>
</g>
<!-- n14 -->
<g id="node14" class="node">
<title>n14</title>
<ellipse fill="#6c9ac3" stroke="#6c9ac3" cx="2826.21" cy="-2540.29" rx="131.08" ry="131.08"/>
<text text-anchor="middle" x="2826.21" y="-2536.59" font-family="Times,serif" font-size="14.00">((:D, :Strain1), :VaxType1)</text>
</g>
<!-- n15 -->
<g id="node15" class="node">
<title>n15</title>
<ellipse fill="#6c9ac3" stroke="#6c9ac3" cx="1847.03" cy="-2963.29" rx="146.77" ry="146.77"/>
<text text-anchor="middle" x="1847.03" y="-2959.59" font-family="Times,serif" font-size="14.00">((:S, :Uninfected), :VaxType2)</text>
</g>
<!-- n15&#45;&gt;n34 -->
<g id="edge80" class="edge">
<title>n15&#45;&gt;n34</title>
<path fill="none" stroke="black" d="M1914.75,-3093.92C1943.5,-3148.47 1978.21,-3212.1 2011.92,-3268.29 2037.41,-3310.78 2065.97,-3355.48 2093.82,-3397.74"/>
<polygon fill="black" stroke="black" points="2090.94,-3399.74 2099.37,-3406.16 2096.78,-3395.89 2090.94,-3399.74"/>
<text text-anchor="middle" x="2016.92" y="-3282.09" font-family="Times,serif" font-size="14.00">1</text>
</g>
<!-- n15&#45;&gt;n35 -->
<g id="edge110" class="edge">
<title>n15&#45;&gt;n35</title>
<path fill="none" stroke="black" d="M1864.6,-2817.14C1884.91,-2675.42 1927.59,-2457.2 2011.92,-2285.29 2024.3,-2260.06 2039.34,-2235.03 2055.69,-2210.94"/>
<polygon fill="black" stroke="black" points="2058.74,-2212.69 2061.52,-2202.47 2052.97,-2208.72 2058.74,-2212.69"/>
<text text-anchor="middle" x="2016.92" y="-2289.09" font-family="Times,serif" font-size="14.00">1</text>
</g>
<!-- n40 -->
<g id="node40" class="node">
<title>n40</title>
<polygon fill="#e28f41" stroke="#e28f41" points="3611,-3721.29 3231,-3721.29 3231,-3341.29 3611,-3341.29 3611,-3721.29"/>
<text text-anchor="middle" x="3421" y="-3527.59" font-family="Times,serif" font-size="14.00">((:infection, :inf_Strain2), :inf_VaxType2_VaxType2)</text>
</g>
<!-- n15&#45;&gt;n40 -->
<g id="edge25" class="edge">
<title>n15&#45;&gt;n40</title>
<path fill="none" stroke="black" d="M1985.47,-3012.95C2264.38,-3113.73 2897.73,-3342.58 3221.45,-3459.55"/>
<polygon fill="black" stroke="black" points="3220.35,-3462.87 3230.94,-3462.98 3222.73,-3456.29 3220.35,-3462.87"/>
<text text-anchor="middle" x="2558.92" y="-3265.09" font-family="Times,serif" font-size="14.00">1</text>
</g>
<!-- n41 -->
<g id="node41" class="node">
<title>n41</title>
<polygon fill="#e28f41" stroke="#e28f41" points="3611,-2128.29 3231,-2128.29 3231,-1748.29 3611,-1748.29 3611,-2128.29"/>
<text text-anchor="middle" x="3421" y="-1934.59" font-family="Times,serif" font-size="14.00">((:infection, :inf_Strain1), :inf_VaxType2_VaxType2)</text>
</g>
<!-- n15&#45;&gt;n41 -->
<g id="edge7" class="edge">
<title>n15&#45;&gt;n41</title>
<path fill="none" stroke="black" d="M1858.39,-2816.55C1875.53,-2689.7 1920.8,-2511.41 2039.92,-2411.29 2090.41,-2368.86 3163.67,-2265.69 3211.5,-2220.29 3238.87,-2194.3 3211.78,-2170.62 3229.5,-2137.29 3229.55,-2137.2 3229.6,-2137.1 3229.65,-2137.01"/>
<polygon fill="black" stroke="black" points="3232.6,-2138.9 3234.38,-2128.46 3226.47,-2135.52 3232.6,-2138.9"/>
<text text-anchor="middle" x="2558.92" y="-2345.09" font-family="Times,serif" font-size="14.00">1</text>
</g>
<!-- n15&#45;&gt;n46 -->
<g id="edge6" class="edge">
<title>n15&#45;&gt;n46</title>
<path fill="none" stroke="black" d="M1976.27,-2892.58C2048.67,-2859.08 2142.1,-2826.29 2230.42,-2826.29 2230.42,-2826.29 2230.42,-2826.29 3094.5,-2826.29 3324.88,-2826.29 3393.28,-2774.45 3612.5,-2845.29 3615.32,-2846.2 4121.08,-3184.1 4411.46,-3378.18"/>
<polygon fill="black" stroke="black" points="4409.73,-3381.24 4419.99,-3383.88 4413.62,-3375.42 4409.73,-3381.24"/>
<text text-anchor="middle" x="3093.5" y="-2830.09" font-family="Times,serif" font-size="14.00">1</text>
</g>
<!-- n15&#45;&gt;n47 -->
<g id="edge59" class="edge">
<title>n15&#45;&gt;n47</title>
<path fill="none" stroke="black" d="M1873.86,-2818.66C1906.19,-2654.98 1966.35,-2403.17 2039.92,-2342.29 2094.89,-2296.8 2628.8,-2313.97 2676.92,-2261.29 2714.27,-2220.41 2673.19,-1814.21 2694.92,-1763.29 2765.19,-1598.64 2834.06,-1584.03 2975.5,-1474.29 3070.97,-1400.21 3139.29,-1436.18 3211.5,-1339.29 3232.5,-1311.11 3202.01,-1284.19 3229.5,-1262.29 3254.95,-1242.01 4377.16,-1236.22 4401.07,-1258.29 4437.62,-1292 4398.76,-1435.91 4419.07,-1481.29 4419.12,-1481.38 4419.16,-1481.48 4419.2,-1481.58"/>
<polygon fill="black" stroke="black" points="4415.97,-1482.93 4423.41,-1490.47 4422.3,-1479.93 4415.97,-1482.93"/>
<text text-anchor="middle" x="3093.5" y="-1478.09" font-family="Times,serif" font-size="14.00">1</text>
</g>
<!-- n16 -->
<g id="node16" class="node">
<title>n16</title>
<ellipse fill="#6c9ac3" stroke="#6c9ac3" cx="2826.21" cy="-3569.29" rx="128.08" ry="128.08"/>
<text text-anchor="middle" x="2826.21" y="-3565.59" font-family="Times,serif" font-size="14.00">((:I, :Strain2), :VaxType2)</text>
</g>
<!-- n16&#45;&gt;n38 -->
<g id="edge46" class="edge">
<title>n16&#45;&gt;n38</title>
<path fill="none" stroke="black" d="M2899.1,-3463.68C2921.34,-3426.22 2943.62,-3382.79 2957.5,-3340.29 2968.4,-3306.91 2950.25,-3207.7 2975.5,-3183.29 3013.33,-3146.72 3161.25,-3179.9 3211.5,-3164.29 3214.84,-3163.25 3218.19,-3162.15 3221.53,-3161"/>
<polygon fill="black" stroke="black" points="3222.74,-3164.28 3230.97,-3157.6 3220.37,-3157.7 3222.74,-3164.28"/>
<text text-anchor="middle" x="3093.5" y="-3187.09" font-family="Times,serif" font-size="14.00">1</text>
</g>
<!-- n16&#45;&gt;n40 -->
<g id="edge93" class="edge">
<title>n16&#45;&gt;n40</title>
<path fill="none" stroke="black" d="M2954.47,-3562.62C3029.33,-3558.55 3125.82,-3553.03 3211.5,-3547.29 3214.57,-3547.08 3217.66,-3546.87 3220.78,-3546.66"/>
<polygon fill="black" stroke="black" points="3221.06,-3550.15 3230.79,-3545.97 3220.58,-3543.17 3221.06,-3550.15"/>
<text text-anchor="middle" x="3093.5" y="-3565.09" font-family="Times,serif" font-size="14.00">1</text>
</g>
<!-- n16&#45;&gt;n42 -->
<g id="edge16" class="edge">
<title>n16&#45;&gt;n42</title>
<path fill="none" stroke="black" d="M2911.04,-3665.75C2928.59,-3689.81 2945.4,-3716.45 2957.5,-3743.29 2973.72,-3779.29 2945.91,-3804.15 2975.5,-3830.29 3014.93,-3865.12 3173.55,-3812.85 3211.5,-3849.29 3235.4,-3872.23 3215.54,-3967.24 3229.5,-3997.29 3230.15,-3998.7 3230.82,-4000.11 3231.51,-4001.51"/>
<polygon fill="black" stroke="black" points="3228.54,-4003.4 3236.19,-4010.73 3234.78,-4000.23 3228.54,-4003.4"/>
<text text-anchor="middle" x="3093.5" y="-3853.09" font-family="Times,serif" font-size="14.00">1</text>
</g>
<!-- n58 -->
<g id="node58" class="node">
<title>n58</title>
<polygon fill="#e28f41" stroke="#e28f41" points="4401.07,-3204.29 4165.07,-3204.29 4165.07,-2968.29 4401.07,-2968.29 4401.07,-3204.29"/>
<text text-anchor="middle" x="4283.07" y="-3082.59" font-family="Times,serif" font-size="14.00">((:recovery, :disease), :disease)</text>
</g>
<!-- n16&#45;&gt;n58 -->
<g id="edge90" class="edge">
<title>n16&#45;&gt;n58</title>
<path fill="none" stroke="black" d="M2892.68,-3459.6C2914.18,-3422.2 2937.63,-3379.83 2957.5,-3340.29 2966.43,-3322.5 2959.33,-3310.89 2975.5,-3299.29 3004.36,-3278.58 3577.42,-3248.91 3612.5,-3243.29 3803.57,-3212.65 4021.07,-3157.88 4154.96,-3121.81"/>
<polygon fill="black" stroke="black" points="4156.11,-3125.13 4164.86,-3119.14 4154.29,-3118.37 4156.11,-3125.13"/>
<text text-anchor="middle" x="3421" y="-3274.09" font-family="Times,serif" font-size="14.00">1</text>
</g>
<!-- n59 -->
<g id="node59" class="node">
<title>n59</title>
<polygon fill="#e28f41" stroke="#e28f41" points="3529,-3955.29 3313,-3955.29 3313,-3739.29 3529,-3739.29 3529,-3955.29"/>
<text text-anchor="middle" x="3421" y="-3843.59" font-family="Times,serif" font-size="14.00">((:death, :disease), :disease)</text>
</g>
<!-- n16&#45;&gt;n59 -->
<g id="edge29" class="edge">
<title>n16&#45;&gt;n59</title>
<path fill="none" stroke="black" d="M2942.56,-3623.38C3046.69,-3672.22 3199.15,-3743.72 3303.61,-3792.7"/>
<polygon fill="black" stroke="black" points="3302.39,-3796 3312.93,-3797.08 3305.36,-3789.66 3302.39,-3796"/>
<text text-anchor="middle" x="3093.5" y="-3754.09" font-family="Times,serif" font-size="14.00">1</text>
</g>
<!-- n17 -->
<g id="node17" class="node">
<title>n17</title>
<ellipse fill="#6c9ac3" stroke="#6c9ac3" cx="5604.54" cy="-3074.29" rx="131.08" ry="131.08"/>
<text text-anchor="middle" x="5604.54" y="-3070.59" font-family="Times,serif" font-size="14.00">((:R, :Strain2), :VaxType2)</text>
</g>
<!-- n18 -->
<g id="node18" class="node">
<title>n18</title>
<ellipse fill="#6c9ac3" stroke="#6c9ac3" cx="4015.79" cy="-3824.29" rx="131.08" ry="131.08"/>
<text text-anchor="middle" x="4015.79" y="-3820.59" font-family="Times,serif" font-size="14.00">((:D, :Strain2), :VaxType2)</text>
</g>
<!-- n19 -->
<g id="node19" class="node">
<title>n19</title>
<ellipse fill="#6c9ac3" stroke="#6c9ac3" cx="2826.21" cy="-1900.29" rx="128.08" ry="128.08"/>
<text text-anchor="middle" x="2826.21" y="-1896.59" font-family="Times,serif" font-size="14.00">((:I, :Strain1), :VaxType2)</text>
</g>
<!-- n19&#45;&gt;n39 -->
<g id="edge53" class="edge">
<title>n19&#45;&gt;n39</title>
<path fill="none" stroke="black" d="M2894.87,-2008.44C2917.39,-2037.05 2944.7,-2065.46 2975.5,-2085.29 3066.49,-2143.88 3141.72,-2062.56 3211.5,-2145.29 3242.2,-2181.69 3212.52,-2310.15 3230.1,-2370.34"/>
<polygon fill="black" stroke="black" points="3226.93,-2371.88 3233.65,-2380.07 3233.51,-2369.48 3226.93,-2371.88"/>
<text text-anchor="middle" x="3093.5" y="-2149.09" font-family="Times,serif" font-size="14.00">1</text>
</g>
<!-- n19&#45;&gt;n41 -->
<g id="edge76" class="edge">
<title>n19&#45;&gt;n41</title>
<path fill="none" stroke="black" d="M2953.77,-1914.44C2961.11,-1915.11 2968.4,-1915.73 2975.5,-1916.29 3055.57,-1922.58 3143.91,-1927.4 3220.6,-1930.89"/>
<polygon fill="black" stroke="black" points="3220.71,-1934.4 3230.86,-1931.35 3221.03,-1927.4 3220.71,-1934.4"/>
<text text-anchor="middle" x="3093.5" y="-1934.09" font-family="Times,serif" font-size="14.00">1</text>
</g>
<!-- n19&#45;&gt;n43 -->
<g id="edge74" class="edge">
<title>n19&#45;&gt;n43</title>
<path fill="none" stroke="black" d="M2878.05,-1782.98C2902.27,-1737.76 2934.91,-1688.56 2975.5,-1653.29 3061.48,-1578.56 3106.76,-1598.08 3211.5,-1553.29 3214.35,-1552.07 3217.23,-1550.84 3220.12,-1549.6"/>
<polygon fill="black" stroke="black" points="3221.6,-1552.77 3229.41,-1545.62 3218.84,-1546.34 3221.6,-1552.77"/>
<text text-anchor="middle" x="3093.5" y="-1657.09" font-family="Times,serif" font-size="14.00">1</text>
</g>
<!-- n60 -->
<g id="node60" class="node">
<title>n60</title>
<polygon fill="#e28f41" stroke="#e28f41" points="3866.5,-804.29 3630.5,-804.29 3630.5,-568.29 3866.5,-568.29 3866.5,-804.29"/>
<text text-anchor="middle" x="3748.5" y="-682.59" font-family="Times,serif" font-size="14.00">((:recovery, :disease), :disease)</text>
</g>
<!-- n19&#45;&gt;n60 -->
<g id="edge56" class="edge">
<title>n19&#45;&gt;n60</title>
<path fill="none" stroke="black" d="M2838.93,-1772.68C2858.6,-1581.55 2903.34,-1232.53 2975.5,-1131.29 3135.32,-907.03 3446.15,-779.49 3620.7,-722.59"/>
<polygon fill="black" stroke="black" points="3622.02,-725.84 3630.46,-719.43 3619.86,-719.18 3622.02,-725.84"/>
<text text-anchor="middle" x="3093.5" y="-1135.09" font-family="Times,serif" font-size="14.00">1</text>
</g>
<!-- n61 -->
<g id="node61" class="node">
<title>n61</title>
<polygon fill="#e28f41" stroke="#e28f41" points="3529,-2362.29 3313,-2362.29 3313,-2146.29 3529,-2146.29 3529,-2362.29"/>
<text text-anchor="middle" x="3421" y="-2250.59" font-family="Times,serif" font-size="14.00">((:death, :disease), :disease)</text>
</g>
<!-- n19&#45;&gt;n61 -->
<g id="edge87" class="edge">
<title>n19&#45;&gt;n61</title>
<path fill="none" stroke="black" d="M2948.09,-1940.82C3046.71,-1976.15 3175.43,-2028.18 3211.5,-2070.29 3231.56,-2093.7 3211.05,-2112.58 3229.5,-2137.29 3249.07,-2163.5 3276.4,-2185.14 3304.26,-2202.37"/>
<polygon fill="black" stroke="black" points="3302.54,-2205.42 3312.92,-2207.57 3306.15,-2199.42 3302.54,-2205.42"/>
<text text-anchor="middle" x="3093.5" y="-2074.09" font-family="Times,serif" font-size="14.00">1</text>
</g>
<!-- n20 -->
<g id="node20" class="node">
<title>n20</title>
<ellipse fill="#6c9ac3" stroke="#6c9ac3" cx="5604.54" cy="-503.29" rx="131.08" ry="131.08"/>
<text text-anchor="middle" x="5604.54" y="-499.59" font-family="Times,serif" font-size="14.00">((:R, :Strain1), :VaxType2)</text>
</g>
<!-- n21 -->
<g id="node21" class="node">
<title>n21</title>
<ellipse fill="#6c9ac3" stroke="#6c9ac3" cx="4015.79" cy="-2254.29" rx="131.08" ry="131.08"/>
<text text-anchor="middle" x="4015.79" y="-2250.59" font-family="Times,serif" font-size="14.00">((:D, :Strain1), :VaxType2)</text>
</g>
<!-- n22&#45;&gt;n8 -->
<g id="edge55" class="edge">
<title>n22&#45;&gt;n8</title>
<path fill="none" stroke="black" d="M620.67,-2790.59C711.35,-2790.14 830.1,-2789.54 924.17,-2789.07"/>
<polygon fill="black" stroke="black" points="924.37,-2792.57 934.35,-2789.02 924.33,-2785.57 924.37,-2792.57"/>
<text text-anchor="middle" x="777.37" y="-2795.09" font-family="Times,serif" font-size="14.00">1</text>
</g>
<!-- n23&#45;&gt;n9 -->
<g id="edge62" class="edge">
<title>n23&#45;&gt;n9</title>
<path fill="none" stroke="black" d="M4478.55,-4670.61C4455.45,-4651.76 4434.05,-4629.57 4419.07,-4604.29 4389.13,-4553.72 4444.66,-4512.71 4401.07,-4473.29 4369.39,-4444.63 4059.51,-4459.29 4016.79,-4459.29 2230.42,-4459.29 2230.42,-4459.29 2230.42,-4459.29 2145.33,-4459.29 2110.98,-4487.1 2039.92,-4440.29 1964.81,-4390.8 1916.38,-4301.44 1886.97,-4225.79"/>
<polygon fill="black" stroke="black" points="1890.13,-4224.26 1883.3,-4216.17 1883.59,-4226.76 1890.13,-4224.26"/>
<text text-anchor="middle" x="3093.5" y="-4463.09" font-family="Times,serif" font-size="14.00">1</text>
</g>
<!-- n24&#45;&gt;n10 -->
<g id="edge51" class="edge">
<title>n24&#45;&gt;n10</title>
<path fill="none" stroke="black" d="M5360.44,-4772.3C5413.8,-4881.16 5488.77,-5034.12 5541.31,-5141.31"/>
<polygon fill="black" stroke="black" points="5538.3,-5143.13 5545.84,-5150.57 5544.58,-5140.05 5538.3,-5143.13"/>
<text text-anchor="middle" x="5450.25" y="-4957.09" font-family="Times,serif" font-size="14.00">1</text>
</g>
<!-- n25&#45;&gt;n12 -->
<g id="edge65" class="edge">
<title>n25&#45;&gt;n12</title>
<path fill="none" stroke="black" d="M4478.41,-2683.88C4154.45,-2725.92 3339.18,-2824.7 3229.5,-2769.29 3047.65,-2677.42 3126.6,-2513.93 2957.5,-2400.29 2850.74,-2328.54 2803.34,-2353.03 2676.92,-2329.29 2396.54,-2276.64 2289.2,-2389.01 2039.92,-2250.29 1990.15,-2222.59 1948.38,-2176.29 1916.66,-2131.85"/>
<polygon fill="black" stroke="black" points="1919.46,-2129.75 1910.85,-2123.58 1913.73,-2133.77 1919.46,-2129.75"/>
<text text-anchor="middle" x="3093.5" y="-2763.09" font-family="Times,serif" font-size="14.00">1</text>
</g>
<!-- n26&#45;&gt;n13 -->
<g id="edge107" class="edge">
<title>n26&#45;&gt;n13</title>
<path fill="none" stroke="black" d="M5427.34,-195.3C5441.95,-189.99 5456.83,-184.59 5471.44,-179.28"/>
<polygon fill="black" stroke="black" points="5472.8,-182.51 5481,-175.81 5470.41,-175.93 5472.8,-182.51"/>
<text text-anchor="middle" x="5450.25" y="-191.09" font-family="Times,serif" font-size="14.00">1</text>
</g>
<!-- n27&#45;&gt;n15 -->
<g id="edge79" class="edge">
<title>n27&#45;&gt;n15</title>
<path fill="none" stroke="black" d="M916.58,-2959.81C1115.51,-2960.55 1481.47,-2961.92 1689.91,-2962.7"/>
<polygon fill="black" stroke="black" points="1690.01,-2966.2 1700.02,-2962.74 1690.03,-2959.2 1690.01,-2966.2"/>
<text text-anchor="middle" x="1251.15" y="-2965.09" font-family="Times,serif" font-size="14.00">1</text>
</g>
<!-- n28&#45;&gt;n16 -->
<g id="edge95" class="edge">
<title>n28&#45;&gt;n16</title>
<path fill="none" stroke="black" d="M4478.56,-3198.96C4452.95,-3204.25 4426.25,-3209.32 4401.07,-3213.29 4368.76,-3218.38 3260.58,-3322.1 3229.5,-3332.29 3123.22,-3367.13 3014.65,-3433.26 2937.12,-3486.83"/>
<polygon fill="black" stroke="black" points="2934.99,-3484.05 2928.77,-3492.63 2938.98,-3489.8 2934.99,-3484.05"/>
<text text-anchor="middle" x="3748.5" y="-3293.09" font-family="Times,serif" font-size="14.00">1</text>
</g>
<!-- n29&#45;&gt;n17 -->
<g id="edge32" class="edge">
<title>n29&#45;&gt;n17</title>
<path fill="none" stroke="black" d="M5383.59,-3406.04C5428.38,-3338.49 5482.29,-3257.18 5525.52,-3191.96"/>
<polygon fill="black" stroke="black" points="5528.67,-3193.55 5531.28,-3183.28 5522.84,-3189.68 5528.67,-3193.55"/>
<text text-anchor="middle" x="5450.25" y="-3311.09" font-family="Times,serif" font-size="14.00">1</text>
</g>
<!-- n30&#45;&gt;n19 -->
<g id="edge44" class="edge">
<title>n30&#45;&gt;n19</title>
<path fill="none" stroke="black" d="M4478.16,-2185.19C4454.78,-2166.11 4433.37,-2143.43 4419.07,-2117.29 4390.86,-2065.7 4441.06,-1896.41 4401.07,-1853.29 4312.15,-1757.38 3357.93,-1714.54 3229.5,-1739.29 3131.72,-1758.13 3027.5,-1800.53 2949.65,-1837.09"/>
<polygon fill="black" stroke="black" points="2947.83,-1834.08 2940.28,-1841.52 2950.82,-1840.41 2947.83,-1834.08"/>
<text text-anchor="middle" x="3748.5" y="-1757.09" font-family="Times,serif" font-size="14.00">1</text>
</g>
<!-- n31&#45;&gt;n20 -->
<g id="edge13" class="edge">
<title>n31&#45;&gt;n20</title>
<path fill="none" stroke="black" d="M5427.34,-538.72C5439.97,-536.18 5452.81,-533.6 5465.5,-531.05"/>
<polygon fill="black" stroke="black" points="5466.53,-534.41 5475.64,-529.01 5465.15,-527.55 5466.53,-534.41"/>
<text text-anchor="middle" x="5450.25" y="-538.09" font-family="Times,serif" font-size="14.00">1</text>
</g>
<!-- n32&#45;&gt;n9 -->
<g id="edge37" class="edge">
<title>n32&#45;&gt;n9</title>
<path fill="none" stroke="black" d="M1654.2,-4074.15C1672.8,-4076 1691.41,-4077.86 1709.34,-4079.65"/>
<polygon fill="black" stroke="black" points="1709.21,-4083.16 1719.51,-4080.67 1709.91,-4076.19 1709.21,-4083.16"/>
<text text-anchor="middle" x="1677.15" y="-4081.09" font-family="Times,serif" font-size="14.00">2</text>
</g>
<!-- n33&#45;&gt;n12 -->
<g id="edge11" class="edge">
<title>n33&#45;&gt;n12</title>
<path fill="none" stroke="black" d="M1654.21,-2015.14C1660.25,-2014.45 1666.24,-2013.83 1672.15,-2013.29 1683.89,-2012.21 1696.1,-2011.44 1708.36,-2010.91"/>
<polygon fill="black" stroke="black" points="1708.8,-2014.39 1718.66,-2010.52 1708.53,-2007.4 1708.8,-2014.39"/>
<text text-anchor="middle" x="1677.15" y="-2017.09" font-family="Times,serif" font-size="14.00">2</text>
</g>
<!-- n34&#45;&gt;n9 -->
<g id="edge89" class="edge">
<title>n34&#45;&gt;n9</title>
<path fill="none" stroke="black" d="M2041.4,-3780.28C2031.13,-3792.2 2021.22,-3804.26 2011.92,-3816.29 1974.93,-3864.14 1939.91,-3921.05 1911.82,-3970.81"/>
<polygon fill="black" stroke="black" points="1908.68,-3969.26 1906.84,-3979.69 1914.79,-3972.68 1908.68,-3969.26"/>
<text text-anchor="middle" x="2016.92" y="-3820.09" font-family="Times,serif" font-size="14.00">1</text>
</g>
<!-- n34&#45;&gt;n16 -->
<g id="edge109" class="edge">
<title>n34&#45;&gt;n16</title>
<path fill="none" stroke="black" d="M2421.61,-3587.67C2508.21,-3583.73 2608.91,-3579.14 2688.07,-3575.53"/>
<polygon fill="black" stroke="black" points="2688.27,-3579.03 2698.1,-3575.08 2687.95,-3572.04 2688.27,-3579.03"/>
<text text-anchor="middle" x="2558.92" y="-3591.09" font-family="Times,serif" font-size="14.00">1</text>
</g>
<!-- n35&#45;&gt;n12 -->
<g id="edge26" class="edge">
<title>n35&#45;&gt;n12</title>
<path fill="none" stroke="black" d="M2041.27,-1993.5C2031.35,-1993.52 2021.52,-1993.76 2011.92,-1994.29 2003,-1994.78 1993.82,-1995.41 1984.57,-1996.16"/>
<polygon fill="black" stroke="black" points="1984.2,-1992.67 1974.53,-1997 1984.78,-1999.65 1984.2,-1992.67"/>
<text text-anchor="middle" x="2016.92" y="-1998.09" font-family="Times,serif" font-size="14.00">1</text>
</g>
<!-- n35&#45;&gt;n19 -->
<g id="edge43" class="edge">
<title>n35&#45;&gt;n19</title>
<path fill="none" stroke="black" d="M2421.61,-1976.54C2508.86,-1960.06 2610.43,-1940.87 2689.85,-1925.86"/>
<polygon fill="black" stroke="black" points="2690.74,-1929.26 2699.91,-1923.96 2689.44,-1922.38 2690.74,-1929.26"/>
<text text-anchor="middle" x="2558.92" y="-1977.09" font-family="Times,serif" font-size="14.00">1</text>
</g>
<!-- n36&#45;&gt;n2 -->
<g id="edge5" class="edge">
<title>n36&#45;&gt;n2</title>
<path fill="none" stroke="black" d="M2423.14,-4278.78C2747.01,-4341.45 3390.92,-4453.63 3612.5,-4402.29 3714.44,-4378.67 3820.37,-4325.45 3897.92,-4280.27"/>
<polygon fill="black" stroke="black" points="3899.9,-4283.17 3906.76,-4275.09 3896.36,-4277.13 3899.9,-4283.17"/>
<text text-anchor="middle" x="3093.5" y="-4405.09" font-family="Times,serif" font-size="14.00">1</text>
</g>
<!-- n36&#45;&gt;n9 -->
<g id="edge68" class="edge">
<title>n36&#45;&gt;n9</title>
<path fill="none" stroke="black" d="M2039.62,-4166.94C2018.23,-4158.72 1996.83,-4150.49 1976.5,-4142.68"/>
<polygon fill="black" stroke="black" points="1977.52,-4139.32 1966.93,-4138.99 1975.01,-4145.85 1977.52,-4139.32"/>
<text text-anchor="middle" x="2016.92" y="-4162.09" font-family="Times,serif" font-size="14.00">1</text>
</g>
<!-- n37&#45;&gt;n5 -->
<g id="edge96" class="edge">
<title>n37&#45;&gt;n5</title>
<path fill="none" stroke="black" d="M2423.06,-1523.56C2620.02,-1437.16 2938.78,-1311.83 3229.5,-1262.29 3397.3,-1233.69 3445.49,-1229.37 3612.5,-1262.29 3710.18,-1281.54 3813.99,-1324.75 3891.68,-1362.12"/>
<polygon fill="black" stroke="black" points="3890.5,-1365.44 3901.03,-1366.65 3893.55,-1359.14 3890.5,-1365.44"/>
<text text-anchor="middle" x="3093.5" y="-1324.09" font-family="Times,serif" font-size="14.00">1</text>
</g>
<!-- n37&#45;&gt;n12 -->
<g id="edge3" class="edge">
<title>n37&#45;&gt;n12</title>
<path fill="none" stroke="black" d="M2047.2,-1803.95C2011.25,-1841.55 1974.93,-1879.55 1943.33,-1912.6"/>
<polygon fill="black" stroke="black" points="1940.62,-1910.37 1936.24,-1920.02 1945.68,-1915.21 1940.62,-1910.37"/>
<text text-anchor="middle" x="2016.92" y="-1840.09" font-family="Times,serif" font-size="14.00">1</text>
</g>
<!-- n38&#45;&gt;n9 -->
<g id="edge1" class="edge">
<title>n38&#45;&gt;n9</title>
<path fill="none" stroke="black" d="M3230.96,-3092.49C3151.57,-3113.79 3058.55,-3140.14 2975.5,-3167.29 2840.63,-3211.37 2813.6,-3242.21 2676.92,-3280.29 2399.64,-3357.54 2252.15,-3202.83 2039.92,-3397.29 1958.18,-3472.19 1897.78,-3775.93 1868.26,-3956.47"/>
<polygon fill="black" stroke="black" points="1864.77,-3956.15 1866.62,-3966.58 1871.67,-3957.27 1864.77,-3956.15"/>
<text text-anchor="middle" x="2558.92" y="-3308.09" font-family="Times,serif" font-size="14.00">1</text>
</g>
<!-- n38&#45;&gt;n16 -->
<g id="edge28" class="edge">
<title>n38&#45;&gt;n16</title>
<path fill="none" stroke="black" d="M3230.99,-3192.78C3224.52,-3196.16 3218.02,-3199.34 3211.5,-3202.29 3113.96,-3246.38 3051.06,-3174.48 2975.5,-3250.29 2946.7,-3279.18 2971.77,-3302.07 2957.5,-3340.29 2943.12,-3378.8 2922.77,-3418.5 2902.43,-3453.81"/>
<polygon fill="black" stroke="black" points="2899.27,-3452.28 2897.26,-3462.69 2905.31,-3455.81 2899.27,-3452.28"/>
<text text-anchor="middle" x="3093.5" y="-3254.09" font-family="Times,serif" font-size="14.00">1</text>
</g>
<!-- n39&#45;&gt;n12 -->
<g id="edge61" class="edge">
<title>n39&#45;&gt;n12</title>
<path fill="none" stroke="black" d="M3230.83,-2440.99C3150.04,-2391.99 3052.57,-2340.72 2957.5,-2310.29 2859.84,-2279.03 2132.01,-2256.4 2039.92,-2211.29 1998.05,-2190.78 1960.32,-2157.17 1929.62,-2123.37"/>
<polygon fill="black" stroke="black" points="1932.05,-2120.83 1922.78,-2115.7 1926.83,-2125.49 1932.05,-2120.83"/>
<text text-anchor="middle" x="2558.92" y="-2283.09" font-family="Times,serif" font-size="14.00">1</text>
</g>
<!-- n39&#45;&gt;n19 -->
<g id="edge91" class="edge">
<title>n39&#45;&gt;n19</title>
<path fill="none" stroke="black" d="M3233.75,-2380.02C3232.28,-2377.13 3230.86,-2374.22 3229.5,-2371.29 3213.51,-2336.83 3237.45,-2229.03 3211.5,-2201.29 3138.76,-2123.55 3062.62,-2221.47 2975.5,-2160.29 2930.25,-2128.52 2897,-2078.24 2873.59,-2030.34"/>
<polygon fill="black" stroke="black" points="2876.66,-2028.63 2869.19,-2021.11 2870.34,-2031.64 2876.66,-2028.63"/>
<text text-anchor="middle" x="3093.5" y="-2205.09" font-family="Times,serif" font-size="14.00">1</text>
</g>
<!-- n40&#45;&gt;n16 -->
<g id="edge50" class="edge">
<title>n40&#45;&gt;n16</title>
<path fill="none" stroke="black" d="M3230.93,-3521.65C3151.74,-3520.22 3058.88,-3521.95 2975.5,-3532.29 2970.44,-3532.92 2965.31,-3533.66 2960.15,-3534.49"/>
<polygon fill="black" stroke="black" points="2959.44,-3531.06 2950.18,-3536.2 2960.63,-3537.96 2959.44,-3531.06"/>
<text text-anchor="middle" x="3093.5" y="-3536.09" font-family="Times,serif" font-size="14.00">2</text>
</g>
<!-- n41&#45;&gt;n19 -->
<g id="edge81" class="edge">
<title>n41&#45;&gt;n19</title>
<path fill="none" stroke="black" d="M3230.74,-1899.43C3224.26,-1898.63 3217.83,-1897.91 3211.5,-1897.29 3107.1,-1887.12 3080.38,-1896.23 2975.5,-1897.29 2971.98,-1897.32 2968.41,-1897.36 2964.82,-1897.41"/>
<polygon fill="black" stroke="black" points="2964.56,-1893.91 2954.61,-1897.54 2964.65,-1900.91 2964.56,-1893.91"/>
<text text-anchor="middle" x="3093.5" y="-1901.09" font-family="Times,serif" font-size="14.00">2</text>
</g>
<!-- n42&#45;&gt;n2 -->
<g id="edge20" class="edge">
<title>n42&#45;&gt;n2</title>
<path fill="none" stroke="black" d="M3612.82,-4203.25C3698.34,-4203.69 3797.34,-4204.19 3875.69,-4204.58"/>
<polygon fill="black" stroke="black" points="3876.1,-4208.09 3886.11,-4204.64 3876.13,-4201.09 3876.1,-4208.09"/>
<text text-anchor="middle" x="3748.5" y="-4209.09" font-family="Times,serif" font-size="14.00">1</text>
</g>
<!-- n42&#45;&gt;n16 -->
<g id="edge2" class="edge">
<title>n42&#45;&gt;n16</title>
<path fill="none" stroke="black" d="M3236.48,-4010.59C3234.04,-4006.19 3231.7,-4001.75 3229.5,-3997.29 3208.35,-3954.44 3246.47,-3923.86 3211.5,-3891.29 3172.94,-3855.38 3013.6,-3904.68 2975.5,-3868.29 2934.91,-3829.52 2978.99,-3795.14 2957.5,-3743.29 2947.44,-3719.02 2933.22,-3695.09 2917.85,-3673.1"/>
<polygon fill="black" stroke="black" points="2920.56,-3670.88 2911.9,-3664.77 2914.86,-3674.94 2920.56,-3670.88"/>
<text text-anchor="middle" x="3093.5" y="-3895.09" font-family="Times,serif" font-size="14.00">1</text>
</g>
<!-- n43&#45;&gt;n5 -->
<g id="edge42" class="edge">
<title>n43&#45;&gt;n5</title>
<path fill="none" stroke="black" d="M3612.82,-1451.7C3698.5,-1446.5 3797.71,-1440.47 3876.13,-1435.71"/>
<polygon fill="black" stroke="black" points="3876.8,-1439.17 3886.57,-1435.08 3876.37,-1432.19 3876.8,-1439.17"/>
<text text-anchor="middle" x="3748.5" y="-1455.09" font-family="Times,serif" font-size="14.00">1</text>
</g>
<!-- n43&#45;&gt;n19 -->
<g id="edge82" class="edge">
<title>n43&#45;&gt;n19</title>
<path fill="none" stroke="black" d="M3229.32,-1488.79C3113.19,-1505.14 2985.23,-1524.99 2975.5,-1534.29 2946.95,-1561.56 2969.94,-1583.81 2957.5,-1621.29 2939.94,-1674.2 2915.07,-1730.3 2891.75,-1778.21"/>
<polygon fill="black" stroke="black" points="2888.52,-1776.84 2887.27,-1787.36 2894.81,-1779.92 2888.52,-1776.84"/>
<text text-anchor="middle" x="3093.5" y="-1538.09" font-family="Times,serif" font-size="14.00">1</text>
</g>
<!-- n44&#45;&gt;n2 -->
<g id="edge30" class="edge">
<title>n44&#45;&gt;n2</title>
<path fill="none" stroke="black" d="M4423.26,-4897.54C4421.79,-4894.48 4420.4,-4891.39 4419.07,-4888.29 4401.83,-4847.88 4429.91,-4526.43 4401.07,-4493.29 4331.04,-4412.79 4252.86,-4509.93 4165.07,-4449.29 4124.05,-4420.95 4092.37,-4377.2 4069.02,-4334.54"/>
<polygon fill="black" stroke="black" points="4071.97,-4332.62 4064.17,-4325.46 4065.79,-4335.92 4071.97,-4332.62"/>
<text text-anchor="middle" x="4283.07" y="-4497.09" font-family="Times,serif" font-size="14.00">1</text>
</g>
<!-- n44&#45;&gt;n9 -->
<g id="edge98" class="edge">
<title>n44&#45;&gt;n9</title>
<path fill="none" stroke="black" d="M4423.94,-4897.62C4422.26,-4894.53 4420.63,-4891.42 4419.07,-4888.29 4397.17,-4844.34 4434.52,-4815.24 4401.07,-4779.29 4030.72,-4381.15 3750.77,-4563.05 3211.5,-4493.29 2953.24,-4459.88 2275.05,-4580.21 2039.92,-4468.29 1948.11,-4424.59 1899.43,-4317.74 1874.1,-4229.23"/>
<polygon fill="black" stroke="black" points="1877.41,-4228.05 1871.35,-4219.36 1870.67,-4229.93 1877.41,-4228.05"/>
<text text-anchor="middle" x="3093.5" y="-4497.09" font-family="Times,serif" font-size="14.00">1</text>
</g>
<!-- n45&#45;&gt;n5 -->
<g id="edge17" class="edge">
<title>n45&#45;&gt;n5</title>
<path fill="none" stroke="black" d="M4419.79,-1349.5C4413.5,-1351.19 4407.25,-1352.8 4401.07,-1354.29 4298.13,-1379.17 4268.85,-1366.12 4165.07,-1387.29 4160.34,-1388.25 4155.54,-1389.28 4150.7,-1390.36"/>
<polygon fill="black" stroke="black" points="4149.68,-1387 4140.71,-1392.64 4151.24,-1393.83 4149.68,-1387"/>
<text text-anchor="middle" x="4283.07" y="-1391.09" font-family="Times,serif" font-size="14.00">1</text>
</g>
<!-- n45&#45;&gt;n12 -->
<g id="edge31" class="edge">
<title>n45&#45;&gt;n12</title>
<path fill="none" stroke="black" d="M4419.96,-1232.87C4413.61,-1231.9 4407.3,-1231.04 4401.07,-1230.29 4173.12,-1202.94 4114.09,-1229.41 3884.5,-1230.29 3674.67,-1231.09 3140.6,-1220.78 2975.5,-1247.29 2847.7,-1267.8 2788.73,-1236.11 2694.92,-1325.29 2676.59,-1342.72 2697.07,-1363.99 2676.92,-1379.29 2564.06,-1465.02 2152.24,-1324.84 2039.92,-1411.29 1965.69,-1468.42 1904.99,-1717.5 1872.88,-1876.53"/>
<polygon fill="black" stroke="black" points="1869.44,-1875.9 1870.9,-1886.4 1876.3,-1877.28 1869.44,-1875.9"/>
<text text-anchor="middle" x="3093.5" y="-1251.09" font-family="Times,serif" font-size="14.00">1</text>
</g>
<!-- n46&#45;&gt;n2 -->
<g id="edge38" class="edge">
<title>n46&#45;&gt;n2</title>
<path fill="none" stroke="black" d="M4423.3,-3703.06C4421.83,-3706.12 4420.42,-3709.19 4419.07,-3712.29 4404.92,-3744.97 4425.74,-4006.6 4401.07,-4032.29 4364.59,-4070.3 4212.66,-4032.65 4165.07,-4055.29 4143.38,-4065.61 4123.06,-4080.5 4104.84,-4096.94"/>
<polygon fill="black" stroke="black" points="4102.1,-4094.7 4097.16,-4104.07 4106.87,-4099.83 4102.1,-4094.7"/>
<text text-anchor="middle" x="4283.07" y="-4059.09" font-family="Times,serif" font-size="14.00">1</text>
</g>
<!-- n46&#45;&gt;n16 -->
<g id="edge23" class="edge">
<title>n46&#45;&gt;n16</title>
<path fill="none" stroke="black" d="M4427.91,-3702.92C4314.19,-3819.86 4182.93,-3949.68 4147.07,-3964.29 4099.87,-3983.53 3267.92,-3997.79 3229.5,-3964.29 3185.2,-3925.66 3250.31,-3877.42 3211.5,-3833.29 3139.73,-3751.67 3064.26,-3831.99 2975.5,-3769.29 2964.02,-3761.18 2965.71,-3754.69 2957.5,-3743.29 2942.44,-3722.38 2926.15,-3700.25 2910.35,-3679.03"/>
<polygon fill="black" stroke="black" points="2913.1,-3676.87 2904.32,-3670.95 2907.49,-3681.06 2913.1,-3676.87"/>
<text text-anchor="middle" x="3748.5" y="-3989.09" font-family="Times,serif" font-size="14.00">1</text>
</g>
<!-- n47&#45;&gt;n5 -->
<g id="edge99" class="edge">
<title>n47&#45;&gt;n5</title>
<path fill="none" stroke="black" d="M4420.02,-1650.48C4309.66,-1631.04 4188.06,-1607.44 4165.07,-1594.29 4140.54,-1580.25 4117.96,-1560.66 4098.2,-1539.82"/>
<polygon fill="black" stroke="black" points="4100.69,-1537.36 4091.33,-1532.41 4095.56,-1542.12 4100.69,-1537.36"/>
<text text-anchor="middle" x="4283.07" y="-1650.09" font-family="Times,serif" font-size="14.00">1</text>
</g>
<!-- n47&#45;&gt;n19 -->
<g id="edge24" class="edge">
<title>n47&#45;&gt;n19</title>
<path fill="none" stroke="black" d="M4419.97,-1680.66C4002.41,-1677.68 3038.93,-1674.35 2975.5,-1706.29 2942.79,-1722.76 2915.27,-1750.2 2893.17,-1779.33"/>
<polygon fill="black" stroke="black" points="2890.2,-1777.46 2887.07,-1787.59 2895.83,-1781.62 2890.2,-1777.46"/>
<text text-anchor="middle" x="3748.5" y="-1684.09" font-family="Times,serif" font-size="14.00">1</text>
</g>
<!-- n48&#45;&gt;n2 -->
<g id="edge72" class="edge">
<title>n48&#45;&gt;n2</title>
<path fill="none" stroke="black" d="M4419.06,-4183.08C4413,-4183.5 4406.99,-4183.9 4401.07,-4184.29 4319.73,-4189.62 4228.63,-4194.64 4155.55,-4198.43"/>
<polygon fill="black" stroke="black" points="4155.17,-4194.95 4145.36,-4198.96 4155.53,-4201.94 4155.17,-4194.95"/>
<text text-anchor="middle" x="4283.07" y="-4202.09" font-family="Times,serif" font-size="14.00">2</text>
</g>
<!-- n49&#45;&gt;n5 -->
<g id="edge70" class="edge">
<title>n49&#45;&gt;n5</title>
<path fill="none" stroke="black" d="M4423.71,-1072.06C4422.12,-1074.79 4420.57,-1077.54 4419.07,-1080.29 4402.69,-1110.4 4421.42,-1127.7 4401.07,-1155.29 4328.69,-1253.44 4263.52,-1223.3 4165.07,-1295.29 4149.56,-1306.64 4133.76,-1319.3 4118.55,-1332.18"/>
<polygon fill="black" stroke="black" points="4115.98,-1329.77 4110.65,-1338.93 4120.52,-1335.09 4115.98,-1329.77"/>
<text text-anchor="middle" x="4283.07" y="-1299.09" font-family="Times,serif" font-size="14.00">2</text>
</g>
<!-- n50&#45;&gt;n3 -->
<g id="edge104" class="edge">
<title>n50&#45;&gt;n3</title>
<path fill="none" stroke="black" d="M4729.61,-3839.29C4764.54,-3839.29 4803.22,-3839.29 4839.57,-3839.29"/>
<polygon fill="black" stroke="black" points="4839.75,-3842.79 4849.75,-3839.29 4839.75,-3835.79 4839.75,-3842.79"/>
<text text-anchor="middle" x="4827.07" y="-3843.09" font-family="Times,serif" font-size="14.00">1</text>
</g>
<!-- n51&#45;&gt;n4 -->
<g id="edge41" class="edge">
<title>n51&#45;&gt;n4</title>
<path fill="none" stroke="black" d="M4719.83,-4487.29C4757.3,-4487.29 4799.97,-4487.29 4839.83,-4487.29"/>
<polygon fill="black" stroke="black" points="4839.89,-4490.79 4849.89,-4487.29 4839.89,-4483.79 4839.89,-4490.79"/>
<text text-anchor="middle" x="4827.07" y="-4491.09" font-family="Times,serif" font-size="14.00">1</text>
</g>
<!-- n52&#45;&gt;n6 -->
<g id="edge15" class="edge">
<title>n52&#45;&gt;n6</title>
<path fill="none" stroke="black" d="M4729.61,-555.04C4764.64,-556.47 4803.43,-558.04 4839.87,-559.53"/>
<polygon fill="black" stroke="black" points="4839.95,-563.03 4850.08,-559.94 4840.23,-556.04 4839.95,-563.03"/>
<text text-anchor="middle" x="4827.07" y="-563.09" font-family="Times,serif" font-size="14.00">1</text>
</g>
<!-- n53&#45;&gt;n7 -->
<g id="edge84" class="edge">
<title>n53&#45;&gt;n7</title>
<path fill="none" stroke="black" d="M4719.83,-2000.29C4757.3,-2000.29 4799.97,-2000.29 4839.83,-2000.29"/>
<polygon fill="black" stroke="black" points="4839.89,-2003.79 4849.89,-2000.29 4839.89,-1996.79 4839.89,-2003.79"/>
<text text-anchor="middle" x="4827.07" y="-2004.09" font-family="Times,serif" font-size="14.00">1</text>
</g>
<!-- n54&#45;&gt;n10 -->
<g id="edge103" class="edge">
<title>n54&#45;&gt;n10</title>
<path fill="none" stroke="black" d="M3142.88,-4753.52C3231.46,-4948.53 3439.35,-5316.29 3747.5,-5316.29 3747.5,-5316.29 3747.5,-5316.29 5295.25,-5316.29 5351.61,-5316.29 5413.08,-5308.36 5466.2,-5298.95"/>
<polygon fill="black" stroke="black" points="5467.14,-5302.33 5476.36,-5297.11 5465.9,-5295.44 5467.14,-5302.33"/>
<text text-anchor="middle" x="4611.57" y="-5320.09" font-family="Times,serif" font-size="14.00">1</text>
</g>
<!-- n55&#45;&gt;n11 -->
<g id="edge10" class="edge">
<title>n55&#45;&gt;n11</title>
<path fill="none" stroke="black" d="M2339.43,-3922.29C2436.03,-3922.29 2578.8,-3922.29 2684.59,-3922.29"/>
<polygon fill="black" stroke="black" points="2684.71,-3925.79 2694.71,-3922.29 2684.71,-3918.79 2684.71,-3925.79"/>
<text text-anchor="middle" x="2558.92" y="-3926.09" font-family="Times,serif" font-size="14.00">1</text>
</g>
<!-- n56&#45;&gt;n13 -->
<g id="edge52" class="edge">
<title>n56&#45;&gt;n13</title>
<path fill="none" stroke="black" d="M2660.45,-1142.05C2666.3,-1133.52 2671.85,-1124.89 2676.92,-1116.29 2928.26,-689.51 2597.21,-82.29 3092.5,-82.29 3092.5,-82.29 3092.5,-82.29 5295.25,-82.29 5351.64,-82.29 5413.11,-90.38 5466.23,-99.99"/>
<polygon fill="black" stroke="black" points="5465.92,-103.49 5476.39,-101.87 5467.19,-96.61 5465.92,-103.49"/>
<text text-anchor="middle" x="4283.07" y="-86.09" font-family="Times,serif" font-size="14.00">1</text>
</g>
<!-- n57&#45;&gt;n14 -->
<g id="edge19" class="edge">
<title>n57&#45;&gt;n14</title>
<path fill="none" stroke="black" d="M2339.43,-2530.45C2436.03,-2532.41 2578.8,-2535.3 2684.59,-2537.44"/>
<polygon fill="black" stroke="black" points="2684.64,-2540.94 2694.71,-2537.65 2684.79,-2533.94 2684.64,-2540.94"/>
<text text-anchor="middle" x="2558.92" y="-2541.09" font-family="Times,serif" font-size="14.00">1</text>
</g>
<!-- n58&#45;&gt;n17 -->
<g id="edge106" class="edge">
<title>n58&#45;&gt;n17</title>
<path fill="none" stroke="black" d="M4401.36,-3031.15C4407.28,-3029.32 4413.21,-3027.68 4419.07,-3026.29 4595.29,-2984.58 4644.99,-3007.29 4826.07,-3007.29 4826.07,-3007.29 4826.07,-3007.29 5295.25,-3007.29 5353.13,-3007.29 5415.76,-3018.7 5469.35,-3032.11"/>
<polygon fill="black" stroke="black" points="5468.69,-3035.56 5479.25,-3034.64 5470.42,-3028.77 5468.69,-3035.56"/>
<text text-anchor="middle" x="4982.66" y="-3011.09" font-family="Times,serif" font-size="14.00">1</text>
</g>
<!-- n59&#45;&gt;n18 -->
<g id="edge14" class="edge">
<title>n59&#45;&gt;n18</title>
<path fill="none" stroke="black" d="M3529,-3843.14C3625.68,-3839.39 3768.62,-3833.84 3874.43,-3829.73"/>
<polygon fill="black" stroke="black" points="3874.7,-3833.23 3884.56,-3829.34 3874.43,-3826.23 3874.7,-3833.23"/>
<text text-anchor="middle" x="3748.5" y="-3843.09" font-family="Times,serif" font-size="14.00">1</text>
</g>
<!-- n60&#45;&gt;n20 -->
<g id="edge58" class="edge">
<title>n60&#45;&gt;n20</title>
<path fill="none" stroke="black" d="M3866.58,-581.68C3968.75,-501.43 4124.88,-404.29 4282.07,-404.29 4282.07,-404.29 4282.07,-404.29 5295.25,-404.29 5354.52,-404.29 5370.36,-406.65 5427.25,-423.29 5443.7,-428.1 5460.59,-434.17 5477.1,-440.8"/>
<polygon fill="black" stroke="black" points="5476.18,-444.21 5486.76,-444.77 5478.84,-437.73 5476.18,-444.21"/>
<text text-anchor="middle" x="4827.07" y="-408.09" font-family="Times,serif" font-size="14.00">1</text>
</g>
<!-- n61&#45;&gt;n21 -->
<g id="edge64" class="edge">
<title>n61&#45;&gt;n21</title>
<path fill="none" stroke="black" d="M3529,-2254.29C3625.6,-2254.29 3768.38,-2254.29 3874.17,-2254.29"/>
<polygon fill="black" stroke="black" points="3874.29,-2257.79 3884.29,-2254.29 3874.29,-2250.79 3874.29,-2257.79"/>
<text text-anchor="middle" x="3748.5" y="-2258.09" font-family="Times,serif" font-size="14.00">1</text>
</g>
</g>
</svg>
