<?xml version="1.0" encoding="UTF-8" standalone="no"?>
<!DOCTYPE svg PUBLIC "-//W3C//DTD SVG 1.1//EN"
 "http://www.w3.org/Graphics/SVG/1.1/DTD/svg11.dtd">
<!-- Generated by graphviz version 2.43.0 (0)
 -->
<!-- Title: G Pages: 1 -->
<svg width="439pt" height="451pt"
 viewBox="0.00 0.00 438.59 450.97" xmlns="http://www.w3.org/2000/svg" xmlns:xlink="http://www.w3.org/1999/xlink">
<g id="graph0" class="graph" transform="scale(1 1) rotate(0) translate(4 446.97)">
<title>G</title>
<polygon fill="white" stroke="transparent" points="-4,4 -4,-446.97 434.59,-446.97 434.59,4 -4,4"/>
<g id="clust1" class="cluster">
<title>clusterApex</title>
<polygon fill="none" stroke="black" points="8,-264.97 8,-434.97 422.59,-434.97 422.59,-264.97 8,-264.97"/>
</g>
<g id="clust2" class="cluster">
<title>clusterLeg1</title>
<polygon fill="none" stroke="black" points="16.45,-16.97 16.45,-256.97 213.29,-256.97 213.29,-16.97 16.45,-16.97"/>
</g>
<!-- ap_n1 -->
<g id="node1" class="node">
<title>ap_n1</title>
<ellipse fill="#6c9ac3" stroke="#6c9ac3" cx="52.4" cy="-348.97" rx="36.29" ry="36.29"/>
<text text-anchor="middle" x="52.4" y="-345.27" font-family="Times,serif" font-size="14.00">Uninf</text>
</g>
<!-- ap_n3 -->
<g id="node3" class="node">
<title>ap_n3</title>
<polygon fill="#e28f41" stroke="#e28f41" points="198.79,-333.47 141.79,-333.47 141.79,-276.47 198.79,-276.47 198.79,-333.47"/>
<text text-anchor="middle" x="170.29" y="-301.27" font-family="Times,serif" font-size="14.00">infect</text>
</g>
<!-- ap_n1&#45;&gt;ap_n3 -->
<g id="edge6" class="edge">
<title>ap_n1&#45;&gt;ap_n3</title>
<path fill="none" stroke="black" d="M86.39,-335.86C93.13,-333.22 100.18,-330.48 106.79,-327.97 114.95,-324.86 123.73,-321.59 132.05,-318.52"/>
<polygon fill="black" stroke="black" points="133.38,-321.76 141.55,-315.02 130.96,-315.19 133.38,-321.76"/>
<text text-anchor="middle" x="111.79" y="-331.77" font-family="Times,serif" font-size="14.00">1</text>
</g>
<!-- ap_n6 -->
<g id="node6" class="node">
<title>ap_n6</title>
<polygon fill="#e28f41" stroke="#e28f41" points="205.79,-422.47 134.79,-422.47 134.79,-351.47 205.79,-351.47 205.79,-422.47"/>
<text text-anchor="middle" x="170.29" y="-383.27" font-family="Times,serif" font-size="14.00">strataU</text>
</g>
<!-- ap_n1&#45;&gt;ap_n6 -->
<g id="edge7" class="edge">
<title>ap_n1&#45;&gt;ap_n6</title>
<path fill="none" stroke="black" d="M88.89,-345.84C98.15,-346.01 108,-347.1 116.79,-349.97 119.77,-350.94 122.73,-352.14 125.63,-353.51"/>
<polygon fill="black" stroke="black" points="124.23,-356.73 134.69,-358.4 127.55,-350.57 124.23,-356.73"/>
<text text-anchor="middle" x="111.79" y="-353.77" font-family="Times,serif" font-size="14.00">1</text>
</g>
<!-- leg1_n1 -->
<g id="node7" class="node">
<title>leg1_n1</title>
<ellipse fill="#6c9ac3" stroke="#6c9ac3" cx="52.4" cy="-137.97" rx="27.9" ry="27.9"/>
<text text-anchor="middle" x="52.4" y="-134.27" font-family="Times,serif" font-size="14.00">Pop</text>
</g>
<!-- ap_n1&#45;&gt;leg1_n1 -->
<g id="edge20" class="edge">
<title>ap_n1&#45;&gt;leg1_n1</title>
<path fill="none" stroke="black" stroke-dasharray="1,5" d="M52.4,-312.51C52.4,-267.01 52.4,-221.51 52.4,-176.01"/>
<polygon fill="black" stroke="black" points="55.9,-175.99 52.4,-165.99 48.9,-175.99 55.9,-175.99"/>
</g>
<!-- ap_n2 -->
<g id="node2" class="node">
<title>ap_n2</title>
<ellipse fill="#6c9ac3" stroke="#6c9ac3" cx="275.19" cy="-333.97" rx="23.3" ry="23.3"/>
<text text-anchor="middle" x="275.19" y="-330.27" font-family="Times,serif" font-size="14.00">Inf</text>
</g>
<!-- ap_n2&#45;&gt;ap_n3 -->
<g id="edge9" class="edge">
<title>ap_n2&#45;&gt;ap_n3</title>
<path fill="none" stroke="black" d="M252.41,-327.83C239.73,-324.25 223.39,-319.65 208.71,-315.51"/>
<polygon fill="black" stroke="black" points="209.44,-312.08 198.87,-312.74 207.54,-318.82 209.44,-312.08"/>
<text text-anchor="middle" x="228.79" y="-325.77" font-family="Times,serif" font-size="14.00">1</text>
</g>
<!-- ap_n4 -->
<g id="node4" class="node">
<title>ap_n4</title>
<polygon fill="#e28f41" stroke="#e28f41" points="414.59,-342.97 344.59,-342.97 344.59,-272.97 414.59,-272.97 414.59,-342.97"/>
<text text-anchor="middle" x="379.59" y="-304.27" font-family="Times,serif" font-size="14.00">disease</text>
</g>
<!-- ap_n2&#45;&gt;ap_n4 -->
<g id="edge1" class="edge">
<title>ap_n2&#45;&gt;ap_n4</title>
<path fill="none" stroke="black" d="M289.82,-315.53C296.83,-307.61 306.1,-299.2 316.59,-294.97 322.21,-292.7 328.28,-292.01 334.35,-292.32"/>
<polygon fill="black" stroke="black" points="334.1,-295.82 344.48,-293.69 335.04,-288.88 334.1,-295.82"/>
<text text-anchor="middle" x="321.59" y="-298.77" font-family="Times,serif" font-size="14.00">1</text>
</g>
<!-- ap_n5 -->
<g id="node5" class="node">
<title>ap_n5</title>
<polygon fill="#e28f41" stroke="#e28f41" points="412.09,-426.47 347.09,-426.47 347.09,-361.47 412.09,-361.47 412.09,-426.47"/>
<text text-anchor="middle" x="379.59" y="-390.27" font-family="Times,serif" font-size="14.00">strataI</text>
</g>
<!-- ap_n2&#45;&gt;ap_n5 -->
<g id="edge3" class="edge">
<title>ap_n2&#45;&gt;ap_n5</title>
<path fill="none" stroke="black" d="M295.93,-345.53C307.87,-352.53 323.53,-361.7 338.01,-370.19"/>
<polygon fill="black" stroke="black" points="336.42,-373.32 346.82,-375.35 339.96,-367.28 336.42,-373.32"/>
<text text-anchor="middle" x="321.59" y="-365.77" font-family="Times,serif" font-size="14.00">1</text>
</g>
<!-- ap_n2&#45;&gt;leg1_n1 -->
<g id="edge21" class="edge">
<title>ap_n2&#45;&gt;leg1_n1</title>
<path fill="none" stroke="black" stroke-dasharray="1,5" d="M273.39,-310.57C270.58,-243.75 258.66,-54.44 213.29,-16.97 176.23,13.66 138.8,-0.09 106.79,-35.97 89.45,-55.41 75.92,-81.5 66.82,-102.42"/>
<polygon fill="black" stroke="black" points="63.48,-101.35 62.84,-111.93 69.93,-104.06 63.48,-101.35"/>
</g>
<!-- ap_n3&#45;&gt;ap_n2 -->
<g id="edge2" class="edge">
<title>ap_n3&#45;&gt;ap_n2</title>
<path fill="none" stroke="black" d="M199.06,-297.09C210.15,-295.27 222.87,-294.89 233.79,-298.97 240.07,-301.31 246.02,-305.11 251.33,-309.37"/>
<polygon fill="black" stroke="black" points="249.3,-312.24 259.09,-316.28 253.95,-307.02 249.3,-312.24"/>
<text text-anchor="middle" x="228.79" y="-302.77" font-family="Times,serif" font-size="14.00">2</text>
</g>
<!-- leg1_n2 -->
<g id="node8" class="node">
<title>leg1_n2</title>
<polygon fill="#e28f41" stroke="#e28f41" points="198.79,-82.47 141.79,-82.47 141.79,-25.47 198.79,-25.47 198.79,-82.47"/>
<text text-anchor="middle" x="170.29" y="-50.27" font-family="Times,serif" font-size="14.00">infect</text>
</g>
<!-- ap_n3&#45;&gt;leg1_n2 -->
<g id="edge16" class="edge">
<title>ap_n3&#45;&gt;leg1_n2</title>
<path fill="none" stroke="black" stroke-dasharray="1,5" d="M141.49,-286.84C129.99,-277.9 118.02,-266 111.79,-251.97 84.59,-190.61 82.78,-161.48 111.79,-100.97 116.62,-90.89 124.78,-82.29 133.49,-75.31"/>
<polygon fill="black" stroke="black" points="135.6,-78.11 141.57,-69.36 131.45,-72.47 135.6,-78.11"/>
</g>
<!-- ap_n4&#45;&gt;ap_n2 -->
<g id="edge4" class="edge">
<title>ap_n4&#45;&gt;ap_n2</title>
<path fill="none" stroke="black" d="M344.57,-316.6C332.74,-319.61 319.53,-322.96 307.9,-325.91"/>
<polygon fill="black" stroke="black" points="306.99,-322.53 298.16,-328.39 308.71,-329.32 306.99,-322.53"/>
<text text-anchor="middle" x="321.59" y="-326.77" font-family="Times,serif" font-size="14.00">1</text>
</g>
<!-- leg1_n3 -->
<g id="node9" class="node">
<title>leg1_n3</title>
<polygon fill="#e28f41" stroke="#e28f41" points="205.29,-170.97 135.29,-170.97 135.29,-100.97 205.29,-100.97 205.29,-170.97"/>
<text text-anchor="middle" x="170.29" y="-132.27" font-family="Times,serif" font-size="14.00">disease</text>
</g>
<!-- ap_n4&#45;&gt;leg1_n3 -->
<g id="edge17" class="edge">
<title>ap_n4&#45;&gt;leg1_n3</title>
<path fill="none" stroke="black" stroke-dasharray="1,5" d="M344.31,-279.52C308.43,-249.75 252.06,-202.98 213.47,-170.96"/>
<polygon fill="black" stroke="black" points="215.46,-168.06 205.52,-164.37 210.99,-173.45 215.46,-168.06"/>
</g>
<!-- ap_n5&#45;&gt;ap_n2 -->
<g id="edge5" class="edge">
<title>ap_n5&#45;&gt;ap_n2</title>
<path fill="none" stroke="black" d="M346.86,-391.37C336.67,-389.51 325.68,-386.34 316.59,-380.97 308.29,-376.06 300.85,-368.83 294.69,-361.51"/>
<polygon fill="black" stroke="black" points="297.44,-359.34 288.52,-353.63 291.93,-363.66 297.44,-359.34"/>
<text text-anchor="middle" x="321.59" y="-388.77" font-family="Times,serif" font-size="14.00">1</text>
</g>
<!-- leg1_n4 -->
<g id="node10" class="node">
<title>leg1_n4</title>
<polygon fill="#e28f41" stroke="#e28f41" points="199.79,-248.47 140.79,-248.47 140.79,-189.47 199.79,-189.47 199.79,-248.47"/>
<text text-anchor="middle" x="170.29" y="-215.27" font-family="Times,serif" font-size="14.00">strata</text>
</g>
<!-- ap_n5&#45;&gt;leg1_n4 -->
<g id="edge18" class="edge">
<title>ap_n5&#45;&gt;leg1_n4</title>
<path fill="none" stroke="black" stroke-dasharray="1,5" d="M350.18,-361.36C348.13,-358.28 346.23,-355.13 344.59,-351.97 331.01,-325.72 345.93,-310.31 326.59,-287.97 296.45,-253.15 245.33,-235.13 210.02,-226.38"/>
<polygon fill="black" stroke="black" points="210.59,-222.92 200.06,-224.05 209,-229.74 210.59,-222.92"/>
</g>
<!-- ap_n6&#45;&gt;ap_n1 -->
<g id="edge8" class="edge">
<title>ap_n6&#45;&gt;ap_n1</title>
<path fill="none" stroke="black" d="M134.41,-375.53C122.61,-371.66 109.29,-367.29 96.91,-363.23"/>
<polygon fill="black" stroke="black" points="97.82,-359.85 87.23,-360.06 95.64,-366.5 97.82,-359.85"/>
<text text-anchor="middle" x="111.79" y="-372.77" font-family="Times,serif" font-size="14.00">1</text>
</g>
<!-- ap_n6&#45;&gt;leg1_n4 -->
<g id="edge19" class="edge">
<title>ap_n6&#45;&gt;leg1_n4</title>
<path fill="none" stroke="black" stroke-dasharray="1,5" d="M134.71,-363.23C125.51,-355.14 116.79,-345.24 111.79,-333.97 100.26,-307.96 100.02,-295.86 111.79,-269.97 116.45,-259.73 124.29,-250.75 132.74,-243.29"/>
<polygon fill="black" stroke="black" points="135.06,-245.91 140.59,-236.88 130.63,-240.49 135.06,-245.91"/>
</g>
<!-- leg1_n1&#45;&gt;leg1_n2 -->
<g id="edge10" class="edge">
<title>leg1_n1&#45;&gt;leg1_n2</title>
<path fill="none" stroke="black" d="M60.47,-111.13C67.94,-88.76 82.14,-58.32 106.79,-43.97 114.3,-39.6 123.13,-38.88 131.76,-39.97"/>
<polygon fill="black" stroke="black" points="131.19,-43.43 141.69,-41.98 132.58,-36.57 131.19,-43.43"/>
<text text-anchor="middle" x="111.79" y="-47.77" font-family="Times,serif" font-size="14.00">2</text>
</g>
<!-- leg1_n1&#45;&gt;leg1_n3 -->
<g id="edge12" class="edge">
<title>leg1_n1&#45;&gt;leg1_n3</title>
<path fill="none" stroke="black" d="M77.81,-126.14C86.72,-122.43 97.01,-118.82 106.79,-116.97 112.79,-115.83 119.03,-116.01 125.14,-117"/>
<polygon fill="black" stroke="black" points="124.71,-120.5 135.24,-119.36 126.3,-113.68 124.71,-120.5"/>
<text text-anchor="middle" x="111.79" y="-120.77" font-family="Times,serif" font-size="14.00">1</text>
</g>
<!-- leg1_n1&#45;&gt;leg1_n4 -->
<g id="edge15" class="edge">
<title>leg1_n1&#45;&gt;leg1_n4</title>
<path fill="none" stroke="black" d="M75.74,-153.58C91.71,-164.75 113.58,-180.03 132.15,-193.01"/>
<polygon fill="black" stroke="black" points="130.22,-195.93 140.42,-198.79 134.23,-190.19 130.22,-195.93"/>
<text text-anchor="middle" x="111.79" y="-183.77" font-family="Times,serif" font-size="14.00">1</text>
</g>
<!-- leg1_n2&#45;&gt;leg1_n1 -->
<g id="edge14" class="edge">
<title>leg1_n2&#45;&gt;leg1_n1</title>
<path fill="none" stroke="black" d="M141.7,-72.5C130.74,-79.97 118.08,-88.75 106.79,-96.97 98.95,-102.67 90.58,-108.98 82.85,-114.91"/>
<polygon fill="black" stroke="black" points="80.55,-112.27 74.77,-121.15 84.82,-117.81 80.55,-112.27"/>
<text text-anchor="middle" x="111.79" y="-100.77" font-family="Times,serif" font-size="14.00">2</text>
</g>
<!-- leg1_n3&#45;&gt;leg1_n1 -->
<g id="edge11" class="edge">
<title>leg1_n3&#45;&gt;leg1_n1</title>
<path fill="none" stroke="black" d="M135.23,-136.55C121.21,-136.8 104.93,-137.08 90.6,-137.32"/>
<polygon fill="black" stroke="black" points="90.51,-133.82 80.57,-137.5 90.63,-140.82 90.51,-133.82"/>
<text text-anchor="middle" x="111.79" y="-140.77" font-family="Times,serif" font-size="14.00">1</text>
</g>
<!-- leg1_n4&#45;&gt;leg1_n1 -->
<g id="edge13" class="edge">
<title>leg1_n4&#45;&gt;leg1_n1</title>
<path fill="none" stroke="black" d="M140.67,-220.04C129.45,-219.29 116.87,-216.92 106.79,-210.97 91.34,-201.84 79.04,-186.32 70.16,-171.92"/>
<polygon fill="black" stroke="black" points="73.13,-170.06 65.08,-163.18 67.08,-173.58 73.13,-170.06"/>
<text text-anchor="middle" x="111.79" y="-218.77" font-family="Times,serif" font-size="14.00">1</text>
</g>
</g>
</svg>
