<?xml version="1.0" encoding="UTF-8" standalone="no"?>
<!DOCTYPE svg PUBLIC "-//W3C//DTD SVG 1.1//EN"
 "http://www.w3.org/Graphics/SVG/1.1/DTD/svg11.dtd">
<!-- Generated by graphviz version 2.43.0 (0)
 -->
<!-- Title: G Pages: 1 -->
<svg width="569pt" height="282pt"
 viewBox="0.00 0.00 569.40 282.00" xmlns="http://www.w3.org/2000/svg" xmlns:xlink="http://www.w3.org/1999/xlink">
<g id="graph0" class="graph" transform="scale(1 1) rotate(0) translate(4 278)">
<title>G</title>
<polygon fill="white" stroke="transparent" points="-4,4 -4,-278 565.4,-278 565.4,4 -4,4"/>
<!-- n1 -->
<g id="node1" class="node">
<title>n1</title>
<ellipse fill="#6c9ac3" stroke="#6c9ac3" cx="18" cy="-73.5" rx="18" ry="18"/>
<text text-anchor="middle" x="18" y="-69.8" font-family="Times,serif" font-size="14.00">S</text>
</g>
<!-- n5 -->
<g id="node5" class="node">
<title>n5</title>
<polygon fill="#e28f41" stroke="#e28f41" points="161,-168 82,-168 82,-89 161,-89 161,-168"/>
<text text-anchor="middle" x="121.5" y="-124.8" font-family="Times,serif" font-size="14.00">infection</text>
</g>
<!-- n1&#45;&gt;n5 -->
<g id="edge7" class="edge">
<title>n1&#45;&gt;n5</title>
<path fill="none" stroke="black" d="M34.42,-81.85C44.7,-87.42 58.82,-95.08 72.65,-102.57"/>
<polygon fill="black" stroke="black" points="71.2,-105.77 81.66,-107.45 74.53,-99.61 71.2,-105.77"/>
<text text-anchor="middle" x="59" y="-101.3" font-family="Times,serif" font-size="14.00">1</text>
</g>
<!-- n8 -->
<g id="node8" class="node">
<title>n8</title>
<polygon fill="#e28f41" stroke="#e28f41" points="157,-71 86,-71 86,0 157,0 157,-71"/>
<text text-anchor="middle" x="121.5" y="-31.8" font-family="Times,serif" font-size="14.00">strataU</text>
</g>
<!-- n1&#45;&gt;n8 -->
<g id="edge12" class="edge">
<title>n1&#45;&gt;n8</title>
<path fill="none" stroke="black" d="M35.31,-67.39C46.43,-63.23 61.74,-57.5 76.31,-52.04"/>
<polygon fill="black" stroke="black" points="77.59,-55.3 85.73,-48.52 75.13,-48.75 77.59,-55.3"/>
<text text-anchor="middle" x="59" y="-64.3" font-family="Times,serif" font-size="14.00">1</text>
</g>
<!-- n2 -->
<g id="node2" class="node">
<title>n2</title>
<ellipse fill="#6c9ac3" stroke="#6c9ac3" cx="225" cy="-128.5" rx="18" ry="18"/>
<text text-anchor="middle" x="225" y="-124.8" font-family="Times,serif" font-size="14.00">I</text>
</g>
<!-- n2&#45;&gt;n5 -->
<g id="edge1" class="edge">
<title>n2&#45;&gt;n5</title>
<path fill="none" stroke="black" d="M209.28,-118.96C203.25,-115.58 196.04,-112.2 189,-110.5 183.19,-109.09 177.12,-108.92 171.1,-109.56"/>
<polygon fill="black" stroke="black" points="170.34,-106.14 161.09,-111.31 171.54,-113.03 170.34,-106.14"/>
<text text-anchor="middle" x="184" y="-114.3" font-family="Times,serif" font-size="14.00">1</text>
</g>
<!-- n6 -->
<g id="node6" class="node">
<title>n6</title>
<polygon fill="#e28f41" stroke="#e28f41" points="368,-274 289,-274 289,-195 368,-195 368,-274"/>
<text text-anchor="middle" x="328.5" y="-230.8" font-family="Times,serif" font-size="14.00">recovery</text>
</g>
<!-- n2&#45;&gt;n6 -->
<g id="edge5" class="edge">
<title>n2&#45;&gt;n6</title>
<path fill="none" stroke="black" d="M238.04,-141.08C248.97,-152.49 265.8,-170.06 281.92,-186.9"/>
<polygon fill="black" stroke="black" points="279.81,-189.76 289.25,-194.56 284.87,-184.91 279.81,-189.76"/>
<text text-anchor="middle" x="266" y="-178.3" font-family="Times,serif" font-size="14.00">1</text>
</g>
<!-- n7 -->
<g id="node7" class="node">
<title>n7</title>
<polygon fill="#e28f41" stroke="#e28f41" points="357,-177 300,-177 300,-120 357,-120 357,-177"/>
<text text-anchor="middle" x="328.5" y="-144.8" font-family="Times,serif" font-size="14.00">death</text>
</g>
<!-- n2&#45;&gt;n7 -->
<g id="edge6" class="edge">
<title>n2&#45;&gt;n7</title>
<path fill="none" stroke="black" d="M242.76,-131.8C255.63,-134.34 273.9,-137.94 290.18,-141.15"/>
<polygon fill="black" stroke="black" points="289.5,-144.58 299.99,-143.08 290.86,-137.71 289.5,-144.58"/>
<text text-anchor="middle" x="266" y="-140.3" font-family="Times,serif" font-size="14.00">1</text>
</g>
<!-- n9 -->
<g id="node9" class="node">
<title>n9</title>
<polygon fill="#e28f41" stroke="#e28f41" points="361,-102 296,-102 296,-37 361,-37 361,-102"/>
<text text-anchor="middle" x="328.5" y="-65.8" font-family="Times,serif" font-size="14.00">strataI</text>
</g>
<!-- n2&#45;&gt;n9 -->
<g id="edge13" class="edge">
<title>n2&#45;&gt;n9</title>
<path fill="none" stroke="black" d="M240.98,-119.79C253.07,-112.76 270.69,-102.52 286.87,-93.12"/>
<polygon fill="black" stroke="black" points="288.79,-96.05 295.67,-88 285.27,-90 288.79,-96.05"/>
<text text-anchor="middle" x="266" y="-111.3" font-family="Times,serif" font-size="14.00">1</text>
</g>
<!-- n3 -->
<g id="node3" class="node">
<title>n3</title>
<ellipse fill="#6c9ac3" stroke="#6c9ac3" cx="432.2" cy="-234.5" rx="18" ry="18"/>
<text text-anchor="middle" x="432.2" y="-230.8" font-family="Times,serif" font-size="14.00">R</text>
</g>
<!-- n10 -->
<g id="node10" class="node">
<title>n10</title>
<polygon fill="#e28f41" stroke="#e28f41" points="561.4,-267 496.4,-267 496.4,-202 561.4,-202 561.4,-267"/>
<text text-anchor="middle" x="528.9" y="-230.8" font-family="Times,serif" font-size="14.00">strataI</text>
</g>
<!-- n3&#45;&gt;n10 -->
<g id="edge4" class="edge">
<title>n3&#45;&gt;n10</title>
<path fill="none" stroke="black" d="M450.57,-234.5C460.5,-234.5 473.41,-234.5 485.84,-234.5"/>
<polygon fill="black" stroke="black" points="486.08,-238 496.08,-234.5 486.08,-231 486.08,-238"/>
<text text-anchor="middle" x="473.4" y="-238.3" font-family="Times,serif" font-size="14.00">1</text>
</g>
<!-- n4 -->
<g id="node4" class="node">
<title>n4</title>
<ellipse fill="#6c9ac3" stroke="#6c9ac3" cx="432.2" cy="-148.5" rx="18.4" ry="18.4"/>
<text text-anchor="middle" x="432.2" y="-144.8" font-family="Times,serif" font-size="14.00">D</text>
</g>
<!-- n5&#45;&gt;n2 -->
<g id="edge11" class="edge">
<title>n5&#45;&gt;n2</title>
<path fill="none" stroke="black" d="M161.16,-128.5C173.01,-128.5 185.79,-128.5 196.72,-128.5"/>
<polygon fill="black" stroke="black" points="196.92,-132 206.92,-128.5 196.92,-125 196.92,-132"/>
<text text-anchor="middle" x="184" y="-132.3" font-family="Times,serif" font-size="14.00">2</text>
</g>
<!-- n6&#45;&gt;n3 -->
<g id="edge2" class="edge">
<title>n6&#45;&gt;n3</title>
<path fill="none" stroke="black" d="M368.24,-234.5C380.11,-234.5 392.92,-234.5 403.86,-234.5"/>
<polygon fill="black" stroke="black" points="404.08,-238 414.08,-234.5 404.08,-231 404.08,-238"/>
<text text-anchor="middle" x="391" y="-238.3" font-family="Times,serif" font-size="14.00">1</text>
</g>
<!-- n7&#45;&gt;n4 -->
<g id="edge8" class="edge">
<title>n7&#45;&gt;n4</title>
<path fill="none" stroke="black" d="M357.02,-148.5C371.46,-148.5 389.1,-148.5 403.56,-148.5"/>
<polygon fill="black" stroke="black" points="403.88,-152 413.88,-148.5 403.88,-145 403.88,-152"/>
<text text-anchor="middle" x="391" y="-152.3" font-family="Times,serif" font-size="14.00">1</text>
</g>
<!-- n8&#45;&gt;n1 -->
<g id="edge10" class="edge">
<title>n8&#45;&gt;n1</title>
<path fill="none" stroke="black" d="M85.91,-30.94C75.29,-30.87 63.83,-32.18 54,-36.5 46.77,-39.68 40.32,-45.15 34.99,-50.92"/>
<polygon fill="black" stroke="black" points="32.14,-48.87 28.44,-58.79 37.53,-53.34 32.14,-48.87"/>
<text text-anchor="middle" x="59" y="-40.3" font-family="Times,serif" font-size="14.00">1</text>
</g>
<!-- n9&#45;&gt;n2 -->
<g id="edge3" class="edge">
<title>n9&#45;&gt;n2</title>
<path fill="none" stroke="black" d="M295.98,-65.01C284.3,-64.81 271.38,-66.44 261,-72.5 249.67,-79.12 241.47,-91.02 235.87,-102.15"/>
<polygon fill="black" stroke="black" points="232.54,-101.02 231.61,-111.58 238.92,-103.91 232.54,-101.02"/>
<text text-anchor="middle" x="266" y="-76.3" font-family="Times,serif" font-size="14.00">1</text>
</g>
<!-- n10&#45;&gt;n3 -->
<g id="edge9" class="edge">
<title>n10&#45;&gt;n3</title>
<path fill="none" stroke="black" d="M496.3,-217.57C487.35,-214.64 477.54,-213.19 468.4,-215.5 464.42,-216.5 460.41,-218.06 456.58,-219.85"/>
<polygon fill="black" stroke="black" points="454.78,-216.84 447.6,-224.63 458.07,-223.02 454.78,-216.84"/>
<text text-anchor="middle" x="473.4" y="-219.3" font-family="Times,serif" font-size="14.00">1</text>
</g>
</g>
</svg>
