<?xml version="1.0" encoding="utf-8"?>
<svg xmlns="http://www.w3.org/2000/svg" xmlns:xlink="http://www.w3.org/1999/xlink" width="600" height="400" viewBox="0 0 2400 1600">
<defs>
  <clipPath id="clip390">
    <rect x="0" y="0" width="2400" height="1600"/>
  </clipPath>
</defs>
<path clip-path="url(#clip390)" d="M0 1600 L2400 1600 L2400 0 L0 0  Z" fill="#ffffff" fill-rule="evenodd" fill-opacity="1"/>
<defs>
  <clipPath id="clip391">
    <rect x="480" y="0" width="1681" height="1600"/>
  </clipPath>
</defs>
<path clip-path="url(#clip390)" d="M184.191 1423.18 L2352.76 1423.18 L2352.76 47.2441 L184.191 47.2441  Z" fill="#ffffff" fill-rule="evenodd" fill-opacity="1"/>
<defs>
  <clipPath id="clip392">
    <rect x="184" y="47" width="2170" height="1377"/>
  </clipPath>
</defs>
<polyline clip-path="url(#clip392)" style="stroke:#000000; stroke-linecap:round; stroke-linejoin:round; stroke-width:2; stroke-opacity:0.1; fill:none" points="184.191,1423.18 184.191,47.2441 "/>
<polyline clip-path="url(#clip392)" style="stroke:#000000; stroke-linecap:round; stroke-linejoin:round; stroke-width:2; stroke-opacity:0.1; fill:none" points="907.046,1423.18 907.046,47.2441 "/>
<polyline clip-path="url(#clip392)" style="stroke:#000000; stroke-linecap:round; stroke-linejoin:round; stroke-width:2; stroke-opacity:0.1; fill:none" points="1629.9,1423.18 1629.9,47.2441 "/>
<polyline clip-path="url(#clip392)" style="stroke:#000000; stroke-linecap:round; stroke-linejoin:round; stroke-width:2; stroke-opacity:0.1; fill:none" points="2352.76,1423.18 2352.76,47.2441 "/>
<polyline clip-path="url(#clip390)" style="stroke:#000000; stroke-linecap:round; stroke-linejoin:round; stroke-width:4; stroke-opacity:1; fill:none" points="184.191,1423.18 2352.76,1423.18 "/>
<polyline clip-path="url(#clip390)" style="stroke:#000000; stroke-linecap:round; stroke-linejoin:round; stroke-width:4; stroke-opacity:1; fill:none" points="184.191,1423.18 184.191,1404.28 "/>
<polyline clip-path="url(#clip390)" style="stroke:#000000; stroke-linecap:round; stroke-linejoin:round; stroke-width:4; stroke-opacity:1; fill:none" points="907.046,1423.18 907.046,1404.28 "/>
<polyline clip-path="url(#clip390)" style="stroke:#000000; stroke-linecap:round; stroke-linejoin:round; stroke-width:4; stroke-opacity:1; fill:none" points="1629.9,1423.18 1629.9,1404.28 "/>
<polyline clip-path="url(#clip390)" style="stroke:#000000; stroke-linecap:round; stroke-linejoin:round; stroke-width:4; stroke-opacity:1; fill:none" points="2352.76,1423.18 2352.76,1404.28 "/>
<path clip-path="url(#clip390)" d="M161.575 1454.1 Q157.964 1454.1 156.135 1457.66 Q154.33 1461.2 154.33 1468.33 Q154.33 1475.44 156.135 1479.01 Q157.964 1482.55 161.575 1482.55 Q165.209 1482.55 167.015 1479.01 Q168.844 1475.44 168.844 1468.33 Q168.844 1461.2 167.015 1457.66 Q165.209 1454.1 161.575 1454.1 M161.575 1450.39 Q167.385 1450.39 170.441 1455 Q173.519 1459.58 173.519 1468.33 Q173.519 1477.06 170.441 1481.67 Q167.385 1486.25 161.575 1486.25 Q155.765 1486.25 152.686 1481.67 Q149.631 1477.06 149.631 1468.33 Q149.631 1459.58 152.686 1455 Q155.765 1450.39 161.575 1450.39 Z" fill="#000000" fill-rule="nonzero" fill-opacity="1" /><path clip-path="url(#clip390)" d="M181.737 1479.7 L186.621 1479.7 L186.621 1485.58 L181.737 1485.58 L181.737 1479.7 Z" fill="#000000" fill-rule="nonzero" fill-opacity="1" /><path clip-path="url(#clip390)" d="M206.806 1454.1 Q203.195 1454.1 201.367 1457.66 Q199.561 1461.2 199.561 1468.33 Q199.561 1475.44 201.367 1479.01 Q203.195 1482.55 206.806 1482.55 Q210.441 1482.55 212.246 1479.01 Q214.075 1475.44 214.075 1468.33 Q214.075 1461.2 212.246 1457.66 Q210.441 1454.1 206.806 1454.1 M206.806 1450.39 Q212.616 1450.39 215.672 1455 Q218.751 1459.58 218.751 1468.33 Q218.751 1477.06 215.672 1481.67 Q212.616 1486.25 206.806 1486.25 Q200.996 1486.25 197.917 1481.67 Q194.862 1477.06 194.862 1468.33 Q194.862 1459.58 197.917 1455 Q200.996 1450.39 206.806 1450.39 Z" fill="#000000" fill-rule="nonzero" fill-opacity="1" /><path clip-path="url(#clip390)" d="M878.782 1481.64 L895.101 1481.64 L895.101 1485.58 L873.157 1485.58 L873.157 1481.64 Q875.819 1478.89 880.402 1474.26 Q885.009 1469.61 886.189 1468.27 Q888.435 1465.74 889.314 1464.01 Q890.217 1462.25 890.217 1460.56 Q890.217 1457.8 888.273 1456.07 Q886.351 1454.33 883.25 1454.33 Q881.051 1454.33 878.597 1455.09 Q876.166 1455.86 873.389 1457.41 L873.389 1452.69 Q876.213 1451.55 878.666 1450.97 Q881.12 1450.39 883.157 1450.39 Q888.527 1450.39 891.722 1453.08 Q894.916 1455.77 894.916 1460.26 Q894.916 1462.39 894.106 1464.31 Q893.319 1466.2 891.213 1468.8 Q890.634 1469.47 887.532 1472.69 Q884.43 1475.88 878.782 1481.64 Z" fill="#000000" fill-rule="nonzero" fill-opacity="1" /><path clip-path="url(#clip390)" d="M904.916 1479.7 L909.8 1479.7 L909.8 1485.58 L904.916 1485.58 L904.916 1479.7 Z" fill="#000000" fill-rule="nonzero" fill-opacity="1" /><path clip-path="url(#clip390)" d="M920.032 1451.02 L938.388 1451.02 L938.388 1454.96 L924.314 1454.96 L924.314 1463.43 Q925.333 1463.08 926.351 1462.92 Q927.37 1462.73 928.388 1462.73 Q934.175 1462.73 937.555 1465.9 Q940.934 1469.08 940.934 1474.49 Q940.934 1480.07 937.462 1483.17 Q933.99 1486.25 927.671 1486.25 Q925.495 1486.25 923.226 1485.88 Q920.981 1485.51 918.573 1484.77 L918.573 1480.07 Q920.657 1481.2 922.879 1481.76 Q925.101 1482.32 927.578 1482.32 Q931.583 1482.32 933.921 1480.21 Q936.259 1478.1 936.259 1474.49 Q936.259 1470.88 933.921 1468.77 Q931.583 1466.67 927.578 1466.67 Q925.703 1466.67 923.828 1467.08 Q921.976 1467.5 920.032 1468.38 L920.032 1451.02 Z" fill="#000000" fill-rule="nonzero" fill-opacity="1" /><path clip-path="url(#clip390)" d="M1597.07 1451.02 L1615.42 1451.02 L1615.42 1454.96 L1601.35 1454.96 L1601.35 1463.43 Q1602.37 1463.08 1603.38 1462.92 Q1604.4 1462.73 1605.42 1462.73 Q1611.21 1462.73 1614.59 1465.9 Q1617.97 1469.08 1617.97 1474.49 Q1617.97 1480.07 1614.5 1483.17 Q1611.02 1486.25 1604.7 1486.25 Q1602.53 1486.25 1600.26 1485.88 Q1598.01 1485.51 1595.61 1484.77 L1595.61 1480.07 Q1597.69 1481.2 1599.91 1481.76 Q1602.13 1482.32 1604.61 1482.32 Q1608.62 1482.32 1610.95 1480.21 Q1613.29 1478.1 1613.29 1474.49 Q1613.29 1470.88 1610.95 1468.77 Q1608.62 1466.67 1604.61 1466.67 Q1602.74 1466.67 1600.86 1467.08 Q1599.01 1467.5 1597.07 1468.38 L1597.07 1451.02 Z" fill="#000000" fill-rule="nonzero" fill-opacity="1" /><path clip-path="url(#clip390)" d="M1627.18 1479.7 L1632.07 1479.7 L1632.07 1485.58 L1627.18 1485.58 L1627.18 1479.7 Z" fill="#000000" fill-rule="nonzero" fill-opacity="1" /><path clip-path="url(#clip390)" d="M1652.25 1454.1 Q1648.64 1454.1 1646.81 1457.66 Q1645 1461.2 1645 1468.33 Q1645 1475.44 1646.81 1479.01 Q1648.64 1482.55 1652.25 1482.55 Q1655.88 1482.55 1657.69 1479.01 Q1659.52 1475.44 1659.52 1468.33 Q1659.52 1461.2 1657.69 1457.66 Q1655.88 1454.1 1652.25 1454.1 M1652.25 1450.39 Q1658.06 1450.39 1661.12 1455 Q1664.19 1459.58 1664.19 1468.33 Q1664.19 1477.06 1661.12 1481.67 Q1658.06 1486.25 1652.25 1486.25 Q1646.44 1486.25 1643.36 1481.67 Q1640.31 1477.06 1640.31 1468.33 Q1640.31 1459.58 1643.36 1455 Q1646.44 1450.39 1652.25 1450.39 Z" fill="#000000" fill-rule="nonzero" fill-opacity="1" /><path clip-path="url(#clip390)" d="M2319.08 1451.02 L2341.3 1451.02 L2341.3 1453.01 L2328.75 1485.58 L2323.87 1485.58 L2335.67 1454.96 L2319.08 1454.96 L2319.08 1451.02 Z" fill="#000000" fill-rule="nonzero" fill-opacity="1" /><path clip-path="url(#clip390)" d="M2350.42 1479.7 L2355.3 1479.7 L2355.3 1485.58 L2350.42 1485.58 L2350.42 1479.7 Z" fill="#000000" fill-rule="nonzero" fill-opacity="1" /><path clip-path="url(#clip390)" d="M2365.53 1451.02 L2383.89 1451.02 L2383.89 1454.96 L2369.82 1454.96 L2369.82 1463.43 Q2370.83 1463.08 2371.85 1462.92 Q2372.87 1462.73 2373.89 1462.73 Q2379.68 1462.73 2383.06 1465.9 Q2386.44 1469.08 2386.44 1474.49 Q2386.44 1480.07 2382.96 1483.17 Q2379.49 1486.25 2373.17 1486.25 Q2371 1486.25 2368.73 1485.88 Q2366.48 1485.51 2364.08 1484.77 L2364.08 1480.07 Q2366.16 1481.2 2368.38 1481.76 Q2370.6 1482.32 2373.08 1482.32 Q2377.08 1482.32 2379.42 1480.21 Q2381.76 1478.1 2381.76 1474.49 Q2381.76 1470.88 2379.42 1468.77 Q2377.08 1466.67 2373.08 1466.67 Q2371.2 1466.67 2369.33 1467.08 Q2367.48 1467.5 2365.53 1468.38 L2365.53 1451.02 Z" fill="#000000" fill-rule="nonzero" fill-opacity="1" /><path clip-path="url(#clip390)" d="M1267.53 1522.27 L1267.53 1532.4 L1279.6 1532.4 L1279.6 1536.95 L1267.53 1536.95 L1267.53 1556.3 Q1267.53 1560.66 1268.71 1561.9 Q1269.92 1563.14 1273.58 1563.14 L1279.6 1563.14 L1279.6 1568.04 L1273.58 1568.04 Q1266.8 1568.04 1264.22 1565.53 Q1261.65 1562.98 1261.65 1556.3 L1261.65 1536.95 L1257.35 1536.95 L1257.35 1532.4 L1261.65 1532.4 L1261.65 1522.27 L1267.53 1522.27 Z" fill="#000000" fill-rule="nonzero" fill-opacity="1" /><polyline clip-path="url(#clip392)" style="stroke:#000000; stroke-linecap:round; stroke-linejoin:round; stroke-width:2; stroke-opacity:0.1; fill:none" points="184.191,1384.24 2352.76,1384.24 "/>
<polyline clip-path="url(#clip392)" style="stroke:#000000; stroke-linecap:round; stroke-linejoin:round; stroke-width:2; stroke-opacity:0.1; fill:none" points="184.191,1068.88 2352.76,1068.88 "/>
<polyline clip-path="url(#clip392)" style="stroke:#000000; stroke-linecap:round; stroke-linejoin:round; stroke-width:2; stroke-opacity:0.1; fill:none" points="184.191,753.524 2352.76,753.524 "/>
<polyline clip-path="url(#clip392)" style="stroke:#000000; stroke-linecap:round; stroke-linejoin:round; stroke-width:2; stroke-opacity:0.1; fill:none" points="184.191,438.167 2352.76,438.167 "/>
<polyline clip-path="url(#clip392)" style="stroke:#000000; stroke-linecap:round; stroke-linejoin:round; stroke-width:2; stroke-opacity:0.1; fill:none" points="184.191,122.81 2352.76,122.81 "/>
<polyline clip-path="url(#clip390)" style="stroke:#000000; stroke-linecap:round; stroke-linejoin:round; stroke-width:4; stroke-opacity:1; fill:none" points="184.191,1423.18 184.191,47.2441 "/>
<polyline clip-path="url(#clip390)" style="stroke:#000000; stroke-linecap:round; stroke-linejoin:round; stroke-width:4; stroke-opacity:1; fill:none" points="184.191,1384.24 203.088,1384.24 "/>
<polyline clip-path="url(#clip390)" style="stroke:#000000; stroke-linecap:round; stroke-linejoin:round; stroke-width:4; stroke-opacity:1; fill:none" points="184.191,1068.88 203.088,1068.88 "/>
<polyline clip-path="url(#clip390)" style="stroke:#000000; stroke-linecap:round; stroke-linejoin:round; stroke-width:4; stroke-opacity:1; fill:none" points="184.191,753.524 203.088,753.524 "/>
<polyline clip-path="url(#clip390)" style="stroke:#000000; stroke-linecap:round; stroke-linejoin:round; stroke-width:4; stroke-opacity:1; fill:none" points="184.191,438.167 203.088,438.167 "/>
<polyline clip-path="url(#clip390)" style="stroke:#000000; stroke-linecap:round; stroke-linejoin:round; stroke-width:4; stroke-opacity:1; fill:none" points="184.191,122.81 203.088,122.81 "/>
<path clip-path="url(#clip390)" d="M91.0151 1370.04 Q87.404 1370.04 85.5753 1373.6 Q83.7697 1377.14 83.7697 1384.27 Q83.7697 1391.38 85.5753 1394.94 Q87.404 1398.49 91.0151 1398.49 Q94.6493 1398.49 96.4548 1394.94 Q98.2835 1391.38 98.2835 1384.27 Q98.2835 1377.14 96.4548 1373.6 Q94.6493 1370.04 91.0151 1370.04 M91.0151 1366.33 Q96.8252 1366.33 99.8808 1370.94 Q102.959 1375.52 102.959 1384.27 Q102.959 1393 99.8808 1397.61 Q96.8252 1402.19 91.0151 1402.19 Q85.2049 1402.19 82.1262 1397.61 Q79.0707 1393 79.0707 1384.27 Q79.0707 1375.52 82.1262 1370.94 Q85.2049 1366.33 91.0151 1366.33 Z" fill="#000000" fill-rule="nonzero" fill-opacity="1" /><path clip-path="url(#clip390)" d="M111.177 1395.64 L116.061 1395.64 L116.061 1401.52 L111.177 1401.52 L111.177 1395.64 Z" fill="#000000" fill-rule="nonzero" fill-opacity="1" /><path clip-path="url(#clip390)" d="M136.246 1370.04 Q132.635 1370.04 130.807 1373.6 Q129.001 1377.14 129.001 1384.27 Q129.001 1391.38 130.807 1394.94 Q132.635 1398.49 136.246 1398.49 Q139.881 1398.49 141.686 1394.94 Q143.515 1391.38 143.515 1384.27 Q143.515 1377.14 141.686 1373.6 Q139.881 1370.04 136.246 1370.04 M136.246 1366.33 Q142.056 1366.33 145.112 1370.94 Q148.191 1375.52 148.191 1384.27 Q148.191 1393 145.112 1397.61 Q142.056 1402.19 136.246 1402.19 Q130.436 1402.19 127.357 1397.61 Q124.302 1393 124.302 1384.27 Q124.302 1375.52 127.357 1370.94 Q130.436 1366.33 136.246 1366.33 Z" fill="#000000" fill-rule="nonzero" fill-opacity="1" /><path clip-path="url(#clip390)" d="M86.0382 1082.23 L102.358 1082.23 L102.358 1086.16 L80.4133 1086.16 L80.4133 1082.23 Q83.0753 1079.47 87.6586 1074.84 Q92.2651 1070.19 93.4456 1068.85 Q95.691 1066.32 96.5706 1064.59 Q97.4734 1062.83 97.4734 1061.14 Q97.4734 1058.38 95.5289 1056.65 Q93.6076 1054.91 90.5058 1054.91 Q88.3067 1054.91 85.8531 1055.68 Q83.4225 1056.44 80.6447 1057.99 L80.6447 1053.27 Q83.4688 1052.13 85.9225 1051.55 Q88.3762 1050.98 90.4132 1050.98 Q95.7836 1050.98 98.978 1053.66 Q102.172 1056.35 102.172 1060.84 Q102.172 1062.97 101.362 1064.89 Q100.575 1066.79 98.4687 1069.38 Q97.89 1070.05 94.7882 1073.27 Q91.6864 1076.46 86.0382 1082.23 Z" fill="#000000" fill-rule="nonzero" fill-opacity="1" /><path clip-path="url(#clip390)" d="M112.172 1080.28 L117.057 1080.28 L117.057 1086.16 L112.172 1086.16 L112.172 1080.28 Z" fill="#000000" fill-rule="nonzero" fill-opacity="1" /><path clip-path="url(#clip390)" d="M127.288 1051.6 L145.644 1051.6 L145.644 1055.54 L131.57 1055.54 L131.57 1064.01 Q132.589 1063.66 133.607 1063.5 Q134.626 1063.31 135.644 1063.31 Q141.431 1063.31 144.811 1066.49 Q148.191 1069.66 148.191 1075.07 Q148.191 1080.65 144.718 1083.75 Q141.246 1086.83 134.927 1086.83 Q132.751 1086.83 130.482 1086.46 Q128.237 1086.09 125.83 1085.35 L125.83 1080.65 Q127.913 1081.79 130.135 1082.34 Q132.357 1082.9 134.834 1082.9 Q138.839 1082.9 141.177 1080.79 Q143.515 1078.68 143.515 1075.07 Q143.515 1071.46 141.177 1069.36 Q138.839 1067.25 134.834 1067.25 Q132.959 1067.25 131.084 1067.67 Q129.232 1068.08 127.288 1068.96 L127.288 1051.6 Z" fill="#000000" fill-rule="nonzero" fill-opacity="1" /><path clip-path="url(#clip390)" d="M81.0614 736.244 L99.4178 736.244 L99.4178 740.179 L85.3438 740.179 L85.3438 748.651 Q86.3623 748.304 87.3808 748.142 Q88.3993 747.957 89.4178 747.957 Q95.2049 747.957 98.5845 751.128 Q101.964 754.299 101.964 759.716 Q101.964 765.295 98.4919 768.397 Q95.0197 771.475 88.7003 771.475 Q86.5243 771.475 84.2558 771.105 Q82.0105 770.735 79.6031 769.994 L79.6031 765.295 Q81.6864 766.429 83.9086 766.985 Q86.1308 767.54 88.6077 767.54 Q92.6123 767.54 94.9502 765.434 Q97.2882 763.327 97.2882 759.716 Q97.2882 756.105 94.9502 753.999 Q92.6123 751.892 88.6077 751.892 Q86.7327 751.892 84.8577 752.309 Q83.0058 752.725 81.0614 753.605 L81.0614 736.244 Z" fill="#000000" fill-rule="nonzero" fill-opacity="1" /><path clip-path="url(#clip390)" d="M111.177 764.924 L116.061 764.924 L116.061 770.804 L111.177 770.804 L111.177 764.924 Z" fill="#000000" fill-rule="nonzero" fill-opacity="1" /><path clip-path="url(#clip390)" d="M136.246 739.323 Q132.635 739.323 130.807 742.887 Q129.001 746.429 129.001 753.559 Q129.001 760.665 130.807 764.23 Q132.635 767.772 136.246 767.772 Q139.881 767.772 141.686 764.23 Q143.515 760.665 143.515 753.559 Q143.515 746.429 141.686 742.887 Q139.881 739.323 136.246 739.323 M136.246 735.619 Q142.056 735.619 145.112 740.225 Q148.191 744.809 148.191 753.559 Q148.191 762.286 145.112 766.892 Q142.056 771.475 136.246 771.475 Q130.436 771.475 127.357 766.892 Q124.302 762.286 124.302 753.559 Q124.302 744.809 127.357 740.225 Q130.436 735.619 136.246 735.619 Z" fill="#000000" fill-rule="nonzero" fill-opacity="1" /><path clip-path="url(#clip390)" d="M80.8299 420.887 L103.052 420.887 L103.052 422.878 L90.5058 455.447 L85.6216 455.447 L97.4271 424.822 L80.8299 424.822 L80.8299 420.887 Z" fill="#000000" fill-rule="nonzero" fill-opacity="1" /><path clip-path="url(#clip390)" d="M112.172 449.567 L117.057 449.567 L117.057 455.447 L112.172 455.447 L112.172 449.567 Z" fill="#000000" fill-rule="nonzero" fill-opacity="1" /><path clip-path="url(#clip390)" d="M127.288 420.887 L145.644 420.887 L145.644 424.822 L131.57 424.822 L131.57 433.294 Q132.589 432.947 133.607 432.785 Q134.626 432.6 135.644 432.6 Q141.431 432.6 144.811 435.771 Q148.191 438.942 148.191 444.359 Q148.191 449.938 144.718 453.039 Q141.246 456.118 134.927 456.118 Q132.751 456.118 130.482 455.748 Q128.237 455.377 125.83 454.637 L125.83 449.938 Q127.913 451.072 130.135 451.627 Q132.357 452.183 134.834 452.183 Q138.839 452.183 141.177 450.077 Q143.515 447.97 143.515 444.359 Q143.515 440.748 141.177 438.641 Q138.839 436.535 134.834 436.535 Q132.959 436.535 131.084 436.952 Q129.232 437.368 127.288 438.248 L127.288 420.887 Z" fill="#000000" fill-rule="nonzero" fill-opacity="1" /><path clip-path="url(#clip390)" d="M51.6634 136.155 L59.3023 136.155 L59.3023 109.789 L50.9921 111.456 L50.9921 107.196 L59.256 105.53 L63.9319 105.53 L63.9319 136.155 L71.5707 136.155 L71.5707 140.09 L51.6634 140.09 L51.6634 136.155 Z" fill="#000000" fill-rule="nonzero" fill-opacity="1" /><path clip-path="url(#clip390)" d="M91.0151 108.608 Q87.404 108.608 85.5753 112.173 Q83.7697 115.715 83.7697 122.844 Q83.7697 129.951 85.5753 133.516 Q87.404 137.057 91.0151 137.057 Q94.6493 137.057 96.4548 133.516 Q98.2835 129.951 98.2835 122.844 Q98.2835 115.715 96.4548 112.173 Q94.6493 108.608 91.0151 108.608 M91.0151 104.905 Q96.8252 104.905 99.8808 109.511 Q102.959 114.095 102.959 122.844 Q102.959 131.571 99.8808 136.178 Q96.8252 140.761 91.0151 140.761 Q85.2049 140.761 82.1262 136.178 Q79.0707 131.571 79.0707 122.844 Q79.0707 114.095 82.1262 109.511 Q85.2049 104.905 91.0151 104.905 Z" fill="#000000" fill-rule="nonzero" fill-opacity="1" /><path clip-path="url(#clip390)" d="M111.177 134.21 L116.061 134.21 L116.061 140.09 L111.177 140.09 L111.177 134.21 Z" fill="#000000" fill-rule="nonzero" fill-opacity="1" /><path clip-path="url(#clip390)" d="M136.246 108.608 Q132.635 108.608 130.807 112.173 Q129.001 115.715 129.001 122.844 Q129.001 129.951 130.807 133.516 Q132.635 137.057 136.246 137.057 Q139.881 137.057 141.686 133.516 Q143.515 129.951 143.515 122.844 Q143.515 115.715 141.686 112.173 Q139.881 108.608 136.246 108.608 M136.246 104.905 Q142.056 104.905 145.112 109.511 Q148.191 114.095 148.191 122.844 Q148.191 131.571 145.112 136.178 Q142.056 140.761 136.246 140.761 Q130.436 140.761 127.357 136.178 Q124.302 131.571 124.302 122.844 Q124.302 114.095 127.357 109.511 Q130.436 104.905 136.246 104.905 Z" fill="#000000" fill-rule="nonzero" fill-opacity="1" /><polyline clip-path="url(#clip392)" style="stroke:#009af9; stroke-linecap:round; stroke-linejoin:round; stroke-width:4; stroke-opacity:1; fill:none" points="184.191,122.81 186.361,126.644 188.532,130.57 190.703,134.59 192.874,138.706 195.044,142.919 197.215,147.231 199.386,151.642 201.557,156.155 203.727,160.771 205.898,165.491 208.069,170.316 210.24,175.248 212.41,180.288 214.581,185.437 216.752,190.696 218.922,196.067 221.093,201.55 223.264,207.147 225.435,212.857 227.605,218.683 229.776,224.625 231.947,230.683 234.118,236.859 236.288,243.152 238.459,249.564 240.63,256.093 242.801,262.742 244.971,269.509 247.142,276.395 249.313,283.4 251.483,290.524 253.654,297.766 255.825,305.125 257.996,312.602 260.166,320.196 262.337,327.905 264.508,335.729 266.679,343.667 268.849,351.718 271.02,359.879 273.191,368.151 275.362,376.531 277.532,385.018 279.703,393.609 281.874,402.302 284.045,411.096 286.215,419.987 288.386,428.974 290.557,438.054 292.727,447.223 294.898,456.48 297.069,465.821 299.24,475.243 301.41,484.743 303.581,494.318 305.752,503.963 307.923,513.676 310.093,523.453 312.264,533.289 314.435,543.182 316.606,553.126 318.776,563.118 320.947,573.155 323.118,583.231 325.289,593.343 327.459,603.485 329.63,613.652 331.801,623.841 333.971,634.047 336.142,644.265 338.313,654.49 340.484,664.719 342.654,674.946 344.825,685.168 346.996,695.379 349.167,705.576 351.337,715.754 353.508,725.909 355.679,736.036 357.85,746.132 360.02,756.193 362.191,766.213 364.362,776.189 366.533,786.116 368.703,795.992 370.874,805.811 373.045,815.569 375.215,825.263 377.386,834.889 379.557,844.444 381.728,853.924 383.898,863.328 386.069,872.65 388.24,881.89 390.411,891.044 392.581,900.109 394.752,909.083 396.923,917.963 399.094,926.748 401.264,935.435 403.435,944.022 405.606,952.508 407.776,960.89 409.947,969.168 412.118,977.339 414.289,985.402 416.459,993.357 418.63,1001.2 420.801,1008.94 422.972,1016.56 425.142,1024.07 427.313,1031.47 429.484,1038.75 431.655,1045.92 433.825,1052.98 435.996,1059.92 438.167,1066.75 440.338,1073.46 442.508,1080.06 444.679,1086.55 446.85,1092.93 449.02,1099.19 451.191,1105.34 453.362,1111.39 455.533,1117.32 457.703,1123.14 459.874,1128.85 462.045,1134.46 464.216,1139.96 466.386,1145.35 468.557,1150.64 470.728,1155.83 472.899,1160.91 475.069,1165.89 477.24,1170.77 479.411,1175.55 481.582,1180.23 483.752,1184.81 485.923,1189.3 488.094,1193.7 490.264,1198 492.435,1202.21 494.606,1206.33 496.777,1210.36 498.947,1214.31 501.118,1218.17 503.289,1221.94 505.46,1225.63 507.63,1229.25 509.801,1232.78 511.972,1236.23 514.143,1239.61 516.313,1242.91 518.484,1246.14 520.655,1249.3 522.825,1252.38 524.996,1255.39 527.167,1258.34 529.338,1261.22 531.508,1264.03 533.679,1266.78 535.85,1269.46 538.021,1272.09 540.191,1274.65 542.362,1277.15 544.533,1279.59 546.704,1281.98 548.874,1284.31 551.045,1286.58 553.216,1288.81 555.387,1290.98 557.557,1293.09 559.728,1295.16 561.899,1297.18 564.069,1299.15 566.24,1301.08 568.411,1302.96 570.582,1304.79 572.752,1306.59 574.923,1308.34 577.094,1310.04 579.265,1311.71 581.435,1313.34 583.606,1314.93 585.777,1316.48 587.948,1318 590.118,1319.48 592.289,1320.92 594.46,1322.34 596.631,1323.71 598.801,1325.06 600.972,1326.37 603.143,1327.65 605.313,1328.9 607.484,1330.12 609.655,1331.31 611.826,1332.48 613.996,1333.61 616.167,1334.72 618.338,1335.81 620.509,1336.86 622.679,1337.9 624.85,1338.9 627.021,1339.89 629.192,1340.85 631.362,1341.79 633.533,1342.7 635.704,1343.6 637.874,1344.47 640.045,1345.32 642.216,1346.15 644.387,1346.97 646.557,1347.76 648.728,1348.54 650.899,1349.3 653.07,1350.04 655.24,1350.76 657.411,1351.47 659.582,1352.16 661.753,1352.83 663.923,1353.49 666.094,1354.13 668.265,1354.76 670.436,1355.37 672.606,1355.97 674.777,1356.56 676.948,1357.13 679.118,1357.69 681.289,1358.24 683.46,1358.77 685.631,1359.29 687.801,1359.8 689.972,1360.3 692.143,1360.78 694.314,1361.26 696.484,1361.72 698.655,1362.18 700.826,1362.62 702.997,1363.06 705.167,1363.48 707.338,1363.89 709.509,1364.3 711.68,1364.7 713.85,1365.08 716.021,1365.46 718.192,1365.83 720.362,1366.19 722.533,1366.55 724.704,1366.89 726.875,1367.23 729.045,1367.56 731.216,1367.89 733.387,1368.21 735.558,1368.52 737.728,1368.82 739.899,1369.12 742.07,1369.41 744.241,1369.69 746.411,1369.97 748.582,1370.24 750.753,1370.5 752.924,1370.76 755.094,1371.02 757.265,1371.27 759.436,1371.51 761.606,1371.75 763.777,1371.98 765.948,1372.21 768.119,1372.43 770.289,1372.65 772.46,1372.87 774.631,1373.08 776.802,1373.28 778.972,1373.48 781.143,1373.68 783.314,1373.87 785.485,1374.06 787.655,1374.24 789.826,1374.42 791.997,1374.6 794.167,1374.77 796.338,1374.94 798.509,1375.11 800.68,1375.27 802.85,1375.43 805.021,1375.59 807.192,1375.74 809.363,1375.89 811.533,1376.04 813.704,1376.18 815.875,1376.32 818.046,1376.46 820.216,1376.6 822.387,1376.73 824.558,1376.86 826.729,1376.99 828.899,1377.11 831.07,1377.23 833.241,1377.35 835.411,1377.47 837.582,1377.59 839.753,1377.7 841.924,1377.81 844.094,1377.92 846.265,1378.02 848.436,1378.13 850.607,1378.23 852.777,1378.33 854.948,1378.43 857.119,1378.52 859.29,1378.62 861.46,1378.71 863.631,1378.8 865.802,1378.89 867.973,1378.98 870.143,1379.06 872.314,1379.15 874.485,1379.23 876.655,1379.31 878.826,1379.39 880.997,1379.47 883.168,1379.54 885.338,1379.62 887.509,1379.69 889.68,1379.77 891.851,1379.84 894.021,1379.91 896.192,1379.97 898.363,1380.04 900.534,1380.11 902.704,1380.17 904.875,1380.23 907.046,1380.3 909.216,1380.36 911.387,1380.42 913.558,1380.48 915.729,1380.53 917.899,1380.59 920.07,1380.65 922.241,1380.7 924.412,1380.75 926.582,1380.81 928.753,1380.86 930.924,1380.91 933.095,1380.96 935.265,1381.01 937.436,1381.06 939.607,1381.1 941.778,1381.15 943.948,1381.2 946.119,1381.24 948.29,1381.29 950.46,1381.33 952.631,1381.37 954.802,1381.41 956.973,1381.45 959.143,1381.49 961.314,1381.53 963.485,1381.57 965.656,1381.61 967.826,1381.65 969.997,1381.69 972.168,1381.72 974.339,1381.76 976.509,1381.79 978.68,1381.83 980.851,1381.86 983.022,1381.89 985.192,1381.93 987.363,1381.96 989.534,1381.99 991.704,1382.02 993.875,1382.05 996.046,1382.08 998.217,1382.11 1000.39,1382.14 1002.56,1382.17 1004.73,1382.2 1006.9,1382.23 1009.07,1382.25 1011.24,1382.28 1013.41,1382.31 1015.58,1382.33 1017.75,1382.36 1019.92,1382.38 1022.09,1382.41 1024.27,1382.43 1026.44,1382.46 1028.61,1382.48 1030.78,1382.5 1032.95,1382.52 1035.12,1382.55 1037.29,1382.57 1039.46,1382.59 1041.63,1382.61 1043.8,1382.63 1045.97,1382.65 1048.14,1382.67 1050.31,1382.69 1052.49,1382.71 1054.66,1382.73 1056.83,1382.75 1059,1382.77 1061.17,1382.79 1063.34,1382.81 1065.51,1382.83 1067.68,1382.84 1069.85,1382.86 1072.02,1382.88 1074.19,1382.89 1076.36,1382.91 1078.53,1382.93 1080.7,1382.94 1082.88,1382.96 1085.05,1382.98 1087.22,1382.99 1089.39,1383.01 1091.56,1383.02 1093.73,1383.04 1095.9,1383.05 1098.07,1383.06 1100.24,1383.08 1102.41,1383.09 1104.58,1383.11 1106.75,1383.12 1108.92,1383.13 1111.09,1383.15 1113.27,1383.16 1115.44,1383.17 1117.61,1383.18 1119.78,1383.2 1121.95,1383.21 1124.12,1383.22 1126.29,1383.23 1128.46,1383.24 1130.63,1383.25 1132.8,1383.27 1134.97,1383.28 1137.14,1383.29 1139.31,1383.3 1141.49,1383.31 1143.66,1383.32 1145.83,1383.33 1148,1383.34 1150.17,1383.35 1152.34,1383.36 1154.51,1383.37 1156.68,1383.38 1158.85,1383.39 1161.02,1383.4 1163.19,1383.41 1165.36,1383.42 1167.53,1383.43 1169.7,1383.43 1171.88,1383.44 1174.05,1383.45 1176.22,1383.46 1178.39,1383.47 1180.56,1383.48 1182.73,1383.48 1184.9,1383.49 1187.07,1383.5 1189.24,1383.51 1191.41,1383.52 1193.58,1383.52 1195.75,1383.53 1197.92,1383.54 1200.1,1383.55 1202.27,1383.55 1204.44,1383.56 1206.61,1383.57 1208.78,1383.57 1210.95,1383.58 1213.12,1383.59 1215.29,1383.59 1217.46,1383.6 1219.63,1383.61 1221.8,1383.61 1223.97,1383.62 1226.14,1383.63 1228.31,1383.63 1230.49,1383.64 1232.66,1383.64 1234.83,1383.65 1237,1383.66 1239.17,1383.66 1241.34,1383.67 1243.51,1383.67 1245.68,1383.68 1247.85,1383.68 1250.02,1383.69 1252.19,1383.7 1254.36,1383.7 1256.53,1383.71 1258.7,1383.71 1260.88,1383.72 1263.05,1383.72 1265.22,1383.73 1267.39,1383.73 1269.56,1383.74 1271.73,1383.74 1273.9,1383.74 1276.07,1383.75 1278.24,1383.75 1280.41,1383.76 1282.58,1383.76 1284.75,1383.77 1286.92,1383.77 1289.1,1383.78 1291.27,1383.78 1293.44,1383.78 1295.61,1383.79 1297.78,1383.79 1299.95,1383.8 1302.12,1383.8 1304.29,1383.8 1306.46,1383.81 1308.63,1383.81 1310.8,1383.82 1312.97,1383.82 1315.14,1383.82 1317.31,1383.83 1319.49,1383.83 1321.66,1383.83 1323.83,1383.84 1326,1383.84 1328.17,1383.85 1330.34,1383.85 1332.51,1383.85 1334.68,1383.86 1336.85,1383.86 1339.02,1383.86 1341.19,1383.87 1343.36,1383.87 1345.53,1383.87 1347.71,1383.87 1349.88,1383.88 1352.05,1383.88 1354.22,1383.88 1356.39,1383.89 1358.56,1383.89 1360.73,1383.89 1362.9,1383.9 1365.07,1383.9 1367.24,1383.9 1369.41,1383.9 1371.58,1383.91 1373.75,1383.91 1375.92,1383.91 1378.1,1383.91 1380.27,1383.92 1382.44,1383.92 1384.61,1383.92 1386.78,1383.93 1388.95,1383.93 1391.12,1383.93 1393.29,1383.93 1395.46,1383.94 1397.63,1383.94 1399.8,1383.94 1401.97,1383.94 1404.14,1383.94 1406.32,1383.95 1408.49,1383.95 1410.66,1383.95 1412.83,1383.95 1415,1383.96 1417.17,1383.96 1419.34,1383.96 1421.51,1383.96 1423.68,1383.96 1425.85,1383.97 1428.02,1383.97 1430.19,1383.97 1432.36,1383.97 1434.53,1383.97 1436.71,1383.98 1438.88,1383.98 1441.05,1383.98 1443.22,1383.98 1445.39,1383.98 1447.56,1383.99 1449.73,1383.99 1451.9,1383.99 1454.07,1383.99 1456.24,1383.99 1458.41,1384 1460.58,1384 1462.75,1384 1464.92,1384 1467.1,1384 1469.27,1384 1471.44,1384.01 1473.61,1384.01 1475.78,1384.01 1477.95,1384.01 1480.12,1384.01 1482.29,1384.01 1484.46,1384.02 1486.63,1384.02 1488.8,1384.02 1490.97,1384.02 1493.14,1384.02 1495.32,1384.02 1497.49,1384.02 1499.66,1384.03 1501.83,1384.03 1504,1384.03 1506.17,1384.03 1508.34,1384.03 1510.51,1384.03 1512.68,1384.03 1514.85,1384.04 1517.02,1384.04 1519.19,1384.04 1521.36,1384.04 1523.53,1384.04 1525.71,1384.04 1527.88,1384.04 1530.05,1384.05 1532.22,1384.05 1534.39,1384.05 1536.56,1384.05 1538.73,1384.05 1540.9,1384.05 1543.07,1384.05 1545.24,1384.05 1547.41,1384.06 1549.58,1384.06 1551.75,1384.06 1553.93,1384.06 1556.1,1384.06 1558.27,1384.06 1560.44,1384.06 1562.61,1384.06 1564.78,1384.06 1566.95,1384.07 1569.12,1384.07 1571.29,1384.07 1573.46,1384.07 1575.63,1384.07 1577.8,1384.07 1579.97,1384.07 1582.14,1384.07 1584.32,1384.07 1586.49,1384.08 1588.66,1384.08 1590.83,1384.08 1593,1384.08 1595.17,1384.08 1597.34,1384.08 1599.51,1384.08 1601.68,1384.08 1603.85,1384.08 1606.02,1384.08 1608.19,1384.08 1610.36,1384.09 1612.53,1384.09 1614.71,1384.09 1616.88,1384.09 1619.05,1384.09 1621.22,1384.09 1623.39,1384.09 1625.56,1384.09 1627.73,1384.09 1629.9,1384.09 1632.07,1384.09 1634.24,1384.1 1636.41,1384.1 1638.58,1384.1 1640.75,1384.1 1642.93,1384.1 1645.1,1384.1 1647.27,1384.1 1649.44,1384.1 1651.61,1384.1 1653.78,1384.1 1655.95,1384.1 1658.12,1384.1 1660.29,1384.1 1662.46,1384.11 1664.63,1384.11 1666.8,1384.11 1668.97,1384.11 1671.14,1384.11 1673.32,1384.11 1675.49,1384.11 1677.66,1384.11 1679.83,1384.11 1682,1384.11 1684.17,1384.11 1686.34,1384.11 1688.51,1384.11 1690.68,1384.11 1692.85,1384.11 1695.02,1384.12 1697.19,1384.12 1699.36,1384.12 1701.54,1384.12 1703.71,1384.12 1705.88,1384.12 1708.05,1384.12 1710.22,1384.12 1712.39,1384.12 1714.56,1384.12 1716.73,1384.12 1718.9,1384.12 1721.07,1384.12 1723.24,1384.12 1725.41,1384.12 1727.58,1384.12 1729.75,1384.13 1731.93,1384.13 1734.1,1384.13 1736.27,1384.13 1738.44,1384.13 1740.61,1384.13 1742.78,1384.13 1744.95,1384.13 1747.12,1384.13 1749.29,1384.13 1751.46,1384.13 1753.63,1384.13 1755.8,1384.13 1757.97,1384.13 1760.14,1384.13 1762.32,1384.13 1764.49,1384.13 1766.66,1384.13 1768.83,1384.13 1771,1384.14 1773.17,1384.14 1775.34,1384.14 1777.51,1384.14 1779.68,1384.14 1781.85,1384.14 1784.02,1384.14 1786.19,1384.14 1788.36,1384.14 1790.54,1384.14 1792.71,1384.14 1794.88,1384.14 1797.05,1384.14 1799.22,1384.14 1801.39,1384.14 1803.56,1384.14 1805.73,1384.14 1807.9,1384.14 1810.07,1384.14 1812.24,1384.14 1814.41,1384.14 1816.58,1384.14 1818.75,1384.15 1820.93,1384.15 1823.1,1384.15 1825.27,1384.15 1827.44,1384.15 1829.61,1384.15 1831.78,1384.15 1833.95,1384.15 1836.12,1384.15 1838.29,1384.15 1840.46,1384.15 1842.63,1384.15 1844.8,1384.15 1846.97,1384.15 1849.15,1384.15 1851.32,1384.15 1853.49,1384.15 1855.66,1384.15 1857.83,1384.15 1860,1384.15 1862.17,1384.15 1864.34,1384.15 1866.51,1384.15 1868.68,1384.15 1870.85,1384.15 1873.02,1384.15 1875.19,1384.15 1877.36,1384.16 1879.54,1384.16 1881.71,1384.16 1883.88,1384.16 1886.05,1384.16 1888.22,1384.16 1890.39,1384.16 1892.56,1384.16 1894.73,1384.16 1896.9,1384.16 1899.07,1384.16 1901.24,1384.16 1903.41,1384.16 1905.58,1384.16 1907.76,1384.16 1909.93,1384.16 1912.1,1384.16 1914.27,1384.16 1916.44,1384.16 1918.61,1384.16 1920.78,1384.16 1922.95,1384.16 1925.12,1384.16 1927.29,1384.16 1929.46,1384.16 1931.63,1384.16 1933.8,1384.16 1935.97,1384.16 1938.15,1384.16 1940.32,1384.16 1942.49,1384.16 1944.66,1384.16 1946.83,1384.17 1949,1384.17 1951.17,1384.17 1953.34,1384.17 1955.51,1384.17 1957.68,1384.17 1959.85,1384.17 1962.02,1384.17 1964.19,1384.17 1966.36,1384.17 1968.54,1384.17 1970.71,1384.17 1972.88,1384.17 1975.05,1384.17 1977.22,1384.17 1979.39,1384.17 1981.56,1384.17 1983.73,1384.17 1985.9,1384.17 1988.07,1384.17 1990.24,1384.17 1992.41,1384.17 1994.58,1384.17 1996.76,1384.17 1998.93,1384.17 2001.1,1384.17 2003.27,1384.17 2005.44,1384.17 2007.61,1384.17 2009.78,1384.17 2011.95,1384.17 2014.12,1384.17 2016.29,1384.17 2018.46,1384.17 2020.63,1384.17 2022.8,1384.17 2024.97,1384.17 2027.15,1384.17 2029.32,1384.17 2031.49,1384.17 2033.66,1384.17 2035.83,1384.17 2038,1384.18 2040.17,1384.18 2042.34,1384.18 2044.51,1384.18 2046.68,1384.18 2048.85,1384.18 2051.02,1384.18 2053.19,1384.18 2055.37,1384.18 2057.54,1384.18 2059.71,1384.18 2061.88,1384.18 2064.05,1384.18 2066.22,1384.18 2068.39,1384.18 2070.56,1384.18 2072.73,1384.18 2074.9,1384.18 2077.07,1384.18 2079.24,1384.18 2081.41,1384.18 2083.58,1384.18 2085.76,1384.18 2087.93,1384.18 2090.1,1384.18 2092.27,1384.18 2094.44,1384.18 2096.61,1384.18 2098.78,1384.18 2100.95,1384.18 2103.12,1384.18 2105.29,1384.18 2107.46,1384.18 2109.63,1384.18 2111.8,1384.18 2113.97,1384.18 2116.15,1384.18 2118.32,1384.18 2120.49,1384.18 2122.66,1384.18 2124.83,1384.18 2127,1384.18 2129.17,1384.18 2131.34,1384.18 2133.51,1384.18 2135.68,1384.18 2137.85,1384.18 2140.02,1384.18 2142.19,1384.18 2144.37,1384.18 2146.54,1384.18 2148.71,1384.18 2150.88,1384.18 2153.05,1384.18 2155.22,1384.18 2157.39,1384.18 2159.56,1384.18 2161.73,1384.19 2163.9,1384.19 2166.07,1384.19 2168.24,1384.19 2170.41,1384.19 2172.58,1384.19 2174.76,1384.19 2176.93,1384.19 2179.1,1384.19 2181.27,1384.19 2183.44,1384.19 2185.61,1384.19 2187.78,1384.19 2189.95,1384.19 2192.12,1384.19 2194.29,1384.19 2196.46,1384.19 2198.63,1384.19 2200.8,1384.19 2202.98,1384.19 2205.15,1384.19 2207.32,1384.19 2209.49,1384.19 2211.66,1384.19 2213.83,1384.19 2216,1384.19 2218.17,1384.19 2220.34,1384.19 2222.51,1384.19 2224.68,1384.19 2226.85,1384.19 2229.02,1384.19 2231.19,1384.19 2233.37,1384.19 2235.54,1384.19 2237.71,1384.19 2239.88,1384.19 2242.05,1384.19 2244.22,1384.19 2246.39,1384.19 2248.56,1384.19 2250.73,1384.19 2252.9,1384.19 2255.07,1384.19 2257.24,1384.19 2259.41,1384.19 2261.58,1384.19 2263.76,1384.19 2265.93,1384.19 2268.1,1384.19 2270.27,1384.19 2272.44,1384.19 2274.61,1384.19 2276.78,1384.19 2278.95,1384.19 2281.12,1384.19 2283.29,1384.19 2285.46,1384.19 2287.63,1384.19 2289.8,1384.19 2291.98,1384.19 2294.15,1384.19 2296.32,1384.19 2298.49,1384.19 2300.66,1384.19 2302.83,1384.19 2305,1384.19 2307.17,1384.19 2309.34,1384.19 2311.51,1384.19 2313.68,1384.19 2315.85,1384.19 2318.02,1384.19 2320.19,1384.19 2322.37,1384.19 2324.54,1384.19 2326.71,1384.19 2328.88,1384.19 2331.05,1384.19 2333.22,1384.19 2335.39,1384.19 2337.56,1384.19 2339.73,1384.19 2341.9,1384.19 2344.07,1384.19 2346.24,1384.2 2348.41,1384.2 2350.59,1384.2 2352.76,1384.2 "/>
<polyline clip-path="url(#clip392)" style="stroke:#e26f46; stroke-linecap:round; stroke-linejoin:round; stroke-width:4; stroke-opacity:1; fill:none" points="184.191,1258.1 186.361,1254.65 188.532,1251.11 190.703,1247.5 192.874,1243.8 195.044,1240.01 197.215,1236.14 199.386,1232.18 201.557,1228.13 203.727,1223.99 205.898,1219.76 208.069,1215.43 210.24,1211.01 212.41,1206.5 214.581,1201.89 216.752,1197.19 218.922,1192.39 221.093,1187.49 223.264,1182.49 225.435,1177.39 227.605,1172.19 229.776,1166.9 231.947,1161.5 234.118,1156 236.288,1150.4 238.459,1144.7 240.63,1138.9 242.801,1133 244.971,1126.99 247.142,1120.89 249.313,1114.68 251.483,1108.38 253.654,1101.97 255.825,1095.47 257.996,1088.87 260.166,1082.18 262.337,1075.38 264.508,1068.5 266.679,1061.52 268.849,1054.45 271.02,1047.29 273.191,1040.04 275.362,1032.7 277.532,1025.28 279.703,1017.78 281.874,1010.2 284.045,1002.54 286.215,994.806 288.386,987 290.557,979.125 292.727,971.184 294.898,963.18 297.069,955.115 299.24,946.994 301.41,938.819 303.581,930.595 305.752,922.324 307.923,914.011 310.093,905.658 312.264,897.272 314.435,888.854 316.606,880.41 318.776,871.944 320.947,863.459 323.118,854.959 325.289,846.45 327.459,837.936 329.63,829.421 331.801,820.911 333.971,812.41 336.142,803.922 338.313,795.452 340.484,787.005 342.654,778.584 344.825,770.193 346.996,761.839 349.167,753.523 351.337,745.252 353.508,737.028 355.679,728.856 357.85,720.74 360.02,712.685 362.191,704.693 364.362,696.77 366.533,688.918 368.703,681.143 370.874,673.447 373.045,665.834 375.215,658.309 377.386,650.874 379.557,643.533 381.728,636.288 383.898,629.141 386.069,622.097 388.24,615.156 390.411,608.323 392.581,601.598 394.752,594.984 396.923,588.484 399.094,582.098 401.264,575.829 403.435,569.679 405.606,563.648 407.776,557.739 409.947,551.952 412.118,546.289 414.289,540.75 416.459,535.336 418.63,530.049 420.801,524.888 422.972,519.853 425.142,514.947 427.313,510.167 429.484,505.515 431.655,500.99 433.825,496.592 435.996,492.321 438.167,488.177 440.338,484.159 442.508,480.266 444.679,476.498 446.85,472.854 449.02,469.333 451.191,465.933 453.362,462.654 455.533,459.495 457.703,456.454 459.874,453.531 462.045,450.724 464.216,448.032 466.386,445.453 468.557,442.987 470.728,440.633 472.899,438.388 475.069,436.251 477.24,434.221 479.411,432.297 481.582,430.476 483.752,428.758 485.923,427.141 488.094,425.623 490.264,424.202 492.435,422.877 494.606,421.646 496.777,420.507 498.947,419.459 501.118,418.499 503.289,417.625 505.46,416.837 507.63,416.131 509.801,415.506 511.972,414.962 514.143,414.495 516.313,414.106 518.484,413.791 520.655,413.55 522.825,413.38 524.996,413.282 527.167,413.251 529.338,413.289 531.508,413.392 533.679,413.559 535.85,413.789 538.021,414.081 540.191,414.432 542.362,414.842 544.533,415.309 546.704,415.832 548.874,416.409 551.045,417.039 553.216,417.72 555.387,418.452 557.557,419.233 559.728,420.061 561.899,420.936 564.069,421.856 566.24,422.82 568.411,423.826 570.582,424.874 572.752,425.961 574.923,427.088 577.094,428.253 579.265,429.454 581.435,430.69 583.606,431.961 585.777,433.266 587.948,434.604 590.118,435.973 592.289,437.374 594.46,438.804 596.631,440.264 598.801,441.752 600.972,443.267 603.143,444.809 605.313,446.377 607.484,447.97 609.655,449.587 611.826,451.228 613.996,452.891 616.167,454.576 618.338,456.283 620.509,458.01 622.679,459.757 624.85,461.523 627.021,463.307 629.192,465.11 631.362,466.929 633.533,468.766 635.704,470.618 637.874,472.485 640.045,474.368 642.216,476.264 644.387,478.175 646.557,480.099 648.728,482.035 650.899,483.984 653.07,485.944 655.24,487.916 657.411,489.898 659.582,491.891 661.753,493.893 663.923,495.906 666.094,497.927 668.265,499.957 670.436,501.996 672.606,504.043 674.777,506.097 676.948,508.159 679.118,510.228 681.289,512.303 683.46,514.385 685.631,516.473 687.801,518.566 689.972,520.665 692.143,522.768 694.314,524.877 696.484,526.99 698.655,529.107 700.826,531.228 702.997,533.352 705.167,535.48 707.338,537.612 709.509,539.746 711.68,541.882 713.85,544.021 716.021,546.162 718.192,548.306 720.362,550.451 722.533,552.597 724.704,554.745 726.875,556.894 729.045,559.044 731.216,561.195 733.387,563.346 735.558,565.498 737.728,567.651 739.899,569.803 742.07,571.955 744.241,574.107 746.411,576.259 748.582,578.411 750.753,580.562 752.924,582.712 755.094,584.861 757.265,587.01 759.436,589.157 761.606,591.303 763.777,593.448 765.948,595.591 768.119,597.733 770.289,599.873 772.46,602.011 774.631,604.148 776.802,606.282 778.972,608.415 781.143,610.545 783.314,612.672 785.485,614.798 787.655,616.921 789.826,619.041 791.997,621.159 794.167,623.274 796.338,625.387 798.509,627.496 800.68,629.603 802.85,631.707 805.021,633.807 807.192,635.905 809.363,637.999 811.533,640.09 813.704,642.178 815.875,644.262 818.046,646.343 820.216,648.42 822.387,650.494 824.558,652.565 826.729,654.631 828.899,656.695 831.07,658.754 833.241,660.81 835.411,662.862 837.582,664.91 839.753,666.954 841.924,668.994 844.094,671.031 846.265,673.063 848.436,675.092 850.607,677.116 852.777,679.137 854.948,681.153 857.119,683.165 859.29,685.173 861.46,687.176 863.631,689.176 865.802,691.171 867.973,693.162 870.143,695.149 872.314,697.131 874.485,699.109 876.655,701.083 878.826,703.052 880.997,705.017 883.168,706.977 885.338,708.933 887.509,710.885 889.68,712.832 891.851,714.774 894.021,716.712 896.192,718.645 898.363,720.574 900.534,722.499 902.704,724.419 904.875,726.334 907.046,728.245 909.216,730.151 911.387,732.052 913.558,733.949 915.729,735.841 917.899,737.729 920.07,739.612 922.241,741.49 924.412,743.364 926.582,745.233 928.753,747.097 930.924,748.957 933.095,750.812 935.265,752.663 937.436,754.508 939.607,756.349 941.778,758.186 943.948,760.017 946.119,761.844 948.29,763.667 950.46,765.484 952.631,767.297 954.802,769.106 956.973,770.909 959.143,772.708 961.314,774.502 963.485,776.292 965.656,778.076 967.826,779.856 969.997,781.632 972.168,783.402 974.339,785.168 976.509,786.93 978.68,788.686 980.851,790.438 983.022,792.185 985.192,793.928 987.363,795.666 989.534,797.399 991.704,799.128 993.875,800.851 996.046,802.571 998.217,804.285 1000.39,805.995 1002.56,807.7 1004.73,809.401 1006.9,811.097 1009.07,812.788 1011.24,814.475 1013.41,816.157 1015.58,817.835 1017.75,819.508 1019.92,821.176 1022.09,822.84 1024.27,824.499 1026.44,826.153 1028.61,827.803 1030.78,829.449 1032.95,831.089 1035.12,832.726 1037.29,834.357 1039.46,835.985 1041.63,837.607 1043.8,839.225 1045.97,840.839 1048.14,842.448 1050.31,844.053 1052.49,845.653 1054.66,847.248 1056.83,848.839 1059,850.426 1061.17,852.008 1063.34,853.586 1065.51,855.159 1067.68,856.728 1069.85,858.292 1072.02,859.852 1074.19,861.408 1076.36,862.959 1078.53,864.506 1080.7,866.048 1082.88,867.586 1085.05,869.12 1087.22,870.649 1089.39,872.174 1091.56,873.694 1093.73,875.21 1095.9,876.722 1098.07,878.23 1100.24,879.733 1102.41,881.232 1104.58,882.727 1106.75,884.217 1108.92,885.703 1111.09,887.185 1113.27,888.663 1115.44,890.136 1117.61,891.605 1119.78,893.07 1121.95,894.531 1124.12,895.987 1126.29,897.439 1128.46,898.888 1130.63,900.331 1132.8,901.771 1134.97,903.207 1137.14,904.638 1139.31,906.066 1141.49,907.489 1143.66,908.908 1145.83,910.323 1148,911.734 1150.17,913.14 1152.34,914.543 1154.51,915.942 1156.68,917.336 1158.85,918.727 1161.02,920.113 1163.19,921.496 1165.36,922.874 1167.53,924.249 1169.7,925.619 1171.88,926.986 1174.05,928.348 1176.22,929.707 1178.39,931.061 1180.56,932.412 1182.73,933.759 1184.9,935.101 1187.07,936.44 1189.24,937.775 1191.41,939.106 1193.58,940.433 1195.75,941.757 1197.92,943.076 1200.1,944.392 1202.27,945.703 1204.44,947.011 1206.61,948.315 1208.78,949.615 1210.95,950.912 1213.12,952.204 1215.29,953.493 1217.46,954.778 1219.63,956.059 1221.8,957.337 1223.97,958.611 1226.14,959.881 1228.31,961.147 1230.49,962.41 1232.66,963.668 1234.83,964.924 1237,966.175 1239.17,967.423 1241.34,968.667 1243.51,969.908 1245.68,971.144 1247.85,972.378 1250.02,973.607 1252.19,974.833 1254.36,976.056 1256.53,977.274 1258.7,978.489 1260.88,979.701 1263.05,980.909 1265.22,982.113 1267.39,983.314 1269.56,984.512 1271.73,985.706 1273.9,986.896 1276.07,988.083 1278.24,989.266 1280.41,990.446 1282.58,991.622 1284.75,992.795 1286.92,993.964 1289.1,995.13 1291.27,996.293 1293.44,997.452 1295.61,998.607 1297.78,999.76 1299.95,1000.91 1302.12,1002.05 1304.29,1003.2 1306.46,1004.33 1308.63,1005.47 1310.8,1006.6 1312.97,1007.73 1315.14,1008.86 1317.31,1009.98 1319.49,1011.1 1321.66,1012.21 1323.83,1013.32 1326,1014.43 1328.17,1015.54 1330.34,1016.64 1332.51,1017.74 1334.68,1018.83 1336.85,1019.93 1339.02,1021.02 1341.19,1022.1 1343.36,1023.18 1345.53,1024.26 1347.71,1025.34 1349.88,1026.41 1352.05,1027.48 1354.22,1028.55 1356.39,1029.61 1358.56,1030.67 1360.73,1031.73 1362.9,1032.78 1365.07,1033.84 1367.24,1034.88 1369.41,1035.93 1371.58,1036.97 1373.75,1038.01 1375.92,1039.04 1378.1,1040.08 1380.27,1041.11 1382.44,1042.13 1384.61,1043.16 1386.78,1044.18 1388.95,1045.19 1391.12,1046.21 1393.29,1047.22 1395.46,1048.23 1397.63,1049.23 1399.8,1050.23 1401.97,1051.23 1404.14,1052.23 1406.32,1053.22 1408.49,1054.21 1410.66,1055.2 1412.83,1056.18 1415,1057.17 1417.17,1058.14 1419.34,1059.12 1421.51,1060.09 1423.68,1061.06 1425.85,1062.03 1428.02,1062.99 1430.19,1063.95 1432.36,1064.91 1434.53,1065.87 1436.71,1066.82 1438.88,1067.77 1441.05,1068.72 1443.22,1069.66 1445.39,1070.6 1447.56,1071.54 1449.73,1072.48 1451.9,1073.41 1454.07,1074.34 1456.24,1075.27 1458.41,1076.19 1460.58,1077.11 1462.75,1078.03 1464.92,1078.95 1467.1,1079.86 1469.27,1080.77 1471.44,1081.68 1473.61,1082.59 1475.78,1083.49 1477.95,1084.39 1480.12,1085.29 1482.29,1086.18 1484.46,1087.08 1486.63,1087.97 1488.8,1088.85 1490.97,1089.74 1493.14,1090.62 1495.32,1091.5 1497.49,1092.37 1499.66,1093.25 1501.83,1094.12 1504,1094.99 1506.17,1095.85 1508.34,1096.72 1510.51,1097.58 1512.68,1098.43 1514.85,1099.29 1517.02,1100.14 1519.19,1100.99 1521.36,1101.84 1523.53,1102.69 1525.71,1103.53 1527.88,1104.37 1530.05,1105.21 1532.22,1106.04 1534.39,1106.88 1536.56,1107.71 1538.73,1108.54 1540.9,1109.36 1543.07,1110.18 1545.24,1111 1547.41,1111.82 1549.58,1112.64 1551.75,1113.45 1553.93,1114.26 1556.1,1115.07 1558.27,1115.88 1560.44,1116.68 1562.61,1117.48 1564.78,1118.28 1566.95,1119.08 1569.12,1119.87 1571.29,1120.66 1573.46,1121.45 1575.63,1122.24 1577.8,1123.02 1579.97,1123.8 1582.14,1124.58 1584.32,1125.36 1586.49,1126.14 1588.66,1126.91 1590.83,1127.68 1593,1128.45 1595.17,1129.22 1597.34,1129.98 1599.51,1130.74 1601.68,1131.5 1603.85,1132.26 1606.02,1133.01 1608.19,1133.76 1610.36,1134.51 1612.53,1135.26 1614.71,1136.01 1616.88,1136.75 1619.05,1137.49 1621.22,1138.23 1623.39,1138.97 1625.56,1139.7 1627.73,1140.44 1629.9,1141.17 1632.07,1141.89 1634.24,1142.62 1636.41,1143.34 1638.58,1144.07 1640.75,1144.78 1642.93,1145.5 1645.1,1146.22 1647.27,1146.93 1649.44,1147.64 1651.61,1148.35 1653.78,1149.06 1655.95,1149.76 1658.12,1150.46 1660.29,1151.16 1662.46,1151.86 1664.63,1152.56 1666.8,1153.25 1668.97,1153.94 1671.14,1154.63 1673.32,1155.32 1675.49,1156.01 1677.66,1156.69 1679.83,1157.37 1682,1158.05 1684.17,1158.73 1686.34,1159.41 1688.51,1160.08 1690.68,1160.75 1692.85,1161.42 1695.02,1162.09 1697.19,1162.75 1699.36,1163.42 1701.54,1164.08 1703.71,1164.74 1705.88,1165.4 1708.05,1166.05 1710.22,1166.7 1712.39,1167.36 1714.56,1168.01 1716.73,1168.65 1718.9,1169.3 1721.07,1169.94 1723.24,1170.59 1725.41,1171.23 1727.58,1171.86 1729.75,1172.5 1731.93,1173.13 1734.1,1173.77 1736.27,1174.4 1738.44,1175.03 1740.61,1175.65 1742.78,1176.28 1744.95,1176.9 1747.12,1177.52 1749.29,1178.14 1751.46,1178.76 1753.63,1179.37 1755.8,1179.99 1757.97,1180.6 1760.14,1181.21 1762.32,1181.82 1764.49,1182.42 1766.66,1183.03 1768.83,1183.63 1771,1184.23 1773.17,1184.83 1775.34,1185.43 1777.51,1186.02 1779.68,1186.62 1781.85,1187.21 1784.02,1187.8 1786.19,1188.39 1788.36,1188.98 1790.54,1189.56 1792.71,1190.14 1794.88,1190.73 1797.05,1191.31 1799.22,1191.88 1801.39,1192.46 1803.56,1193.03 1805.73,1193.61 1807.9,1194.18 1810.07,1194.75 1812.24,1195.32 1814.41,1195.88 1816.58,1196.45 1818.75,1197.01 1820.93,1197.57 1823.1,1198.13 1825.27,1198.69 1827.44,1199.24 1829.61,1199.8 1831.78,1200.35 1833.95,1200.9 1836.12,1201.45 1838.29,1202 1840.46,1202.54 1842.63,1203.09 1844.8,1203.63 1846.97,1204.17 1849.15,1204.71 1851.32,1205.25 1853.49,1205.79 1855.66,1206.32 1857.83,1206.85 1860,1207.38 1862.17,1207.91 1864.34,1208.44 1866.51,1208.97 1868.68,1209.49 1870.85,1210.02 1873.02,1210.54 1875.19,1211.06 1877.36,1211.58 1879.54,1212.1 1881.71,1212.61 1883.88,1213.13 1886.05,1213.64 1888.22,1214.15 1890.39,1214.66 1892.56,1215.17 1894.73,1215.68 1896.9,1216.18 1899.07,1216.68 1901.24,1217.19 1903.41,1217.69 1905.58,1218.19 1907.76,1218.68 1909.93,1219.18 1912.1,1219.67 1914.27,1220.17 1916.44,1220.66 1918.61,1221.15 1920.78,1221.64 1922.95,1222.12 1925.12,1222.61 1927.29,1223.09 1929.46,1223.58 1931.63,1224.06 1933.8,1224.54 1935.97,1225.02 1938.15,1225.49 1940.32,1225.97 1942.49,1226.44 1944.66,1226.92 1946.83,1227.39 1949,1227.86 1951.17,1228.33 1953.34,1228.8 1955.51,1229.26 1957.68,1229.73 1959.85,1230.19 1962.02,1230.65 1964.19,1231.11 1966.36,1231.57 1968.54,1232.03 1970.71,1232.48 1972.88,1232.94 1975.05,1233.39 1977.22,1233.84 1979.39,1234.29 1981.56,1234.74 1983.73,1235.19 1985.9,1235.64 1988.07,1236.08 1990.24,1236.53 1992.41,1236.97 1994.58,1237.41 1996.76,1237.85 1998.93,1238.29 2001.1,1238.73 2003.27,1239.16 2005.44,1239.6 2007.61,1240.03 2009.78,1240.46 2011.95,1240.89 2014.12,1241.32 2016.29,1241.75 2018.46,1242.18 2020.63,1242.61 2022.8,1243.03 2024.97,1243.45 2027.15,1243.88 2029.32,1244.3 2031.49,1244.72 2033.66,1245.13 2035.83,1245.55 2038,1245.97 2040.17,1246.38 2042.34,1246.79 2044.51,1247.21 2046.68,1247.62 2048.85,1248.03 2051.02,1248.43 2053.19,1248.84 2055.37,1249.25 2057.54,1249.65 2059.71,1250.05 2061.88,1250.46 2064.05,1250.86 2066.22,1251.26 2068.39,1251.66 2070.56,1252.05 2072.73,1252.45 2074.9,1252.84 2077.07,1253.24 2079.24,1253.63 2081.41,1254.02 2083.58,1254.41 2085.76,1254.8 2087.93,1255.19 2090.1,1255.58 2092.27,1255.96 2094.44,1256.35 2096.61,1256.73 2098.78,1257.11 2100.95,1257.49 2103.12,1257.87 2105.29,1258.25 2107.46,1258.63 2109.63,1259.01 2111.8,1259.38 2113.97,1259.76 2116.15,1260.13 2118.32,1260.5 2120.49,1260.87 2122.66,1261.24 2124.83,1261.61 2127,1261.98 2129.17,1262.34 2131.34,1262.71 2133.51,1263.07 2135.68,1263.44 2137.85,1263.8 2140.02,1264.16 2142.19,1264.52 2144.37,1264.88 2146.54,1265.24 2148.71,1265.59 2150.88,1265.95 2153.05,1266.3 2155.22,1266.66 2157.39,1267.01 2159.56,1267.36 2161.73,1267.71 2163.9,1268.06 2166.07,1268.41 2168.24,1268.75 2170.41,1269.1 2172.58,1269.45 2174.76,1269.79 2176.93,1270.13 2179.1,1270.48 2181.27,1270.82 2183.44,1271.16 2185.61,1271.49 2187.78,1271.83 2189.95,1272.17 2192.12,1272.51 2194.29,1272.84 2196.46,1273.17 2198.63,1273.51 2200.8,1273.84 2202.98,1274.17 2205.15,1274.5 2207.32,1274.83 2209.49,1275.16 2211.66,1275.48 2213.83,1275.81 2216,1276.13 2218.17,1276.46 2220.34,1276.78 2222.51,1277.1 2224.68,1277.43 2226.85,1277.75 2229.02,1278.06 2231.19,1278.38 2233.37,1278.7 2235.54,1279.02 2237.71,1279.33 2239.88,1279.65 2242.05,1279.96 2244.22,1280.27 2246.39,1280.58 2248.56,1280.89 2250.73,1281.2 2252.9,1281.51 2255.07,1281.82 2257.24,1282.13 2259.41,1282.43 2261.58,1282.74 2263.76,1283.04 2265.93,1283.35 2268.1,1283.65 2270.27,1283.95 2272.44,1284.25 2274.61,1284.55 2276.78,1284.85 2278.95,1285.15 2281.12,1285.44 2283.29,1285.74 2285.46,1286.04 2287.63,1286.33 2289.8,1286.62 2291.98,1286.92 2294.15,1287.21 2296.32,1287.5 2298.49,1287.79 2300.66,1288.08 2302.83,1288.37 2305,1288.65 2307.17,1288.94 2309.34,1289.23 2311.51,1289.51 2313.68,1289.79 2315.85,1290.08 2318.02,1290.36 2320.19,1290.64 2322.37,1290.92 2324.54,1291.2 2326.71,1291.48 2328.88,1291.76 2331.05,1292.04 2333.22,1292.31 2335.39,1292.59 2337.56,1292.86 2339.73,1293.14 2341.9,1293.41 2344.07,1293.68 2346.24,1293.95 2348.41,1294.22 2350.59,1294.49 2352.76,1294.76 "/>
<polyline clip-path="url(#clip392)" style="stroke:#3da44d; stroke-linecap:round; stroke-linejoin:round; stroke-width:4; stroke-opacity:1; fill:none" points="184.191,1384.24 186.361,1383.85 188.532,1383.46 190.703,1383.05 192.874,1382.64 195.044,1382.21 197.215,1381.77 199.386,1381.32 201.557,1380.86 203.727,1380.38 205.898,1379.9 208.069,1379.4 210.24,1378.88 212.41,1378.36 214.581,1377.81 216.752,1377.26 218.922,1376.69 221.093,1376.11 223.264,1375.51 225.435,1374.9 227.605,1374.27 229.776,1373.62 231.947,1372.96 234.118,1372.28 236.288,1371.59 238.459,1370.88 240.63,1370.15 242.801,1369.41 244.971,1368.64 247.142,1367.86 249.313,1367.06 251.483,1366.24 253.654,1365.4 255.825,1364.55 257.996,1363.67 260.166,1362.77 262.337,1361.86 264.508,1360.92 266.679,1359.96 268.849,1358.98 271.02,1357.98 273.191,1356.96 275.362,1355.91 277.532,1354.84 279.703,1353.75 281.874,1352.64 284.045,1351.51 286.215,1350.35 288.386,1349.17 290.557,1347.96 292.727,1346.74 294.898,1345.48 297.069,1344.21 299.24,1342.91 301.41,1341.58 303.581,1340.23 305.752,1338.86 307.923,1337.46 310.093,1336.03 312.264,1334.58 314.435,1333.11 316.606,1331.61 318.776,1330.08 320.947,1328.53 323.118,1326.95 325.289,1325.35 327.459,1323.72 329.63,1322.07 331.801,1320.39 333.971,1318.69 336.142,1316.96 338.313,1315.2 340.484,1313.42 342.654,1311.61 344.825,1309.78 346.996,1307.93 349.167,1306.04 351.337,1304.14 353.508,1302.21 355.679,1300.25 357.85,1298.27 360.02,1296.27 362.191,1294.24 364.362,1292.19 366.533,1290.11 368.703,1288.01 370.874,1285.89 373.045,1283.74 375.215,1281.57 377.386,1279.38 379.557,1277.17 381.728,1274.93 383.898,1272.67 386.069,1270.4 388.24,1268.1 390.411,1265.78 392.581,1263.44 394.752,1261.08 396.923,1258.7 399.094,1256.3 401.264,1253.88 403.435,1251.44 405.606,1248.99 407.776,1246.51 409.947,1244.02 412.118,1241.52 414.289,1238.99 416.459,1236.45 418.63,1233.89 420.801,1231.32 422.972,1228.73 425.142,1226.13 427.313,1223.51 429.484,1220.88 431.655,1218.23 433.825,1215.57 435.996,1212.9 438.167,1210.22 440.338,1207.52 442.508,1204.81 444.679,1202.09 446.85,1199.36 449.02,1196.62 451.191,1193.87 453.362,1191.1 455.533,1188.33 457.703,1185.55 459.874,1182.76 462.045,1179.96 464.216,1177.15 466.386,1174.34 468.557,1171.52 470.728,1168.69 472.899,1165.85 475.069,1163 477.24,1160.15 479.411,1157.3 481.582,1154.44 483.752,1151.57 485.923,1148.7 488.094,1145.82 490.264,1142.94 492.435,1140.06 494.606,1137.17 496.777,1134.27 498.947,1131.38 501.118,1128.48 503.289,1125.58 505.46,1122.67 507.63,1119.77 509.801,1116.86 511.972,1113.95 514.143,1111.04 516.313,1108.13 518.484,1105.21 520.655,1102.3 522.825,1099.38 524.996,1096.47 527.167,1093.55 529.338,1090.64 531.508,1087.72 533.679,1084.81 535.85,1081.89 538.021,1078.98 540.191,1076.06 542.362,1073.15 544.533,1070.24 546.704,1067.33 548.874,1064.43 551.045,1061.52 553.216,1058.62 555.387,1055.72 557.557,1052.82 559.728,1049.92 561.899,1047.02 564.069,1044.13 566.24,1041.24 568.411,1038.36 570.582,1035.48 572.752,1032.6 574.923,1029.72 577.094,1026.85 579.265,1023.98 581.435,1021.11 583.606,1018.25 585.777,1015.39 587.948,1012.54 590.118,1009.69 592.289,1006.84 594.46,1004 596.631,1001.17 598.801,998.334 600.972,995.506 603.143,992.683 605.313,989.864 607.484,987.05 609.655,984.241 611.826,981.437 613.996,978.638 616.167,975.843 618.338,973.054 620.509,970.27 622.679,967.491 624.85,964.717 627.021,961.949 629.192,959.186 631.362,956.429 633.533,953.676 635.704,950.93 637.874,948.189 640.045,945.454 642.216,942.724 644.387,940.001 646.557,937.282 648.728,934.57 650.899,931.864 653.07,929.163 655.24,926.469 657.411,923.78 659.582,921.097 661.753,918.421 663.923,915.75 666.094,913.086 668.265,910.427 670.436,907.775 672.606,905.128 674.777,902.488 676.948,899.854 679.118,897.227 681.289,894.605 683.46,891.99 685.631,889.381 687.801,886.778 689.972,884.182 692.143,881.591 694.314,879.007 696.484,876.43 698.655,873.859 700.826,871.294 702.997,868.735 705.167,866.183 707.338,863.638 709.509,861.098 711.68,858.566 713.85,856.039 716.021,853.519 718.192,851.006 720.362,848.499 722.533,845.998 724.704,843.504 726.875,841.016 729.045,838.535 731.216,836.06 733.387,833.591 735.558,831.13 737.728,828.674 739.899,826.225 742.07,823.783 744.241,821.347 746.411,818.917 748.582,816.494 750.753,814.077 752.924,811.667 755.094,809.263 757.265,806.866 759.436,804.475 761.606,802.091 763.777,799.713 765.948,797.341 768.119,794.976 770.289,792.618 772.46,790.265 774.631,787.919 776.802,785.58 778.972,783.247 781.143,780.92 783.314,778.6 785.485,776.286 787.655,773.979 789.826,771.678 791.997,769.383 794.167,767.095 796.338,764.813 798.509,762.537 800.68,760.268 802.85,758.005 805.021,755.748 807.192,753.498 809.363,751.253 811.533,749.016 813.704,746.784 815.875,744.559 818.046,742.34 820.216,740.127 822.387,737.92 824.558,735.72 826.729,733.526 828.899,731.338 831.07,729.156 833.241,726.981 835.411,724.812 837.582,722.648 839.753,720.491 841.924,718.34 844.094,716.196 846.265,714.057 848.436,711.924 850.607,709.798 852.777,707.677 854.948,705.563 857.119,703.454 859.29,701.352 861.46,699.256 863.631,697.166 865.802,695.081 867.973,693.003 870.143,690.931 872.314,688.864 874.485,686.804 876.655,684.749 878.826,682.701 880.997,680.658 883.168,678.621 885.338,676.59 887.509,674.565 889.68,672.546 891.851,670.533 894.021,668.525 896.192,666.524 898.363,664.528 900.534,662.538 902.704,660.553 904.875,658.575 907.046,656.602 909.216,654.635 911.387,652.674 913.558,650.718 915.729,648.768 917.899,646.824 920.07,644.885 922.241,642.952 924.412,641.025 926.582,639.103 928.753,637.187 930.924,635.276 933.095,633.371 935.265,631.472 937.436,629.578 939.607,627.69 941.778,625.807 943.948,623.93 946.119,622.058 948.29,620.192 950.46,618.331 952.631,616.475 954.802,614.625 956.973,612.781 959.143,610.942 961.314,609.108 963.485,607.28 965.656,605.457 967.826,603.639 969.997,601.827 972.168,600.02 974.339,598.218 976.509,596.422 978.68,594.631 980.851,592.845 983.022,591.064 985.192,589.289 987.363,587.519 989.534,585.754 991.704,583.994 993.875,582.24 996.046,580.49 998.217,578.746 1000.39,577.007 1002.56,575.273 1004.73,573.545 1006.9,571.821 1009.07,570.102 1011.24,568.389 1013.41,566.68 1015.58,564.977 1017.75,563.278 1019.92,561.585 1022.09,559.897 1024.27,558.213 1026.44,556.535 1028.61,554.861 1030.78,553.193 1032.95,551.529 1035.12,549.871 1037.29,548.217 1039.46,546.568 1041.63,544.924 1043.8,543.285 1045.97,541.651 1048.14,540.021 1050.31,538.397 1052.49,536.777 1054.66,535.162 1056.83,533.552 1059,531.946 1061.17,530.346 1063.34,528.75 1065.51,527.159 1067.68,525.572 1069.85,523.99 1072.02,522.413 1074.19,520.841 1076.36,519.273 1078.53,517.71 1080.7,516.152 1082.88,514.598 1085.05,513.049 1087.22,511.504 1089.39,509.964 1091.56,508.429 1093.73,506.898 1095.9,505.371 1098.07,503.85 1100.24,502.332 1102.41,500.819 1104.58,499.311 1106.75,497.807 1108.92,496.308 1111.09,494.813 1113.27,493.323 1115.44,491.837 1117.61,490.355 1119.78,488.878 1121.95,487.405 1124.12,485.937 1126.29,484.473 1128.46,483.013 1130.63,481.558 1132.8,480.107 1134.97,478.66 1137.14,477.218 1139.31,475.78 1141.49,474.346 1143.66,472.916 1145.83,471.491 1148,470.07 1150.17,468.653 1152.34,467.24 1154.51,465.832 1156.68,464.428 1158.85,463.028 1161.02,461.632 1163.19,460.24 1165.36,458.853 1167.53,457.469 1169.7,456.09 1171.88,454.715 1174.05,453.344 1176.22,451.977 1178.39,450.614 1180.56,449.255 1182.73,447.9 1184.9,446.549 1187.07,445.203 1189.24,443.86 1191.41,442.521 1193.58,441.186 1195.75,439.856 1197.92,438.529 1200.1,437.206 1202.27,435.887 1204.44,434.572 1206.61,433.261 1208.78,431.954 1210.95,430.651 1213.12,429.351 1215.29,428.056 1217.46,426.764 1219.63,425.477 1221.8,424.193 1223.97,422.913 1226.14,421.636 1228.31,420.364 1230.49,419.095 1232.66,417.83 1234.83,416.569 1237,415.312 1239.17,414.058 1241.34,412.809 1243.51,411.563 1245.68,410.32 1247.85,409.082 1250.02,407.847 1252.19,406.615 1254.36,405.388 1256.53,404.164 1258.7,402.943 1260.88,401.727 1263.05,400.514 1265.22,399.304 1267.39,398.099 1269.56,396.896 1271.73,395.698 1273.9,394.503 1276.07,393.311 1278.24,392.123 1280.41,390.939 1282.58,389.758 1284.75,388.581 1286.92,387.407 1289.1,386.237 1291.27,385.07 1293.44,383.907 1295.61,382.747 1297.78,381.591 1299.95,380.438 1302.12,379.289 1304.29,378.143 1306.46,377 1308.63,375.861 1310.8,374.725 1312.97,373.593 1315.14,372.464 1317.31,371.338 1319.49,370.216 1321.66,369.097 1323.83,367.982 1326,366.87 1328.17,365.761 1330.34,364.655 1332.51,363.553 1334.68,362.454 1336.85,361.358 1339.02,360.266 1341.19,359.177 1343.36,358.091 1345.53,357.008 1347.71,355.929 1349.88,354.853 1352.05,353.78 1354.22,352.71 1356.39,351.644 1358.56,350.58 1360.73,349.52 1362.9,348.463 1365.07,347.409 1367.24,346.358 1369.41,345.311 1371.58,344.267 1373.75,343.225 1375.92,342.187 1378.1,341.152 1380.27,340.12 1382.44,339.091 1384.61,338.065 1386.78,337.043 1388.95,336.023 1391.12,335.006 1393.29,333.993 1395.46,332.982 1397.63,331.975 1399.8,330.97 1401.97,329.969 1404.14,328.97 1406.32,327.974 1408.49,326.982 1410.66,325.992 1412.83,325.006 1415,324.022 1417.17,323.041 1419.34,322.063 1421.51,321.089 1423.68,320.117 1425.85,319.148 1428.02,318.181 1430.19,317.218 1432.36,316.258 1434.53,315.3 1436.71,314.346 1438.88,313.394 1441.05,312.445 1443.22,311.499 1445.39,310.556 1447.56,309.615 1449.73,308.678 1451.9,307.743 1454.07,306.811 1456.24,305.881 1458.41,304.955 1460.58,304.031 1462.75,303.11 1464.92,302.192 1467.1,301.277 1469.27,300.364 1471.44,299.454 1473.61,298.547 1475.78,297.643 1477.95,296.741 1480.12,295.842 1482.29,294.945 1484.46,294.052 1486.63,293.161 1488.8,292.272 1490.97,291.386 1493.14,290.503 1495.32,289.623 1497.49,288.745 1499.66,287.87 1501.83,286.997 1504,286.128 1506.17,285.26 1508.34,284.396 1510.51,283.533 1512.68,282.674 1514.85,281.817 1517.02,280.962 1519.19,280.111 1521.36,279.261 1523.53,278.415 1525.71,277.57 1527.88,276.729 1530.05,275.889 1532.22,275.053 1534.39,274.219 1536.56,273.387 1538.73,272.558 1540.9,271.731 1543.07,270.907 1545.24,270.085 1547.41,269.266 1549.58,268.449 1551.75,267.635 1553.93,266.823 1556.1,266.013 1558.27,265.206 1560.44,264.401 1562.61,263.599 1564.78,262.799 1566.95,262.002 1569.12,261.207 1571.29,260.414 1573.46,259.623 1575.63,258.835 1577.8,258.05 1579.97,257.267 1582.14,256.486 1584.32,255.707 1586.49,254.931 1588.66,254.157 1590.83,253.385 1593,252.616 1595.17,251.849 1597.34,251.084 1599.51,250.322 1601.68,249.561 1603.85,248.804 1606.02,248.048 1608.19,247.295 1610.36,246.543 1612.53,245.795 1614.71,245.048 1616.88,244.304 1619.05,243.561 1621.22,242.821 1623.39,242.084 1625.56,241.348 1627.73,240.615 1629.9,239.884 1632.07,239.155 1634.24,238.428 1636.41,237.704 1638.58,236.981 1640.75,236.261 1642.93,235.543 1645.1,234.827 1647.27,234.113 1649.44,233.402 1651.61,232.692 1653.78,231.985 1655.95,231.28 1658.12,230.576 1660.29,229.875 1662.46,229.177 1664.63,228.48 1666.8,227.785 1668.97,227.092 1671.14,226.402 1673.32,225.713 1675.49,225.027 1677.66,224.342 1679.83,223.66 1682,222.98 1684.17,222.301 1686.34,221.625 1688.51,220.951 1690.68,220.279 1692.85,219.609 1695.02,218.941 1697.19,218.274 1699.36,217.61 1701.54,216.948 1703.71,216.288 1705.88,215.63 1708.05,214.974 1710.22,214.319 1712.39,213.667 1714.56,213.017 1716.73,212.368 1718.9,211.722 1721.07,211.077 1723.24,210.435 1725.41,209.794 1727.58,209.155 1729.75,208.519 1731.93,207.884 1734.1,207.251 1736.27,206.62 1738.44,205.99 1740.61,205.363 1742.78,204.738 1744.95,204.114 1747.12,203.492 1749.29,202.873 1751.46,202.255 1753.63,201.639 1755.8,201.024 1757.97,200.412 1760.14,199.801 1762.32,199.193 1764.49,198.586 1766.66,197.981 1768.83,197.377 1771,196.776 1773.17,196.176 1775.34,195.578 1777.51,194.982 1779.68,194.388 1781.85,193.795 1784.02,193.204 1786.19,192.616 1788.36,192.028 1790.54,191.443 1792.71,190.859 1794.88,190.277 1797.05,189.697 1799.22,189.119 1801.39,188.542 1803.56,187.967 1805.73,187.394 1807.9,186.822 1810.07,186.252 1812.24,185.684 1814.41,185.118 1816.58,184.553 1818.75,183.99 1820.93,183.428 1823.1,182.869 1825.27,182.311 1827.44,181.754 1829.61,181.2 1831.78,180.647 1833.95,180.095 1836.12,179.546 1838.29,178.998 1840.46,178.451 1842.63,177.906 1844.8,177.363 1846.97,176.822 1849.15,176.282 1851.32,175.744 1853.49,175.207 1855.66,174.672 1857.83,174.139 1860,173.607 1862.17,173.076 1864.34,172.548 1866.51,172.021 1868.68,171.495 1870.85,170.971 1873.02,170.449 1875.19,169.928 1877.36,169.409 1879.54,168.891 1881.71,168.375 1883.88,167.86 1886.05,167.347 1888.22,166.836 1890.39,166.326 1892.56,165.817 1894.73,165.31 1896.9,164.805 1899.07,164.301 1901.24,163.799 1903.41,163.298 1905.58,162.799 1907.76,162.301 1909.93,161.804 1912.1,161.309 1914.27,160.816 1916.44,160.324 1918.61,159.833 1920.78,159.344 1922.95,158.857 1925.12,158.371 1927.29,157.886 1929.46,157.403 1931.63,156.921 1933.8,156.441 1935.97,155.962 1938.15,155.485 1940.32,155.009 1942.49,154.534 1944.66,154.061 1946.83,153.589 1949,153.119 1951.17,152.65 1953.34,152.182 1955.51,151.716 1957.68,151.252 1959.85,150.788 1962.02,150.326 1964.19,149.866 1966.36,149.407 1968.54,148.949 1970.71,148.493 1972.88,148.037 1975.05,147.584 1977.22,147.131 1979.39,146.681 1981.56,146.231 1983.73,145.783 1985.9,145.336 1988.07,144.89 1990.24,144.446 1992.41,144.003 1994.58,143.561 1996.76,143.121 1998.93,142.682 2001.1,142.245 2003.27,141.808 2005.44,141.373 2007.61,140.94 2009.78,140.507 2011.95,140.076 2014.12,139.646 2016.29,139.218 2018.46,138.79 2020.63,138.364 2022.8,137.94 2024.97,137.516 2027.15,137.094 2029.32,136.673 2031.49,136.254 2033.66,135.835 2035.83,135.418 2038,135.002 2040.17,134.588 2042.34,134.174 2044.51,133.762 2046.68,133.351 2048.85,132.942 2051.02,132.533 2053.19,132.126 2055.37,131.72 2057.54,131.315 2059.71,130.912 2061.88,130.509 2064.05,130.108 2066.22,129.708 2068.39,129.31 2070.56,128.912 2072.73,128.516 2074.9,128.121 2077.07,127.727 2079.24,127.334 2081.41,126.942 2083.58,126.552 2085.76,126.162 2087.93,125.774 2090.1,125.387 2092.27,125.002 2094.44,124.617 2096.61,124.233 2098.78,123.851 2100.95,123.47 2103.12,123.09 2105.29,122.711 2107.46,122.333 2109.63,121.957 2111.8,121.581 2113.97,121.207 2116.15,120.833 2118.32,120.461 2120.49,120.09 2122.66,119.72 2124.83,119.352 2127,118.984 2129.17,118.617 2131.34,118.252 2133.51,117.887 2135.68,117.524 2137.85,117.162 2140.02,116.801 2142.19,116.441 2144.37,116.082 2146.54,115.724 2148.71,115.367 2150.88,115.011 2153.05,114.656 2155.22,114.303 2157.39,113.95 2159.56,113.599 2161.73,113.248 2163.9,112.899 2166.07,112.55 2168.24,112.203 2170.41,111.857 2172.58,111.512 2174.76,111.167 2176.93,110.824 2179.1,110.482 2181.27,110.141 2183.44,109.801 2185.61,109.462 2187.78,109.124 2189.95,108.787 2192.12,108.451 2194.29,108.116 2196.46,107.782 2198.63,107.449 2200.8,107.117 2202.98,106.785 2205.15,106.455 2207.32,106.126 2209.49,105.798 2211.66,105.471 2213.83,105.145 2216,104.82 2218.17,104.496 2220.34,104.173 2222.51,103.851 2224.68,103.529 2226.85,103.209 2229.02,102.89 2231.19,102.571 2233.37,102.254 2235.54,101.937 2237.71,101.622 2239.88,101.307 2242.05,100.994 2244.22,100.681 2246.39,100.369 2248.56,100.059 2250.73,99.7487 2252.9,99.4397 2255.07,99.1317 2257.24,98.8246 2259.41,98.5184 2261.58,98.2132 2263.76,97.9088 2265.93,97.6054 2268.1,97.3029 2270.27,97.0012 2272.44,96.7005 2274.61,96.4007 2276.78,96.1018 2278.95,95.8038 2281.12,95.5067 2283.29,95.2105 2285.46,94.9151 2287.63,94.6207 2289.8,94.3271 2291.98,94.0344 2294.15,93.7426 2296.32,93.4516 2298.49,93.1616 2300.66,92.8724 2302.83,92.584 2305,92.2965 2307.17,92.0099 2309.34,91.7242 2311.51,91.4393 2313.68,91.1553 2315.85,90.8721 2318.02,90.5897 2320.19,90.3082 2322.37,90.0276 2324.54,89.7478 2326.71,89.4688 2328.88,89.1907 2331.05,88.9134 2333.22,88.6369 2335.39,88.3613 2337.56,88.0864 2339.73,87.8125 2341.9,87.5393 2344.07,87.2669 2346.24,86.9954 2348.41,86.7247 2350.59,86.4548 2352.76,86.1857 "/>
<path clip-path="url(#clip390)" d="M256.476 300.469 L500.254 300.469 L500.254 93.1086 L256.476 93.1086  Z" fill="#ffffff" fill-rule="evenodd" fill-opacity="1"/>
<polyline clip-path="url(#clip390)" style="stroke:#000000; stroke-linecap:round; stroke-linejoin:round; stroke-width:4; stroke-opacity:1; fill:none" points="256.476,300.469 500.254,300.469 500.254,93.1086 256.476,93.1086 256.476,300.469 "/>
<polyline clip-path="url(#clip390)" style="stroke:#009af9; stroke-linecap:round; stroke-linejoin:round; stroke-width:4; stroke-opacity:1; fill:none" points="280.571,144.949 425.142,144.949 "/>
<path clip-path="url(#clip390)" d="M471.483 128.803 L471.483 133.363 Q468.821 132.09 466.46 131.465 Q464.099 130.84 461.9 130.84 Q458.08 130.84 455.997 132.321 Q453.937 133.803 453.937 136.534 Q453.937 138.826 455.302 140.007 Q456.691 141.164 460.534 141.882 L463.358 142.46 Q468.589 143.456 471.066 145.979 Q473.566 148.479 473.566 152.692 Q473.566 157.715 470.187 160.307 Q466.83 162.9 460.325 162.9 Q457.872 162.9 455.094 162.344 Q452.339 161.789 449.376 160.701 L449.376 155.886 Q452.224 157.483 454.955 158.293 Q457.687 159.104 460.325 159.104 Q464.33 159.104 466.506 157.53 Q468.682 155.956 468.682 153.039 Q468.682 150.493 467.108 149.057 Q465.557 147.622 461.992 146.905 L459.145 146.349 Q453.913 145.307 451.575 143.085 Q449.238 140.863 449.238 136.905 Q449.238 132.321 452.455 129.682 Q455.696 127.044 461.367 127.044 Q463.798 127.044 466.321 127.483 Q468.844 127.923 471.483 128.803 Z" fill="#000000" fill-rule="nonzero" fill-opacity="1" /><polyline clip-path="url(#clip390)" style="stroke:#e26f46; stroke-linecap:round; stroke-linejoin:round; stroke-width:4; stroke-opacity:1; fill:none" points="280.571,196.789 425.142,196.789 "/>
<path clip-path="url(#clip390)" d="M449.238 179.509 L453.913 179.509 L453.913 214.069 L449.238 214.069 L449.238 179.509 Z" fill="#000000" fill-rule="nonzero" fill-opacity="1" /><polyline clip-path="url(#clip390)" style="stroke:#3da44d; stroke-linecap:round; stroke-linejoin:round; stroke-width:4; stroke-opacity:1; fill:none" points="280.571,248.629 425.142,248.629 "/>
<path clip-path="url(#clip390)" d="M465.626 249.705 Q467.131 250.214 468.543 251.881 Q469.978 253.548 471.413 256.464 L476.159 265.909 L471.136 265.909 L466.714 257.043 Q465.001 253.571 463.381 252.436 Q461.784 251.302 459.006 251.302 L453.913 251.302 L453.913 265.909 L449.238 265.909 L449.238 231.349 L459.793 231.349 Q465.719 231.349 468.636 233.825 Q471.552 236.302 471.552 241.302 Q471.552 244.566 470.024 246.719 Q468.52 248.872 465.626 249.705 M453.913 235.191 L453.913 247.46 L459.793 247.46 Q463.173 247.46 464.886 245.909 Q466.622 244.335 466.622 241.302 Q466.622 238.27 464.886 236.742 Q463.173 235.191 459.793 235.191 L453.913 235.191 Z" fill="#000000" fill-rule="nonzero" fill-opacity="1" /></svg>
