<?xml version="1.0" encoding="UTF-8" standalone="no"?>
<!DOCTYPE svg PUBLIC "-//W3C//DTD SVG 1.1//EN"
 "http://www.w3.org/Graphics/SVG/1.1/DTD/svg11.dtd">
<!-- Generated by graphviz version 2.44.1 (0)
 -->
<!-- Title: G Pages: 1 -->
<svg width="336pt" height="1359pt"
 viewBox="0.00 0.00 336.00 1359.00" xmlns="http://www.w3.org/2000/svg" xmlns:xlink="http://www.w3.org/1999/xlink">
<g id="graph0" class="graph" transform="scale(1 1) rotate(0) translate(4 1355)">
<title>G</title>
<polygon fill="white" stroke="transparent" points="-4,4 -4,-1355 332,-1355 332,4 -4,4"/>
<!-- n1p1 -->
<!-- n1p2 -->
<!-- n1p1&#45;&gt;n1p2 -->
<!-- n2p1 -->
<!-- n1p1&#45;&gt;n2p1 -->
<!-- S -->
<g id="e1" class="edge">
<title>n1p1:e&#45;&gt;n2p1:w</title>
<path fill="none" stroke="black" d="M1,-1210C40.05,-1210 -10.78,-1270.74 19,-1296 122.17,-1383.49 188.29,-1310.89 321.82,-1309.04"/>
<polygon fill="black" stroke="black" points="322.01,-1310.78 327,-1309 321.99,-1307.28 322.01,-1310.78"/>
<text text-anchor="middle" x="167.5" y="-1339.8" font-family="Serif" font-size="14.00">S</text>
</g>
<!-- n3 -->
<!-- exposure -->
<g id="n3" class="node">
<title>n3</title>
<polygon fill="none" stroke="black" points="64,-975 64,-1023 129,-1023 129,-975 64,-975"/>
<text text-anchor="start" x="69" y="-995.3" font-family="Serif" font-size="14.00">exposure</text>
</g>
<!-- n1p1&#45;&gt;n3 -->
<!-- S -->
<g id="e17" class="edge">
<title>n1p1:e&#45;&gt;n3:w</title>
<path fill="none" stroke="black" d="M1,-1210C24.33,-1210 25.07,-1191.12 35,-1170 49.49,-1139.18 29.37,-1023.61 57.98,-1011.95"/>
<polygon fill="black" stroke="black" points="58.41,-1013.65 63,-1011 57.76,-1010.21 58.41,-1013.65"/>
<text text-anchor="middle" x="27" y="-1205.8" font-family="Serif" font-size="14.00">S</text>
</g>
<!-- n4 -->
<!-- exposure_e -->
<g id="n4" class="node">
<title>n4</title>
<polygon fill="none" stroke="black" points="57,-1079 57,-1127 135,-1127 135,-1079 57,-1079"/>
<text text-anchor="start" x="62" y="-1099.3" font-family="Serif" font-size="14.00">exposure_e</text>
</g>
<!-- n1p1&#45;&gt;n4 -->
<!-- S -->
<g id="e19" class="edge">
<title>n1p1:e&#45;&gt;n4:w</title>
<path fill="none" stroke="black" d="M1,-1210C12.96,-1210 8.08,-1225.13 19,-1230 25.5,-1232.89 29.54,-1234.55 35,-1230 73.5,-1197.89 8.89,-1120.69 50.97,-1115.3"/>
<polygon fill="black" stroke="black" points="51.11,-1117.04 56,-1115 50.91,-1113.55 51.11,-1117.04"/>
<text text-anchor="middle" x="27" y="-1235.8" font-family="Serif" font-size="14.00">S</text>
</g>
<!-- n8 -->
<!-- exposure_i2 -->
<g id="n8" class="node">
<title>n8</title>
<polygon fill="none" stroke="black" points="55,-843 55,-891 138,-891 138,-843 55,-843"/>
<text text-anchor="start" x="60" y="-863.3" font-family="Serif" font-size="14.00">exposure_i2</text>
</g>
<!-- n1p1&#45;&gt;n8 -->
<!-- S -->
<g id="e27" class="edge">
<title>n1p1:e&#45;&gt;n8:w</title>
<path fill="none" stroke="black" d="M1,-1210C28.84,-1210 14.68,-1113.51 19,-1086 33.21,-995.53 -36.63,-883.25 48.98,-879.12"/>
<polygon fill="black" stroke="black" points="49.04,-880.87 54,-879 48.96,-877.37 49.04,-880.87"/>
<text text-anchor="middle" x="27" y="-1089.8" font-family="Serif" font-size="14.00">S</text>
</g>
<!-- n9 -->
<!-- exposure_a -->
<g id="n9" class="node">
<title>n9</title>
<polygon fill="none" stroke="black" points="57,-909 57,-957 135,-957 135,-909 57,-909"/>
<text text-anchor="start" x="62" y="-929.3" font-family="Serif" font-size="14.00">exposure_a</text>
</g>
<!-- n1p1&#45;&gt;n9 -->
<!-- S -->
<g id="e29" class="edge">
<title>n1p1:e&#45;&gt;n9:w</title>
<path fill="none" stroke="black" d="M1,-1210C28.42,-1210 10.5,-1177.06 19,-1151 25.72,-1130.42 30.03,-1126.07 35,-1105 49.31,-1044.37 44.59,-1027.72 53,-966 53.91,-959.29 50.19,-951.37 51.53,-947.46"/>
<polygon fill="black" stroke="black" points="52.46,-948.94 56,-945 50.78,-945.87 52.46,-948.94"/>
<text text-anchor="middle" x="27" y="-1154.8" font-family="Serif" font-size="14.00">S</text>
</g>
<!-- n1p3 -->
<!-- n1p2&#45;&gt;n1p3 -->
<!-- n2p2 -->
<!-- n1p2&#45;&gt;n2p2 -->
<!-- E -->
<g id="e2" class="edge">
<title>n1p2:e&#45;&gt;n2p2:w</title>
<path fill="none" stroke="black" d="M1,-1142C25.55,-1142 1.06,-1234.24 19,-1251 103.29,-1329.75 163.56,-1282.53 278,-1268 292.12,-1266.21 296.23,-1266.28 309,-1260 316.25,-1256.44 316.94,-1249.66 322.05,-1247.06"/>
<polygon fill="black" stroke="black" points="322.48,-1248.76 327,-1246 321.74,-1245.33 322.48,-1248.76"/>
<text text-anchor="middle" x="167.5" y="-1294.8" font-family="Serif" font-size="14.00">E</text>
</g>
<!-- n10 -->
<!-- exposure_e′ -->
<g id="n10" class="node">
<title>n10</title>
<polygon fill="none" stroke="black" points="196,-798 196,-846 278,-846 278,-798 196,-798"/>
<text text-anchor="start" x="201" y="-818.3" font-family="Serif" font-size="14.00">exposure_e′</text>
</g>
<!-- n1p2&#45;&gt;n10 -->
<!-- E -->
<g id="e32" class="edge">
<title>n1p2:e&#45;&gt;n10:w</title>
<path fill="none" stroke="black" d="M1,-1142C30.51,-1142 10.31,-905.2 19,-877 27.8,-848.45 27.55,-834.66 53,-819 105.75,-786.53 130.93,-808.71 190.86,-809.95"/>
<polygon fill="black" stroke="black" points="190.98,-811.7 196,-810 191.02,-808.2 190.98,-811.7"/>
<text text-anchor="middle" x="96" y="-822.8" font-family="Serif" font-size="14.00">E</text>
</g>
<!-- n1p4 -->
<!-- n1p3&#45;&gt;n1p4 -->
<!-- n2p3 -->
<!-- n1p3&#45;&gt;n2p3 -->
<!-- I -->
<g id="e3" class="edge">
<title>n1p3:e&#45;&gt;n2p3:w</title>
<path fill="none" stroke="black" d="M1,-1066C46.6,-1066 -15.04,-1136.66 19,-1167 120.08,-1257.1 188.11,-1187.81 321.81,-1186.03"/>
<polygon fill="black" stroke="black" points="322.01,-1187.78 327,-1186 321.99,-1184.28 322.01,-1187.78"/>
<text text-anchor="middle" x="167.5" y="-1214.8" font-family="Serif" font-size="14.00">I</text>
</g>
<!-- n5 -->
<!-- exposure′ -->
<g id="n5" class="node">
<title>n5</title>
<polygon fill="none" stroke="black" points="62,-574 62,-622 130,-622 130,-574 62,-574"/>
<text text-anchor="start" x="67" y="-594.3" font-family="Serif" font-size="14.00">exposure′</text>
</g>
<!-- n1p3&#45;&gt;n5 -->
<!-- I -->
<g id="e22" class="edge">
<title>n1p3:e&#45;&gt;n5:w</title>
<path fill="none" stroke="black" d="M1,-1066C16.86,-1066 16.82,-796.71 19,-781 21.83,-760.59 36.54,-609.59 56.41,-588.45"/>
<polygon fill="black" stroke="black" points="57.41,-589.9 61,-586 55.77,-586.81 57.41,-589.9"/>
<text text-anchor="middle" x="27" y="-784.8" font-family="Serif" font-size="14.00">I</text>
</g>
<!-- n1p5 -->
<!-- n1p4&#45;&gt;n1p5 -->
<!-- n2p4 -->
<!-- n1p4&#45;&gt;n2p4 -->
<!-- I2 -->
<g id="e4" class="edge">
<title>n1p4:e&#45;&gt;n2p4:w</title>
<path fill="none" stroke="black" d="M1,-974C30.16,-974 5.62,-1078.09 19,-1104 28.52,-1122.44 33.71,-1128.35 53,-1136 88.53,-1150.09 100.79,-1137.02 139,-1136 220.85,-1133.82 242.41,-1126.33 321.69,-1126.01"/>
<polygon fill="black" stroke="black" points="322,-1127.76 327,-1126 322,-1124.26 322,-1127.76"/>
<text text-anchor="middle" x="167.5" y="-1138.8" font-family="Serif" font-size="14.00">I2</text>
</g>
<!-- n6 -->
<!-- exposure_i2′ -->
<g id="n6" class="node">
<title>n6</title>
<polygon fill="none" stroke="black" points="53,-453 53,-501 139,-501 139,-453 53,-453"/>
<text text-anchor="start" x="58" y="-473.3" font-family="Serif" font-size="14.00">exposure_i2′</text>
</g>
<!-- n1p4&#45;&gt;n6 -->
<!-- I2 -->
<g id="e24" class="edge">
<title>n1p4:e&#45;&gt;n6:w</title>
<path fill="none" stroke="black" d="M1,-974C21.75,-974 11.42,-620.31 19,-601 23.03,-590.72 30.44,-592.05 35,-582 45.11,-559.73 29.24,-477.74 48.1,-466.32"/>
<polygon fill="black" stroke="black" points="48.63,-467.99 53,-465 47.72,-464.61 48.63,-467.99"/>
<text text-anchor="middle" x="27" y="-604.8" font-family="Serif" font-size="14.00">I2</text>
</g>
<!-- n1p6 -->
<!-- n1p5&#45;&gt;n1p6 -->
<!-- n2p5 -->
<!-- n1p5&#45;&gt;n2p5 -->
<!-- A -->
<g id="e5" class="edge">
<title>n1p5:e&#45;&gt;n2p5:w</title>
<path fill="none" stroke="black" d="M1,-850C85.13,-850 -7.73,-973.79 53,-1032 96.08,-1073.3 256.53,-1066.42 321.73,-1066.02"/>
<polygon fill="black" stroke="black" points="322.01,-1067.77 327,-1066 321.99,-1064.27 322.01,-1067.77"/>
<text text-anchor="middle" x="167.5" y="-1067.8" font-family="Serif" font-size="14.00">A</text>
</g>
<!-- n7 -->
<!-- exposure_a′ -->
<g id="n7" class="node">
<title>n7</title>
<polygon fill="none" stroke="black" points="55,-387 55,-435 137,-435 137,-387 55,-387"/>
<text text-anchor="start" x="60" y="-407.3" font-family="Serif" font-size="14.00">exposure_a′</text>
</g>
<!-- n1p5&#45;&gt;n7 -->
<!-- A -->
<g id="e26" class="edge">
<title>n1p5:e&#45;&gt;n7:w</title>
<path fill="none" stroke="black" d="M1,-850C25.85,-850 2.08,-421.21 19,-403 28.41,-392.87 36.28,-397.51 48.77,-398.73"/>
<polygon fill="black" stroke="black" points="48.92,-400.49 54,-399 49.1,-397 48.92,-400.49"/>
<text text-anchor="middle" x="27" y="-406.8" font-family="Serif" font-size="14.00">A</text>
</g>
<!-- n1p7 -->
<!-- n1p6&#45;&gt;n1p7 -->
<!-- n2p6 -->
<!-- n1p6&#45;&gt;n2p6 -->
<!-- R -->
<g id="e6" class="edge">
<title>n1p6:e&#45;&gt;n2p6:w</title>
<path fill="none" stroke="black" d="M1,-785C124.12,-785 155.35,-778.16 278,-789 298.09,-790.78 303.96,-795.99 321.67,-796.87"/>
<polygon fill="black" stroke="black" points="321.96,-798.63 327,-797 322.04,-795.13 321.96,-798.63"/>
<text text-anchor="middle" x="167.5" y="-786.8" font-family="Serif" font-size="14.00">R</text>
</g>
<!-- n1p8 -->
<!-- n1p7&#45;&gt;n1p8 -->
<!-- n2p7 -->
<!-- n1p7&#45;&gt;n2p7 -->
<!-- R2 -->
<g id="e7" class="edge">
<title>n1p7:e&#45;&gt;n2p7:w</title>
<path fill="none" stroke="black" d="M1,-724C144.3,-724 181.14,-736.7 321.95,-736.99"/>
<polygon fill="black" stroke="black" points="322,-738.74 327,-737 322,-735.24 322,-738.74"/>
<text text-anchor="middle" x="167.5" y="-734.8" font-family="Serif" font-size="14.00">R2</text>
</g>
<!-- n1p9 -->
<!-- n1p8&#45;&gt;n1p9 -->
<!-- n2p8 -->
<!-- n1p8&#45;&gt;n2p8 -->
<!-- D -->
<g id="e9" class="edge">
<title>n1p8:e&#45;&gt;n2p8:w</title>
<path fill="none" stroke="black" d="M1,-664C12.63,-664 8.31,-678.4 19,-683 25.53,-685.81 27.89,-683.07 35,-683 163.02,-681.68 196.29,-677.13 321.73,-677"/>
<polygon fill="black" stroke="black" points="322,-678.75 327,-677 322,-675.25 322,-678.75"/>
<text text-anchor="middle" x="167.5" y="-683.8" font-family="Serif" font-size="14.00">D</text>
</g>
<!-- n1p10 -->
<!-- n1p9&#45;&gt;n1p10 -->
<!-- n2p9 -->
<!-- n1p9&#45;&gt;n2p9 -->
<!-- S′ -->
<g id="e8" class="edge">
<title>n1p9:e&#45;&gt;n2p9:w</title>
<path fill="none" stroke="black" d="M1,-533C25.55,-533 0.28,-626.12 19,-642 21.63,-644.23 224.02,-673.66 309,-636 317.64,-632.17 316.44,-622.02 321.93,-618.35"/>
<polygon fill="black" stroke="black" points="322.62,-619.98 327,-617 321.72,-616.6 322.62,-619.98"/>
<text text-anchor="middle" x="167.5" y="-658.8" font-family="Serif" font-size="14.00">S′</text>
</g>
<!-- n1p9&#45;&gt;n5 -->
<!-- S′ -->
<g id="e21" class="edge">
<title>n1p9:e&#45;&gt;n5:w</title>
<path fill="none" stroke="black" d="M1,-533C40.49,-533 -11.62,-595.07 19,-620 32.48,-630.98 40.26,-613.85 55.89,-610.54"/>
<polygon fill="black" stroke="black" points="56.21,-612.26 61,-610 55.84,-608.78 56.21,-612.26"/>
<text text-anchor="middle" x="27" y="-626.8" font-family="Serif" font-size="14.00">S′</text>
</g>
<!-- n1p9&#45;&gt;n6 -->
<!-- S′ -->
<g id="e23" class="edge">
<title>n1p9:e&#45;&gt;n6:w</title>
<path fill="none" stroke="black" d="M1,-533C16.17,-533 7.55,-513.95 19,-504 30.1,-494.35 35.3,-489.99 47.97,-489.15"/>
<polygon fill="black" stroke="black" points="48.06,-490.9 53,-489 47.95,-487.4 48.06,-490.9"/>
<text text-anchor="middle" x="27" y="-507.8" font-family="Serif" font-size="14.00">S′</text>
</g>
<!-- n1p9&#45;&gt;n7 -->
<!-- S′ -->
<g id="e25" class="edge">
<title>n1p9:e&#45;&gt;n7:w</title>
<path fill="none" stroke="black" d="M1,-533C24.67,-533 2.03,-444.5 19,-428 28.94,-418.33 36.36,-421.84 48.78,-422.79"/>
<polygon fill="black" stroke="black" points="48.93,-424.55 54,-423 49.07,-421.05 48.93,-424.55"/>
<text text-anchor="middle" x="27" y="-431.8" font-family="Serif" font-size="14.00">S′</text>
</g>
<!-- n1p9&#45;&gt;n10 -->
<!-- S′ -->
<g id="e31" class="edge">
<title>n1p9:e&#45;&gt;n10:w</title>
<path fill="none" stroke="black" d="M1,-533C62.8,-533 88.52,-514.35 139,-550 170.66,-572.36 167.46,-590.7 178,-628 183.81,-648.56 174.52,-808.94 191.64,-831.39"/>
<polygon fill="black" stroke="black" points="190.81,-832.93 196,-834 192.61,-829.93 190.81,-832.93"/>
<text text-anchor="middle" x="96" y="-553.8" font-family="Serif" font-size="14.00">S′</text>
</g>
<!-- n1p11 -->
<!-- n1p10&#45;&gt;n1p11 -->
<!-- n2p10 -->
<!-- n1p10&#45;&gt;n2p10 -->
<!-- E′ -->
<g id="e10" class="edge">
<title>n1p10:e&#45;&gt;n2p10:w</title>
<path fill="none" stroke="black" d="M1,-449C27.31,-449 -0.97,-349.13 19,-332 33.1,-319.9 41.51,-251.28 278,-417 290.78,-425.95 306.5,-467.96 322.15,-475.75"/>
<polygon fill="black" stroke="black" points="321.72,-477.45 327,-477 322.59,-474.06 321.72,-477.45"/>
<text text-anchor="middle" x="167.5" y="-355.8" font-family="Serif" font-size="14.00">E′</text>
</g>
<!-- n1p10&#45;&gt;n4 -->
<!-- E′ -->
<g id="e20" class="edge">
<title>n1p10:e&#45;&gt;n4:w</title>
<path fill="none" stroke="black" d="M1,-449C17.92,-449 13.84,-506.88 19,-523 24.83,-541.24 31.02,-544.27 35,-563 40.81,-590.31 28.01,-1043.36 52.01,-1087.54"/>
<polygon fill="black" stroke="black" points="51.07,-1089.05 56,-1091 53.37,-1086.4 51.07,-1089.05"/>
<text text-anchor="middle" x="27" y="-566.8" font-family="Serif" font-size="14.00">E′</text>
</g>
<!-- n1p12 -->
<!-- n1p11&#45;&gt;n1p12 -->
<!-- n2p11 -->
<!-- n1p11&#45;&gt;n2p11 -->
<!-- I′ -->
<g id="e11" class="edge">
<title>n1p11:e&#45;&gt;n2p11:w</title>
<path fill="none" stroke="black" d="M1,-341C16.17,-341 6.32,-320.32 19,-312 31.77,-303.62 37.77,-308.11 53,-307 99.25,-303.62 273.74,-311.38 322,-311.97"/>
<polygon fill="black" stroke="black" points="321.99,-313.72 327,-312 322.01,-310.22 321.99,-313.72"/>
<text text-anchor="middle" x="167.5" y="-311.8" font-family="Serif" font-size="14.00">I′</text>
</g>
<!-- n1p11&#45;&gt;n3 -->
<!-- I′ -->
<g id="e18" class="edge">
<title>n1p11:e&#45;&gt;n3:w</title>
<path fill="none" stroke="black" d="M1,-341C24.02,-341 11.64,-421.19 19,-443 23.96,-457.69 31.07,-459 35,-474 62.76,-579.83 26.94,-859.74 53,-966 54.92,-973.84 53.64,-982.25 57.91,-985.55"/>
<polygon fill="black" stroke="black" points="57.71,-987.31 63,-987 58.67,-983.95 57.71,-987.31"/>
<text text-anchor="middle" x="27" y="-477.8" font-family="Serif" font-size="14.00">I′</text>
</g>
<!-- n1p13 -->
<!-- n1p12&#45;&gt;n1p13 -->
<!-- n2p12 -->
<!-- n1p12&#45;&gt;n2p12 -->
<!-- I2′ -->
<g id="e12" class="edge">
<title>n1p12:e&#45;&gt;n2p12:w</title>
<path fill="none" stroke="black" d="M1,-260C70.36,-260 87.66,-257.7 157,-256 230.78,-254.19 250.51,-252.1 321.78,-252"/>
<polygon fill="black" stroke="black" points="322,-253.75 327,-252 322,-250.25 322,-253.75"/>
<text text-anchor="middle" x="167.5" y="-259.8" font-family="Serif" font-size="14.00">I2′</text>
</g>
<!-- n1p12&#45;&gt;n8 -->
<!-- I2′ -->
<g id="e28" class="edge">
<title>n1p12:e&#45;&gt;n8:w</title>
<path fill="none" stroke="black" d="M1,-260C29.36,-260 26.66,-286.89 35,-314 43.43,-341.4 25.73,-808.04 50.09,-851.73"/>
<polygon fill="black" stroke="black" points="49.04,-853.13 54,-855 51.29,-850.45 49.04,-853.13"/>
<text text-anchor="middle" x="27" y="-317.8" font-family="Serif" font-size="14.00">I2′</text>
</g>
<!-- n1p14 -->
<!-- n1p13&#45;&gt;n1p14 -->
<!-- n2p13 -->
<!-- n1p13&#45;&gt;n2p13 -->
<!-- A′ -->
<g id="e13" class="edge">
<title>n1p13:e&#45;&gt;n2p13:w</title>
<path fill="none" stroke="black" d="M1,-195C70.34,-195 87.66,-193.65 157,-193 230.78,-192.31 250.53,-192.01 321.78,-192"/>
<polygon fill="black" stroke="black" points="322,-193.75 327,-192 322,-190.25 322,-193.75"/>
<text text-anchor="middle" x="167.5" y="-196.8" font-family="Serif" font-size="14.00">A′</text>
</g>
<!-- n1p13&#45;&gt;n9 -->
<!-- A′ -->
<g id="e30" class="edge">
<title>n1p13:e&#45;&gt;n9:w</title>
<path fill="none" stroke="black" d="M1,-195C31.05,-195 12.31,-299.71 19,-329 24.1,-351.33 31.01,-355.44 35,-378 40.01,-406.33 27.12,-873.94 52.04,-917.72"/>
<polygon fill="black" stroke="black" points="51.03,-919.16 56,-921 53.27,-916.46 51.03,-919.16"/>
<text text-anchor="middle" x="27" y="-381.8" font-family="Serif" font-size="14.00">A′</text>
</g>
<!-- n1p15 -->
<!-- n1p14&#45;&gt;n1p15 -->
<!-- n2p14 -->
<!-- n1p14&#45;&gt;n2p14 -->
<!-- R′ -->
<g id="e14" class="edge">
<title>n1p14:e&#45;&gt;n2p14:w</title>
<path fill="none" stroke="black" d="M1,-132C144.19,-132 181.25,-132 321.95,-132"/>
<polygon fill="black" stroke="black" points="322,-133.75 327,-132 322,-130.25 322,-133.75"/>
<text text-anchor="middle" x="167.5" y="-135.8" font-family="Serif" font-size="14.00">R′</text>
</g>
<!-- n1p16 -->
<!-- n1p15&#45;&gt;n1p16 -->
<!-- n2p15 -->
<!-- n1p15&#45;&gt;n2p15 -->
<!-- R2′ -->
<g id="e15" class="edge">
<title>n1p15:e&#45;&gt;n2p15:w</title>
<path fill="none" stroke="black" d="M1,-72C144.19,-72 181.25,-72 321.95,-72"/>
<polygon fill="black" stroke="black" points="322,-73.75 327,-72 322,-70.25 322,-73.75"/>
<text text-anchor="middle" x="167.5" y="-75.8" font-family="Serif" font-size="14.00">R2′</text>
</g>
<!-- n2p16 -->
<!-- n1p16&#45;&gt;n2p16 -->
<!-- D′ -->
<g id="e16" class="edge">
<title>n1p16:e&#45;&gt;n2p16:w</title>
<path fill="none" stroke="black" d="M1,-12C144.19,-12 181.25,-12 321.95,-12"/>
<polygon fill="black" stroke="black" points="322,-13.75 327,-12 322,-10.25 322,-13.75"/>
<text text-anchor="middle" x="167.5" y="-15.8" font-family="Serif" font-size="14.00">D′</text>
</g>
<!-- n2p1&#45;&gt;n2p2 -->
<!-- n2p2&#45;&gt;n2p3 -->
<!-- n2p3&#45;&gt;n2p4 -->
<!-- n2p4&#45;&gt;n2p5 -->
<!-- n2p5&#45;&gt;n2p6 -->
<!-- n2p6&#45;&gt;n2p7 -->
<!-- n2p7&#45;&gt;n2p8 -->
<!-- n2p8&#45;&gt;n2p9 -->
<!-- n2p9&#45;&gt;n2p10 -->
<!-- n2p10&#45;&gt;n2p11 -->
<!-- n2p11&#45;&gt;n2p12 -->
<!-- n2p12&#45;&gt;n2p13 -->
<!-- n2p13&#45;&gt;n2p14 -->
<!-- n2p14&#45;&gt;n2p15 -->
<!-- n2p15&#45;&gt;n2p16 -->
<!-- n3&#45;&gt;n2p2 -->
<!-- E -->
<g id="e33" class="edge">
<title>n3:e&#45;&gt;n2p2:w</title>
<path fill="none" stroke="black" d="M130,-999C153.66,-999 160.14,-1006.48 178,-1022 221.81,-1060.06 264.63,-1235.3 321.79,-1245.53"/>
<polygon fill="black" stroke="black" points="321.86,-1247.3 327,-1246 322.18,-1243.81 321.86,-1247.3"/>
<text text-anchor="middle" x="237" y="-1208.8" font-family="Serif" font-size="14.00">E</text>
</g>
<!-- n3&#45;&gt;n10 -->
<!-- E -->
<g id="e34" class="edge">
<title>n3:e&#45;&gt;n10:w</title>
<path fill="none" stroke="black" d="M130,-999C148.68,-999 171.1,-947.36 178,-930 187.26,-906.7 171.55,-823.01 190.97,-811.35"/>
<polygon fill="black" stroke="black" points="191.62,-812.99 196,-810 190.72,-809.61 191.62,-812.99"/>
<text text-anchor="middle" x="167.5" y="-975.8" font-family="Serif" font-size="14.00">E</text>
</g>
<!-- n4&#45;&gt;n2p2 -->
<!-- E -->
<g id="e35" class="edge">
<title>n4:e&#45;&gt;n2p2:w</title>
<path fill="none" stroke="black" d="M136,-1103C185.34,-1103 122.24,-1176.99 157,-1212 210.02,-1265.39 248.13,-1246.93 321.64,-1246.03"/>
<polygon fill="black" stroke="black" points="322.01,-1247.78 327,-1246 321.99,-1244.28 322.01,-1247.78"/>
<text text-anchor="middle" x="237" y="-1252.8" font-family="Serif" font-size="14.00">E</text>
</g>
<!-- n4&#45;&gt;n10 -->
<!-- E -->
<g id="e36" class="edge">
<title>n4:e&#45;&gt;n10:w</title>
<path fill="none" stroke="black" d="M136,-1103C164.67,-1103 146.87,-1068.82 157,-1042 165.66,-1019.07 172.06,-1014.78 178,-991 182.52,-972.92 176.83,-834.35 191.74,-812.81"/>
<polygon fill="black" stroke="black" points="192.79,-814.22 196,-810 190.86,-811.3 192.79,-814.22"/>
<text text-anchor="middle" x="167.5" y="-1045.8" font-family="Serif" font-size="14.00">E</text>
</g>
<!-- n5&#45;&gt;n2p10 -->
<!-- E′ -->
<g id="e37" class="edge">
<title>n5:e&#45;&gt;n2p10:w</title>
<path fill="none" stroke="black" d="M131,-598C223.3,-598 232.88,-543.21 309,-491 315.66,-486.43 316.7,-480.25 321.98,-477.93"/>
<polygon fill="black" stroke="black" points="322.4,-479.63 327,-477 321.76,-476.19 322.4,-479.63"/>
<text text-anchor="middle" x="237" y="-586.8" font-family="Serif" font-size="14.00">E′</text>
</g>
<!-- n6&#45;&gt;n2p10 -->
<!-- E′ -->
<g id="e38" class="edge">
<title>n6:e&#45;&gt;n2p10:w</title>
<path fill="none" stroke="black" d="M139,-477C220.76,-477 242.52,-477 321.7,-477"/>
<polygon fill="black" stroke="black" points="322,-478.75 327,-477 322,-475.25 322,-478.75"/>
<text text-anchor="middle" x="237" y="-480.8" font-family="Serif" font-size="14.00">E′</text>
</g>
<!-- n7&#45;&gt;n2p10 -->
<!-- E′ -->
<g id="e39" class="edge">
<title>n7:e&#45;&gt;n2p10:w</title>
<path fill="none" stroke="black" d="M138,-411C203.63,-411 216.27,-435.69 278,-458 287.61,-461.47 308.98,-473.42 321.99,-476.35"/>
<polygon fill="black" stroke="black" points="321.82,-478.09 327,-477 322.27,-474.62 321.82,-478.09"/>
<text text-anchor="middle" x="237" y="-461.8" font-family="Serif" font-size="14.00">E′</text>
</g>
<!-- n8&#45;&gt;n2p2 -->
<!-- E -->
<g id="e40" class="edge">
<title>n8:e&#45;&gt;n2p2:w</title>
<path fill="none" stroke="black" d="M139,-867C159.21,-867 232.19,-899.25 278,-971 313.7,-1026.91 297.52,-1051.67 309,-1117 313.7,-1143.73 299.97,-1233.72 322.08,-1244.86"/>
<polygon fill="black" stroke="black" points="321.73,-1246.58 327,-1246 322.52,-1243.17 321.73,-1246.58"/>
<text text-anchor="middle" x="237" y="-974.8" font-family="Serif" font-size="14.00">E</text>
</g>
<!-- n8&#45;&gt;n10 -->
<!-- E -->
<g id="e41" class="edge">
<title>n8:e&#45;&gt;n10:w</title>
<path fill="none" stroke="black" d="M139,-867C146.84,-867 177.74,-823.36 191.35,-812.45"/>
<polygon fill="black" stroke="black" points="192.39,-813.88 196,-810 190.76,-810.78 192.39,-813.88"/>
<text text-anchor="middle" x="167.5" y="-853.8" font-family="Serif" font-size="14.00">E</text>
</g>
<!-- n9&#45;&gt;n2p2 -->
<!-- E -->
<g id="e42" class="edge">
<title>n9:e&#45;&gt;n2p2:w</title>
<path fill="none" stroke="black" d="M136,-933C154.52,-933 143.3,-956.54 157,-969 200.84,-1008.87 240.84,-978.84 278,-1025 292.79,-1043.37 300.81,-1221.53 322.48,-1243.73"/>
<polygon fill="black" stroke="black" points="321.75,-1245.32 327,-1246 323.31,-1242.19 321.75,-1245.32"/>
<text text-anchor="middle" x="237" y="-1028.8" font-family="Serif" font-size="14.00">E</text>
</g>
<!-- n9&#45;&gt;n10 -->
<!-- E -->
<g id="e43" class="edge">
<title>n9:e&#45;&gt;n10:w</title>
<path fill="none" stroke="black" d="M136,-933C153.01,-933 170.78,-884.4 178,-869 188.82,-845.92 171.38,-814.76 190.91,-810.49"/>
<polygon fill="black" stroke="black" points="191.19,-812.22 196,-810 190.85,-808.74 191.19,-812.22"/>
<text text-anchor="middle" x="167.5" y="-914.8" font-family="Serif" font-size="14.00">E</text>
</g>
<!-- n10&#45;&gt;n2p10 -->
<!-- E′ -->
<g id="e44" class="edge">
<title>n10:e&#45;&gt;n2p10:w</title>
<path fill="none" stroke="black" d="M278,-822C287.02,-822 313.36,-522.56 324.75,-481.62"/>
<polygon fill="black" stroke="black" points="326.38,-482.26 327,-477 323.23,-480.73 326.38,-482.26"/>
<text text-anchor="middle" x="302.5" y="-703.8" font-family="Serif" font-size="14.00">E′</text>
</g>
</g>
</svg>
