<?xml version="1.0" encoding="UTF-8" standalone="no"?>
<!DOCTYPE svg PUBLIC "-//W3C//DTD SVG 1.1//EN"
 "http://www.w3.org/Graphics/SVG/1.1/DTD/svg11.dtd">
<!-- Generated by graphviz version 2.44.1 (0)
 -->
<!-- Title: G Pages: 1 -->
<svg width="632pt" height="176pt"
 viewBox="0.00 0.00 632.00 176.00" xmlns="http://www.w3.org/2000/svg" xmlns:xlink="http://www.w3.org/1999/xlink">
<g id="graph0" class="graph" transform="scale(1 1) rotate(0) translate(4 172)">
<title>G</title>
<polygon fill="white" stroke="transparent" points="-4,4 -4,-172 628,-172 628,4 -4,4"/>
<!-- n1p1 -->
<!-- n1p2 -->
<!-- n1p1&#45;&gt;n1p2 -->
<!-- n3 -->
<!-- crossexp12 -->
<g id="n3" class="node">
<title>n3</title>
<polygon fill="none" stroke="black" points="68,-87 68,-135 144,-135 144,-87 68,-87"/>
<text text-anchor="start" x="73" y="-107.3" font-family="Serif" font-size="14.00">crossexp12</text>
</g>
<!-- n1p1&#45;&gt;n3 -->
<!-- Pop1 -->
<g id="e1" class="edge">
<title>n1p1:e&#45;&gt;n3:w</title>
<path fill="none" stroke="black" d="M1,-156C32.38,-156 34.64,-126.51 62.84,-123.29"/>
<polygon fill="black" stroke="black" points="63.1,-125.02 68,-123 62.91,-121.53 63.1,-125.02"/>
<text text-anchor="middle" x="34.5" y="-154.8" font-family="Serif" font-size="14.00">Pop1</text>
</g>
<!-- n1p3 -->
<!-- n1p2&#45;&gt;n1p3 -->
<!-- n1p2&#45;&gt;n3 -->
<!-- Pop2 -->
<g id="e2" class="edge">
<title>n1p2:e&#45;&gt;n3:w</title>
<path fill="none" stroke="black" d="M1,-96C29.06,-96 37.25,-98.66 62.98,-98.97"/>
<polygon fill="black" stroke="black" points="62.99,-100.72 68,-99 63.01,-97.22 62.99,-100.72"/>
<text text-anchor="middle" x="34.5" y="-101.8" font-family="Serif" font-size="14.00">Pop2</text>
</g>
<!-- n4 -->
<!-- crossexp13 -->
<g id="n4" class="node">
<title>n4</title>
<polygon fill="none" stroke="black" points="211,-94 211,-142 287,-142 287,-94 211,-94"/>
<text text-anchor="start" x="216" y="-114.3" font-family="Serif" font-size="14.00">crossexp13</text>
</g>
<!-- n1p3&#45;&gt;n4 -->
<!-- Pop3 -->
<g id="e3" class="edge">
<title>n1p3:e&#45;&gt;n4:w</title>
<path fill="none" stroke="black" d="M1,-36C65.68,-36 83.9,-39.09 144,-63 175.21,-75.41 175.66,-103 205.88,-105.77"/>
<polygon fill="black" stroke="black" points="205.93,-107.53 211,-106 206.08,-104.03 205.93,-107.53"/>
<text text-anchor="middle" x="106" y="-66.8" font-family="Serif" font-size="14.00">Pop3</text>
</g>
<!-- n2p1 -->
<!-- n2p2 -->
<!-- n2p1&#45;&gt;n2p2 -->
<!-- n2p3 -->
<!-- n2p2&#45;&gt;n2p3 -->
<!-- n3&#45;&gt;n4 -->
<!-- Pop1 -->
<g id="e4" class="edge">
<title>n3:e&#45;&gt;n4:w</title>
<path fill="none" stroke="black" d="M144,-123C172.19,-123 180.15,-129.2 205.96,-129.93"/>
<polygon fill="black" stroke="black" points="205.98,-131.68 211,-130 206.02,-128.18 205.98,-131.68"/>
<text text-anchor="middle" x="177.5" y="-131.8" font-family="Serif" font-size="14.00">Pop1</text>
</g>
<!-- n5 -->
<!-- crossexp23 -->
<g id="n5" class="node">
<title>n5</title>
<polygon fill="none" stroke="black" points="354,-26 354,-74 430,-74 430,-26 354,-26"/>
<text text-anchor="start" x="359" y="-46.3" font-family="Serif" font-size="14.00">crossexp23</text>
</g>
<!-- n3&#45;&gt;n5 -->
<!-- Pop2 -->
<g id="e5" class="edge">
<title>n3:e&#45;&gt;n5:w</title>
<path fill="none" stroke="black" d="M144,-99C176.45,-99 179.42,-77.47 211,-70 271.25,-55.75 289.36,-61.65 348.88,-61.99"/>
<polygon fill="black" stroke="black" points="349,-63.74 354,-62 349,-60.24 349,-63.74"/>
<text text-anchor="middle" x="249" y="-73.8" font-family="Serif" font-size="14.00">Pop2</text>
</g>
<!-- n4&#45;&gt;n5 -->
<!-- Pop3 -->
<g id="e6" class="edge">
<title>n4:e&#45;&gt;n5:w</title>
<path fill="none" stroke="black" d="M287,-106C290.31,-106 333.8,-74.48 336,-72 346.02,-60.71 339.05,-42.86 349.04,-38.83"/>
<polygon fill="black" stroke="black" points="349.36,-40.55 354,-38 348.78,-37.1 349.36,-40.55"/>
<text text-anchor="middle" x="320.5" y="-98.8" font-family="Serif" font-size="14.00">Pop3</text>
</g>
<!-- n6 -->
<!-- coex1 -->
<g id="n6" class="node">
<title>n6</title>
<polygon fill="none" stroke="black" points="448.5,-120 448.5,-145 493.5,-145 493.5,-120 448.5,-120"/>
<text text-anchor="start" x="453.5" y="-128.8" font-family="Serif" font-size="14.00">coex1</text>
</g>
<!-- n4&#45;&gt;n6 -->
<!-- Pop1 -->
<g id="e7" class="edge">
<title>n4:e&#45;&gt;n6:w</title>
<path fill="none" stroke="black" d="M287,-130C356.74,-130 375.5,-131.9 442.65,-132"/>
<polygon fill="black" stroke="black" points="443,-133.75 448,-132 443,-130.25 443,-133.75"/>
<text text-anchor="middle" x="320.5" y="-133.8" font-family="Serif" font-size="14.00">Pop1</text>
</g>
<!-- n7 -->
<!-- coex2 -->
<g id="n7" class="node">
<title>n7</title>
<polygon fill="none" stroke="black" points="511.5,-54 511.5,-79 556.5,-79 556.5,-54 511.5,-54"/>
<text text-anchor="start" x="516.5" y="-62.8" font-family="Serif" font-size="14.00">coex2</text>
</g>
<!-- n5&#45;&gt;n7 -->
<!-- Pop2 -->
<g id="e8" class="edge">
<title>n5:e&#45;&gt;n7:w</title>
<path fill="none" stroke="black" d="M430,-62C464.21,-62 473.98,-65.6 505.71,-65.97"/>
<polygon fill="black" stroke="black" points="505.99,-67.72 511,-66 506.01,-64.22 505.99,-67.72"/>
<text text-anchor="middle" x="470.5" y="-69.8" font-family="Serif" font-size="14.00">Pop2</text>
</g>
<!-- n8 -->
<!-- coex3 -->
<g id="n8" class="node">
<title>n8</title>
<polygon fill="none" stroke="black" points="511.5,-9 511.5,-34 556.5,-34 556.5,-9 511.5,-9"/>
<text text-anchor="start" x="516.5" y="-17.8" font-family="Serif" font-size="14.00">coex3</text>
</g>
<!-- n5&#45;&gt;n8 -->
<!-- Pop3 -->
<g id="e9" class="edge">
<title>n5:e&#45;&gt;n8:w</title>
<path fill="none" stroke="black" d="M430,-38C464.92,-38 473.39,-22.68 505.62,-21.13"/>
<polygon fill="black" stroke="black" points="506.04,-22.87 511,-21 505.96,-19.37 506.04,-22.87"/>
<text text-anchor="middle" x="470.5" y="-40.8" font-family="Serif" font-size="14.00">Pop3</text>
</g>
<!-- n6&#45;&gt;n2p1 -->
<!-- Pop1 -->
<g id="e10" class="edge">
<title>n6:e&#45;&gt;n2p1:w</title>
<path fill="none" stroke="black" d="M493,-132C548.97,-132 564.28,-132 617.71,-132"/>
<polygon fill="black" stroke="black" points="618,-133.75 623,-132 618,-130.25 618,-133.75"/>
<text text-anchor="middle" x="533.5" y="-135.8" font-family="Serif" font-size="14.00">Pop1</text>
</g>
<!-- n7&#45;&gt;n2p2 -->
<!-- Pop2 -->
<g id="e11" class="edge">
<title>n7:e&#45;&gt;n2p2:w</title>
<path fill="none" stroke="black" d="M556,-66C584.15,-66 592.18,-71.32 617.97,-71.94"/>
<polygon fill="black" stroke="black" points="617.98,-73.69 623,-72 618.02,-70.19 617.98,-73.69"/>
<text text-anchor="middle" x="589.5" y="-75.8" font-family="Serif" font-size="14.00">Pop2</text>
</g>
<!-- n8&#45;&gt;n2p3 -->
<!-- Pop3 -->
<g id="e12" class="edge">
<title>n8:e&#45;&gt;n2p3:w</title>
<path fill="none" stroke="black" d="M556,-21C584.28,-21 592.07,-13.02 617.95,-12.09"/>
<polygon fill="black" stroke="black" points="618.03,-13.84 623,-12 617.97,-10.34 618.03,-13.84"/>
<text text-anchor="middle" x="589.5" y="-23.8" font-family="Serif" font-size="14.00">Pop3</text>
</g>
</g>
</svg>
