<svg xmlns="http://www.w3.org/2000/svg" xmlns:xlink="http://www.w3.org/1999/xlink" width="600" height="400" viewBox="0 0 2400 1600">
<defs>
  <clipPath id="clip420">
    <rect x="0" y="0" width="2400" height="1600"></rect>
  </clipPath>
</defs>
<path clip-path="url(#clip420)" d="M0 1600 L2400 1600 L2400 0 L0 0  Z" fill="#ffffff" fill-rule="evenodd" fill-opacity="1"></path>
<defs>
  <clipPath id="clip421">
    <rect x="480" y="0" width="1681" height="1600"></rect>
  </clipPath>
</defs>
<path clip-path="url(#clip420)" d="M234.125 1423.18 L2352.76 1423.18 L2352.76 123.472 L234.125 123.472  Z" fill="#ffffff" fill-rule="evenodd" fill-opacity="1"></path>
<defs>
  <clipPath id="clip422">
    <rect x="234" y="123" width="2120" height="1301"></rect>
  </clipPath>
</defs>
<polyline clip-path="url(#clip422)" style="stroke:#000000; stroke-linecap:round; stroke-linejoin:round; stroke-width:2; stroke-opacity:0.1; fill:none" points="627.205,1423.18 627.205,123.472 "></polyline>
<polyline clip-path="url(#clip422)" style="stroke:#000000; stroke-linecap:round; stroke-linejoin:round; stroke-width:2; stroke-opacity:0.1; fill:none" points="1043.6,1423.18 1043.6,123.472 "></polyline>
<polyline clip-path="url(#clip422)" style="stroke:#000000; stroke-linecap:round; stroke-linejoin:round; stroke-width:2; stroke-opacity:0.1; fill:none" points="1460,1423.18 1460,123.472 "></polyline>
<polyline clip-path="url(#clip422)" style="stroke:#000000; stroke-linecap:round; stroke-linejoin:round; stroke-width:2; stroke-opacity:0.1; fill:none" points="1876.4,1423.18 1876.4,123.472 "></polyline>
<polyline clip-path="url(#clip422)" style="stroke:#000000; stroke-linecap:round; stroke-linejoin:round; stroke-width:2; stroke-opacity:0.1; fill:none" points="2292.79,1423.18 2292.79,123.472 "></polyline>
<polyline clip-path="url(#clip420)" style="stroke:#000000; stroke-linecap:round; stroke-linejoin:round; stroke-width:4; stroke-opacity:1; fill:none" points="234.125,1423.18 2352.76,1423.18 "></polyline>
<polyline clip-path="url(#clip420)" style="stroke:#000000; stroke-linecap:round; stroke-linejoin:round; stroke-width:4; stroke-opacity:1; fill:none" points="627.205,1423.18 627.205,1404.28 "></polyline>
<polyline clip-path="url(#clip420)" style="stroke:#000000; stroke-linecap:round; stroke-linejoin:round; stroke-width:4; stroke-opacity:1; fill:none" points="1043.6,1423.18 1043.6,1404.28 "></polyline>
<polyline clip-path="url(#clip420)" style="stroke:#000000; stroke-linecap:round; stroke-linejoin:round; stroke-width:4; stroke-opacity:1; fill:none" points="1460,1423.18 1460,1404.28 "></polyline>
<polyline clip-path="url(#clip420)" style="stroke:#000000; stroke-linecap:round; stroke-linejoin:round; stroke-width:4; stroke-opacity:1; fill:none" points="1876.4,1423.18 1876.4,1404.28 "></polyline>
<polyline clip-path="url(#clip420)" style="stroke:#000000; stroke-linecap:round; stroke-linejoin:round; stroke-width:4; stroke-opacity:1; fill:none" points="2292.79,1423.18 2292.79,1404.28 "></polyline>
<path clip-path="url(#clip420)" d="M601.892 1481.64 L609.531 1481.64 L609.531 1455.28 L601.221 1456.95 L601.221 1452.69 L609.485 1451.02 L614.161 1451.02 L614.161 1481.64 L621.8 1481.64 L621.8 1485.58 L601.892 1485.58 L601.892 1481.64 Z" fill="#000000" fill-rule="nonzero" fill-opacity="1"></path><path clip-path="url(#clip420)" d="M641.244 1454.1 Q637.633 1454.1 635.804 1457.66 Q633.999 1461.2 633.999 1468.33 Q633.999 1475.44 635.804 1479.01 Q637.633 1482.55 641.244 1482.55 Q644.878 1482.55 646.684 1479.01 Q648.512 1475.44 648.512 1468.33 Q648.512 1461.2 646.684 1457.66 Q644.878 1454.1 641.244 1454.1 M641.244 1450.39 Q647.054 1450.39 650.11 1455 Q653.188 1459.58 653.188 1468.33 Q653.188 1477.06 650.11 1481.67 Q647.054 1486.25 641.244 1486.25 Q635.434 1486.25 632.355 1481.67 Q629.3 1477.06 629.3 1468.33 Q629.3 1459.58 632.355 1455 Q635.434 1450.39 641.244 1450.39 Z" fill="#000000" fill-rule="nonzero" fill-opacity="1"></path><path clip-path="url(#clip420)" d="M1022.38 1481.64 L1038.69 1481.64 L1038.69 1485.58 L1016.75 1485.58 L1016.75 1481.64 Q1019.41 1478.89 1024 1474.26 Q1028.6 1469.61 1029.78 1468.27 Q1032.03 1465.74 1032.91 1464.01 Q1033.81 1462.25 1033.81 1460.56 Q1033.81 1457.8 1031.87 1456.07 Q1029.94 1454.33 1026.84 1454.33 Q1024.64 1454.33 1022.19 1455.09 Q1019.76 1455.86 1016.98 1457.41 L1016.98 1452.69 Q1019.81 1451.55 1022.26 1450.97 Q1024.71 1450.39 1026.75 1450.39 Q1032.12 1450.39 1035.32 1453.08 Q1038.51 1455.77 1038.51 1460.26 Q1038.51 1462.39 1037.7 1464.31 Q1036.91 1466.2 1034.81 1468.8 Q1034.23 1469.47 1031.13 1472.69 Q1028.02 1475.88 1022.38 1481.64 Z" fill="#000000" fill-rule="nonzero" fill-opacity="1"></path><path clip-path="url(#clip420)" d="M1058.51 1454.1 Q1054.9 1454.1 1053.07 1457.66 Q1051.26 1461.2 1051.26 1468.33 Q1051.26 1475.44 1053.07 1479.01 Q1054.9 1482.55 1058.51 1482.55 Q1062.14 1482.55 1063.95 1479.01 Q1065.78 1475.44 1065.78 1468.33 Q1065.78 1461.2 1063.95 1457.66 Q1062.14 1454.1 1058.51 1454.1 M1058.51 1450.39 Q1064.32 1450.39 1067.38 1455 Q1070.45 1459.58 1070.45 1468.33 Q1070.45 1477.06 1067.38 1481.67 Q1064.32 1486.25 1058.51 1486.25 Q1052.7 1486.25 1049.62 1481.67 Q1046.57 1477.06 1046.57 1468.33 Q1046.57 1459.58 1049.62 1455 Q1052.7 1450.39 1058.51 1450.39 Z" fill="#000000" fill-rule="nonzero" fill-opacity="1"></path><path clip-path="url(#clip420)" d="M1448.84 1466.95 Q1452.2 1467.66 1454.07 1469.93 Q1455.97 1472.2 1455.97 1475.53 Q1455.97 1480.65 1452.45 1483.45 Q1448.93 1486.25 1442.45 1486.25 Q1440.28 1486.25 1437.96 1485.81 Q1435.67 1485.39 1433.22 1484.54 L1433.22 1480.02 Q1435.16 1481.16 1437.48 1481.74 Q1439.79 1482.32 1442.31 1482.32 Q1446.71 1482.32 1449 1480.58 Q1451.32 1478.84 1451.32 1475.53 Q1451.32 1472.48 1449.17 1470.77 Q1447.04 1469.03 1443.22 1469.03 L1439.19 1469.03 L1439.19 1465.19 L1443.4 1465.19 Q1446.85 1465.19 1448.68 1463.82 Q1450.51 1462.43 1450.51 1459.84 Q1450.51 1457.18 1448.61 1455.77 Q1446.74 1454.33 1443.22 1454.33 Q1441.3 1454.33 1439.1 1454.75 Q1436.9 1455.16 1434.26 1456.04 L1434.26 1451.88 Q1436.92 1451.14 1439.24 1450.77 Q1441.57 1450.39 1443.63 1450.39 Q1448.96 1450.39 1452.06 1452.83 Q1455.16 1455.23 1455.16 1459.35 Q1455.16 1462.22 1453.52 1464.21 Q1451.87 1466.18 1448.84 1466.95 Z" fill="#000000" fill-rule="nonzero" fill-opacity="1"></path><path clip-path="url(#clip420)" d="M1474.84 1454.1 Q1471.23 1454.1 1469.4 1457.66 Q1467.59 1461.2 1467.59 1468.33 Q1467.59 1475.44 1469.4 1479.01 Q1471.23 1482.55 1474.84 1482.55 Q1478.47 1482.55 1480.28 1479.01 Q1482.11 1475.44 1482.11 1468.33 Q1482.11 1461.2 1480.28 1457.66 Q1478.47 1454.1 1474.84 1454.1 M1474.84 1450.39 Q1480.65 1450.39 1483.7 1455 Q1486.78 1459.58 1486.78 1468.33 Q1486.78 1477.06 1483.7 1481.67 Q1480.65 1486.25 1474.84 1486.25 Q1469.03 1486.25 1465.95 1481.67 Q1462.89 1477.06 1462.89 1468.33 Q1462.89 1459.58 1465.95 1455 Q1469.03 1450.39 1474.84 1450.39 Z" fill="#000000" fill-rule="nonzero" fill-opacity="1"></path><path clip-path="url(#clip420)" d="M1864.57 1455.09 L1852.76 1473.54 L1864.57 1473.54 L1864.57 1455.09 M1863.34 1451.02 L1869.22 1451.02 L1869.22 1473.54 L1874.15 1473.54 L1874.15 1477.43 L1869.22 1477.43 L1869.22 1485.58 L1864.57 1485.58 L1864.57 1477.43 L1848.97 1477.43 L1848.97 1472.92 L1863.34 1451.02 Z" fill="#000000" fill-rule="nonzero" fill-opacity="1"></path><path clip-path="url(#clip420)" d="M1891.88 1454.1 Q1888.27 1454.1 1886.44 1457.66 Q1884.64 1461.2 1884.64 1468.33 Q1884.64 1475.44 1886.44 1479.01 Q1888.27 1482.55 1891.88 1482.55 Q1895.52 1482.55 1897.32 1479.01 Q1899.15 1475.44 1899.15 1468.33 Q1899.15 1461.2 1897.32 1457.66 Q1895.52 1454.1 1891.88 1454.1 M1891.88 1450.39 Q1897.69 1450.39 1900.75 1455 Q1903.83 1459.58 1903.83 1468.33 Q1903.83 1477.06 1900.75 1481.67 Q1897.69 1486.25 1891.88 1486.25 Q1886.07 1486.25 1882.99 1481.67 Q1879.94 1477.06 1879.94 1468.33 Q1879.94 1459.58 1882.99 1455 Q1886.07 1450.39 1891.88 1450.39 Z" fill="#000000" fill-rule="nonzero" fill-opacity="1"></path><path clip-path="url(#clip420)" d="M2267.49 1451.02 L2285.85 1451.02 L2285.85 1454.96 L2271.78 1454.96 L2271.78 1463.43 Q2272.79 1463.08 2273.81 1462.92 Q2274.83 1462.73 2275.85 1462.73 Q2281.64 1462.73 2285.02 1465.9 Q2288.4 1469.08 2288.4 1474.49 Q2288.4 1480.07 2284.92 1483.17 Q2281.45 1486.25 2275.13 1486.25 Q2272.96 1486.25 2270.69 1485.88 Q2268.44 1485.51 2266.04 1484.77 L2266.04 1480.07 Q2268.12 1481.2 2270.34 1481.76 Q2272.56 1482.32 2275.04 1482.32 Q2279.04 1482.32 2281.38 1480.21 Q2283.72 1478.1 2283.72 1474.49 Q2283.72 1470.88 2281.38 1468.77 Q2279.04 1466.67 2275.04 1466.67 Q2273.17 1466.67 2271.29 1467.08 Q2269.44 1467.5 2267.49 1468.38 L2267.49 1451.02 Z" fill="#000000" fill-rule="nonzero" fill-opacity="1"></path><path clip-path="url(#clip420)" d="M2307.61 1454.1 Q2304 1454.1 2302.17 1457.66 Q2300.36 1461.2 2300.36 1468.33 Q2300.36 1475.44 2302.17 1479.01 Q2304 1482.55 2307.61 1482.55 Q2311.24 1482.55 2313.05 1479.01 Q2314.88 1475.44 2314.88 1468.33 Q2314.88 1461.2 2313.05 1457.66 Q2311.24 1454.1 2307.61 1454.1 M2307.61 1450.39 Q2313.42 1450.39 2316.48 1455 Q2319.55 1459.58 2319.55 1468.33 Q2319.55 1477.06 2316.48 1481.67 Q2313.42 1486.25 2307.61 1486.25 Q2301.8 1486.25 2298.72 1481.67 Q2295.67 1477.06 2295.67 1468.33 Q2295.67 1459.58 2298.72 1455 Q2301.8 1450.39 2307.61 1450.39 Z" fill="#000000" fill-rule="nonzero" fill-opacity="1"></path><path clip-path="url(#clip420)" d="M788.624 1520.52 L797.282 1520.52 L818.352 1560.28 L818.352 1520.52 L824.59 1520.52 L824.59 1568.04 L815.933 1568.04 L794.863 1528.29 L794.863 1568.04 L788.624 1568.04 L788.624 1520.52 Z" fill="#000000" fill-rule="nonzero" fill-opacity="1"></path><path clip-path="url(#clip420)" d="M836.526 1553.98 L836.526 1532.4 L842.383 1532.4 L842.383 1553.75 Q842.383 1558.81 844.356 1561.36 Q846.329 1563.87 850.276 1563.87 Q855.019 1563.87 857.756 1560.85 Q860.525 1557.83 860.525 1552.61 L860.525 1532.4 L866.381 1532.4 L866.381 1568.04 L860.525 1568.04 L860.525 1562.57 Q858.392 1565.82 855.56 1567.41 Q852.759 1568.97 849.035 1568.97 Q842.892 1568.97 839.709 1565.15 Q836.526 1561.33 836.526 1553.98 M851.263 1531.54 L851.263 1531.54 Z" fill="#000000" fill-rule="nonzero" fill-opacity="1"></path><path clip-path="url(#clip420)" d="M906.199 1539.24 Q908.395 1535.29 911.451 1533.41 Q914.506 1531.54 918.644 1531.54 Q924.214 1531.54 927.237 1535.45 Q930.261 1539.33 930.261 1546.53 L930.261 1568.04 L924.373 1568.04 L924.373 1546.72 Q924.373 1541.59 922.559 1539.11 Q920.744 1536.63 917.021 1536.63 Q912.469 1536.63 909.827 1539.65 Q907.186 1542.68 907.186 1547.9 L907.186 1568.04 L901.297 1568.04 L901.297 1546.72 Q901.297 1541.56 899.483 1539.11 Q897.669 1536.63 893.881 1536.63 Q889.393 1536.63 886.752 1539.68 Q884.11 1542.71 884.11 1547.9 L884.11 1568.04 L878.222 1568.04 L878.222 1532.4 L884.11 1532.4 L884.11 1537.93 Q886.115 1534.66 888.916 1533.1 Q891.717 1531.54 895.568 1531.54 Q899.451 1531.54 902.157 1533.51 Q904.894 1535.48 906.199 1539.24 Z" fill="#000000" fill-rule="nonzero" fill-opacity="1"></path><path clip-path="url(#clip420)" d="M967.532 1550.25 Q967.532 1543.79 964.859 1540.13 Q962.217 1536.44 957.57 1536.44 Q952.923 1536.44 950.25 1540.13 Q947.608 1543.79 947.608 1550.25 Q947.608 1556.71 950.25 1560.4 Q952.923 1564.07 957.57 1564.07 Q962.217 1564.07 964.859 1560.4 Q967.532 1556.71 967.532 1550.25 M947.608 1537.81 Q949.454 1534.62 952.255 1533.1 Q955.087 1531.54 959.002 1531.54 Q965.495 1531.54 969.538 1536.69 Q973.612 1541.85 973.612 1550.25 Q973.612 1558.65 969.538 1563.81 Q965.495 1568.97 959.002 1568.97 Q955.087 1568.97 952.255 1567.44 Q949.454 1565.88 947.608 1562.7 L947.608 1568.04 L941.719 1568.04 L941.719 1518.52 L947.608 1518.52 L947.608 1537.81 Z" fill="#000000" fill-rule="nonzero" fill-opacity="1"></path><path clip-path="url(#clip420)" d="M1013.81 1548.76 L1013.81 1551.62 L986.884 1551.62 Q987.266 1557.67 990.513 1560.85 Q993.791 1564 999.616 1564 Q1002.99 1564 1006.14 1563.17 Q1009.32 1562.35 1012.44 1560.69 L1012.44 1566.23 Q1009.29 1567.57 1005.98 1568.27 Q1002.67 1568.97 999.265 1568.97 Q990.735 1568.97 985.738 1564 Q980.773 1559.04 980.773 1550.57 Q980.773 1541.82 985.484 1536.69 Q990.226 1531.54 998.247 1531.54 Q1005.44 1531.54 1009.61 1536.18 Q1013.81 1540.8 1013.81 1548.76 M1007.95 1547.04 Q1007.89 1542.23 1005.25 1539.37 Q1002.64 1536.5 998.311 1536.5 Q993.409 1536.5 990.449 1539.27 Q987.521 1542.04 987.075 1547.07 L1007.95 1547.04 Z" fill="#000000" fill-rule="nonzero" fill-opacity="1"></path><path clip-path="url(#clip420)" d="M1044.08 1537.87 Q1043.09 1537.3 1041.92 1537.04 Q1040.77 1536.76 1039.37 1536.76 Q1034.4 1536.76 1031.73 1540 Q1029.09 1543.22 1029.09 1549.27 L1029.09 1568.04 L1023.2 1568.04 L1023.2 1532.4 L1029.09 1532.4 L1029.09 1537.93 Q1030.93 1534.69 1033.89 1533.13 Q1036.85 1531.54 1041.09 1531.54 Q1041.69 1531.54 1042.42 1531.63 Q1043.16 1531.7 1044.05 1531.85 L1044.08 1537.87 Z" fill="#000000" fill-rule="nonzero" fill-opacity="1"></path><path clip-path="url(#clip420)" d="M1084.76 1536.5 Q1080.05 1536.5 1077.31 1540.19 Q1074.57 1543.85 1074.57 1550.25 Q1074.57 1556.65 1077.28 1560.34 Q1080.01 1564 1084.76 1564 Q1089.44 1564 1092.17 1560.31 Q1094.91 1556.62 1094.91 1550.25 Q1094.91 1543.92 1092.17 1540.23 Q1089.44 1536.5 1084.76 1536.5 M1084.76 1531.54 Q1092.4 1531.54 1096.76 1536.5 Q1101.12 1541.47 1101.12 1550.25 Q1101.12 1559 1096.76 1564 Q1092.4 1568.97 1084.76 1568.97 Q1077.09 1568.97 1072.73 1564 Q1068.4 1559 1068.4 1550.25 Q1068.4 1541.47 1072.73 1536.5 Q1077.09 1531.54 1084.76 1531.54 Z" fill="#000000" fill-rule="nonzero" fill-opacity="1"></path><path clip-path="url(#clip420)" d="M1128.87 1518.52 L1128.87 1523.39 L1123.27 1523.39 Q1120.12 1523.39 1118.88 1524.66 Q1117.67 1525.93 1117.67 1529.24 L1117.67 1532.4 L1127.31 1532.4 L1127.31 1536.95 L1117.67 1536.95 L1117.67 1568.04 L1111.78 1568.04 L1111.78 1536.95 L1106.18 1536.95 L1106.18 1532.4 L1111.78 1532.4 L1111.78 1529.91 Q1111.78 1523.96 1114.55 1521.26 Q1117.32 1518.52 1123.33 1518.52 L1128.87 1518.52 Z" fill="#000000" fill-rule="nonzero" fill-opacity="1"></path><path clip-path="url(#clip420)" d="M1187.15 1561.26 L1187.15 1548.5 L1176.65 1548.5 L1176.65 1543.22 L1193.51 1543.22 L1193.51 1563.62 Q1189.79 1566.26 1185.3 1567.63 Q1180.82 1568.97 1175.72 1568.97 Q1164.58 1568.97 1158.28 1562.47 Q1152.01 1555.95 1152.01 1544.33 Q1152.01 1532.68 1158.28 1526.19 Q1164.58 1519.66 1175.72 1519.66 Q1180.37 1519.66 1184.54 1520.81 Q1188.74 1521.96 1192.27 1524.18 L1192.27 1531.03 Q1188.71 1528 1184.7 1526.48 Q1180.69 1524.95 1176.26 1524.95 Q1167.54 1524.95 1163.15 1529.82 Q1158.79 1534.69 1158.79 1544.33 Q1158.79 1553.94 1163.15 1558.81 Q1167.54 1563.68 1176.26 1563.68 Q1179.67 1563.68 1182.34 1563.11 Q1185.02 1562.51 1187.15 1561.26 Z" fill="#000000" fill-rule="nonzero" fill-opacity="1"></path><path clip-path="url(#clip420)" d="M1235.5 1548.76 L1235.5 1551.62 L1208.57 1551.62 Q1208.95 1557.67 1212.2 1560.85 Q1215.48 1564 1221.3 1564 Q1224.68 1564 1227.83 1563.17 Q1231.01 1562.35 1234.13 1560.69 L1234.13 1566.23 Q1230.98 1567.57 1227.67 1568.27 Q1224.36 1568.97 1220.95 1568.97 Q1212.42 1568.97 1207.42 1564 Q1202.46 1559.04 1202.46 1550.57 Q1202.46 1541.82 1207.17 1536.69 Q1211.91 1531.54 1219.93 1531.54 Q1227.13 1531.54 1231.3 1536.18 Q1235.5 1540.8 1235.5 1548.76 M1229.64 1547.04 Q1229.58 1542.23 1226.93 1539.37 Q1224.33 1536.5 1220 1536.5 Q1215.09 1536.5 1212.13 1539.27 Q1209.21 1542.04 1208.76 1547.07 L1229.64 1547.04 Z" fill="#000000" fill-rule="nonzero" fill-opacity="1"></path><path clip-path="url(#clip420)" d="M1258.92 1536.5 Q1254.21 1536.5 1251.47 1540.19 Q1248.74 1543.85 1248.74 1550.25 Q1248.74 1556.65 1251.44 1560.34 Q1254.18 1564 1258.92 1564 Q1263.6 1564 1266.34 1560.31 Q1269.08 1556.62 1269.08 1550.25 Q1269.08 1543.92 1266.34 1540.23 Q1263.6 1536.5 1258.92 1536.5 M1258.92 1531.54 Q1266.56 1531.54 1270.92 1536.5 Q1275.28 1541.47 1275.28 1550.25 Q1275.28 1559 1270.92 1564 Q1266.56 1568.97 1258.92 1568.97 Q1251.25 1568.97 1246.89 1564 Q1242.56 1559 1242.56 1550.25 Q1242.56 1541.47 1246.89 1536.5 Q1251.25 1531.54 1258.92 1531.54 Z" fill="#000000" fill-rule="nonzero" fill-opacity="1"></path><path clip-path="url(#clip420)" d="M1308.45 1549.81 Q1308.45 1543.44 1305.81 1539.94 Q1303.2 1536.44 1298.45 1536.44 Q1293.74 1536.44 1291.1 1539.94 Q1288.49 1543.44 1288.49 1549.81 Q1288.49 1556.14 1291.1 1559.64 Q1293.74 1563.14 1298.45 1563.14 Q1303.2 1563.14 1305.81 1559.64 Q1308.45 1556.14 1308.45 1549.81 M1314.3 1563.62 Q1314.3 1572.72 1310.26 1577.15 Q1306.22 1581.6 1297.88 1581.6 Q1294.79 1581.6 1292.06 1581.13 Q1289.32 1580.68 1286.74 1579.72 L1286.74 1574.03 Q1289.32 1575.43 1291.83 1576.1 Q1294.35 1576.76 1296.96 1576.76 Q1302.72 1576.76 1305.58 1573.74 Q1308.45 1570.75 1308.45 1564.67 L1308.45 1561.77 Q1306.63 1564.92 1303.8 1566.48 Q1300.97 1568.04 1297.02 1568.04 Q1290.46 1568.04 1286.45 1563.05 Q1282.44 1558.05 1282.44 1549.81 Q1282.44 1541.53 1286.45 1536.53 Q1290.46 1531.54 1297.02 1531.54 Q1300.97 1531.54 1303.8 1533.1 Q1306.63 1534.66 1308.45 1537.81 L1308.45 1532.4 L1314.3 1532.4 L1314.3 1563.62 Z" fill="#000000" fill-rule="nonzero" fill-opacity="1"></path><path clip-path="url(#clip420)" d="M1347.02 1537.87 Q1346.04 1537.3 1344.86 1537.04 Q1343.71 1536.76 1342.31 1536.76 Q1337.35 1536.76 1334.67 1540 Q1332.03 1543.22 1332.03 1549.27 L1332.03 1568.04 L1326.14 1568.04 L1326.14 1532.4 L1332.03 1532.4 L1332.03 1537.93 Q1333.88 1534.69 1336.84 1533.13 Q1339.8 1531.54 1344.03 1531.54 Q1344.64 1531.54 1345.37 1531.63 Q1346.1 1531.7 1346.99 1531.85 L1347.02 1537.87 Z" fill="#000000" fill-rule="nonzero" fill-opacity="1"></path><path clip-path="url(#clip420)" d="M1369.37 1550.12 Q1362.27 1550.12 1359.53 1551.75 Q1356.8 1553.37 1356.8 1557.29 Q1356.8 1560.4 1358.83 1562.25 Q1360.9 1564.07 1364.43 1564.07 Q1369.3 1564.07 1372.23 1560.63 Q1375.19 1557.16 1375.19 1551.43 L1375.19 1550.12 L1369.37 1550.12 M1381.05 1547.71 L1381.05 1568.04 L1375.19 1568.04 L1375.19 1562.63 Q1373.19 1565.88 1370.2 1567.44 Q1367.2 1568.97 1362.87 1568.97 Q1357.4 1568.97 1354.15 1565.91 Q1350.94 1562.82 1350.94 1557.67 Q1350.94 1551.65 1354.95 1548.6 Q1358.99 1545.54 1366.98 1545.54 L1375.19 1545.54 L1375.19 1544.97 Q1375.19 1540.93 1372.52 1538.73 Q1369.88 1536.5 1365.07 1536.5 Q1362.02 1536.5 1359.12 1537.23 Q1356.22 1537.97 1353.55 1539.43 L1353.55 1534.02 Q1356.76 1532.78 1359.79 1532.17 Q1362.81 1531.54 1365.68 1531.54 Q1373.41 1531.54 1377.23 1535.55 Q1381.05 1539.56 1381.05 1547.71 Z" fill="#000000" fill-rule="nonzero" fill-opacity="1"></path><path clip-path="url(#clip420)" d="M1398.78 1562.7 L1398.78 1581.6 L1392.89 1581.6 L1392.89 1532.4 L1398.78 1532.4 L1398.78 1537.81 Q1400.62 1534.62 1403.42 1533.1 Q1406.26 1531.54 1410.17 1531.54 Q1416.66 1531.54 1420.71 1536.69 Q1424.78 1541.85 1424.78 1550.25 Q1424.78 1558.65 1420.71 1563.81 Q1416.66 1568.97 1410.17 1568.97 Q1406.26 1568.97 1403.42 1567.44 Q1400.62 1565.88 1398.78 1562.7 M1418.7 1550.25 Q1418.7 1543.79 1416.03 1540.13 Q1413.39 1536.44 1408.74 1536.44 Q1404.09 1536.44 1401.42 1540.13 Q1398.78 1543.79 1398.78 1550.25 Q1398.78 1556.71 1401.42 1560.4 Q1404.09 1564.07 1408.74 1564.07 Q1413.39 1564.07 1416.03 1560.4 Q1418.7 1556.71 1418.7 1550.25 Z" fill="#000000" fill-rule="nonzero" fill-opacity="1"></path><path clip-path="url(#clip420)" d="M1464.12 1546.53 L1464.12 1568.04 L1458.26 1568.04 L1458.26 1546.72 Q1458.26 1541.66 1456.29 1539.14 Q1454.32 1536.63 1450.37 1536.63 Q1445.63 1536.63 1442.89 1539.65 Q1440.15 1542.68 1440.15 1547.9 L1440.15 1568.04 L1434.27 1568.04 L1434.27 1518.52 L1440.15 1518.52 L1440.15 1537.93 Q1442.25 1534.72 1445.09 1533.13 Q1447.95 1531.54 1451.68 1531.54 Q1457.82 1531.54 1460.97 1535.36 Q1464.12 1539.14 1464.12 1546.53 Z" fill="#000000" fill-rule="nonzero" fill-opacity="1"></path><path clip-path="url(#clip420)" d="M1475.8 1532.4 L1481.66 1532.4 L1481.66 1568.04 L1475.8 1568.04 L1475.8 1532.4 M1475.8 1518.52 L1481.66 1518.52 L1481.66 1525.93 L1475.8 1525.93 L1475.8 1518.52 Z" fill="#000000" fill-rule="nonzero" fill-opacity="1"></path><path clip-path="url(#clip420)" d="M1519.57 1533.76 L1519.57 1539.24 Q1517.08 1537.87 1514.57 1537.2 Q1512.09 1536.5 1509.54 1536.5 Q1503.84 1536.5 1500.69 1540.13 Q1497.54 1543.73 1497.54 1550.25 Q1497.54 1556.78 1500.69 1560.4 Q1503.84 1564 1509.54 1564 Q1512.09 1564 1514.57 1563.33 Q1517.08 1562.63 1519.57 1561.26 L1519.57 1566.68 Q1517.12 1567.82 1514.47 1568.39 Q1511.86 1568.97 1508.9 1568.97 Q1500.85 1568.97 1496.11 1563.91 Q1491.37 1558.85 1491.37 1550.25 Q1491.37 1541.53 1496.14 1536.53 Q1500.95 1531.54 1509.29 1531.54 Q1511.99 1531.54 1514.57 1532.11 Q1517.15 1532.65 1519.57 1533.76 Z" fill="#000000" fill-rule="nonzero" fill-opacity="1"></path><path clip-path="url(#clip420)" d="M1573.26 1545.76 Q1575.33 1546.46 1577.27 1548.76 Q1579.24 1551.05 1581.22 1555.06 L1587.74 1568.04 L1580.84 1568.04 L1574.76 1555.85 Q1572.4 1551.08 1570.17 1549.52 Q1567.98 1547.96 1564.16 1547.96 L1557.16 1547.96 L1557.16 1568.04 L1550.73 1568.04 L1550.73 1520.52 L1565.24 1520.52 Q1573.39 1520.52 1577.4 1523.93 Q1581.41 1527.34 1581.41 1534.21 Q1581.41 1538.7 1579.31 1541.66 Q1577.24 1544.62 1573.26 1545.76 M1557.16 1525.81 L1557.16 1542.68 L1565.24 1542.68 Q1569.89 1542.68 1572.24 1540.54 Q1574.63 1538.38 1574.63 1534.21 Q1574.63 1530.04 1572.24 1527.94 Q1569.89 1525.81 1565.24 1525.81 L1557.16 1525.81 Z" fill="#000000" fill-rule="nonzero" fill-opacity="1"></path><path clip-path="url(#clip420)" d="M1623.33 1548.76 L1623.33 1551.62 L1596.4 1551.62 Q1596.78 1557.67 1600.03 1560.85 Q1603.31 1564 1609.13 1564 Q1612.51 1564 1615.66 1563.17 Q1618.84 1562.35 1621.96 1560.69 L1621.96 1566.23 Q1618.81 1567.57 1615.5 1568.27 Q1612.19 1568.97 1608.78 1568.97 Q1600.25 1568.97 1595.25 1564 Q1590.29 1559.04 1590.29 1550.57 Q1590.29 1541.82 1595 1536.69 Q1599.74 1531.54 1607.76 1531.54 Q1614.96 1531.54 1619.13 1536.18 Q1623.33 1540.8 1623.33 1548.76 M1617.47 1547.04 Q1617.41 1542.23 1614.77 1539.37 Q1612.16 1536.5 1607.83 1536.5 Q1602.93 1536.5 1599.97 1539.27 Q1597.04 1542.04 1596.59 1547.07 L1617.47 1547.04 Z" fill="#000000" fill-rule="nonzero" fill-opacity="1"></path><path clip-path="url(#clip420)" d="M1656.4 1549.81 Q1656.4 1543.44 1653.76 1539.94 Q1651.15 1536.44 1646.4 1536.44 Q1641.69 1536.44 1639.05 1539.94 Q1636.44 1543.44 1636.44 1549.81 Q1636.44 1556.14 1639.05 1559.64 Q1641.69 1563.14 1646.4 1563.14 Q1651.15 1563.14 1653.76 1559.64 Q1656.4 1556.14 1656.4 1549.81 M1662.25 1563.62 Q1662.25 1572.72 1658.21 1577.15 Q1654.17 1581.6 1645.83 1581.6 Q1642.74 1581.6 1640.01 1581.13 Q1637.27 1580.68 1634.69 1579.72 L1634.69 1574.03 Q1637.27 1575.43 1639.78 1576.1 Q1642.3 1576.76 1644.91 1576.76 Q1650.67 1576.76 1653.53 1573.74 Q1656.4 1570.75 1656.4 1564.67 L1656.4 1561.77 Q1654.58 1564.92 1651.75 1566.48 Q1648.92 1568.04 1644.97 1568.04 Q1638.41 1568.04 1634.4 1563.05 Q1630.39 1558.05 1630.39 1549.81 Q1630.39 1541.53 1634.4 1536.53 Q1638.41 1531.54 1644.97 1531.54 Q1648.92 1531.54 1651.75 1533.1 Q1654.58 1534.66 1656.4 1537.81 L1656.4 1532.4 L1662.25 1532.4 L1662.25 1563.62 Z" fill="#000000" fill-rule="nonzero" fill-opacity="1"></path><path clip-path="url(#clip420)" d="M1674.32 1532.4 L1680.17 1532.4 L1680.17 1568.04 L1674.32 1568.04 L1674.32 1532.4 M1674.32 1518.52 L1680.17 1518.52 L1680.17 1525.93 L1674.32 1525.93 L1674.32 1518.52 Z" fill="#000000" fill-rule="nonzero" fill-opacity="1"></path><path clip-path="url(#clip420)" d="M1706.24 1536.5 Q1701.53 1536.5 1698.79 1540.19 Q1696.06 1543.85 1696.06 1550.25 Q1696.06 1556.65 1698.76 1560.34 Q1701.5 1564 1706.24 1564 Q1710.92 1564 1713.66 1560.31 Q1716.39 1556.62 1716.39 1550.25 Q1716.39 1543.92 1713.66 1540.23 Q1710.92 1536.5 1706.24 1536.5 M1706.24 1531.54 Q1713.88 1531.54 1718.24 1536.5 Q1722.6 1541.47 1722.6 1550.25 Q1722.6 1559 1718.24 1564 Q1713.88 1568.97 1706.24 1568.97 Q1698.57 1568.97 1694.21 1564 Q1689.88 1559 1689.88 1550.25 Q1689.88 1541.47 1694.21 1536.5 Q1698.57 1531.54 1706.24 1531.54 Z" fill="#000000" fill-rule="nonzero" fill-opacity="1"></path><path clip-path="url(#clip420)" d="M1761.94 1546.53 L1761.94 1568.04 L1756.08 1568.04 L1756.08 1546.72 Q1756.08 1541.66 1754.11 1539.14 Q1752.14 1536.63 1748.19 1536.63 Q1743.45 1536.63 1740.71 1539.65 Q1737.97 1542.68 1737.97 1547.9 L1737.97 1568.04 L1732.09 1568.04 L1732.09 1532.4 L1737.97 1532.4 L1737.97 1537.93 Q1740.07 1534.72 1742.91 1533.13 Q1745.77 1531.54 1749.5 1531.54 Q1755.64 1531.54 1758.79 1535.36 Q1761.94 1539.14 1761.94 1546.53 Z" fill="#000000" fill-rule="nonzero" fill-opacity="1"></path><path clip-path="url(#clip420)" d="M1796.35 1533.45 L1796.35 1538.98 Q1793.86 1537.71 1791.19 1537.07 Q1788.52 1536.44 1785.65 1536.44 Q1781.29 1536.44 1779.1 1537.77 Q1776.93 1539.11 1776.93 1541.79 Q1776.93 1543.82 1778.49 1545 Q1780.05 1546.15 1784.76 1547.2 L1786.77 1547.64 Q1793.01 1548.98 1795.62 1551.43 Q1798.26 1553.85 1798.26 1558.21 Q1798.26 1563.17 1794.31 1566.07 Q1790.4 1568.97 1783.52 1568.97 Q1780.66 1568.97 1777.54 1568.39 Q1774.45 1567.85 1771.01 1566.74 L1771.01 1560.69 Q1774.26 1562.38 1777.41 1563.24 Q1780.56 1564.07 1783.65 1564.07 Q1787.79 1564.07 1790.01 1562.66 Q1792.24 1561.23 1792.24 1558.65 Q1792.24 1556.27 1790.62 1554.99 Q1789.03 1553.72 1783.58 1552.54 L1781.55 1552.07 Q1776.1 1550.92 1773.69 1548.56 Q1771.27 1546.18 1771.27 1542.04 Q1771.27 1537.01 1774.83 1534.27 Q1778.4 1531.54 1784.95 1531.54 Q1788.2 1531.54 1791.06 1532.01 Q1793.93 1532.49 1796.35 1533.45 Z" fill="#000000" fill-rule="nonzero" fill-opacity="1"></path><polyline clip-path="url(#clip422)" style="stroke:#000000; stroke-linecap:round; stroke-linejoin:round; stroke-width:2; stroke-opacity:0.1; fill:none" points="234.125,1386.43 2352.76,1386.43 "></polyline>
<polyline clip-path="url(#clip422)" style="stroke:#000000; stroke-linecap:round; stroke-linejoin:round; stroke-width:2; stroke-opacity:0.1; fill:none" points="234.125,1118.18 2352.76,1118.18 "></polyline>
<polyline clip-path="url(#clip422)" style="stroke:#000000; stroke-linecap:round; stroke-linejoin:round; stroke-width:2; stroke-opacity:0.1; fill:none" points="234.125,849.934 2352.76,849.934 "></polyline>
<polyline clip-path="url(#clip422)" style="stroke:#000000; stroke-linecap:round; stroke-linejoin:round; stroke-width:2; stroke-opacity:0.1; fill:none" points="234.125,581.687 2352.76,581.687 "></polyline>
<polyline clip-path="url(#clip422)" style="stroke:#000000; stroke-linecap:round; stroke-linejoin:round; stroke-width:2; stroke-opacity:0.1; fill:none" points="234.125,313.439 2352.76,313.439 "></polyline>
<polyline clip-path="url(#clip420)" style="stroke:#000000; stroke-linecap:round; stroke-linejoin:round; stroke-width:4; stroke-opacity:1; fill:none" points="234.125,1423.18 234.125,123.472 "></polyline>
<polyline clip-path="url(#clip420)" style="stroke:#000000; stroke-linecap:round; stroke-linejoin:round; stroke-width:4; stroke-opacity:1; fill:none" points="234.125,1386.43 253.023,1386.43 "></polyline>
<polyline clip-path="url(#clip420)" style="stroke:#000000; stroke-linecap:round; stroke-linejoin:round; stroke-width:4; stroke-opacity:1; fill:none" points="234.125,1118.18 253.023,1118.18 "></polyline>
<polyline clip-path="url(#clip420)" style="stroke:#000000; stroke-linecap:round; stroke-linejoin:round; stroke-width:4; stroke-opacity:1; fill:none" points="234.125,849.934 253.023,849.934 "></polyline>
<polyline clip-path="url(#clip420)" style="stroke:#000000; stroke-linecap:round; stroke-linejoin:round; stroke-width:4; stroke-opacity:1; fill:none" points="234.125,581.687 253.023,581.687 "></polyline>
<polyline clip-path="url(#clip420)" style="stroke:#000000; stroke-linecap:round; stroke-linejoin:round; stroke-width:4; stroke-opacity:1; fill:none" points="234.125,313.439 253.023,313.439 "></polyline>
<path clip-path="url(#clip420)" d="M186.181 1372.23 Q182.57 1372.23 180.741 1375.79 Q178.936 1379.33 178.936 1386.46 Q178.936 1393.57 180.741 1397.13 Q182.57 1400.68 186.181 1400.68 Q189.815 1400.68 191.621 1397.13 Q193.45 1393.57 193.45 1386.46 Q193.45 1379.33 191.621 1375.79 Q189.815 1372.23 186.181 1372.23 M186.181 1368.52 Q191.991 1368.52 195.047 1373.13 Q198.125 1377.71 198.125 1386.46 Q198.125 1395.19 195.047 1399.8 Q191.991 1404.38 186.181 1404.38 Q180.371 1404.38 177.292 1399.8 Q174.237 1395.19 174.237 1386.46 Q174.237 1377.71 177.292 1373.13 Q180.371 1368.52 186.181 1368.52 Z" fill="#000000" fill-rule="nonzero" fill-opacity="1"></path><path clip-path="url(#clip420)" d="M146.066 1100.9 L164.422 1100.9 L164.422 1104.84 L150.348 1104.84 L150.348 1113.31 Q151.366 1112.96 152.385 1112.8 Q153.403 1112.61 154.422 1112.61 Q160.209 1112.61 163.589 1115.79 Q166.968 1118.96 166.968 1124.37 Q166.968 1129.95 163.496 1133.05 Q160.024 1136.13 153.704 1136.13 Q151.528 1136.13 149.26 1135.76 Q147.015 1135.39 144.607 1134.65 L144.607 1129.95 Q146.691 1131.09 148.913 1131.64 Q151.135 1132.2 153.612 1132.2 Q157.616 1132.2 159.954 1130.09 Q162.292 1127.98 162.292 1124.37 Q162.292 1120.76 159.954 1118.66 Q157.616 1116.55 153.612 1116.55 Q151.737 1116.55 149.862 1116.97 Q148.01 1117.38 146.066 1118.26 L146.066 1100.9 Z" fill="#000000" fill-rule="nonzero" fill-opacity="1"></path><path clip-path="url(#clip420)" d="M186.181 1103.98 Q182.57 1103.98 180.741 1107.54 Q178.936 1111.09 178.936 1118.22 Q178.936 1125.32 180.741 1128.89 Q182.57 1132.43 186.181 1132.43 Q189.815 1132.43 191.621 1128.89 Q193.45 1125.32 193.45 1118.22 Q193.45 1111.09 191.621 1107.54 Q189.815 1103.98 186.181 1103.98 M186.181 1100.28 Q191.991 1100.28 195.047 1104.88 Q198.125 1109.47 198.125 1118.22 Q198.125 1126.94 195.047 1131.55 Q191.991 1136.13 186.181 1136.13 Q180.371 1136.13 177.292 1131.55 Q174.237 1126.94 174.237 1118.22 Q174.237 1109.47 177.292 1104.88 Q180.371 1100.28 186.181 1100.28 Z" fill="#000000" fill-rule="nonzero" fill-opacity="1"></path><path clip-path="url(#clip420)" d="M116.668 863.279 L124.306 863.279 L124.306 836.913 L115.996 838.58 L115.996 834.321 L124.26 832.654 L128.936 832.654 L128.936 863.279 L136.575 863.279 L136.575 867.214 L116.668 867.214 L116.668 863.279 Z" fill="#000000" fill-rule="nonzero" fill-opacity="1"></path><path clip-path="url(#clip420)" d="M156.019 835.733 Q152.408 835.733 150.579 839.298 Q148.774 842.839 148.774 849.969 Q148.774 857.075 150.579 860.64 Q152.408 864.182 156.019 864.182 Q159.653 864.182 161.459 860.64 Q163.288 857.075 163.288 849.969 Q163.288 842.839 161.459 839.298 Q159.653 835.733 156.019 835.733 M156.019 832.029 Q161.829 832.029 164.885 836.636 Q167.964 841.219 167.964 849.969 Q167.964 858.696 164.885 863.302 Q161.829 867.885 156.019 867.885 Q150.209 867.885 147.13 863.302 Q144.075 858.696 144.075 849.969 Q144.075 841.219 147.13 836.636 Q150.209 832.029 156.019 832.029 Z" fill="#000000" fill-rule="nonzero" fill-opacity="1"></path><path clip-path="url(#clip420)" d="M186.181 835.733 Q182.57 835.733 180.741 839.298 Q178.936 842.839 178.936 849.969 Q178.936 857.075 180.741 860.64 Q182.57 864.182 186.181 864.182 Q189.815 864.182 191.621 860.64 Q193.45 857.075 193.45 849.969 Q193.45 842.839 191.621 839.298 Q189.815 835.733 186.181 835.733 M186.181 832.029 Q191.991 832.029 195.047 836.636 Q198.125 841.219 198.125 849.969 Q198.125 858.696 195.047 863.302 Q191.991 867.885 186.181 867.885 Q180.371 867.885 177.292 863.302 Q174.237 858.696 174.237 849.969 Q174.237 841.219 177.292 836.636 Q180.371 832.029 186.181 832.029 Z" fill="#000000" fill-rule="nonzero" fill-opacity="1"></path><path clip-path="url(#clip420)" d="M116.668 595.032 L124.306 595.032 L124.306 568.666 L115.996 570.333 L115.996 566.073 L124.26 564.407 L128.936 564.407 L128.936 595.032 L136.575 595.032 L136.575 598.967 L116.668 598.967 L116.668 595.032 Z" fill="#000000" fill-rule="nonzero" fill-opacity="1"></path><path clip-path="url(#clip420)" d="M146.066 564.407 L164.422 564.407 L164.422 568.342 L150.348 568.342 L150.348 576.814 Q151.366 576.467 152.385 576.305 Q153.403 576.12 154.422 576.12 Q160.209 576.12 163.589 579.291 Q166.968 582.462 166.968 587.879 Q166.968 593.457 163.496 596.559 Q160.024 599.638 153.704 599.638 Q151.528 599.638 149.26 599.268 Q147.015 598.897 144.607 598.157 L144.607 593.457 Q146.691 594.592 148.913 595.147 Q151.135 595.703 153.612 595.703 Q157.616 595.703 159.954 593.596 Q162.292 591.49 162.292 587.879 Q162.292 584.268 159.954 582.161 Q157.616 580.055 153.612 580.055 Q151.737 580.055 149.862 580.471 Q148.01 580.888 146.066 581.768 L146.066 564.407 Z" fill="#000000" fill-rule="nonzero" fill-opacity="1"></path><path clip-path="url(#clip420)" d="M186.181 567.485 Q182.57 567.485 180.741 571.05 Q178.936 574.592 178.936 581.721 Q178.936 588.828 180.741 592.393 Q182.57 595.934 186.181 595.934 Q189.815 595.934 191.621 592.393 Q193.45 588.828 193.45 581.721 Q193.45 574.592 191.621 571.05 Q189.815 567.485 186.181 567.485 M186.181 563.782 Q191.991 563.782 195.047 568.388 Q198.125 572.971 198.125 581.721 Q198.125 590.448 195.047 595.055 Q191.991 599.638 186.181 599.638 Q180.371 599.638 177.292 595.055 Q174.237 590.448 174.237 581.721 Q174.237 572.971 177.292 568.388 Q180.371 563.782 186.181 563.782 Z" fill="#000000" fill-rule="nonzero" fill-opacity="1"></path><path clip-path="url(#clip420)" d="M119.885 326.784 L136.204 326.784 L136.204 330.719 L114.26 330.719 L114.26 326.784 Q116.922 324.03 121.505 319.4 Q126.112 314.747 127.292 313.405 Q129.538 310.881 130.417 309.145 Q131.32 307.386 131.32 305.696 Q131.32 302.942 129.376 301.206 Q127.455 299.469 124.353 299.469 Q122.154 299.469 119.7 300.233 Q117.269 300.997 114.492 302.548 L114.492 297.826 Q117.316 296.692 119.769 296.113 Q122.223 295.534 124.26 295.534 Q129.63 295.534 132.825 298.22 Q136.019 300.905 136.019 305.395 Q136.019 307.525 135.209 309.446 Q134.422 311.344 132.316 313.937 Q131.737 314.608 128.635 317.826 Q125.533 321.02 119.885 326.784 Z" fill="#000000" fill-rule="nonzero" fill-opacity="1"></path><path clip-path="url(#clip420)" d="M156.019 299.238 Q152.408 299.238 150.579 302.803 Q148.774 306.344 148.774 313.474 Q148.774 320.58 150.579 324.145 Q152.408 327.687 156.019 327.687 Q159.653 327.687 161.459 324.145 Q163.288 320.58 163.288 313.474 Q163.288 306.344 161.459 302.803 Q159.653 299.238 156.019 299.238 M156.019 295.534 Q161.829 295.534 164.885 300.141 Q167.964 304.724 167.964 313.474 Q167.964 322.201 164.885 326.807 Q161.829 331.391 156.019 331.391 Q150.209 331.391 147.13 326.807 Q144.075 322.201 144.075 313.474 Q144.075 304.724 147.13 300.141 Q150.209 295.534 156.019 295.534 Z" fill="#000000" fill-rule="nonzero" fill-opacity="1"></path><path clip-path="url(#clip420)" d="M186.181 299.238 Q182.57 299.238 180.741 302.803 Q178.936 306.344 178.936 313.474 Q178.936 320.58 180.741 324.145 Q182.57 327.687 186.181 327.687 Q189.815 327.687 191.621 324.145 Q193.45 320.58 193.45 313.474 Q193.45 306.344 191.621 302.803 Q189.815 299.238 186.181 299.238 M186.181 295.534 Q191.991 295.534 195.047 300.141 Q198.125 304.724 198.125 313.474 Q198.125 322.201 195.047 326.807 Q191.991 331.391 186.181 331.391 Q180.371 331.391 177.292 326.807 Q174.237 322.201 174.237 313.474 Q174.237 304.724 177.292 300.141 Q180.371 295.534 186.181 295.534 Z" fill="#000000" fill-rule="nonzero" fill-opacity="1"></path><path clip-path="url(#clip420)" d="M41.7242 971.665 Q42.4244 969.597 44.7161 967.655 Q47.0077 965.682 51.0181 963.708 L64.0042 957.184 L64.0042 964.09 L51.8138 970.17 Q47.0395 972.525 45.48 974.753 Q43.9204 976.949 43.9204 980.768 L43.9204 987.771 L64.0042 987.771 L64.0042 994.2 L16.4842 994.2 L16.4842 979.686 Q16.4842 971.538 19.8898 967.528 Q23.2955 963.517 30.1704 963.517 Q34.6582 963.517 37.6183 965.618 Q40.5784 967.687 41.7242 971.665 M21.7677 987.771 L38.6368 987.771 L38.6368 979.686 Q38.6368 975.039 36.5043 972.684 Q34.34 970.297 30.1704 970.297 Q26.0009 970.297 23.9002 972.684 Q21.7677 975.039 21.7677 979.686 L21.7677 987.771 Z" fill="#000000" fill-rule="nonzero" fill-opacity="1"></path><path clip-path="url(#clip420)" d="M49.9359 952.696 L28.3562 952.696 L28.3562 946.839 L49.7131 946.839 Q54.7739 946.839 57.3202 944.866 Q59.8346 942.892 59.8346 938.946 Q59.8346 934.203 56.8109 931.466 Q53.7872 928.697 48.5673 928.697 L28.3562 928.697 L28.3562 922.841 L64.0042 922.841 L64.0042 928.697 L58.5296 928.697 Q61.7762 930.829 63.3676 933.662 Q64.9272 936.463 64.9272 940.187 Q64.9272 946.33 61.1078 949.513 Q57.2883 952.696 49.9359 952.696 M27.4968 937.959 L27.4968 937.959 Z" fill="#000000" fill-rule="nonzero" fill-opacity="1"></path><path clip-path="url(#clip420)" d="M42.4881 881.145 L64.0042 881.145 L64.0042 887.002 L42.679 887.002 Q37.6183 887.002 35.1038 888.975 Q32.5894 890.948 32.5894 894.895 Q32.5894 899.638 35.6131 902.375 Q38.6368 905.112 43.8567 905.112 L64.0042 905.112 L64.0042 911 L28.3562 911 L28.3562 905.112 L33.8944 905.112 Q30.6797 903.011 29.0883 900.179 Q27.4968 897.314 27.4968 893.59 Q27.4968 887.447 31.3163 884.296 Q35.1038 881.145 42.4881 881.145 Z" fill="#000000" fill-rule="nonzero" fill-opacity="1"></path><path clip-path="url(#clip420)" d="M18.2347 863.671 L28.3562 863.671 L28.3562 851.608 L32.9077 851.608 L32.9077 863.671 L52.2594 863.671 Q56.6199 863.671 57.8613 862.494 Q59.1026 861.284 59.1026 857.624 L59.1026 851.608 L64.0042 851.608 L64.0042 857.624 Q64.0042 864.403 61.4897 866.981 Q58.9434 869.56 52.2594 869.56 L32.9077 869.56 L32.9077 873.856 L28.3562 873.856 L28.3562 869.56 L18.2347 869.56 L18.2347 863.671 Z" fill="#000000" fill-rule="nonzero" fill-opacity="1"></path><path clip-path="url(#clip420)" d="M28.3562 843.906 L28.3562 838.049 L64.0042 838.049 L64.0042 843.906 L28.3562 843.906 M14.479 843.906 L14.479 838.049 L21.895 838.049 L21.895 843.906 L14.479 843.906 Z" fill="#000000" fill-rule="nonzero" fill-opacity="1"></path><path clip-path="url(#clip420)" d="M35.1993 798.041 Q31.2526 795.845 29.3747 792.789 Q27.4968 789.734 27.4968 785.596 Q27.4968 780.026 31.4117 777.002 Q35.2948 773.978 42.4881 773.978 L64.0042 773.978 L64.0042 779.867 L42.679 779.867 Q37.5546 779.867 35.072 781.681 Q32.5894 783.495 32.5894 787.219 Q32.5894 791.771 35.6131 794.412 Q38.6368 797.054 43.8567 797.054 L64.0042 797.054 L64.0042 802.942 L42.679 802.942 Q37.5228 802.942 35.072 804.757 Q32.5894 806.571 32.5894 810.358 Q32.5894 814.846 35.6449 817.488 Q38.6686 820.13 43.8567 820.13 L64.0042 820.13 L64.0042 826.018 L28.3562 826.018 L28.3562 820.13 L33.8944 820.13 Q30.616 818.125 29.0564 815.324 Q27.4968 812.523 27.4968 808.672 Q27.4968 804.788 29.4702 802.083 Q31.4436 799.346 35.1993 798.041 Z" fill="#000000" fill-rule="nonzero" fill-opacity="1"></path><path clip-path="url(#clip420)" d="M44.7161 731.806 L47.5806 731.806 L47.5806 758.733 Q53.6281 758.351 56.8109 755.104 Q59.9619 751.826 59.9619 746.001 Q59.9619 742.627 59.1344 739.476 Q58.3069 736.293 56.6518 733.174 L62.1899 733.174 Q63.5267 736.325 64.227 739.635 Q64.9272 742.946 64.9272 746.351 Q64.9272 754.881 59.9619 759.878 Q54.9967 764.844 46.5303 764.844 Q37.7774 764.844 32.6531 760.133 Q27.4968 755.391 27.4968 747.37 Q27.4968 740.177 32.1438 736.007 Q36.7589 731.806 44.7161 731.806 M42.9973 737.662 Q38.1912 737.726 35.3266 740.368 Q32.4621 742.977 32.4621 747.306 Q32.4621 752.208 35.2312 755.168 Q38.0002 758.096 43.0292 758.542 L42.9973 737.662 Z" fill="#000000" fill-rule="nonzero" fill-opacity="1"></path><path clip-path="url(#clip420)" d="M14.5426 687.405 Q21.8632 691.67 29.0246 693.739 Q36.186 695.808 43.5384 695.808 Q50.8908 695.808 58.1159 693.739 Q65.3091 691.638 72.5979 687.405 L72.5979 692.497 Q65.1182 697.272 57.8931 699.659 Q50.668 702.014 43.5384 702.014 Q36.4406 702.014 29.2474 699.659 Q22.0542 697.304 14.5426 692.497 L14.5426 687.405 Z" fill="#000000" fill-rule="nonzero" fill-opacity="1"></path><path clip-path="url(#clip420)" d="M29.4065 653.316 L34.9447 653.316 Q33.6716 655.799 33.035 658.473 Q32.3984 661.146 32.3984 664.011 Q32.3984 668.371 33.7352 670.568 Q35.072 672.732 37.7456 672.732 Q39.7826 672.732 40.9603 671.172 Q42.1061 669.613 43.1565 664.902 L43.6021 662.897 Q44.9389 656.658 47.3897 654.049 Q49.8086 651.407 54.1691 651.407 Q59.1344 651.407 62.0308 655.354 Q64.9272 659.268 64.9272 666.143 Q64.9272 669.008 64.3543 672.127 Q63.8132 675.215 62.6992 678.652 L56.6518 678.652 Q58.3387 675.406 59.198 672.254 Q60.0256 669.103 60.0256 666.016 Q60.0256 661.878 58.6251 659.65 Q57.1929 657.422 54.6147 657.422 Q52.2276 657.422 50.9545 659.046 Q49.6813 660.637 48.5037 666.08 L48.0262 668.117 Q46.8804 673.559 44.5251 675.978 Q42.138 678.397 38.0002 678.397 Q32.9713 678.397 30.2341 674.833 Q27.4968 671.268 27.4968 664.711 Q27.4968 661.465 27.9743 658.6 Q28.4517 655.735 29.4065 653.316 Z" fill="#000000" fill-rule="nonzero" fill-opacity="1"></path><path clip-path="url(#clip420)" d="M44.7161 611.589 L47.5806 611.589 L47.5806 638.516 Q53.6281 638.134 56.8109 634.888 Q59.9619 631.609 59.9619 625.785 Q59.9619 622.411 59.1344 619.26 Q58.3069 616.077 56.6518 612.958 L62.1899 612.958 Q63.5267 616.109 64.227 619.419 Q64.9272 622.729 64.9272 626.135 Q64.9272 634.665 59.9619 639.662 Q54.9967 644.627 46.5303 644.627 Q37.7774 644.627 32.6531 639.917 Q27.4968 635.174 27.4968 627.153 Q27.4968 619.96 32.1438 615.791 Q36.7589 611.589 44.7161 611.589 M42.9973 617.446 Q38.1912 617.509 35.3266 620.151 Q32.4621 622.761 32.4621 627.09 Q32.4621 631.991 35.2312 634.951 Q38.0002 637.88 43.0292 638.325 L42.9973 617.446 Z" fill="#000000" fill-rule="nonzero" fill-opacity="1"></path><path clip-path="url(#clip420)" d="M29.7248 576.323 L35.1993 576.323 Q33.8307 578.806 33.1623 581.32 Q32.4621 583.803 32.4621 586.349 Q32.4621 592.047 36.0905 595.198 Q39.6872 598.349 46.212 598.349 Q52.7369 598.349 56.3653 595.198 Q59.9619 592.047 59.9619 586.349 Q59.9619 583.803 59.2935 581.32 Q58.5933 578.806 57.2247 576.323 L62.6355 576.323 Q63.7814 578.774 64.3543 581.416 Q64.9272 584.026 64.9272 586.986 Q64.9272 595.038 59.8664 599.781 Q54.8057 604.523 46.212 604.523 Q37.491 604.523 32.4939 599.749 Q27.4968 594.943 27.4968 586.604 Q27.4968 583.898 28.0697 581.32 Q28.6108 578.742 29.7248 576.323 Z" fill="#000000" fill-rule="nonzero" fill-opacity="1"></path><path clip-path="url(#clip420)" d="M14.5426 567.061 L14.5426 561.969 Q22.0542 557.194 29.2474 554.839 Q36.4406 552.452 43.5384 552.452 Q50.668 552.452 57.8931 554.839 Q65.1182 557.194 72.5979 561.969 L72.5979 567.061 Q65.3091 562.828 58.1159 560.759 Q50.8908 558.658 43.5384 558.658 Q36.186 558.658 29.0246 560.759 Q21.8632 562.828 14.5426 567.061 Z" fill="#000000" fill-rule="nonzero" fill-opacity="1"></path><path clip-path="url(#clip420)" d="M433.839 44.2197 Q436.472 45.1109 438.943 48.0275 Q441.455 50.9442 443.966 56.0483 L452.27 72.576 L443.48 72.576 L435.743 57.061 Q432.745 50.9847 429.909 48.9997 Q427.114 47.0148 422.253 47.0148 L413.341 47.0148 L413.341 72.576 L405.158 72.576 L405.158 12.096 L423.631 12.096 Q434.001 12.096 439.105 16.4305 Q444.209 20.7649 444.209 29.5149 Q444.209 35.2267 441.536 38.994 Q438.902 42.7613 433.839 44.2197 M413.341 18.8205 L413.341 40.2903 L423.631 40.2903 Q429.545 40.2903 432.543 37.5762 Q435.581 34.8216 435.581 29.5149 Q435.581 24.2082 432.543 21.5346 Q429.545 18.8205 423.631 18.8205 L413.341 18.8205 Z" fill="#000000" fill-rule="nonzero" fill-opacity="1"></path><path clip-path="url(#clip420)" d="M457.982 54.671 L457.982 27.2059 L465.436 27.2059 L465.436 54.3874 Q465.436 60.8284 467.947 64.0691 Q470.459 67.2693 475.482 67.2693 Q481.518 67.2693 485.002 63.421 Q488.526 59.5726 488.526 52.9291 L488.526 27.2059 L495.98 27.2059 L495.98 72.576 L488.526 72.576 L488.526 65.6084 Q485.812 69.7404 482.207 71.7658 Q478.642 73.7508 473.902 73.7508 Q466.084 73.7508 462.033 68.8897 Q457.982 64.0286 457.982 54.671 M476.738 26.1121 L476.738 26.1121 Z" fill="#000000" fill-rule="nonzero" fill-opacity="1"></path><path clip-path="url(#clip420)" d="M549.047 45.1919 L549.047 72.576 L541.593 72.576 L541.593 45.4349 Q541.593 38.994 539.081 35.7938 Q536.57 32.5936 531.547 32.5936 Q525.511 32.5936 522.027 36.4419 Q518.543 40.2903 518.543 46.9338 L518.543 72.576 L511.049 72.576 L511.049 27.2059 L518.543 27.2059 L518.543 34.2544 Q521.217 30.163 524.822 28.1376 Q528.468 26.1121 533.207 26.1121 Q541.026 26.1121 545.036 30.9732 Q549.047 35.7938 549.047 45.1919 Z" fill="#000000" fill-rule="nonzero" fill-opacity="1"></path><path clip-path="url(#clip420)" d="M571.286 14.324 L571.286 27.2059 L586.639 27.2059 L586.639 32.9987 L571.286 32.9987 L571.286 57.6282 Q571.286 63.1779 572.785 64.7578 Q574.324 66.3376 578.983 66.3376 L586.639 66.3376 L586.639 72.576 L578.983 72.576 Q570.354 72.576 567.073 69.3758 Q563.792 66.1351 563.792 57.6282 L563.792 32.9987 L558.323 32.9987 L558.323 27.2059 L563.792 27.2059 L563.792 14.324 L571.286 14.324 Z" fill="#000000" fill-rule="nonzero" fill-opacity="1"></path><path clip-path="url(#clip420)" d="M596.442 27.2059 L603.896 27.2059 L603.896 72.576 L596.442 72.576 L596.442 27.2059 M596.442 9.54393 L603.896 9.54393 L603.896 18.9825 L596.442 18.9825 L596.442 9.54393 Z" fill="#000000" fill-rule="nonzero" fill-opacity="1"></path><path clip-path="url(#clip420)" d="M654.816 35.9153 Q657.611 30.8922 661.5 28.5022 Q665.388 26.1121 670.655 26.1121 Q677.744 26.1121 681.592 31.0947 Q685.44 36.0368 685.44 45.1919 L685.44 72.576 L677.946 72.576 L677.946 45.4349 Q677.946 38.913 675.637 35.7533 Q673.328 32.5936 668.589 32.5936 Q662.796 32.5936 659.434 36.4419 Q656.071 40.2903 656.071 46.9338 L656.071 72.576 L648.577 72.576 L648.577 45.4349 Q648.577 38.8725 646.268 35.7533 Q643.959 32.5936 639.139 32.5936 Q633.427 32.5936 630.065 36.4824 Q626.702 40.3308 626.702 46.9338 L626.702 72.576 L619.208 72.576 L619.208 27.2059 L626.702 27.2059 L626.702 34.2544 Q629.254 30.082 632.819 28.0971 Q636.384 26.1121 641.286 26.1121 Q646.228 26.1121 649.671 28.6237 Q653.155 31.1352 654.816 35.9153 Z" fill="#000000" fill-rule="nonzero" fill-opacity="1"></path><path clip-path="url(#clip420)" d="M739.115 48.0275 L739.115 51.6733 L704.844 51.6733 Q705.33 59.3701 709.462 63.421 Q713.635 67.4314 721.048 67.4314 Q725.342 67.4314 729.352 66.3781 Q733.403 65.3249 737.373 63.2184 L737.373 70.267 Q733.363 71.9684 729.15 72.8596 Q724.937 73.7508 720.602 73.7508 Q709.746 73.7508 703.386 67.4314 Q697.067 61.1119 697.067 50.3365 Q697.067 39.1965 703.062 32.6746 Q709.098 26.1121 719.306 26.1121 Q728.461 26.1121 733.768 32.0264 Q739.115 37.9003 739.115 48.0275 M731.661 45.84 Q731.58 39.7232 728.218 36.0774 Q724.896 32.4315 719.387 32.4315 Q713.149 32.4315 709.381 35.9558 Q705.654 39.4801 705.087 45.8805 L731.661 45.84 Z" fill="#000000" fill-rule="nonzero" fill-opacity="1"></path><path clip-path="url(#clip420)" d="M772.373 27.2059 L780.272 27.2059 L794.45 65.2844 L808.628 27.2059 L816.528 27.2059 L799.514 72.576 L789.387 72.576 L772.373 27.2059 Z" fill="#000000" fill-rule="nonzero" fill-opacity="1"></path><path clip-path="url(#clip420)" d="M855.74 28.5427 L855.74 35.5912 Q852.581 33.9709 849.178 33.1607 Q845.775 32.3505 842.129 32.3505 Q836.58 32.3505 833.785 34.0519 Q831.03 35.7533 831.03 39.156 Q831.03 41.7486 833.015 43.2475 Q835 44.7058 840.995 46.0426 L843.547 46.6097 Q851.487 48.3111 854.809 51.4303 Q858.171 54.509 858.171 60.0587 Q858.171 66.3781 853.148 70.0644 Q848.165 73.7508 839.415 73.7508 Q835.77 73.7508 831.8 73.0216 Q827.87 72.3329 823.495 70.9151 L823.495 63.2184 Q827.627 65.3654 831.638 66.4591 Q835.648 67.5124 839.577 67.5124 Q844.844 67.5124 847.679 65.73 Q850.515 63.9071 850.515 60.6258 Q850.515 57.5877 848.449 55.9673 Q846.423 54.3469 839.496 52.8481 L836.904 52.2405 Q829.977 50.7821 826.898 47.7845 Q823.819 44.7463 823.819 39.4801 Q823.819 33.0797 828.356 29.5959 Q832.893 26.1121 841.238 26.1121 Q845.37 26.1121 849.016 26.7198 Q852.662 27.3274 855.74 28.5427 Z" fill="#000000" fill-rule="nonzero" fill-opacity="1"></path><path clip-path="url(#clip420)" d="M896.736 12.096 L907.754 12.096 L934.571 62.6918 L934.571 12.096 L942.511 12.096 L942.511 72.576 L931.492 72.576 L904.675 21.9802 L904.675 72.576 L896.736 72.576 L896.736 12.096 Z" fill="#000000" fill-rule="nonzero" fill-opacity="1"></path><path clip-path="url(#clip420)" d="M957.702 54.671 L957.702 27.2059 L965.155 27.2059 L965.155 54.3874 Q965.155 60.8284 967.667 64.0691 Q970.179 67.2693 975.202 67.2693 Q981.237 67.2693 984.721 63.421 Q988.246 59.5726 988.246 52.9291 L988.246 27.2059 L995.699 27.2059 L995.699 72.576 L988.246 72.576 L988.246 65.6084 Q985.531 69.7404 981.926 71.7658 Q978.361 73.7508 973.622 73.7508 Q965.804 73.7508 961.753 68.8897 Q957.702 64.0286 957.702 54.671 M976.457 26.1121 L976.457 26.1121 Z" fill="#000000" fill-rule="nonzero" fill-opacity="1"></path><path clip-path="url(#clip420)" d="M1046.38 35.9153 Q1049.17 30.8922 1053.06 28.5022 Q1056.95 26.1121 1062.22 26.1121 Q1069.3 26.1121 1073.15 31.0947 Q1077 36.0368 1077 45.1919 L1077 72.576 L1069.51 72.576 L1069.51 45.4349 Q1069.51 38.913 1067.2 35.7533 Q1064.89 32.5936 1060.15 32.5936 Q1054.36 32.5936 1050.99 36.4419 Q1047.63 40.2903 1047.63 46.9338 L1047.63 72.576 L1040.14 72.576 L1040.14 45.4349 Q1040.14 38.8725 1037.83 35.7533 Q1035.52 32.5936 1030.7 32.5936 Q1024.99 32.5936 1021.63 36.4824 Q1018.26 40.3308 1018.26 46.9338 L1018.26 72.576 L1010.77 72.576 L1010.77 27.2059 L1018.26 27.2059 L1018.26 34.2544 Q1020.81 30.082 1024.38 28.0971 Q1027.94 26.1121 1032.85 26.1121 Q1037.79 26.1121 1041.23 28.6237 Q1044.72 31.1352 1046.38 35.9153 Z" fill="#000000" fill-rule="nonzero" fill-opacity="1"></path><path clip-path="url(#clip420)" d="M1124.44 49.9314 Q1124.44 41.7081 1121.03 37.0496 Q1117.67 32.3505 1111.76 32.3505 Q1105.84 32.3505 1102.44 37.0496 Q1099.08 41.7081 1099.08 49.9314 Q1099.08 58.1548 1102.44 62.8538 Q1105.84 67.5124 1111.76 67.5124 Q1117.67 67.5124 1121.03 62.8538 Q1124.44 58.1548 1124.44 49.9314 M1099.08 34.0924 Q1101.43 30.0415 1104.99 28.0971 Q1108.6 26.1121 1113.58 26.1121 Q1121.84 26.1121 1126.99 32.6746 Q1132.17 39.2371 1132.17 49.9314 Q1132.17 60.6258 1126.99 67.1883 Q1121.84 73.7508 1113.58 73.7508 Q1108.6 73.7508 1104.99 71.8063 Q1101.43 69.8214 1099.08 65.7705 L1099.08 72.576 L1091.58 72.576 L1091.58 9.54393 L1099.08 9.54393 L1099.08 34.0924 Z" fill="#000000" fill-rule="nonzero" fill-opacity="1"></path><path clip-path="url(#clip420)" d="M1183.34 48.0275 L1183.34 51.6733 L1149.07 51.6733 Q1149.55 59.3701 1153.68 63.421 Q1157.86 67.4314 1165.27 67.4314 Q1169.56 67.4314 1173.57 66.3781 Q1177.63 65.3249 1181.6 63.2184 L1181.6 70.267 Q1177.58 71.9684 1173.37 72.8596 Q1169.16 73.7508 1164.82 73.7508 Q1153.97 73.7508 1147.61 67.4314 Q1141.29 61.1119 1141.29 50.3365 Q1141.29 39.1965 1147.28 32.6746 Q1153.32 26.1121 1163.53 26.1121 Q1172.68 26.1121 1177.99 32.0264 Q1183.34 37.9003 1183.34 48.0275 M1175.88 45.84 Q1175.8 39.7232 1172.44 36.0774 Q1169.12 32.4315 1163.61 32.4315 Q1157.37 32.4315 1153.6 35.9558 Q1149.88 39.4801 1149.31 45.8805 L1175.88 45.84 Z" fill="#000000" fill-rule="nonzero" fill-opacity="1"></path><path clip-path="url(#clip420)" d="M1221.86 34.1734 Q1220.61 33.4443 1219.11 33.1202 Q1217.65 32.7556 1215.87 32.7556 Q1209.55 32.7556 1206.14 36.8875 Q1202.78 40.9789 1202.78 48.6757 L1202.78 72.576 L1195.29 72.576 L1195.29 27.2059 L1202.78 27.2059 L1202.78 34.2544 Q1205.13 30.1225 1208.9 28.1376 Q1212.67 26.1121 1218.05 26.1121 Q1218.82 26.1121 1219.75 26.2337 Q1220.69 26.3147 1221.82 26.5172 L1221.86 34.1734 Z" fill="#000000" fill-rule="nonzero" fill-opacity="1"></path><path clip-path="url(#clip420)" d="M1273.63 32.4315 Q1267.64 32.4315 1264.15 37.1306 Q1260.67 41.7891 1260.67 49.9314 Q1260.67 58.0738 1264.11 62.7728 Q1267.6 67.4314 1273.63 67.4314 Q1279.59 67.4314 1283.07 62.7323 Q1286.55 58.0333 1286.55 49.9314 Q1286.55 41.8701 1283.07 37.1711 Q1279.59 32.4315 1273.63 32.4315 M1273.63 26.1121 Q1283.35 26.1121 1288.9 32.4315 Q1294.45 38.7509 1294.45 49.9314 Q1294.45 61.0714 1288.9 67.4314 Q1283.35 73.7508 1273.63 73.7508 Q1263.87 73.7508 1258.32 67.4314 Q1252.81 61.0714 1252.81 49.9314 Q1252.81 38.7509 1258.32 32.4315 Q1263.87 26.1121 1273.63 26.1121 Z" fill="#000000" fill-rule="nonzero" fill-opacity="1"></path><path clip-path="url(#clip420)" d="M1329.78 9.54393 L1329.78 15.7418 L1322.65 15.7418 Q1318.64 15.7418 1317.06 17.3622 Q1315.52 18.9825 1315.52 23.1955 L1315.52 27.2059 L1327.79 27.2059 L1327.79 32.9987 L1315.52 32.9987 L1315.52 72.576 L1308.02 72.576 L1308.02 32.9987 L1300.89 32.9987 L1300.89 27.2059 L1308.02 27.2059 L1308.02 24.0462 Q1308.02 16.471 1311.55 13.0277 Q1315.07 9.54393 1322.73 9.54393 L1329.78 9.54393 Z" fill="#000000" fill-rule="nonzero" fill-opacity="1"></path><path clip-path="url(#clip420)" d="M1403.95 63.9476 L1403.95 47.7034 L1390.58 47.7034 L1390.58 40.9789 L1412.05 40.9789 L1412.05 66.9452 Q1407.31 70.3075 1401.6 72.0494 Q1395.89 73.7508 1389.41 73.7508 Q1375.23 73.7508 1367.21 65.4869 Q1359.23 57.1826 1359.23 42.3968 Q1359.23 27.5705 1367.21 19.3066 Q1375.23 11.0023 1389.41 11.0023 Q1395.32 11.0023 1400.63 12.4606 Q1405.97 13.9189 1410.47 16.7545 L1410.47 25.464 Q1405.93 21.6156 1400.83 19.6712 Q1395.73 17.7268 1390.1 17.7268 Q1379 17.7268 1373.41 23.9246 Q1367.86 30.1225 1367.86 42.3968 Q1367.86 54.6305 1373.41 60.8284 Q1379 67.0263 1390.1 67.0263 Q1394.43 67.0263 1397.83 66.2971 Q1401.24 65.5274 1403.95 63.9476 Z" fill="#000000" fill-rule="nonzero" fill-opacity="1"></path><path clip-path="url(#clip420)" d="M1465.48 48.0275 L1465.48 51.6733 L1431.21 51.6733 Q1431.7 59.3701 1435.83 63.421 Q1440 67.4314 1447.42 67.4314 Q1451.71 67.4314 1455.72 66.3781 Q1459.77 65.3249 1463.74 63.2184 L1463.74 70.267 Q1459.73 71.9684 1455.52 72.8596 Q1451.3 73.7508 1446.97 73.7508 Q1436.11 73.7508 1429.75 67.4314 Q1423.43 61.1119 1423.43 50.3365 Q1423.43 39.1965 1429.43 32.6746 Q1435.47 26.1121 1445.67 26.1121 Q1454.83 26.1121 1460.14 32.0264 Q1465.48 37.9003 1465.48 48.0275 M1458.03 45.84 Q1457.95 39.7232 1454.59 36.0774 Q1451.26 32.4315 1445.75 32.4315 Q1439.52 32.4315 1435.75 35.9558 Q1432.02 39.4801 1431.45 45.8805 L1458.03 45.84 Z" fill="#000000" fill-rule="nonzero" fill-opacity="1"></path><path clip-path="url(#clip420)" d="M1495.3 32.4315 Q1489.3 32.4315 1485.82 37.1306 Q1482.33 41.7891 1482.33 49.9314 Q1482.33 58.0738 1485.78 62.7728 Q1489.26 67.4314 1495.3 67.4314 Q1501.25 67.4314 1504.74 62.7323 Q1508.22 58.0333 1508.22 49.9314 Q1508.22 41.8701 1504.74 37.1711 Q1501.25 32.4315 1495.3 32.4315 M1495.3 26.1121 Q1505.02 26.1121 1510.57 32.4315 Q1516.12 38.7509 1516.12 49.9314 Q1516.12 61.0714 1510.57 67.4314 Q1505.02 73.7508 1495.3 73.7508 Q1485.53 73.7508 1479.98 67.4314 Q1474.48 61.0714 1474.48 49.9314 Q1474.48 38.7509 1479.98 32.4315 Q1485.53 26.1121 1495.3 26.1121 Z" fill="#000000" fill-rule="nonzero" fill-opacity="1"></path><path clip-path="url(#clip420)" d="M1558.33 49.3643 Q1558.33 41.2625 1554.97 36.8065 Q1551.65 32.3505 1545.61 32.3505 Q1539.61 32.3505 1536.25 36.8065 Q1532.93 41.2625 1532.93 49.3643 Q1532.93 57.4256 1536.25 61.8816 Q1539.61 66.3376 1545.61 66.3376 Q1551.65 66.3376 1554.97 61.8816 Q1558.33 57.4256 1558.33 49.3643 M1565.78 66.9452 Q1565.78 78.5308 1560.64 84.1616 Q1555.49 89.8329 1544.88 89.8329 Q1540.95 89.8329 1537.47 89.2252 Q1533.98 88.6581 1530.7 87.4428 L1530.7 80.1917 Q1533.98 81.9741 1537.18 82.8248 Q1540.38 83.6755 1543.71 83.6755 Q1551.04 83.6755 1554.68 79.8271 Q1558.33 76.0193 1558.33 68.282 L1558.33 64.5957 Q1556.02 68.6061 1552.41 70.5911 Q1548.81 72.576 1543.79 72.576 Q1535.44 72.576 1530.34 66.2161 Q1525.23 59.8562 1525.23 49.3643 Q1525.23 38.832 1530.34 32.472 Q1535.44 26.1121 1543.79 26.1121 Q1548.81 26.1121 1552.41 28.0971 Q1556.02 30.082 1558.33 34.0924 L1558.33 27.2059 L1565.78 27.2059 L1565.78 66.9452 Z" fill="#000000" fill-rule="nonzero" fill-opacity="1"></path><path clip-path="url(#clip420)" d="M1607.43 34.1734 Q1606.17 33.4443 1604.67 33.1202 Q1603.21 32.7556 1601.43 32.7556 Q1595.11 32.7556 1591.71 36.8875 Q1588.35 40.9789 1588.35 48.6757 L1588.35 72.576 L1580.85 72.576 L1580.85 27.2059 L1588.35 27.2059 L1588.35 34.2544 Q1590.7 30.1225 1594.46 28.1376 Q1598.23 26.1121 1603.62 26.1121 Q1604.39 26.1121 1605.32 26.2337 Q1606.25 26.3147 1607.39 26.5172 L1607.43 34.1734 Z" fill="#000000" fill-rule="nonzero" fill-opacity="1"></path><path clip-path="url(#clip420)" d="M1635.86 49.7694 Q1626.83 49.7694 1623.35 51.8354 Q1619.86 53.9013 1619.86 58.8839 Q1619.86 62.8538 1622.46 65.2034 Q1625.09 67.5124 1629.58 67.5124 Q1635.78 67.5124 1639.51 63.1374 Q1643.28 58.7219 1643.28 51.4303 L1643.28 49.7694 L1635.86 49.7694 M1650.73 46.6907 L1650.73 72.576 L1643.28 72.576 L1643.28 65.6895 Q1640.72 69.8214 1636.92 71.8063 Q1633.11 73.7508 1627.6 73.7508 Q1620.63 73.7508 1616.5 69.8619 Q1612.41 65.9325 1612.41 59.3701 Q1612.41 51.7138 1617.51 47.825 Q1622.66 43.9361 1632.83 43.9361 L1643.28 43.9361 L1643.28 43.2069 Q1643.28 38.0623 1639.87 35.2672 Q1636.51 32.4315 1630.39 32.4315 Q1626.51 32.4315 1622.82 33.3632 Q1619.13 34.295 1615.73 36.1584 L1615.73 29.2718 Q1619.82 27.692 1623.67 26.9223 Q1627.52 26.1121 1631.16 26.1121 Q1641.01 26.1121 1645.87 31.2163 Q1650.73 36.3204 1650.73 46.6907 Z" fill="#000000" fill-rule="nonzero" fill-opacity="1"></path><path clip-path="url(#clip420)" d="M1673.29 65.7705 L1673.29 89.8329 L1665.8 89.8329 L1665.8 27.2059 L1673.29 27.2059 L1673.29 34.0924 Q1675.64 30.0415 1679.21 28.0971 Q1682.81 26.1121 1687.8 26.1121 Q1696.06 26.1121 1701.2 32.6746 Q1706.39 39.2371 1706.39 49.9314 Q1706.39 60.6258 1701.2 67.1883 Q1696.06 73.7508 1687.8 73.7508 Q1682.81 73.7508 1679.21 71.8063 Q1675.64 69.8214 1673.29 65.7705 M1698.65 49.9314 Q1698.65 41.7081 1695.25 37.0496 Q1691.89 32.3505 1685.97 32.3505 Q1680.06 32.3505 1676.66 37.0496 Q1673.29 41.7081 1673.29 49.9314 Q1673.29 58.1548 1676.66 62.8538 Q1680.06 67.5124 1685.97 67.5124 Q1691.89 67.5124 1695.25 62.8538 Q1698.65 58.1548 1698.65 49.9314 Z" fill="#000000" fill-rule="nonzero" fill-opacity="1"></path><path clip-path="url(#clip420)" d="M1756.46 45.1919 L1756.46 72.576 L1749.01 72.576 L1749.01 45.4349 Q1749.01 38.994 1746.49 35.7938 Q1743.98 32.5936 1738.96 32.5936 Q1732.92 32.5936 1729.44 36.4419 Q1725.96 40.2903 1725.96 46.9338 L1725.96 72.576 L1718.46 72.576 L1718.46 9.54393 L1725.96 9.54393 L1725.96 34.2544 Q1728.63 30.163 1732.23 28.1376 Q1735.88 26.1121 1740.62 26.1121 Q1748.44 26.1121 1752.45 30.9732 Q1756.46 35.7938 1756.46 45.1919 Z" fill="#000000" fill-rule="nonzero" fill-opacity="1"></path><path clip-path="url(#clip420)" d="M1771.33 27.2059 L1778.78 27.2059 L1778.78 72.576 L1771.33 72.576 L1771.33 27.2059 M1771.33 9.54393 L1778.78 9.54393 L1778.78 18.9825 L1771.33 18.9825 L1771.33 9.54393 Z" fill="#000000" fill-rule="nonzero" fill-opacity="1"></path><path clip-path="url(#clip420)" d="M1827.03 28.9478 L1827.03 35.9153 Q1823.87 34.1734 1820.67 33.3227 Q1817.51 32.4315 1814.27 32.4315 Q1807.01 32.4315 1803 37.0496 Q1798.99 41.6271 1798.99 49.9314 Q1798.99 58.2358 1803 62.8538 Q1807.01 67.4314 1814.27 67.4314 Q1817.51 67.4314 1820.67 66.5807 Q1823.87 65.6895 1827.03 63.9476 L1827.03 70.8341 Q1823.91 72.2924 1820.54 73.0216 Q1817.22 73.7508 1813.46 73.7508 Q1803.21 73.7508 1797.17 67.3098 Q1791.13 60.8689 1791.13 49.9314 Q1791.13 38.832 1797.21 32.472 Q1803.33 26.1121 1813.94 26.1121 Q1817.38 26.1121 1820.67 26.8413 Q1823.95 27.5299 1827.03 28.9478 Z" fill="#000000" fill-rule="nonzero" fill-opacity="1"></path><path clip-path="url(#clip420)" d="M1895.36 44.2197 Q1898 45.1109 1900.47 48.0275 Q1902.98 50.9442 1905.49 56.0483 L1913.8 72.576 L1905.01 72.576 L1897.27 57.061 Q1894.27 50.9847 1891.44 48.9997 Q1888.64 47.0148 1883.78 47.0148 L1874.87 47.0148 L1874.87 72.576 L1866.68 72.576 L1866.68 12.096 L1885.16 12.096 Q1895.53 12.096 1900.63 16.4305 Q1905.73 20.7649 1905.73 29.5149 Q1905.73 35.2267 1903.06 38.994 Q1900.43 42.7613 1895.36 44.2197 M1874.87 18.8205 L1874.87 40.2903 L1885.16 40.2903 Q1891.07 40.2903 1894.07 37.5762 Q1897.11 34.8216 1897.11 29.5149 Q1897.11 24.2082 1894.07 21.5346 Q1891.07 18.8205 1885.16 18.8205 L1874.87 18.8205 Z" fill="#000000" fill-rule="nonzero" fill-opacity="1"></path><path clip-path="url(#clip420)" d="M1959.09 48.0275 L1959.09 51.6733 L1924.81 51.6733 Q1925.3 59.3701 1929.43 63.421 Q1933.61 67.4314 1941.02 67.4314 Q1945.31 67.4314 1949.32 66.3781 Q1953.37 65.3249 1957.34 63.2184 L1957.34 70.267 Q1953.33 71.9684 1949.12 72.8596 Q1944.91 73.7508 1940.57 73.7508 Q1929.72 73.7508 1923.36 67.4314 Q1917.04 61.1119 1917.04 50.3365 Q1917.04 39.1965 1923.03 32.6746 Q1929.07 26.1121 1939.28 26.1121 Q1948.43 26.1121 1953.74 32.0264 Q1959.09 37.9003 1959.09 48.0275 M1951.63 45.84 Q1951.55 39.7232 1948.19 36.0774 Q1944.87 32.4315 1939.36 32.4315 Q1933.12 32.4315 1929.35 35.9558 Q1925.62 39.4801 1925.06 45.8805 L1951.63 45.84 Z" fill="#000000" fill-rule="nonzero" fill-opacity="1"></path><path clip-path="url(#clip420)" d="M2001.17 49.3643 Q2001.17 41.2625 1997.81 36.8065 Q1994.49 32.3505 1988.45 32.3505 Q1982.46 32.3505 1979.1 36.8065 Q1975.77 41.2625 1975.77 49.3643 Q1975.77 57.4256 1979.1 61.8816 Q1982.46 66.3376 1988.45 66.3376 Q1994.49 66.3376 1997.81 61.8816 Q2001.17 57.4256 2001.17 49.3643 M2008.63 66.9452 Q2008.63 78.5308 2003.48 84.1616 Q1998.34 89.8329 1987.73 89.8329 Q1983.8 89.8329 1980.31 89.2252 Q1976.83 88.6581 1973.55 87.4428 L1973.55 80.1917 Q1976.83 81.9741 1980.03 82.8248 Q1983.23 83.6755 1986.55 83.6755 Q1993.88 83.6755 1997.53 79.8271 Q2001.17 76.0193 2001.17 68.282 L2001.17 64.5957 Q1998.87 68.6061 1995.26 70.5911 Q1991.65 72.576 1986.63 72.576 Q1978.29 72.576 1973.18 66.2161 Q1968.08 59.8562 1968.08 49.3643 Q1968.08 38.832 1973.18 32.472 Q1978.29 26.1121 1986.63 26.1121 Q1991.65 26.1121 1995.26 28.0971 Q1998.87 30.082 2001.17 34.0924 L2001.17 27.2059 L2008.63 27.2059 L2008.63 66.9452 Z" fill="#000000" fill-rule="nonzero" fill-opacity="1"></path><path clip-path="url(#clip420)" d="M2023.98 27.2059 L2031.43 27.2059 L2031.43 72.576 L2023.98 72.576 L2023.98 27.2059 M2023.98 9.54393 L2031.43 9.54393 L2031.43 18.9825 L2023.98 18.9825 L2023.98 9.54393 Z" fill="#000000" fill-rule="nonzero" fill-opacity="1"></path><path clip-path="url(#clip420)" d="M2064.61 32.4315 Q2058.62 32.4315 2055.13 37.1306 Q2051.65 41.7891 2051.65 49.9314 Q2051.65 58.0738 2055.09 62.7728 Q2058.58 67.4314 2064.61 67.4314 Q2070.57 67.4314 2074.05 62.7323 Q2077.53 58.0333 2077.53 49.9314 Q2077.53 41.8701 2074.05 37.1711 Q2070.57 32.4315 2064.61 32.4315 M2064.61 26.1121 Q2074.33 26.1121 2079.88 32.4315 Q2085.43 38.7509 2085.43 49.9314 Q2085.43 61.0714 2079.88 67.4314 Q2074.33 73.7508 2064.61 73.7508 Q2054.85 73.7508 2049.3 67.4314 Q2043.79 61.0714 2043.79 49.9314 Q2043.79 38.7509 2049.3 32.4315 Q2054.85 26.1121 2064.61 26.1121 Z" fill="#000000" fill-rule="nonzero" fill-opacity="1"></path><path clip-path="url(#clip420)" d="M2135.5 45.1919 L2135.5 72.576 L2128.05 72.576 L2128.05 45.4349 Q2128.05 38.994 2125.54 35.7938 Q2123.03 32.5936 2118 32.5936 Q2111.97 32.5936 2108.48 36.4419 Q2105 40.2903 2105 46.9338 L2105 72.576 L2097.5 72.576 L2097.5 27.2059 L2105 27.2059 L2105 34.2544 Q2107.67 30.163 2111.28 28.1376 Q2114.92 26.1121 2119.66 26.1121 Q2127.48 26.1121 2131.49 30.9732 Q2135.5 35.7938 2135.5 45.1919 Z" fill="#000000" fill-rule="nonzero" fill-opacity="1"></path><path clip-path="url(#clip420)" d="M2179.29 28.5427 L2179.29 35.5912 Q2176.13 33.9709 2172.73 33.1607 Q2169.33 32.3505 2165.68 32.3505 Q2160.13 32.3505 2157.34 34.0519 Q2154.58 35.7533 2154.58 39.156 Q2154.58 41.7486 2156.57 43.2475 Q2158.55 44.7058 2164.55 46.0426 L2167.1 46.6097 Q2175.04 48.3111 2178.36 51.4303 Q2181.72 54.509 2181.72 60.0587 Q2181.72 66.3781 2176.7 70.0644 Q2171.72 73.7508 2162.97 73.7508 Q2159.32 73.7508 2155.35 73.0216 Q2151.42 72.3329 2147.05 70.9151 L2147.05 63.2184 Q2151.18 65.3654 2155.19 66.4591 Q2159.2 67.5124 2163.13 67.5124 Q2168.4 67.5124 2171.23 65.73 Q2174.07 63.9071 2174.07 60.6258 Q2174.07 57.5877 2172 55.9673 Q2169.98 54.3469 2163.05 52.8481 L2160.46 52.2405 Q2153.53 50.7821 2150.45 47.7845 Q2147.37 44.7463 2147.37 39.4801 Q2147.37 33.0797 2151.91 29.5959 Q2156.45 26.1121 2164.79 26.1121 Q2168.92 26.1121 2172.57 26.7198 Q2176.21 27.3274 2179.29 28.5427 Z" fill="#000000" fill-rule="nonzero" fill-opacity="1"></path><polyline clip-path="url(#clip422)" style="stroke:#009af9; stroke-linecap:round; stroke-linejoin:round; stroke-width:8; stroke-opacity:1; fill:none" points="294.087,1381.78 377.366,1386.4 543.925,1386.18 877.043,1384.44 1543.28,1369.67 2292.79,1322.24 "></polyline>
<circle clip-path="url(#clip422)" cx="294.087" cy="1381.78" r="14.4" fill="#009af9" fill-rule="evenodd" fill-opacity="1" stroke="#000000" stroke-opacity="1" stroke-width="3.2"></circle>
<circle clip-path="url(#clip422)" cx="377.366" cy="1386.4" r="14.4" fill="#009af9" fill-rule="evenodd" fill-opacity="1" stroke="#000000" stroke-opacity="1" stroke-width="3.2"></circle>
<circle clip-path="url(#clip422)" cx="543.925" cy="1386.18" r="14.4" fill="#009af9" fill-rule="evenodd" fill-opacity="1" stroke="#000000" stroke-opacity="1" stroke-width="3.2"></circle>
<circle clip-path="url(#clip422)" cx="877.043" cy="1384.44" r="14.4" fill="#009af9" fill-rule="evenodd" fill-opacity="1" stroke="#000000" stroke-opacity="1" stroke-width="3.2"></circle>
<circle clip-path="url(#clip422)" cx="1543.28" cy="1369.67" r="14.4" fill="#009af9" fill-rule="evenodd" fill-opacity="1" stroke="#000000" stroke-opacity="1" stroke-width="3.2"></circle>
<circle clip-path="url(#clip422)" cx="2292.79" cy="1322.24" r="14.4" fill="#009af9" fill-rule="evenodd" fill-opacity="1" stroke="#000000" stroke-opacity="1" stroke-width="3.2"></circle>
<polyline clip-path="url(#clip422)" style="stroke:#e26f46; stroke-linecap:round; stroke-linejoin:round; stroke-width:8; stroke-opacity:1; fill:none" points="294.087,1383.09 377.366,1385.86 543.925,1381.65 877.043,1348.09 1543.28,1076.77 2292.79,160.256 "></polyline>
<circle clip-path="url(#clip422)" cx="294.087" cy="1383.09" r="14.4" fill="#e26f46" fill-rule="evenodd" fill-opacity="1" stroke="#000000" stroke-opacity="1" stroke-width="3.2"></circle>
<circle clip-path="url(#clip422)" cx="377.366" cy="1385.86" r="14.4" fill="#e26f46" fill-rule="evenodd" fill-opacity="1" stroke="#000000" stroke-opacity="1" stroke-width="3.2"></circle>
<circle clip-path="url(#clip422)" cx="543.925" cy="1381.65" r="14.4" fill="#e26f46" fill-rule="evenodd" fill-opacity="1" stroke="#000000" stroke-opacity="1" stroke-width="3.2"></circle>
<circle clip-path="url(#clip422)" cx="877.043" cy="1348.09" r="14.4" fill="#e26f46" fill-rule="evenodd" fill-opacity="1" stroke="#000000" stroke-opacity="1" stroke-width="3.2"></circle>
<circle clip-path="url(#clip422)" cx="1543.28" cy="1076.77" r="14.4" fill="#e26f46" fill-rule="evenodd" fill-opacity="1" stroke="#000000" stroke-opacity="1" stroke-width="3.2"></circle>
<circle clip-path="url(#clip422)" cx="2292.79" cy="160.256" r="14.4" fill="#e26f46" fill-rule="evenodd" fill-opacity="1" stroke="#000000" stroke-opacity="1" stroke-width="3.2"></circle>
<path clip-path="url(#clip420)" d="M304.746 322.316 L1356.49 322.316 L1356.49 166.796 L304.746 166.796  Z" fill="#ffffff" fill-rule="evenodd" fill-opacity="1"></path>
<polyline clip-path="url(#clip420)" style="stroke:#000000; stroke-linecap:round; stroke-linejoin:round; stroke-width:4; stroke-opacity:1; fill:none" points="304.746,322.316 1356.49,322.316 1356.49,166.796 304.746,166.796 304.746,322.316 "></polyline>
<polyline clip-path="url(#clip420)" style="stroke:#009af9; stroke-linecap:round; stroke-linejoin:round; stroke-width:8; stroke-opacity:1; fill:none" points="328.287,218.636 469.529,218.636 "></polyline>
<circle clip-path="url(#clip420)" cx="398.908" cy="218.636" r="19.6169" fill="#009af9" fill-rule="evenodd" fill-opacity="1" stroke="#000000" stroke-opacity="1" stroke-width="4.55111"></circle>
<path clip-path="url(#clip420)" d="M515.314 202.49 L515.314 207.05 Q512.652 205.777 510.291 205.152 Q507.93 204.527 505.731 204.527 Q501.912 204.527 499.828 206.008 Q497.768 207.49 497.768 210.221 Q497.768 212.513 499.134 213.694 Q500.523 214.851 504.365 215.569 L507.189 216.147 Q512.421 217.143 514.898 219.666 Q517.398 222.166 517.398 226.379 Q517.398 231.402 514.018 233.994 Q510.662 236.587 504.157 236.587 Q501.703 236.587 498.926 236.031 Q496.171 235.476 493.208 234.388 L493.208 229.573 Q496.055 231.17 498.787 231.981 Q501.518 232.791 504.157 232.791 Q508.162 232.791 510.338 231.217 Q512.514 229.643 512.514 226.726 Q512.514 224.18 510.939 222.744 Q509.389 221.309 505.824 220.592 L502.977 220.036 Q497.745 218.995 495.407 216.772 Q493.069 214.55 493.069 210.592 Q493.069 206.008 496.287 203.37 Q499.527 200.731 505.199 200.731 Q507.629 200.731 510.152 201.171 Q512.676 201.61 515.314 202.49 Z" fill="#000000" fill-rule="nonzero" fill-opacity="1"></path><path clip-path="url(#clip420)" d="M524.689 201.356 L529.365 201.356 L529.365 235.916 L524.689 235.916 L524.689 201.356 Z" fill="#000000" fill-rule="nonzero" fill-opacity="1"></path><path clip-path="url(#clip420)" d="M543.347 205.198 L543.347 232.073 L548.995 232.073 Q556.148 232.073 559.458 228.832 Q562.791 225.592 562.791 218.601 Q562.791 211.657 559.458 208.439 Q556.148 205.198 548.995 205.198 L543.347 205.198 M538.671 201.356 L548.277 201.356 Q558.323 201.356 563.023 205.546 Q567.722 209.712 567.722 218.601 Q567.722 227.536 562.999 231.726 Q558.277 235.916 548.277 235.916 L538.671 235.916 L538.671 201.356 Z" fill="#000000" fill-rule="nonzero" fill-opacity="1"></path><path clip-path="url(#clip420)" d="M585.893 205.962 L579.55 223.161 L592.258 223.161 L585.893 205.962 M583.254 201.356 L588.555 201.356 L601.726 235.916 L596.865 235.916 L593.717 227.05 L578.138 227.05 L574.99 235.916 L570.059 235.916 L583.254 201.356 Z" fill="#000000" fill-rule="nonzero" fill-opacity="1"></path><path clip-path="url(#clip420)" d="M623.161 219.712 Q624.666 220.221 626.078 221.888 Q627.513 223.555 628.948 226.471 L633.693 235.916 L628.67 235.916 L624.249 227.05 Q622.536 223.578 620.916 222.444 Q619.318 221.309 616.541 221.309 L611.448 221.309 L611.448 235.916 L606.772 235.916 L606.772 201.356 L617.328 201.356 Q623.254 201.356 626.17 203.833 Q629.087 206.309 629.087 211.309 Q629.087 214.573 627.559 216.726 Q626.055 218.879 623.161 219.712 M611.448 205.198 L611.448 217.467 L617.328 217.467 Q620.707 217.467 622.42 215.916 Q624.156 214.342 624.156 211.309 Q624.156 208.277 622.42 206.749 Q620.707 205.198 617.328 205.198 L611.448 205.198 Z" fill="#000000" fill-rule="nonzero" fill-opacity="1"></path><path clip-path="url(#clip420)" d="M631.471 201.356 L660.707 201.356 L660.707 205.291 L648.439 205.291 L648.439 235.916 L643.74 235.916 L643.74 205.291 L631.471 205.291 L631.471 201.356 Z" fill="#000000" fill-rule="nonzero" fill-opacity="1"></path><path clip-path="url(#clip420)" d="M665.221 201.356 L669.897 201.356 L669.897 215.522 L686.888 215.522 L686.888 201.356 L691.563 201.356 L691.563 235.916 L686.888 235.916 L686.888 219.457 L669.897 219.457 L669.897 235.916 L665.221 235.916 L665.221 201.356 Z" fill="#000000" fill-rule="nonzero" fill-opacity="1"></path><path clip-path="url(#clip420)" d="M700.869 201.356 L722.721 201.356 L722.721 205.291 L705.545 205.291 L705.545 215.522 L722.003 215.522 L722.003 219.457 L705.545 219.457 L705.545 231.981 L723.137 231.981 L723.137 235.916 L700.869 235.916 L700.869 201.356 Z" fill="#000000" fill-rule="nonzero" fill-opacity="1"></path><path clip-path="url(#clip420)" d="M763.045 206.194 L763.045 219.087 L775.938 219.087 L775.938 223.022 L763.045 223.022 L763.045 235.916 L759.156 235.916 L759.156 223.022 L746.262 223.022 L746.262 219.087 L759.156 219.087 L759.156 206.194 L763.045 206.194 Z" fill="#000000" fill-rule="nonzero" fill-opacity="1"></path><path clip-path="url(#clip420)" d="M821.401 202.49 L821.401 207.05 Q818.739 205.777 816.378 205.152 Q814.017 204.527 811.817 204.527 Q807.998 204.527 805.915 206.008 Q803.855 207.49 803.855 210.221 Q803.855 212.513 805.22 213.694 Q806.609 214.851 810.452 215.569 L813.276 216.147 Q818.507 217.143 820.984 219.666 Q823.484 222.166 823.484 226.379 Q823.484 231.402 820.104 233.994 Q816.748 236.587 810.243 236.587 Q807.79 236.587 805.012 236.031 Q802.257 235.476 799.294 234.388 L799.294 229.573 Q802.142 231.17 804.873 231.981 Q807.605 232.791 810.243 232.791 Q814.248 232.791 816.424 231.217 Q818.6 229.643 818.6 226.726 Q818.6 224.18 817.026 222.744 Q815.475 221.309 811.91 220.592 L809.063 220.036 Q803.831 218.995 801.493 216.772 Q799.155 214.55 799.155 210.592 Q799.155 206.008 802.373 203.37 Q805.614 200.731 811.285 200.731 Q813.716 200.731 816.239 201.171 Q818.762 201.61 821.401 202.49 Z" fill="#000000" fill-rule="nonzero" fill-opacity="1"></path><path clip-path="url(#clip420)" d="M830.591 209.99 L834.85 209.99 L834.85 235.916 L830.591 235.916 L830.591 209.99 M830.591 199.897 L834.85 199.897 L834.85 205.291 L830.591 205.291 L830.591 199.897 Z" fill="#000000" fill-rule="nonzero" fill-opacity="1"></path><path clip-path="url(#clip420)" d="M863.947 214.967 Q865.544 212.096 867.766 210.731 Q869.988 209.365 872.998 209.365 Q877.049 209.365 879.248 212.212 Q881.447 215.036 881.447 220.268 L881.447 235.916 L877.164 235.916 L877.164 220.407 Q877.164 216.68 875.845 214.874 Q874.525 213.069 871.817 213.069 Q868.507 213.069 866.586 215.268 Q864.664 217.467 864.664 221.263 L864.664 235.916 L860.382 235.916 L860.382 220.407 Q860.382 216.657 859.063 214.874 Q857.743 213.069 854.989 213.069 Q851.725 213.069 849.803 215.291 Q847.882 217.49 847.882 221.263 L847.882 235.916 L843.6 235.916 L843.6 209.99 L847.882 209.99 L847.882 214.018 Q849.34 211.633 851.377 210.499 Q853.414 209.365 856.215 209.365 Q859.039 209.365 861.007 210.8 Q862.998 212.235 863.947 214.967 Z" fill="#000000" fill-rule="nonzero" fill-opacity="1"></path><path clip-path="url(#clip420)" d="M894.062 232.027 L894.062 245.777 L889.78 245.777 L889.78 209.99 L894.062 209.99 L894.062 213.925 Q895.405 211.61 897.442 210.499 Q899.502 209.365 902.349 209.365 Q907.072 209.365 910.011 213.115 Q912.974 216.865 912.974 222.976 Q912.974 229.087 910.011 232.837 Q907.072 236.587 902.349 236.587 Q899.502 236.587 897.442 235.476 Q895.405 234.342 894.062 232.027 M908.553 222.976 Q908.553 218.277 906.609 215.615 Q904.687 212.93 901.308 212.93 Q897.928 212.93 895.984 215.615 Q894.062 218.277 894.062 222.976 Q894.062 227.675 895.984 230.36 Q897.928 233.022 901.308 233.022 Q904.687 233.022 906.609 230.36 Q908.553 227.675 908.553 222.976 Z" fill="#000000" fill-rule="nonzero" fill-opacity="1"></path><path clip-path="url(#clip420)" d="M920.034 199.897 L924.294 199.897 L924.294 235.916 L920.034 235.916 L920.034 199.897 Z" fill="#000000" fill-rule="nonzero" fill-opacity="1"></path><path clip-path="url(#clip420)" d="M955.382 221.888 L955.382 223.971 L935.798 223.971 Q936.076 228.369 938.437 230.684 Q940.821 232.976 945.057 232.976 Q947.511 232.976 949.803 232.374 Q952.118 231.772 954.386 230.569 L954.386 234.596 Q952.094 235.568 949.687 236.078 Q947.28 236.587 944.803 236.587 Q938.599 236.587 934.965 232.976 Q931.354 229.365 931.354 223.207 Q931.354 216.842 934.78 213.115 Q938.229 209.365 944.062 209.365 Q949.294 209.365 952.326 212.745 Q955.382 216.101 955.382 221.888 M951.122 220.638 Q951.076 217.143 949.155 215.059 Q947.257 212.976 944.108 212.976 Q940.544 212.976 938.391 214.99 Q936.261 217.004 935.937 220.661 L951.122 220.638 Z" fill="#000000" fill-rule="nonzero" fill-opacity="1"></path><path clip-path="url(#clip420)" d="M972.835 201.356 L1002.07 201.356 L1002.07 205.291 L989.803 205.291 L989.803 235.916 L985.104 235.916 L985.104 205.291 L972.835 205.291 L972.835 201.356 Z" fill="#000000" fill-rule="nonzero" fill-opacity="1"></path><path clip-path="url(#clip420)" d="M1014.46 213.971 Q1013.74 213.555 1012.88 213.37 Q1012.05 213.161 1011.03 213.161 Q1007.42 213.161 1005.47 215.522 Q1003.55 217.86 1003.55 222.258 L1003.55 235.916 L999.27 235.916 L999.27 209.99 L1003.55 209.99 L1003.55 214.018 Q1004.9 211.657 1007.05 210.522 Q1009.2 209.365 1012.28 209.365 Q1012.72 209.365 1013.25 209.434 Q1013.78 209.481 1014.43 209.596 L1014.46 213.971 Z" fill="#000000" fill-rule="nonzero" fill-opacity="1"></path><path clip-path="url(#clip420)" d="M1018.92 209.99 L1023.18 209.99 L1023.18 235.916 L1018.92 235.916 L1018.92 209.99 M1018.92 199.897 L1023.18 199.897 L1023.18 205.291 L1018.92 205.291 L1018.92 199.897 Z" fill="#000000" fill-rule="nonzero" fill-opacity="1"></path><path clip-path="url(#clip420)" d="M1036.21 232.027 L1036.21 245.777 L1031.93 245.777 L1031.93 209.99 L1036.21 209.99 L1036.21 213.925 Q1037.56 211.61 1039.59 210.499 Q1041.65 209.365 1044.5 209.365 Q1049.22 209.365 1052.16 213.115 Q1055.13 216.865 1055.13 222.976 Q1055.13 229.087 1052.16 232.837 Q1049.22 236.587 1044.5 236.587 Q1041.65 236.587 1039.59 235.476 Q1037.56 234.342 1036.21 232.027 M1050.71 222.976 Q1050.71 218.277 1048.76 215.615 Q1046.84 212.93 1043.46 212.93 Q1040.08 212.93 1038.14 215.615 Q1036.21 218.277 1036.21 222.976 Q1036.21 227.675 1038.14 230.36 Q1040.08 233.022 1043.46 233.022 Q1046.84 233.022 1048.76 230.36 Q1050.71 227.675 1050.71 222.976 Z" fill="#000000" fill-rule="nonzero" fill-opacity="1"></path><polyline clip-path="url(#clip420)" style="stroke:#e26f46; stroke-linecap:round; stroke-linejoin:round; stroke-width:8; stroke-opacity:1; fill:none" points="328.287,270.476 469.529,270.476 "></polyline>
<circle clip-path="url(#clip420)" cx="398.908" cy="270.476" r="19.6169" fill="#e26f46" fill-rule="evenodd" fill-opacity="1" stroke="#000000" stroke-opacity="1" stroke-width="4.55111"></circle>
<path clip-path="url(#clip420)" d="M515.314 254.33 L515.314 258.89 Q512.652 257.617 510.291 256.992 Q507.93 256.367 505.731 256.367 Q501.912 256.367 499.828 257.848 Q497.768 259.33 497.768 262.061 Q497.768 264.353 499.134 265.534 Q500.523 266.691 504.365 267.409 L507.189 267.987 Q512.421 268.983 514.898 271.506 Q517.398 274.006 517.398 278.219 Q517.398 283.242 514.018 285.834 Q510.662 288.427 504.157 288.427 Q501.703 288.427 498.926 287.871 Q496.171 287.316 493.208 286.228 L493.208 281.413 Q496.055 283.01 498.787 283.821 Q501.518 284.631 504.157 284.631 Q508.162 284.631 510.338 283.057 Q512.514 281.483 512.514 278.566 Q512.514 276.02 510.939 274.584 Q509.389 273.149 505.824 272.432 L502.977 271.876 Q497.745 270.835 495.407 268.612 Q493.069 266.39 493.069 262.432 Q493.069 257.848 496.287 255.21 Q499.527 252.571 505.199 252.571 Q507.629 252.571 510.152 253.011 Q512.676 253.45 515.314 254.33 Z" fill="#000000" fill-rule="nonzero" fill-opacity="1"></path><path clip-path="url(#clip420)" d="M524.689 253.196 L529.365 253.196 L529.365 287.756 L524.689 287.756 L524.689 253.196 Z" fill="#000000" fill-rule="nonzero" fill-opacity="1"></path><path clip-path="url(#clip420)" d="M543.347 257.038 L543.347 283.913 L548.995 283.913 Q556.148 283.913 559.458 280.672 Q562.791 277.432 562.791 270.441 Q562.791 263.497 559.458 260.279 Q556.148 257.038 548.995 257.038 L543.347 257.038 M538.671 253.196 L548.277 253.196 Q558.323 253.196 563.023 257.386 Q567.722 261.552 567.722 270.441 Q567.722 279.376 562.999 283.566 Q558.277 287.756 548.277 287.756 L538.671 287.756 L538.671 253.196 Z" fill="#000000" fill-rule="nonzero" fill-opacity="1"></path><path clip-path="url(#clip420)" d="M585.893 257.802 L579.55 275.001 L592.258 275.001 L585.893 257.802 M583.254 253.196 L588.555 253.196 L601.726 287.756 L596.865 287.756 L593.717 278.89 L578.138 278.89 L574.99 287.756 L570.059 287.756 L583.254 253.196 Z" fill="#000000" fill-rule="nonzero" fill-opacity="1"></path><path clip-path="url(#clip420)" d="M623.161 271.552 Q624.666 272.061 626.078 273.728 Q627.513 275.395 628.948 278.311 L633.693 287.756 L628.67 287.756 L624.249 278.89 Q622.536 275.418 620.916 274.284 Q619.318 273.149 616.541 273.149 L611.448 273.149 L611.448 287.756 L606.772 287.756 L606.772 253.196 L617.328 253.196 Q623.254 253.196 626.17 255.673 Q629.087 258.149 629.087 263.149 Q629.087 266.413 627.559 268.566 Q626.055 270.719 623.161 271.552 M611.448 257.038 L611.448 269.307 L617.328 269.307 Q620.707 269.307 622.42 267.756 Q624.156 266.182 624.156 263.149 Q624.156 260.117 622.42 258.589 Q620.707 257.038 617.328 257.038 L611.448 257.038 Z" fill="#000000" fill-rule="nonzero" fill-opacity="1"></path><path clip-path="url(#clip420)" d="M631.471 253.196 L660.707 253.196 L660.707 257.131 L648.439 257.131 L648.439 287.756 L643.74 287.756 L643.74 257.131 L631.471 257.131 L631.471 253.196 Z" fill="#000000" fill-rule="nonzero" fill-opacity="1"></path><path clip-path="url(#clip420)" d="M665.221 253.196 L669.897 253.196 L669.897 267.362 L686.888 267.362 L686.888 253.196 L691.563 253.196 L691.563 287.756 L686.888 287.756 L686.888 271.297 L669.897 271.297 L669.897 287.756 L665.221 287.756 L665.221 253.196 Z" fill="#000000" fill-rule="nonzero" fill-opacity="1"></path><path clip-path="url(#clip420)" d="M700.869 253.196 L722.721 253.196 L722.721 257.131 L705.545 257.131 L705.545 267.362 L722.003 267.362 L722.003 271.297 L705.545 271.297 L705.545 283.821 L723.137 283.821 L723.137 287.756 L700.869 287.756 L700.869 253.196 Z" fill="#000000" fill-rule="nonzero" fill-opacity="1"></path><path clip-path="url(#clip420)" d="M763.045 258.034 L763.045 270.927 L775.938 270.927 L775.938 274.862 L763.045 274.862 L763.045 287.756 L759.156 287.756 L759.156 274.862 L746.262 274.862 L746.262 270.927 L759.156 270.927 L759.156 258.034 L763.045 258.034 Z" fill="#000000" fill-rule="nonzero" fill-opacity="1"></path><path clip-path="url(#clip420)" d="M800.683 253.196 L807.651 253.196 L816.47 276.714 L825.336 253.196 L832.303 253.196 L832.303 287.756 L827.743 287.756 L827.743 257.409 L818.831 281.112 L814.132 281.112 L805.22 257.409 L805.22 287.756 L800.683 287.756 L800.683 253.196 Z" fill="#000000" fill-rule="nonzero" fill-opacity="1"></path><path clip-path="url(#clip420)" d="M853.183 274.723 Q848.021 274.723 846.03 275.904 Q844.04 277.084 844.04 279.932 Q844.04 282.2 845.521 283.543 Q847.026 284.862 849.595 284.862 Q853.137 284.862 855.266 282.362 Q857.419 279.839 857.419 275.672 L857.419 274.723 L853.183 274.723 M861.678 272.964 L861.678 287.756 L857.419 287.756 L857.419 283.821 Q855.961 286.182 853.785 287.316 Q851.609 288.427 848.461 288.427 Q844.479 288.427 842.118 286.205 Q839.78 283.959 839.78 280.209 Q839.78 275.834 842.697 273.612 Q845.637 271.39 851.447 271.39 L857.419 271.39 L857.419 270.973 Q857.419 268.034 855.475 266.436 Q853.553 264.816 850.058 264.816 Q847.836 264.816 845.729 265.348 Q843.623 265.881 841.678 266.946 L841.678 263.01 Q844.016 262.108 846.215 261.668 Q848.414 261.205 850.498 261.205 Q856.123 261.205 858.901 264.122 Q861.678 267.038 861.678 272.964 Z" fill="#000000" fill-rule="nonzero" fill-opacity="1"></path><path clip-path="url(#clip420)" d="M886.979 262.594 L886.979 266.622 Q885.174 265.696 883.229 265.233 Q881.285 264.77 879.201 264.77 Q876.03 264.77 874.433 265.742 Q872.859 266.714 872.859 268.659 Q872.859 270.14 873.993 270.997 Q875.127 271.83 878.553 272.594 L880.012 272.918 Q884.549 273.89 886.447 275.672 Q888.368 277.432 888.368 280.603 Q888.368 284.214 885.498 286.321 Q882.65 288.427 877.65 288.427 Q875.567 288.427 873.299 288.01 Q871.053 287.617 868.553 286.807 L868.553 282.409 Q870.914 283.635 873.206 284.26 Q875.498 284.862 877.743 284.862 Q880.752 284.862 882.373 283.844 Q883.993 282.802 883.993 280.927 Q883.993 279.191 882.812 278.265 Q881.655 277.339 877.697 276.483 L876.215 276.135 Q872.257 275.302 870.498 273.589 Q868.738 271.853 868.738 268.844 Q868.738 265.186 871.331 263.196 Q873.924 261.205 878.692 261.205 Q881.053 261.205 883.137 261.552 Q885.22 261.899 886.979 262.594 Z" fill="#000000" fill-rule="nonzero" fill-opacity="1"></path><path clip-path="url(#clip420)" d="M894.988 251.737 L899.271 251.737 L899.271 273.01 L911.979 261.83 L917.419 261.83 L903.669 273.959 L917.997 287.756 L912.442 287.756 L899.271 275.094 L899.271 287.756 L894.988 287.756 L894.988 251.737 Z" fill="#000000" fill-rule="nonzero" fill-opacity="1"></path><path clip-path="url(#clip420)" d="M931.701 287.756 L918.507 253.196 L923.391 253.196 L934.34 282.293 L945.312 253.196 L950.173 253.196 L937.002 287.756 L931.701 287.756 Z" fill="#000000" fill-rule="nonzero" fill-opacity="1"></path><path clip-path="url(#clip420)" d="M963.136 274.723 Q957.974 274.723 955.983 275.904 Q953.993 277.084 953.993 279.932 Q953.993 282.2 955.474 283.543 Q956.979 284.862 959.548 284.862 Q963.09 284.862 965.219 282.362 Q967.372 279.839 967.372 275.672 L967.372 274.723 L963.136 274.723 M971.631 272.964 L971.631 287.756 L967.372 287.756 L967.372 283.821 Q965.914 286.182 963.738 287.316 Q961.562 288.427 958.414 288.427 Q954.432 288.427 952.071 286.205 Q949.733 283.959 949.733 280.209 Q949.733 275.834 952.65 273.612 Q955.59 271.39 961.4 271.39 L967.372 271.39 L967.372 270.973 Q967.372 268.034 965.428 266.436 Q963.506 264.816 960.011 264.816 Q957.789 264.816 955.682 265.348 Q953.576 265.881 951.632 266.946 L951.632 263.01 Q953.969 262.108 956.169 261.668 Q958.368 261.205 960.451 261.205 Q966.076 261.205 968.854 264.122 Q971.631 267.038 971.631 272.964 Z" fill="#000000" fill-rule="nonzero" fill-opacity="1"></path><path clip-path="url(#clip420)" d="M1001.96 261.83 L992.58 274.446 L1002.44 287.756 L997.418 287.756 L989.872 277.571 L982.326 287.756 L977.303 287.756 L987.372 274.191 L978.159 261.83 L983.182 261.83 L990.057 271.066 L996.932 261.83 L1001.96 261.83 Z" fill="#000000" fill-rule="nonzero" fill-opacity="1"></path><path clip-path="url(#clip420)" d="M1040.87 258.034 L1040.87 270.927 L1053.76 270.927 L1053.76 274.862 L1040.87 274.862 L1040.87 287.756 L1036.98 287.756 L1036.98 274.862 L1024.08 274.862 L1024.08 270.927 L1036.98 270.927 L1036.98 258.034 L1040.87 258.034 Z" fill="#000000" fill-rule="nonzero" fill-opacity="1"></path><path clip-path="url(#clip420)" d="M1099.22 254.33 L1099.22 258.89 Q1096.56 257.617 1094.2 256.992 Q1091.84 256.367 1089.64 256.367 Q1085.82 256.367 1083.74 257.848 Q1081.68 259.33 1081.68 262.061 Q1081.68 264.353 1083.04 265.534 Q1084.43 266.691 1088.27 267.409 L1091.1 267.987 Q1096.33 268.983 1098.81 271.506 Q1101.31 274.006 1101.31 278.219 Q1101.31 283.242 1097.93 285.834 Q1094.57 288.427 1088.07 288.427 Q1085.61 288.427 1082.83 287.871 Q1080.08 287.316 1077.12 286.228 L1077.12 281.413 Q1079.96 283.01 1082.7 283.821 Q1085.43 284.631 1088.07 284.631 Q1092.07 284.631 1094.25 283.057 Q1096.42 281.483 1096.42 278.566 Q1096.42 276.02 1094.85 274.584 Q1093.3 273.149 1089.73 272.432 L1086.89 271.876 Q1081.65 270.835 1079.32 268.612 Q1076.98 266.39 1076.98 262.432 Q1076.98 257.848 1080.2 255.21 Q1083.44 252.571 1089.11 252.571 Q1091.54 252.571 1094.06 253.011 Q1096.58 253.45 1099.22 254.33 Z" fill="#000000" fill-rule="nonzero" fill-opacity="1"></path><path clip-path="url(#clip420)" d="M1108.41 261.83 L1112.67 261.83 L1112.67 287.756 L1108.41 287.756 L1108.41 261.83 M1108.41 251.737 L1112.67 251.737 L1112.67 257.131 L1108.41 257.131 L1108.41 251.737 Z" fill="#000000" fill-rule="nonzero" fill-opacity="1"></path><path clip-path="url(#clip420)" d="M1141.77 266.807 Q1143.37 263.936 1145.59 262.571 Q1147.81 261.205 1150.82 261.205 Q1154.87 261.205 1157.07 264.052 Q1159.27 266.876 1159.27 272.108 L1159.27 287.756 L1154.99 287.756 L1154.99 272.247 Q1154.99 268.52 1153.67 266.714 Q1152.35 264.909 1149.64 264.909 Q1146.33 264.909 1144.41 267.108 Q1142.49 269.307 1142.49 273.103 L1142.49 287.756 L1138.2 287.756 L1138.2 272.247 Q1138.2 268.497 1136.89 266.714 Q1135.57 264.909 1132.81 264.909 Q1129.55 264.909 1127.63 267.131 Q1125.7 269.33 1125.7 273.103 L1125.7 287.756 L1121.42 287.756 L1121.42 261.83 L1125.7 261.83 L1125.7 265.858 Q1127.16 263.473 1129.2 262.339 Q1131.24 261.205 1134.04 261.205 Q1136.86 261.205 1138.83 262.64 Q1140.82 264.075 1141.77 266.807 Z" fill="#000000" fill-rule="nonzero" fill-opacity="1"></path><path clip-path="url(#clip420)" d="M1171.88 283.867 L1171.88 297.617 L1167.6 297.617 L1167.6 261.83 L1171.88 261.83 L1171.88 265.765 Q1173.23 263.45 1175.26 262.339 Q1177.32 261.205 1180.17 261.205 Q1184.89 261.205 1187.83 264.955 Q1190.8 268.705 1190.8 274.816 Q1190.8 280.927 1187.83 284.677 Q1184.89 288.427 1180.17 288.427 Q1177.32 288.427 1175.26 287.316 Q1173.23 286.182 1171.88 283.867 M1186.38 274.816 Q1186.38 270.117 1184.43 267.455 Q1182.51 264.77 1179.13 264.77 Q1175.75 264.77 1173.81 267.455 Q1171.88 270.117 1171.88 274.816 Q1171.88 279.515 1173.81 282.2 Q1175.75 284.862 1179.13 284.862 Q1182.51 284.862 1184.43 282.2 Q1186.38 279.515 1186.38 274.816 Z" fill="#000000" fill-rule="nonzero" fill-opacity="1"></path><path clip-path="url(#clip420)" d="M1197.86 251.737 L1202.12 251.737 L1202.12 287.756 L1197.86 287.756 L1197.86 251.737 Z" fill="#000000" fill-rule="nonzero" fill-opacity="1"></path><path clip-path="url(#clip420)" d="M1233.2 273.728 L1233.2 275.811 L1213.62 275.811 Q1213.9 280.209 1216.26 282.524 Q1218.64 284.816 1222.88 284.816 Q1225.33 284.816 1227.63 284.214 Q1229.94 283.612 1232.21 282.409 L1232.21 286.436 Q1229.92 287.408 1227.51 287.918 Q1225.1 288.427 1222.63 288.427 Q1216.42 288.427 1212.79 284.816 Q1209.18 281.205 1209.18 275.047 Q1209.18 268.682 1212.6 264.955 Q1216.05 261.205 1221.88 261.205 Q1227.12 261.205 1230.15 264.585 Q1233.2 267.941 1233.2 273.728 M1228.94 272.478 Q1228.9 268.983 1226.98 266.899 Q1225.08 264.816 1221.93 264.816 Q1218.37 264.816 1216.21 266.83 Q1214.08 268.844 1213.76 272.501 L1228.94 272.478 Z" fill="#000000" fill-rule="nonzero" fill-opacity="1"></path><path clip-path="url(#clip420)" d="M1250.66 253.196 L1279.89 253.196 L1279.89 257.131 L1267.63 257.131 L1267.63 287.756 L1262.93 287.756 L1262.93 257.131 L1250.66 257.131 L1250.66 253.196 Z" fill="#000000" fill-rule="nonzero" fill-opacity="1"></path><path clip-path="url(#clip420)" d="M1292.28 265.811 Q1291.56 265.395 1290.7 265.21 Q1289.87 265.001 1288.85 265.001 Q1285.24 265.001 1283.3 267.362 Q1281.38 269.7 1281.38 274.098 L1281.38 287.756 L1277.09 287.756 L1277.09 261.83 L1281.38 261.83 L1281.38 265.858 Q1282.72 263.497 1284.87 262.362 Q1287.02 261.205 1290.1 261.205 Q1290.54 261.205 1291.07 261.274 Q1291.61 261.321 1292.25 261.436 L1292.28 265.811 Z" fill="#000000" fill-rule="nonzero" fill-opacity="1"></path><path clip-path="url(#clip420)" d="M1296.75 261.83 L1301 261.83 L1301 287.756 L1296.75 287.756 L1296.75 261.83 M1296.75 251.737 L1301 251.737 L1301 257.131 L1296.75 257.131 L1296.75 251.737 Z" fill="#000000" fill-rule="nonzero" fill-opacity="1"></path><path clip-path="url(#clip420)" d="M1314.04 283.867 L1314.04 297.617 L1309.75 297.617 L1309.75 261.83 L1314.04 261.83 L1314.04 265.765 Q1315.38 263.45 1317.42 262.339 Q1319.48 261.205 1322.32 261.205 Q1327.05 261.205 1329.99 264.955 Q1332.95 268.705 1332.95 274.816 Q1332.95 280.927 1329.99 284.677 Q1327.05 288.427 1322.32 288.427 Q1319.48 288.427 1317.42 287.316 Q1315.38 286.182 1314.04 283.867 M1328.53 274.816 Q1328.53 270.117 1326.58 267.455 Q1324.66 264.77 1321.28 264.77 Q1317.9 264.77 1315.96 267.455 Q1314.04 270.117 1314.04 274.816 Q1314.04 279.515 1315.96 282.2 Q1317.9 284.862 1321.28 284.862 Q1324.66 284.862 1326.58 282.2 Q1328.53 279.515 1328.53 274.816 Z" fill="#000000" fill-rule="nonzero" fill-opacity="1"></path></svg>