<?xml version="1.0" encoding="UTF-8" standalone="no"?>
<!DOCTYPE svg PUBLIC "-//W3C//DTD SVG 1.1//EN"
 "http://www.w3.org/Graphics/SVG/1.1/DTD/svg11.dtd">
<!-- Generated by graphviz version 2.44.1 (0)
 -->
<!-- Title: G Pages: 1 -->
<svg width="735pt" height="1013pt"
 viewBox="0.00 0.00 735.00 1013.00" xmlns="http://www.w3.org/2000/svg" xmlns:xlink="http://www.w3.org/1999/xlink">
<g id="graph0" class="graph" transform="scale(1 1) rotate(0) translate(4 1009)">
<title>G</title>
<polygon fill="white" stroke="transparent" points="-4,4 -4,-1009 731,-1009 731,4 -4,4"/>
<!-- n1p1 -->
<!-- n1p2 -->
<!-- n1p1&#45;&gt;n1p2 -->
<!-- n2p1 -->
<!-- n1p1&#45;&gt;n2p1 -->
<!-- S -->
<g id="e1" class="edge">
<title>n1p1:e&#45;&gt;n2p1:w</title>
<path fill="none" stroke="black" d="M1,-892C27.14,-892 2.66,-927.6 19,-948 42.04,-976.76 53.65,-990 90.5,-990 90.5,-990 90.5,-990 632.5,-990 667.71,-990 676.26,-981.25 708,-966 714.77,-962.75 716.08,-957.25 720.91,-955"/>
<polygon fill="black" stroke="black" points="721.43,-956.69 726,-954 720.76,-953.25 721.43,-956.69"/>
<text text-anchor="middle" x="362.5" y="-993.8" font-family="Serif" font-size="14.00">S</text>
</g>
<!-- n3 -->
<!-- exposure_e -->
<g id="n3" class="node">
<title>n3</title>
<polygon fill="none" stroke="black" points="52.5,-810 52.5,-858 130.5,-858 130.5,-810 52.5,-810"/>
<text text-anchor="start" x="57.5" y="-830.3" font-family="Serif" font-size="14.00">exposure_e</text>
</g>
<!-- n1p1&#45;&gt;n3 -->
<!-- S -->
<g id="e9" class="edge">
<title>n1p1:e&#45;&gt;n3:w</title>
<path fill="none" stroke="black" d="M1,-892C29.46,-892 22.26,-851.57 46.26,-846.52"/>
<polygon fill="black" stroke="black" points="46.7,-848.23 51.5,-846 46.35,-844.75 46.7,-848.23"/>
<text text-anchor="middle" x="25.5" y="-885.8" font-family="Serif" font-size="14.00">S</text>
</g>
<!-- n4 -->
<!-- exposure -->
<g id="n4" class="node">
<title>n4</title>
<polygon fill="none" stroke="black" points="59.5,-876 59.5,-924 124.5,-924 124.5,-876 59.5,-876"/>
<text text-anchor="start" x="64.5" y="-896.3" font-family="Serif" font-size="14.00">exposure</text>
</g>
<!-- n1p1&#45;&gt;n4 -->
<!-- S -->
<g id="e11" class="edge">
<title>n1p1:e&#45;&gt;n4:w</title>
<path fill="none" stroke="black" d="M1,-892C18.49,-892 4.07,-917.89 19,-927 33.4,-935.79 38.65,-916.68 53.19,-912.7"/>
<polygon fill="black" stroke="black" points="53.77,-914.39 58.5,-912 53.31,-910.92 53.77,-914.39"/>
<text text-anchor="middle" x="25.5" y="-932.8" font-family="Serif" font-size="14.00">S</text>
</g>
<!-- n5 -->
<!-- exposure_i2 -->
<g id="n5" class="node">
<title>n5</title>
<polygon fill="none" stroke="black" points="50.5,-658 50.5,-706 133.5,-706 133.5,-658 50.5,-658"/>
<text text-anchor="start" x="55.5" y="-678.3" font-family="Serif" font-size="14.00">exposure_i2</text>
</g>
<!-- n1p1&#45;&gt;n5 -->
<!-- S -->
<g id="e13" class="edge">
<title>n1p1:e&#45;&gt;n5:w</title>
<path fill="none" stroke="black" d="M1,-892C20.31,-892 14.44,-825.76 19,-807 20.35,-801.44 38.25,-718.36 46.98,-698.33"/>
<polygon fill="black" stroke="black" points="48.57,-699.1 50,-694 45.7,-697.1 48.57,-699.1"/>
<text text-anchor="middle" x="25.5" y="-810.8" font-family="Serif" font-size="14.00">S</text>
</g>
<!-- n6 -->
<!-- exposure_a -->
<g id="n6" class="node">
<title>n6</title>
<polygon fill="none" stroke="black" points="52.5,-489 52.5,-537 130.5,-537 130.5,-489 52.5,-489"/>
<text text-anchor="start" x="57.5" y="-509.3" font-family="Serif" font-size="14.00">exposure_a</text>
</g>
<!-- n1p1&#45;&gt;n6 -->
<!-- S -->
<g id="e15" class="edge">
<title>n1p1:e&#45;&gt;n6:w</title>
<path fill="none" stroke="black" d="M1,-892C18.89,-892 16.47,-749.71 19,-732 23.78,-698.51 26.64,-690.4 32,-657 36.41,-629.55 23.63,-537.55 46.45,-526.16"/>
<polygon fill="black" stroke="black" points="47.02,-527.82 51.5,-525 46.24,-524.41 47.02,-527.82"/>
<text text-anchor="middle" x="25.5" y="-735.8" font-family="Serif" font-size="14.00">S</text>
</g>
<!-- n1p3 -->
<!-- n1p2&#45;&gt;n1p3 -->
<!-- n2p2 -->
<!-- n1p2&#45;&gt;n2p2 -->
<!-- E -->
<g id="e2" class="edge">
<title>n1p2:e&#45;&gt;n2p2:w</title>
<path fill="none" stroke="black" d="M1,-795C25.46,-795 10.85,-823.94 19,-847 22.38,-856.58 42.24,-926.45 50,-933 86.75,-964 108.42,-952 156.5,-952 156.5,-952 156.5,-952 632.5,-952 675.64,-952 681.39,-924.95 708,-891 717.02,-879.49 711.24,-862.86 720.85,-858.88"/>
<polygon fill="black" stroke="black" points="721.37,-860.57 726,-858 720.78,-857.12 721.37,-860.57"/>
<text text-anchor="middle" x="362.5" y="-955.8" font-family="Serif" font-size="14.00">E</text>
</g>
<!-- n1p2&#45;&gt;n3 -->
<!-- E -->
<g id="e10" class="edge">
<title>n1p2:e&#45;&gt;n3:w</title>
<path fill="none" stroke="black" d="M1,-795C16.93,-795 5.19,-818.05 19,-826 30.04,-832.35 35.5,-824.53 46.44,-822.47"/>
<polygon fill="black" stroke="black" points="46.68,-824.2 51.5,-822 46.36,-820.72 46.68,-824.2"/>
<text text-anchor="middle" x="25.5" y="-831.8" font-family="Serif" font-size="14.00">E</text>
</g>
<!-- n8 -->
<!-- asymptomatic_infection -->
<g id="n8" class="node">
<title>n8</title>
<polygon fill="none" stroke="black" points="182,-571 182,-596 336,-596 336,-571 182,-571"/>
<text text-anchor="start" x="187" y="-579.8" font-family="Serif" font-size="14.00">asymptomatic_infection</text>
</g>
<!-- n1p2&#45;&gt;n8 -->
<!-- E -->
<g id="e18" class="edge">
<title>n1p2:e&#45;&gt;n8:w</title>
<path fill="none" stroke="black" d="M1,-795C45.62,-795 -12.81,-626.3 19,-595 69.57,-545.25 107.54,-581.22 176.95,-582.94"/>
<polygon fill="black" stroke="black" points="176.98,-584.69 182,-583 177.02,-581.19 176.98,-584.69"/>
<text text-anchor="middle" x="91.5" y="-581.8" font-family="Serif" font-size="14.00">E</text>
</g>
<!-- n11 -->
<!-- illness -->
<g id="n11" class="node">
<title>n11</title>
<polygon fill="none" stroke="black" points="236,-742 236,-767 283,-767 283,-742 236,-742"/>
<text text-anchor="start" x="241" y="-750.8" font-family="Serif" font-size="14.00">illness</text>
</g>
<!-- n1p2&#45;&gt;n11 -->
<!-- E -->
<g id="e21" class="edge">
<title>n1p2:e&#45;&gt;n11:w</title>
<path fill="none" stroke="black" d="M1,-795C9.2,-795 10.95,-792.54 19,-791 32.71,-788.37 36.21,-788.14 50,-786 100.62,-778.14 113.58,-778.08 164,-769 194.01,-763.6 201.91,-755 229.93,-754.08"/>
<polygon fill="black" stroke="black" points="230.03,-755.83 235,-754 229.97,-752.33 230.03,-755.83"/>
<text text-anchor="middle" x="91.5" y="-789.8" font-family="Serif" font-size="14.00">E</text>
</g>
<!-- n1p4 -->
<!-- n1p3&#45;&gt;n1p4 -->
<!-- n2p3 -->
<!-- n1p3&#45;&gt;n2p3 -->
<!-- I -->
<g id="e3" class="edge">
<title>n1p3:e&#45;&gt;n2p3:w</title>
<path fill="none" stroke="black" d="M1,-455C256.79,-455 318.49,-492.91 572,-527 579.8,-528.05 693.81,-545.41 720.75,-548.52"/>
<polygon fill="black" stroke="black" points="720.86,-550.29 726,-549 721.18,-546.81 720.86,-550.29"/>
<text text-anchor="middle" x="362.5" y="-497.8" font-family="Serif" font-size="14.00">I</text>
</g>
<!-- n1p3&#45;&gt;n4 -->
<!-- I -->
<g id="e12" class="edge">
<title>n1p3:e&#45;&gt;n4:w</title>
<path fill="none" stroke="black" d="M1,-455C21.62,-455 29.47,-617.53 32,-638 44.54,-739.32 26.57,-767.63 50,-867 51.81,-874.66 49.83,-883.17 53.68,-886.52"/>
<polygon fill="black" stroke="black" points="53.21,-888.21 58.5,-888 54.23,-884.86 53.21,-888.21"/>
<text text-anchor="middle" x="25.5" y="-641.8" font-family="Serif" font-size="14.00">I</text>
</g>
<!-- n7 -->
<!-- progression -->
<g id="n7" class="node">
<title>n7</title>
<polygon fill="none" stroke="black" points="219,-379 219,-404 299,-404 299,-379 219,-379"/>
<text text-anchor="start" x="224" y="-387.8" font-family="Serif" font-size="14.00">progression</text>
</g>
<!-- n1p3&#45;&gt;n7 -->
<!-- I -->
<g id="e17" class="edge">
<title>n1p3:e&#45;&gt;n7:w</title>
<path fill="none" stroke="black" d="M1,-455C11.13,-455 10.39,-446.35 19,-441 32,-432.92 35.51,-430.93 50,-426 120.51,-402 140.79,-391.5 212.73,-391.02"/>
<polygon fill="black" stroke="black" points="213.01,-392.77 218,-391 212.99,-389.27 213.01,-392.77"/>
<text text-anchor="middle" x="91.5" y="-429.8" font-family="Serif" font-size="14.00">I</text>
</g>
<!-- n1p5 -->
<!-- n1p4&#45;&gt;n1p5 -->
<!-- n2p4 -->
<!-- n1p4&#45;&gt;n2p4 -->
<!-- I2 -->
<g id="e4" class="edge">
<title>n1p4:e&#45;&gt;n2p4:w</title>
<path fill="none" stroke="black" d="M1,-327C9.05,-327 10.97,-328.49 19,-329 250.56,-343.83 309.08,-330.73 541,-338 599.7,-339.84 621.21,-316.32 673,-344 706.4,-361.85 688.18,-411.08 720.81,-415.66"/>
<polygon fill="black" stroke="black" points="720.9,-417.42 726,-416 721.13,-413.93 720.9,-417.42"/>
<text text-anchor="middle" x="362.5" y="-339.8" font-family="Serif" font-size="14.00">I2</text>
</g>
<!-- n1p4&#45;&gt;n5 -->
<!-- I2 -->
<g id="e14" class="edge">
<title>n1p4:e&#45;&gt;n5:w</title>
<path fill="none" stroke="black" d="M1,-327C19.05,-327 29.4,-628.46 46.49,-666.15"/>
<polygon fill="black" stroke="black" points="45.34,-667.48 50,-670 47.93,-665.13 45.34,-667.48"/>
<text text-anchor="middle" x="25.5" y="-572.8" font-family="Serif" font-size="14.00">I2</text>
</g>
<!-- n9 -->
<!-- recovery2 -->
<g id="n9" class="node">
<title>n9</title>
<polygon fill="none" stroke="black" points="431,-347 431,-372 500,-372 500,-347 431,-347"/>
<text text-anchor="start" x="436" y="-355.8" font-family="Serif" font-size="14.00">recovery2</text>
</g>
<!-- n1p4&#45;&gt;n9 -->
<!-- I2 -->
<g id="e19" class="edge">
<title>n1p4:e&#45;&gt;n9:w</title>
<path fill="none" stroke="black" d="M1,-327C190.52,-327 237.97,-358.44 424.99,-358.99"/>
<polygon fill="black" stroke="black" points="425,-360.74 430,-359 425,-357.24 425,-360.74"/>
<text text-anchor="middle" x="157.5" y="-340.8" font-family="Serif" font-size="14.00">I2</text>
</g>
<!-- n13 -->
<!-- death2 -->
<g id="n13" class="node">
<title>n13</title>
<polygon fill="none" stroke="black" points="439,-236 439,-261 492,-261 492,-236 439,-236"/>
<text text-anchor="start" x="444" y="-244.8" font-family="Serif" font-size="14.00">death2</text>
</g>
<!-- n1p4&#45;&gt;n13 -->
<!-- I2 -->
<g id="e23" class="edge">
<title>n1p4:e&#45;&gt;n13:w</title>
<path fill="none" stroke="black" d="M1,-327C30.98,-327 -4.55,-280.54 19,-262 90.91,-205.38 336.01,-246.5 432.94,-247.96"/>
<polygon fill="black" stroke="black" points="432.99,-249.71 438,-248 433.01,-246.21 432.99,-249.71"/>
<text text-anchor="middle" x="157.5" y="-236.8" font-family="Serif" font-size="14.00">I2</text>
</g>
<!-- n1p6 -->
<!-- n1p5&#45;&gt;n1p6 -->
<!-- n2p5 -->
<!-- n1p5&#45;&gt;n2p5 -->
<!-- A -->
<g id="e5" class="edge">
<title>n1p5:e&#45;&gt;n2p5:w</title>
<path fill="none" stroke="black" d="M1,-210C150.36,-210 550.97,-111.89 673,-198 700.26,-217.23 691.86,-334.2 720.99,-346.04"/>
<polygon fill="black" stroke="black" points="720.76,-347.77 726,-347 721.42,-344.34 720.76,-347.77"/>
<text text-anchor="middle" x="362.5" y="-174.8" font-family="Serif" font-size="14.00">A</text>
</g>
<!-- n1p5&#45;&gt;n6 -->
<!-- A -->
<g id="e16" class="edge">
<title>n1p5:e&#45;&gt;n6:w</title>
<path fill="none" stroke="black" d="M1,-210C30.48,-210 26.79,-309.98 32,-339 34.93,-355.31 33.65,-477.16 47.25,-497.98"/>
<polygon fill="black" stroke="black" points="46.41,-499.53 51.5,-501 48.44,-496.68 46.41,-499.53"/>
<text text-anchor="middle" x="25.5" y="-342.8" font-family="Serif" font-size="14.00">A</text>
</g>
<!-- n10 -->
<!-- asymptomatic_recovery -->
<g id="n10" class="node">
<title>n10</title>
<polygon fill="none" stroke="black" points="389,-440 389,-465 541,-465 541,-440 389,-440"/>
<text text-anchor="start" x="394" y="-448.8" font-family="Serif" font-size="14.00">asymptomatic_recovery</text>
</g>
<!-- n1p5&#45;&gt;n10 -->
<!-- A -->
<g id="e20" class="edge">
<title>n1p5:e&#45;&gt;n10:w</title>
<path fill="none" stroke="black" d="M1,-210C17.16,-210 19.83,-218.36 32,-229 111.44,-298.44 91.32,-359.07 182,-413 260.97,-459.97 294.14,-452.31 383.85,-452.01"/>
<polygon fill="black" stroke="black" points="384,-453.76 389,-452 384,-450.26 384,-453.76"/>
<text text-anchor="middle" x="157.5" y="-404.8" font-family="Serif" font-size="14.00">A</text>
</g>
<!-- n1p7 -->
<!-- n1p6&#45;&gt;n1p7 -->
<!-- n2p6 -->
<!-- n1p6&#45;&gt;n2p6 -->
<!-- R -->
<g id="e6" class="edge">
<title>n1p6:e&#45;&gt;n2p6:w</title>
<path fill="none" stroke="black" d="M1,-133C165.45,-133 206.8,-123.06 371,-132 505.82,-139.34 561.88,-88.3 673,-165 692.93,-178.76 699.23,-257.47 721.09,-267.87"/>
<polygon fill="black" stroke="black" points="720.73,-269.58 726,-269 721.52,-266.17 720.73,-269.58"/>
<text text-anchor="middle" x="362.5" y="-135.8" font-family="Serif" font-size="14.00">R</text>
</g>
<!-- n12 -->
<!-- recover_late -->
<g id="n12" class="node">
<title>n12</title>
<polygon fill="none" stroke="black" points="590.5,-207 590.5,-232 673.5,-232 673.5,-207 590.5,-207"/>
<text text-anchor="start" x="595.5" y="-215.8" font-family="Serif" font-size="14.00">recover_late</text>
</g>
<!-- n1p6&#45;&gt;n12 -->
<!-- R -->
<g id="e22" class="edge">
<title>n1p6:e&#45;&gt;n12:w</title>
<path fill="none" stroke="black" d="M1,-133C10.87,-133 9.61,-123.04 19,-120 67.21,-104.41 82.9,-112.47 133,-120 234.62,-135.28 253.59,-166.12 354,-188 455.65,-210.15 483.3,-218.71 584.8,-218.99"/>
<polygon fill="black" stroke="black" points="585,-220.74 590,-219 585,-217.24 585,-220.74"/>
<text text-anchor="middle" x="259" y="-187.8" font-family="Serif" font-size="14.00">R</text>
</g>
<!-- n1p8 -->
<!-- n1p7&#45;&gt;n1p8 -->
<!-- n2p7 -->
<!-- n1p7&#45;&gt;n2p7 -->
<!-- R2 -->
<g id="e7" class="edge">
<title>n1p7:e&#45;&gt;n2p7:w</title>
<path fill="none" stroke="black" d="M1,-72C41.96,-72 49.54,-50 90.5,-50 90.5,-50 90.5,-50 566.5,-50 615.12,-50 628.23,-56.05 673,-75 697.06,-85.19 698,-105.99 720.79,-108.7"/>
<polygon fill="black" stroke="black" points="720.91,-110.46 726,-109 721.11,-106.97 720.91,-110.46"/>
<text text-anchor="middle" x="362.5" y="-53.8" font-family="Serif" font-size="14.00">R2</text>
</g>
<!-- n2p8 -->
<!-- n1p8&#45;&gt;n2p8 -->
<!-- D -->
<g id="e8" class="edge">
<title>n1p8:e&#45;&gt;n2p8:w</title>
<path fill="none" stroke="black" d="M1,-12C40.78,-12 50.72,-12 90.5,-12 90.5,-12 90.5,-12 632.5,-12 675.45,-12 680.93,-46.17 720.94,-48.84"/>
<polygon fill="black" stroke="black" points="720.95,-50.59 726,-49 721.06,-47.09 720.95,-50.59"/>
<text text-anchor="middle" x="362.5" y="-15.8" font-family="Serif" font-size="14.00">D</text>
</g>
<!-- n2p1&#45;&gt;n2p2 -->
<!-- n2p2&#45;&gt;n2p3 -->
<!-- n2p3&#45;&gt;n2p4 -->
<!-- n2p4&#45;&gt;n2p5 -->
<!-- n2p5&#45;&gt;n2p6 -->
<!-- n2p6&#45;&gt;n2p7 -->
<!-- n2p7&#45;&gt;n2p8 -->
<!-- n3&#45;&gt;n2p2 -->
<!-- E -->
<g id="e24" class="edge">
<title>n3:e&#45;&gt;n2p2:w</title>
<path fill="none" stroke="black" d="M131.5,-834C149.7,-834 135.37,-860.69 151,-870 155.96,-872.96 158.22,-870.06 164,-870 412.11,-867.35 475.3,-858.13 720.9,-858"/>
<polygon fill="black" stroke="black" points="721,-859.75 726,-858 721,-856.25 721,-859.75"/>
<text text-anchor="middle" x="465" y="-867.8" font-family="Serif" font-size="14.00">E</text>
</g>
<!-- n3&#45;&gt;n8 -->
<!-- E -->
<g id="e25" class="edge">
<title>n3:e&#45;&gt;n8:w</title>
<path fill="none" stroke="black" d="M131.5,-834C149.3,-834 147.05,-692.36 151,-675 152.04,-670.44 170.53,-604.6 178.94,-587.2"/>
<polygon fill="black" stroke="black" points="180.47,-588.07 182,-583 177.64,-586.01 180.47,-588.07"/>
<text text-anchor="middle" x="157.5" y="-678.8" font-family="Serif" font-size="14.00">E</text>
</g>
<!-- n3&#45;&gt;n11 -->
<!-- E -->
<g id="e26" class="edge">
<title>n3:e&#45;&gt;n11:w</title>
<path fill="none" stroke="black" d="M131.5,-834C143,-834 142.06,-824.23 151,-817 185.93,-788.74 188.21,-756.49 229.99,-754.14"/>
<polygon fill="black" stroke="black" points="230.05,-755.89 235,-754 229.95,-752.39 230.05,-755.89"/>
<text text-anchor="middle" x="157.5" y="-820.8" font-family="Serif" font-size="14.00">E</text>
</g>
<!-- n4&#45;&gt;n2p2 -->
<!-- E -->
<g id="e27" class="edge">
<title>n4:e&#45;&gt;n2p2:w</title>
<path fill="none" stroke="black" d="M125.5,-900C184.52,-900 198.98,-909 258,-909 258,-909 258,-909 632.5,-909 669.87,-909 676.31,-891.8 708,-872 714.85,-867.72 715.78,-861.37 721,-858.97"/>
<polygon fill="black" stroke="black" points="721.42,-860.67 726,-858 720.76,-857.23 721.42,-860.67"/>
<text text-anchor="middle" x="465" y="-912.8" font-family="Serif" font-size="14.00">E</text>
</g>
<!-- n4&#45;&gt;n8 -->
<!-- E -->
<g id="e28" class="edge">
<title>n4:e&#45;&gt;n8:w</title>
<path fill="none" stroke="black" d="M125.5,-900C140.54,-900 129.78,-881.69 133,-867 140.14,-834.39 158.38,-752.91 164,-720 166.33,-706.34 166.61,-605.78 177.92,-586.27"/>
<polygon fill="black" stroke="black" points="179.2,-587.5 182,-583 177.01,-584.77 179.2,-587.5"/>
<text text-anchor="middle" x="157.5" y="-786.8" font-family="Serif" font-size="14.00">E</text>
</g>
<!-- n4&#45;&gt;n11 -->
<!-- E -->
<g id="e29" class="edge">
<title>n4:e&#45;&gt;n11:w</title>
<path fill="none" stroke="black" d="M125.5,-900C144.43,-900 205.78,-772.75 230.34,-755.85"/>
<polygon fill="black" stroke="black" points="231,-757.47 235,-754 229.71,-754.22 231,-757.47"/>
<text text-anchor="middle" x="157.5" y="-875.8" font-family="Serif" font-size="14.00">E</text>
</g>
<!-- n5&#45;&gt;n2p2 -->
<!-- E -->
<g id="e30" class="edge">
<title>n5:e&#45;&gt;n2p2:w</title>
<path fill="none" stroke="black" d="M133,-682C188.56,-682 202.44,-682 258,-682 258,-682 258,-682 632.5,-682 675.06,-682 681.27,-844.52 720.99,-857.22"/>
<polygon fill="black" stroke="black" points="720.79,-858.96 726,-858 721.33,-855.5 720.79,-858.96"/>
<text text-anchor="middle" x="465" y="-685.8" font-family="Serif" font-size="14.00">E</text>
</g>
<!-- n5&#45;&gt;n8 -->
<!-- E -->
<g id="e31" class="edge">
<title>n5:e&#45;&gt;n8:w</title>
<path fill="none" stroke="black" d="M133,-682C163.83,-682 135.79,-641.82 151,-615 155.12,-607.73 167.31,-589.95 176.96,-584.57"/>
<polygon fill="black" stroke="black" points="177.75,-586.16 182,-583 176.71,-582.82 177.75,-586.16"/>
<text text-anchor="middle" x="157.5" y="-618.8" font-family="Serif" font-size="14.00">E</text>
</g>
<!-- n5&#45;&gt;n11 -->
<!-- E -->
<g id="e32" class="edge">
<title>n5:e&#45;&gt;n11:w</title>
<path fill="none" stroke="black" d="M133,-682C139.2,-682 210.38,-739.61 230.29,-751.77"/>
<polygon fill="black" stroke="black" points="229.73,-753.44 235,-754 231.23,-750.28 229.73,-753.44"/>
<text text-anchor="middle" x="157.5" y="-704.8" font-family="Serif" font-size="14.00">E</text>
</g>
<!-- n6&#45;&gt;n2p2 -->
<!-- E -->
<g id="e33" class="edge">
<title>n6:e&#45;&gt;n2p2:w</title>
<path fill="none" stroke="black" d="M131.5,-513C140.71,-513 141.93,-507.58 151,-506 156.69,-505.01 158.23,-505.65 164,-506 256.5,-511.57 281.76,-506.01 371,-531 512.93,-570.74 577.1,-556.08 673,-668 676.23,-671.77 712.63,-824.75 723.51,-853.4"/>
<polygon fill="black" stroke="black" points="722.08,-854.44 726,-858 725.16,-852.77 722.08,-854.44"/>
<text text-anchor="middle" x="465" y="-576.8" font-family="Serif" font-size="14.00">E</text>
</g>
<!-- n6&#45;&gt;n8 -->
<!-- E -->
<g id="e34" class="edge">
<title>n6:e&#45;&gt;n8:w</title>
<path fill="none" stroke="black" d="M131.5,-513C145.95,-513 152.7,-504.99 164,-514 187.23,-532.52 154.87,-576.96 176.85,-582.44"/>
<polygon fill="black" stroke="black" points="176.84,-584.2 182,-583 177.22,-580.72 176.84,-584.2"/>
<text text-anchor="middle" x="157.5" y="-517.8" font-family="Serif" font-size="14.00">E</text>
</g>
<!-- n6&#45;&gt;n11 -->
<!-- E -->
<g id="e35" class="edge">
<title>n6:e&#45;&gt;n11:w</title>
<path fill="none" stroke="black" d="M131.5,-513C159.05,-513 200.96,-728.36 230.08,-751.92"/>
<polygon fill="black" stroke="black" points="229.71,-753.66 235,-754 231.08,-750.44 229.71,-753.66"/>
<text text-anchor="middle" x="157.5" y="-575.8" font-family="Serif" font-size="14.00">E</text>
</g>
<!-- n7&#45;&gt;n2p4 -->
<!-- I2 -->
<g id="e36" class="edge">
<title>n7:e&#45;&gt;n2p4:w</title>
<path fill="none" stroke="black" d="M300,-391C324.2,-391 329.89,-395.86 354,-398 517.11,-412.49 559.57,-415.93 720.71,-416"/>
<polygon fill="black" stroke="black" points="721,-417.75 726,-416 721,-414.25 721,-417.75"/>
<text text-anchor="middle" x="565.5" y="-417.8" font-family="Serif" font-size="14.00">I2</text>
</g>
<!-- n7&#45;&gt;n9 -->
<!-- I2 -->
<g id="e37" class="edge">
<title>n7:e&#45;&gt;n9:w</title>
<path fill="none" stroke="black" d="M300,-391C357.76,-391 369.81,-360.85 424.89,-359.08"/>
<polygon fill="black" stroke="black" points="425.03,-360.83 430,-359 424.97,-357.33 425.03,-360.83"/>
<text text-anchor="middle" x="362.5" y="-383.8" font-family="Serif" font-size="14.00">I2</text>
</g>
<!-- n7&#45;&gt;n13 -->
<!-- I2 -->
<g id="e38" class="edge">
<title>n7:e&#45;&gt;n13:w</title>
<path fill="none" stroke="black" d="M300,-391C354.06,-391 314.36,-318.76 354,-282 382.26,-255.79 396.48,-248.61 432.95,-248.04"/>
<polygon fill="black" stroke="black" points="433.01,-249.79 438,-248 432.99,-246.29 433.01,-249.79"/>
<text text-anchor="middle" x="362.5" y="-285.8" font-family="Serif" font-size="14.00">I2</text>
</g>
<!-- n8&#45;&gt;n2p5 -->
<!-- A -->
<g id="e39" class="edge">
<title>n8:e&#45;&gt;n2p5:w</title>
<path fill="none" stroke="black" d="M336,-583C427.73,-583 459.84,-601.76 541,-559 594.81,-530.65 659.81,-356.88 720.86,-347.4"/>
<polygon fill="black" stroke="black" points="721.15,-349.14 726,-347 720.88,-345.65 721.15,-349.14"/>
<text text-anchor="middle" x="565.5" y="-548.8" font-family="Serif" font-size="14.00">A</text>
</g>
<!-- n8&#45;&gt;n10 -->
<!-- A -->
<g id="e40" class="edge">
<title>n8:e&#45;&gt;n10:w</title>
<path fill="none" stroke="black" d="M336,-583C346.01,-583 367.3,-509.3 371,-500 378.7,-480.65 368.33,-456.57 383.89,-452.57"/>
<polygon fill="black" stroke="black" points="384.23,-454.3 389,-452 383.84,-450.82 384.23,-454.3"/>
<text text-anchor="middle" x="362.5" y="-553.8" font-family="Serif" font-size="14.00">A</text>
</g>
<!-- n9&#45;&gt;n2p6 -->
<!-- R -->
<g id="e41" class="edge">
<title>n9:e&#45;&gt;n2p6:w</title>
<path fill="none" stroke="black" d="M501,-359C543.49,-359 521.74,-303.42 559,-283 622.79,-248.05 650.22,-268.01 720.84,-268.97"/>
<polygon fill="black" stroke="black" points="720.99,-270.72 726,-269 721.01,-267.22 720.99,-270.72"/>
<text text-anchor="middle" x="631.5" y="-272.8" font-family="Serif" font-size="14.00">R</text>
</g>
<!-- n9&#45;&gt;n12 -->
<!-- R -->
<g id="e42" class="edge">
<title>n9:e&#45;&gt;n12:w</title>
<path fill="none" stroke="black" d="M501,-359C572.86,-359 519.15,-226.02 584.64,-219.27"/>
<polygon fill="black" stroke="black" points="585.09,-221 590,-219 584.92,-217.5 585.09,-221"/>
<text text-anchor="middle" x="565.5" y="-237.8" font-family="Serif" font-size="14.00">R</text>
</g>
<!-- n10&#45;&gt;n2p6 -->
<!-- R -->
<g id="e43" class="edge">
<title>n10:e&#45;&gt;n2p6:w</title>
<path fill="none" stroke="black" d="M541,-452C568.42,-452 543.17,-415.38 559,-393 606.52,-325.79 642.4,-332.72 708,-283 714.44,-278.12 715.61,-272.13 720.95,-269.89"/>
<polygon fill="black" stroke="black" points="721.38,-271.6 726,-269 720.77,-268.15 721.38,-271.6"/>
<text text-anchor="middle" x="631.5" y="-360.8" font-family="Serif" font-size="14.00">R</text>
</g>
<!-- n10&#45;&gt;n12 -->
<!-- R -->
<g id="e44" class="edge">
<title>n10:e&#45;&gt;n12:w</title>
<path fill="none" stroke="black" d="M541,-452C564.67,-452 554.21,-370.18 559,-347 561.67,-334.07 572.85,-240.25 585.76,-222.05"/>
<polygon fill="black" stroke="black" points="586.96,-223.34 590,-219 584.92,-220.5 586.96,-223.34"/>
<text text-anchor="middle" x="565.5" y="-350.8" font-family="Serif" font-size="14.00">R</text>
</g>
<!-- n11&#45;&gt;n2p3 -->
<!-- I -->
<g id="e45" class="edge">
<title>n11:e&#45;&gt;n2p3:w</title>
<path fill="none" stroke="black" d="M284,-754C400.63,-754 435.76,-751.26 541,-701 635.43,-655.9 620.13,-552.51 720.8,-549.09"/>
<polygon fill="black" stroke="black" points="721.03,-550.83 726,-549 720.97,-547.33 721.03,-550.83"/>
<text text-anchor="middle" x="565.5" y="-693.8" font-family="Serif" font-size="14.00">I</text>
</g>
<!-- n12&#45;&gt;n2p7 -->
<!-- R2 -->
<g id="e46" class="edge">
<title>n12:e&#45;&gt;n2p7:w</title>
<path fill="none" stroke="black" d="M673,-219C725.47,-219 675.3,-116.18 720.95,-109.36"/>
<polygon fill="black" stroke="black" points="721.14,-111.1 726,-109 720.89,-107.61 721.14,-111.1"/>
<text text-anchor="middle" x="699.5" y="-215.8" font-family="Serif" font-size="14.00">R2</text>
</g>
<!-- n13&#45;&gt;n2p8 -->
<!-- D -->
<g id="e47" class="edge">
<title>n13:e&#45;&gt;n2p8:w</title>
<path fill="none" stroke="black" d="M493,-248C559.36,-248 653.01,-58.98 720.76,-49.38"/>
<polygon fill="black" stroke="black" points="721.14,-51.11 726,-49 720.89,-47.61 721.14,-51.11"/>
<text text-anchor="middle" x="631.5" y="-175.8" font-family="Serif" font-size="14.00">D</text>
</g>
</g>
</svg>
